<svg width="24" height="24" viewBox="0 0 24 24" fill="none" xmlns="http://www.w3.org/2000/svg">
<path d="M5.25 20.5C5.0375 20.5 4.85942 20.4281 4.71575 20.2843C4.57192 20.1404 4.5 19.9622 4.5 19.7498C4.5 19.5371 4.57192 19.359 4.71575 19.2155C4.85942 19.0718 5.0375 19 5.25 19H18.75C18.9625 19 19.1406 19.0719 19.2843 19.2158C19.4281 19.3596 19.5 19.5378 19.5 19.7502C19.5 19.9629 19.4281 20.141 19.2843 20.2845C19.1406 20.4282 18.9625 20.5 18.75 20.5H5.25ZM11.9988 16.277C11.8791 16.277 11.7673 16.2577 11.6635 16.2192C11.5597 16.1807 11.4609 16.1147 11.3672 16.0213L7.873 12.527C7.73467 12.3885 7.66383 12.2144 7.6605 12.0048C7.65733 11.7952 7.72817 11.618 7.873 11.473C8.018 11.3282 8.19367 11.2558 8.4 11.2558C8.60633 11.2558 8.782 11.3282 8.927 11.473L11.25 13.7963V4.25C11.25 4.0375 11.3219 3.85942 11.4658 3.71575C11.6096 3.57192 11.7878 3.5 12.0003 3.5C12.2129 3.5 12.391 3.57192 12.5345 3.71575C12.6782 3.85942 12.75 4.0375 12.75 4.25V13.7963L15.073 11.473C15.2115 11.3347 15.3856 11.2638 15.5953 11.2605C15.8048 11.2573 15.982 11.3282 16.127 11.473C16.2718 11.618 16.3443 11.7937 16.3443 12C16.3443 12.2063 16.2718 12.382 16.127 12.527L12.6328 16.0213C12.5391 16.1147 12.4399 16.1807 12.3353 16.2192C12.2306 16.2577 12.1184 16.277 11.9988 16.277Z" fill="#273540"/>
</svg>
