<svg width="24" height="24" viewBox="0 0 24 24" fill="none" xmlns="http://www.w3.org/2000/svg">
<path d="M11.9999 20.5C9.91788 20.5 8.14738 19.7804 6.68838 18.3413C5.22938 16.9023 4.49988 15.1616 4.49988 13.1193C4.49988 12.2308 4.6573 11.3868 4.97213 10.5875C5.2868 9.78817 5.72047 9.05259 6.27313 8.38075L2.63838 4.74625C2.49988 4.60775 2.42905 4.43367 2.42588 4.224C2.42272 4.0145 2.49355 3.83725 2.63838 3.69225C2.78322 3.54742 2.95888 3.475 3.16538 3.475C3.37172 3.475 3.5473 3.54742 3.69213 3.69225L20.3651 20.3653C20.5036 20.5038 20.5745 20.6778 20.5776 20.8875C20.581 21.0972 20.5101 21.2744 20.3651 21.4193C20.2203 21.5641 20.0447 21.6365 19.8384 21.6365C19.6319 21.6365 19.4562 21.5641 19.3114 21.4193L16.7191 18.8268C16.0871 19.3551 15.365 19.766 14.5529 20.0595C13.7405 20.3532 12.8895 20.5 11.9999 20.5ZM11.9999 19C12.728 19 13.403 18.8798 14.0249 18.6395C14.6467 18.399 15.1833 18.0999 15.6346 17.7423L7.32688 9.46525C6.92555 9.97942 6.60405 10.5433 6.36238 11.1568C6.12072 11.7703 5.99988 12.4244 5.99988 13.1193C5.99988 14.7526 6.58322 16.141 7.74988 17.2845C8.91655 18.4282 10.3332 19 11.9999 19ZM17.3036 7.89625C18.2651 8.85125 18.909 9.95667 19.2354 11.2125C19.5617 12.4683 19.5652 13.7206 19.2459 14.9693C19.2024 15.1449 19.1146 15.2802 18.9826 15.375C18.8505 15.4698 18.6966 15.5173 18.5211 15.5173C18.2441 15.5173 18.0441 15.4042 17.9211 15.178C17.798 14.9517 17.7716 14.7103 17.8421 14.4538C18.1435 13.5179 18.1275 12.5474 17.7941 11.5423C17.4608 10.5371 16.946 9.68967 16.2499 9L11.9999 4.8L10.2499 6.5155C10.1114 6.65384 9.93738 6.72208 9.72788 6.72025C9.51822 6.71825 9.34097 6.64484 9.19613 6.5C9.04097 6.34484 8.96338 6.16667 8.96338 5.9655C8.96338 5.76417 9.04097 5.59108 9.19613 5.44625L11.1519 3.525C11.2762 3.40067 11.4108 3.31158 11.5556 3.25775C11.7005 3.20392 11.8485 3.177 11.9999 3.177C12.1512 3.177 12.2993 3.2065 12.4441 3.2655C12.589 3.3245 12.7235 3.411 12.8479 3.525L17.3036 7.89625Z" fill="#273540"/>
</svg>
