<svg width="136" height="227" viewBox="0 0 136 227" fill="none" xmlns="http://www.w3.org/2000/svg">
<g clip-path="url(#clip0_4274_29868)">
<path fill-rule="evenodd" clip-rule="evenodd" d="M26.5 1.25H116.5C126.441 1.25 134.5 9.3089 134.5 19.25V181.25C134.5 191.191 126.441 199.25 116.5 199.25H26.5C16.5589 199.25 8.5 191.191 8.5 181.25V19.25C8.5 9.3089 16.5589 1.25 26.5 1.25Z" fill="#2D3B45" stroke="#152633" stroke-width="2"/>
<path fill-rule="evenodd" clip-rule="evenodd" d="M40.9682 9.2698C40.9682 13.0202 43.98 16.0702 47.727 16.153L47.8835 16.1548H95.461C99.228 16.1548 102.291 13.1561 102.374 9.4256L102.376 9.2698V7.25H116.296C123.036 7.25 128.5 12.6897 128.5 19.4V181.6C128.5 188.31 123.036 193.75 116.296 193.75H26.7035C19.9637 193.75 14.5 188.31 14.5 181.6V19.4C14.5 12.6897 19.9637 7.25 26.7035 7.25H40.9682V9.2698Z" fill="white" stroke="#152633" stroke-width="2"/>
<path fill-rule="evenodd" clip-rule="evenodd" d="M25.6278 33.25H117.372C119.155 33.25 119.802 33.4356 120.454 33.7843C121.106 34.1329 121.617 34.6445 121.966 35.2963C122.314 35.9482 122.5 36.5947 122.5 38.3778V60.1222C122.5 61.9053 122.314 62.5518 121.966 63.2037C121.617 63.8555 121.106 64.3671 120.454 64.7157C119.802 65.0644 119.155 65.25 117.372 65.25H25.6278C23.8447 65.25 23.1982 65.0644 22.5463 64.7157C21.8945 64.3671 21.3829 63.8555 21.0343 63.2037C20.6857 62.5518 20.5 61.9053 20.5 60.1222V38.3778C20.5 36.5947 20.6857 35.9482 21.0343 35.2963C21.3829 34.6445 21.8945 34.1329 22.5463 33.7843C23.1982 33.4356 23.8447 33.25 25.6278 33.25Z" fill="#F2F2F2"/>
<path d="M36.5 59.25C42.0228 59.25 46.5 54.7728 46.5 49.25C46.5 43.7272 42.0228 39.25 36.5 39.25C30.9772 39.25 26.5 43.7272 26.5 49.25C26.5 54.7728 30.9772 59.25 36.5 59.25Z" fill="#C7CDD1"/>
<path fill-rule="evenodd" clip-rule="evenodd" d="M51.7819 40.25H83.218C83.664 40.25 83.825 40.2964 83.988 40.3836C84.151 40.4707 84.279 40.5986 84.366 40.7616C84.454 40.9245 84.5 41.0862 84.5 41.5319V46.9681C84.5 47.4138 84.454 47.5755 84.366 47.7384C84.279 47.9014 84.151 48.0293 83.988 48.1164C83.825 48.2036 83.664 48.25 83.218 48.25H51.7819C51.3362 48.25 51.1745 48.2036 51.0116 48.1164C50.8486 48.0293 50.7207 47.9014 50.6336 47.7384C50.5464 47.5755 50.5 47.4138 50.5 46.9681V41.5319C50.5 41.0862 50.5464 40.9245 50.6336 40.7616C50.7207 40.5986 50.8486 40.4707 51.0116 40.3836C51.1745 40.2964 51.3362 40.25 51.7819 40.25Z" fill="#C7CDD1"/>
<path fill-rule="evenodd" clip-rule="evenodd" d="M51.7819 50.25H109.218C109.664 50.25 109.825 50.2964 109.988 50.3836C110.151 50.4707 110.279 50.5986 110.366 50.7616C110.454 50.9245 110.5 51.0862 110.5 51.5319V56.9681C110.5 57.4138 110.454 57.5755 110.366 57.7384C110.279 57.9014 110.151 58.0293 109.988 58.1164C109.825 58.2036 109.664 58.25 109.218 58.25H51.7819C51.3362 58.25 51.1745 58.2036 51.0116 58.1164C50.8486 58.0293 50.7207 57.9014 50.6336 57.7384C50.5464 57.5755 50.5 57.4138 50.5 56.9681V51.5319C50.5 51.0862 50.5464 50.9245 50.6336 50.7616C50.7207 50.5986 50.8486 50.4707 51.0116 50.3836C51.1745 50.2964 51.3362 50.25 51.7819 50.25Z" fill="#C7CDD1"/>
<path opacity="0.03" fill-rule="evenodd" clip-rule="evenodd" d="M15.5 73.25H101.372C103.155 73.25 103.802 73.436 104.454 73.784C105.106 74.133 105.617 74.644 105.966 75.296C106.314 75.948 106.5 76.595 106.5 78.378V100.122C106.5 101.905 106.314 102.552 105.966 103.204C105.617 103.856 105.106 104.367 104.454 104.716C103.802 105.064 103.155 105.25 101.372 105.25H15.5V73.25Z" fill="black"/>
<path fill-rule="evenodd" clip-rule="evenodd" d="M5.6278 69.25H97.372C99.155 69.25 99.802 69.4356 100.454 69.7843C101.106 70.1329 101.617 70.644 101.966 71.296C102.314 71.948 102.5 72.595 102.5 74.378V96.122C102.5 97.905 102.314 98.552 101.966 99.204C101.617 99.856 101.106 100.367 100.454 100.716C99.802 101.064 99.155 101.25 97.372 101.25H5.6278C3.8447 101.25 3.1982 101.064 2.5463 100.716C1.8945 100.367 1.3829 99.856 1.0343 99.204C0.685702 98.552 0.5 97.905 0.5 96.122V74.378C0.5 72.595 0.685702 71.948 1.0343 71.296C1.3829 70.644 1.8945 70.1329 2.5463 69.7843C3.1982 69.4356 3.8447 69.25 5.6278 69.25Z" fill="#FEE28B"/>
<path d="M16.5 95.25C22.0228 95.25 26.5 90.773 26.5 85.25C26.5 79.727 22.0228 75.25 16.5 75.25C10.9772 75.25 6.5 79.727 6.5 85.25C6.5 90.773 10.9772 95.25 16.5 95.25Z" fill="#FFC100"/>
<path fill-rule="evenodd" clip-rule="evenodd" d="M31.7819 76.25H63.218C63.664 76.25 63.825 76.296 63.988 76.384C64.151 76.471 64.279 76.599 64.366 76.762C64.454 76.925 64.5 77.086 64.5 77.532V82.968C64.5 83.414 64.454 83.575 64.366 83.738C64.279 83.901 64.151 84.029 63.988 84.116C63.825 84.204 63.664 84.25 63.218 84.25H31.7819C31.3362 84.25 31.1745 84.204 31.0116 84.116C30.8486 84.029 30.7207 83.901 30.6336 83.738C30.5464 83.575 30.5 83.414 30.5 82.968V77.532C30.5 77.086 30.5464 76.925 30.6336 76.762C30.7207 76.599 30.8486 76.471 31.0116 76.384C31.1745 76.296 31.3362 76.25 31.7819 76.25Z" fill="#FFC100"/>
<path fill-rule="evenodd" clip-rule="evenodd" d="M31.7819 86.25H89.218C89.664 86.25 89.825 86.296 89.988 86.384C90.151 86.471 90.279 86.599 90.366 86.762C90.454 86.925 90.5 87.086 90.5 87.532V92.968C90.5 93.414 90.454 93.575 90.366 93.738C90.279 93.901 90.151 94.029 89.988 94.116C89.825 94.204 89.664 94.25 89.218 94.25H31.7819C31.3362 94.25 31.1745 94.204 31.0116 94.116C30.8486 94.029 30.7207 93.901 30.6336 93.738C30.5464 93.575 30.5 93.414 30.5 92.968V87.532C30.5 87.086 30.5464 86.925 30.6336 86.762C30.7207 86.599 30.8486 86.471 31.0116 86.384C31.1745 86.296 31.3362 86.25 31.7819 86.25Z" fill="#FFC100"/>
<path fill-rule="evenodd" clip-rule="evenodd" d="M25.6278 109.25H117.372C119.155 109.25 119.802 109.436 120.454 109.784C121.106 110.133 121.617 110.644 121.966 111.296C122.314 111.948 122.5 112.595 122.5 114.378V136.122C122.5 137.905 122.314 138.552 121.966 139.204C121.617 139.856 121.106 140.367 120.454 140.716C119.802 141.064 119.155 141.25 117.372 141.25H25.6278C23.8447 141.25 23.1982 141.064 22.5463 140.716C21.8945 140.367 21.3829 139.856 21.0343 139.204C20.6857 138.552 20.5 137.905 20.5 136.122V114.378C20.5 112.595 20.6857 111.948 21.0343 111.296C21.3829 110.644 21.8945 110.133 22.5463 109.784C23.1982 109.436 23.8447 109.25 25.6278 109.25Z" fill="#F2F2F2"/>
<path d="M36.5 135.25C42.0228 135.25 46.5 130.773 46.5 125.25C46.5 119.727 42.0228 115.25 36.5 115.25C30.9772 115.25 26.5 119.727 26.5 125.25C26.5 130.773 30.9772 135.25 36.5 135.25Z" fill="#C7CDD1"/>
<path fill-rule="evenodd" clip-rule="evenodd" d="M51.7819 116.25H83.218C83.664 116.25 83.825 116.296 83.988 116.384C84.151 116.471 84.279 116.599 84.366 116.762C84.454 116.925 84.5 117.086 84.5 117.532V122.968C84.5 123.414 84.454 123.575 84.366 123.738C84.279 123.901 84.151 124.029 83.988 124.116C83.825 124.204 83.664 124.25 83.218 124.25H51.7819C51.3362 124.25 51.1745 124.204 51.0116 124.116C50.8486 124.029 50.7207 123.901 50.6336 123.738C50.5464 123.575 50.5 123.414 50.5 122.968V117.532C50.5 117.086 50.5464 116.925 50.6336 116.762C50.7207 116.599 50.8486 116.471 51.0116 116.384C51.1745 116.296 51.3362 116.25 51.7819 116.25Z" fill="#C7CDD1"/>
<path fill-rule="evenodd" clip-rule="evenodd" d="M51.7819 126.25H109.218C109.664 126.25 109.825 126.296 109.988 126.384C110.151 126.471 110.279 126.599 110.366 126.762C110.454 126.925 110.5 127.086 110.5 127.532V132.968C110.5 133.414 110.454 133.575 110.366 133.738C110.279 133.901 110.151 134.029 109.988 134.116C109.825 134.204 109.664 134.25 109.218 134.25H51.7819C51.3362 134.25 51.1745 134.204 51.0116 134.116C50.8486 134.029 50.7207 133.901 50.6336 133.738C50.5464 133.575 50.5 133.414 50.5 132.968V127.532C50.5 127.086 50.5464 126.925 50.6336 126.762C50.7207 126.599 50.8486 126.471 51.0116 126.384C51.1745 126.296 51.3362 126.25 51.7819 126.25Z" fill="#C7CDD1"/>
<path fill-rule="evenodd" clip-rule="evenodd" d="M25.6278 147.25H117.372C119.155 147.25 119.802 147.436 120.454 147.784C121.106 148.133 121.617 148.644 121.966 149.296C122.314 149.948 122.5 150.595 122.5 152.378V174.122C122.5 175.905 122.314 176.552 121.966 177.204C121.617 177.856 121.106 178.367 120.454 178.716C119.802 179.064 119.155 179.25 117.372 179.25H25.6278C23.8447 179.25 23.1982 179.064 22.5463 178.716C21.8945 178.367 21.3829 177.856 21.0343 177.204C20.6857 176.552 20.5 175.905 20.5 174.122V152.378C20.5 150.595 20.6857 149.948 21.0343 149.296C21.3829 148.644 21.8945 148.133 22.5463 147.784C23.1982 147.436 23.8447 147.25 25.6278 147.25Z" fill="#F2F2F2"/>
<path d="M36.5 173.25C42.0228 173.25 46.5 168.773 46.5 163.25C46.5 157.727 42.0228 153.25 36.5 153.25C30.9772 153.25 26.5 157.727 26.5 163.25C26.5 168.773 30.9772 173.25 36.5 173.25Z" fill="#C7CDD1"/>
<path fill-rule="evenodd" clip-rule="evenodd" d="M51.7819 154.25H83.218C83.664 154.25 83.825 154.296 83.988 154.384C84.151 154.471 84.279 154.599 84.366 154.762C84.454 154.925 84.5 155.086 84.5 155.532V160.968C84.5 161.414 84.454 161.575 84.366 161.738C84.279 161.901 84.151 162.029 83.988 162.116C83.825 162.204 83.664 162.25 83.218 162.25H51.7819C51.3362 162.25 51.1745 162.204 51.0116 162.116C50.8486 162.029 50.7207 161.901 50.6336 161.738C50.5464 161.575 50.5 161.414 50.5 160.968V155.532C50.5 155.086 50.5464 154.925 50.6336 154.762C50.7207 154.599 50.8486 154.471 51.0116 154.384C51.1745 154.296 51.3362 154.25 51.7819 154.25Z" fill="#C7CDD1"/>
<path fill-rule="evenodd" clip-rule="evenodd" d="M51.7819 164.25H109.218C109.664 164.25 109.825 164.296 109.988 164.384C110.151 164.471 110.279 164.599 110.366 164.762C110.454 164.925 110.5 165.086 110.5 165.532V170.968C110.5 171.414 110.454 171.575 110.366 171.738C110.279 171.901 110.151 172.029 109.988 172.116C109.825 172.204 109.664 172.25 109.218 172.25H51.7819C51.3362 172.25 51.1745 172.204 51.0116 172.116C50.8486 172.029 50.7207 171.901 50.6336 171.738C50.5464 171.575 50.5 171.414 50.5 170.968V165.532C50.5 165.086 50.5464 164.925 50.6336 164.762C50.7207 164.599 50.8486 164.471 51.0116 164.384C51.1745 164.296 51.3362 164.25 51.7819 164.25Z" fill="#C7CDD1"/>
<path d="M72.5 226.75C103.98 226.75 129.5 224.4 129.5 221.5C129.5 218.6 103.98 216.25 72.5 216.25C41.0198 216.25 15.5 218.6 15.5 221.5C15.5 224.4 41.0198 226.75 72.5 226.75Z" fill="black" fill-opacity="0.05"/>
</g>
<defs>
<clipPath id="clip0_4274_29868">
<rect width="135" height="227" fill="white" transform="translate(0.5)"/>
</clipPath>
</defs>
</svg>
