<svg version="1.1" xmlns="http://www.w3.org/2000/svg" viewBox="0 0 24 24">
 <g id="Guides">
  <line id="Baseline-S" x1="0" x2="24" y1="18" y2="18"/>
  <line id="Capline-S"  x1="0" x2="24" y1="6"  y2="6"/>
  <line id="Baseline-M" x1="0" x2="24" y1="18" y2="18"/>
  <line id="Capline-M"  x1="0" x2="24" y1="6"  y2="6"/>
  <line id="Baseline-L" x1="0" x2="24" y1="18" y2="18"/>
  <line id="Capline-L"  x1="0" x2="24" y1="6"  y2="6"/>
  <line id="left-margin"  x1="0"  x2="0"  y1="0" y2="24"/>
  <line id="right-margin" x1="24" x2="24" y1="0" y2="24"/>
 </g>
 <g id="Symbols">
  <g id="Regular-M">
   <rect width="24" height="24" opacity="0" />
   <g transform="matrix(0.010416666666666666 0 0 0.010416666666666666 2 2)">
     <path d="M1581.176 1750.588c0 31.06-25.411 56.47-56.47 56.47H395.294c-31.059 0-56.47-25.41-56.47-56.47V564.706H225.882v1185.882c0 93.403 76.01 169.412 169.412 169.412h1129.412c93.402 0 169.412-76.01 169.412-169.412V564.706h-112.942v1185.882zm-903.529-169.412h112.941V677.647h-112.94v903.53zm451.765 0h112.94V677.647h-112.94v903.53zm211.211-1242.352L1217.065 0H694.6L571.268 338.824H.01v112.94h1920v-112.94h-579.388zm-649.299 0l82.334-225.883h364.462l82.334 225.883h-529.13z" stroke="none" stroke-width="1" fill-rule="evenodd"/>
   </g>
  </g>
 </g>
</svg>
