<svg version="1.1" xmlns="http://www.w3.org/2000/svg" viewBox="0 0 24 24">
 <g id="Guides">
  <line id="Baseline-S" x1="0" x2="24" y1="18" y2="18"/>
  <line id="Capline-S"  x1="0" x2="24" y1="6"  y2="6"/>
  <line id="Baseline-M" x1="0" x2="24" y1="18" y2="18"/>
  <line id="Capline-M"  x1="0" x2="24" y1="6"  y2="6"/>
  <line id="Baseline-L" x1="0" x2="24" y1="18" y2="18"/>
  <line id="Capline-L"  x1="0" x2="24" y1="6"  y2="6"/>
  <line id="left-margin"  x1="0"  x2="0"  y1="0" y2="24"/>
  <line id="right-margin" x1="24" x2="24" y1="0" y2="24"/>
 </g>
 <g id="Symbols">
  <g id="Regular-M">
   <rect width="24" height="24" opacity="0" />
   <g transform="matrix(0.010416666666666666 0 0 0.010416666666666666 2 2)">
     <path d="M1496.099 0l-397.312 397.312 151.551 151.55L1388.92 410.28v330.754c0 146.835-74.06 198.066-215.965 283.273-71.06 42.55-150.693 90.46-212.75 161.733-62.056-71.274-141.69-119.183-212.75-161.733C605.552 939.1 531.49 887.87 531.49 741.034V410.28l138.582 138.582 151.551-151.55L424.312 0 27 397.312l151.55 151.55L317.134 410.28v330.754c0 275.02 177.38 381.556 319.928 466.978 141.905 85.207 215.966 136.438 215.966 283.273V1920h214.357v-428.715c0-146.835 74.06-198.066 215.965-283.273 142.548-85.422 319.929-191.958 319.929-466.978V410.28l138.582 138.582 151.55-151.55L1496.1 0z" stroke="none" stroke-width="1" fill-rule="evenodd"/>
   </g>
  </g>
 </g>
</svg>
