<svg width="24" height="24" viewBox="0 0 24 24" fill="none" xmlns="http://www.w3.org/2000/svg">
<path d="M5.30775 20.5C4.80908 20.5 4.38308 20.3234 4.02975 19.9703C3.67658 19.6169 3.5 19.1909 3.5 18.6923V5.30775C3.5 4.80908 3.67658 4.38308 4.02975 4.02975C4.38308 3.67658 4.80908 3.5 5.30775 3.5H9.75775C9.82058 2.94483 10.0629 2.47275 10.4848 2.08375C10.9064 1.69458 11.4115 1.5 12 1.5C12.5948 1.5 13.1032 1.69458 13.525 2.08375C13.9468 2.47275 14.1859 2.94483 14.2423 3.5H18.6923C19.1909 3.5 19.6169 3.67658 19.9703 4.02975C20.3234 4.38308 20.5 4.80908 20.5 5.30775V18.6923C20.5 19.1909 20.3234 19.6169 19.9703 19.9703C19.6169 20.3234 19.1909 20.5 18.6923 20.5H5.30775ZM5.30775 19H18.6923C18.7692 19 18.8398 18.9679 18.9038 18.9038C18.9679 18.8398 19 18.7693 19 18.6923V5.30775C19 5.23075 18.9679 5.16025 18.9038 5.09625C18.8398 5.03208 18.7692 5 18.6923 5H5.30775C5.23075 5 5.16025 5.03208 5.09625 5.09625C5.03208 5.16025 5 5.23075 5 5.30775V18.6923C5 18.7693 5.03208 18.8398 5.09625 18.9038C5.16025 18.9679 5.23075 19 5.30775 19ZM12 4.34625C12.2167 4.34625 12.3958 4.27542 12.5375 4.13375C12.6792 3.99208 12.75 3.81292 12.75 3.59625C12.75 3.37958 12.6792 3.20042 12.5375 3.05875C12.3958 2.91708 12.2167 2.84625 12 2.84625C11.7833 2.84625 11.6042 2.91708 11.4625 3.05875C11.3208 3.20042 11.25 3.37958 11.25 3.59625C11.25 3.81292 11.3208 3.99208 11.4625 4.13375C11.6042 4.27542 11.7833 4.34625 12 4.34625ZM7.8365 16.6152H8.5845C8.705 16.6152 8.81975 16.5909 8.92875 16.5423C9.03775 16.4936 9.13392 16.4276 9.21725 16.3443L14.9078 10.7038L13.2962 9.09225L7.65575 14.7327C7.56225 14.8263 7.49367 14.9275 7.45 15.0365C7.4065 15.1455 7.38475 15.2603 7.38475 15.3807V16.1635C7.38475 16.284 7.42992 16.3894 7.52025 16.4798C7.61058 16.5701 7.716 16.6152 7.8365 16.6152ZM15.5307 10.0807L16.4653 9.11525C16.5652 9.01525 16.6152 8.89858 16.6152 8.76525C16.6152 8.63192 16.5652 8.51525 16.4653 8.41525L15.5848 7.53475C15.4848 7.43475 15.3681 7.38475 15.2348 7.38475C15.1014 7.38475 14.9848 7.43475 14.8848 7.53475L13.9193 8.46925L15.5307 10.0807Z" fill="#273540"/>
</svg>
