<svg version="1.1" xmlns="http://www.w3.org/2000/svg" viewBox="0 0 24 24">
 <g id="Guides">
  <line id="Baseline-S" x1="0" x2="24" y1="18" y2="18"/>
  <line id="Capline-S"  x1="0" x2="24" y1="6"  y2="6"/>
  <line id="Baseline-M" x1="0" x2="24" y1="18" y2="18"/>
  <line id="Capline-M"  x1="0" x2="24" y1="6"  y2="6"/>
  <line id="Baseline-L" x1="0" x2="24" y1="18" y2="18"/>
  <line id="Capline-L"  x1="0" x2="24" y1="6"  y2="6"/>
  <line id="left-margin"  x1="0"  x2="0"  y1="0" y2="24"/>
  <line id="right-margin" x1="24" x2="24" y1="0" y2="24"/>
 </g>
 <g id="Symbols">
  <g id="Regular-M">
   <rect width="24" height="24" opacity="0" />
   <g transform="matrix(0.010416666666666666 0 0 0.010416666666666666 2 2)">
     <path d="M213.333 960c0-167.36 56-321.707 149.44-446.4L1406.4 1557.227c-124.693 93.44-279.04 149.44-446.4 149.44-411.627 0-746.667-335.04-746.667-746.667m1493.334 0c0 167.36-56 321.707-149.44 446.4L513.6 362.773c124.693-93.44 279.04-149.44 446.4-149.44 411.627 0 746.667 335.04 746.667 746.667M960 0C429.76 0 0 429.76 0 960s429.76 960 960 960 960-429.76 960-960S1490.24 0 960 0" stroke="none" stroke-width="1" fill-rule="evenodd"/>
   </g>
  </g>
 </g>
</svg>
