
<svg version="1.1" xmlns="http://www.w3.org/2000/svg" viewBox="0 0 24 24">
 <g id="Guides">
  <line id="Baseline-S" x1="0" x2="24" y1="18" y2="18"/>
  <line id="Capline-S"  x1="0" x2="24" y1="6" y2="6"/>
  <line id="Baseline-M" x1="0" x2="24" y1="18" y2="18"/>
  <line id="Capline-M"  x1="0" x2="24" y1="6" y2="6"/>
  <line id="Baseline-L" x1="0" x2="24" y1="18" y2="18"/>
  <line id="Capline-L"  x1="0" x2="24" y1="6" y2="6"/>
  <line id="left-margin" x1="0" x2="0" y1="0" y2="24"/>
  <line id="right-margin"  x1="24" x2="24" y1="0" y2="24"/>
 </g>
 <g id="Symbols">
  <g id="Regular-M">
   <rect width="24" height="24" opacity="0" />
   <g transform="matrix(0.010416666666666666 0 0 0.010416666666666666 2 2)">
     <path d="M994.034 1226.26c-18.796 27.296-49.269 27.3-68.067 0L574.893 716.424C556.096 689.128 567.713 667 600.852 667h718.297c33.133 0 44.757 22.125 25.959 49.424L994.034 1226.26z" stroke="none" stroke-width="1" fill-rule="evenodd"/>
   </g>
  </g>
 </g>
</svg>
