<svg width="24" height="24" viewBox="0 0 24 24" fill="none" xmlns="http://www.w3.org/2000/svg">
<path d="M13.827 20.596V19.2345C13.827 19.114 13.8488 18.9993 13.8923 18.8905C13.9359 18.7815 14.0045 18.6802 14.098 18.5865L19.2557 13.4537C19.3801 13.3359 19.5147 13.2501 19.6595 13.1962C19.8045 13.1424 19.9494 13.1155 20.0943 13.1155C20.2494 13.1155 20.401 13.1449 20.549 13.2037C20.697 13.2627 20.83 13.3512 20.948 13.4692L21.873 14.4038C21.9807 14.5282 22.064 14.6629 22.123 14.8077C22.182 14.9526 22.2115 15.0974 22.2115 15.2423C22.2115 15.3871 22.1846 15.5345 22.1308 15.6845C22.0769 15.8345 21.991 15.9717 21.873 16.096L16.7402 21.2288C16.6467 21.3224 16.5455 21.391 16.4365 21.4345C16.3275 21.4782 16.2128 21.5 16.0922 21.5H14.7308C14.4731 21.5 14.258 21.4138 14.0855 21.2413C13.9132 21.0689 13.827 20.8538 13.827 20.596ZM15.0193 20.3078H15.9693L19.2153 17.046L18.2902 16.102L15.0193 19.3577V20.3078ZM6.30775 21.5C5.80258 21.5 5.375 21.325 5.025 20.975C4.675 20.625 4.5 20.1974 4.5 19.6923V4.30775C4.5 3.80258 4.675 3.375 5.025 3.025C5.375 2.675 5.80258 2.5 6.30775 2.5H13.502C13.743 2.5 13.9748 2.54683 14.1973 2.6405C14.4196 2.734 14.6128 2.86283 14.777 3.027L18.973 7.223C19.1372 7.38717 19.266 7.58042 19.3595 7.80275C19.4532 8.02525 19.5 8.257 19.5 8.498V10.048C19.5 10.2608 19.4282 10.4391 19.2845 10.5828C19.141 10.7262 18.9628 10.798 18.75 10.798C18.5372 10.798 18.359 10.7262 18.2155 10.5828C18.0718 10.4391 18 10.2608 18 10.048V8.5H14.404C14.1462 8.5 13.9311 8.41375 13.7587 8.24125C13.5862 8.06892 13.5 7.85383 13.5 7.596V4H6.30775C6.23075 4 6.16025 4.03208 6.09625 4.09625C6.03208 4.16025 6 4.23075 6 4.30775V19.6923C6 19.7693 6.03208 19.8398 6.09625 19.9038C6.16025 19.9679 6.23075 20 6.30775 20H10.8845C11.0973 20 11.2756 20.0718 11.4193 20.2155C11.5627 20.359 11.6345 20.5372 11.6345 20.75C11.6345 20.9628 11.5627 21.141 11.4193 21.2845C11.2756 21.4282 11.0973 21.5 10.8845 21.5H6.30775ZM18.7653 16.5615L18.2902 16.102L19.2153 17.046L18.7653 16.5615Z" fill="#273540"/>
</svg>
