<svg width="24" height="24" viewBox="0 0 24 24" fill="none" xmlns="http://www.w3.org/2000/svg">
<path d="M5.24993 18.8845C5.03743 18.8845 4.85934 18.8127 4.71568 18.669C4.57184 18.5252 4.49993 18.3469 4.49993 18.1343C4.49993 17.9218 4.57184 17.7437 4.71568 17.6C4.85934 17.4565 5.03743 17.3848 5.24993 17.3848H6.30768V9.923C6.30768 8.57817 6.72276 7.38908 7.55293 6.35575C8.38293 5.32242 9.44859 4.6615 10.7499 4.373V3.75C10.7499 3.40283 10.8713 3.10767 11.1142 2.8645C11.357 2.6215 11.6518 2.5 11.9987 2.5C12.3457 2.5 12.6409 2.6215 12.8844 2.8645C13.1281 3.10767 13.2499 3.40283 13.2499 3.75V4.373C14.5513 4.6615 15.6169 5.32242 16.4469 6.35575C17.2771 7.38908 17.6922 8.57817 17.6922 9.923V17.3848H18.7499C18.9624 17.3848 19.1405 17.4566 19.2842 17.6003C19.428 17.7441 19.4999 17.9223 19.4999 18.135C19.4999 18.3475 19.428 18.5256 19.2842 18.6693C19.1405 18.8128 18.9624 18.8845 18.7499 18.8845H5.24993ZM11.9982 21.6923C11.5007 21.6923 11.0753 21.5153 10.7222 21.1613C10.3688 20.8073 10.1922 20.3817 10.1922 19.8845H13.8077C13.8077 20.3833 13.6305 20.8093 13.2762 21.1625C12.9218 21.5157 12.4958 21.6923 11.9982 21.6923ZM7.80768 17.3848H16.1922V9.923C16.1922 8.76533 15.7829 7.77725 14.9644 6.95875C14.1458 6.14008 13.1576 5.73075 11.9999 5.73075C10.8423 5.73075 9.8541 6.14008 9.03543 6.95875C8.21693 7.77725 7.80768 8.76533 7.80768 9.923V17.3848ZM3.37018 9.9135C3.15418 9.9135 2.97434 9.83242 2.83068 9.67025C2.68718 9.50808 2.62568 9.31733 2.64618 9.098C2.74734 7.94417 3.04601 6.86342 3.54218 5.85575C4.03834 4.84808 4.68001 3.9635 5.46718 3.202C5.63268 3.05717 5.81926 2.985 6.02693 2.9855C6.23459 2.98617 6.40568 3.07275 6.54018 3.24525C6.67484 3.41775 6.73193 3.60525 6.71143 3.80775C6.69093 4.01025 6.59801 4.18908 6.43268 4.34425C5.80834 4.96725 5.30059 5.6855 4.90943 6.499C4.51843 7.3125 4.27234 8.18783 4.17118 9.125C4.14418 9.34417 4.05793 9.53042 3.91243 9.68375C3.76693 9.83692 3.58618 9.9135 3.37018 9.9135ZM20.6344 9.9135C20.4153 9.9135 20.2329 9.83692 20.0874 9.68375C19.9419 9.53042 19.8557 9.34417 19.8287 9.125C19.7275 8.18783 19.483 7.31408 19.0952 6.50375C18.7073 5.69358 18.2013 4.97692 17.5769 4.35375C17.4093 4.19925 17.3125 4.019 17.2867 3.813C17.2608 3.607 17.3153 3.41775 17.4499 3.24525C17.5846 3.07275 17.7573 2.98783 17.9682 2.9905C18.179 2.993 18.3672 3.06667 18.5327 3.2115C19.3198 3.97317 19.9615 4.85617 20.4577 5.8605C20.9538 6.865 21.2525 7.94417 21.3537 9.098C21.3742 9.31733 21.3126 9.50808 21.1689 9.67025C21.0251 9.83242 20.8469 9.9135 20.6344 9.9135Z" fill="#273540"/>
</svg>
