<svg width="24" height="24" viewBox="0 0 24 24" fill="none" xmlns="http://www.w3.org/2000/svg">
<path d="M12 18.4655L14.5462 15.9192C14.6949 15.7705 14.8741 15.6945 15.0837 15.6912C15.2932 15.688 15.4756 15.764 15.6307 15.9192C15.7859 16.0744 15.8635 16.2551 15.8635 16.4615C15.8635 16.668 15.7859 16.8487 15.6307 17.0037L12.6327 20.002C12.5391 20.0955 12.4403 20.1615 12.3365 20.2C12.2326 20.2385 12.1205 20.2577 12 20.2577C11.8795 20.2577 11.7673 20.2385 11.6635 20.2C11.5596 20.1615 11.4609 20.0955 11.3672 20.002L8.36922 17.0037C8.22056 16.855 8.14456 16.6759 8.14122 16.4662C8.13806 16.2567 8.21406 16.0744 8.36922 15.9192C8.52439 15.764 8.70514 15.6865 8.91147 15.6865C9.11797 15.6865 9.29872 15.764 9.45372 15.9192L12 18.4655ZM12 5.59596L9.45372 8.14221C9.30506 8.29088 9.12589 8.36688 8.91622 8.37021C8.70672 8.37338 8.52439 8.29738 8.36922 8.14221C8.21406 7.98704 8.13647 7.80629 8.13647 7.59996C8.13647 7.39363 8.21406 7.21288 8.36922 7.05771L11.3672 4.05971C11.4609 3.96604 11.5596 3.89996 11.6635 3.86146C11.7673 3.82296 11.8795 3.80371 12 3.80371C12.1205 3.80371 12.2326 3.82296 12.3365 3.86146C12.4403 3.89996 12.5391 3.96604 12.6327 4.05971L15.6307 7.05771C15.7794 7.20638 15.8554 7.38554 15.8587 7.59521C15.8619 7.80471 15.7859 7.98704 15.6307 8.14221C15.4756 8.29738 15.2948 8.37496 15.0885 8.37496C14.882 8.37496 14.7012 8.29738 14.5462 8.14221L12 5.59596Z" fill="#273540"/>
</svg>
