<svg xmlns="http://www.w3.org/2000/svg" viewBox="0 0 24 24"><g transform="matrix(0.010416666666666666 0 0 0.010416666666666666 2 2)"><path d="M960 1468.235c93.448 0 169.412 75.965 169.412 169.412 0 93.448-75.964 169.412-169.412 169.412-93.448 0-169.412-75.964-169.412-169.412 0-93.447 75.964-169.412 169.412-169.412Zm0-677.647c93.448 0 169.412 75.964 169.412 169.412 0 93.448-75.964 169.412-169.412 169.412-93.448 0-169.412-75.964-169.412-169.412 0-93.448 75.964-169.412 169.412-169.412Zm0-677.647c93.448 0 169.412 75.964 169.412 169.412 0 93.447-75.964 169.412-169.412 169.412-93.448 0-169.412-75.965-169.412-169.412 0-93.448 75.964-169.412 169.412-169.412Z" fill-rule="evenodd"/></g>
</svg>