<svg width="24" height="24" viewBox="0 0 24 24" fill="none" xmlns="http://www.w3.org/2000/svg">
<path d="M14.6229 18.45L13.6671 21.0288C13.6133 21.1673 13.5239 21.2804 13.3989 21.3683C13.2739 21.4561 13.1338 21.5 12.9786 21.5C12.7223 21.5 12.5172 21.3945 12.3634 21.1835C12.2096 20.9727 12.1832 20.7423 12.2844 20.4923L16.1711 10.4615C16.2351 10.323 16.3281 10.2115 16.4499 10.127C16.5717 10.0423 16.707 10 16.8556 10H17.4134C17.5621 10 17.6973 10.0423 17.8191 10.127C17.9408 10.2115 18.0337 10.323 18.0979 10.4615L21.9844 20.5078C22.0857 20.7474 22.0621 20.9727 21.9134 21.1835C21.7646 21.3945 21.562 21.5 21.3056 21.5C21.1403 21.5 20.9976 21.4561 20.8776 21.3683C20.7578 21.2804 20.6659 21.1622 20.6019 21.0135L19.6461 18.45H14.6229ZM8.98264 13.5903L4.53639 18.0308C4.39789 18.1756 4.22639 18.2506 4.02189 18.2558C3.81756 18.2609 3.63781 18.1859 3.48264 18.0308C3.33781 17.8859 3.26539 17.7103 3.26539 17.5038C3.26539 17.2974 3.33781 17.1218 3.48264 16.977L7.92864 12.5213C7.35181 11.9379 6.80347 11.2456 6.28364 10.4443C5.76364 9.64293 5.33572 8.82818 4.99989 8.00002H6.59014C6.87864 8.60518 7.22964 9.21035 7.64314 9.81552C8.05664 10.4205 8.50314 10.9711 8.98264 11.4673C9.69281 10.7506 10.3646 9.88043 10.9979 8.85677C11.6312 7.8331 12.0787 6.88085 12.3404 6.00002H2.44214C2.22931 6.00002 2.05114 5.92818 1.90764 5.78452C1.76397 5.64102 1.69214 5.46285 1.69214 5.25002C1.69214 5.03718 1.76397 4.85902 1.90764 4.71552C2.05114 4.57185 2.22931 4.50002 2.44214 4.50002H8.24989V3.63477C8.24989 3.42193 8.32172 3.24368 8.46539 3.10002C8.60889 2.95652 8.78706 2.88477 8.99989 2.88477C9.21272 2.88477 9.39089 2.95652 9.53439 3.10002C9.67806 3.24368 9.74989 3.42193 9.74989 3.63477V4.50002H15.5576C15.7705 4.50002 15.9486 4.57185 16.0921 4.71552C16.2358 4.85902 16.3076 5.03718 16.3076 5.25002C16.3076 5.46285 16.2358 5.64102 16.0921 5.78452C15.9486 5.92818 15.7705 6.00002 15.5576 6.00002H13.8594C13.5351 7.12302 13.0181 8.29702 12.3086 9.52202C11.599 10.747 10.8416 11.757 10.0364 12.552L12.5036 15.0788L11.9364 16.6193L8.98264 13.5903ZM15.1036 17.123H19.1651L17.1344 11.6673L15.1036 17.123Z" fill="#273540"/>
</svg>
