<svg version="1.1" xmlns="http://www.w3.org/2000/svg" viewBox="0 0 24 24">
 <g id="Guides">
  <line id="Baseline-S" x1="0" x2="24" y1="18" y2="18"/>
  <line id="Capline-S"  x1="0" x2="24" y1="6"  y2="6"/>
  <line id="Baseline-M" x1="0" x2="24" y1="18" y2="18"/>
  <line id="Capline-M"  x1="0" x2="24" y1="6"  y2="6"/>
  <line id="Baseline-L" x1="0" x2="24" y1="18" y2="18"/>
  <line id="Capline-L"  x1="0" x2="24" y1="6"  y2="6"/>
  <line id="left-margin"  x1="0"  x2="0"  y1="0" y2="24"/>
  <line id="right-margin" x1="24" x2="24" y1="0" y2="24"/>
 </g>
 <g id="Symbols">
  <g id="Regular-M">
   <rect width="24" height="24" opacity="0" />
   <g transform="matrix(0.010416666666666666 0 0 0.010416666666666666 2 2)">
     <path d="M1813.333 1557.195c-557.76 126.826-1148.48 126.826-1706.666 0V468.448c557.76-126.827 1148.48-126.933 1706.666 0v1088.747zM1879.04 374.26c-600.32-143.573-1238.4-143.466-1838.08 0L0 384.075v1257.493l40.96 9.813c300.053 71.787 609.28 108.054 919.04 108.054 309.867 0 619.2-36.267 919.04-108.054l40.96-9.813V384.075l-40.96-9.814zM853.333 786.987l376.32 225.813-376.32 225.813V786.987zm-106.666 640l690.346-414.187-690.346-414.187v828.374z" stroke="none" stroke-width="1" fill-rule="evenodd"/>
   </g>
  </g>
 </g>
</svg>
