<svg xmlns="http://www.w3.org/2000/svg" viewBox="0 0 24 24"><g><path fill-rule="evenodd" stroke="none" stroke-width="1" d="M1280 1493.667v-213.334h106.667v213.334c0 88.213-71.787 160-160 160H160c-88.213 0-160-71.787-160-160V427c0-88.213 71.787-160 160-160h1066.667c88.213 0 160 71.787 160 160v426.667H1280v-160H106.667v800C106.667 1523 130.56 1547 160 1547h1066.667c29.44 0 53.333-24 53.333-53.333zm624.373-464.374c20.8 20.8 20.8 54.614 0 75.414l-320 320-75.413-75.414 228.907-228.906H906.613V1013.72h831.254L1508.96 784.707l75.413-75.414 320 320zM160 373.667c-29.44 0-53.333 24-53.333 53.333v160H1280V427c0-29.333-23.893-53.333-53.333-53.333H160z" transform="matrix(0.010416666666666666 0 0 0.010416666666666666 2 2)"/></g></svg>