<svg width="24" height="24" viewBox="0 0 24 24" fill="none" xmlns="http://www.w3.org/2000/svg">
<path d="M6.00125 22.75C5.23758 22.75 4.58817 22.4827 4.053 21.9482C3.51767 21.4137 3.25 20.7647 3.25 20.0012C3.25 19.2376 3.51742 18.5882 4.05225 18.053C4.58692 17.5177 5.23625 17.25 6.00025 17.25C6.21425 17.25 6.42442 17.2766 6.63075 17.3298C6.83725 17.3831 7.03217 17.4546 7.2155 17.5443L9.198 15.077C8.78267 14.6243 8.49617 14.1179 8.3385 13.5577C8.18083 12.9974 8.14875 12.4339 8.24225 11.8673L5.3615 10.9135C5.11017 11.3173 4.77975 11.641 4.37025 11.8845C3.96075 12.1282 3.504 12.25 3 12.25C2.23617 12.25 1.58683 11.9827 1.052 11.4482C0.517333 10.9137 0.25 10.2647 0.25 9.50125C0.25 8.73758 0.51725 8.08817 1.05175 7.553C1.58625 7.01767 2.23525 6.75 2.99875 6.75C3.76242 6.75 4.41183 7.01733 4.947 7.552C5.48233 8.08683 5.75 8.73617 5.75 9.5C5.75 9.559 5.74842 9.60833 5.74525 9.648C5.74192 9.68783 5.74025 9.72758 5.74025 9.76725L8.6115 10.7655C8.88717 10.2552 9.26575 9.81733 9.74725 9.452C10.2286 9.08667 10.7808 8.85208 11.4038 8.74825V5.67875C10.7603 5.52758 10.2404 5.20225 9.84425 4.70275C9.44808 4.20342 9.25 3.6345 9.25 2.996C9.25 2.23583 9.51725 1.58817 10.0518 1.053C10.5863 0.517667 11.2353 0.25 11.9988 0.25C12.7624 0.25 13.4118 0.517334 13.947 1.052C14.4823 1.58683 14.75 2.23617 14.75 3C14.75 3.63583 14.5493 4.20342 14.148 4.70275C13.7468 5.20225 13.2296 5.52758 12.5963 5.67875V8.74825C13.2193 8.85208 13.7698 9.08667 14.248 9.452C14.7262 9.81733 15.1063 10.2552 15.3885 10.7655L18.2598 9.76725C18.2533 9.72108 18.25 9.67975 18.25 9.64325V9.5C18.25 8.73617 18.5173 8.08683 19.0518 7.552C19.5863 7.01733 20.2353 6.75 20.9988 6.75C21.7624 6.75 22.4118 7.01725 22.947 7.55175C23.4823 8.08625 23.75 8.73525 23.75 9.49875C23.75 10.2624 23.4827 10.9118 22.948 11.447C22.4132 11.9823 21.7638 12.25 21 12.25C20.498 12.25 20.0392 12.1282 19.6235 11.8845C19.2078 11.641 18.8795 11.3173 18.6385 10.9135L15.7578 11.8673C15.8513 12.4339 15.8192 12.9948 15.6615 13.55C15.5038 14.1052 15.2173 14.6109 14.802 15.0673L16.7845 17.5193C16.9678 17.4359 17.1628 17.3703 17.3693 17.3223C17.5756 17.2741 17.7857 17.25 17.9998 17.25C18.7638 17.25 19.4131 17.5173 19.9478 18.0518C20.4826 18.5863 20.75 19.2353 20.75 19.9988C20.75 20.7624 20.4827 21.4118 19.9482 21.947C19.4137 22.4823 18.7647 22.75 18.0012 22.75C17.2376 22.75 16.5882 22.4827 16.053 21.948C15.5177 21.4132 15.25 20.7638 15.25 20C15.25 19.6847 15.301 19.3812 15.403 19.0895C15.5048 18.7978 15.6571 18.5302 15.8598 18.2865L13.877 15.8C13.309 16.1385 12.6823 16.3078 11.997 16.3078C11.3118 16.3078 10.6821 16.1385 10.1077 15.8L8.14025 18.2865C8.33642 18.5302 8.48708 18.7978 8.59225 19.0895C8.69742 19.3812 8.75 19.6847 8.75 20C8.75 20.7638 8.48275 21.4132 7.94825 21.948C7.41375 22.4827 6.76475 22.75 6.00125 22.75Z" fill="#273540"/>
</svg>
