<svg width="24" height="24" viewBox="0 0 24 24" fill="none" xmlns="http://www.w3.org/2000/svg">
<path d="M4.76528 14.4078L4.06528 16.3116C4.01145 16.4501 3.9237 16.5641 3.80203 16.6538C3.6802 16.7436 3.54212 16.7886 3.38778 16.7886C3.13062 16.7886 2.92512 16.6847 2.77128 16.4771C2.61745 16.2694 2.59112 16.0406 2.69228 15.7906L5.85578 7.68855C5.91745 7.54172 6.00995 7.42555 6.13328 7.34005C6.25662 7.25438 6.39837 7.21155 6.55853 7.21155H7.11353C7.27203 7.21155 7.41228 7.25389 7.53428 7.33855C7.65628 7.42322 7.74937 7.53989 7.81353 7.68855L10.9635 15.8021C11.0545 16.0482 11.0263 16.2741 10.8788 16.4798C10.7315 16.6856 10.5295 16.7886 10.273 16.7886C10.1192 16.7886 9.9782 16.7421 9.85004 16.6491C9.72187 16.5561 9.63087 16.4371 9.57703 16.2923L8.88478 14.4078H4.76528ZM5.23078 13.1116H8.36928L6.88078 8.93855H6.75003L5.23078 13.1116ZM15.6423 15.4308H20.1095C20.2982 15.4308 20.4585 15.4968 20.5905 15.6288C20.7225 15.7608 20.7885 15.9211 20.7885 16.1096C20.7885 16.2982 20.7225 16.4586 20.5905 16.5906C20.4585 16.7226 20.2982 16.7886 20.1095 16.7886H14.348C14.2269 16.7886 14.1238 16.7465 14.0388 16.6623C13.954 16.5783 13.9115 16.4762 13.9115 16.3561V15.6713C13.9115 15.5703 13.9266 15.4729 13.9568 15.3791C13.987 15.2854 14.034 15.2001 14.098 15.1231L19.0385 8.5693H14.7905C14.6019 8.5693 14.4415 8.5033 14.3095 8.3713C14.1775 8.2393 14.1115 8.07905 14.1115 7.89055C14.1115 7.70189 14.1775 7.54155 14.3095 7.40955C14.4415 7.27755 14.6019 7.21155 14.7905 7.21155H20.302C20.4232 7.21155 20.5263 7.25364 20.6113 7.3378C20.6961 7.4218 20.7385 7.52389 20.7385 7.64405V8.3288C20.7385 8.4298 20.7235 8.52722 20.6933 8.62105C20.6631 8.71472 20.616 8.80005 20.552 8.87705L15.6423 15.4308ZM9.77304 4.9038C9.6677 4.9038 9.5962 4.85863 9.55853 4.7683C9.52087 4.67797 9.54062 4.59414 9.61778 4.5168L11.6803 2.45455C11.773 2.36189 11.8801 2.31555 12.0018 2.31555C12.1235 2.31555 12.23 2.3623 12.3213 2.4558L14.3823 4.51705C14.4595 4.59422 14.4792 4.67797 14.4415 4.7683C14.4039 4.85863 14.3324 4.9038 14.227 4.9038H9.77304ZM11.6788 21.5443L9.61778 19.4831C9.54062 19.4059 9.52087 19.3221 9.55853 19.2318C9.5962 19.1415 9.6677 19.0963 9.77304 19.0963H14.227C14.3324 19.0963 14.4039 19.1415 14.4415 19.2318C14.4792 19.3221 14.4595 19.406 14.3823 19.4833L12.3198 21.5456C12.2271 21.6382 12.12 21.6846 11.9983 21.6846C11.8766 21.6846 11.7701 21.6378 11.6788 21.5443Z" fill="#273540"/>
</svg>
