<svg width="24" height="24" viewBox="0 0 24 24" fill="none" xmlns="http://www.w3.org/2000/svg">
<path d="M12.0058 4.523C13.7678 4.523 15.4302 4.90216 16.9928 5.6605C18.5553 6.41883 19.8584 7.5115 20.9021 8.9385C21.0059 9.06916 21.0386 9.18808 21.0001 9.29525C20.9616 9.40225 20.8956 9.491 20.8021 9.5615C20.7084 9.632 20.6031 9.66341 20.4861 9.65575C20.3691 9.64825 20.2667 9.5835 20.1788 9.4615C19.2493 8.14867 18.0607 7.14483 16.6128 6.45C15.1652 5.75517 13.6295 5.40775 12.0058 5.40775C10.3892 5.40775 8.86933 5.75833 7.44633 6.4595C6.02316 7.16083 4.84175 8.1615 3.90208 9.4615C3.80841 9.59867 3.70133 9.67242 3.58083 9.68275C3.46033 9.69291 3.35325 9.65958 3.25958 9.58275C3.16541 9.51225 3.10825 9.42408 3.08808 9.31825C3.06791 9.21241 3.09816 9.1025 3.17883 8.9885C4.21866 7.58466 5.51158 6.4895 7.05758 5.703C8.60375 4.91633 10.2532 4.523 12.0058 4.523ZM12.0063 6.873C14.2432 6.873 16.1651 7.61841 17.7721 9.10925C19.3792 10.6001 20.1828 12.447 20.1828 14.65C20.1828 15.4697 19.8926 16.1541 19.3121 16.7032C18.7316 17.2524 18.0244 17.527 17.1906 17.527C16.3597 17.527 15.645 17.2524 15.0463 16.7032C14.4475 16.1541 14.1481 15.4697 14.1481 14.65C14.1481 14.0872 13.9392 13.6118 13.5216 13.224C13.1037 12.8362 12.6049 12.6422 12.0251 12.6422C11.4401 12.6422 10.9367 12.8353 10.5151 13.2215C10.0936 13.6075 9.88283 14.0837 9.88283 14.65C9.88283 16.2858 10.3684 17.6518 11.3396 18.748C12.3107 19.8442 13.5547 20.6089 15.0713 21.0422C15.2055 21.0862 15.2967 21.1596 15.3451 21.2622C15.3932 21.3649 15.4007 21.4749 15.3673 21.5922C15.334 21.6949 15.2737 21.7847 15.1866 21.8615C15.0994 21.9385 14.9841 21.9603 14.8406 21.927C13.1327 21.4937 11.7321 20.6358 10.6386 19.3535C9.54492 18.071 8.99808 16.5032 8.99808 14.65C8.99808 13.8295 9.29492 13.1423 9.88858 12.5885C10.4821 12.0347 11.1945 11.7577 12.0258 11.7577C12.857 11.7577 13.5659 12.0347 14.1526 12.5885C14.7394 13.1423 15.0328 13.8295 15.0328 14.65C15.0328 15.2163 15.2466 15.6925 15.6741 16.0785C16.1016 16.4647 16.6061 16.6577 17.1876 16.6577C17.7689 16.6577 18.266 16.4638 18.6788 16.076C19.0917 15.6882 19.2981 15.2128 19.2981 14.65C19.2981 12.7003 18.5824 11.0617 17.1511 9.734C15.7196 8.40616 14.0102 7.74225 12.0231 7.74225C10.0359 7.74225 8.32925 8.40708 6.90308 9.73675C5.47675 11.0664 4.76358 12.699 4.76358 14.6345C4.76358 15.0378 4.80591 15.5419 4.89058 16.1467C4.97508 16.7514 5.15583 17.4537 5.43283 18.2537C5.47633 18.3846 5.47375 18.5003 5.42508 18.601C5.37641 18.7017 5.29183 18.777 5.17133 18.827C5.05083 18.877 4.93608 18.8758 4.82708 18.8235C4.71808 18.771 4.64175 18.685 4.59808 18.5655C4.34175 17.8962 4.15783 17.2439 4.04633 16.6087C3.93466 15.9734 3.87883 15.3205 3.87883 14.65C3.87883 12.447 4.67833 10.6001 6.27733 9.10925C7.87633 7.61841 9.786 6.873 12.0063 6.873ZM12.0251 2.073C13.0832 2.073 14.1167 2.20216 15.1253 2.4605C16.134 2.71883 17.1096 3.08966 18.0521 3.573C18.1956 3.65 18.2782 3.742 18.3001 3.849C18.3219 3.956 18.311 4.0615 18.2673 4.1655C18.2238 4.26933 18.1485 4.34817 18.0413 4.402C17.9343 4.45583 17.8135 4.4475 17.6788 4.377C16.802 3.90767 15.888 3.55383 14.9368 3.3155C13.9857 3.077 13.0135 2.95775 12.0203 2.95775C11.044 2.95775 10.086 3.07667 9.14633 3.3145C8.2065 3.55233 7.302 3.9065 6.43283 4.377C6.3315 4.441 6.22216 4.45542 6.10483 4.42025C5.9875 4.38492 5.90191 4.31025 5.84808 4.19625C5.79425 4.08208 5.77925 3.97567 5.80308 3.877C5.82675 3.77817 5.89558 3.6935 6.00958 3.623C6.93658 3.11666 7.90841 2.73175 8.92508 2.46825C9.94175 2.20475 10.9751 2.073 12.0251 2.073ZM12.0256 9.30775C13.5624 9.30775 14.8812 9.82216 15.9818 10.851C17.0825 11.8798 17.6328 13.1462 17.6328 14.65C17.6328 14.7827 17.5922 14.8896 17.5111 14.9707C17.4301 15.0517 17.3232 15.0922 17.1906 15.0922C17.0764 15.0922 16.9742 15.0517 16.8838 14.9707C16.7933 14.8896 16.7481 14.7827 16.7481 14.65C16.7481 13.3872 16.2809 12.3285 15.3466 11.474C14.4121 10.6195 13.305 10.1922 12.0253 10.1922C10.7457 10.1922 9.64366 10.6195 8.71933 11.474C7.795 12.3285 7.33283 13.3869 7.33283 14.6492C7.33283 16.0126 7.56933 17.1667 8.04233 18.1115C8.5155 19.0563 9.20208 20.0096 10.1021 20.9712C10.2021 21.0724 10.2472 21.1817 10.2376 21.299C10.2279 21.4163 10.1827 21.5154 10.1021 21.5962C10.0149 21.6834 9.91266 21.7286 9.79533 21.7317C9.678 21.7349 9.5725 21.6897 9.47883 21.5962C8.51483 20.5757 7.76875 19.5263 7.24058 18.448C6.71225 17.3698 6.44808 16.1037 6.44808 14.6497C6.44808 13.1461 6.99341 11.8798 8.08408 10.851C9.17491 9.82216 10.4887 9.30775 12.0256 9.30775ZM11.9886 14.2077C12.1206 14.2077 12.2276 14.252 12.3096 14.3405C12.3917 14.4288 12.4328 14.532 12.4328 14.65C12.4328 15.9197 12.8876 16.9608 13.7971 17.7735C14.7067 18.586 15.7712 18.9922 16.9906 18.9922C17.1226 18.9922 17.2802 18.9839 17.4636 18.9672C17.6469 18.9506 17.8353 18.9256 18.0288 18.8922C18.1533 18.8654 18.2601 18.8831 18.3491 18.9452C18.4382 19.0074 18.4995 19.1045 18.5328 19.2365C18.5662 19.354 18.5443 19.4567 18.4673 19.5447C18.3905 19.6329 18.2918 19.6937 18.1713 19.727C17.929 19.791 17.6985 19.832 17.4798 19.85C17.2613 19.868 17.0982 19.877 16.9906 19.877C15.5264 19.877 14.2533 19.3815 13.1713 18.3905C12.0892 17.3997 11.5481 16.1528 11.5481 14.65C11.5481 14.532 11.5885 14.4288 11.6693 14.3405C11.75 14.252 11.8564 14.2077 11.9886 14.2077Z" fill="#273540"/>
</svg>
