<svg width="24" height="24" viewBox="0 0 24 24" fill="none" xmlns="http://www.w3.org/2000/svg">
<path d="M10.95 13.0655L9.32697 11.4577C9.18847 11.3192 9.01697 11.2484 8.81247 11.2452C8.60797 11.2421 8.42813 11.318 8.27297 11.473C8.12813 11.618 8.05572 11.7936 8.05572 12C8.05572 12.2063 8.12813 12.382 8.27297 12.527L10.3172 14.5712C10.498 14.7519 10.709 14.8422 10.95 14.8422C11.191 14.8422 11.4019 14.7519 11.5827 14.5712L15.727 10.427C15.8756 10.2781 15.949 10.1041 15.947 9.90472C15.9451 9.70538 15.8718 9.52813 15.727 9.37297C15.5718 9.21797 15.3935 9.13788 15.1922 9.13272C14.991 9.12755 14.8129 9.20255 14.6577 9.35772L10.95 13.0655ZM8.40972 21.1827L7.02697 18.8577L4.41147 18.296C4.18713 18.2525 4.00797 18.1346 3.87397 17.9422C3.73997 17.7499 3.68647 17.5416 3.71347 17.3172L3.96922 14.627L2.19047 12.5922C2.03663 12.4282 1.95972 12.2308 1.95972 12C1.95972 11.7691 2.03663 11.5717 2.19047 11.4077L3.96922 9.37297L3.71347 6.68272C3.68647 6.45838 3.73997 6.25005 3.87397 6.05772C4.00797 5.86538 4.18713 5.74747 4.41147 5.70397L7.02697 5.14222L8.40972 2.81722C8.53022 2.61988 8.6943 2.4853 8.90197 2.41347C9.10963 2.34163 9.32055 2.35255 9.53472 2.44622L12 3.48847L14.4652 2.44622C14.6794 2.35255 14.8903 2.34163 15.098 2.41347C15.3056 2.4853 15.4697 2.61988 15.5902 2.81722L16.973 5.14222L19.5885 5.70397C19.8128 5.74747 19.992 5.86538 20.126 6.05772C20.26 6.25005 20.3135 6.45838 20.2865 6.68272L20.0307 9.37297L21.8095 11.4077C21.9633 11.5717 22.0402 11.7691 22.0402 12C22.0402 12.2308 21.9633 12.4282 21.8095 12.5922L20.0307 14.627L20.2865 17.3172C20.3135 17.5416 20.26 17.7499 20.126 17.9422C19.992 18.1346 19.8128 18.2525 19.5885 18.296L16.973 18.8577L15.5902 21.1827C15.4697 21.3801 15.3056 21.5146 15.098 21.5865C14.8903 21.6583 14.6794 21.6474 14.4652 21.5537L12 20.5115L9.53472 21.5537C9.32055 21.6474 9.10963 21.6583 8.90197 21.5865C8.6943 21.5146 8.53022 21.3801 8.40972 21.1827ZM9.44997 19.95L12 18.8692L14.5807 19.95L16 17.55L18.75 16.9192L18.5 14.1L20.35 12L18.5 9.86922L18.75 7.04997L16 6.44997L14.55 4.04997L12 5.13072L9.41922 4.04997L7.99997 6.44997L5.24997 7.04997L5.49997 9.86922L3.64997 12L5.49997 14.1L5.24997 16.95L7.99997 17.55L9.44997 19.95Z" fill="#273540"/>
</svg>
