<svg width="24" height="24" viewBox="0 0 24 24" fill="none" xmlns="http://www.w3.org/2000/svg">
<path d="M12 14.777L14.6212 16.7615C14.8019 16.8885 14.9843 16.8927 15.1683 16.774C15.3523 16.6555 15.409 16.4892 15.3385 16.275L14.3462 12.9923L16.9065 11.1715C17.0945 11.0315 17.1516 10.857 17.0778 10.648C17.0041 10.4392 16.8573 10.3348 16.6375 10.3348H13.5038L12.4365 6.8865C12.36 6.6725 12.2146 6.5655 12.0003 6.5655C11.7859 6.5655 11.6403 6.6725 11.5635 6.8865L10.4963 10.3348H7.3625C7.14267 10.3348 6.99592 10.4392 6.92225 10.648C6.84842 10.857 6.9055 11.0315 7.0935 11.1715L9.65375 12.9923L8.6615 16.275C8.591 16.4892 8.64775 16.6555 8.83175 16.774C9.01575 16.8927 9.19808 16.8885 9.37875 16.7615L12 14.777ZM12.0017 21.5C10.6877 21.5 9.45267 21.2507 8.2965 20.752C7.14033 20.2533 6.13467 19.5766 5.2795 18.7218C4.42433 17.8669 3.74725 16.8617 3.24825 15.706C2.74942 14.5503 2.5 13.3156 2.5 12.0017C2.5 10.6877 2.74933 9.45267 3.248 8.2965C3.74667 7.14033 4.42342 6.13467 5.27825 5.2795C6.13308 4.42433 7.13833 3.74725 8.294 3.24825C9.44967 2.74942 10.6844 2.5 11.9983 2.5C13.3123 2.5 14.5473 2.74933 15.7035 3.248C16.8597 3.74667 17.8653 4.42342 18.7205 5.27825C19.5757 6.13308 20.2528 7.13833 20.7518 8.294C21.2506 9.44967 21.5 10.6844 21.5 11.9983C21.5 13.3123 21.2507 14.5473 20.752 15.7035C20.2533 16.8597 19.5766 17.8653 18.7218 18.7205C17.8669 19.5757 16.8617 20.2528 15.706 20.7518C14.5503 21.2506 13.3156 21.5 12.0017 21.5ZM12 20C14.2167 20 16.1042 19.2208 17.6625 17.6625C19.2208 16.1042 20 14.2167 20 12C20 9.78333 19.2208 7.89583 17.6625 6.3375C16.1042 4.77917 14.2167 4 12 4C9.78333 4 7.89583 4.77917 6.3375 6.3375C4.77917 7.89583 4 9.78333 4 12C4 14.2167 4.77917 16.1042 6.3375 17.6625C7.89583 19.2208 9.78333 20 12 20Z" fill="#273540"/>
</svg>
