<svg width="24" height="24" viewBox="0 0 24 24" fill="none" xmlns="http://www.w3.org/2000/svg">
<path d="M7.25 5.5922C6.20517 6.36403 5.40225 7.30511 4.84125 8.41545C4.28042 9.52561 4 10.7204 4 11.9999C4 13.8781 4.56733 15.5313 5.702 16.9594C6.8365 18.3878 8.30508 19.3231 10.1077 19.7654C10.3001 19.8193 10.4552 19.9314 10.573 20.1019C10.691 20.2724 10.75 20.4589 10.75 20.6614C10.75 20.8639 10.6776 21.0329 10.5328 21.1682C10.3878 21.3034 10.2275 21.3492 10.052 21.3057C7.85317 20.8467 6.04483 19.7576 4.627 18.0384C3.209 16.3191 2.5 14.3063 2.5 11.9999C2.5 10.5218 2.80742 9.1522 3.42225 7.8912C4.03692 6.63037 4.91733 5.53845 6.0635 4.61545H4.125C3.91217 4.61545 3.734 4.54361 3.5905 4.39995C3.44683 4.25645 3.375 4.07828 3.375 3.86545C3.375 3.65261 3.44683 3.47436 3.5905 3.3307C3.734 3.1872 3.91217 3.11545 4.125 3.11545H7.84625C8.10392 3.11545 8.31892 3.20162 8.49125 3.37395C8.66375 3.54645 8.75 3.76153 8.75 4.0192V7.74045C8.75 7.95328 8.67817 8.13145 8.5345 8.27495C8.391 8.41861 8.21283 8.49045 8 8.49045C7.78717 8.49045 7.609 8.41861 7.4655 8.27495C7.32183 8.13145 7.25 7.95328 7.25 7.74045V5.5922ZM10.575 14.1307L15.723 8.9827C15.8718 8.83403 16.0459 8.76061 16.2452 8.76245C16.4446 8.76445 16.6218 8.84295 16.777 8.99795C16.9218 9.15311 16.9968 9.32878 17.002 9.52495C17.007 9.72112 16.932 9.89678 16.777 10.0519L11.2078 15.6212C11.0269 15.8019 10.816 15.8922 10.575 15.8922C10.334 15.8922 10.1231 15.8019 9.94225 15.6212L7.223 12.8864C7.08467 12.7479 7.01133 12.5764 7.003 12.3719C6.99467 12.1676 7.068 11.9879 7.223 11.8327C7.368 11.6879 7.54367 11.6154 7.75 11.6154C7.95633 11.6154 8.132 11.6879 8.277 11.8327L10.575 14.1307ZM17.9365 19.3942H19.875C20.0878 19.3942 20.266 19.4659 20.4095 19.6094C20.5532 19.7531 20.625 19.9314 20.625 20.1442C20.625 20.357 20.5532 20.5352 20.4095 20.6787C20.266 20.8224 20.0878 20.8942 19.875 20.8942H16.1538C15.8961 20.8942 15.6811 20.8079 15.5087 20.6354C15.3362 20.4631 15.25 20.248 15.25 19.9902V16.2692C15.25 16.0564 15.3218 15.8781 15.4655 15.7344C15.609 15.5909 15.7872 15.5192 16 15.5192C16.2128 15.5192 16.391 15.5909 16.5345 15.7344C16.6782 15.8781 16.75 16.0564 16.75 16.2692V18.4172C17.7885 17.6289 18.5898 16.6821 19.1538 15.5769C19.7179 14.4718 20 13.2794 20 11.9999C20 10.1218 19.4327 8.46861 18.298 7.04045C17.1635 5.61211 15.6949 4.67678 13.8923 4.23445C13.6999 4.18061 13.5448 4.07011 13.427 3.90295C13.309 3.73561 13.25 3.55061 13.25 3.34795C13.25 3.14545 13.3224 2.97495 13.4672 2.83645C13.6123 2.69812 13.7725 2.6507 13.948 2.6942C16.1468 3.1467 17.9552 4.2342 19.373 5.9567C20.791 7.6792 21.5 9.69361 21.5 11.9999C21.5 13.4781 21.1926 14.8493 20.5777 16.1134C19.9631 17.3774 19.0827 18.471 17.9365 19.3942Z" fill="#273540"/>
</svg>
