<svg xmlns="http://www.w3.org/2000/svg" viewBox="0 0 24 24"><g transform="matrix(0.010416666666666666 0 0 0.010416666666666666 2 2)"><path d="M790.588 1468.235c-373.722 0-677.647-303.924-677.647-677.647 0-373.722 303.925-677.647 677.647-677.647 373.723 0 677.647 303.925 677.647 677.647 0 373.723-303.924 677.647-677.647 677.647Zm596.781-160.715c120.396-138.692 193.807-319.285 193.807-516.932C1581.176 354.748 1226.428 0 790.588 0S0 354.748 0 790.588s354.748 790.588 790.588 790.588c197.647 0 378.24-73.411 516.932-193.807l516.028 516.142 79.963-79.963-516.142-516.028Z" fill-rule="evenodd"/></g>
</svg>