<svg width="178" height="59" viewBox="0 0 178 59" fill="none" xmlns="http://www.w3.org/2000/svg">
<path d="M0 20.9673C0 8.17596 9.57478 0.477539 19.7714 0.477539C29.9681 0.477539 35.6615 6.34249 37.4413 13.2153L31.1797 15.3168C30.0217 10.5562 26.3655 6.72848 19.7714 6.72848C13.1774 6.72848 6.80849 11.4355 6.80849 20.9566C6.80849 30.4778 13.1238 35.0239 19.825 35.0239C26.5263 35.0239 30.1825 30.8102 31.5121 26.382L37.6022 28.3763C35.833 35.0239 29.8501 41.3928 19.825 41.3928C9.25312 41.3928 0 33.748 0 20.9566V20.9673Z" fill="white"/>
<path d="M52.5058 41.2854C44.5822 41.2854 39.4893 35.0237 39.4893 26.9393C39.4893 18.8549 44.6358 12.8184 52.3879 12.8184C57.1484 12.8184 59.5823 15.3059 60.3114 17.1393V13.5903H66.5731V35.6349C66.5731 37.8543 66.7983 40.0094 66.8519 40.567H60.7082C60.6009 39.9558 60.4294 38.5191 60.4294 36.6856C59.2071 39.2911 56.3872 41.2854 52.5058 41.2854ZM53.2242 35.7528C57.4379 35.7528 60.3651 32.1502 60.3651 26.95C60.3651 21.7498 57.4808 18.426 53.2242 18.426C48.9675 18.426 45.9118 21.7498 45.9118 26.95C45.9118 32.1502 48.7316 35.7528 53.2242 35.7528Z" fill="white"/>
<path d="M79.0963 40.567H72.6738V13.6011H78.9355V17.2037C80.7046 14.105 83.9212 12.8291 86.9127 12.8291C93.5067 12.8291 96.659 17.5897 96.659 23.519V40.5777H90.2365V24.6341C90.2365 21.3102 88.7462 18.6512 84.6932 18.6512C81.037 18.6512 79.0963 21.4711 79.0963 25.0201V40.5777V40.567Z" fill="white"/>
<path d="M115.562 40.567H109.14L98.1709 13.6011H105.258L112.399 32.8686L119.379 13.6011H126.134L115.562 40.567Z" fill="white"/>
<path d="M139.15 41.2854C131.227 41.2854 126.134 35.0237 126.134 26.9393C126.134 18.8549 131.28 12.8184 139.032 12.8184C143.793 12.8184 146.227 15.3059 146.956 17.1393V13.5903H153.218V35.6349C153.218 37.8543 153.443 40.0094 153.496 40.567H147.353C147.245 39.9558 147.074 38.5191 147.074 36.6856C145.852 39.2911 143.032 41.2854 139.15 41.2854ZM139.869 35.7528C144.082 35.7528 147.01 32.1502 147.01 26.95C147.01 21.7498 144.125 18.426 139.869 18.426C135.612 18.426 132.556 21.7498 132.556 26.95C132.556 32.1502 135.376 35.7528 139.869 35.7528Z" fill="white"/>
<path d="M162.181 31.711C162.407 34.1449 164.229 36.3107 167.66 36.3107C170.319 36.3107 171.703 34.874 171.703 33.2121C171.703 31.7753 170.705 30.6602 168.55 30.2206L164.562 29.3307C159.801 28.2799 157.303 25.1813 157.303 21.4714C157.303 16.7645 161.624 12.7759 167.21 12.7759C174.737 12.7759 177.181 17.6544 177.621 20.3027L172.196 21.8574C171.971 20.3027 170.813 17.8152 167.21 17.8152C164.937 17.8152 163.329 19.252 163.329 20.9139C163.329 22.3507 164.379 23.4014 166.041 23.7338L170.137 24.5701C175.23 25.6745 177.889 28.7839 177.889 32.7617C177.889 36.7396 174.565 41.4037 167.703 41.4037C159.898 41.4037 156.906 36.3107 156.574 33.2657L162.171 31.711H162.181Z" fill="white"/>
<path d="M54.3107 49.9043C54.3107 50.6446 54.1635 51.2684 53.8691 51.7758C53.5747 52.2833 53.1779 52.6922 52.6786 53.0027C52.1794 53.3131 51.6034 53.5399 50.9506 53.6832C50.2978 53.8265 49.6194 53.8981 48.9153 53.8981H47.2833V58.68H44V46H48.9921C49.7346 46 50.429 46.0687 51.0754 46.206C51.7218 46.3433 52.285 46.5642 52.7651 46.8686C53.2451 47.1731 53.6227 47.5731 53.8979 48.0686C54.1731 48.5641 54.3107 49.176 54.3107 49.9043ZM51.0274 49.9222C51.0274 49.6237 50.9634 49.3789 50.8354 49.1879C50.7074 48.9969 50.5346 48.8476 50.317 48.7402C50.0994 48.6327 49.853 48.5611 49.5778 48.5253C49.3026 48.4894 49.0177 48.4715 48.7233 48.4715H47.2833V51.4624H48.6657C48.9729 51.4624 49.2674 51.4385 49.549 51.3908C49.8306 51.343 50.0834 51.2595 50.3074 51.1401C50.5314 51.0207 50.7074 50.8625 50.8354 50.6655C50.9634 50.4685 51.0274 50.2207 51.0274 49.9222ZM67.5527 58.68L66.4966 56.1906H61.2357L60.2373 58.68H56.666L62.3685 46H65.5558L71.2008 58.68H67.5527ZM63.9046 49.3849L62.1765 53.737H65.5942L63.9046 49.3849ZM82.8107 58.68L79.873 53.6474H78.7594V58.68H75.5337V46H80.7179C81.3707 46 82.0075 46.0627 82.6283 46.1881C83.2491 46.3134 83.8059 46.5254 84.2988 46.8238C84.7916 47.1223 85.1852 47.5164 85.4796 48.0059C85.774 48.4954 85.9212 49.1043 85.9212 49.8327C85.9212 50.6923 85.6716 51.4147 85.1724 51.9997C84.6732 52.5848 83.982 53.0027 83.0987 53.2534L86.6508 58.68H82.8107ZM82.6763 49.8864C82.6763 49.5879 82.6091 49.3461 82.4747 49.161C82.3403 48.976 82.1675 48.8327 81.9563 48.7312C81.7451 48.6297 81.5083 48.5611 81.2459 48.5253C80.9835 48.4894 80.7307 48.4715 80.4875 48.4715H78.7402V51.4266H80.2954C80.5643 51.4266 80.8395 51.4057 81.1211 51.3639C81.4027 51.3222 81.6587 51.2475 81.8891 51.1401C82.1195 51.0326 82.3083 50.8774 82.4555 50.6744C82.6027 50.4714 82.6763 50.2088 82.6763 49.8864ZM91.4638 58.68V46H100.603V48.5969H94.6319V50.9789H100.277V53.4325H94.6319V56.0652H100.949V58.68H91.4638ZM114.959 58.68L109.487 50.3879H109.429L109.506 58.68H106.319V46H110.063L115.516 54.2742H115.573L115.496 46H118.684V58.68H114.959ZM130.505 48.6148V58.68H127.222V48.6148H123.381V46H134.345V48.6148H130.505Z" fill="white"/>
</svg>
