<svg version="1.1" xmlns="http://www.w3.org/2000/svg" viewBox="0 0 24 24">
 <g id="Guides">
  <line id="Baseline-S" x1="0" x2="24" y1="18" y2="18"/>
  <line id="Capline-S"  x1="0" x2="24" y1="6"  y2="6"/>
  <line id="Baseline-M" x1="0" x2="24" y1="18" y2="18"/>
  <line id="Capline-M"  x1="0" x2="24" y1="6"  y2="6"/>
  <line id="Baseline-L" x1="0" x2="24" y1="18" y2="18"/>
  <line id="Capline-L"  x1="0" x2="24" y1="6"  y2="6"/>
  <line id="left-margin"  x1="0"  x2="0"  y1="0" y2="24"/>
  <line id="right-margin" x1="24" x2="24" y1="0" y2="24"/>
 </g>
 <g id="Symbols">
  <g id="Regular-M">
   <rect width="24" height="24" opacity="0" />
   <g transform="matrix(0.010416666666666666 0 0 0.010416666666666666 2 2)">
     <path d="M1468.235 0v112.941H451.765V0H0v451.878h112.941v1016.47H0V1920h451.765v-112.941h1016.47V1920h451.878v-451.652h-112.941V451.878h112.94V0h-451.877zm113.054 338.824h225.883V112.94h-225.883v225.883zm-1468.348 0h225.883V112.94H112.94v225.883zm112.941 113.054h225.883V225.882h1016.47v225.996h225.996v1016.47h-225.996v225.77H451.765v-225.77H225.882V451.878zm1355.407 1355.18h225.883v-225.882h-225.883v225.883zm-1468.348 0h225.883v-225.882H112.94v225.883z" stroke="none" stroke-width="1" fill-rule="evenodd"/>
   </g>
  </g>
 </g>
</svg>
