<svg width="24" height="24" viewBox="0 0 24 24" fill="none" xmlns="http://www.w3.org/2000/svg">
<path d="M4.30775 19.5C3.80258 19.5 3.375 19.325 3.025 18.975C2.675 18.625 2.5 18.1974 2.5 17.6923V6.30775C2.5 5.80258 2.675 5.375 3.025 5.025C3.375 4.675 3.80258 4.5 4.30775 4.5H19.6923C20.1974 4.5 20.625 4.675 20.975 5.025C21.325 5.375 21.5 5.80258 21.5 6.30775V17.6923C21.5 18.1974 21.325 18.625 20.975 18.975C20.625 19.325 20.1974 19.5 19.6923 19.5H19.6C19.25 19.5 18.9321 19.4394 18.6462 19.3182C18.3602 19.1971 18.1013 19.0205 17.8693 18.7885L13.823 14.7423C13.4923 14.9948 13.1308 15.1842 12.7385 15.3105C12.3462 15.4368 11.9333 15.5 11.5 15.5C10.391 15.5 9.44708 15.1106 8.66825 14.3317C7.88942 13.5529 7.5 12.609 7.5 11.5C7.5 10.391 7.88942 9.44708 8.66825 8.66825C9.44708 7.88942 10.391 7.5 11.5 7.5C12.609 7.5 13.5529 7.88942 14.3318 8.66825C15.1106 9.44708 15.5 10.391 15.5 11.5C15.5 11.9052 15.4513 12.2821 15.3538 12.6308C15.2564 12.9794 15.0911 13.3256 14.8577 13.6692L19.1885 18H19.6923C19.7693 18 19.8398 17.9679 19.9038 17.9038C19.9679 17.8398 20 17.7692 20 17.6923V6.30775C20 6.23075 19.9679 6.16025 19.9038 6.09625C19.8398 6.03208 19.7693 6 19.6923 6H4.30775C4.23075 6 4.16025 6.03208 4.09625 6.09625C4.03208 6.16025 4 6.23075 4 6.30775V17.6923C4 17.7692 4.03208 17.8398 4.09625 17.9038C4.16025 17.9679 4.23075 18 4.30775 18H13.9115C14.1615 18 14.349 18.0785 14.474 18.2355C14.599 18.3927 14.6615 18.5642 14.6615 18.75C14.6615 18.9358 14.599 19.1073 14.474 19.2645C14.349 19.4215 14.1615 19.5 13.9115 19.5H4.30775ZM11.5 14C12.2 14 12.7917 13.7583 13.275 13.275C13.7583 12.7917 14 12.2 14 11.5C14 10.8 13.7583 10.2083 13.275 9.725C12.7917 9.24167 12.2 9 11.5 9C10.8 9 10.2083 9.24167 9.725 9.725C9.24167 10.2083 9 10.8 9 11.5C9 12.2 9.24167 12.7917 9.725 13.275C10.2083 13.7583 10.8 14 11.5 14Z" fill="#273540"/>
</svg>
