<svg width="24" height="24" viewBox="0 0 24 24" fill="none" xmlns="http://www.w3.org/2000/svg">
<path d="M4.25 16.4423C4.0375 16.4423 3.85942 16.3703 3.71575 16.2265C3.57192 16.0827 3.5 15.9045 3.5 15.692C3.5 15.4793 3.57192 15.3012 3.71575 15.1578C3.85942 15.0141 4.0375 14.9423 4.25 14.9423H15.923C16.1355 14.9423 16.3137 15.0142 16.4575 15.158C16.6012 15.3018 16.673 15.48 16.673 15.6925C16.673 15.9052 16.6012 16.0833 16.4575 16.227C16.3137 16.3705 16.1355 16.4423 15.923 16.4423H4.25ZM4.25 12.75C4.0375 12.75 3.85942 12.6781 3.71575 12.5342C3.57192 12.3904 3.5 12.2122 3.5 11.9997C3.5 11.7871 3.57192 11.609 3.71575 11.4655C3.85942 11.3218 4.0375 11.25 4.25 11.25H15.923C16.1355 11.25 16.3137 11.3219 16.4575 11.4658C16.6012 11.6096 16.673 11.7878 16.673 12.0003C16.673 12.2129 16.6012 12.391 16.4575 12.5345C16.3137 12.6782 16.1355 12.75 15.923 12.75H4.25ZM4.25 9.05775C4.0375 9.05775 3.85942 8.98583 3.71575 8.842C3.57192 8.69817 3.5 8.52 3.5 8.3075C3.5 8.09483 3.57192 7.91667 3.71575 7.773C3.85942 7.6295 4.0375 7.55775 4.25 7.55775H15.923C16.1355 7.55775 16.3137 7.62967 16.4575 7.7735C16.6012 7.91733 16.673 8.0955 16.673 8.308C16.673 8.52067 16.6012 8.69875 16.4575 8.84225C16.3137 8.98592 16.1355 9.05775 15.923 9.05775H4.25ZM19.6923 16.5C19.4634 16.5 19.2716 16.4235 19.1167 16.2705C18.9619 16.1175 18.8845 15.928 18.8845 15.702C18.8845 15.4703 18.9619 15.2762 19.1167 15.1195C19.2716 14.9628 19.4634 14.8845 19.6923 14.8845C19.9211 14.8845 20.1129 14.9628 20.2678 15.1195C20.4226 15.2762 20.5 15.4703 20.5 15.702C20.5 15.928 20.4226 16.1175 20.2678 16.2705C20.1129 16.4235 19.9211 16.5 19.6923 16.5ZM19.6923 12.8173C19.4634 12.8173 19.2716 12.7407 19.1167 12.5875C18.9619 12.4343 18.8845 12.2385 18.8845 12C18.8845 11.7738 18.9619 11.5843 19.1167 11.4315C19.2716 11.2785 19.4634 11.202 19.6923 11.202C19.9211 11.202 20.1129 11.2785 20.2678 11.4315C20.4226 11.5843 20.5 11.7738 20.5 12C20.5 12.2385 20.4226 12.4343 20.2678 12.5875C20.1129 12.7407 19.9211 12.8173 19.6923 12.8173ZM19.6923 9.1155C19.4634 9.1155 19.2716 9.039 19.1167 8.886C18.9619 8.733 18.8845 8.54342 18.8845 8.31725C18.8845 8.08575 18.9619 7.89167 19.1167 7.735C19.2716 7.57833 19.4634 7.5 19.6923 7.5C19.9211 7.5 20.1129 7.57833 20.2678 7.735C20.4226 7.89167 20.5 8.08575 20.5 8.31725C20.5 8.54342 20.4226 8.733 20.2678 8.886C20.1129 9.039 19.9211 9.1155 19.6923 9.1155Z" fill="#273540"/>
</svg>
