<svg xmlns="http://www.w3.org/2000/svg" viewBox="0 0 24 24"><g><path fill-rule="evenodd" stroke="none" stroke-width="1" d="M219.03 0v464.314h-56.515c-31.196 0-56.515 25.299-56.515 56.47 0 31.172 25.319 56.47 56.515 56.47h56.514v338.824h-56.514c-31.196 0-56.515 25.3-56.515 56.471 0 31.172 25.319 56.47 56.515 56.47h56.514v338.824h-56.514c-31.196 0-56.515 25.299-56.515 56.47 0 31.172 25.319 56.471 56.515 56.471h56.514V1920h1582.412V0H219.03zm1242.93 734.118v508.235H558.432v-903.53h621.177v112.942H671.373v677.647h677.647V734.118h112.94zM889.316 622.114l145.017 145.13 352.602-352.603 79.85 79.85-432.452 432.451-224.866-224.979 79.85-79.85z" transform="matrix(0.010416666666666666 0 0 0.010416666666666666 2 2)"/></g></svg>