<svg width="18" height="18" viewBox="0 0 18 18" fill="none" xmlns="http://www.w3.org/2000/svg">
<path d="M2.30775 17.5C1.80258 17.5 1.375 17.325 1.025 16.975C0.675 16.625 0.5 16.1974 0.5 15.6923V2.30775C0.5 1.80258 0.675 1.375 1.025 1.025C1.375 0.675 1.80258 0.5 2.30775 0.5H15.6923C16.1974 0.5 16.625 0.675 16.975 1.025C17.325 1.375 17.5 1.80258 17.5 2.30775V15.6923C17.5 16.1974 17.325 16.625 16.975 16.975C16.625 17.325 16.1974 17.5 15.6923 17.5H2.30775ZM2.30775 16H15.6923C15.7692 16 15.8398 15.9679 15.9038 15.9038C15.9679 15.8398 16 15.7692 16 15.6923V2.30775C16 2.23075 15.9679 2.16025 15.9038 2.09625C15.8398 2.03208 15.7692 2 15.6923 2H2.30775C2.23075 2 2.16025 2.03208 2.09625 2.09625C2.03208 2.16025 2 2.23075 2 2.30775V15.6923C2 15.7692 2.03208 15.8398 2.09625 15.9038C2.16025 15.9679 2.23075 16 2.30775 16ZM5 13.75H10C10.2128 13.75 10.391 13.6782 10.5345 13.5345C10.6782 13.391 10.75 13.2128 10.75 13C10.75 12.7872 10.6782 12.609 10.5345 12.4655C10.391 12.3218 10.2128 12.25 10 12.25H5C4.78717 12.25 4.609 12.3218 4.4655 12.4655C4.32183 12.609 4.25 12.7872 4.25 13C4.25 13.2128 4.32183 13.391 4.4655 13.5345C4.609 13.6782 4.78717 13.75 5 13.75ZM5 9.75H13C13.2128 9.75 13.391 9.67817 13.5345 9.5345C13.6782 9.391 13.75 9.21283 13.75 9C13.75 8.78717 13.6782 8.609 13.5345 8.4655C13.391 8.32183 13.2128 8.25 13 8.25H5C4.78717 8.25 4.609 8.32183 4.4655 8.4655C4.32183 8.609 4.25 8.78717 4.25 9C4.25 9.21283 4.32183 9.391 4.4655 9.5345C4.609 9.67817 4.78717 9.75 5 9.75ZM5 5.75H13C13.2128 5.75 13.391 5.67817 13.5345 5.5345C13.6782 5.391 13.75 5.21283 13.75 5C13.75 4.78717 13.6782 4.609 13.5345 4.4655C13.391 4.32183 13.2128 4.25 13 4.25H5C4.78717 4.25 4.609 4.32183 4.4655 4.4655C4.32183 4.609 4.25 4.78717 4.25 5C4.25 5.21283 4.32183 5.391 4.4655 5.5345C4.609 5.67817 4.78717 5.75 5 5.75Z" fill="#273540"/>
</svg>
