<svg width="18" height="19" viewBox="0 0 18 19" fill="none" xmlns="http://www.w3.org/2000/svg">
<g clip-path="url(#clip0)">
<path d="M5.6337 3.5L6.24698 4.11328L3.31377 7.04619L1.5 5.23211L2.11298 4.61912L3.31378 5.81992L5.6337 3.5ZM7.91325 5.96406V5.09451H16.5V5.96406H7.91325ZM6.6814 10.3118V9.44223H16.5V10.3118H6.6814ZM6.6814 14.6595V13.79H16.5V14.6595H6.6814ZM3.65574 15.2026C3.14549 15.2026 2.73185 14.789 2.73185 14.2787C2.73185 13.7685 3.14549 13.3548 3.65574 13.3548C4.16599 13.3548 4.57963 13.7685 4.57963 14.2787C4.57963 14.789 4.16599 15.2026 3.65574 15.2026ZM3.65574 10.8911C3.14549 10.8911 2.73185 10.4775 2.73185 9.96723C2.73185 9.45698 3.14549 9.04334 3.65574 9.04334C4.16599 9.04334 4.57963 9.45698 4.57963 9.96723C4.57963 10.4775 4.16599 10.8911 3.65574 10.8911Z" fill="#FF6355"/>
</g>
<defs>
<clipPath id="clip0">
<rect width="18" height="18" fill="white" transform="translate(0 0.5)"/>
</clipPath>
</defs>
</svg>
