<svg width="24" height="24" viewBox="0 0 24 24" fill="none" xmlns="http://www.w3.org/2000/svg">
<mask id="mask0_4_732" style="mask-type:alpha" maskUnits="userSpaceOnUse" x="0" y="0" width="24" height="24">
<rect width="24" height="24" fill="#D9D9D9"/>
</mask>
<g mask="url(#mask0_4_732)">
<path d="M11.9983 21.6923C11.5008 21.6923 11.0754 21.5153 10.7223 21.1613C10.3689 20.8073 10.1923 20.3817 10.1923 19.8845H13.8077C13.8077 20.3833 13.6306 20.8093 13.2762 21.1625C12.9219 21.5157 12.4959 21.6923 11.9983 21.6923ZM5.25 18.8845C5.0375 18.8845 4.85942 18.8127 4.71575 18.669C4.57192 18.5252 4.5 18.3469 4.5 18.1343C4.5 17.9218 4.57192 17.7437 4.71575 17.6C4.85942 17.4565 5.0375 17.3848 5.25 17.3848H6.30775V9.923C6.30775 8.57817 6.72283 7.38908 7.553 6.35575C8.383 5.32242 9.44867 4.6615 10.75 4.373V3.75C10.75 3.40283 10.8714 3.10767 11.1143 2.8645C11.3571 2.6215 11.6519 2.5 11.9988 2.5C12.3458 2.5 12.641 2.6215 12.8845 2.8645C13.1282 3.10767 13.25 3.40283 13.25 3.75V3.95C13.0858 4.24617 12.9557 4.54742 12.8595 4.85375C12.7633 5.16025 12.7044 5.47825 12.6827 5.80775C12.5689 5.78725 12.4579 5.76925 12.3498 5.75375C12.2418 5.73842 12.1252 5.73075 12 5.73075C10.8423 5.73075 9.85417 6.14008 9.0355 6.95875C8.217 7.77725 7.80775 8.76533 7.80775 9.923V17.3848H16.1923V11.1328C16.4218 11.2148 16.6641 11.2788 16.9193 11.325C17.1744 11.3712 17.4321 11.3911 17.6923 11.3848V17.3848H18.75C18.9625 17.3848 19.1406 17.4566 19.2843 17.6003C19.4281 17.7441 19.5 17.9223 19.5 18.135C19.5 18.3475 19.4281 18.5256 19.2843 18.6693C19.1406 18.8128 18.9625 18.8845 18.75 18.8845H5.25ZM17.4818 9.202C16.7183 9.202 16.0689 8.93475 15.5337 8.40025C14.9984 7.86575 14.7308 7.21667 14.7308 6.453C14.7308 5.6895 14.998 5.04008 15.5325 4.50475C16.067 3.96958 16.716 3.702 17.4795 3.702C18.2432 3.702 18.8926 3.96925 19.4277 4.50375C19.9631 5.03825 20.2308 5.68725 20.2308 6.45075C20.2308 7.21442 19.9635 7.86383 19.429 8.399C18.8945 8.93433 18.2454 9.202 17.4818 9.202Z" fill="#273540"/>
</g>
</svg>
