<svg width="24" height="24" viewBox="0 0 24 24" fill="none" xmlns="http://www.w3.org/2000/svg">
<path d="M10.9423 6.625H6.56727C6.27343 6.625 6.02377 6.52208 5.81827 6.31625C5.6126 6.11025 5.50977 5.86025 5.50977 5.56625C5.50977 5.27208 5.6126 5.02083 5.81827 4.8125C6.02377 4.60417 6.27343 4.5 6.56727 4.5H17.4423C17.7361 4.5 17.9858 4.60292 18.1915 4.80875C18.3972 5.01475 18.5 5.26475 18.5 5.55875C18.5 5.85292 18.3972 6.10417 18.1915 6.3125C17.9858 6.52083 17.7361 6.625 17.4423 6.625H13.0673V18.4423C13.0673 18.7361 12.9643 18.9858 12.7585 19.1915C12.5527 19.3972 12.3027 19.5 12.0085 19.5C11.7143 19.5 11.4631 19.3962 11.2548 19.1888C11.0464 18.9812 10.9423 18.7292 10.9423 18.4327V6.625Z" fill="#273540"/>
</svg>
