<svg width="24" height="24" viewBox="0 0 24 24" fill="none" xmlns="http://www.w3.org/2000/svg">
<path d="M7.90375 20H16.0962V17C16.0962 15.8615 15.6982 14.8877 14.902 14.0787C14.1058 13.2697 13.1385 12.8652 12 12.8652C10.8615 12.8652 9.89417 13.2702 9.098 14.08C8.30183 14.8897 7.90375 15.863 7.90375 17V20ZM12 11.1348C13.1385 11.1348 14.1058 10.7298 14.902 9.92C15.6982 9.11033 16.0962 8.137 16.0962 7V4H7.90375V7C7.90375 8.1385 8.30183 9.11225 9.098 9.92125C9.89417 10.7302 10.8615 11.1348 12 11.1348ZM5.25 21.5C5.0375 21.5 4.85942 21.4281 4.71575 21.2843C4.57192 21.1404 4.5 20.9622 4.5 20.7498C4.5 20.5371 4.57192 20.359 4.71575 20.2155C4.85942 20.0718 5.0375 20 5.25 20H6.404V17C6.404 15.8743 6.712 14.8497 7.328 13.926C7.944 13.0022 8.76033 12.3602 9.777 12C8.76033 11.6333 7.944 10.9898 7.328 10.0693C6.712 9.14875 6.404 8.12567 6.404 7V4H5.25C5.0375 4 4.85942 3.92808 4.71575 3.78425C4.57192 3.64042 4.5 3.46225 4.5 3.24975C4.5 3.03708 4.57192 2.859 4.71575 2.7155C4.85942 2.57183 5.0375 2.5 5.25 2.5H18.75C18.9625 2.5 19.1406 2.57192 19.2843 2.71575C19.4281 2.85958 19.5 3.03775 19.5 3.25025C19.5 3.46292 19.4281 3.641 19.2843 3.7845C19.1406 3.92817 18.9625 4 18.75 4H17.596V7C17.596 8.12567 17.288 9.14875 16.672 10.0693C16.056 10.9898 15.2397 11.6333 14.223 12C15.2397 12.3602 16.056 13.0022 16.672 13.926C17.288 14.8497 17.596 15.8743 17.596 17V20H18.75C18.9625 20 19.1406 20.0719 19.2843 20.2157C19.4281 20.3596 19.5 20.5378 19.5 20.7502C19.5 20.9629 19.4281 21.141 19.2843 21.2845C19.1406 21.4282 18.9625 21.5 18.75 21.5H5.25Z" fill="#273540"/>
</svg>
