<svg width="18" height="16" viewBox="0 0 18 16" fill="none" xmlns="http://www.w3.org/2000/svg">
<path d="M2.00002 15.6153C1.55585 15.6153 1.1756 15.4571 0.859266 15.1408C0.542932 14.8244 0.384766 14.4442 0.384766 14C0.384766 13.5558 0.542932 13.1756 0.859266 12.8593C1.1756 12.5429 1.55585 12.3848 2.00002 12.3848C2.44418 12.3848 2.82443 12.5429 3.14077 12.8593C3.4571 13.1756 3.61527 13.5558 3.61527 14C3.61527 14.4442 3.4571 14.8244 3.14077 15.1408C2.82443 15.4571 2.44418 15.6153 2.00002 15.6153ZM2.00002 9.61526C1.55585 9.61526 1.1756 9.4571 0.859266 9.14077C0.542932 8.82443 0.384766 8.44418 0.384766 8.00002C0.384766 7.55585 0.542932 7.1756 0.859266 6.85927C1.1756 6.54293 1.55585 6.38477 2.00002 6.38477C2.44418 6.38477 2.82443 6.54293 3.14077 6.85927C3.4571 7.1756 3.61527 7.55585 3.61527 8.00002C3.61527 8.44418 3.4571 8.82443 3.14077 9.14077C2.82443 9.4571 2.44418 9.61526 2.00002 9.61526ZM2.00002 3.61526C1.55585 3.61526 1.1756 3.4571 0.859266 3.14077C0.542932 2.82443 0.384766 2.44418 0.384766 2.00002C0.384766 1.55585 0.542932 1.1756 0.859266 0.859265C1.1756 0.542932 1.55585 0.384766 2.00002 0.384766C2.44418 0.384766 2.82443 0.542932 3.14077 0.859265C3.4571 1.1756 3.61527 1.55585 3.61527 2.00002C3.61527 2.44418 3.4571 2.82443 3.14077 3.14077C2.82443 3.4571 2.44418 3.61526 2.00002 3.61526ZM8.00002 3.61526C7.55585 3.61526 7.1756 3.4571 6.85927 3.14077C6.54293 2.82443 6.38477 2.44418 6.38477 2.00002C6.38477 1.55585 6.54293 1.1756 6.85927 0.859265C7.1756 0.542932 7.55585 0.384766 8.00002 0.384766C8.44418 0.384766 8.82443 0.542932 9.14077 0.859265C9.4571 1.1756 9.61526 1.55585 9.61526 2.00002C9.61526 2.44418 9.4571 2.82443 9.14077 3.14077C8.82443 3.4571 8.44418 3.61526 8.00002 3.61526ZM14 3.61526C13.5558 3.61526 13.1756 3.4571 12.8593 3.14077C12.5429 2.82443 12.3848 2.44418 12.3848 2.00002C12.3848 1.55585 12.5429 1.1756 12.8593 0.859265C13.1756 0.542932 13.5558 0.384766 14 0.384766C14.4442 0.384766 14.8244 0.542932 15.1408 0.859265C15.4571 1.1756 15.6153 1.55585 15.6153 2.00002C15.6153 2.44418 15.4571 2.82443 15.1408 3.14077C14.8244 3.4571 14.4442 3.61526 14 3.61526ZM8.00002 9.61526C7.55585 9.61526 7.1756 9.4571 6.85927 9.14077C6.54293 8.82443 6.38477 8.44418 6.38477 8.00002C6.38477 7.55585 6.54293 7.1756 6.85927 6.85927C7.1756 6.54293 7.55585 6.38477 8.00002 6.38477C8.44418 6.38477 8.82443 6.54293 9.14077 6.85927C9.4571 7.1756 9.61526 7.55585 9.61526 8.00002C9.61526 8.44418 9.4571 8.82443 9.14077 9.14077C8.82443 9.4571 8.44418 9.61526 8.00002 9.61526ZM9.11552 14.7115V13.35C9.11552 13.2323 9.13727 13.1183 9.18077 13.0078C9.22443 12.8974 9.29302 12.7955 9.38652 12.702L14.5443 7.56926C14.6686 7.44493 14.8028 7.35743 14.947 7.30677C15.0912 7.2561 15.2353 7.23077 15.3795 7.23077C15.5367 7.23077 15.6888 7.26026 15.8358 7.31926C15.9828 7.37826 16.1163 7.46677 16.2365 7.58477L17.1615 8.51927C17.2692 8.6436 17.3525 8.77818 17.4115 8.92302C17.4705 9.06802 17.5 9.21293 17.5 9.35777C17.5 9.5026 17.4731 9.65002 17.4193 9.80002C17.3654 9.95002 17.2795 10.0872 17.1615 10.2115L12.0288 15.3443C11.9353 15.4378 11.8333 15.5063 11.723 15.55C11.6125 15.5935 11.4984 15.6153 11.3808 15.6153H10.0193C9.7631 15.6153 9.54843 15.5287 9.37527 15.3555C9.2021 15.1823 9.11552 14.9677 9.11552 14.7115ZM10.3078 14.423H11.2578L14.5038 11.1615L14.0443 10.6865L13.5788 10.2173L10.3078 13.473V14.423ZM14.0443 10.6865L13.5788 10.2173L14.5038 11.1615L14.0443 10.6865Z" fill="#273540"/>
</svg>
