<svg width="80" height="128" viewBox="0 0 80 128" fill="none" xmlns="http://www.w3.org/2000/svg">
<g clip-path="url(#clip0_4570_1336)">
<path fill-rule="evenodd" clip-rule="evenodd" d="M19.9192 50.575L16.7623 51.0187L15.365 48.1536C15.2841 47.9882 15.1072 47.894 14.9248 47.9196C14.7424 47.9453 14.5987 48.0845 14.5666 48.2658L14.0131 51.405L10.8557 51.8488C10.6738 51.8744 10.5297 52.0137 10.4979 52.1949C10.4658 52.3765 10.5534 52.5565 10.7161 52.6426L13.531 54.1396L12.9771 57.2789C12.9454 57.4605 13.0334 57.6405 13.1962 57.727C13.2771 57.7699 13.3671 57.7846 13.4534 57.7725C13.5404 57.7602 13.6229 57.7213 13.6892 57.6568L15.9821 55.4428L18.7965 56.9391C18.9589 57.0256 19.1575 56.9986 19.2901 56.8705C19.4227 56.7425 19.4577 56.5453 19.3772 56.3795L17.979 53.5145L20.2727 51.2999C20.405 51.172 20.4399 50.9748 20.359 50.809C20.2785 50.6436 20.1016 50.5494 19.9192 50.575Z" fill="#FFD960"/>
<path fill-rule="evenodd" clip-rule="evenodd" d="M21.0272 94.6593L14.6989 93.8823L13.4825 87.624C13.4118 87.2627 13.1188 86.9891 12.7532 86.9442C12.3876 86.8993 12.038 87.094 11.882 87.4275L9.18773 93.2056L2.85855 92.4285C2.49379 92.3837 2.14329 92.5783 1.98815 92.9118C1.83208 93.2461 1.90809 93.6392 2.1779 93.8898L6.84101 98.2388L4.1459 104.017C3.99066 104.351 4.06749 104.744 4.3372 104.996C4.47133 105.121 4.6376 105.196 4.81047 105.217C4.98499 105.238 5.16445 105.206 5.32581 105.115L10.9015 102.025L15.564 106.373C15.8329 106.624 16.2305 106.674 16.553 106.496C16.8756 106.317 17.0452 105.954 16.9755 105.592L15.7574 99.3336L21.3349 96.2428C21.6566 96.064 21.8262 95.7011 21.7557 95.339C21.6858 94.9778 21.3928 94.7042 21.0272 94.6593Z" fill="#FFD960"/>
<path fill-rule="evenodd" clip-rule="evenodd" d="M49.0031 117.981L46.5184 119.416L44.3864 117.496C44.2631 117.385 44.0837 117.366 43.9402 117.449C43.7966 117.532 43.7237 117.697 43.758 117.859L44.3545 120.665L41.8694 122.1C41.7262 122.182 41.6529 122.347 41.6875 122.509C41.7219 122.671 41.8557 122.792 42.0205 122.809L44.8742 123.109L45.4704 125.916C45.5051 126.078 45.6392 126.198 45.8042 126.216C45.8862 126.224 45.9663 126.206 46.0342 126.167C46.1027 126.127 46.1584 126.067 46.1919 125.991L47.3589 123.37L50.2118 123.67C50.3765 123.688 50.5331 123.598 50.6006 123.447C50.6682 123.295 50.6309 123.119 50.5077 123.007L48.3751 121.088L49.5425 118.467C49.6097 118.315 49.5724 118.139 49.449 118.028C49.3261 117.917 49.1467 117.898 49.0031 117.981Z" fill="#FFD960"/>
<path fill-rule="evenodd" clip-rule="evenodd" d="M58.3353 54.8678H56.4225L55.8315 53.0488C55.7972 52.9438 55.7 52.873 55.5895 52.873C55.479 52.873 55.382 52.9438 55.3477 53.0488L54.7567 54.8678H52.8437C52.7335 54.8678 52.6362 54.9386 52.6022 55.0436C52.568 55.1488 52.605 55.2631 52.6945 55.3278L54.242 56.4523L53.6507 58.2713C53.6167 58.3766 53.654 58.4908 53.7435 58.5558C53.788 58.5881 53.8402 58.6043 53.8925 58.6043C53.9452 58.6043 53.9975 58.5881 54.0422 58.5553L55.5895 57.4313L57.1368 58.5553C57.226 58.6203 57.3463 58.6208 57.4358 58.5558C57.5253 58.4908 57.5625 58.3766 57.5285 58.2713L56.937 56.4523L58.4848 55.3281C58.574 55.2631 58.6113 55.1488 58.577 55.0436C58.543 54.9386 58.4458 54.8678 58.3353 54.8678Z" fill="#FFD960"/>
<path fill-rule="evenodd" clip-rule="evenodd" d="M53.9157 10.7998L50.9852 8.34082L52.4182 4.79415C52.5007 4.58925 52.4426 4.35582 52.2734 4.21377C52.1041 4.07171 51.8645 4.0554 51.677 4.17224L48.4331 6.19935L45.5022 3.74003C45.3332 3.59829 45.0933 3.58166 44.9062 3.69882C44.7184 3.81605 44.6283 4.03866 44.6821 4.25292L45.6074 7.96521L42.3631 9.99199C42.1757 10.1095 42.0859 10.3325 42.1394 10.5471C42.1662 10.6537 42.2253 10.7458 42.3054 10.813C42.3862 10.8808 42.4871 10.9231 42.5978 10.9304L46.4133 11.1975L47.3389 14.9087C47.3921 15.123 47.5756 15.2783 47.7963 15.2938C48.017 15.3093 48.221 15.1821 48.3042 14.9772L49.7364 11.4299L53.5531 11.6972C53.7734 11.7123 53.9773 11.5852 54.0601 11.3799C54.143 11.1753 54.085 10.9419 53.9157 10.7998Z" fill="#FFD960"/>
<path fill-rule="evenodd" clip-rule="evenodd" d="M72.6246 82.8383L65.2394 79.0753L66.536 70.8893C66.6104 70.4166 66.3741 69.9521 65.9474 69.7347C65.5208 69.5173 65.0071 69.5996 64.6682 69.9377L58.8078 75.7982L51.4216 72.0348C50.996 71.8179 50.4813 71.8997 50.1434 72.2383C49.8041 72.5773 49.7222 73.0912 49.9404 73.5173L53.7032 80.9034L47.8418 86.7635C47.5035 87.103 47.4225 87.6174 47.6402 88.0444C47.7486 88.2565 47.9183 88.422 48.1201 88.5248C48.3237 88.6286 48.5575 88.6687 48.7947 88.6302L56.9799 87.3343L60.7427 94.7181C60.9594 95.1446 61.4227 95.3831 61.8962 95.3082C62.3696 95.2333 62.7382 94.8655 62.814 94.3922L64.1087 86.2053L72.2964 84.9094C72.7689 84.834 73.1375 84.4662 73.2123 83.9924C73.2876 83.5201 73.0513 83.0556 72.6246 82.8383Z" fill="#FFD960"/>
</g>
<defs>
<clipPath id="clip0_4570_1336">
<rect width="79" height="126.787" fill="white" transform="translate(0.5 0.357178)"/>
</clipPath>
</defs>
</svg>
