<svg width="24" height="24" viewBox="0 0 24 24" fill="none" xmlns="http://www.w3.org/2000/svg">
<path d="M10.8922 21.5C10.5512 21.5 10.2567 21.3868 10.0087 21.1605C9.76058 20.9343 9.60958 20.6558 9.55574 20.325L9.31149 18.4538C9.04366 18.3641 8.76899 18.2385 8.48749 18.077C8.20616 17.9153 7.95458 17.7423 7.73274 17.5577L5.99999 18.2943C5.68583 18.4328 5.37016 18.4462 5.05299 18.3345C4.73566 18.223 4.48916 18.0205 4.31349 17.727L3.18649 15.773C3.01083 15.4795 2.96024 15.1689 3.03474 14.8413C3.10908 14.5138 3.27958 14.2436 3.54624 14.0308L5.04424 12.9058C5.02124 12.7571 5.00491 12.6077 4.99524 12.4578C4.98558 12.3077 4.98074 12.1583 4.98074 12.0095C4.98074 11.8673 4.98558 11.7228 4.99524 11.576C5.00491 11.4292 5.02124 11.2686 5.04424 11.0943L3.54624 9.96925C3.27958 9.75642 3.11066 9.48458 3.03949 9.15375C2.96833 8.82308 3.02058 8.51092 3.19624 8.21725L4.31349 6.29225C4.48916 6.00508 4.73566 5.80417 5.05299 5.6895C5.37016 5.57467 5.68583 5.5865 5.99999 5.725L7.72299 6.452C7.96416 6.261 8.22158 6.08633 8.49524 5.928C8.76891 5.76967 9.03783 5.64242 9.30199 5.54625L9.55574 3.675C9.60958 3.34417 9.76058 3.06567 10.0087 2.8395C10.2567 2.61317 10.5512 2.5 10.8922 2.5H13.1077C13.4487 2.5 13.7432 2.61317 13.9912 2.8395C14.2394 3.06567 14.3904 3.34417 14.4442 3.675L14.6885 5.55575C14.9885 5.66475 15.2599 5.792 15.5027 5.9375C15.7457 6.083 15.991 6.2545 16.2385 6.452L18.0097 5.725C18.3237 5.5865 18.6394 5.57467 18.9567 5.6895C19.2741 5.80417 19.5205 6.00508 19.696 6.29225L20.8135 8.227C20.9892 8.5205 21.0397 8.83108 20.9652 9.15875C20.8909 9.48625 20.7204 9.75642 20.4537 9.96925L18.9172 11.123C18.9531 11.2845 18.9727 11.4355 18.976 11.576C18.9792 11.7163 18.9807 11.8577 18.9807 12C18.9807 12.1358 18.9775 12.274 18.971 12.4145C18.9647 12.5548 18.9417 12.7154 18.902 12.8963L20.4095 14.0308C20.6762 14.2436 20.8483 14.5138 20.926 14.8413C21.0035 15.1689 20.9544 15.4795 20.7787 15.773L19.646 17.7172C19.4705 18.0109 19.2225 18.2135 18.902 18.325C18.5815 18.4365 18.2642 18.423 17.95 18.2845L16.2385 17.548C15.991 17.7455 15.7384 17.9202 15.4807 18.072C15.2231 18.224 14.959 18.3481 14.6885 18.4443L14.4442 20.325C14.3904 20.6558 14.2394 20.9343 13.9912 21.1605C13.7432 21.3868 13.4487 21.5 13.1077 21.5H10.8922ZM11 20H12.9655L13.325 17.3212C13.8353 17.1879 14.3017 16.9985 14.724 16.753C15.1465 16.5073 15.5539 16.1916 15.9462 15.8057L18.4307 16.85L19.4155 15.15L17.2462 13.5155C17.3296 13.2565 17.3862 13.0026 17.4162 12.7537C17.4464 12.5051 17.4615 12.2538 17.4615 12C17.4615 11.7397 17.4464 11.4884 17.4162 11.2463C17.3862 11.0039 17.3296 10.7564 17.2462 10.5038L19.4345 8.85L18.45 7.15L15.9365 8.2095C15.6018 7.85183 15.2009 7.53583 14.7337 7.2615C14.2664 6.98717 13.7937 6.79292 13.3155 6.67875L13 4H11.0155L10.6845 6.66925C10.1743 6.78975 9.70324 6.97433 9.27124 7.223C8.83908 7.47183 8.42683 7.79233 8.03449 8.1845L5.54999 7.15L4.56549 8.85L6.72499 10.4595C6.64166 10.6968 6.58333 10.9437 6.54999 11.2C6.51666 11.4563 6.49999 11.7262 6.49999 12.0095C6.49999 12.2698 6.51666 12.525 6.54999 12.775C6.58333 13.025 6.63849 13.2718 6.71549 13.5155L4.56549 15.15L5.54999 16.85L8.02499 15.8C8.40449 16.1897 8.81024 16.5089 9.24224 16.7578C9.67441 17.0064 10.152 17.1974 10.675 17.3307L11 20ZM12.0115 15C12.8435 15 13.5515 14.708 14.1355 14.124C14.7195 13.54 15.0115 12.832 15.0115 12C15.0115 11.168 14.7195 10.46 14.1355 9.876C13.5515 9.292 12.8435 9 12.0115 9C11.1692 9 10.4586 9.292 9.87974 9.876C9.30091 10.46 9.01149 11.168 9.01149 12C9.01149 12.832 9.30091 13.54 9.87974 14.124C10.4586 14.708 11.1692 15 12.0115 15Z" fill="#273540"/>
</svg>
