<svg width="114" height="107" viewBox="0 0 114 107" fill="none" xmlns="http://www.w3.org/2000/svg">
<g clip-path="url(#clip0_13758_82195)">
<path fill-rule="evenodd" clip-rule="evenodd" d="M37.6708 95.7478C38.5388 96.3672 39.4319 96.972 40.3447 97.5631C38.5005 102.178 33.8522 112.307 26.5288 118.408C16.8175 126.497 9.32675 115.742 10.5878 109.276C11.7634 103.245 21.5726 98.6827 37.6708 95.7478Z" fill="#2D3B45" stroke="#152633" stroke-width="2"/>
<path fill-rule="evenodd" clip-rule="evenodd" d="M85.778 89.7478C84.91 90.3672 84.0169 90.972 83.104 91.5631C84.9482 96.1776 89.5965 106.307 96.9199 112.408C106.631 120.497 114.122 109.742 112.861 103.276C111.685 97.2455 101.876 92.6827 85.778 89.7478Z" fill="#2D3B45" stroke="#152633" stroke-width="2"/>
<path fill-rule="evenodd" clip-rule="evenodd" d="M41.1553 91.9897C48.2985 94.3685 56.4508 95.6615 65.1084 95.6615C72.8254 95.6615 76.0168 92.0799 82.3187 90.2949C88.533 95.6615 91.6627 105.893 92.2905 110.915C94.1369 123.837 82.9039 135.163 62.9573 135.163C43.0108 135.163 32.5904 123.43 34.8671 111.306C36.4362 102.953 38.9655 96.6424 41.1553 91.9897Z" fill="white" stroke="#152633" stroke-width="2"/>
<path fill-rule="evenodd" clip-rule="evenodd" d="M110.079 52.326C114.339 75.3166 95.8336 91.4542 67.2644 96.747C38.6958 102.04 17.6191 92.5873 11.0176 71.1638C3.88995 48.0316 22.9807 17.2128 51.5498 11.9201C80.1186 6.62744 105.6 28.1464 110.079 52.326Z" fill="white" stroke="#152633" stroke-width="2"/>
<path fill-rule="evenodd" clip-rule="evenodd" d="M70.9457 90.7455C69.8155 91.887 68.7392 92.5053 67.7725 92.5388C66.7719 92.5735 65.8687 91.9844 65.0885 90.7879C64.6619 90.1343 64.2543 89.4174 63.8746 88.6895C66.6722 88.6151 69.1706 89.1687 70.9457 90.7455ZM60.0918 83.1642C60.8173 85.2611 61.8231 88.1346 64.0122 91.4903C65.0411 93.0666 66.3567 93.8735 67.8166 93.8226C68.2208 93.8088 68.6287 93.7307 69.0395 93.5885C71.0631 92.8883 73.1673 90.6329 75.3137 86.8682C77.4306 86.6337 79.1356 86.1601 80.2359 85.7793C81.0486 85.4981 81.5343 85.2693 81.6197 85.2283C82.4474 84.7815 82.0797 83.7189 81.0608 84.0714C80.9722 84.1145 72.5253 88.0578 63.0006 83.47C62.9724 83.4559 61.9233 83.0501 61.0304 82.404C59.9209 81.5128 59.608 81.7662 60.0918 83.1642Z" fill="#152633"/>
<path fill-rule="evenodd" clip-rule="evenodd" d="M67.0283 74.4467C66.6429 72.367 69.7914 70.0398 74.06 69.2488C78.329 68.458 82.1019 69.5026 82.4875 71.5827C82.8725 73.6625 79.7243 75.9895 75.4556 76.7802C71.1865 77.571 67.4135 76.526 67.0283 74.4467Z" fill="#152633"/>
<path fill-rule="evenodd" clip-rule="evenodd" d="M42.5419 83.9102L42.5419 83.9102C52.6232 82.0428 61.2641 68.7407 58.9893 56.461C56.4466 42.7344 45.8068 30.4009 37.0301 32.027C32.661 32.836 28.05 37.1001 24.7905 43.4724C21.4928 49.9193 20.198 57.4 21.3169 63.4405C23.7371 76.5041 33.3297 85.6172 42.5419 83.9102Z" fill="#2D3B45" stroke="#152633" stroke-width="2"/>
<path fill-rule="evenodd" clip-rule="evenodd" d="M50.4564 55.448C52.7816 55.6893 54.359 58.8476 53.9798 62.5011C53.6008 66.1555 51.408 68.9215 49.0829 68.6802C46.7576 68.4386 45.1801 65.2812 45.5592 61.6272C45.9387 57.9731 48.1313 55.2068 50.4564 55.448Z" fill="white"/>
<path fill-rule="evenodd" clip-rule="evenodd" d="M84.0467 62.6066C87.7292 66.4087 91.4512 68.0088 94.511 67.5262C94.5657 67.5178 94.617 67.5092 94.6663 67.5C96.8514 67.0951 99.4354 65.4557 100.913 63.3654C104.518 58.2706 105.539 53.2249 104.125 45.596C101.897 33.568 87.5822 20.2016 78.9494 21.8007C77.0777 22.1475 75.6722 23.066 74.716 24.5548C71.8698 28.9868 72.5814 37.9753 76.0517 49.0877C77.5419 53.8616 80.4222 58.8641 84.0467 62.6066Z" fill="#2D3B45" stroke="#152633" stroke-width="2"/>
<path fill-rule="evenodd" clip-rule="evenodd" d="M90.4839 52.5721C91.8465 55.2566 91.5668 58.136 89.8585 59.003C88.15 59.8706 85.6608 58.3973 84.2978 55.713C82.9348 53.0286 83.2151 50.1495 84.9228 49.2822C86.6309 48.4148 89.1211 49.8882 90.4839 52.5721Z" fill="white"/>
<path fill-rule="evenodd" clip-rule="evenodd" d="M13.2805 42.2958C11.7284 41.9647 10.0244 41.3919 8.24951 40.4415C1.42228 36.7867 1.14298 28.6384 1.17234 26.5832C1.20118 24.5277 1.81735 14.5736 10.1564 17.5387C15.542 19.4534 21.4569 23.3195 24.9735 25.8194C20.0698 30.5817 16.1022 36.2166 13.2805 42.2958Z" fill="#2D3B45" stroke="#152633" stroke-width="2"/>
<path fill-rule="evenodd" clip-rule="evenodd" d="M93.974 20.5132C93.2709 21.3262 92.5449 22.0146 91.8215 22.5982C87.1584 18.8158 81.8227 15.7785 76.0364 13.7789C78.1104 10.668 81.6412 5.80253 85.3478 2.62957C91.1564 -2.34259 94.7338 5.49582 95.3936 7.14437C96.0535 8.79329 98.3496 15.4521 93.974 20.5132Z" fill="#2D3B45" stroke="#152633" stroke-width="2"/>
</g>
<defs>
<clipPath id="clip0_13758_82195">
<rect width="114" height="137" fill="white" transform="matrix(-1 0 0 1 114 0)"/>
</clipPath>
</defs>
</svg>
