<svg width="14" height="8" viewBox="0 0 14 8" fill="none" xmlns="http://www.w3.org/2000/svg">
<path d="M1.01811 7.50641C0.914663 7.40308 0.865719 7.2843 0.871274 7.15008C0.87683 7.01586 0.925774 6.90264 1.01811 6.81041L4.38094 3.40391C4.61083 3.16969 4.89544 3.05258 5.23477 3.05258C5.574 3.05258 5.86072 3.16969 6.09494 3.40391L7.76027 5.07958C7.79883 5.11802 7.84589 5.13725 7.90144 5.13725C7.957 5.13725 8.00611 5.11802 8.04877 5.07958L11.6438 1.52441H10.1668C10.0249 1.52441 9.90611 1.47658 9.81044 1.38091C9.71466 1.28514 9.66677 1.1663 9.66677 1.02441C9.66677 0.882525 9.71466 0.763747 9.81044 0.668081C9.90611 0.572303 10.0249 0.524414 10.1668 0.524414H12.7308C12.9027 0.524414 13.0461 0.581914 13.1609 0.696914C13.2759 0.811914 13.3334 0.955302 13.3334 1.12708V3.69108C13.3334 3.83297 13.2856 3.9518 13.1898 4.04758C13.0941 4.14325 12.9753 4.19108 12.8334 4.19108C12.6916 4.19108 12.5728 4.1443 12.4771 4.05075C12.3813 3.95719 12.3334 3.83947 12.3334 3.69758V2.22691L8.75527 5.80525C8.52527 6.03514 8.24066 6.15008 7.90144 6.15008C7.56211 6.15008 7.2775 6.03514 7.04761 5.80525L5.38211 4.13975C5.34366 4.1013 5.29455 4.08208 5.23477 4.08208C5.17489 4.08208 5.12572 4.1013 5.08728 4.13975L1.72061 7.50641C1.62405 7.60308 1.50694 7.65141 1.36927 7.65141C1.23172 7.65141 1.11466 7.60308 1.01811 7.50641Z" fill="#273540"/>
</svg>
