<svg width="24" height="24" viewBox="0 0 24 24" fill="none" xmlns="http://www.w3.org/2000/svg">
<path d="M10.25 17.6345C10.0375 17.6345 9.85942 17.5626 9.71575 17.4187C9.57192 17.2751 9.5 17.0969 9.5 16.8842C9.5 16.6717 9.57192 16.4936 9.71575 16.35C9.85942 16.2065 10.0375 16.1347 10.25 16.1347H19.75C19.9625 16.1347 20.1406 16.2066 20.2843 16.3502C20.4281 16.4941 20.5 16.6723 20.5 16.885C20.5 17.0975 20.4281 17.2756 20.2843 17.4192C20.1406 17.5627 19.9625 17.6345 19.75 17.6345H10.25ZM10.25 12.75C10.0375 12.75 9.85942 12.6781 9.71575 12.5342C9.57192 12.3904 9.5 12.2122 9.5 11.9997C9.5 11.7871 9.57192 11.609 9.71575 11.4655C9.85942 11.3218 10.0375 11.25 10.25 11.25H19.75C19.9625 11.25 20.1406 11.3219 20.2843 11.4657C20.4281 11.6096 20.5 11.7877 20.5 12.0002C20.5 12.2129 20.4281 12.391 20.2843 12.5345C20.1406 12.6781 19.9625 12.75 19.75 12.75H10.25ZM4.25 7.86523C4.0375 7.86523 3.85942 7.7934 3.71575 7.64973C3.57192 7.5059 3.5 7.32764 3.5 7.11498C3.5 6.90248 3.57192 6.72439 3.71575 6.58073C3.85942 6.43723 4.0375 6.36548 4.25 6.36548H19.75C19.9625 6.36548 20.1406 6.4374 20.2843 6.58123C20.4281 6.7249 20.5 6.90306 20.5 7.11573C20.5 7.32823 20.4281 7.50631 20.2843 7.64998C20.1406 7.79348 19.9625 7.86523 19.75 7.86523H4.25Z" fill="#273540"/>
</svg>
