<svg width="24" height="24" viewBox="0 0 24 24" fill="none" xmlns="http://www.w3.org/2000/svg">
<path d="M9.504 11.8074C9.36686 12.0646 9.27429 12.3612 9.22629 12.6972L9.70457 12.7794C9.83143 12.7966 9.92743 12.7863 9.99257 12.7486C10.0611 12.7074 10.1177 12.6269 10.1623 12.5069C10.1966 12.3457 10.2549 12.1983 10.3371 12.0646C10.4194 11.9309 10.5206 11.816 10.6406 11.72C10.764 11.6206 10.9046 11.5434 11.0623 11.4886C11.2234 11.4337 11.3966 11.4063 11.5817 11.4063C11.7669 11.4063 11.9383 11.432 12.096 11.4834C12.2571 11.5349 12.396 11.612 12.5126 11.7149C12.6291 11.8177 12.72 11.948 12.7851 12.1057C12.8537 12.2634 12.888 12.4486 12.888 12.6612C12.888 12.8532 12.8554 13.028 12.7903 13.1857C12.7286 13.3434 12.6274 13.4789 12.4869 13.592C12.3497 13.7052 12.1697 13.7943 11.9469 13.8594C11.7274 13.9246 11.46 13.9589 11.1446 13.9623V14.6257C11.5286 14.6257 11.8423 14.66 12.0857 14.7286C12.3326 14.7972 12.5263 14.8914 12.6669 15.0114C12.8074 15.1314 12.9034 15.2737 12.9549 15.4383C13.0063 15.6029 13.032 15.7846 13.032 15.9834C13.032 16.1446 12.9994 16.3074 12.9343 16.472C12.8691 16.6366 12.7714 16.7857 12.6411 16.9194C12.5143 17.0532 12.3531 17.1629 12.1577 17.2486C11.9657 17.3309 11.7411 17.372 11.484 17.372C11.2063 17.372 10.9766 17.3292 10.7949 17.2434C10.6166 17.1577 10.4691 17.0532 10.3526 16.9297C10.236 16.8063 10.1434 16.6777 10.0749 16.544C10.0097 16.4103 9.95486 16.2954 9.91029 16.1994C9.86571 16.1069 9.79371 16.0503 9.69429 16.0297C9.59829 16.0092 9.49886 16.0212 9.396 16.0657L9 16.2303C9.08571 16.5046 9.19029 16.76 9.31371 16.9966C9.43714 17.2297 9.59486 17.432 9.78686 17.6034C9.97886 17.7749 10.2137 17.9103 10.4914 18.0097C10.7691 18.1057 11.1034 18.1537 11.4943 18.1537C11.8337 18.1537 12.1509 18.104 12.4457 18.0046C12.744 17.9017 13.0046 17.756 13.2274 17.5674C13.4503 17.3754 13.6251 17.144 13.752 16.8732C13.8823 16.6023 13.9474 16.2972 13.9474 15.9577C13.9474 15.5086 13.8257 15.1349 13.5823 14.8366C13.3423 14.5349 12.9823 14.3223 12.5023 14.1989C12.6977 14.1372 12.8743 14.0583 13.032 13.9623C13.1897 13.8663 13.3234 13.7497 13.4331 13.6126C13.5463 13.4754 13.632 13.316 13.6903 13.1343C13.752 12.9492 13.7829 12.74 13.7829 12.5069C13.7829 12.2223 13.7297 11.9634 13.6234 11.7303C13.5171 11.4972 13.368 11.2983 13.176 11.1337C12.9874 10.9692 12.7611 10.8423 12.4971 10.7532C12.2331 10.664 11.9451 10.6194 11.6331 10.6194C11.3177 10.6194 11.0229 10.6657 10.7486 10.7583C10.4777 10.8474 10.236 10.9794 10.0234 11.1543C9.81429 11.3292 9.64114 11.5469 9.504 11.8074Z" fill="#2D3B45"/>
<path fill-rule="evenodd" clip-rule="evenodd" d="M6.85711 2C7.21215 2 7.49996 2.28782 7.49996 2.64286V2.85714H15.6428V2.64286C15.6428 2.28782 15.9306 2 16.2857 2C16.6407 2 16.9285 2.28782 16.9285 2.64286V2.85714H17.4676C17.8065 2.85713 18.0989 2.85712 18.3397 2.87679C18.5938 2.89756 18.8466 2.9434 19.0898 3.06734C19.4527 3.25224 19.7478 3.54728 19.9327 3.91016C20.0566 4.1534 20.1024 4.40619 20.1232 4.66034C20.1429 4.90111 20.1429 5.19343 20.1429 5.53227V22.1429H3V5.53236C2.99999 5.19349 2.99998 4.90113 3.01965 4.66034C3.04042 4.40619 3.08626 4.1534 3.2102 3.91016C3.3951 3.54728 3.69014 3.25224 4.05302 3.06734C4.29626 2.9434 4.54905 2.89756 4.8032 2.87679C5.04399 2.85712 5.33634 2.85713 5.67522 2.85714H6.21425V2.64286C6.21425 2.28782 6.50207 2 6.85711 2ZM6.21425 4.35714V4.14286H5.7C5.32936 4.14286 5.09004 4.14336 4.9079 4.15824C4.73326 4.17251 4.66851 4.19673 4.63672 4.21292C4.51576 4.27456 4.41742 4.3729 4.35578 4.49386C4.33959 4.52565 4.31537 4.5904 4.3011 4.76504C4.28622 4.94718 4.28572 5.1865 4.28572 5.55714V6.71429H18.8571V5.55714C18.8571 5.1865 18.8566 4.94718 18.8418 4.76504C18.8275 4.5904 18.8033 4.52565 18.7871 4.49386C18.7254 4.3729 18.6271 4.27456 18.5061 4.21292C18.4744 4.19673 18.4096 4.17251 18.235 4.15824C18.0528 4.14336 17.8135 4.14286 17.4429 4.14286H16.9285V4.35714C16.9285 4.71218 16.6407 5 16.2857 5C15.9306 5 15.6428 4.71218 15.6428 4.35714V4.14286H7.49996V4.35714C7.49996 4.71218 7.21215 5 6.85711 5C6.50207 5 6.21425 4.71218 6.21425 4.35714ZM4.28572 20.8571V8H18.8571V20.8571H4.28572Z" fill="#2D3B45"/>
</svg>
