<svg width="24" height="24" viewBox="0 0 24 24" fill="none" xmlns="http://www.w3.org/2000/svg">
<path d="M10.9808 21.5C10.5683 21.5 10.2152 21.3531 9.9215 21.0592C9.62767 20.7656 9.48075 20.4125 9.48075 20V15.3942H6.31725C5.81225 15.3942 5.38308 15.2192 5.02975 14.8693C4.67658 14.5192 4.5 14.0948 4.5 13.596V6.798C4.5 5.89117 4.82483 5.11475 5.4745 4.46875C6.12417 3.82292 6.90508 3.5 7.81725 3.5H18.596C18.8522 3.5 19.0668 3.58667 19.24 3.76C19.4133 3.93317 19.5 4.14783 19.5 4.404V13.596C19.5 14.0948 19.3211 14.5192 18.9633 14.8693C18.6056 15.2192 18.1755 15.3942 17.673 15.3942H14.5095V20C14.5095 20.4125 14.3627 20.7656 14.069 21.0592C13.7752 21.3531 13.422 21.5 13.0095 21.5H10.9808ZM6 10.2307H18V5H16.6827V8.10575C16.6827 8.31825 16.6108 8.49642 16.467 8.64025C16.3232 8.78392 16.1449 8.85575 15.9323 8.85575C15.7197 8.85575 15.5417 8.78392 15.398 8.64025C15.2545 8.49642 15.1827 8.31825 15.1827 8.10575V5H13.7595V6.23075C13.7595 6.44325 13.6877 6.62142 13.544 6.76525C13.4002 6.90892 13.2219 6.98075 13.0092 6.98075C12.7968 6.98075 12.6187 6.90892 12.475 6.76525C12.3315 6.62142 12.2598 6.44325 12.2598 6.23075V5H7.81725C7.31208 5 6.88292 5.17342 6.52975 5.52025C6.17658 5.86692 6 6.29283 6 6.798V10.2307ZM6.31725 13.8942H17.673C17.7628 13.8942 17.8398 13.8654 17.9038 13.8077C17.9679 13.7501 18 13.6795 18 13.596V11.7308H6V13.596C6 13.6795 6.03042 13.7501 6.09125 13.8077C6.15225 13.8654 6.22758 13.8942 6.31725 13.8942Z" fill="#273540"/>
</svg>
