<svg width="24" height="24" viewBox="0 0 24 24" fill="none" xmlns="http://www.w3.org/2000/svg">
<path d="M10.123 20.248C8.4705 19.8288 7.12025 18.9535 6.07225 17.622C5.02408 16.2907 4.5 14.75 4.5 13C4.5 12.1013 4.65675 11.2421 4.97025 10.4223C5.28375 9.60226 5.7225 8.85001 6.2865 8.16551C6.425 8.01035 6.59233 7.93018 6.7885 7.92501C6.98467 7.91985 7.16542 8.00001 7.33075 8.16551C7.46925 8.30385 7.54108 8.47268 7.54625 8.67201C7.55125 8.87151 7.48458 9.05901 7.34625 9.23451C6.90775 9.75768 6.57375 10.3404 6.34425 10.9828C6.11475 11.6251 6 12.2975 6 13C6 14.3757 6.41508 15.5991 7.24525 16.6703C8.07542 17.7414 9.13792 18.4526 10.4328 18.8038C10.5981 18.8513 10.734 18.9443 10.8405 19.0828C10.9468 19.2211 11 19.373 11 19.5385C11 19.7885 10.9138 19.9853 10.7413 20.1288C10.5689 20.2724 10.3628 20.3122 10.123 20.248ZM13.877 20.2673C13.6372 20.3314 13.4311 20.2891 13.2587 20.1403C13.0862 19.9916 13 19.7923 13 19.5423C13 19.3871 13.0532 19.2403 13.1595 19.102C13.266 18.9635 13.4019 18.8673 13.5673 18.8135C14.8558 18.4198 15.9167 17.6948 16.75 16.6385C17.5833 15.582 18 14.3692 18 13C18 11.3333 17.4167 9.91668 16.25 8.75001C15.0833 7.58335 13.6667 7.00001 12 7.00001H11.6463L12.4692 7.82301C12.6141 7.96801 12.6865 8.14368 12.6865 8.35001C12.6865 8.55651 12.6141 8.73218 12.4692 8.87701C12.3244 9.02185 12.1488 9.09426 11.9423 9.09426C11.7359 9.09426 11.5603 9.02185 11.4155 8.87701L9.42125 6.88276C9.32758 6.7891 9.2615 6.69035 9.223 6.58651C9.18467 6.48268 9.1655 6.37051 9.1655 6.25001C9.1655 6.12951 9.18467 6.01734 9.223 5.91351C9.2615 5.80968 9.32758 5.71093 9.42125 5.61726L11.4155 3.62301C11.5603 3.47818 11.7359 3.40576 11.9423 3.40576C12.1488 3.40576 12.3244 3.47818 12.4692 3.62301C12.6141 3.76801 12.6865 3.94368 12.6865 4.15001C12.6865 4.35651 12.6141 4.53218 12.4692 4.67701L11.6463 5.50001H12C14.0923 5.50001 15.8654 6.22693 17.3193 7.68076C18.7731 9.13459 19.5 10.9077 19.5 13C19.5 14.7333 18.9743 16.2667 17.923 17.6C16.8717 18.9333 15.523 19.8224 13.877 20.2673Z" fill="#273540"/>
</svg>
