<svg width="24" height="24" viewBox="0 0 24 24" fill="none" xmlns="http://www.w3.org/2000/svg">
<path d="M7 13.6152C6.55583 13.6152 6.17558 13.4571 5.85925 13.1408C5.54292 12.8244 5.38475 12.4442 5.38475 12C5.38475 11.5558 5.54292 11.1756 5.85925 10.8593C6.17558 10.5429 6.55583 10.3848 7 10.3848C7.44417 10.3848 7.82442 10.5429 8.14075 10.8593C8.45708 11.1756 8.61525 11.5558 8.61525 12C8.61525 12.4442 8.45708 12.8244 8.14075 13.1408C7.82442 13.4571 7.44417 13.6152 7 13.6152ZM7 17.5C5.47217 17.5 4.17358 16.9655 3.10425 15.8965C2.03475 14.8275 1.5 13.5294 1.5 12.0023C1.5 10.4751 2.03475 9.17625 3.10425 8.10575C4.17358 7.03525 5.47217 6.5 7 6.5C8.07183 6.5 9.04108 6.77658 9.90775 7.32975C10.7744 7.88308 11.4359 8.6065 11.8923 9.5H20.5173C20.6351 9.5 20.7492 9.52183 20.8595 9.5655C20.9698 9.609 21.0718 9.67758 21.1653 9.77125L22.7615 11.3672C22.8552 11.4609 22.9212 11.5601 22.9595 11.6648C22.998 11.7694 23.0173 11.8816 23.0173 12.0012C23.0173 12.1209 22.998 12.2327 22.9595 12.3365C22.9212 12.4403 22.8552 12.5391 22.7615 12.6328L20.1155 15.2692C20.0405 15.3468 19.9506 15.4087 19.8458 15.4552C19.7409 15.5017 19.6366 15.5301 19.5328 15.5402C19.4289 15.5506 19.3251 15.5407 19.2213 15.5105C19.1174 15.4803 19.0187 15.43 18.925 15.3595L17.6923 14.4328L16.2962 15.4692C16.2192 15.5294 16.1372 15.573 16.05 15.6C15.9628 15.6268 15.8724 15.6403 15.7788 15.6403C15.6853 15.6403 15.5923 15.6252 15.5 15.5953C15.4077 15.5651 15.3231 15.5231 15.2462 15.4692L13.8365 14.5H11.8923C11.4359 15.3872 10.7744 16.1089 9.90775 16.6652C9.04108 17.2218 8.07183 17.5 7 17.5ZM7 16C7.959 16 8.78942 15.7103 9.49125 15.1308C10.1932 14.5513 10.6513 13.841 10.8655 13H14.3077L15.748 13.9963C15.7417 13.9963 15.7401 13.9987 15.7432 14.0037C15.7464 14.0089 15.748 14.0064 15.748 13.9963L17.702 12.5673L19.4 13.8655L21.2655 12L20.2655 11H10.8655C10.6513 10.159 10.1932 9.44875 9.49125 8.86925C8.78942 8.28975 7.959 8 7 8C5.9 8 4.95833 8.39167 4.175 9.175C3.39167 9.95833 3 10.9 3 12C3 13.1 3.39167 14.0417 4.175 14.825C4.95833 15.6083 5.9 16 7 16Z" fill="#273540"/>
</svg>
