<svg width="24" height="24" viewBox="0 0 24 24" fill="none" xmlns="http://www.w3.org/2000/svg">
<path d="M12 13.0442L15.0828 16.127C15.2213 16.2653 15.3953 16.3329 15.6048 16.3298C15.8144 16.3266 15.9885 16.2558 16.127 16.1173C16.2653 15.9788 16.3345 15.8048 16.3345 15.5953C16.3345 15.3856 16.2653 15.2115 16.127 15.073L13.0443 12L16.127 8.91725C16.2653 8.77875 16.3345 8.60475 16.3345 8.39525C16.3345 8.18558 16.2653 8.0115 16.127 7.873C15.9885 7.73467 15.8144 7.6655 15.6048 7.6655C15.3953 7.6655 15.2213 7.73467 15.0828 7.873L12 10.9557L8.91725 7.873C8.77875 7.73467 8.60633 7.6655 8.4 7.6655C8.19367 7.6655 8.02125 7.73467 7.88275 7.873C7.74425 8.0115 7.675 8.18558 7.675 8.39525C7.675 8.60475 7.74425 8.77875 7.88275 8.91725L10.9558 12L7.873 15.0828C7.73467 15.2213 7.66708 15.3937 7.67025 15.6C7.67342 15.8063 7.74425 15.9788 7.88275 16.1173C8.02125 16.2558 8.19525 16.325 8.40475 16.325C8.61442 16.325 8.7885 16.2558 8.927 16.1173L12 13.0442ZM5.30775 20.5C4.80258 20.5 4.375 20.325 4.025 19.975C3.675 19.625 3.5 19.1974 3.5 18.6923V5.30775C3.5 4.80258 3.675 4.375 4.025 4.025C4.375 3.675 4.80258 3.5 5.30775 3.5H18.6923C19.1974 3.5 19.625 3.675 19.975 4.025C20.325 4.375 20.5 4.80258 20.5 5.30775V18.6923C20.5 19.1974 20.325 19.625 19.975 19.975C19.625 20.325 19.1974 20.5 18.6923 20.5H5.30775ZM5.30775 19H18.6923C18.7692 19 18.8398 18.9679 18.9038 18.9038C18.9679 18.8398 19 18.7692 19 18.6923V5.30775C19 5.23075 18.9679 5.16025 18.9038 5.09625C18.8398 5.03208 18.7692 5 18.6923 5H5.30775C5.23075 5 5.16025 5.03208 5.09625 5.09625C5.03208 5.16025 5 5.23075 5 5.30775V18.6923C5 18.7692 5.03208 18.8398 5.09625 18.9038C5.16025 18.9679 5.23075 19 5.30775 19Z" fill="#273540"/>
</svg>
