<svg width="24" height="24" viewBox="0 0 24 24" fill="none" xmlns="http://www.w3.org/2000/svg">
<path d="M6.7115 17.2885H4.25C4.0375 17.2885 3.85942 17.2166 3.71575 17.0728C3.57192 16.9289 3.5 16.7507 3.5 16.538C3.5 16.3255 3.57192 16.1474 3.71575 16.0037C3.85942 15.8603 4.0375 15.7885 4.25 15.7885H7.30775C7.56375 15.7885 7.77842 15.8751 7.95175 16.0483C8.12492 16.2216 8.2115 16.4363 8.2115 16.6923V19.75C8.2115 19.9625 8.13958 20.1406 7.99575 20.2843C7.85192 20.4281 7.67375 20.5 7.46125 20.5C7.24858 20.5 7.0705 20.4281 6.927 20.2843C6.78333 20.1406 6.7115 19.9625 6.7115 19.75V17.2885ZM17.298 17.2885V19.75C17.298 19.9625 17.2261 20.1406 17.0822 20.2843C16.9384 20.4281 16.7602 20.5 16.5477 20.5C16.3351 20.5 16.157 20.4281 16.0135 20.2843C15.8698 20.1406 15.798 19.9625 15.798 19.75V16.6923C15.798 16.4363 15.8847 16.2216 16.058 16.0483C16.2312 15.8751 16.4458 15.7885 16.702 15.7885H19.7595C19.972 15.7885 20.1502 15.8604 20.294 16.0043C20.4377 16.1481 20.5095 16.3263 20.5095 16.5387C20.5095 16.7514 20.4377 16.9295 20.294 17.073C20.1502 17.2167 19.972 17.2885 19.7595 17.2885H17.298ZM6.7115 6.7115V4.25C6.7115 4.0375 6.78342 3.85942 6.92725 3.71575C7.07108 3.57192 7.24933 3.5 7.462 3.5C7.6745 3.5 7.85258 3.57192 7.99625 3.71575C8.13975 3.85942 8.2115 4.0375 8.2115 4.25V7.30775C8.2115 7.56375 8.12492 7.77842 7.95175 7.95175C7.77842 8.12492 7.56375 8.2115 7.30775 8.2115H4.25C4.0375 8.2115 3.85942 8.13958 3.71575 7.99575C3.57192 7.85192 3.5 7.67375 3.5 7.46125C3.5 7.24858 3.57192 7.0705 3.71575 6.927C3.85942 6.78333 4.0375 6.7115 4.25 6.7115H6.7115ZM17.298 6.7115H19.7595C19.972 6.7115 20.1502 6.78342 20.294 6.92725C20.4377 7.07108 20.5095 7.24933 20.5095 7.462C20.5095 7.6745 20.4377 7.85258 20.294 7.99625C20.1502 8.13975 19.972 8.2115 19.7595 8.2115H16.702C16.4458 8.2115 16.2312 8.12492 16.058 7.95175C15.8847 7.77842 15.798 7.56375 15.798 7.30775V4.25C15.798 4.0375 15.8699 3.85942 16.0138 3.71575C16.1576 3.57192 16.3358 3.5 16.5485 3.5C16.761 3.5 16.9391 3.57192 17.0828 3.71575C17.2262 3.85942 17.298 4.0375 17.298 4.25V6.7115Z" fill="#273540"/>
</svg>
