<svg width="24" height="24" viewBox="0 0 24 24" fill="none" xmlns="http://www.w3.org/2000/svg">
<path d="M4.30775 19.5C3.80258 19.5 3.375 19.325 3.025 18.975C2.675 18.625 2.5 18.1974 2.5 17.6923V6.30775C2.5 5.80258 2.675 5.375 3.025 5.025C3.375 4.675 3.80258 4.5 4.30775 4.5H9.05C9.291 4.5 9.52275 4.54683 9.74525 4.6405C9.96758 4.734 10.1608 4.86283 10.325 5.027L11.798 6.5H19.6923C20.1974 6.5 20.625 6.675 20.975 7.025C21.325 7.375 21.5 7.80258 21.5 8.30775V17.6923C21.5 18.1974 21.325 18.625 20.975 18.975C20.625 19.325 20.1974 19.5 19.6923 19.5H4.30775ZM4.30775 18H19.6923C19.7821 18 19.8558 17.9712 19.9135 17.9135C19.9712 17.8558 20 17.7821 20 17.6923V8.30775C20 8.21792 19.9712 8.14417 19.9135 8.0865C19.8558 8.02883 19.7821 8 19.6923 8H11.1845L9.27125 6.0865C9.23908 6.0545 9.20542 6.03208 9.17025 6.01925C9.13492 6.00642 9.098 6 9.0595 6H4.30775C4.21792 6 4.14417 6.02883 4.0865 6.0865C4.02883 6.14417 4 6.21792 4 6.30775V17.6923C4 17.7821 4.02883 17.8558 4.0865 17.9135C4.14417 17.9712 4.21792 18 4.30775 18ZM11.3463 16.6538H18.6538V16.2963C18.6538 15.6296 18.324 15.1058 17.6645 14.725C17.0048 14.3442 16.1167 14.1538 15 14.1538C13.8833 14.1538 12.9952 14.3442 12.3355 14.725C11.676 15.1058 11.3463 15.6296 11.3463 16.2963V16.6538ZM15 12.8463C15.4858 12.8463 15.899 12.676 16.2395 12.3355C16.5798 11.9952 16.75 11.5821 16.75 11.0962C16.75 10.6102 16.5798 10.1971 16.2395 9.85675C15.899 9.51642 15.4858 9.34625 15 9.34625C14.5142 9.34625 14.101 9.51642 13.7605 9.85675C13.4202 10.1971 13.25 10.6102 13.25 11.0962C13.25 11.5821 13.4202 11.9952 13.7605 12.3355C14.101 12.676 14.5142 12.8463 15 12.8463Z" fill="#273540"/>
</svg>
