<svg width="24" height="24" viewBox="0 0 24 24" fill="none" xmlns="http://www.w3.org/2000/svg">
<path d="M3.25 18.4808C3.0375 18.4808 2.85942 18.4088 2.71575 18.265C2.57192 18.1212 2.5 17.943 2.5 17.7305C2.5 17.5178 2.57192 17.3398 2.71575 17.1962C2.85942 17.0526 3.0375 16.9808 3.25 16.9808H11.529C11.7415 16.9808 11.9196 17.0527 12.0633 17.1965C12.2069 17.3403 12.2788 17.5185 12.2788 17.731C12.2788 17.9437 12.2069 18.1217 12.0633 18.2653C11.9196 18.4089 11.7415 18.4808 11.529 18.4808H3.25ZM3.25 13.5865C3.0375 13.5865 2.85942 13.5146 2.71575 13.3707C2.57192 13.2269 2.5 13.0488 2.5 12.8363C2.5 12.6236 2.57192 12.4455 2.71575 12.302C2.85942 12.1583 3.0375 12.0865 3.25 12.0865H6.48075C6.69325 12.0865 6.87142 12.1584 7.01525 12.3022C7.15892 12.4461 7.23075 12.6242 7.23075 12.8368C7.23075 13.0494 7.15892 13.2276 7.01525 13.3713C6.87142 13.5148 6.69325 13.5865 6.48075 13.5865H3.25ZM3.25 8.69225C3.0375 8.69225 2.85942 8.62033 2.71575 8.4765C2.57192 8.33267 2.5 8.1545 2.5 7.942C2.5 7.72933 2.57192 7.55125 2.71575 7.40775C2.85942 7.26408 3.0375 7.19225 3.25 7.19225H6.48075C6.69325 7.19225 6.87142 7.26417 7.01525 7.408C7.15892 7.55183 7.23075 7.73008 7.23075 7.94275C7.23075 8.15525 7.15892 8.33333 7.01525 8.477C6.87142 8.6205 6.69325 8.69225 6.48075 8.69225H3.25ZM13.9615 15.5095C12.7085 15.5095 11.6405 15.0718 10.7575 14.1963C9.87433 13.3206 9.43275 12.2568 9.43275 11.0048C9.43275 9.75292 9.8745 8.68917 10.758 7.8135C11.6417 6.93783 12.7102 6.5 13.9637 6.5C15.2174 6.5 16.2853 6.93783 17.1673 7.8135C18.0493 8.68917 18.4902 9.75133 18.4902 11C18.4902 11.4642 18.4178 11.9209 18.273 12.3703C18.1282 12.8196 17.9141 13.2314 17.6307 13.6058L20.973 16.9192C21.1178 17.0556 21.1903 17.2291 21.1903 17.4397C21.1903 17.6504 21.1178 17.8282 20.973 17.973C20.8367 18.1115 20.6632 18.1807 20.4525 18.1807C20.2418 18.1807 20.0641 18.1115 19.9193 17.973L16.577 14.6595C16.1962 14.9365 15.7811 15.1474 15.3318 15.2923C14.8824 15.4371 14.4257 15.5095 13.9615 15.5095ZM13.9615 14.0095C14.8028 14.0095 15.518 13.7178 16.107 13.1345C16.696 12.5512 16.9905 11.8412 16.9905 11.0048C16.9905 10.1683 16.696 9.45833 16.107 8.875C15.518 8.29167 14.8028 8 13.9615 8C13.1202 8 12.405 8.29167 11.816 8.875C11.2272 9.45833 10.9327 10.1683 10.9327 11.0048C10.9327 11.8412 11.2272 12.5512 11.816 13.1345C12.405 13.7178 13.1202 14.0095 13.9615 14.0095Z" fill="#273540"/>
</svg>
