<svg width="24" height="24" viewBox="0 0 24 24" fill="none" xmlns="http://www.w3.org/2000/svg">
<path d="M9.90575 21.2692C7.73142 20.7782 5.95358 19.6692 4.57225 17.9422C3.19075 16.2154 2.5 14.2357 2.5 12.003C2.5 9.7705 3.19233 7.79133 4.577 6.0655C5.96167 4.33966 7.73792 3.23133 9.90575 2.7405C10.1456 2.67633 10.3558 2.71975 10.5365 2.87075C10.7173 3.02158 10.8078 3.22274 10.8078 3.47424C10.8078 3.65041 10.7582 3.80616 10.659 3.94149C10.5598 4.07683 10.4235 4.163 10.25 4.2C8.41667 4.61666 6.91667 5.55 5.75 7C4.58333 8.45 4 10.1167 4 12C4 13.8833 4.58333 15.55 5.75 17C6.91667 18.45 8.41667 19.3833 10.25 19.8C10.4257 19.8437 10.5625 19.9338 10.6605 20.0705C10.7587 20.2072 10.8078 20.3626 10.8078 20.5367C10.8078 20.7852 10.7173 20.9855 10.5365 21.1375C10.3558 21.2893 10.1456 21.3332 9.90575 21.2692ZM14.0943 21.2595C13.8609 21.3237 13.6523 21.2809 13.4683 21.1312C13.2843 20.9817 13.1923 20.7823 13.1923 20.533C13.1923 20.3585 13.2398 20.2036 13.3348 20.0682C13.4296 19.9331 13.5648 19.8437 13.7405 19.8C14.1922 19.7 14.6313 19.5625 15.058 19.3875C15.4845 19.2125 15.8902 19 16.275 18.75C16.4135 18.6552 16.5664 18.6202 16.7338 18.6452C16.9009 18.6704 17.0465 18.7457 17.1705 18.8712C17.344 19.0467 17.4173 19.2487 17.3903 19.477C17.3634 19.7052 17.2519 19.8885 17.0558 20.027C16.5978 20.3113 16.1199 20.5562 15.6223 20.7617C15.1248 20.9672 14.6154 21.1332 14.0943 21.2595ZM18.8648 17.19C18.7408 17.0633 18.6669 16.9179 18.6433 16.7537C18.6196 16.5897 18.6552 16.4385 18.75 16.3C19 15.9182 19.2125 15.5113 19.3875 15.0795C19.5625 14.6478 19.7 14.2078 19.8 13.7595C19.8373 13.585 19.9243 13.451 20.061 13.3575C20.1977 13.264 20.353 13.2172 20.527 13.2172C20.7757 13.2172 20.9759 13.3077 21.1278 13.4885C21.2798 13.6692 21.3237 13.8794 21.2595 14.1192C21.1332 14.6404 20.9673 15.1497 20.7618 15.6472C20.5563 16.1449 20.3113 16.6227 20.027 17.0807C19.8885 17.2769 19.7035 17.3884 19.472 17.4152C19.2407 17.4422 19.0383 17.3672 18.8648 17.19ZM20.5285 10.8077C20.3505 10.8077 20.1939 10.7602 20.0588 10.6652C19.9234 10.5704 19.8372 10.4352 19.8 10.2595C19.6985 9.8095 19.559 9.372 19.3815 8.947C19.2042 8.522 18.9937 8.11466 18.75 7.725C18.6487 7.57633 18.6115 7.41833 18.6385 7.251C18.6653 7.08366 18.7408 6.93808 18.8648 6.81425C19.0383 6.64075 19.2408 6.56633 19.4725 6.591C19.7043 6.61583 19.8892 6.73358 20.027 6.94425C20.3113 7.40225 20.5563 7.88008 20.7618 8.37775C20.9673 8.87525 21.1332 9.38458 21.2595 9.90575C21.3237 10.1391 21.2814 10.3477 21.1328 10.5317C20.9839 10.7157 20.7825 10.8077 20.5285 10.8077ZM16.275 5.25C15.8917 5 15.4875 4.7875 15.0625 4.6125C14.6375 4.4375 14.2 4.3 13.75 4.2C13.5765 4.16266 13.4402 4.07566 13.341 3.939C13.2418 3.80233 13.1923 3.647 13.1923 3.473C13.1923 3.22433 13.2827 3.02408 13.4635 2.87225C13.6442 2.72025 13.8544 2.67633 14.0943 2.7405C14.6186 2.86733 15.1288 3.03108 15.625 3.23175C16.1212 3.43241 16.5981 3.6795 17.0558 3.973C17.2621 4.1115 17.3788 4.29483 17.4058 4.523C17.4326 4.75133 17.3593 4.95408 17.1858 5.13125C17.0619 5.25791 16.9163 5.33466 16.749 5.3615C16.5817 5.3885 16.4237 5.35133 16.275 5.25ZM12.7345 13.75L15.027 11.4577C15.1822 11.3026 15.3629 11.225 15.5693 11.225C15.7756 11.225 15.9563 11.3026 16.1115 11.4577C16.2667 11.6129 16.3417 11.7937 16.3365 12C16.3313 12.2063 16.2513 12.3871 16.0963 12.5422L12.6173 16.0212C12.4468 16.1917 12.2358 16.277 11.9845 16.277C11.7333 16.277 11.5225 16.1917 11.352 16.0212L7.84225 12.4962C7.68725 12.3411 7.61225 12.1628 7.61725 11.9615C7.62242 11.7603 7.70258 11.5822 7.85775 11.427C8.01292 11.2718 8.19108 11.1942 8.39225 11.1942C8.59358 11.1942 8.77183 11.2718 8.927 11.427L11.2348 13.75V8.09625C11.2348 7.88375 11.3066 7.70558 11.4503 7.56175C11.5941 7.41808 11.7723 7.34625 11.985 7.34625C12.1975 7.34625 12.3756 7.41808 12.5193 7.56175C12.6628 7.70558 12.7345 7.88375 12.7345 8.09625V13.75Z" fill="#273540"/>
</svg>
