<svg width="24" height="24" viewBox="0 0 24 24" fill="none" xmlns="http://www.w3.org/2000/svg">
<path d="M5.37295 16.7499L7.6962 19.0729C7.84487 19.2218 7.9182 19.3959 7.9162 19.5952C7.91437 19.7945 7.83587 19.9718 7.6807 20.1269C7.52554 20.2718 7.34987 20.3468 7.1537 20.3519C6.9577 20.3569 6.78212 20.2819 6.62695 20.1269L3.1327 16.6327C3.03904 16.539 2.97304 16.4403 2.9347 16.3364C2.8962 16.2326 2.87695 16.1204 2.87695 15.9999C2.87695 15.8794 2.8962 15.7673 2.9347 15.6634C2.97304 15.5596 3.03904 15.4609 3.1327 15.3672L6.62695 11.8729C6.76545 11.7346 6.93687 11.6638 7.1412 11.6604C7.3457 11.6573 7.52554 11.7281 7.6807 11.8729C7.83587 12.0281 7.91345 12.2064 7.91345 12.4077C7.91345 12.6089 7.83587 12.787 7.6807 12.9422L5.37295 15.2499H19.75C19.9628 15.2499 20.141 15.3218 20.2845 15.4654C20.4281 15.6089 20.5 15.7871 20.5 15.9999C20.5 16.2128 20.4281 16.3909 20.2845 16.5344C20.141 16.6781 19.9628 16.7499 19.75 16.7499H5.37295ZM18.627 8.74994H4.24995C4.03712 8.74994 3.85895 8.67811 3.71545 8.53444C3.57179 8.39094 3.49995 8.21277 3.49995 7.99994C3.49995 7.78711 3.57179 7.60894 3.71545 7.46544C3.85895 7.32177 4.03712 7.24994 4.24995 7.24994H18.627L16.3037 4.92694C16.155 4.77811 16.0817 4.60402 16.0837 4.40469C16.0855 4.20536 16.164 4.02811 16.3192 3.87294C16.4744 3.72811 16.65 3.65311 16.8462 3.64794C17.0422 3.64294 17.2178 3.71794 17.373 3.87294L20.8672 7.36719C20.9609 7.46086 21.0269 7.55961 21.0652 7.66344C21.1037 7.76727 21.123 7.87944 21.123 7.99994C21.123 8.12044 21.1037 8.23261 21.0652 8.33644C21.0269 8.44027 20.9609 8.53902 20.8672 8.63269L17.373 12.1269C17.2345 12.2653 17.063 12.3361 16.8587 12.3394C16.6542 12.3426 16.4744 12.2718 16.3192 12.1269C16.164 11.9718 16.0865 11.7935 16.0865 11.5922C16.0865 11.391 16.164 11.2129 16.3192 11.0577L18.627 8.74994Z" fill="#273540"/>
</svg>
