<svg version="1.1" xmlns="http://www.w3.org/2000/svg" viewBox="0 0 24 24">
 <g id="Guides">
  <line id="Baseline-S" x1="0" x2="24" y1="18" y2="18"/>
  <line id="Capline-S"  x1="0" x2="24" y1="6"  y2="6"/>
  <line id="Baseline-M" x1="0" x2="24" y1="18" y2="18"/>
  <line id="Capline-M"  x1="0" x2="24" y1="6"  y2="6"/>
  <line id="Baseline-L" x1="0" x2="24" y1="18" y2="18"/>
  <line id="Capline-L"  x1="0" x2="24" y1="6"  y2="6"/>
  <line id="left-margin"  x1="0"  x2="0"  y1="0" y2="24"/>
  <line id="right-margin" x1="24" x2="24" y1="0" y2="24"/>
 </g>
 <g id="Symbols">
  <g id="Regular-M">
   <rect width="24" height="24" opacity="0" />
   <g transform="matrix(0.010416666666666666 0 0 0.010416666666666666 2 2)">
     <path d="M53 1756.981V932.235l395.413 316.48L53 1756.98zm1245.408-370.272l89.28-71.573 387.307 498.24H144.275l387.413-498.24 89.28 71.573H1298.408zm172.512-138.048l395.413-316.373v824.64l-395.413-508.267zM906.333 266.667H1013v266.666h266.667V640H1013v266.667H906.333V640H639.667V533.333h266.666V266.667zM372.968-.011h1173.44v498.347l319.893 277.333v19.947l-426.666 341.44v-1030.4h-960v1030.4L52.968 795.616v-19.947l320-277.333V-.011z" stroke="none" stroke-width="1" fill-rule="evenodd"/>
   </g>
  </g>
 </g>
</svg>
