<svg width="162" height="86" viewBox="0 0 162 86" fill="none" xmlns="http://www.w3.org/2000/svg">
<path d="M81 83.7501C125.183 83.7501 161 78.3775 161 71.7501C161 67.9951 149.502 64.643 131.5 62.4426H30.5C12.4976 64.643 1 67.9951 1 71.7501C1 78.3775 36.8172 83.7501 81 83.7501Z" fill="#152633" stroke="#152633" stroke-width="2"/>
<path fill-rule="evenodd" clip-rule="evenodd" d="M67.9467 83.25C76.0076 79.0171 82.0067 67.8011 80.0667 57.3287C77.524 43.6021 66.8842 31.2686 58.1075 32.8946C53.7384 33.7037 49.1274 37.9678 45.8679 44.3401C42.5702 50.7869 41.2754 58.2677 42.3943 64.3081C43.9551 72.733 48.4989 79.5147 54 82.8109C59 83.25 63.5 83.75 67.9467 83.25Z" fill="#2D3B45"/>
<path d="M36.454 81.8181C34.5203 78.8742 32.973 75.5681 31.847 71.9138C24.7193 48.7816 43.81 17.9628 72.3792 12.6701C100.948 7.37744 126.429 28.8964 130.908 53.076C131.49 56.2171 131.647 59.2303 131.412 62.1054L131.372 62.5506C130.649 70.0414 127.247 76.5816 121.745 81.9886C109.593 83.1059 95.2978 83.7499 80 83.7499C75.4918 83.7499 71.0708 83.694 66.766 83.5865C75.2895 79.7576 81.8328 68.0835 79.8186 57.211C77.276 43.4844 66.6362 31.1509 57.8594 32.777C53.4904 33.586 48.8794 37.8501 45.6199 44.2224C42.3221 50.6693 41.0273 58.15 42.1462 64.1905C43.7793 73.0054 48.6781 80.0216 54.5221 83.1286C48.0963 82.805 42.0348 82.3623 36.454 81.8181Z" fill="white" stroke="#152633" stroke-width="2"/>
<path fill-rule="evenodd" clip-rule="evenodd" d="M87.8576 75.1967C87.4722 73.117 90.6207 70.7898 94.8893 69.9988C99.1584 69.208 102.931 70.2526 103.317 72.3327C103.702 74.4125 100.554 76.7395 96.285 77.5302C92.0159 78.321 88.2429 77.276 87.8576 75.1967Z" fill="#152633"/>
<path fill-rule="evenodd" clip-rule="evenodd" d="M71.2855 56.1979C73.6107 56.4391 75.1881 59.5974 74.8089 63.251C74.4299 66.9053 72.2371 69.6713 69.912 69.4301C67.5867 69.1885 66.0092 66.031 66.3883 62.3771C66.7678 58.723 68.9604 55.9566 71.2855 56.1979Z" fill="white"/>
<path fill-rule="evenodd" clip-rule="evenodd" d="M104.876 63.3566C108.559 67.1587 112.281 68.7588 115.34 68.2762C115.395 68.2678 115.446 68.2592 115.496 68.25C117.681 67.8451 120.265 66.2057 121.743 64.1154C125.347 59.0206 126.368 53.9749 124.955 46.346C122.726 34.318 108.412 20.9516 99.7787 22.5507C97.9071 22.8975 96.5015 23.816 95.5454 25.3048C92.6991 29.7368 93.4108 38.7253 96.881 49.8377C98.3712 54.6116 101.252 59.6141 104.876 63.3566Z" fill="#2D3B45" stroke="#152633" stroke-width="2"/>
<path fill-rule="evenodd" clip-rule="evenodd" d="M111.313 53.3221C112.676 56.0066 112.396 58.886 110.688 59.753C108.979 60.6206 106.49 59.1473 105.127 56.463C103.764 53.7786 104.044 50.8995 105.752 50.0322C107.46 49.1648 109.95 50.6382 111.313 53.3221Z" fill="white"/>
<path fill-rule="evenodd" clip-rule="evenodd" d="M34.1099 43.0458C32.5578 42.7147 30.8538 42.1419 29.0789 41.1915C22.2516 37.5367 21.9723 29.3884 22.0017 27.3332C22.0305 25.2777 22.6467 15.3236 30.9858 18.2887C36.3713 20.2034 42.2862 24.0695 45.8029 26.5694C40.8992 31.3317 36.9316 36.9666 34.1099 43.0458Z" fill="#2D3B45" stroke="#152633" stroke-width="2"/>
<path fill-rule="evenodd" clip-rule="evenodd" d="M114.803 21.2632C114.1 22.0762 113.374 22.7646 112.651 23.3482C107.988 19.5658 102.652 16.5285 96.8657 14.5289C98.9397 11.418 102.471 6.55253 106.177 3.37957C111.986 -1.59259 115.563 6.24582 116.223 7.89437C116.883 9.54329 119.179 16.2021 114.803 21.2632Z" fill="#2D3B45" stroke="#152633" stroke-width="2"/>
<path d="M30.5 62.55C12.4976 64.7504 1 68.1026 1 71.8575C1 78.4849 36.8172 83.8575 81 83.8575C125.183 83.8575 161 78.4849 161 71.8575C161 68.1026 149.502 64.7504 131.5 62.55" stroke="#152633" stroke-width="2"/>
</svg>
