<svg width="24" height="24" viewBox="0 0 24 24" fill="none" xmlns="http://www.w3.org/2000/svg">
<path d="M3.5 24C3.091 24 2.73875 23.8538 2.44325 23.5615C2.14775 23.2692 2 22.9153 2 22.5C2 22.091 2.14775 21.7387 2.44325 21.4432C2.73875 21.1477 3.091 21 3.5 21H20.5C20.909 21 21.2613 21.1462 21.5568 21.4385C21.8523 21.7308 22 22.0847 22 22.5C22 22.909 21.8523 23.2612 21.5568 23.5567C21.2613 23.8522 20.909 24 20.5 24H3.5ZM6 16.4135H7.2365L15.5365 8.12874L14.9078 7.49049L14.2848 6.87699L6 15.177V16.4135ZM4.5 17.0095V14.9155C4.5 14.795 4.52017 14.6802 4.5605 14.5712C4.601 14.4622 4.668 14.3609 4.7615 14.2672L15.7098 3.34424C15.8546 3.19941 16.019 3.08983 16.203 3.01549C16.3868 2.94116 16.5768 2.90399 16.773 2.90399C16.9757 2.90399 17.1683 2.94116 17.351 3.01549C17.5337 3.08983 17.7026 3.20458 17.8577 3.35974L19.0595 4.57699C19.2147 4.72183 19.3268 4.88716 19.396 5.07299C19.4653 5.25899 19.5 5.45324 19.5 5.65574C19.5 5.84174 19.4653 6.02666 19.396 6.21049C19.3268 6.39449 19.2147 6.56408 19.0595 6.71924L8.1365 17.6422C8.04283 17.7359 7.94158 17.8045 7.83275 17.848C7.72375 17.8917 7.609 17.9135 7.4885 17.9135H5.404C5.14617 17.9135 4.93108 17.8272 4.75875 17.6547C4.58625 17.4824 4.5 17.2673 4.5 17.0095ZM15.5365 8.12874L14.9078 7.49049L14.2848 6.87699L15.5365 8.12874Z" fill="#273540"/>
</svg>
