<svg width="84" height="113" viewBox="0 0 84 113" fill="none" xmlns="http://www.w3.org/2000/svg">
<path fill-rule="evenodd" clip-rule="evenodd" d="M22.6698 99.4688H82.0793C82.6315 99.4688 83.0793 99.9165 83.0793 100.469C83.0793 100.86 82.8506 101.216 82.4943 101.379L60.5454 111.393C59.8939 111.69 59.1861 111.844 58.47 111.844H1.9209C1.36861 111.844 0.920898 111.396 0.920898 110.844C0.920898 110.465 1.13489 110.119 1.47367 109.949L22.2226 99.5743C22.3614 99.5049 22.5145 99.4688 22.6698 99.4688Z" fill="black" fill-opacity="0.05"/>
<path fill-rule="evenodd" clip-rule="evenodd" d="M15.8179 7.21875H58.0054V106.781H15.8179V7.21875Z" fill="#EBEDEE" stroke="#152633" stroke-width="1.5" stroke-linejoin="round"/>
<path fill-rule="evenodd" clip-rule="evenodd" d="M20.8804 12.2812H52.9429V30.8438H20.8804V12.2812Z" fill="#EBEDEE" stroke="#152633" stroke-width="1.5" stroke-linejoin="round"/>
<path fill-rule="evenodd" clip-rule="evenodd" d="M32.9741 20.7188H40.8491C41.3151 20.7188 41.6929 21.0965 41.6929 21.5625C41.6929 22.0285 41.3151 22.4062 40.8491 22.4062H32.9741C32.5081 22.4062 32.1304 22.0285 32.1304 21.5625C32.1304 21.0965 32.5081 20.7188 32.9741 20.7188Z" fill="#152633"/>
<path fill-rule="evenodd" clip-rule="evenodd" d="M20.8804 35.9062H52.9429V54.4688H20.8804V35.9062Z" fill="#73818C" stroke="#152633" stroke-width="1.5" stroke-linejoin="round"/>
<path fill-rule="evenodd" clip-rule="evenodd" d="M20.8804 59.5312H52.9429V78.0938H20.8804V59.5312Z" fill="#EBEDEE" stroke="#152633" stroke-width="1.5" stroke-linejoin="round"/>
<path fill-rule="evenodd" clip-rule="evenodd" d="M32.9741 67.9688H40.8491C41.3151 67.9688 41.6929 68.3465 41.6929 68.8125C41.6929 69.2785 41.3151 69.6562 40.8491 69.6562H32.9741C32.5081 69.6562 32.1304 69.2785 32.1304 68.8125C32.1304 68.3465 32.5081 67.9688 32.9741 67.9688Z" fill="#152633"/>
<path fill-rule="evenodd" clip-rule="evenodd" d="M20.8804 83.1562H52.9429V101.719H20.8804V83.1562Z" fill="#EBEDEE" stroke="#152633" stroke-width="1.5" stroke-linejoin="round"/>
<path fill-rule="evenodd" clip-rule="evenodd" d="M32.9741 91.5938H40.8491C41.3151 91.5938 41.6929 91.9715 41.6929 92.4375C41.6929 92.9035 41.3151 93.2812 40.8491 93.2812H32.9741C32.5081 93.2812 32.1304 92.9035 32.1304 92.4375C32.1304 91.9715 32.5081 91.5938 32.9741 91.5938Z" fill="#152633"/>
<path fill-rule="evenodd" clip-rule="evenodd" d="M4.00537 42.6562L20.8804 35.9062V54.4688L4.00537 61.2188V42.6562Z" fill="#73818C" stroke="#152633" stroke-width="2" stroke-linejoin="round"/>
<path fill-rule="evenodd" clip-rule="evenodd" d="M36.0679 42.6562L52.9429 35.9062V54.4688L36.0679 61.2188V42.6562Z" fill="#C7CDD1" stroke="#152633" stroke-width="1.5" stroke-linejoin="round"/>
<path fill-rule="evenodd" clip-rule="evenodd" d="M4.00537 42.6562H36.0679V61.2188H4.00537V42.6562Z" fill="#EBEDEE" stroke="#152633" stroke-width="1.5" stroke-linejoin="round"/>
<path fill-rule="evenodd" clip-rule="evenodd" d="M16.0991 51.0938H23.9741C24.4401 51.0938 24.8179 51.4715 24.8179 51.9375C24.8179 52.4035 24.4401 52.7812 23.9741 52.7812H16.0991C15.6331 52.7812 15.2554 52.4035 15.2554 51.9375C15.2554 51.4715 15.6331 51.0938 16.0991 51.0938Z" fill="#152633"/>
<path fill-rule="evenodd" clip-rule="evenodd" d="M58.0054 7.2051L70.6616 2.15625V101.732L58.0054 106.781V7.2051Z" fill="#C7CDD1" stroke="#152633" stroke-width="1.5" stroke-linejoin="round"/>
<path fill-rule="evenodd" clip-rule="evenodd" d="M28.4741 2.57812L70.6616 2.15625L58.0054 7.21875H15.8179L28.4741 2.57812Z" fill="#EBEDEE" stroke="#152633" stroke-width="1.5" stroke-linecap="round" stroke-linejoin="round"/>
</svg>
