<svg width="24" height="24" viewBox="0 0 24 24" fill="none" xmlns="http://www.w3.org/2000/svg">
<path d="M10.95 15.8155L14.627 12.1385C14.7757 11.9898 14.9548 11.9138 15.1645 11.9105C15.374 11.9073 15.5563 11.9833 15.7115 12.1385C15.8667 12.2937 15.9443 12.4744 15.9443 12.6808C15.9443 12.8871 15.8667 13.0678 15.7115 13.223L11.5828 17.352C11.4019 17.5327 11.191 17.623 10.95 17.623C10.709 17.623 10.4981 17.5327 10.3173 17.352L8.2885 15.323C8.13983 15.1743 8.06383 14.9952 8.0605 14.7855C8.05733 14.576 8.13333 14.3937 8.2885 14.2385C8.44367 14.0833 8.62442 14.0058 8.83075 14.0058C9.03708 14.0058 9.21783 14.0833 9.373 14.2385L10.95 15.8155ZM5.30775 21.5C4.80258 21.5 4.375 21.325 4.025 20.975C3.675 20.625 3.5 20.1974 3.5 19.6923V6.30777C3.5 5.8026 3.675 5.37502 4.025 5.02502C4.375 4.67502 4.80258 4.50002 5.30775 4.50002H6.69225V3.15377C6.69225 2.9346 6.76567 2.7516 6.9125 2.60477C7.05933 2.4581 7.24233 2.38477 7.4615 2.38477C7.68083 2.38477 7.86383 2.4581 8.0105 2.60477C8.15733 2.7516 8.23075 2.9346 8.23075 3.15377V4.50002H15.8077V3.13477C15.8077 2.92193 15.8795 2.74368 16.023 2.60002C16.1667 2.45652 16.3449 2.38477 16.5577 2.38477C16.7706 2.38477 16.9488 2.45652 17.0922 2.60002C17.2359 2.74368 17.3077 2.92193 17.3077 3.13477V4.50002H18.6923C19.1974 4.50002 19.625 4.67502 19.975 5.02502C20.325 5.37502 20.5 5.8026 20.5 6.30777V19.6923C20.5 20.1974 20.325 20.625 19.975 20.975C19.625 21.325 19.1974 21.5 18.6923 21.5H5.30775ZM5.30775 20H18.6923C18.7692 20 18.8398 19.9679 18.9038 19.9038C18.9679 19.8398 19 19.7693 19 19.6923V10.3078H5V19.6923C5 19.7693 5.03208 19.8398 5.09625 19.9038C5.16025 19.9679 5.23075 20 5.30775 20ZM5 8.80777H19V6.30777C19 6.23077 18.9679 6.16026 18.9038 6.09626C18.8398 6.0321 18.7692 6.00002 18.6923 6.00002H5.30775C5.23075 6.00002 5.16025 6.0321 5.09625 6.09626C5.03208 6.16026 5 6.23077 5 6.30777V8.80777Z" fill="#273540"/>
</svg>
