<svg width="24" height="24" viewBox="0 0 24 24" fill="none" xmlns="http://www.w3.org/2000/svg">
<path d="M5.75 12.0385C5.75 12.9962 5.94675 13.8783 6.34025 14.6848C6.73392 15.4911 7.35767 16.2719 8.2115 17.027V15.0385C8.2115 14.8257 8.28333 14.6474 8.427 14.5038C8.5705 14.3603 8.74867 14.2885 8.9615 14.2885C9.17433 14.2885 9.35258 14.3603 9.49625 14.5038C9.63975 14.6474 9.7115 14.8257 9.7115 15.0385V18.7693C9.7115 19.0269 9.62525 19.242 9.45275 19.4145C9.28042 19.5869 9.06542 19.673 8.80775 19.673H5.077C4.86417 19.673 4.68592 19.6013 4.54225 19.4578C4.39875 19.3141 4.327 19.1359 4.327 18.923C4.327 18.7102 4.39875 18.532 4.54225 18.3885C4.68592 18.2449 4.86417 18.173 5.077 18.173H7.23475C6.21158 17.2859 5.45833 16.332 4.975 15.3115C4.49167 14.291 4.25 13.2 4.25 12.0385C4.25 10.5129 4.64808 9.13111 5.44425 7.89328C6.24042 6.65544 7.27442 5.71286 8.54625 5.06553C8.72825 4.96419 8.917 4.95519 9.1125 5.03853C9.308 5.12186 9.43783 5.26478 9.502 5.46728C9.566 5.66994 9.55508 5.86578 9.46925 6.05478C9.38325 6.24394 9.2525 6.38911 9.077 6.49028C8.0795 7.01978 7.27558 7.77753 6.66525 8.76353C6.05508 9.74936 5.75 10.841 5.75 12.0385ZM15 19.75C14.2437 19.75 13.5963 19.4808 13.0577 18.9423C12.5192 18.4038 12.25 17.7564 12.25 17C12.25 16.2642 12.501 15.6328 13.003 15.1058C13.5048 14.5789 14.1429 14.2989 14.9173 14.2655C15.1814 13.6719 15.583 13.1875 16.122 12.8125C16.6612 12.4375 17.2872 12.25 18 12.25C18.8513 12.25 19.5882 12.5295 20.2105 13.0885C20.833 13.6475 21.2013 14.368 21.3153 15.25H21.4693C22.0988 15.25 22.6363 15.466 23.0818 15.898C23.5273 16.3302 23.75 16.8559 23.75 17.475C23.75 18.1045 23.5323 18.641 23.097 19.0845C22.6618 19.5282 22.1295 19.75 21.5 19.75H15ZM15.7885 6.98278V8.96153C15.7885 9.17436 15.7167 9.35261 15.573 9.49628C15.4295 9.63978 15.2513 9.71153 15.0385 9.71153C14.8257 9.71153 14.6474 9.63978 14.5038 9.49628C14.3603 9.35261 14.2885 9.17436 14.2885 8.96153V5.23078C14.2885 4.97311 14.3748 4.75803 14.5473 4.58553C14.7196 4.41319 14.9346 4.32703 15.1923 4.32703H18.923C19.1358 4.32703 19.3141 4.39878 19.4578 4.54228C19.6012 4.68594 19.673 4.86419 19.673 5.07703C19.673 5.28986 19.6012 5.46803 19.4578 5.61153C19.3141 5.75519 19.1358 5.82703 18.923 5.82703H16.7653C17.5076 6.47703 18.0893 7.13378 18.5105 7.79728C18.9317 8.46061 19.2442 9.15253 19.448 9.87303C19.5122 10.0692 19.4868 10.25 19.372 10.4155C19.2573 10.5809 19.0968 10.6853 18.8905 10.7288C18.684 10.7724 18.4971 10.7344 18.3298 10.6145C18.1624 10.4945 18.0416 10.3365 17.9672 10.1405C17.7943 9.57386 17.5404 9.04369 17.2057 8.55003C16.8711 8.05636 16.3987 7.53394 15.7885 6.98278ZM15 18.25H21.5C21.7038 18.25 21.8798 18.176 22.028 18.028C22.176 17.8799 22.25 17.7039 22.25 17.5C22.25 17.2962 22.176 17.1202 22.028 16.972C21.8798 16.824 21.7038 16.75 21.5 16.75H20V15.75C20 15.1962 19.8052 14.7244 19.4155 14.3345C19.0257 13.9449 18.5538 13.75 18 13.75C17.4462 13.75 16.9792 13.9304 16.599 14.2913C16.2188 14.6523 16.0223 15.0873 16.0095 15.5963V15.75H15C14.6525 15.75 14.3573 15.8715 14.1145 16.1145C13.8715 16.3574 13.75 16.6525 13.75 17C13.75 17.3475 13.8715 17.6427 14.1145 17.8855C14.3573 18.1285 14.6525 18.25 15 18.25Z" fill="#273540"/>
</svg>
