<svg width="20" height="20" viewBox="0 0 20 20" fill="none" xmlns="http://www.w3.org/2000/svg">
<path d="M1.63477 19.5C1.42193 19.5 1.24368 19.4282 1.10002 19.2845C0.956516 19.141 0.884766 18.9628 0.884766 18.75V1.25C0.884766 1.03717 0.956516 0.859 1.10002 0.7155C1.24368 0.571833 1.42193 0.5 1.63477 0.5C1.8476 0.5 2.02577 0.571833 2.16927 0.7155C2.31293 0.859 2.38477 1.03717 2.38477 1.25V18.75C2.38477 18.9628 2.31293 19.141 2.16927 19.2845C2.02577 19.4282 1.8476 19.5 1.63477 19.5ZM5.93277 14.6538C5.5866 14.6538 5.2901 14.5304 5.04327 14.2837C4.7966 14.0369 4.67327 13.7404 4.67327 13.3943C4.67327 13.0481 4.7966 12.7516 5.04327 12.5048C5.2901 12.2581 5.5866 12.1348 5.93277 12.1348H11.8558C12.2019 12.1348 12.4984 12.2581 12.7453 12.5048C12.9919 12.7516 13.1153 13.0481 13.1153 13.3943C13.1153 13.7404 12.9919 14.0369 12.7453 14.2837C12.4984 14.5304 12.2019 14.6538 11.8558 14.6538H5.93277ZM5.93277 7.86525C5.5866 7.86525 5.2901 7.74192 5.04327 7.49525C4.7966 7.24842 4.67327 6.95192 4.67327 6.60575C4.67327 6.25958 4.7966 5.96308 5.04327 5.71625C5.2901 5.46958 5.5866 5.34625 5.93277 5.34625H17.8558C18.2019 5.34625 18.4984 5.46958 18.7453 5.71625C18.9919 5.96308 19.1153 6.25958 19.1153 6.60575C19.1153 6.95192 18.9919 7.24842 18.7453 7.49525C18.4984 7.74192 18.2019 7.86525 17.8558 7.86525H5.93277Z" fill="#273540"/>
</svg>
