<svg width="24" height="24" viewBox="0 0 24 24" fill="none" xmlns="http://www.w3.org/2000/svg">
<path d="M9.58075 14.7578H14.4193L15.3328 17.3173C15.3866 17.4621 15.4744 17.5768 15.5962 17.6615C15.7179 17.7462 15.8563 17.7885 16.0115 17.7885C16.268 17.7885 16.4715 17.6847 16.622 17.477C16.7727 17.2693 16.8006 17.0405 16.7057 16.7905L12.9152 6.5385C12.8576 6.4065 12.7695 6.29975 12.651 6.21825C12.5323 6.13692 12.4018 6.09625 12.2595 6.09625H11.7405C11.5982 6.09625 11.4677 6.13692 11.349 6.21825C11.2305 6.29975 11.1424 6.4065 11.0848 6.5385L7.29425 16.7905C7.19942 17.0302 7.22475 17.2564 7.37025 17.4693C7.51575 17.6821 7.71667 17.7885 7.973 17.7885C8.1385 17.7885 8.27958 17.7462 8.39625 17.6615C8.51292 17.5768 8.60325 17.457 8.66725 17.302L9.58075 14.7578ZM10.0463 13.4115L11.95 8.0385H12.05L13.9538 13.4115H10.0463ZM4.30775 21.5C3.80258 21.5 3.375 21.325 3.025 20.975C2.675 20.625 2.5 20.1974 2.5 19.6923V4.30775C2.5 3.80258 2.675 3.375 3.025 3.025C3.375 2.675 3.80258 2.5 4.30775 2.5H19.6923C20.1974 2.5 20.625 2.675 20.975 3.025C21.325 3.375 21.5 3.80258 21.5 4.30775V19.6923C21.5 20.1974 21.325 20.625 20.975 20.975C20.625 21.325 20.1974 21.5 19.6923 21.5H4.30775ZM4.30775 20H19.6923C19.7693 20 19.8398 19.9679 19.9038 19.9038C19.9679 19.8398 20 19.7693 20 19.6923V4.30775C20 4.23075 19.9679 4.16025 19.9038 4.09625C19.8398 4.03208 19.7693 4 19.6923 4H4.30775C4.23075 4 4.16025 4.03208 4.09625 4.09625C4.03208 4.16025 4 4.23075 4 4.30775V19.6923C4 19.7693 4.03208 19.8398 4.09625 19.9038C4.16025 19.9679 4.23075 20 4.30775 20Z" fill="#273540"/>
</svg>
