<svg width="20" height="20" viewBox="0 0 20 20" fill="none" xmlns="http://www.w3.org/2000/svg">
<path d="M10 12L8 10L10 8L12 10L10 12ZM7.875 6.298L5.779 4.20201L8.71925 1.26151C8.90009 1.08084 9.10267 0.946922 9.327 0.859755C9.55134 0.772588 9.77567 0.729004 10 0.729004C10.2243 0.729004 10.4487 0.772588 10.673 0.859755C10.8973 0.946922 11.0999 1.08084 11.2808 1.26151L14.221 4.20201L12.125 6.298L10 4.173L7.875 6.298ZM4.202 14.221L1.2615 11.2808C1.08084 11.0999 0.94692 10.8973 0.859754 10.673C0.772587 10.4487 0.729004 10.2243 0.729004 10C0.729004 9.77567 0.772587 9.55134 0.859754 9.327C0.94692 9.10267 1.08084 8.90009 1.2615 8.71925L4.202 5.779L6.298 7.875L4.173 10L6.298 12.125L4.202 14.221ZM15.798 14.221L13.702 12.125L15.827 10L13.702 7.875L15.798 5.779L18.7385 8.71925C18.9192 8.90009 19.0531 9.10267 19.1403 9.327C19.2274 9.55134 19.271 9.77567 19.271 10C19.271 10.2243 19.2274 10.4487 19.1403 10.673C19.0531 10.8973 18.9192 11.0999 18.7385 11.2808L15.798 14.221ZM8.71925 18.7385L5.779 15.798L7.875 13.702L10 15.827L12.125 13.702L14.221 15.798L11.2808 18.7385C11.0999 18.9192 10.8973 19.0531 10.673 19.1403C10.4487 19.2274 10.2243 19.271 10 19.271C9.77567 19.271 9.55134 19.2274 9.327 19.1403C9.10267 19.0531 8.90009 18.9192 8.71925 18.7385Z" fill="#273540"/>
</svg>
