<svg width="24" height="24" viewBox="0 0 24 24" fill="none" xmlns="http://www.w3.org/2000/svg">
<path d="M11.25 11.1L9.327 13.023C9.17817 13.1717 9.00158 13.2451 8.79725 13.2433C8.59275 13.2413 8.41292 13.1628 8.25775 13.0078C8.11292 12.8526 8.03792 12.6769 8.03275 12.4808C8.02758 12.2846 8.10258 12.1089 8.25775 11.9538L11.3672 8.84425C11.4609 8.75058 11.5597 8.68458 11.6635 8.64625C11.7673 8.60775 11.8795 8.5885 12 8.5885C12.1205 8.5885 12.2327 8.60775 12.3365 8.64625C12.4403 8.68458 12.5391 8.75058 12.6328 8.84425L15.7423 11.9538C15.8909 12.1026 15.9643 12.2767 15.9625 12.476C15.9605 12.6753 15.8871 12.8526 15.7423 13.0078C15.5871 13.1628 15.4089 13.2428 15.2078 13.248C15.0064 13.2532 14.8282 13.1782 14.673 13.023L12.75 11.1V18.75C12.75 18.9628 12.6782 19.141 12.5345 19.2845C12.391 19.4282 12.2128 19.5 12 19.5C11.7872 19.5 11.609 19.4282 11.4655 19.2845C11.3218 19.141 11.25 18.9628 11.25 18.75V11.1ZM4.5 8.26925V6.30775C4.5 5.80258 4.675 5.375 5.025 5.025C5.375 4.675 5.80258 4.5 6.30775 4.5H17.6923C18.1974 4.5 18.625 4.675 18.975 5.025C19.325 5.375 19.5 5.80258 19.5 6.30775V8.26925C19.5 8.48208 19.4282 8.66025 19.2845 8.80375C19.141 8.94742 18.9628 9.01925 18.75 9.01925C18.5372 9.01925 18.359 8.94742 18.2155 8.80375C18.0718 8.66025 18 8.48208 18 8.26925V6.30775C18 6.23075 17.9679 6.16025 17.9038 6.09625C17.8398 6.03208 17.7692 6 17.6923 6H6.30775C6.23075 6 6.16025 6.03208 6.09625 6.09625C6.03208 6.16025 6 6.23075 6 6.30775V8.26925C6 8.48208 5.92817 8.66025 5.7845 8.80375C5.641 8.94742 5.46283 9.01925 5.25 9.01925C5.03717 9.01925 4.859 8.94742 4.7155 8.80375C4.57183 8.66025 4.5 8.48208 4.5 8.26925Z" fill="#273540"/>
</svg>
