<svg width="24" height="24" viewBox="0 0 24 24" fill="none" xmlns="http://www.w3.org/2000/svg">
<path d="M9.05775 17.5C8.55258 17.5 8.125 17.325 7.775 16.975C7.425 16.625 7.25 16.1974 7.25 15.6923V4.30775C7.25 3.80258 7.425 3.375 7.775 3.025C8.125 2.675 8.55258 2.5 9.05775 2.5H17.4423C17.9474 2.5 18.375 2.675 18.725 3.025C19.075 3.375 19.25 3.80258 19.25 4.30775V15.6923C19.25 16.1974 19.075 16.625 18.725 16.975C18.375 17.325 17.9474 17.5 17.4423 17.5H9.05775ZM9.05775 16H17.4423C17.5192 16 17.5898 15.9679 17.6538 15.9038C17.7179 15.8398 17.75 15.7692 17.75 15.6923V4.30775C17.75 4.23075 17.7179 4.16025 17.6538 4.09625C17.5898 4.03208 17.5192 4 17.4423 4H9.05775C8.98075 4 8.91025 4.03208 8.84625 4.09625C8.78208 4.16025 8.75 4.23075 8.75 4.30775V15.6923C8.75 15.7692 8.78208 15.8398 8.84625 15.9038C8.91025 15.9679 8.98075 16 9.05775 16ZM5.55775 21C5.05258 21 4.625 20.825 4.275 20.475C3.925 20.125 3.75 19.6974 3.75 19.1923V7.05775C3.75 6.84492 3.82183 6.66667 3.9655 6.523C4.109 6.3795 4.28717 6.30775 4.5 6.30775C4.71283 6.30775 4.89108 6.3795 5.03475 6.523C5.17825 6.66667 5.25 6.84492 5.25 7.05775V19.1923C5.25 19.2693 5.28208 19.3398 5.34625 19.4038C5.41025 19.4679 5.48075 19.5 5.55775 19.5H14.6923C14.9051 19.5 15.0833 19.5718 15.227 19.7153C15.3705 19.8589 15.4423 20.0372 15.4423 20.25C15.4423 20.4628 15.3705 20.641 15.227 20.7845C15.0833 20.9282 14.9051 21 14.6923 21H5.55775Z" fill="#273540"/>
</svg>
