<svg width="19" height="19" viewBox="0 0 19 19" fill="none" xmlns="http://www.w3.org/2000/svg">
<g id="offline">
<g id="Icon">
<path d="M15.7919 3.62451L4.12469 15.2918L4.70805 15.8751L16.3753 4.20787L15.7919 3.62451Z" fill="#2D3B45"/>
<path d="M5.08824 12.5734H5.14619L4.3524 13.3672C3.00357 13.0363 2 11.817 2 10.3675C2 8.66461 3.38529 7.27931 5.08824 7.27931C5.25147 7.27931 5.41118 7.30049 5.56912 7.32608C5.77029 5.32402 7.44588 3.7499 9.5 3.7499C10.7234 3.7499 11.8113 4.30926 12.5357 5.18397L11.9181 5.80152C11.3519 5.0895 10.4784 4.63226 9.5 4.63226C7.84029 4.63226 6.49118 5.95226 6.42412 7.5952C6.72324 7.7399 7.00559 7.92255 7.24912 8.16079L6.63235 8.79167C6.21676 8.3849 5.66882 8.16167 5.08824 8.16167C3.87235 8.16167 2.88235 9.15167 2.88235 10.3675C2.88235 11.5834 3.87235 12.5734 5.08824 12.5734Z" fill="#2D3B45"/>
<path d="M13.5125 13.4555L8.82476 13.4557L9.70703 12.5734H13.4706C14.93 12.5734 16.1176 11.3858 16.1176 9.92637C16.1176 8.90986 15.5415 8.02519 14.6986 7.58186L15.3441 6.93639C16.3379 7.56138 17 8.66789 17 9.92637C17 11.8588 15.4389 13.433 13.5125 13.4555Z" fill="#2D3B45"/>
</g>
</g>
</svg>
