<svg width="132" height="144" viewBox="0 0 132 144" fill="none" xmlns="http://www.w3.org/2000/svg">
<path d="M50 133.197C77.6142 133.197 100 128.608 100 122.947C100 117.286 77.6142 112.697 50 112.697C22.3858 112.697 0 117.286 0 122.947C0 128.608 22.3858 133.197 50 133.197Z" fill="black" fill-opacity="0.05"/>
<path fill-rule="evenodd" clip-rule="evenodd" d="M30.423 76.2354C30.0363 80.855 28.6524 91.1599 23.7829 98.5993C17.3258 108.465 7.70979 100.913 7.07124 94.8011C6.47511 89.1001 13.9815 82.3543 27.5424 75.3452C28.4857 75.6611 29.4474 75.957 30.423 76.2354Z" fill="#2D3B45" stroke="#152633" stroke-width="2"/>
<path fill-rule="evenodd" clip-rule="evenodd" d="M71.0001 86.697C76.0001 83.3637 84.3334 81.8637 96.0001 82.197L89.0001 70.697C78.6668 71.6586 70.5001 74.806 64.5001 80.1393C55.5001 88.1393 63.5001 91.697 71.0001 86.697Z" fill="#2D3B45" stroke="#152633" stroke-width="2"/>
<path fill-rule="evenodd" clip-rule="evenodd" d="M69.9319 75.697C63.6098 77.8023 56.3946 78.9467 48.7321 78.9467C41.9021 78.9467 35.5841 78.1409 30.0066 76.561C27.7669 81.5761 25.23 88.0021 24.6744 92.4467C23.0402 103.884 32.9821 113.908 50.6359 113.908C68.2898 113.908 77.5124 103.524 75.4974 92.7929C74.1086 85.4001 71.8701 79.8149 69.9319 75.697Z" fill="white"/>
<path fill-rule="evenodd" clip-rule="evenodd" d="M69.9319 75.697C63.6098 77.8023 56.3946 78.9467 48.7321 78.9467C41.9021 78.9467 35.5841 78.1409 30.0066 76.561C27.7669 81.5761 25.23 88.0021 24.6744 92.4467C23.0402 103.884 32.9821 113.908 50.6359 113.908C68.2898 113.908 77.5124 103.524 75.4974 92.7929C74.1086 85.4001 71.8701 79.8149 69.9319 75.697Z" stroke="#152633" stroke-width="2"/>
<path fill-rule="evenodd" clip-rule="evenodd" d="M75.5202 93.697C76.8695 103.127 69.5604 112.118 55.5 113.827L55.7967 115.16C56.8351 120.698 58.912 122.775 62.3736 123.813C69.989 126.583 86.6043 125.544 84.8736 118.967C83.0274 109.506 79.9096 101.082 75.5202 93.697Z" fill="#2D3B45" stroke="#152633" stroke-width="2"/>
<path fill-rule="evenodd" clip-rule="evenodd" d="M24.5225 93.697L24.4716 93.6977C24.1255 96.4669 17.8947 104.775 15.1255 118.967C13.3947 125.544 30.0101 126.582 37.6255 123.813C41.087 122.775 43.164 120.698 44.2024 115.159L44.4845 114.006L44.4991 113.687C31.1746 111.725 23.7302 103.314 24.5225 93.697Z" fill="#2D3B45" stroke="#152633" stroke-width="2"/>
<path fill-rule="evenodd" clip-rule="evenodd" d="M63 85.197C64 95.5304 63.5 103.864 61.5 110.197C71.1667 112.197 80.8333 113.197 90.5 113.197L94.5 85.197H63Z" fill="#436DB9" stroke="#152633" stroke-width="2" stroke-linejoin="round"/>
<path fill-rule="evenodd" clip-rule="evenodd" d="M108.955 92.8804L130.167 118.16C120.308 130.784 106.493 134.544 88.7213 129.44L80.3121 103.861C91.0104 104.892 100.558 101.232 108.955 92.8804Z" fill="white" stroke="#C7CDD1" stroke-width="2"/>
<path fill-rule="evenodd" clip-rule="evenodd" d="M99.3604 86.3289L130.745 96.5265C129.074 112.456 119.351 122.966 101.575 128.055L80.8884 110.819C90.5075 106.025 96.6648 97.8612 99.3604 86.3289Z" fill="white" stroke="#C7CDD1" stroke-width="2"/>
<path fill-rule="evenodd" clip-rule="evenodd" d="M111.5 79.697C94.1667 78.0304 78.6667 79.0304 65 82.697C70.3333 92.697 73 103.03 73 113.697C86.3333 118.364 101.167 118.364 117.5 113.697C118.5 103.364 116.5 92.0304 111.5 79.697Z" fill="#5DB9F2" stroke="#152633" stroke-width="2" stroke-linejoin="round"/>
<path fill-rule="evenodd" clip-rule="evenodd" d="M70.5 76.1971C75.8333 70.5304 83 68.0304 92 68.6971C105.5 69.6971 105.5 88.1971 93.5 88.6971C81.5 89.1971 84 81.5304 84 78.1971" fill="#2D3B45"/>
<path d="M70.5 76.1971C75.8333 70.5304 83 68.0304 92 68.6971C105.5 69.6971 105.5 88.1971 93.5 88.6971C81.5 89.1971 84 81.5304 84 78.1971" stroke="#152633" stroke-width="2"/>
<path fill-rule="evenodd" clip-rule="evenodd" d="M7 47.9663C7 68.0432 25.1478 78.7739 50.0962 78.7739C75.0445 78.7739 95.2692 66.6586 95.2692 48.6586C95.2692 26.2911 75.0445 4.69702 50.0962 4.69702C25.1478 4.69702 7 26.8509 7 47.9663Z" fill="white"/>
<path fill-rule="evenodd" clip-rule="evenodd" d="M6.52246 48.0307C6.52246 68.1076 24.6703 78.8384 49.6186 78.8384C74.567 78.8384 94.7917 66.723 94.7917 48.723C94.7917 26.3556 74.567 4.76147 49.6186 4.76147C24.6703 4.76147 6.52246 26.9153 6.52246 48.0307Z" stroke="#152633" stroke-width="2"/>
<path fill-rule="evenodd" clip-rule="evenodd" d="M57 59.697C57 61.354 54.09 62.697 50.5 62.697C46.91 62.697 44 61.354 44 59.697C44 58.0401 46.91 56.697 50.5 56.697C54.09 56.697 57 58.0401 57 59.697Z" fill="#152633"/>
<path d="M50.5 72.697C51.8807 72.697 53 71.3539 53 69.697C53 68.0402 51.8807 66.697 50.5 66.697C49.1193 66.697 48 68.0402 48 69.697C48 71.3539 49.1193 72.697 50.5 72.697Z" fill="#152633"/>
<path fill-rule="evenodd" clip-rule="evenodd" d="M71.5769 19.697C64.0107 19.697 57 31.7007 57 43.6201C57 54.267 66.3146 64.0816 75.0385 64.0816C82.9935 64.0816 89.6154 54.9582 89.6154 43.6201C89.6154 38.3785 87.3629 32.2945 83.5887 27.391C79.8648 22.5527 75.3417 19.697 71.5769 19.697Z" fill="#2D3B45" stroke="#152633" stroke-width="2"/>
<path fill-rule="evenodd" clip-rule="evenodd" d="M25.5769 64.0816C34.3008 64.0816 43.6154 54.267 43.6154 43.6201C43.6154 31.7004 36.6047 19.697 29.0385 19.697C25.2735 19.697 20.7505 22.5526 17.0266 27.3911C13.2522 32.2943 11 38.3779 11 43.6201C11 54.9582 17.6219 64.0816 25.5769 64.0816Z" fill="#2D3B45" stroke="#152633" stroke-width="2"/>
<path fill-rule="evenodd" clip-rule="evenodd" d="M86.6801 24.4217C87.9391 23.8993 89.2877 23.1492 90.638 22.0692C95.8304 17.9154 94.7919 10.9923 94.4457 9.26152C94.0996 7.53075 92.0227 -0.776941 85.4457 3.03075C81.1981 5.48983 76.8089 9.67898 74.2307 12.3399C79.116 15.5937 83.347 19.7302 86.6801 24.4217Z" fill="#2D3B45" stroke="#152633" stroke-width="2"/>
<path fill-rule="evenodd" clip-rule="evenodd" d="M13.4327 24.4217C12.1741 23.8993 10.8252 23.1492 9.47482 22.0692C4.28252 17.9154 5.32098 10.9923 5.66714 9.26152C6.01329 7.53075 8.09021 -0.776941 14.6671 3.03075C18.9148 5.48983 23.304 9.67898 25.8822 12.3399C20.9972 15.5937 16.7662 19.7302 13.4327 24.4217Z" fill="#2D3B45" stroke="#152633" stroke-width="2"/>
<path fill-rule="evenodd" clip-rule="evenodd" d="M69.133 47.4467C69.133 50.0699 67.76 52.1965 66.0665 52.1965C64.373 52.1965 63 50.0699 63 47.4467C63 44.8236 64.373 42.697 66.0665 42.697C67.76 42.697 69.133 44.8236 69.133 47.4467Z" fill="white"/>
<path fill-rule="evenodd" clip-rule="evenodd" d="M37.133 47.4467C37.133 50.0699 35.76 52.1965 34.0665 52.1965C32.373 52.1965 31 50.0699 31 47.4467C31 44.8236 32.373 42.697 34.0665 42.697C35.76 42.697 37.133 44.8236 37.133 47.4467Z" fill="white"/>
<path fill-rule="evenodd" clip-rule="evenodd" d="M63 85.197L65 82.697L66.5 86.197L63.5 88.197L63 85.197Z" fill="#152633" stroke="#152633" stroke-width="2" stroke-linejoin="round"/>
</svg>
