<svg width="24" height="24" viewBox="0 0 24 24" fill="none" xmlns="http://www.w3.org/2000/svg">
<path d="M8.29039 15.1865L11.3134 7.33076C11.3482 7.22626 11.4121 7.14501 11.5051 7.08701C11.5983 7.02901 11.6972 7.00001 11.8019 7.00001H12.1949C12.3021 7.00001 12.4021 7.02901 12.4949 7.08701C12.5877 7.14501 12.6516 7.22626 12.6864 7.33076L15.7286 15.223C15.7991 15.418 15.7793 15.5963 15.6691 15.7578C15.5588 15.9193 15.4003 16 15.1936 16C15.0696 16 14.9554 15.9654 14.8509 15.8963C14.7464 15.8269 14.6723 15.7301 14.6286 15.6058L13.8594 13.5463H10.1711L9.40189 15.6213C9.35822 15.7391 9.28572 15.8317 9.18439 15.899C9.08322 15.9663 8.97206 16 8.85089 16C8.63556 16 8.47064 15.9141 8.35614 15.7423C8.24181 15.5706 8.21989 15.3853 8.29039 15.1865ZM10.5441 12.4963H13.4556L12.0404 8.61151H11.9404L10.5441 12.4963ZM1.69214 21.4038V18.0963C1.69214 17.8401 1.77881 17.6254 1.95214 17.4523C2.12531 17.2789 2.33997 17.1923 2.59614 17.1923H3.49989V6.80776H2.59439C2.33789 6.80776 2.12339 6.72109 1.95089 6.54776C1.77839 6.37459 1.69214 6.15993 1.69214 5.90376V2.59626C1.69214 2.34009 1.77881 2.12543 1.95214 1.95226C2.12531 1.77893 2.33997 1.69226 2.59614 1.69226H5.90364C6.15981 1.69226 6.37447 1.77893 6.54764 1.95226C6.72097 2.12543 6.80764 2.34009 6.80764 2.59626V3.50001H17.1921V2.59451C17.1921 2.33801 17.2788 2.12351 17.4521 1.95101C17.6253 1.77851 17.84 1.69226 18.0961 1.69226H21.4036C21.6598 1.69226 21.8745 1.77893 22.0476 1.95226C22.221 2.12543 22.3076 2.34009 22.3076 2.59626V5.90376C22.3076 6.15993 22.221 6.37459 22.0476 6.54776C21.8745 6.72109 21.6598 6.80776 21.4036 6.80776H20.4999V17.1923H21.4054C21.6619 17.1923 21.8764 17.2789 22.0489 17.4523C22.2214 17.6254 22.3076 17.8401 22.3076 18.0963V21.4038C22.3076 21.6599 22.221 21.8746 22.0476 22.0478C21.8745 22.2211 21.6598 22.3078 21.4036 22.3078H18.0961C17.84 22.3078 17.6253 22.2211 17.4521 22.0478C17.2788 21.8746 17.1921 21.6599 17.1921 21.4038V20.5H6.80764V21.4055C6.80764 21.662 6.72097 21.8765 6.54764 22.049C6.37447 22.2215 6.15981 22.3078 5.90364 22.3078H2.59614C2.33997 22.3078 2.12531 22.2211 1.95214 22.0478C1.77881 21.8746 1.69214 21.6599 1.69214 21.4038ZM6.80764 19H17.1921V18.0945C17.1921 17.838 17.2788 17.6235 17.4521 17.451C17.6253 17.2785 17.84 17.1923 18.0961 17.1923H18.9999V6.80776H18.0944C17.8379 6.80776 17.6234 6.72109 17.4509 6.54776C17.2784 6.37459 17.1921 6.15993 17.1921 5.90376V5.00001H6.80764V5.90551C6.80764 6.16201 6.72097 6.37651 6.54764 6.54901C6.37447 6.72151 6.15981 6.80776 5.90364 6.80776H4.99989V17.1923H5.90539C6.16189 17.1923 6.37639 17.2789 6.54889 17.4523C6.72139 17.6254 6.80764 17.8401 6.80764 18.0963V19ZM3.19214 5.30776H5.30764V3.19226H3.19214V5.30776ZM18.6921 5.30776H20.8076V3.19226H18.6921V5.30776ZM18.6921 20.8078H20.8076V18.6923H18.6921V20.8078ZM3.19214 20.8078H5.30764V18.6923H3.19214V20.8078Z" fill="#273540"/>
</svg>
