<svg width="24" height="24" viewBox="0 0 24 24" fill="none" xmlns="http://www.w3.org/2000/svg">
<path d="M6.30775 22.5C5.80258 22.5 5.375 22.325 5.025 21.975C4.675 21.625 4.5 21.1974 4.5 20.6923V10.3078C4.5 9.8026 4.675 9.37501 5.025 9.02501C5.375 8.67501 5.80258 8.50001 6.30775 8.50001H8.1155C8.32817 8.50001 8.50633 8.57185 8.65 8.71551C8.7935 8.85901 8.86525 9.03718 8.86525 9.25001C8.86525 9.46285 8.7935 9.64101 8.65 9.78451C8.50633 9.92818 8.32817 10 8.1155 10H6.30775C6.23075 10 6.16025 10.0321 6.09625 10.0963C6.03208 10.1603 6 10.2308 6 10.3078V20.6923C6 20.7693 6.03208 20.8398 6.09625 20.9038C6.16025 20.9679 6.23075 21 6.30775 21H17.6923C17.7692 21 17.8398 20.9679 17.9038 20.9038C17.9679 20.8398 18 20.7693 18 20.6923V10.3078C18 10.2308 17.9679 10.1603 17.9038 10.0963C17.8398 10.0321 17.7692 10 17.6923 10H15.8845C15.6718 10 15.4937 9.92818 15.35 9.78451C15.2065 9.64101 15.1348 9.46285 15.1348 9.25001C15.1348 9.03718 15.2065 8.85901 15.35 8.71551C15.4937 8.57185 15.6718 8.50001 15.8845 8.50001H17.6923C18.1974 8.50001 18.625 8.67501 18.975 9.02501C19.325 9.37501 19.5 9.8026 19.5 10.3078V20.6923C19.5 21.1974 19.325 21.625 18.975 21.975C18.625 22.325 18.1974 22.5 17.6923 22.5H6.30775ZM11.25 4.71926L9.927 6.04226C9.77817 6.1911 9.60408 6.26451 9.40475 6.26251C9.20542 6.26068 9.02817 6.18218 8.873 6.02701C8.72817 5.87185 8.65317 5.69618 8.648 5.50001C8.643 5.30385 8.718 5.12826 8.873 4.97326L11.3672 2.47901C11.5481 2.29818 11.759 2.20776 12 2.20776C12.241 2.20776 12.4519 2.29818 12.6328 2.47901L15.127 4.97326C15.2653 5.1116 15.3362 5.28301 15.3395 5.48751C15.3427 5.69201 15.2718 5.87185 15.127 6.02701C14.9718 6.18218 14.7936 6.25976 14.5922 6.25976C14.3911 6.25976 14.2129 6.18218 14.0577 6.02701L12.75 4.71926V15C12.75 15.2128 12.6782 15.391 12.5345 15.5345C12.391 15.6782 12.2128 15.75 12 15.75C11.7872 15.75 11.609 15.6782 11.4655 15.5345C11.3218 15.391 11.25 15.2128 11.25 15V4.71926Z" fill="#273540"/>
</svg>
