<svg width="24" height="24" viewBox="0 0 24 24" fill="none" xmlns="http://www.w3.org/2000/svg">
<path d="M12.0017 21.5C10.6877 21.5 9.45267 21.2507 8.2965 20.752C7.14033 20.2533 6.13467 19.5766 5.2795 18.7218C4.42433 17.8669 3.74725 16.8617 3.24825 15.706C2.74942 14.5503 2.5 13.3156 2.5 12.0017C2.5 10.6877 2.74942 9.45267 3.24825 8.2965C3.74692 7.14033 4.42375 6.13467 5.27875 5.2795C6.13375 4.42433 7.13917 3.74725 8.295 3.24825C9.45083 2.74942 10.6858 2.5 12 2.5C12.832 2.5 13.6384 2.60608 14.4193 2.81825C15.2001 3.03042 15.9469 3.33717 16.6598 3.7385C16.8519 3.84617 16.9775 4.00133 17.0365 4.204C17.0955 4.4065 17.0609 4.59558 16.9327 4.77125C16.8046 4.94692 16.635 5.05683 16.424 5.101C16.2132 5.14517 16.0097 5.11342 15.8135 5.00575C15.2288 4.67892 14.6137 4.42958 13.9682 4.25775C13.3228 4.08592 12.6667 4 12 4C9.78333 4 7.89583 4.77917 6.3375 6.3375C4.77917 7.89583 4 9.78333 4 12C4 14.2167 4.77917 16.1042 6.3375 17.6625C7.89583 19.2208 9.78333 20 12 20C14.2167 20 16.1042 19.2208 17.6625 17.6625C19.2208 16.1042 20 14.2167 20 12C20 11.8065 19.9927 11.619 19.978 11.4375C19.9632 11.256 19.9378 11.0698 19.902 10.8788C19.8687 10.6659 19.9052 10.4624 20.0115 10.2682C20.118 10.0741 20.2782 9.94817 20.492 9.8905C20.6935 9.83267 20.8804 9.85767 21.0527 9.9655C21.2253 10.0732 21.3282 10.2282 21.3615 10.4307C21.4077 10.6832 21.4422 10.9388 21.4653 11.1973C21.4884 11.4556 21.5 11.7232 21.5 12C21.5 13.3142 21.2507 14.5492 20.752 15.705C20.2533 16.8608 19.5766 17.8663 18.7218 18.7213C17.8669 19.5763 16.8617 20.2531 15.706 20.7518C14.5503 21.2506 13.3156 21.5 12.0017 21.5ZM10.5808 14.1463L19.9193 4.79225C20.0578 4.65392 20.2292 4.58058 20.4338 4.57225C20.6381 4.56392 20.8186 4.638 20.9753 4.7945C21.1186 4.938 21.1903 5.11292 21.1903 5.31925C21.1903 5.52558 21.1178 5.70125 20.973 5.84625L11.2135 15.6212C11.0327 15.8019 10.8218 15.8923 10.5808 15.8923C10.3398 15.8923 10.1288 15.8019 9.948 15.6212L7.20375 12.877C7.06542 12.7385 6.99458 12.5644 6.99125 12.3548C6.98808 12.1453 7.05892 11.968 7.20375 11.823C7.34875 11.6782 7.52442 11.6058 7.73075 11.6058C7.93708 11.6058 8.11275 11.6782 8.25775 11.823L10.5808 14.1463Z" fill="#273540"/>
</svg>
