<svg width="24" height="24" viewBox="0 0 24 24" fill="none" xmlns="http://www.w3.org/2000/svg">
<path d="M12 21.5C10.6872 21.5 9.45292 21.2503 8.29725 20.751C7.14142 20.2517 6.13592 19.5744 5.28075 18.7193C4.42558 17.8641 3.74833 16.8586 3.249 15.7028C2.74967 14.5471 2.5 13.3128 2.5 12C2.5 10.6872 2.74967 9.45292 3.249 8.29725C3.74833 7.14142 4.42558 6.13592 5.28075 5.28075C6.13592 4.42558 7.14142 3.74833 8.29725 3.249C9.45292 2.74967 10.6872 2.5 12 2.5C13.3128 2.5 14.5471 2.74967 15.7028 3.249C16.8586 3.74833 17.8641 4.42558 18.7193 5.28075C19.5744 6.13592 20.2517 7.14142 20.751 8.29725C21.2503 9.45292 21.5 10.6872 21.5 12C21.5 13.3128 21.2503 14.5471 20.751 15.7028C20.2517 16.8586 19.5744 17.8641 18.7193 18.7193C17.8641 19.5744 16.8586 20.2517 15.7028 20.751C14.5471 21.2503 13.3128 21.5 12 21.5ZM12 20C14.2333 20 16.125 19.225 17.675 17.675C19.225 16.125 20 14.2333 20 12C20 9.76667 19.225 7.875 17.675 6.325C16.125 4.775 14.2333 4 12 4C9.76667 4 7.875 4.775 6.325 6.325C4.775 7.875 4 9.76667 4 12C4 14.2333 4.775 16.125 6.325 17.675C7.875 19.225 9.76667 20 12 20ZM11.0577 16.75H12.9423C13.4409 16.75 13.8669 16.5734 14.2203 16.2203C14.5734 15.8669 14.75 15.4409 14.75 14.9423V13.3652C14.75 12.9999 14.6314 12.6811 14.3943 12.4088C14.1571 12.1363 13.859 12 13.5 12C13.859 12 14.1571 11.8637 14.3943 11.5913C14.6314 11.3189 14.75 11.0001 14.75 10.6348V9.05775C14.75 8.55908 14.5734 8.13308 14.2203 7.77975C13.8669 7.42658 13.4409 7.25 12.9423 7.25H11.0577C10.5591 7.25 10.1331 7.42658 9.77975 7.77975C9.42658 8.13308 9.25 8.55908 9.25 9.05775V10.6348C9.25 11.0001 9.36858 11.3189 9.60575 11.5913C9.84292 11.8637 10.141 12 10.5 12C10.141 12 9.84292 12.1363 9.60575 12.4088C9.36858 12.6811 9.25 12.9999 9.25 13.3652V14.9423C9.25 15.4409 9.42658 15.8669 9.77975 16.2203C10.1331 16.5734 10.5591 16.75 11.0577 16.75ZM11.0577 8.75H12.9423C13.0321 8.75 13.1058 8.77883 13.1635 8.8365C13.2212 8.89417 13.25 8.96792 13.25 9.05775V10.9423C13.25 11.0321 13.2212 11.1058 13.1635 11.1635C13.1058 11.2212 13.0321 11.25 12.9423 11.25H11.0577C10.9679 11.25 10.8942 11.2212 10.8365 11.1635C10.7788 11.1058 10.75 11.0321 10.75 10.9423V9.05775C10.75 8.96792 10.7788 8.89417 10.8365 8.8365C10.8942 8.77883 10.9679 8.75 11.0577 8.75ZM11.0577 15.25C10.9679 15.25 10.8942 15.2212 10.8365 15.1635C10.7788 15.1058 10.75 15.0321 10.75 14.9423V13.0577C10.75 12.9679 10.7788 12.8942 10.8365 12.8365C10.8942 12.7788 10.9679 12.75 11.0577 12.75H12.9423C13.0321 12.75 13.1058 12.7788 13.1635 12.8365C13.2212 12.8942 13.25 12.9679 13.25 13.0577V14.9423C13.25 15.0321 13.2212 15.1058 13.1635 15.1635C13.1058 15.2212 13.0321 15.25 12.9423 15.25H11.0577Z" fill="#273540"/>
</svg>
