<svg xmlns="http://www.w3.org/2000/svg" viewBox="0 0 24 24"><g transform="matrix(0.010416666666666666 0 0 0.010416666666666666 2 2)"><path d="M211.733 1260.088c16.32 131.947 68.587 258.027 151.254 364.8l-168.64 130.667C88.213 1618.488 21.013 1456.14 0 1286.22Zm1654.155-391.584c18.88 57.813 32.32 117.76 39.787 178.24 4.8 40 7.146 79.147 7.146 119.787 0 40.533-2.346 79.68-7.146 119.466-21.014 170.134-88.214 332.48-194.347 469.547l-168.64-130.667c82.667-106.773 134.933-232.853 151.253-364.8 3.734-30.72 5.547-61.76 5.547-93.546 0-31.894-1.813-62.934-5.547-93.867-5.866-46.613-16.106-93.013-30.72-137.813Zm-135.125-421.707 150.826 150.827-875.413 875.413-519.893-519.893 150.826-150.827 369.067 369.067 724.587-724.587ZM194.347 577.411l168.64 130.666c-82.667 106.774-134.934 232.854-151.254 364.8L0 1046.744c21.013-169.92 88.213-332.267 194.347-469.333ZM833.14 213.709l26.134 211.734c-132.054 16.213-258.134 68.586-364.8 151.253L363.7 408.056c137.067-106.133 299.307-173.44 469.44-194.347Zm239.456-.01c170.027 21.013 332.374 88.213 469.334 194.346l-130.774 168.64c-106.56-82.666-232.746-135.04-364.693-151.253Z" fill-rule="evenodd"/></g>
</svg>