<svg width="106" height="135" viewBox="0 0 106 135" fill="none" xmlns="http://www.w3.org/2000/svg">
<path d="M53 133.716C81.7188 133.716 105 129.127 105 123.466C105 117.805 81.7188 113.216 53 113.216C24.2812 113.216 1 117.805 1 123.466C1 129.127 24.2812 133.716 53 133.716Z" fill="black" fill-opacity="0.05"/>
<path fill-rule="evenodd" clip-rule="evenodd" d="M75.802 79.4455L76.8747 79.1265C91.9271 74.5885 100.796 69.1405 101.322 63.1605C101.901 56.5985 93.3268 46.6855 84.5143 55.7455C77.8687 62.5775 74.3047 73.1375 72.9529 77.9195C73.9225 78.4125 74.874 78.9205 75.802 79.4455Z" fill="#2D3B45" stroke="#152633" stroke-width="2"/>
<path fill-rule="evenodd" clip-rule="evenodd" d="M31.9619 71.5385C32.6721 76.4575 33.7115 87.5545 30.4193 96.4985C26.0538 108.359 14.1892 102.791 12.0484 96.5615C10.051 90.7505 16.2646 81.8945 28.7386 71.3035C29.8 71.4065 30.8758 71.4835 31.9619 71.5385Z" fill="#2D3B45" stroke="#152633" stroke-width="2"/>
<path fill-rule="evenodd" clip-rule="evenodd" d="M73.2588 72.8035C66.4971 75.0555 58.7803 76.2795 50.5851 76.2795C43.2804 76.2795 36.5232 75.4175 30.5578 73.7275C28.1625 79.0915 25.4492 85.9645 24.855 90.7175C23.1072 102.95 33.7402 113.671 52.6213 113.671C71.5025 113.671 81.3662 102.564 79.2111 91.0885C77.7258 83.1815 75.3316 77.2075 73.2588 72.8035Z" fill="white" stroke="#152633" stroke-width="2"/>
<path fill-rule="evenodd" clip-rule="evenodd" d="M48.2104 97.9826C48.5117 97.1696 49.2938 96.5906 50.2112 96.5906C51.1286 96.5906 51.9108 97.1696 52.2121 97.9826C53.0296 97.7136 53.9639 97.9576 54.5377 98.6666C55.1186 99.3836 55.1577 100.364 54.7071 101.111C55.434 101.587 55.8243 102.481 55.6175 103.377C55.4116 104.269 54.674 104.9 53.8167 105.013C53.8974 105.872 53.4486 106.73 52.6274 107.13C51.7994 107.534 50.8381 107.353 50.2112 106.749C49.5844 107.353 48.623 107.534 47.7951 107.13C46.9739 106.73 46.5251 105.872 46.6058 105.013C45.7485 104.9 45.0109 104.269 44.8049 103.377C44.5981 102.481 44.9885 101.587 45.7153 101.111C45.2647 100.364 45.3039 99.3836 45.8848 98.6666C46.4586 97.9576 47.3928 97.7136 48.2104 97.9826Z" fill="#2D3B45" stroke="#152633" stroke-width="2"/>
<path fill-rule="evenodd" clip-rule="evenodd" d="M89.2391 119.083C86.2774 103.904 79.7343 94.8455 79.3641 91.8835C80.8072 101.969 72.8614 111.757 57.8235 113.585L58.1408 115.01C59.2515 120.934 61.4728 123.155 65.175 124.266C73.3198 127.227 91.0902 126.117 89.2391 119.083Z" fill="#2D3B45" stroke="#152633" stroke-width="2"/>
<path fill-rule="evenodd" clip-rule="evenodd" d="M24.6926 92.0554C24.268 95.0174 17.6041 103.902 14.6423 119.081C12.7912 126.115 30.5617 127.226 38.7065 124.264C42.4087 123.154 44.63 120.932 45.7406 115.009L46.0424 113.775L46.0579 113.435C31.8071 111.336 23.8452 102.34 24.6926 92.0554Z" fill="#2D3B45" stroke="#152633" stroke-width="2"/>
<path fill-rule="evenodd" clip-rule="evenodd" d="M13.4693 37.1456C12.1577 37.0866 10.6891 36.8526 9.1107 36.3196C3.04094 34.2696 2.751 28.9846 2.49406 27.3036C2.23712 25.6226 2.20201 16.5476 9.41128 17.8276C14.0673 18.6546 17.5483 20.5446 20.7593 22.1046C17.4089 26.6596 14.9414 31.7996 13.4693 37.1456Z" fill="#2D3B45" stroke="#152633" stroke-width="2"/>
<path fill-rule="evenodd" clip-rule="evenodd" d="M10.7886 45.4384C10.7886 65.4614 27.9991 76.1634 51.659 76.1634C75.3188 76.1634 94.499 64.0804 94.499 46.1284C94.499 23.8204 75.3188 2.28442 51.659 2.28442C27.9991 2.28442 10.7886 24.3794 10.7886 45.4384Z" fill="white" stroke="#152633" stroke-width="2"/>
<path fill-rule="evenodd" clip-rule="evenodd" d="M83.2565 38.5787C84.8301 37.9257 86.5158 36.9877 88.2036 35.6377C94.6935 30.4457 93.3955 21.7927 92.9628 19.6297C92.5302 17.4667 89.9342 7.08268 81.7137 11.8417C76.4045 14.9157 73.3454 18.6757 70.123 22.0017C75.4706 26.5477 81.7137 34.3017 83.2565 38.5787Z" fill="#2D3B45" stroke="#152633" stroke-width="2"/>
</svg>
