<svg xmlns="http://www.w3.org/2000/svg" viewBox="0 0 24 24"><g transform="matrix(0.010416666666666666 0 0 0.010416666666666666 2 2)"><path d="M960 282c529.355 0 960 430.758 960 960 0 77.139-8.922 153.148-26.541 225.882l-10.504 43.144h-560.188c-27.106 74.88-79.85 140.838-155.52 181.045-47.887 25.185-101.647 38.625-155.633 38.625-123.445 0-236.047-67.651-293.76-176.64-5.873-11.18-11.859-25.75-17.845-43.03H37.045l-10.504-43.144C8.922 1395.148 0 1319.14 0 1242c0-529.242 430.645-960 960-960Zm168.17 1229.026c47.66-49.355 61.214-125.139 27.331-189.064-42.24-79.51-403.765-413.59-403.765-413.59s73.638 486.776 115.765 566.287c7.341 13.892 16.941 25.525 27.219 36.367h-.904c2.033 2.146 4.518 3.614 6.551 5.534 4.63 4.405 9.374 8.47 14.344 12.198 3.727 2.823 7.68 5.308 11.52 7.68 5.195 3.162 10.39 6.098 15.924 8.81 4.292 1.92 8.584 3.726 13.101 5.42 5.422 1.92 10.956 3.727 16.716 5.083a159.91 159.91 0 0 0 14.23 3.049c5.76.904 11.407 1.468 17.167 1.694 2.824.113 5.535.79 8.245.79 1.92 0 3.84-.677 5.76-.677 8.245-.226 16.377-1.355 24.508-2.936 3.727-.791 7.567-1.13 11.294-2.146 11.746-3.163 23.266-7.229 34.335-13.214h.338v-.113c15.7-8.245 28.687-19.2 40.32-31.172Zm361.524-625.807 112.715-112.715-119.717-119.831-112.828 112.715 119.83 119.83Zm-614.4-254.457h169.412V471.29H875.294v159.473ZM430.306 885.22l119.83-119.83-112.715-112.716-119.83 119.83L430.306 885.22Z" fill-rule="evenodd"/></g>
</svg>