<svg width="24" height="24" viewBox="0 0 24 24" fill="none" xmlns="http://www.w3.org/2000/svg">
<path d="M6.7808 16.5288L8.49055 13.5673C8.43289 13.5993 8.36555 13.6217 8.28855 13.6345C8.21155 13.6473 8.13464 13.6538 8.0578 13.6538C7.04114 13.6538 6.17797 13.296 5.4683 12.5805C4.7588 11.865 4.40405 11.0048 4.40405 10C4.40405 8.98334 4.7588 8.12017 5.4683 7.4105C6.17797 6.701 7.04114 6.34625 8.0578 6.34625C9.06264 6.34625 9.9228 6.701 10.6383 7.4105C11.3538 8.12017 11.7116 8.98225 11.7116 9.99675C11.7116 10.3503 11.669 10.6783 11.5838 10.9808C11.4985 11.2833 11.3737 11.5718 11.2096 11.8463L8.07305 17.2788C8.01055 17.3913 7.92305 17.4819 7.81055 17.5508C7.69805 17.6194 7.57297 17.6538 7.4353 17.6538C7.14764 17.6538 6.93205 17.5288 6.78855 17.2788C6.64489 17.0288 6.6423 16.7788 6.7808 16.5288ZM15.6656 16.5288L17.3751 13.5673C17.3174 13.5993 17.2501 13.6217 17.1731 13.6345C17.0962 13.6473 17.0193 13.6538 16.9423 13.6538C15.9256 13.6538 15.0626 13.296 14.3531 12.5805C13.6434 11.865 13.2886 11.0048 13.2886 10C13.2886 8.977 13.6434 8.11225 14.3531 7.40575C15.0626 6.69942 15.9256 6.34625 16.9423 6.34625C17.9471 6.34625 18.8073 6.701 19.5228 7.4105C20.2383 8.12017 20.5961 8.98225 20.5961 9.99675C20.5961 10.3503 20.5535 10.6783 20.4683 10.9808C20.383 11.2833 20.2583 11.5718 20.0943 11.8463L16.9578 17.2788C16.8953 17.3913 16.8077 17.4819 16.6951 17.5508C16.5826 17.6194 16.4576 17.6538 16.3201 17.6538C16.0324 17.6538 15.8167 17.5288 15.6731 17.2788C15.5296 17.0288 15.5271 16.7788 15.6656 16.5288ZM8.0578 11.8463C8.57064 11.8463 9.00655 11.6668 9.36555 11.3078C9.72455 10.9488 9.90405 10.5128 9.90405 10C9.90405 9.48717 9.72455 9.05125 9.36555 8.69225C9.00655 8.33325 8.57064 8.15375 8.0578 8.15375C7.54497 8.15375 7.10905 8.33325 6.75005 8.69225C6.39105 9.05125 6.21155 9.48717 6.21155 10C6.21155 10.5128 6.39105 10.9488 6.75005 11.3078C7.10905 11.6668 7.54497 11.8463 8.0578 11.8463ZM16.9423 11.8463C17.4551 11.8463 17.8911 11.6668 18.2501 11.3078C18.6091 10.9488 18.7886 10.5128 18.7886 10C18.7886 9.48717 18.6091 9.05125 18.2501 8.69225C17.8911 8.33325 17.4551 8.15375 16.9423 8.15375C16.4295 8.15375 15.9936 8.33325 15.6346 8.69225C15.2756 9.05125 15.0961 9.48717 15.0961 10C15.0961 10.5128 15.2756 10.9488 15.6346 11.3078C15.9936 11.6668 16.4295 11.8463 16.9423 11.8463Z" fill="#273540"/>
</svg>
