<svg width="24" height="24" viewBox="0 0 24 24" fill="none" xmlns="http://www.w3.org/2000/svg">
<path d="M5.30775 20.5C4.80258 20.5 4.375 20.325 4.025 19.975C3.675 19.625 3.5 19.1974 3.5 18.6923V5.30775C3.5 4.80258 3.675 4.375 4.025 4.025C4.375 3.675 4.80258 3.5 5.30775 3.5H18.6923C19.1974 3.5 19.625 3.675 19.975 4.025C20.325 4.375 20.5 4.80258 20.5 5.30775V18.6923C20.5 19.1974 20.325 19.625 19.975 19.975C19.625 20.325 19.1974 20.5 18.6923 20.5H5.30775ZM5.30775 19H18.6923C18.7692 19 18.8398 18.9679 18.9038 18.9038C18.9679 18.8398 19 18.7692 19 18.6923V5.30775C19 5.23075 18.9679 5.16025 18.9038 5.09625C18.8398 5.03208 18.7692 5 18.6923 5H5.30775C5.23075 5 5.16025 5.03208 5.09625 5.09625C5.03208 5.16025 5 5.23075 5 5.30775V18.6923C5 18.7692 5.03208 18.8398 5.09625 18.9038C5.16025 18.9679 5.23075 19 5.30775 19ZM12 14.2635L13.775 15.3463C13.9392 15.4501 14.1048 15.4443 14.272 15.3287C14.4393 15.2134 14.5013 15.057 14.4578 14.8595L13.9865 12.8287L15.5712 11.4595C15.7251 11.3223 15.7703 11.1608 15.7068 10.975C15.6433 10.7892 15.5077 10.6879 15.3 10.6712L13.2288 10.4962L12.4115 8.5905C12.3347 8.40967 12.1975 8.31925 12 8.31925C11.8025 8.31925 11.6653 8.40967 11.5885 8.5905L10.7713 10.4962L8.7 10.6712C8.49233 10.6879 8.35675 10.7892 8.29325 10.975C8.22975 11.1608 8.27492 11.3223 8.42875 11.4595L10.0135 12.8287L9.54225 14.8595C9.49875 15.057 9.56067 15.2134 9.728 15.3287C9.89517 15.4443 10.0608 15.4501 10.225 15.3463L12 14.2635Z" fill="#273540"/>
</svg>
