<svg width="24" height="24" viewBox="0 0 24 24" fill="none" xmlns="http://www.w3.org/2000/svg">
<path d="M14.8464 19.5H4.32711C3.95128 19.5 3.6807 19.3326 3.51536 18.998C3.35003 18.6633 3.38278 18.3454 3.61361 18.0442L8.09636 12.1922C8.1412 12.1346 8.16361 12.0705 8.16361 12C8.16361 11.9295 8.1412 11.8654 8.09636 11.8077L3.61361 5.94623C3.38278 5.64489 3.35003 5.3269 3.51536 4.99223C3.6807 4.65773 3.95128 4.49048 4.32711 4.49048H14.8366C15.1211 4.49048 15.3906 4.55165 15.6451 4.67398C15.8998 4.79648 16.1091 4.9699 16.2731 5.19423L20.6579 10.8962C20.9117 11.2174 21.0386 11.5846 21.0386 11.9977C21.0386 12.4107 20.9117 12.7794 20.6579 13.1037L16.2829 18.796C16.1187 19.0205 15.9094 19.1939 15.6549 19.3162C15.4004 19.4387 15.1309 19.5 14.8464 19.5ZM5.50011 18H14.8559C14.9072 18 14.9521 17.9904 14.9906 17.9712C15.0289 17.9519 15.0642 17.923 15.0964 17.8845L19.4714 12.1922C19.5162 12.1346 19.5386 12.0705 19.5386 12C19.5386 11.9295 19.5162 11.8654 19.4714 11.8077L15.0964 6.10573C15.0642 6.06723 15.0289 6.0384 14.9906 6.01923C14.9521 6.00006 14.9072 5.99048 14.8559 5.99048H5.50011L9.28286 10.8962C9.5367 11.2174 9.66361 11.5846 9.66361 11.9977C9.66361 12.4107 9.5367 12.7794 9.28286 13.1037L5.50011 18Z" fill="#273540"/>
</svg>
