<svg xmlns="http://www.w3.org/2000/svg" viewBox="0 0 24 24"><g><path fill-rule="evenodd" stroke="none" stroke-width="1" d="M1706.235 1807.059H350.941V112.94h903.53v451.765h451.764v1242.353zm-338.823-1670.74l315.443 315.447h-315.443V136.32zm402.182 242.487L1440.372 49.58C1408.296 17.62 1365.717 0 1320.542 0H238v1920h1581.175V498.635c0-45.176-17.618-87.755-49.58-119.83zM576.823 1242.353h790.589v-112.94H576.823v112.94zm0-451.765h903.53V677.647h-903.53v112.941zm0 677.647h451.765v-112.941H576.823v112.941zm0-451.764h677.648V903.53H576.823v112.941zm0-451.765h451.765V451.765H576.823v112.941z" transform="matrix(0.010416666666666666 0 0 0.010416666666666666 2 2)"/></g></svg>