<svg width="16" height="12" viewBox="0 0 16 12" fill="none" xmlns="http://www.w3.org/2000/svg">
<path d="M12.6115 6.74999H1.25C1.03717 6.74999 0.859 6.67816 0.7155 6.53449C0.571833 6.39099 0.5 6.21282 0.5 5.99999C0.5 5.78716 0.571833 5.60899 0.7155 5.46549C0.859 5.32182 1.03717 5.24999 1.25 5.24999H12.6115L9.31925 1.95774C9.17058 1.80891 9.09717 1.63482 9.099 1.43549C9.101 1.23616 9.17442 1.05891 9.31925 0.903739C9.47442 0.748739 9.65258 0.668655 9.85375 0.663488C10.0551 0.658322 10.2333 0.733322 10.3885 0.888488L14.8673 5.36724C14.9609 5.46091 15.0269 5.55966 15.0652 5.66349C15.1038 5.76732 15.123 5.87949 15.123 5.99999C15.123 6.12049 15.1038 6.23266 15.0652 6.33649C15.0269 6.44032 14.9609 6.53907 14.8673 6.63274L10.3885 11.1115C10.2397 11.2602 10.0631 11.3336 9.85875 11.3317C9.65425 11.3297 9.47442 11.2512 9.31925 11.0962C9.17442 10.9411 9.09942 10.7654 9.09425 10.5692C9.08908 10.3731 9.16408 10.1974 9.31925 10.0422L12.6115 6.74999Z" fill="#273540"/>
</svg>
