<svg width="24" height="24" viewBox="0 0 24 24" fill="none" xmlns="http://www.w3.org/2000/svg">
<path d="M9.15375 17.6538C8.64875 17.6538 8.22125 17.4788 7.87125 17.1288C7.52125 16.7788 7.34625 16.3512 7.34625 15.8462V4.30775C7.34625 3.80258 7.52125 3.375 7.87125 3.025C8.22125 2.675 8.64875 2.5 9.15375 2.5H17.6923C18.1974 2.5 18.625 2.675 18.975 3.025C19.325 3.375 19.5 3.80258 19.5 4.30775V15.8462C19.5 16.3512 19.325 16.7788 18.975 17.1288C18.625 17.4788 18.1974 17.6538 17.6923 17.6538H9.15375ZM9.15375 16.1538H17.6923C17.7692 16.1538 17.8398 16.1217 17.9038 16.0577C17.9679 15.9936 18 15.9231 18 15.8462V4.30775C18 4.23075 17.9679 4.16025 17.9038 4.09625C17.8398 4.03208 17.7692 4 17.6923 4H9.15375C9.07692 4 9.00642 4.03208 8.94225 4.09625C8.87825 4.16025 8.84625 4.23075 8.84625 4.30775V15.8462C8.84625 15.9231 8.87825 15.9936 8.94225 16.0577C9.00642 16.1217 9.07692 16.1538 9.15375 16.1538ZM4.30775 7.346C4.07892 7.346 3.88708 7.26867 3.73225 7.114C3.57742 6.95917 3.5 6.76733 3.5 6.5385C3.5 6.30967 3.57742 6.11783 3.73225 5.963C3.88708 5.80817 4.07892 5.73075 4.30775 5.73075C4.53658 5.73075 4.72842 5.80817 4.88325 5.963C5.03808 6.11783 5.1155 6.30967 5.1155 6.5385C5.1155 6.76733 5.03808 6.95917 4.88325 7.114C4.72842 7.26867 4.53658 7.346 4.30775 7.346ZM4.30775 10.8845C4.07892 10.8845 3.88708 10.8071 3.73225 10.6523C3.57742 10.4976 3.5 10.3058 3.5 10.077C3.5 9.84817 3.57742 9.65633 3.73225 9.5015C3.88708 9.34667 4.07892 9.26925 4.30775 9.26925C4.53658 9.26925 4.72842 9.34667 4.88325 9.5015C5.03808 9.65633 5.1155 9.84817 5.1155 10.077C5.1155 10.3058 5.03808 10.4976 4.88325 10.6523C4.72842 10.8071 4.53658 10.8845 4.30775 10.8845ZM4.30775 14.423C4.07892 14.423 3.88708 14.3456 3.73225 14.1908C3.57742 14.0359 3.5 13.8441 3.5 13.6152C3.5 13.3864 3.57742 13.1947 3.73225 13.04C3.88708 12.8852 4.07892 12.8077 4.30775 12.8077C4.53658 12.8077 4.72842 12.8852 4.88325 13.04C5.03808 13.1947 5.1155 13.3864 5.1155 13.6152C5.1155 13.8441 5.03808 14.0359 4.88325 14.1908C4.72842 14.3456 4.53658 14.423 4.30775 14.423ZM4.30775 17.9615C4.07892 17.9615 3.88708 17.8841 3.73225 17.7292C3.57742 17.5744 3.5 17.3826 3.5 17.1538C3.5 16.9249 3.57742 16.7331 3.73225 16.5782C3.88708 16.4236 4.07892 16.3462 4.30775 16.3462C4.53658 16.3462 4.72842 16.4236 4.88325 16.5782C5.03808 16.7331 5.1155 16.9249 5.1155 17.1538C5.1155 17.3826 5.03808 17.5744 4.88325 17.7292C4.72842 17.8841 4.53658 17.9615 4.30775 17.9615ZM4.30775 21.5C4.07892 21.5 3.88708 21.4226 3.73225 21.2678C3.57742 21.1129 3.5 20.9211 3.5 20.6923C3.5 20.4634 3.57742 20.2716 3.73225 20.1168C3.88708 19.9619 4.07892 19.8845 4.30775 19.8845C4.53658 19.8845 4.72842 19.9619 4.88325 20.1168C5.03808 20.2716 5.1155 20.4634 5.1155 20.6923C5.1155 20.9211 5.03808 21.1129 4.88325 21.2678C4.72842 21.4226 4.53658 21.5 4.30775 21.5ZM7.84625 21.5C7.61742 21.5 7.42558 21.4226 7.27075 21.2678C7.11592 21.1129 7.0385 20.9211 7.0385 20.6923C7.0385 20.4634 7.11592 20.2716 7.27075 20.1168C7.42558 19.9619 7.61742 19.8845 7.84625 19.8845C8.07508 19.8845 8.26692 19.9619 8.42175 20.1168C8.57642 20.2716 8.65375 20.4634 8.65375 20.6923C8.65375 20.9211 8.57642 21.1129 8.42175 21.2678C8.26692 21.4226 8.07508 21.5 7.84625 21.5ZM11.3848 21.5C11.1559 21.5 10.9641 21.4226 10.8092 21.2678C10.6544 21.1129 10.577 20.9211 10.577 20.6923C10.577 20.4634 10.6544 20.2716 10.8092 20.1168C10.9641 19.9619 11.1559 19.8845 11.3848 19.8845C11.6136 19.8845 11.8053 19.9619 11.96 20.1168C12.1148 20.2716 12.1923 20.4634 12.1923 20.6923C12.1923 20.9211 12.1148 21.1129 11.96 21.2678C11.8053 21.4226 11.6136 21.5 11.3848 21.5ZM14.923 21.5C14.6942 21.5 14.5024 21.4226 14.3477 21.2678C14.1929 21.1129 14.1155 20.9211 14.1155 20.6923C14.1155 20.4634 14.1929 20.2716 14.3477 20.1168C14.5024 19.9619 14.6942 19.8845 14.923 19.8845C15.1518 19.8845 15.3437 19.9619 15.4985 20.1168C15.6533 20.2716 15.7308 20.4634 15.7308 20.6923C15.7308 20.9211 15.6533 21.1129 15.4985 21.2678C15.3437 21.4226 15.1518 21.5 14.923 21.5Z" fill="#273540"/>
</svg>
