<svg width="24" height="24" viewBox="0 0 24 24" fill="none" xmlns="http://www.w3.org/2000/svg">
<path d="M7.59415 12L11.6519 16.073C11.7902 16.2115 11.8636 16.383 11.8719 16.5875C11.8802 16.792 11.8069 16.9718 11.6519 17.127C11.5069 17.2718 11.3312 17.3442 11.1249 17.3442C10.9186 17.3442 10.7429 17.2718 10.5979 17.127L6.1039 12.6327C6.01023 12.5391 5.94415 12.4403 5.90565 12.3365C5.86715 12.2326 5.8479 12.1205 5.8479 12C5.8479 11.8795 5.86715 11.7673 5.90565 11.6635C5.94415 11.5596 6.01023 11.4609 6.1039 11.3672L10.5979 6.87298C10.7364 6.73465 10.9079 6.66131 11.1124 6.65298C11.3169 6.64465 11.4967 6.71798 11.6519 6.87298C11.7967 7.01798 11.8692 7.19365 11.8692 7.39998C11.8692 7.60631 11.7967 7.78198 11.6519 7.92698L7.59415 12ZM13.9442 12L18.0019 16.073C18.1402 16.2115 18.2136 16.383 18.2219 16.5875C18.2302 16.792 18.1569 16.9718 18.0019 17.127C17.8569 17.2718 17.6812 17.3442 17.4749 17.3442C17.2686 17.3442 17.0929 17.2718 16.9479 17.127L12.4536 12.6327C12.3601 12.5391 12.2942 12.4403 12.2557 12.3365C12.2172 12.2326 12.1979 12.1205 12.1979 12C12.1979 11.8795 12.2172 11.7673 12.2557 11.6635C12.2942 11.5596 12.3601 11.4609 12.4536 11.3672L16.9479 6.87298C17.0864 6.73465 17.2579 6.66131 17.4624 6.65298C17.6669 6.64465 17.8467 6.71798 18.0019 6.87298C18.1467 7.01798 18.2192 7.19365 18.2192 7.39998C18.2192 7.60631 18.1467 7.78198 18.0019 7.92698L13.9442 12Z" fill="#273540"/>
</svg>
