<svg width="24" height="24" viewBox="0 0 24 24" fill="none" xmlns="http://www.w3.org/2000/svg">
<path d="M5.30775 20.5C4.80258 20.5 4.375 20.325 4.025 19.975C3.675 19.625 3.5 19.1974 3.5 18.6923V15.8845C3.5 15.6718 3.57183 15.4937 3.7155 15.35C3.859 15.2065 4.03717 15.1348 4.25 15.1348C4.46283 15.1348 4.641 15.2065 4.7845 15.35C4.92817 15.4937 5 15.6718 5 15.8845V18.6923C5 18.7692 5.03208 18.8398 5.09625 18.9038C5.16025 18.9679 5.23075 19 5.30775 19H18.6923C18.7692 19 18.8398 18.9679 18.9038 18.9038C18.9679 18.8398 19 18.7692 19 18.6923V5.30775C19 5.23075 18.9679 5.16025 18.9038 5.09625C18.8398 5.03208 18.7692 5 18.6923 5H5.30775C5.23075 5 5.16025 5.03208 5.09625 5.09625C5.03208 5.16025 5 5.23075 5 5.30775V8.1155C5 8.32817 4.92817 8.50633 4.7845 8.65C4.641 8.7935 4.46283 8.86525 4.25 8.86525C4.03717 8.86525 3.859 8.7935 3.7155 8.65C3.57183 8.50633 3.5 8.32817 3.5 8.1155V5.30775C3.5 4.80258 3.675 4.375 4.025 4.025C4.375 3.675 4.80258 3.5 5.30775 3.5H18.6923C19.1974 3.5 19.625 3.675 19.975 4.025C20.325 4.375 20.5 4.80258 20.5 5.30775V18.6923C20.5 19.1974 20.325 19.625 19.975 19.975C19.625 20.325 19.1974 20.5 18.6923 20.5H5.30775ZM12.2463 12.75H4.25C4.03717 12.75 3.859 12.6782 3.7155 12.5345C3.57183 12.391 3.5 12.2128 3.5 12C3.5 11.7872 3.57183 11.609 3.7155 11.4655C3.859 11.3218 4.03717 11.25 4.25 11.25H12.2463L10.1463 9.15C9.99742 9.00133 9.924 8.82733 9.926 8.628C9.928 8.4285 10.0014 8.25125 10.1463 8.09625C10.3013 7.94108 10.4794 7.86092 10.6808 7.85575C10.8821 7.85058 11.0603 7.92558 11.2155 8.08075L14.502 11.3672C14.5955 11.4609 14.6615 11.5597 14.7 11.6635C14.7385 11.7673 14.7578 11.8795 14.7578 12C14.7578 12.1205 14.7385 12.2327 14.7 12.3365C14.6615 12.4403 14.5955 12.5391 14.502 12.6328L11.2155 15.9192C11.0667 16.0679 10.89 16.1413 10.6855 16.1395C10.481 16.1375 10.3013 16.0589 10.1463 15.9038C10.0014 15.7487 9.92642 15.5732 9.92125 15.377C9.91608 15.1808 9.99108 15.0052 10.1463 14.85L12.2463 12.75Z" fill="#273540"/>
</svg>
