<svg width="16" height="16" viewBox="0 0 16 16" fill="none" xmlns="http://www.w3.org/2000/svg">
<path d="M3.37295 8.74999L8.5422 13.9192C8.69087 14.0679 8.76429 14.2419 8.76245 14.4412C8.76045 14.6406 8.68195 14.8178 8.52695 14.973C8.37179 15.1178 8.19612 15.1928 7.99995 15.198C7.80379 15.2032 7.62812 15.1282 7.47295 14.973L1.1327 8.63274C1.03904 8.53908 0.973036 8.44033 0.934703 8.33649C0.896203 8.23266 0.876953 8.12049 0.876953 7.99999C0.876953 7.87949 0.896203 7.76733 0.934703 7.66349C0.973036 7.55966 1.03904 7.46091 1.1327 7.36724L7.47295 1.02699C7.61145 0.888494 7.78295 0.81766 7.98745 0.814494C8.19195 0.811327 8.37179 0.88216 8.52695 1.02699C8.68195 1.18216 8.75945 1.36033 8.75945 1.56149C8.75945 1.76283 8.68195 1.94108 8.52695 2.09624L3.37295 7.24999H14.75C14.9628 7.24999 15.141 7.32183 15.2845 7.46549C15.4281 7.60899 15.5 7.78716 15.5 7.99999C15.5 8.21283 15.4281 8.39099 15.2845 8.53449C15.141 8.67816 14.9628 8.74999 14.75 8.74999H3.37295Z" fill="#273540"/>
</svg>
