<svg width="24" height="24" viewBox="0 0 24 24" fill="none" xmlns="http://www.w3.org/2000/svg">
<path d="M15.0193 19.5C14.8064 19.5 14.6283 19.4282 14.4848 19.2845C14.3411 19.141 14.2693 18.9628 14.2693 18.75C14.2693 18.5372 14.3411 18.359 14.4848 18.2155C14.6283 18.0718 14.8064 18 15.0193 18H16.7402C17.0877 18 17.3846 17.8818 17.6307 17.6453C17.8769 17.4086 18 17.1166 18 16.7692V14.7115C18 14.1167 18.1769 13.5833 18.5308 13.1115C18.8846 12.6397 19.3455 12.3115 19.9135 12.127V11.873C19.3455 11.6885 18.8846 11.3603 18.5308 10.8885C18.1769 10.4167 18 9.88333 18 9.2885V7.23075C18 6.88342 17.8769 6.59142 17.6307 6.35475C17.3846 6.11825 17.0877 6 16.7402 6H15.0193C14.8064 6 14.6283 5.92817 14.4848 5.7845C14.3411 5.641 14.2693 5.46283 14.2693 5.25C14.2693 5.03717 14.3411 4.859 14.4848 4.7155C14.6283 4.57183 14.8064 4.5 15.0193 4.5H16.7402C17.5031 4.5 18.1538 4.766 18.6923 5.298C19.2308 5.83017 19.5 6.47442 19.5 7.23075V9.2885C19.5 9.64233 19.6247 9.93917 19.874 10.179C20.1233 10.4187 20.4282 10.5385 20.7885 10.5385C20.9948 10.5385 21.165 10.6071 21.299 10.7443C21.433 10.8814 21.5 11.05 21.5 11.25V12.75C21.5 12.95 21.433 13.1186 21.299 13.2558C21.165 13.3929 20.9948 13.4615 20.7885 13.4615C20.4282 13.4615 20.1233 13.5813 19.874 13.821C19.6247 14.0608 19.5 14.3577 19.5 14.7115V16.7692C19.5 17.5256 19.2308 18.1698 18.6923 18.702C18.1538 19.234 17.5031 19.5 16.7402 19.5H15.0193ZM7.25975 19.5C6.49692 19.5 5.84625 19.234 5.30775 18.702C4.76925 18.1698 4.5 17.5256 4.5 16.7692V14.7115C4.5 14.3577 4.37533 14.0608 4.126 13.821C3.87667 13.5813 3.57183 13.4615 3.2115 13.4615C3.0115 13.4615 2.84292 13.3929 2.70575 13.2558C2.56858 13.1186 2.5 12.95 2.5 12.75V11.25C2.5 11.05 2.56858 10.8814 2.70575 10.7443C2.84292 10.6071 3.0115 10.5385 3.2115 10.5385C3.57183 10.5385 3.87667 10.4187 4.126 10.179C4.37533 9.93917 4.5 9.64233 4.5 9.2885V7.23075C4.5 6.47442 4.76925 5.83017 5.30775 5.298C5.84625 4.766 6.49692 4.5 7.25975 4.5H8.9905C9.20317 4.5 9.38133 4.57183 9.525 4.7155C9.6685 4.859 9.74025 5.03717 9.74025 5.25C9.74025 5.46283 9.6685 5.641 9.525 5.7845C9.38133 5.92817 9.20317 6 8.9905 6H7.25975C6.91225 6 6.61542 6.11825 6.36925 6.35475C6.12308 6.59142 6 6.88342 6 7.23075V9.2885C6 9.88333 5.82308 10.4167 5.46925 10.8885C5.11542 11.3603 4.6545 11.6885 4.0865 11.873V12.127C4.6545 12.3115 5.11542 12.6397 5.46925 13.1115C5.82308 13.5833 6 14.1167 6 14.7115V16.7692C6 17.1166 6.12308 17.4086 6.36925 17.6453C6.61542 17.8818 6.91225 18 7.25975 18H8.9905C9.20317 18 9.38133 18.0718 9.525 18.2155C9.6685 18.359 9.74025 18.5372 9.74025 18.75C9.74025 18.9628 9.6685 19.141 9.525 19.2845C9.38133 19.4282 9.20317 19.5 8.9905 19.5H7.25975Z" fill="#273540"/>
</svg>
