<svg xmlns="http://www.w3.org/2000/svg" viewBox="0 0 24 24"><g transform="matrix(0.010416666666666666 0 0 0.010416666666666666 2 2)"><path d="M960 1242.342c62.23 0 112.941 50.71 112.941 112.94 0 62.231-50.71 112.942-112.941 112.942-62.23 0-112.941-50.71-112.941-112.941 0-62.23 50.71-112.941 112.941-112.941Zm89.336-892.01c114.862 29.704 208.264 123.106 237.968 237.967 23.378 90.466 10.729 183.304-35.464 261.46-45.515 77.138-121.186 133.947-207.586 156.084-13.779 3.614-27.783 14.795-27.783 31.962v91.595H903.529v-91.595c0-66.183 46.306-124.235 112.716-141.29 57.6-14.795 107.971-52.743 138.353-104.131 30.833-52.292 39.19-114.635 23.378-175.85-19.651-75.67-81.204-137.223-156.875-156.875-70.927-18.183-143.435-3.953-199.341 39.304-55.68 43.143-87.642 108.31-87.642 178.673H621.176c0-105.6 47.888-203.294 131.464-268.01 83.69-64.828 191.774-86.287 296.696-59.294ZM960-.01c-529.355 0-960 430.644-960 960 0 529.355 430.645 960 960 960 529.468 0 960-430.645 960-960 0-529.356-430.532-960-960-960" fill-rule="evenodd"/></g>
</svg>