<svg width="24" height="24" viewBox="0 0 24 24" fill="none" xmlns="http://www.w3.org/2000/svg">
<path d="M4.30775 20.5C3.80258 20.5 3.375 20.325 3.025 19.975C2.675 19.625 2.5 19.1974 2.5 18.6923V5.30775C2.5 4.80258 2.675 4.375 3.025 4.025C3.375 3.675 3.80258 3.5 4.30775 3.5H19.6923C20.1974 3.5 20.625 3.675 20.975 4.025C21.325 4.375 21.5 4.80258 21.5 5.30775V18.6923C21.5 19.1974 21.325 19.625 20.975 19.975C20.625 20.325 20.1974 20.5 19.6923 20.5H4.30775ZM4.30775 19H19.6923C19.7693 19 19.8398 18.9679 19.9038 18.9038C19.9679 18.8398 20 18.7692 20 18.6923V5.30775C20 5.23075 19.9679 5.16025 19.9038 5.09625C19.8398 5.03208 19.7693 5 19.6923 5H4.30775C4.23075 5 4.16025 5.03208 4.09625 5.09625C4.03208 5.16025 4 5.23075 4 5.30775V18.6923C4 18.7692 4.03208 18.8398 4.09625 18.9038C4.16025 18.9679 4.23075 19 4.30775 19ZM9 16.75C9.21283 16.75 9.391 16.6782 9.5345 16.5345C9.67817 16.391 9.75 16.2128 9.75 16C9.75 15.7872 9.67817 15.609 9.5345 15.4655C9.391 15.3218 9.21283 15.25 9 15.25H6C5.78717 15.25 5.609 15.3218 5.4655 15.4655C5.32183 15.609 5.25 15.7872 5.25 16C5.25 16.2128 5.32183 16.391 5.4655 16.5345C5.609 16.6782 5.78717 16.75 6 16.75H9ZM14.55 12.5308L13.652 11.6328C13.5032 11.4841 13.3275 11.4107 13.125 11.4125C12.9225 11.4145 12.7468 11.493 12.598 11.648C12.4597 11.7968 12.3895 11.9725 12.3875 12.175C12.3857 12.3775 12.4591 12.5532 12.6077 12.702L13.9173 14.0115C14.0981 14.1923 14.309 14.2828 14.55 14.2828C14.791 14.2828 15.0019 14.1923 15.1827 14.0115L18.6173 10.577C18.7659 10.4282 18.8419 10.2541 18.8453 10.0547C18.8484 9.85542 18.7724 9.67817 18.6173 9.523C18.4621 9.368 18.2839 9.2905 18.0828 9.2905C17.8814 9.2905 17.7032 9.368 17.548 9.523L14.55 12.5308ZM9 12.75C9.21283 12.75 9.391 12.6782 9.5345 12.5345C9.67817 12.391 9.75 12.2128 9.75 12C9.75 11.7872 9.67817 11.609 9.5345 11.4655C9.391 11.3218 9.21283 11.25 9 11.25H6C5.78717 11.25 5.609 11.3218 5.4655 11.4655C5.32183 11.609 5.25 11.7872 5.25 12C5.25 12.2128 5.32183 12.391 5.4655 12.5345C5.609 12.6782 5.78717 12.75 6 12.75H9ZM9 8.75C9.21283 8.75 9.391 8.67817 9.5345 8.5345C9.67817 8.391 9.75 8.21283 9.75 8C9.75 7.78717 9.67817 7.609 9.5345 7.4655C9.391 7.32183 9.21283 7.25 9 7.25H6C5.78717 7.25 5.609 7.32183 5.4655 7.4655C5.32183 7.609 5.25 7.78717 5.25 8C5.25 8.21283 5.32183 8.391 5.4655 8.5345C5.609 8.67817 5.78717 8.75 6 8.75H9Z" fill="#273540"/>
</svg>
