<svg width="117" height="150" viewBox="0 0 117 150" fill="none" xmlns="http://www.w3.org/2000/svg">
<path fill-rule="evenodd" clip-rule="evenodd" d="M37.8383 96.7141C38.7063 97.3335 39.5994 97.9383 40.5122 98.5294C38.668 103.144 34.0197 113.274 26.6963 119.374C16.9851 127.463 9.49429 116.709 10.7553 110.243C11.931 104.212 21.7401 99.6491 37.8383 96.7141Z" fill="#2D3B45" stroke="#152633" stroke-width="2"/>
<path fill-rule="evenodd" clip-rule="evenodd" d="M84.0737 96.1346C93.3026 82.622 101.461 75.5167 107.448 76.8957C113.868 78.3736 120.646 89.5912 109.306 95.1725C100.755 99.3816 89.6101 99.5079 84.6445 99.3157C84.4757 98.2414 84.2865 97.1795 84.0737 96.1346Z" fill="#2D3B45" stroke="#152633" stroke-width="2"/>
<path fill-rule="evenodd" clip-rule="evenodd" d="M41.3228 92.9561C48.466 95.3348 56.6183 96.6278 65.2759 96.6278C72.9928 96.6278 76.1842 93.0463 82.4861 91.2613C88.7004 96.6278 91.8302 106.859 92.4579 111.881C94.3043 124.804 83.0713 136.13 63.1248 136.13C43.1782 136.13 32.7579 124.397 35.0345 112.272C36.6037 103.919 39.133 97.6087 41.3228 92.9561Z" fill="white" stroke="#152633" stroke-width="2"/>
<path fill-rule="evenodd" clip-rule="evenodd" d="M35.0088 113.294C33.4843 123.948 41.7426 134.107 57.629 136.038L57.2938 137.544C56.1205 143.801 53.7738 146.148 49.8628 147.321C41.2584 150.45 22.4851 149.277 24.4407 141.846C26.5266 131.156 30.0493 121.638 35.0088 113.294Z" fill="#2D3B45"/>
<path fill-rule="evenodd" clip-rule="evenodd" d="M24.4407 141.846C27.5696 125.81 34.4819 116.242 34.873 113.113C33.3485 123.767 41.7426 134.107 57.629 136.038L57.2938 137.544C56.1205 143.801 53.7738 146.148 49.8628 147.321C41.2584 150.45 22.4851 149.277 24.4407 141.846Z" stroke="#152633" stroke-width="2"/>
<path fill-rule="evenodd" clip-rule="evenodd" d="M92.6295 113.294L92.687 113.295C93.0781 116.423 100.118 125.81 103.247 141.845C105.202 149.277 86.4293 150.45 77.8249 147.321C73.9138 146.148 71.5671 143.801 70.3938 137.543L70.0751 136.24L70.0586 135.88C85.1136 133.663 93.5248 124.16 92.6295 113.294Z" fill="#2D3B45"/>
<path fill-rule="evenodd" clip-rule="evenodd" d="M92.6295 113.294C93.0781 116.423 100.118 125.81 103.247 141.845C105.202 149.277 86.4293 150.45 77.8249 147.321C73.9138 146.148 71.5671 143.801 70.3938 137.543L70.0751 136.24L70.0586 135.88C85.1136 133.663 93.5248 124.16 92.6295 113.294Z" stroke="#152633" stroke-width="2"/>
<path fill-rule="evenodd" clip-rule="evenodd" d="M110.247 53.2924C114.506 76.283 96.0011 92.4206 67.432 97.7134C38.8634 103.006 17.7867 93.5537 11.1852 72.1302C4.0575 48.998 23.1482 18.1792 51.7174 12.8865C80.2861 7.59383 105.767 29.1128 110.247 53.2924Z" fill="white" stroke="#152633" stroke-width="2"/>
<path fill-rule="evenodd" clip-rule="evenodd" d="M71.1133 91.7118C69.9831 92.8533 68.9068 93.4716 67.9401 93.5051C66.9395 93.5398 66.0363 92.9507 65.2561 91.7542C64.8295 91.1007 64.4219 90.3837 64.0422 89.6558C66.8398 89.5815 69.3382 90.135 71.1133 91.7118ZM60.2594 84.1305C60.9849 86.2275 61.9907 89.101 64.1798 92.4566C65.2087 94.0329 66.5243 94.8398 67.9842 94.7889C68.3884 94.7751 68.7963 94.697 69.2071 94.5548C71.2307 93.8547 73.3349 91.5992 75.4813 87.8345C77.5982 87.6 79.3032 87.1264 80.4035 86.7456C81.2162 86.4644 81.702 86.2356 81.7874 86.1946C82.615 85.7478 82.2473 84.6852 81.2284 85.0378C81.1398 85.0808 72.6929 89.0241 63.1682 84.4363C63.14 84.4222 62.0909 84.0164 61.198 83.3703C60.0885 82.4791 59.7756 82.7325 60.2594 84.1305Z" fill="#152633"/>
<path fill-rule="evenodd" clip-rule="evenodd" d="M67.1958 75.4129C66.8104 73.3332 69.9589 71.0061 74.2275 70.215C78.4965 69.4242 82.2694 70.4688 82.655 72.5489C83.04 74.6288 79.8918 76.9558 75.6231 77.7464C71.354 78.5372 67.581 77.4923 67.1958 75.4129Z" fill="#152633"/>
<path fill-rule="evenodd" clip-rule="evenodd" d="M42.7094 84.8766L42.7094 84.8766C52.7907 83.0092 61.4316 69.7071 59.1568 57.4274C56.6141 43.7008 45.9743 31.3673 37.1976 32.9933C32.8285 33.8024 28.2175 38.0665 24.958 44.4388C21.6603 50.8856 20.3655 58.3664 21.4844 64.4069C23.9046 77.4705 33.4972 86.5836 42.7094 84.8766Z" fill="#2D3B45" stroke="#152633" stroke-width="2"/>
<path fill-rule="evenodd" clip-rule="evenodd" d="M50.6238 56.4142C52.949 56.6555 54.5264 59.8138 54.1472 63.4673C53.7682 67.1217 51.5754 69.8877 49.2503 69.6464C46.925 69.4048 45.3474 66.2474 45.7266 62.5934C46.1061 58.9393 48.2987 56.173 50.6238 56.4142Z" fill="white"/>
<path fill-rule="evenodd" clip-rule="evenodd" d="M84.2142 63.573C87.8967 67.375 91.6188 68.9752 94.6786 68.4925C94.7332 68.4842 94.7845 68.4755 94.8338 68.4664C97.0189 68.0615 99.6029 66.422 101.081 64.3318C104.685 59.2369 105.706 54.1912 104.293 46.5624C102.065 34.5344 87.7497 21.1679 79.1169 22.767C77.2452 23.1139 75.8397 24.0323 74.8835 25.5212C72.0373 29.9532 72.7489 38.9417 76.2192 50.0541C77.7094 54.828 80.5897 59.8305 84.2142 63.573Z" fill="#2D3B45" stroke="#152633" stroke-width="2"/>
<path fill-rule="evenodd" clip-rule="evenodd" d="M90.6514 53.5385C92.014 56.223 91.7342 59.1023 90.0259 59.9694C88.3175 60.8369 85.8282 59.3637 84.4652 56.6794C83.1022 53.995 83.3825 51.1159 85.0902 50.2486C86.7983 49.3812 89.2885 50.8545 90.6514 53.5385Z" fill="white"/>
<path fill-rule="evenodd" clip-rule="evenodd" d="M13.448 43.2622C11.8959 42.931 10.1919 42.3582 8.41699 41.4079C1.58976 37.7531 1.31046 29.6048 1.33982 27.5495C1.36866 25.494 1.98483 15.5399 10.3239 18.5051C15.7094 20.4197 21.6243 24.2858 25.141 26.7857C20.2373 31.5481 16.2697 37.183 13.448 43.2622Z" fill="#2D3B45" stroke="#152633" stroke-width="2"/>
<path fill-rule="evenodd" clip-rule="evenodd" d="M94.1414 21.4795C93.4384 22.2926 92.7123 22.9809 91.9889 23.5645C87.3259 19.7821 81.9901 16.7448 76.2038 14.7452C78.2778 11.6343 81.8086 6.76884 85.5153 3.59587C91.3238 -1.37628 94.9012 6.46213 95.561 8.11068C96.2209 9.7596 98.517 16.4185 94.1414 21.4795Z" fill="#2D3B45" stroke="#152633" stroke-width="2"/>
</svg>
