<svg width="121" height="157" viewBox="0 0 121 157" fill="none" xmlns="http://www.w3.org/2000/svg">
<g clip-path="url(#clip0_1_2)">
<path fill-rule="evenodd" clip-rule="evenodd" d="M37.8412 97.5713C38.7092 98.1907 39.6023 98.7955 40.5152 99.3866C38.671 104.001 34.0227 114.131 26.6993 120.231C16.988 128.321 9.49722 117.566 10.7583 111.1C11.9339 105.069 21.7431 100.506 37.8412 97.5713Z" fill="#2D3B45" stroke="#152633" stroke-width="2"/>
<path fill-rule="evenodd" clip-rule="evenodd" d="M84.0766 96.9918C93.3055 83.4791 101.464 76.3739 107.451 77.7529C113.871 79.2308 120.649 90.4483 109.309 96.0297C100.758 100.239 89.613 100.365 84.6474 100.173C84.4787 99.0986 84.2894 98.0367 84.0766 96.9918Z" fill="#2D3B45" stroke="#152633" stroke-width="2"/>
<path fill-rule="evenodd" clip-rule="evenodd" d="M41.3257 93.8133C48.4689 96.192 56.6212 97.485 65.2788 97.485C72.9958 97.485 76.1871 93.9035 82.4891 92.1184C88.7034 97.485 91.8331 107.716 92.4608 112.738C94.3073 125.661 83.0742 136.987 63.1277 136.987C43.1811 136.987 32.7608 125.254 35.0375 113.129C36.6066 104.776 39.1359 98.4659 41.3257 93.8133Z" fill="white" stroke="#152633" stroke-width="2"/>
<path fill-rule="evenodd" clip-rule="evenodd" d="M35.0118 114.151C33.4872 124.805 41.7455 134.964 57.6319 136.895L57.2968 138.401C56.1234 144.659 53.7768 147.005 49.8657 148.179C41.2613 151.307 22.4881 150.134 24.4436 142.703C26.5295 132.013 30.0522 122.495 35.0118 114.151Z" fill="#2D3B45"/>
<path fill-rule="evenodd" clip-rule="evenodd" d="M24.4436 142.703C27.5725 126.668 34.4848 117.099 34.8759 113.97C33.3514 124.624 41.7455 134.964 57.6319 136.895L57.2968 138.401C56.1234 144.659 53.7768 147.005 49.8657 148.179C41.2613 151.307 22.4881 150.134 24.4436 142.703Z" stroke="#152633" stroke-width="2"/>
<path fill-rule="evenodd" clip-rule="evenodd" d="M92.6324 114.151L92.6899 114.152C93.0811 117.281 100.121 126.667 103.25 142.703C105.205 150.134 86.4322 151.307 77.8278 148.178C73.9167 147.005 71.5701 144.658 70.3967 138.4L70.078 137.097L70.0616 136.737C85.1165 134.52 93.5277 125.017 92.6324 114.151Z" fill="#2D3B45"/>
<path fill-rule="evenodd" clip-rule="evenodd" d="M92.6324 114.151C93.081 117.281 100.121 126.667 103.25 142.703C105.205 150.134 86.4322 151.307 77.8278 148.178C73.9167 147.005 71.5701 144.658 70.3967 138.4L70.078 137.097L70.0616 136.737C85.1165 134.52 93.5277 125.017 92.6324 114.151Z" stroke="#152633" stroke-width="2"/>
<path fill-rule="evenodd" clip-rule="evenodd" d="M110.249 54.1495C114.509 77.1401 96.004 93.2778 67.4349 98.5705C38.8663 103.864 17.7896 94.4109 11.1881 72.9874C4.06043 49.8552 23.1512 19.0364 51.7203 13.7436C80.2891 8.45101 105.77 29.97 110.249 54.1495Z" fill="white" stroke="#152633" stroke-width="2"/>
<path fill-rule="evenodd" clip-rule="evenodd" d="M71.1162 92.569C69.986 93.7105 68.9097 94.3288 67.9431 94.3623C66.9424 94.397 66.0393 93.8079 65.259 92.6113C64.8324 91.9578 64.4248 91.2409 64.0452 90.513C66.8428 90.4386 69.3412 90.9922 71.1162 92.569ZM60.2623 84.9877C60.9879 87.0846 61.9936 89.9581 64.1828 93.3138C65.2116 94.8901 66.5272 95.697 67.9871 95.6461C68.3913 95.6323 68.7992 95.5542 69.2101 95.412C71.2337 94.7118 73.3379 92.4564 75.4843 88.6917C77.6011 88.4572 79.3061 87.9836 80.4065 87.6028C81.2191 87.3216 81.7049 87.0927 81.7903 87.0517C82.6179 86.605 82.2503 85.5424 81.2314 85.8949C81.1427 85.938 72.6958 89.8813 63.1711 85.2934C63.1429 85.2794 62.0939 84.8736 61.2009 84.2275C60.0915 83.3363 59.7786 83.5897 60.2623 84.9877Z" fill="#152633"/>
<path fill-rule="evenodd" clip-rule="evenodd" d="M67.1987 76.2701C66.8133 74.1904 69.9618 71.8632 74.2304 71.0722C78.4995 70.2814 82.2723 71.326 82.6579 73.4061C83.0429 75.486 79.8947 77.813 75.626 78.6036C71.357 79.3944 67.584 78.3494 67.1987 76.2701Z" fill="#152633"/>
<path fill-rule="evenodd" clip-rule="evenodd" d="M42.7123 85.7338L42.7124 85.7338C52.7936 83.8663 61.4345 70.5642 59.1597 58.2845C56.6171 44.558 45.9772 32.2245 37.2005 33.8505C32.8315 34.6596 28.2205 38.9237 24.9609 45.2959C21.6632 51.7428 20.3684 59.2236 21.4873 65.264C23.9075 78.3276 33.5002 87.4408 42.7123 85.7338Z" fill="#2D3B45" stroke="#152633" stroke-width="2"/>
<path fill-rule="evenodd" clip-rule="evenodd" d="M50.6268 57.2714C52.9519 57.5126 54.5293 60.6709 54.1501 64.3245C53.7711 67.9789 51.5784 70.7449 49.2532 70.5036C46.9279 70.262 45.3504 67.1045 45.7295 63.4506C46.109 59.7965 48.3016 57.0301 50.6268 57.2714Z" fill="white"/>
<path fill-rule="evenodd" clip-rule="evenodd" d="M84.2171 64.4302C87.8996 68.2322 91.6217 69.8324 94.6815 69.3497C94.7361 69.3414 94.7875 69.3327 94.8368 69.3235C97.0218 68.9186 99.6058 67.2792 101.084 65.189C104.688 60.0941 105.709 55.0484 104.296 47.4195C102.067 35.3916 87.7527 22.0251 79.1198 23.6242C77.2482 23.971 75.8426 24.8895 74.8865 26.3784C72.0402 30.8103 72.7519 39.7989 76.2221 50.9113C77.7123 55.6852 80.5926 60.6876 84.2171 64.4302Z" fill="#2D3B45" stroke="#152633" stroke-width="2"/>
<path fill-rule="evenodd" clip-rule="evenodd" d="M90.6543 54.3957C92.0169 57.0802 91.7371 59.9595 90.0289 60.8266C88.3204 61.6941 85.8311 60.2209 84.4681 57.5365C83.1051 54.8522 83.3854 51.9731 85.0932 51.1058C86.8013 50.2384 89.2915 51.7117 90.6543 54.3957Z" fill="white"/>
<path fill-rule="evenodd" clip-rule="evenodd" d="M13.4509 44.1193C11.8988 43.7882 10.1948 43.2154 8.41992 42.2651C1.59269 38.6103 1.31339 30.462 1.34275 28.4067C1.37159 26.3512 1.98776 16.3971 10.3268 19.3623C15.7124 21.2769 21.6273 25.143 25.144 27.6429C20.2402 32.4052 16.2726 38.0402 13.4509 44.1193Z" fill="#2D3B45" stroke="#152633" stroke-width="2"/>
<path fill-rule="evenodd" clip-rule="evenodd" d="M94.1444 22.3367C93.4413 23.1497 92.7153 23.8381 91.9918 24.4217C87.3288 20.6392 81.9931 17.602 76.2067 15.6023C78.2807 12.4915 81.8116 7.62602 85.5182 4.45305C91.3268 -0.519107 94.9042 7.31931 95.5639 8.96786C96.2238 10.6168 98.5199 17.2756 94.1444 22.3367Z" fill="#2D3B45" stroke="#152633" stroke-width="2"/>
</g>
<defs>
<clipPath id="clip0_1_2">
<rect width="120" height="156" fill="white" transform="translate(0.00292969 0.857178)"/>
</clipPath>
</defs>
</svg>
