<svg width="24" height="24" viewBox="0 0 24 24" fill="none" xmlns="http://www.w3.org/2000/svg">
<path d="M5.30775 21.5C4.80258 21.5 4.375 21.325 4.025 20.975C3.675 20.625 3.5 20.1974 3.5 19.6922V6.30773C3.5 5.80257 3.675 5.37498 4.025 5.02498C4.375 4.67498 4.80258 4.49998 5.30775 4.49998H6.69225V3.15374C6.69225 2.93457 6.76567 2.75157 6.9125 2.60473C7.05933 2.45807 7.24233 2.38474 7.4615 2.38474C7.68083 2.38474 7.86383 2.45807 8.0105 2.60473C8.15733 2.75157 8.23075 2.93457 8.23075 3.15374V4.49998H15.8077V3.13474C15.8077 2.9219 15.8795 2.74365 16.023 2.59998C16.1667 2.45648 16.3449 2.38474 16.5577 2.38474C16.7706 2.38474 16.9488 2.45648 17.0922 2.59998C17.2359 2.74365 17.3077 2.9219 17.3077 3.13474V4.49998H18.6923C19.1974 4.49998 19.625 4.67498 19.975 5.02498C20.325 5.37498 20.5 5.80257 20.5 6.30773V19.6922C20.5 20.1974 20.325 20.625 19.975 20.975C19.625 21.325 19.1974 21.5 18.6923 21.5H5.30775ZM5.30775 20H18.6923C18.7692 20 18.8398 19.9679 18.9038 19.9037C18.9679 19.8397 19 19.7692 19 19.6922V10.3077H5V19.6922C5 19.7692 5.03208 19.8397 5.09625 19.9037C5.16025 19.9679 5.23075 20 5.30775 20ZM5 8.80773H19V6.30773C19 6.23073 18.9679 6.16023 18.9038 6.09623C18.8398 6.03207 18.7692 5.99998 18.6923 5.99998H5.30775C5.23075 5.99998 5.16025 6.03207 5.09625 6.09623C5.03208 6.16023 5 6.23073 5 6.30773V8.80773ZM12 14.077C11.7552 14.077 11.5465 13.9907 11.374 13.8182C11.2017 13.6459 11.1155 13.4372 11.1155 13.1922C11.1155 12.9474 11.2017 12.7387 11.374 12.5662C11.5465 12.3939 11.7552 12.3077 12 12.3077C12.2448 12.3077 12.4535 12.3939 12.626 12.5662C12.7983 12.7387 12.8845 12.9474 12.8845 13.1922C12.8845 13.4372 12.7983 13.6459 12.626 13.8182C12.4535 13.9907 12.2448 14.077 12 14.077ZM8 14.077C7.75517 14.077 7.5465 13.9907 7.374 13.8182C7.20167 13.6459 7.1155 13.4372 7.1155 13.1922C7.1155 12.9474 7.20167 12.7387 7.374 12.5662C7.5465 12.3939 7.75517 12.3077 8 12.3077C8.24483 12.3077 8.4535 12.3939 8.626 12.5662C8.79833 12.7387 8.8845 12.9474 8.8845 13.1922C8.8845 13.4372 8.79833 13.6459 8.626 13.8182C8.4535 13.9907 8.24483 14.077 8 14.077ZM16 14.077C15.7552 14.077 15.5465 13.9907 15.374 13.8182C15.2017 13.6459 15.1155 13.4372 15.1155 13.1922C15.1155 12.9474 15.2017 12.7387 15.374 12.5662C15.5465 12.3939 15.7552 12.3077 16 12.3077C16.2448 12.3077 16.4535 12.3939 16.626 12.5662C16.7983 12.7387 16.8845 12.9474 16.8845 13.1922C16.8845 13.4372 16.7983 13.6459 16.626 13.8182C16.4535 13.9907 16.2448 14.077 16 14.077ZM12 18C11.7552 18 11.5465 17.9137 11.374 17.7412C11.2017 17.5689 11.1155 17.3603 11.1155 17.1155C11.1155 16.8705 11.2017 16.6618 11.374 16.4895C11.5465 16.317 11.7552 16.2307 12 16.2307C12.2448 16.2307 12.4535 16.317 12.626 16.4895C12.7983 16.6618 12.8845 16.8705 12.8845 17.1155C12.8845 17.3603 12.7983 17.5689 12.626 17.7412C12.4535 17.9137 12.2448 18 12 18ZM8 18C7.75517 18 7.5465 17.9137 7.374 17.7412C7.20167 17.5689 7.1155 17.3603 7.1155 17.1155C7.1155 16.8705 7.20167 16.6618 7.374 16.4895C7.5465 16.317 7.75517 16.2307 8 16.2307C8.24483 16.2307 8.4535 16.317 8.626 16.4895C8.79833 16.6618 8.8845 16.8705 8.8845 17.1155C8.8845 17.3603 8.79833 17.5689 8.626 17.7412C8.4535 17.9137 8.24483 18 8 18ZM16 18C15.7552 18 15.5465 17.9137 15.374 17.7412C15.2017 17.5689 15.1155 17.3603 15.1155 17.1155C15.1155 16.8705 15.2017 16.6618 15.374 16.4895C15.5465 16.317 15.7552 16.2307 16 16.2307C16.2448 16.2307 16.4535 16.317 16.626 16.4895C16.7983 16.6618 16.8845 16.8705 16.8845 17.1155C16.8845 17.3603 16.7983 17.5689 16.626 17.7412C16.4535 17.9137 16.2448 18 16 18Z" fill="#273540"/>
</svg>
