<svg width="24" height="24" viewBox="0 0 24 24" fill="none" xmlns="http://www.w3.org/2000/svg">
<path d="M10.077 18.673L5.8155 20.8328C5.51417 20.9866 5.21958 20.9773 4.93175 20.8048C4.64392 20.6323 4.5 20.3736 4.5 20.0288V8.23075C4.5 7.73208 4.67658 7.30617 5.02975 6.953C5.38308 6.59967 5.80908 6.423 6.30775 6.423H13.8365C14.3352 6.423 14.7612 6.59967 15.1145 6.953C15.4677 7.30617 15.6443 7.73208 15.6443 8.23075V20.0288C15.6443 20.3736 15.5003 20.6323 15.2125 20.8048C14.9247 20.9773 14.6301 20.9866 14.3288 20.8328L10.077 18.673ZM6 19.1865L9.223 17.4693C9.491 17.3218 9.774 17.248 10.072 17.248C10.3702 17.248 10.6533 17.3218 10.9213 17.4693L14.1443 19.1865V8.23075C14.1443 8.14108 14.1154 8.06733 14.0577 8.0095C14.0001 7.95183 13.9263 7.923 13.8365 7.923H6.30775C6.21792 7.923 6.14417 7.95183 6.0865 8.0095C6.02883 8.06733 6 8.14108 6 8.23075V19.1865ZM18.75 17.7213C18.5372 17.7213 18.359 17.6494 18.2155 17.5058C18.0718 17.3621 18 17.1839 18 16.9713V4.30775C18 4.21792 17.9712 4.14417 17.9135 4.0865C17.8558 4.02883 17.7821 4 17.6923 4H8.14425C7.93142 4 7.75325 3.92817 7.60975 3.7845C7.46608 3.641 7.39425 3.46283 7.39425 3.25C7.39425 3.03717 7.46608 2.859 7.60975 2.7155C7.75325 2.57183 7.93142 2.5 8.14425 2.5H17.6923C18.1909 2.5 18.6169 2.67658 18.9703 3.02975C19.3234 3.38308 19.5 3.80908 19.5 4.30775V16.9713C19.5 17.1839 19.4282 17.3621 19.2845 17.5058C19.141 17.6494 18.9628 17.7213 18.75 17.7213Z" fill="#273540"/>
</svg>
