<svg width="24" height="24" viewBox="0 0 24 24" fill="none" xmlns="http://www.w3.org/2000/svg">
<path d="M13.75 13.75C13.9628 13.75 14.141 13.6782 14.2845 13.5345C14.4282 13.391 14.5 13.2128 14.5 13V10.75H16.75C16.9628 10.75 17.141 10.6782 17.2845 10.5345C17.4282 10.391 17.5 10.2128 17.5 10C17.5 9.78717 17.4282 9.609 17.2845 9.4655C17.141 9.32183 16.9628 9.25 16.75 9.25H14.5V7C14.5 6.78717 14.4282 6.609 14.2845 6.4655C14.141 6.32183 13.9628 6.25 13.75 6.25C13.5372 6.25 13.359 6.32183 13.2155 6.4655C13.0718 6.609 13 6.78717 13 7V9.25H10.75C10.5372 9.25 10.359 9.32183 10.2155 9.4655C10.0718 9.609 10 9.78717 10 10C10 10.2128 10.0718 10.391 10.2155 10.5345C10.359 10.6782 10.5372 10.75 10.75 10.75H13V13C13 13.2128 13.0718 13.391 13.2155 13.5345C13.359 13.6782 13.5372 13.75 13.75 13.75ZM8.05775 17.5C7.55258 17.5 7.125 17.325 6.775 16.975C6.425 16.625 6.25 16.1974 6.25 15.6923V4.30775C6.25 3.80258 6.425 3.375 6.775 3.025C7.125 2.675 7.55258 2.5 8.05775 2.5H19.4423C19.9474 2.5 20.375 2.675 20.725 3.025C21.075 3.375 21.25 3.80258 21.25 4.30775V15.6923C21.25 16.1974 21.075 16.625 20.725 16.975C20.375 17.325 19.9474 17.5 19.4423 17.5H8.05775ZM8.05775 16H19.4423C19.5193 16 19.5898 15.9679 19.6538 15.9038C19.7179 15.8398 19.75 15.7692 19.75 15.6923V4.30775C19.75 4.23075 19.7179 4.16025 19.6538 4.09625C19.5898 4.03208 19.5193 4 19.4423 4H8.05775C7.98075 4 7.91025 4.03208 7.84625 4.09625C7.78208 4.16025 7.75 4.23075 7.75 4.30775V15.6923C7.75 15.7692 7.78208 15.8398 7.84625 15.9038C7.91025 15.9679 7.98075 16 8.05775 16ZM4.55775 21C4.05258 21 3.625 20.825 3.275 20.475C2.925 20.125 2.75 19.6974 2.75 19.1923V7.05775C2.75 6.84492 2.82183 6.66667 2.9655 6.523C3.109 6.3795 3.28717 6.30775 3.5 6.30775C3.71283 6.30775 3.89108 6.3795 4.03475 6.523C4.17825 6.66667 4.25 6.84492 4.25 7.05775V19.1923C4.25 19.2693 4.28208 19.3398 4.34625 19.4038C4.41025 19.4679 4.48075 19.5 4.55775 19.5H16.6923C16.9051 19.5 17.0833 19.5718 17.227 19.7153C17.3705 19.8589 17.4423 20.0372 17.4423 20.25C17.4423 20.4628 17.3705 20.641 17.227 20.7845C17.0833 20.9282 16.9051 21 16.6923 21H4.55775Z" fill="#273540"/>
</svg>
