<svg xmlns="http://www.w3.org/2000/svg" viewBox="0 0 24 24"><g transform="matrix(0.010416666666666666 0 0 0.010416666666666666 2 2)"><path d="M1694.176 451.765h-225.882V0h-112.941v451.765H790.647V0H677.706v451.765H338.882v112.94h112.942v169.413c0 280.207 228.028 508.235 508.235 508.235h56.47v395.294c0 93.402-76.009 169.412-169.411 169.412-93.403 0-169.412-76.01-169.412-169.412 0-155.633-126.72-282.353-282.353-282.353S113 1482.014 113 1637.647V1920h112.941v-282.353c0-93.402 76.01-169.412 169.412-169.412s169.412 76.01 169.412 169.412c0 155.633 126.72 282.353 282.353 282.353s282.353-126.72 282.353-282.353v-395.294h56.47c280.207 0 508.235-228.028 508.235-508.235V564.706h112.942V451.765h-112.942Z" fill-rule="evenodd"/></g>
</svg>