<svg width="181" height="171" viewBox="0 0 181 171" fill="none" xmlns="http://www.w3.org/2000/svg">
<g clip-path="url(#clip0_4274_29777)">
<path d="M85.7475 170.424C132.65 170.424 170.672 132.402 170.672 85.5C170.672 38.5978 132.65 0.575989 85.7475 0.575989C38.8453 0.575989 0.823486 38.5978 0.823486 85.5C0.823486 132.402 38.8453 170.424 85.7475 170.424Z" fill="#2D3B45"/>
<path fill-rule="evenodd" clip-rule="evenodd" d="M106.856 25.3176C106.29 23.3833 104.778 21.8711 102.844 21.3054C104.778 20.7397 106.29 19.2276 106.856 17.2933C107.421 19.2276 108.934 20.7397 110.868 21.3054C108.934 21.8711 107.421 23.3833 106.856 25.3176Z" fill="#FFC100"/>
<path fill-rule="evenodd" clip-rule="evenodd" d="M111.537 16.6247C111.348 15.9799 110.844 15.4758 110.199 15.2873C110.844 15.0987 111.348 14.5947 111.537 13.9499C111.725 14.5947 112.229 15.0987 112.874 15.2873C112.229 15.4758 111.725 15.9799 111.537 16.6247Z" fill="#FFC100"/>
<path fill-rule="evenodd" clip-rule="evenodd" d="M121.567 81.4878C121.19 80.1983 120.182 79.1902 118.892 78.813C120.182 78.4359 121.19 77.4278 121.567 76.1382C121.944 77.4278 122.952 78.4359 124.242 78.813C122.952 79.1902 121.944 80.1983 121.567 81.4878Z" fill="#FFD960"/>
<path fill-rule="evenodd" clip-rule="evenodd" d="M147.646 129.634C147.08 127.699 145.568 126.187 143.634 125.622C145.568 125.056 147.08 123.544 147.646 121.609C148.212 123.544 149.724 125.056 151.658 125.622C149.724 126.187 148.212 127.699 147.646 129.634Z" fill="#FFD960"/>
<path fill-rule="evenodd" clip-rule="evenodd" d="M102.175 144.345C101.421 141.766 99.4045 139.75 96.8254 138.995C99.4045 138.241 101.421 136.225 102.175 133.646C102.929 136.225 104.945 138.241 107.525 138.995C104.945 139.75 102.929 141.766 102.175 144.345Z" fill="#FFD960"/>
<path fill-rule="evenodd" clip-rule="evenodd" d="M45.3359 161.062C45.0531 160.095 44.297 159.339 43.3298 159.056C44.297 158.773 45.0531 158.017 45.3359 157.05C45.6188 158.017 46.3748 158.773 47.342 159.056C46.3748 159.339 45.6188 160.095 45.3359 161.062Z" fill="#FFD960"/>
<path fill-rule="evenodd" clip-rule="evenodd" d="M91.1414 153.707C90.7172 152.256 89.5831 151.122 88.1323 150.698C89.5831 150.273 90.7172 149.139 91.1414 147.688C91.5657 149.139 92.6998 150.273 94.1506 150.698C92.6998 151.122 91.5657 152.256 91.1414 153.707Z" fill="#FFD960"/>
<path fill-rule="evenodd" clip-rule="evenodd" d="M83.7857 145.014C83.4557 143.885 82.5737 143.003 81.4453 142.673C82.5737 142.343 83.4557 141.461 83.7857 140.333C84.1157 141.461 84.9978 142.343 86.1262 142.673C84.9978 143.003 84.1157 143.885 83.7857 145.014Z" fill="#FFD960"/>
<path fill-rule="evenodd" clip-rule="evenodd" d="M83.7857 52.734C83.4557 51.6057 82.5737 50.7236 81.4453 50.3936C82.5737 50.0636 83.4557 49.1815 83.7857 48.0532C84.1157 49.1815 84.9978 50.0636 86.1262 50.3936C84.9978 50.7236 84.1157 51.6057 83.7857 52.734Z" fill="#FFD960"/>
<path fill-rule="evenodd" clip-rule="evenodd" d="M34.6369 23.3115C34.0712 21.3772 32.5591 19.865 30.6248 19.2993C32.5591 18.7336 34.0712 17.2215 34.6369 15.2872C35.2026 17.2215 36.7148 18.7336 38.6491 19.2993C36.7148 19.865 35.2026 21.3772 34.6369 23.3115Z" fill="#FFD960"/>
<path fill-rule="evenodd" clip-rule="evenodd" d="M152.996 49.3906C152.43 47.4563 150.918 45.9441 148.983 45.3784C150.918 44.8127 152.43 43.3006 152.996 41.3663C153.561 43.3006 155.073 44.8127 157.008 45.3784C155.073 45.9441 153.561 47.4563 152.996 49.3906Z" fill="#FFD960"/>
<path fill-rule="evenodd" clip-rule="evenodd" d="M144.302 53.4027C143.925 52.1132 142.917 51.1051 141.628 50.7279C142.917 50.3508 143.925 49.3427 144.302 48.0532C144.68 49.3427 145.688 50.3508 146.977 50.7279C145.688 51.1051 144.68 52.1132 144.302 53.4027Z" fill="#FFD960"/>
<path fill-rule="evenodd" clip-rule="evenodd" d="M172.388 115.591C171.256 111.723 168.232 108.698 164.363 107.567C168.232 106.435 171.256 103.411 172.388 99.5425C173.519 103.411 176.543 106.435 180.412 107.567C176.543 108.698 173.519 111.723 172.388 115.591Z" fill="#FFD960"/>
<path fill-rule="evenodd" clip-rule="evenodd" d="M163.695 120.272C163.317 118.982 162.309 117.974 161.02 117.597C162.309 117.22 163.317 116.212 163.695 114.922C164.072 116.212 165.08 117.22 166.369 117.597C165.08 117.974 164.072 118.982 163.695 120.272Z" fill="#FFD960"/>
</g>
<defs>
<clipPath id="clip0_4274_29777">
<rect width="179.588" height="169.848" fill="white" transform="translate(0.823486 0.575989)"/>
</clipPath>
</defs>
</svg>
