<svg width="5" height="8" viewBox="0 0 5 8" fill="none" xmlns="http://www.w3.org/2000/svg">
<path d="M0.705 7.771C0.5825 7.771 0.476 7.72959 0.3855 7.64675C0.295167 7.56392 0.25 7.45475 0.25 7.31925V0.680754C0.25 0.545254 0.295667 0.436088 0.387 0.353255C0.478167 0.270421 0.584583 0.229004 0.70625 0.229004C0.73675 0.229004 0.842334 0.275755 1.023 0.369255L4.174 3.52025C4.2465 3.59259 4.29942 3.66742 4.33275 3.74475C4.36608 3.82209 4.38275 3.90717 4.38275 4C4.38275 4.09284 4.36608 4.17792 4.33275 4.25525C4.29942 4.33259 4.2465 4.40742 4.174 4.47975L1.023 7.631C0.9795 7.67434 0.930917 7.7085 0.87725 7.7335C0.82375 7.7585 0.766334 7.771 0.705 7.771Z" fill="#273540"/>
</svg>
