<svg width="24" height="24" viewBox="0 0 24 24" fill="none" xmlns="http://www.w3.org/2000/svg">
<path d="M9 17.75H15C15.2128 17.75 15.391 17.6782 15.5345 17.5345C15.6782 17.391 15.75 17.2128 15.75 17C15.75 16.7872 15.6782 16.609 15.5345 16.4655C15.391 16.3218 15.2128 16.25 15 16.25H9C8.78717 16.25 8.609 16.3218 8.4655 16.4655C8.32183 16.609 8.25 16.7872 8.25 17C8.25 17.2128 8.32183 17.391 8.4655 17.5345C8.609 17.6782 8.78717 17.75 9 17.75ZM9 13.75H15C15.2128 13.75 15.391 13.6782 15.5345 13.5345C15.6782 13.391 15.75 13.2128 15.75 13C15.75 12.7872 15.6782 12.609 15.5345 12.4655C15.391 12.3218 15.2128 12.25 15 12.25H9C8.78717 12.25 8.609 12.3218 8.4655 12.4655C8.32183 12.609 8.25 12.7872 8.25 13C8.25 13.2128 8.32183 13.391 8.4655 13.5345C8.609 13.6782 8.78717 13.75 9 13.75ZM6.30775 21.5C5.80258 21.5 5.375 21.325 5.025 20.975C4.675 20.625 4.5 20.1974 4.5 19.6923V4.30775C4.5 3.80258 4.675 3.375 5.025 3.025C5.375 2.675 5.80258 2.5 6.30775 2.5H13.502C13.743 2.5 13.9748 2.54683 14.1973 2.6405C14.4196 2.734 14.6128 2.86283 14.777 3.027L18.973 7.223C19.1372 7.38717 19.266 7.58042 19.3595 7.80275C19.4532 8.02525 19.5 8.257 19.5 8.498V19.6923C19.5 20.1974 19.325 20.625 18.975 20.975C18.625 21.325 18.1974 21.5 17.6923 21.5H6.30775ZM13.5 7.596V4H6.30775C6.23075 4 6.16025 4.03208 6.09625 4.09625C6.03208 4.16025 6 4.23075 6 4.30775V19.6923C6 19.7693 6.03208 19.8398 6.09625 19.9038C6.16025 19.9679 6.23075 20 6.30775 20H17.6923C17.7692 20 17.8398 19.9679 17.9038 19.9038C17.9679 19.8398 18 19.7693 18 19.6923V8.5H14.404C14.1462 8.5 13.9311 8.41375 13.7587 8.24125C13.5862 8.06892 13.5 7.85383 13.5 7.596Z" fill="#273540"/>
</svg>
