<svg width="24" height="24" viewBox="0 0 24 24" fill="none" xmlns="http://www.w3.org/2000/svg">
<path d="M6.00002 20.6153C5.00585 20.6153 4.15477 20.2613 3.44677 19.5533C2.73877 18.8453 2.38477 17.9942 2.38477 17C2.38477 16.0058 2.73877 15.1548 3.44677 14.4468C4.15477 13.7388 5.00585 13.3848 6.00002 13.3848C6.99418 13.3848 7.84527 13.7388 8.55327 14.4468C9.26127 15.1548 9.61526 16.0058 9.61526 17C9.61526 17.9942 9.26127 18.8453 8.55327 19.5533C7.84527 20.2613 6.99418 20.6153 6.00002 20.6153ZM18 20.6153C17.0058 20.6153 16.1548 20.2613 15.4468 19.5533C14.7388 18.8453 14.3848 17.9942 14.3848 17C14.3848 16.0058 14.7388 15.1548 15.4468 14.4468C16.1548 13.7388 17.0058 13.3848 18 13.3848C18.9942 13.3848 19.8453 13.7388 20.5533 14.4468C21.2613 15.1548 21.6153 16.0058 21.6153 17C21.6153 17.9942 21.2613 18.8453 20.5533 19.5533C19.8453 20.2613 18.9942 20.6153 18 20.6153ZM12 14.7078C11.5243 14.7078 11.1208 14.542 10.7895 14.2105C10.458 13.8792 10.2923 13.4757 10.2923 13C10.2923 12.5243 10.458 12.1208 10.7895 11.7895C11.1208 11.458 11.5243 11.2923 12 11.2923C12.4757 11.2923 12.8792 11.458 13.2105 11.7895C13.542 12.1208 13.7078 12.5243 13.7078 13C13.7078 13.4757 13.542 13.8792 13.2105 14.2105C12.8792 14.542 12.4757 14.7078 12 14.7078ZM12 9.61526C11.0058 9.61526 10.1548 9.26127 9.44677 8.55327C8.73877 7.84527 8.38477 6.99418 8.38477 6.00002C8.38477 5.00585 8.73877 4.15477 9.44677 3.44677C10.1548 2.73877 11.0058 2.38477 12 2.38477C12.9942 2.38477 13.8453 2.73877 14.5533 3.44677C15.2613 4.15477 15.6153 5.00585 15.6153 6.00002C15.6153 6.99418 15.2613 7.84527 14.5533 8.55327C13.8453 9.26127 12.9942 9.61526 12 9.61526Z" fill="#273540"/>
</svg>
