<svg xmlns="http://www.w3.org/2000/svg" viewBox="0 0 24 24"><g transform="matrix(0.010416666666666666 0 0 0.010416666666666666 2 2)"><path d="M1386.667 426.003c0-88.213-71.787-160-160-160H160c-88.213 0-160 71.787-160 160v160h1386.667v-160zm517.706 602.293-320-320-75.413 75.414 228.907 229.013h-351.254v106.613h-533.28V1012.67h533.334v-320H0v800c0 88.533 71.467 160 160 160h1066.667c88.533 0 160-71.467 160-160v-373.28h351.2l-228.907 228.906 75.413 75.414 320-320c20.8-20.8 20.8-54.613 0-75.414" fill-rule="evenodd"/></g>
</svg>