<svg width="24" height="24" viewBox="0 0 24 24" fill="none" xmlns="http://www.w3.org/2000/svg">
<path d="M8 19.5C7.7875 19.5 7.60942 19.428 7.46575 19.2842C7.32192 19.1404 7.25 18.9622 7.25 18.7497C7.25 18.537 7.32192 18.359 7.46575 18.2155C7.60942 18.0718 7.7875 18 8 18H16C16.2125 18 16.3906 18.0719 16.5343 18.2157C16.6781 18.3595 16.75 18.5377 16.75 18.7502C16.75 18.9629 16.6781 19.141 16.5343 19.2845C16.3906 19.4281 16.2125 19.5 16 19.5H8ZM11.9997 15.8077C11.7871 15.8077 11.609 15.7358 11.4655 15.592C11.3218 15.4483 11.25 15.2702 11.25 15.0577V7.3537L8.90775 9.6807C8.76925 9.8192 8.59933 9.88937 8.398 9.8912C8.19683 9.8932 8.02133 9.81987 7.8715 9.6712C7.73417 9.53487 7.6655 9.36137 7.6655 9.1507C7.6655 8.94004 7.73467 8.76545 7.873 8.62695L11.3672 5.1327C11.4609 5.03904 11.5601 4.97304 11.6648 4.9347C11.7694 4.8962 11.8816 4.87695 12.0012 4.87695C12.1209 4.87695 12.2327 4.8962 12.3365 4.9347C12.4403 4.97304 12.5391 5.03904 12.6328 5.1327L16.1365 8.63645C16.275 8.77495 16.3468 8.94487 16.352 9.1462C16.357 9.34737 16.2852 9.52287 16.1365 9.6727C16.0002 9.81004 15.8267 9.8787 15.616 9.8787C15.4053 9.8787 15.2308 9.80954 15.0923 9.6712L12.75 7.3537V15.0577C12.75 15.2702 12.6781 15.4483 12.5342 15.592C12.3904 15.7358 12.2122 15.8077 11.9997 15.8077Z" fill="#273540"/>
</svg>
