<svg width="24" height="24" viewBox="0 0 24 24" fill="none" xmlns="http://www.w3.org/2000/svg">
<path d="M3.24975 17.75C3.03708 17.75 2.859 17.6781 2.7155 17.5343C2.57183 17.3906 2.5 17.2125 2.5 17V7C2.5 6.7875 2.57192 6.60942 2.71575 6.46575C2.85958 6.32192 3.03775 6.25 3.25025 6.25C3.46292 6.25 3.641 6.32192 3.7845 6.46575C3.92817 6.60942 4 6.7875 4 7V17C4 17.2125 3.92808 17.3906 3.78425 17.5343C3.64042 17.6781 3.46225 17.75 3.24975 17.75ZM18.6365 12.75H6.94225C6.72975 12.75 6.55167 12.6781 6.408 12.5342C6.26417 12.3904 6.19225 12.2122 6.19225 11.9997C6.19225 11.7871 6.26417 11.609 6.408 11.4655C6.55167 11.3218 6.72975 11.25 6.94225 11.25H18.627L15.3288 7.91725C15.1904 7.77875 15.1202 7.60892 15.1182 7.40775C15.1164 7.20642 15.1898 7.03083 15.3385 6.881C15.4748 6.74367 15.6483 6.675 15.859 6.675C16.0697 6.675 16.2443 6.74425 16.3828 6.88275L20.8673 11.3672C20.9609 11.4609 21.0269 11.5601 21.0653 11.6648C21.1038 11.7694 21.123 11.8816 21.123 12.0012C21.123 12.1209 21.1038 12.2327 21.0653 12.3365C21.0269 12.4403 20.9609 12.5391 20.8673 12.6328L16.373 17.127C16.2362 17.2653 16.0651 17.3345 15.8598 17.3345C15.6546 17.3345 15.4776 17.2653 15.3288 17.127C15.1738 16.9782 15.0978 16.7999 15.101 16.5922C15.1042 16.3846 15.1801 16.2064 15.3288 16.0577L18.6365 12.75Z" fill="#273540"/>
</svg>
