<svg width="24" height="24" viewBox="0 0 24 24" fill="none" xmlns="http://www.w3.org/2000/svg">
<path d="M4.05775 20.75C3.55908 20.75 3.13308 20.5734 2.77975 20.2202C2.42658 19.8669 2.25 19.4409 2.25 18.9422V4.148C2.25 4.04416 2.29517 3.97308 2.3855 3.93475C2.476 3.89625 2.55967 3.91542 2.6365 3.99225L3.675 5.03075L5.00375 3.677C5.09742 3.58333 5.2045 3.5365 5.325 3.5365C5.4455 3.5365 5.55258 3.58333 5.64625 3.677L7 5.03075L8.35375 3.677C8.44742 3.58333 8.5545 3.5365 8.675 3.5365C8.7955 3.5365 8.90258 3.58333 8.99625 3.677L10.325 5.03075L11.6788 3.677C11.7724 3.58333 11.8795 3.5365 12 3.5365C12.1205 3.5365 12.2276 3.58333 12.3212 3.677L13.675 5.03075L15.0038 3.677C15.0974 3.58333 15.2045 3.5365 15.325 3.5365C15.4455 3.5365 15.5526 3.58333 15.6462 3.677L17 5.03075L18.3538 3.677C18.4474 3.58333 18.5545 3.5365 18.675 3.5365C18.7955 3.5365 18.9026 3.58333 18.9963 3.677L20.325 5.03075L21.3635 3.99225C21.4403 3.91542 21.524 3.89625 21.6145 3.93475C21.7048 3.97308 21.75 4.04416 21.75 4.148V18.9422C21.75 19.4409 21.5734 19.8669 21.2203 20.2202C20.8669 20.5734 20.4409 20.75 19.9423 20.75H4.05775ZM4.05775 19.25H11.25V12.75H3.75V18.9422C3.75 19.0321 3.77883 19.1058 3.8365 19.1635C3.89417 19.2212 3.96792 19.25 4.05775 19.25ZM12.75 19.25H19.9423C20.0321 19.25 20.1058 19.2212 20.1635 19.1635C20.2212 19.1058 20.25 19.0321 20.25 18.9422V16.75H12.75V19.25ZM12.75 15.25H20.25V12.75H12.75V15.25ZM3.75 11.25H20.25V7.65375H3.75V11.25Z" fill="#273540"/>
</svg>
