<svg xmlns="http://www.w3.org/2000/svg" viewBox="0 0 24 24"><g transform="matrix(0.010416666666666666 0 0 0.010416666666666666 2 2)"><path d="M533.333 560v160H240l.008 453.33 209.066 213.34H1470.93l209.06-213.34L1680 720h-293.33V560h352c55.96 0 101.33 45.368 101.33 101.333v511.997h16c35.35 0 64 28.66 64 64V1856c0 35.35-28.65 64-64 64H64c-35.346 0-64-28.65-64-64v-618.67c0-35.34 28.654-64 64-64h16V661.333C80 605.368 125.369 560 181.333 560h352ZM960 0l376.57 376.569-113.14 113.137L1040 306.275v867.055H879.999l-.001-867.055-183.43 183.431-113.137-113.138L960 0Z"/></g>
</svg>