<svg width="139" height="170" viewBox="0 0 139 170" fill="none" xmlns="http://www.w3.org/2000/svg">
<g clip-path="url(#clip0_4274_29821)">
<path fill-rule="evenodd" clip-rule="evenodd" d="M41.4026 155.252L136.859 156.218C137.411 156.224 137.854 156.676 137.848 157.229C137.845 157.551 137.687 157.852 137.423 158.037L123.441 167.843C122.6 168.433 121.598 168.75 120.57 168.75H3.80151C3.24923 168.75 2.80151 168.302 2.80151 167.75C2.80151 167.31 3.08862 166.922 3.50901 166.794L41.0999 155.295C41.198 155.265 41.3 155.25 41.4026 155.252Z" fill="black" fill-opacity="0.05"/>
<path fill-rule="evenodd" clip-rule="evenodd" d="M65.3369 70.2733C66.083 75.4404 67.1749 87.0984 63.7163 96.4952C59.1301 108.956 46.6656 103.106 44.4165 96.561C42.3182 90.4564 48.846 81.1526 61.9506 70.0263C63.0657 70.1339 64.1959 70.215 65.3369 70.2733Z" fill="#2D3B45" stroke="#152633" stroke-width="2"/>
<path fill-rule="evenodd" clip-rule="evenodd" d="M117.509 25.6533C118.857 25.0937 120.302 24.2901 121.749 23.1332C127.311 18.6833 126.199 11.2668 125.828 9.41269C125.457 7.55857 123.232 -1.34119 116.186 2.73787C111.636 5.3722 106.934 9.85991 104.172 12.7104C109.406 16.1962 113.938 20.6275 117.509 25.6533Z" fill="#2D3B45" stroke="#152633" stroke-width="2"/>
<path fill-rule="evenodd" clip-rule="evenodd" d="M39.1893 23.4053C39.9613 24.0231 40.733 24.5237 41.485 24.9305C45.069 20.728 49.3862 17.0869 54.2848 14.3087C51.8874 11.8427 47.8788 8.03358 43.9948 5.78491C37.9077 2.2606 35.9854 9.94963 35.665 11.5516C35.3446 13.1535 34.3834 19.561 39.1893 23.4053Z" fill="#2D3B45" stroke="#152633" stroke-width="2"/>
<path fill-rule="evenodd" clip-rule="evenodd" d="M56.3573 79.6008C54.0845 86.0505 54.0845 92.0508 54.0845 94.5327C54.0845 111.019 68.6115 124.384 86.5315 124.384C104.452 124.384 131.076 101.781 108.324 74.5337C99.4472 81.4844 62.8845 81.7701 56.3573 79.6008Z" fill="white" stroke="#152633" stroke-width="2"/>
<path fill-rule="evenodd" clip-rule="evenodd" d="M102.295 77.8507C100.703 84.0693 107.938 85.0913 103.331 97.8885C97.1127 115.162 116.998 117.731 122.333 108.944C128.206 99.2704 123.715 74.0504 109.204 75.0869C106.901 76.0082 104.598 76.9294 102.295 77.8507Z" fill="#2D3B45" stroke="#152633" stroke-width="2"/>
<path fill-rule="evenodd" clip-rule="evenodd" d="M32.7622 49.8215C32.7622 71.3292 52.2034 82.8248 78.9297 82.8248C105.656 82.8248 127.322 69.8459 127.322 50.5631C127.322 26.6016 105.656 3.46851 78.9297 3.46851C52.2034 3.46851 32.7622 27.2012 32.7622 49.8215Z" fill="white" stroke="#152633" stroke-width="2"/>
<path d="M76.9496 76.6159C79.3323 76.6159 81.2639 75.1471 81.2639 73.3353C81.2639 71.5235 79.3323 70.0547 76.9496 70.0547C74.5669 70.0547 72.6353 71.5235 72.6353 73.3353C72.6353 75.1471 74.5669 76.6159 76.9496 76.6159Z" fill="#152633"/>
<path fill-rule="evenodd" clip-rule="evenodd" d="M79.3393 62.6149C79.3393 64.5606 76.102 66.1377 72.1083 66.1377C68.1145 66.1377 64.8772 64.5606 64.8772 62.6149C64.8772 60.6692 68.1145 59.092 72.1083 59.092C76.102 59.092 79.3393 60.6692 79.3393 62.6149Z" fill="#152633"/>
<path fill-rule="evenodd" clip-rule="evenodd" d="M117.636 45.0005C117.636 50.3794 116.252 53.9367 113.862 56.1837C110.967 58.9056 106.68 59.6882 101.949 59.6882C96.9294 59.6882 91.299 58.8198 87.3747 55.8013C84.4672 53.5649 82.5532 50.1235 82.5532 45.0005C82.5532 38.2173 84.0395 29.9392 87.5109 24.0006C90.076 19.6124 93.7445 16.4922 98.8021 16.4922C103.918 16.4922 108.241 19.9362 111.453 24.7157C115.353 30.5176 117.636 38.3469 117.636 45.0005Z" fill="#2D3B45" stroke="#152633" stroke-width="2"/>
<path fill-rule="evenodd" clip-rule="evenodd" d="M91.651 54.5444C90.0106 55.0954 88.0648 53.1614 87.3051 50.2249C86.545 47.2884 87.2587 44.4615 88.8994 43.9109C90.5397 43.3599 92.4856 45.2939 93.2453 48.2304C94.0053 51.1669 93.2913 53.9938 91.651 54.5444Z" fill="white"/>
<path fill-rule="evenodd" clip-rule="evenodd" d="M67.3666 31.296C68.1118 38.9222 66.7741 47.5538 63.0965 51.8035C61.4701 53.6829 59.4287 54.8487 57.2572 55.3935C54.8613 55.9947 52.309 55.8435 49.9744 55.0696C47.6489 54.2987 45.5361 52.9087 44.0138 51.011C42.6378 49.2957 41.7484 47.1644 41.6256 44.7085C41.2472 37.1393 43.6442 29.7078 47.2868 24.3965C49.1627 21.6612 51.3671 19.4889 53.6991 18.1818C55.7775 17.0169 57.9555 16.5455 60.0654 17.0491C62.0072 17.5125 63.5215 19.1129 64.6865 21.2976C66.108 23.9632 66.997 27.5139 67.3666 31.296Z" fill="#2D3B45" stroke="#152633" stroke-width="2"/>
<path fill-rule="evenodd" clip-rule="evenodd" d="M60.6332 48.0744C59.9807 50.7306 58.3093 52.4802 56.9005 51.9818C55.4917 51.4834 54.8785 48.9262 55.531 46.27C56.1837 43.6138 57.8549 41.8642 59.2634 42.3626C60.6724 42.861 61.2857 45.4182 60.6332 48.0744Z" fill="white"/>
<path d="M113.38 47.5106L120.796 40.7114" stroke="#152633" stroke-width="2"/>
<path d="M36.1326 40.8329L33.4241 35.5151C33.064 34.8081 33.3452 33.9431 34.0522 33.583C34.3463 33.4332 34.6829 33.3893 35.0055 33.4585" stroke="#152633" stroke-width="2" stroke-linecap="round" stroke-linejoin="round"/>
<path d="M128.91 49.0061C130.946 46.6645 130.603 43.0335 128.144 40.8962C125.685 38.7588 121.876 39.27 119.84 41.6117" stroke="#152633" stroke-width="2" stroke-linecap="round" stroke-linejoin="round"/>
<path d="M67.5279 44.3391L67.7296 43.1832L80.8675 44.1309L80.6657 45.2868L67.5279 44.3391Z" fill="#152633"/>
<path fill-rule="evenodd" clip-rule="evenodd" d="M83.2524 40.1372L111.758 42.1305C113.127 42.2262 114.157 43.4345 114.06 44.8293L113.265 56.1939C113.167 57.5887 111.979 58.6418 110.61 58.5461L82.1045 56.5528C80.7355 56.4571 79.7049 55.2488 79.8024 53.854L80.5971 42.4893C80.6946 41.0946 81.8834 40.0415 83.2524 40.1372Z" fill="#E5F2F8" fill-opacity="0.1" stroke="#F361BD" stroke-width="2"/>
<path fill-rule="evenodd" clip-rule="evenodd" d="M39.684 37.0905L65.6711 38.9077C67.038 39.0033 68.067 40.2115 67.9695 41.6063L67.1748 52.9709C67.0773 54.3657 65.8901 55.4189 64.5232 55.3234L38.5361 53.5062C37.1692 53.4106 36.1402 52.2024 36.2377 50.8076L37.0324 39.443C37.1299 38.0482 38.3171 36.995 39.684 37.0905Z" fill="#E5F2F8" fill-opacity="0.1" stroke="#F361BD" stroke-width="2"/>
<path opacity="0.5" d="M1.78516 116.385C2.75752 116.461 3.75132 116.5 4.76179 116.5C16.3598 116.5 25.7618 111.351 25.7618 105C25.7618 103.02 24.8482 101.157 23.2393 99.5308" stroke="#DFB271" stroke-width="2"/>
<path d="M118.762 99.5H1.76172V163.5H118.762V99.5Z" fill="#B78762"/>
<path opacity="0.5" d="M89.1333 99.158C87.6064 99.8776 83.7617 103.5 86.7617 112C89.7617 120.5 97.7617 107.5 117.762 113" stroke="#DFB271" stroke-width="2"/>
<path opacity="0.5" d="M1.76172 123C21.644 123 29.7617 157 62.7617 123C70.2764 115.258 72.5476 106.956 71.3389 100.296" stroke="#DFB271" stroke-width="2"/>
<path opacity="0.5" d="M1.76172 133.791C21.644 133.791 29.7617 186.261 62.7617 133.791C70.2764 121.842 80.5476 110.574 79.3389 100.296" stroke="#DFB271" stroke-width="2"/>
<path opacity="0.5" d="M118.262 134C81.2617 129 78.3173 140.831 70.2617 147.401C38.2617 173.5 21.2617 155 3.26172 161.593" stroke="#DFB271" stroke-width="2"/>
<path opacity="0.5" d="M118.762 142.5C101.262 137.5 92.9831 145.018 81.7617 154.5C72.9127 161.978 67.4644 156.066 55.7617 163" stroke="#DFB271" stroke-width="2"/>
<path opacity="0.5" d="M118.762 154.951C99.2617 141 95.7617 155.651 92.7617 163" stroke="#DFB271" stroke-width="2"/>
<path d="M118.762 99.5H1.76172V163.5H118.762V99.5Z" stroke="#152633" stroke-width="2" stroke-linejoin="round"/>
<path fill-rule="evenodd" clip-rule="evenodd" d="M9.76172 93.5H126.762L118.762 99.5H1.76172L9.76172 93.5Z" fill="#AF794F" stroke="#152633" stroke-width="2" stroke-linejoin="round"/>
<path fill-rule="evenodd" clip-rule="evenodd" d="M118.762 99.5L126.762 93.5V157.5L118.762 163.5V99.5Z" fill="#AF794F" stroke="#152633" stroke-width="2" stroke-linejoin="round"/>
</g>
<defs>
<clipPath id="clip0_4274_29821">
<rect width="138" height="169" fill="white" transform="translate(0.00292969 0.5)"/>
</clipPath>
</defs>
</svg>
