<svg width="24" height="24" viewBox="0 0 24 24" fill="none" xmlns="http://www.w3.org/2000/svg">
<path d="M5.30775 20.5C4.80908 20.5 4.38308 20.3234 4.02975 19.9703C3.67658 19.6169 3.5 19.1909 3.5 18.6923V5.30775C3.5 4.80908 3.67658 4.38308 4.02975 4.02975C4.38308 3.67658 4.80908 3.5 5.30775 3.5H17.6288C17.8416 3.5 18.0198 3.57183 18.1635 3.7155C18.307 3.859 18.3788 4.03717 18.3788 4.25C18.3788 4.46283 18.307 4.641 18.1635 4.7845C18.0198 4.92817 17.8416 5 17.6288 5H5.30775C5.21792 5 5.14417 5.02883 5.0865 5.0865C5.02883 5.14417 5 5.21792 5 5.30775V18.6923C5 18.7821 5.02883 18.8558 5.0865 18.9135C5.14417 18.9712 5.21792 19 5.30775 19H18.6923C18.7821 19 18.8558 18.9712 18.9135 18.9135C18.9712 18.8558 19 18.7821 19 18.6923V12.1442C19 11.9314 19.0718 11.7532 19.2155 11.6095C19.359 11.466 19.5372 11.3942 19.75 11.3942C19.9628 11.3942 20.141 11.466 20.2845 11.6095C20.4282 11.7532 20.5 11.9314 20.5 12.1442V18.6923C20.5 19.1909 20.3234 19.6169 19.9703 19.9703C19.6169 20.3234 19.1909 20.5 18.6923 20.5H5.30775ZM11.5345 14.5463L20.0155 6.0655C20.1538 5.927 20.3227 5.85775 20.522 5.85775C20.7215 5.85775 20.8956 5.927 21.0443 6.0655C21.1929 6.20383 21.2673 6.37783 21.2673 6.5875C21.2673 6.79717 21.1929 6.97633 21.0443 7.125L12.1578 16.0115C11.9769 16.1923 11.766 16.2828 11.525 16.2828C11.284 16.2828 11.0731 16.1923 10.8923 16.0115L6.95 12.0693C6.8115 11.9307 6.74067 11.7568 6.7375 11.5473C6.73433 11.3376 6.80517 11.1603 6.95 11.0155C7.09483 10.8705 7.2705 10.798 7.477 10.798C7.68333 10.798 7.85892 10.8705 8.00375 11.0155L11.5345 14.5463Z" fill="#273540"/>
</svg>
