<svg width="24" height="24" viewBox="0 0 24 24" fill="none" xmlns="http://www.w3.org/2000/svg">
<path d="M18.6923 21.5H15.7788C15.5659 21.5 15.3878 21.4282 15.2443 21.2845C15.1006 21.141 15.0288 20.9628 15.0288 20.75C15.0288 20.5372 15.1006 20.359 15.2443 20.2155C15.3878 20.0718 15.5659 20 15.7788 20H18.6923C18.7693 20 18.8398 19.9679 18.9038 19.9038C18.9679 19.8398 19 19.7693 19 19.6923V10.3078H5V13.5C5 13.7128 4.92817 13.8911 4.7845 14.0348C4.641 14.1783 4.46283 14.25 4.25 14.25C4.03717 14.25 3.859 14.1783 3.7155 14.0348C3.57183 13.8911 3.5 13.7128 3.5 13.5V6.30777C3.5 5.8026 3.675 5.37502 4.025 5.02502C4.375 4.67502 4.80258 4.50002 5.30775 4.50002H6.69225V3.15377C6.69225 2.9346 6.76567 2.7516 6.9125 2.60477C7.05933 2.4581 7.24233 2.38477 7.4615 2.38477C7.68083 2.38477 7.86383 2.4581 8.0105 2.60477C8.15733 2.7516 8.23075 2.9346 8.23075 3.15377V4.50002H15.8077V3.13477C15.8077 2.92193 15.8795 2.74368 16.023 2.60002C16.1667 2.45652 16.3449 2.38477 16.5577 2.38477C16.7706 2.38477 16.9488 2.45652 17.0922 2.60002C17.2359 2.74368 17.3078 2.92193 17.3078 3.13477V4.50002H18.6923C19.1974 4.50002 19.625 4.67502 19.975 5.02502C20.325 5.37502 20.5 5.8026 20.5 6.30777V19.6923C20.5 20.1974 20.325 20.625 19.975 20.975C19.625 21.325 19.1974 21.5 18.6923 21.5ZM9.77125 19.75H2C1.78717 19.75 1.609 19.6782 1.4655 19.5345C1.32183 19.391 1.25 19.2128 1.25 19C1.25 18.7872 1.32183 18.609 1.4655 18.4655C1.609 18.3218 1.78717 18.25 2 18.25H9.77125L7.473 15.9173C7.33467 15.7788 7.26292 15.6089 7.25775 15.4078C7.25258 15.2064 7.32433 15.0314 7.473 14.8828C7.6115 14.7443 7.78558 14.675 7.99525 14.675C8.20475 14.675 8.37875 14.7443 8.51725 14.8828L12.0115 18.3673C12.1923 18.5481 12.2828 18.759 12.2828 19C12.2828 19.241 12.1923 19.4519 12.0115 19.6328L8.51725 23.127C8.37875 23.2653 8.20733 23.3355 8.003 23.3375C7.7985 23.3393 7.62183 23.2659 7.473 23.1173C7.33467 22.9788 7.2655 22.8063 7.2655 22.6C7.2655 22.3937 7.33467 22.2213 7.473 22.0828L9.77125 19.75ZM5 8.80777H19V6.30777C19 6.23077 18.9679 6.16026 18.9038 6.09626C18.8398 6.0321 18.7693 6.00002 18.6923 6.00002H5.30775C5.23075 6.00002 5.16025 6.0321 5.09625 6.09626C5.03208 6.16026 5 6.23077 5 6.30777V8.80777Z" fill="#273540"/>
</svg>
