<svg width="24" height="24" viewBox="0 0 24 24" fill="none" xmlns="http://www.w3.org/2000/svg">
<path d="M15.8444 11.848L12.1714 8.17496C12.0777 8.08146 12.0116 7.9823 11.9731 7.87746C11.9348 7.7728 11.9156 7.66063 11.9156 7.54096C11.9156 7.4213 11.9348 7.30955 11.9731 7.20571C12.0116 7.10188 12.0777 7.00321 12.1714 6.90971L15.8444 3.23646C15.9379 3.14296 16.037 3.07696 16.1419 3.03846C16.2465 2.99996 16.3587 2.98071 16.4784 2.98071C16.598 2.98071 16.7098 2.99996 16.8136 3.03846C16.9174 3.07696 17.0161 3.14296 17.1096 3.23646L20.7829 6.90971C20.8764 7.00321 20.9424 7.1023 20.9809 7.20696C21.0194 7.31163 21.0386 7.4238 21.0386 7.54346C21.0386 7.66313 21.0194 7.77488 20.9809 7.87871C20.9424 7.98271 20.8764 8.08146 20.7829 8.17496L17.1096 11.848C17.0161 11.9416 16.917 12.0076 16.8124 12.046C16.7075 12.0845 16.5954 12.1037 16.4759 12.1037C16.3562 12.1037 16.2444 12.0845 16.1404 12.046C16.0365 12.0076 15.9379 11.9416 15.8444 11.848ZM3.80786 9.90371V4.71146C3.80786 4.45546 3.89444 4.2408 4.06761 4.06746C4.24094 3.8943 4.45561 3.80771 4.71161 3.80771H9.90386C10.16 3.80771 10.3747 3.8943 10.5479 4.06746C10.7212 4.2408 10.8079 4.45546 10.8079 4.71146V9.90371C10.8079 10.1599 10.7212 10.3745 10.5479 10.5477C10.3747 10.721 10.16 10.8077 9.90386 10.8077H4.71161C4.45561 10.8077 4.24094 10.721 4.06761 10.5477C3.89444 10.3745 3.80786 10.1599 3.80786 9.90371ZM13.1924 19.2885V14.0962C13.1924 13.84 13.279 13.6254 13.4524 13.4522C13.6255 13.2789 13.8402 13.1922 14.0964 13.1922H19.2886C19.5446 13.1922 19.7593 13.2789 19.9326 13.4522C20.1058 13.6254 20.1924 13.84 20.1924 14.0962V19.2885C20.1924 19.5445 20.1058 19.7591 19.9326 19.9325C19.7593 20.1056 19.5446 20.1922 19.2886 20.1922H14.0964C13.8402 20.1922 13.6255 20.1056 13.4524 19.9325C13.279 19.7591 13.1924 19.5445 13.1924 19.2885ZM3.80786 19.2885V14.0962C3.80786 13.84 3.89444 13.6254 4.06761 13.4522C4.24094 13.2789 4.45561 13.1922 4.71161 13.1922H9.90386C10.16 13.1922 10.3747 13.2789 10.5479 13.4522C10.7212 13.6254 10.8079 13.84 10.8079 14.0962V19.2885C10.8079 19.5445 10.7212 19.7591 10.5479 19.9325C10.3747 20.1056 10.16 20.1922 9.90386 20.1922H4.71161C4.45561 20.1922 4.24094 20.1056 4.06761 19.9325C3.89444 19.7591 3.80786 19.5445 3.80786 19.2885Z" fill="#273540"/>
</svg>
