<svg width="24" height="24" viewBox="0 0 24 24" fill="none" xmlns="http://www.w3.org/2000/svg">
<path d="M11.1 3.25V12.155C11.1 12.224 11.044 12.28 10.975 12.28C10.906 12.28 10.85 12.224 10.85 12.155V5.43C10.85 4.73964 10.2904 4.18 9.60001 4.18C8.90965 4.18 8.35001 4.73964 8.35001 5.43V10.6175L8.3493 10.6167V13.1614C8.21785 13.0114 8.08937 12.866 7.96353 12.7236C7.68851 12.4123 7.42569 12.1148 7.16984 11.8121C6.82157 11.4003 6.3894 11.174 5.85219 11.1261C5.00408 11.05 4.17923 11.6668 4.02906 12.5058C3.93036 13.0606 4.09322 13.5661 4.36394 14.0349C4.74675 14.6962 5.14296 15.3504 5.55186 15.9962C5.79174 16.3746 6.03826 16.7491 6.28469 17.1234C6.69433 17.7457 7.10418 18.3683 7.48356 19.0087C7.84984 19.6265 8.17179 20.271 8.49355 20.9152C8.60647 21.1413 8.71952 21.3676 8.83434 21.5925C8.97181 21.8625 9.1678 22.0007 9.47871 22C11.2282 21.9971 12.9778 21.9972 14.7275 21.9973H14.7462C15.5186 21.9973 16.2912 21.9974 17.0638 21.9972C17.3973 21.9972 17.6144 21.8527 17.7025 21.5446C17.7714 21.3035 17.8406 21.0625 17.9098 20.8216C18.1883 19.8518 18.4669 18.8818 18.7255 17.9061C18.9264 17.1461 19.0949 16.3734 19.0977 15.5803L19.0982 15.3659C19.1012 14.8272 19.1117 13.5109 19.1227 12.1302L19.1 7.92188V7.33C19.1 6.63964 18.5404 6.08 17.85 6.08C17.1597 6.08 16.6 6.63964 16.6 7.33V13.755C16.6 13.824 16.544 13.88 16.475 13.88C16.406 13.88 16.35 13.824 16.35 13.755V4.6C16.35 3.90964 15.7904 3.35 15.1 3.35C14.4096 3.35 13.85 3.90964 13.85 4.6L13.85 12.955C13.85 13.024 13.794 13.08 13.725 13.08C13.656 13.08 13.6 13.024 13.6 12.955V3.24618C13.5979 2.55758 13.0391 2 12.35 2C11.6596 2 11.1 2.55964 11.1 3.25Z" fill="#BF3C36"/>
<path d="M11.1 3.25V12.155C11.1 12.224 11.044 12.28 10.975 12.28C10.906 12.28 10.85 12.224 10.85 12.155V5.43C10.85 4.73964 10.2904 4.18 9.60001 4.18C8.90965 4.18 8.35001 4.73964 8.35001 5.43V10.6175L8.3493 10.6167V13.1614C8.21785 13.0114 8.08937 12.866 7.96353 12.7236C7.68851 12.4123 7.42569 12.1148 7.16984 11.8121C6.82157 11.4003 6.3894 11.174 5.85219 11.1261C5.00408 11.05 4.17923 11.6668 4.02906 12.5058C3.93036 13.0606 4.09322 13.5661 4.36394 14.0349C4.74675 14.6962 5.14296 15.3504 5.55186 15.9962C5.79174 16.3746 6.03826 16.7491 6.28469 17.1234C6.69433 17.7457 7.10418 18.3683 7.48356 19.0087C7.84984 19.6265 8.17179 20.271 8.49355 20.9152C8.60647 21.1413 8.71952 21.3676 8.83434 21.5925C8.97181 21.8625 9.1678 22.0007 9.47871 22C11.2282 21.9971 12.9778 21.9972 14.7275 21.9973H14.7462C15.5186 21.9973 16.2912 21.9974 17.0638 21.9972C17.3973 21.9972 17.6144 21.8527 17.7025 21.5446C17.7714 21.3035 17.8406 21.0625 17.9098 20.8216C18.1883 19.8518 18.4669 18.8818 18.7255 17.9061C18.9264 17.1461 19.0949 16.3734 19.0977 15.5803L19.0982 15.3659C19.1012 14.8272 19.1117 13.5109 19.1227 12.1302L19.1 7.92188V7.33C19.1 6.63964 18.5404 6.08 17.85 6.08C17.1597 6.08 16.6 6.63964 16.6 7.33V13.755C16.6 13.824 16.544 13.88 16.475 13.88C16.406 13.88 16.35 13.824 16.35 13.755V4.6C16.35 3.90964 15.7904 3.35 15.1 3.35C14.4096 3.35 13.85 3.90964 13.85 4.6L13.85 12.955C13.85 13.024 13.794 13.08 13.725 13.08C13.656 13.08 13.6 13.024 13.6 12.955V3.24618C13.5979 2.55758 13.0391 2 12.35 2C11.6596 2 11.1 2.55964 11.1 3.25Z" fill="#BF3C36"/>
</svg>
