<svg width="24" height="24" viewBox="0 0 24 24" fill="none" xmlns="http://www.w3.org/2000/svg">
<path d="M12 16.5115L16.073 12.4538C16.2115 12.3154 16.383 12.2421 16.5875 12.2338C16.792 12.2254 16.9718 12.2988 17.127 12.4538C17.2718 12.5988 17.3442 12.7744 17.3442 12.9808C17.3442 13.1871 17.2718 13.3628 17.127 13.5078L12.6327 18.002C12.5391 18.0955 12.4403 18.1615 12.3365 18.2C12.2326 18.2385 12.1205 18.2578 12 18.2578C11.8795 18.2578 11.7673 18.2385 11.6635 18.2C11.5596 18.1615 11.4609 18.0955 11.3672 18.002L6.87298 13.5078C6.73465 13.3693 6.66131 13.1978 6.65298 12.9933C6.64465 12.7888 6.71798 12.6089 6.87298 12.4538C7.01798 12.3089 7.19365 12.2365 7.39998 12.2365C7.60631 12.2365 7.78198 12.3089 7.92698 12.4538L12 16.5115ZM12 10.5308L16.073 6.47302C16.2115 6.33468 16.383 6.26135 16.5875 6.25302C16.792 6.24468 16.9718 6.31802 17.127 6.47302C17.2718 6.61802 17.3442 6.79368 17.3442 7.00002C17.3442 7.20635 17.2718 7.38202 17.127 7.52702L12.6327 12.0213C12.5391 12.1148 12.4403 12.1808 12.3365 12.2193C12.2326 12.2578 12.1205 12.277 12 12.277C11.8795 12.277 11.7673 12.2578 11.6635 12.2193C11.5596 12.1808 11.4609 12.1148 11.3672 12.0213L6.87298 7.52702C6.73465 7.38852 6.66131 7.21702 6.65298 7.01252C6.64465 6.80802 6.71798 6.62818 6.87298 6.47302C7.01798 6.32818 7.19365 6.25577 7.39998 6.25577C7.60631 6.25577 7.78198 6.32818 7.92698 6.47302L12 10.5308Z" fill="#273540"/>
</svg>
