<svg width="300" height="155" viewBox="0 0 300 155" fill="none" xmlns="http://www.w3.org/2000/svg">
<path fill-rule="evenodd" clip-rule="evenodd" d="M285.75 124.688C285.083 129.021 280.75 131.854 272.75 133.188C268.631 133.874 260.131 135.041 247.25 136.688L225.75 122.188L269.25 119.688C273.917 123.688 279.417 125.354 285.75 124.688Z" fill="white" stroke="#C7CDD1" stroke-width="2"/>
<path fill-rule="evenodd" clip-rule="evenodd" d="M184.75 152.188L174.75 139.188L212.25 138.688L236.75 150.188L184.75 152.188Z" fill="white" stroke="#C7CDD1" stroke-width="2"/>
<path fill-rule="evenodd" clip-rule="evenodd" d="M277.25 21.9933L298.25 26.9933C283.462 45.929 270.25 39.9933 268.75 36.2878C257.083 40.5543 245.417 40.5543 233.75 36.2878C254.353 35.1096 268.853 30.3447 277.25 21.9933Z" fill="white" stroke="#C7CDD1" stroke-width="2"/>
<path fill-rule="evenodd" clip-rule="evenodd" d="M67.962 41.6875C76.3591 50.0389 95.9068 53.6991 106.605 52.6679C90.75 75.6875 56.6087 69.5908 46.75 56.967L67.962 41.6875Z" fill="white" stroke="#C7CDD1" stroke-width="2"/>
<path d="M69.75 67.6875C75.75 66.0208 79.75 63.6875 81.75 60.6875C85.75 62.6875 93.75 63.6875 98.25 61.1875" stroke="#C7CDD1" stroke-width="2"/>
<path d="M234.75 36.6875C252.75 43.2946 268.583 44.2177 282.25 39.4569" stroke="#C7CDD1" stroke-width="2"/>
<path fill-rule="evenodd" clip-rule="evenodd" d="M4.75 135.688L35.75 123.688L69.25 128.188L54.75 142.688L4.75 135.688Z" fill="white" stroke="#C7CDD1" stroke-width="2"/>
<path fill-rule="evenodd" clip-rule="evenodd" d="M33.75 134.688L58.75 121.688L98.25 126.188L83.75 140.688L33.75 134.688Z" fill="white" stroke="#C7CDD1" stroke-width="2"/>
</svg>
