<svg width="24" height="24" viewBox="0 0 24 24" fill="none" xmlns="http://www.w3.org/2000/svg">
<path d="M4 18V6V11.6172V11.1538V18ZM4.30775 19.5C3.80258 19.5 3.375 19.325 3.025 18.975C2.675 18.625 2.5 18.1974 2.5 17.6923V6.30775C2.5 5.80258 2.675 5.375 3.025 5.025C3.375 4.675 3.80258 4.5 4.30775 4.5H9.05C9.291 4.5 9.52275 4.54683 9.74525 4.6405C9.96758 4.734 10.1608 4.86283 10.325 5.027L11.798 6.5H19.6923C20.1974 6.5 20.625 6.675 20.975 7.025C21.325 7.375 21.5 7.80258 21.5 8.30775V11.2365C21.5 11.4493 21.4282 11.6276 21.2845 11.7713C21.141 11.9148 20.9628 11.9865 20.75 11.9865C20.5372 11.9865 20.359 11.9148 20.2155 11.7713C20.0718 11.6276 20 11.4493 20 11.2365V8.30775C20 8.21792 19.9712 8.14417 19.9135 8.0865C19.8558 8.02883 19.7821 8 19.6923 8H11.9327C11.6918 8 11.46 7.95317 11.2375 7.8595C11.015 7.766 10.8217 7.63717 10.6578 7.473L9.27125 6.0865C9.23908 6.0545 9.20542 6.03208 9.17025 6.01925C9.13492 6.00642 9.098 6 9.0595 6H4.30775C4.21792 6 4.14417 6.02883 4.0865 6.0865C4.02883 6.14417 4 6.21792 4 6.30775V17.6923C4 17.7821 4.02883 17.8558 4.0865 17.9135C4.14417 17.9712 4.21792 18 4.30775 18H10.323C10.5358 18 10.7141 18.0718 10.8577 18.2155C11.0013 18.359 11.073 18.5372 11.073 18.75C11.073 18.9628 11.0013 19.141 10.8577 19.2845C10.7141 19.4282 10.5358 19.5 10.323 19.5H4.30775ZM16.9385 18.2885L16.2193 17.5693C16.1013 17.4513 15.9631 17.3933 15.8048 17.3953C15.6464 17.3971 15.5051 17.4602 15.3807 17.5845C15.2564 17.709 15.1943 17.8488 15.1943 18.0038C15.1943 18.1589 15.2564 18.2987 15.3807 18.423L16.3057 19.348C16.4866 19.5288 16.6975 19.6193 16.9385 19.6193C17.1795 19.6193 17.3903 19.5288 17.571 19.348L19.927 17.0078C20.0448 16.8898 20.1054 16.749 20.1087 16.5855C20.1119 16.422 20.0513 16.2781 19.927 16.1538C19.8025 16.0294 19.6628 15.9698 19.5077 15.975C19.3526 15.9802 19.2128 16.0398 19.0885 16.1538L16.9385 18.2885ZM17.6538 13.3463C18.9026 13.3463 19.9648 13.7841 20.8403 14.6598C21.7159 15.5353 22.1538 16.5974 22.1538 17.8462C22.1538 19.0949 21.7159 20.1571 20.8403 21.0328C19.9648 21.9083 18.9026 22.346 17.6538 22.346C16.4051 22.346 15.3429 21.9083 14.4672 21.0328C13.5916 20.1571 13.1538 19.0949 13.1538 17.8462C13.1538 16.5974 13.5916 15.5353 14.4672 14.6598C15.3429 13.7841 16.4051 13.3463 17.6538 13.3463Z" fill="#273540"/>
</svg>
