<svg width="24" height="24" viewBox="0 0 24 24" fill="none" xmlns="http://www.w3.org/2000/svg">
<path d="M9.05775 17.8077H13.0577C13.2834 17.8077 13.4744 17.7295 13.6307 17.573C13.7871 17.4167 13.8652 17.2257 13.8652 17V15.7693L15.1307 16.4345C15.2846 16.5115 15.4327 16.5048 15.575 16.4145C15.7173 16.324 15.7885 16.1967 15.7885 16.0328V13.9672C15.7885 13.8033 15.7173 13.676 15.575 13.5855C15.4327 13.4952 15.2846 13.4885 15.1307 13.5655L13.8652 14.2308V13C13.8652 12.7743 13.7871 12.5833 13.6307 12.427C13.4744 12.2705 13.2834 12.1923 13.0577 12.1923H9.05775C8.83208 12.1923 8.64108 12.2705 8.48475 12.427C8.32825 12.5833 8.25 12.7743 8.25 13V17C8.25 17.2257 8.32825 17.4167 8.48475 17.573C8.64108 17.7295 8.83208 17.8077 9.05775 17.8077ZM6.30775 21.5C5.80258 21.5 5.375 21.325 5.025 20.975C4.675 20.625 4.5 20.1974 4.5 19.6923V4.30775C4.5 3.80258 4.675 3.375 5.025 3.025C5.375 2.675 5.80258 2.5 6.30775 2.5H13.502C13.743 2.5 13.9748 2.54683 14.1973 2.6405C14.4196 2.734 14.6128 2.86283 14.777 3.027L18.973 7.223C19.1372 7.38717 19.266 7.58042 19.3595 7.80275C19.4532 8.02525 19.5 8.257 19.5 8.498V19.6923C19.5 20.1974 19.325 20.625 18.975 20.975C18.625 21.325 18.1974 21.5 17.6923 21.5H6.30775ZM13.5 7.596V4H6.30775C6.23075 4 6.16025 4.03208 6.09625 4.09625C6.03208 4.16025 6 4.23075 6 4.30775V19.6923C6 19.7693 6.03208 19.8398 6.09625 19.9038C6.16025 19.9679 6.23075 20 6.30775 20H17.6923C17.7692 20 17.8398 19.9679 17.9038 19.9038C17.9679 19.8398 18 19.7693 18 19.6923V8.5H14.404C14.1462 8.5 13.9311 8.41375 13.7587 8.24125C13.5862 8.06892 13.5 7.85383 13.5 7.596Z" fill="#273540"/>
</svg>
