
<svg version="1.1" xmlns="http://www.w3.org/2000/svg" viewBox="0 0 24 24">
 <g id="Guides">
  <line id="Baseline-S" x1="0" x2="24" y1="18" y2="18"/>
  <line id="Capline-S"  x1="0" x2="24" y1="6" y2="6"/>
  <line id="Baseline-M" x1="0" x2="24" y1="18" y2="18"/>
  <line id="Capline-M"  x1="0" x2="24" y1="6" y2="6"/>
  <line id="Baseline-L" x1="0" x2="24" y1="18" y2="18"/>
  <line id="Capline-L"  x1="0" x2="24" y1="6" y2="6"/>
  <line id="left-margin" x1="0" x2="0" y1="0" y2="24"/>
  <line id="right-margin"  x1="24" x2="24" y1="0" y2="24"/>
 </g>
 <g id="Symbols">
  <g id="Regular-M">
   <rect width="24" height="24" opacity="0" />
   <g transform="matrix(0.010416666666666666 0 0 0.010416666666666666 2 2)">
     <path d="M0 0h1662.178v1359.964h-648.703l-560.154 560.154v-560.154H0V0zm151.107 151.107v1057.75h453.321v346.488l346.489-346.488h560.154V151.107H151.107zm302.214 419.607V453.185h755.536v117.529H453.32zm0 302.365V755.55h453.473V873.08H453.32z" stroke="none" stroke-width="1" fill-rule="evenodd"/>
   </g>
  </g>
 </g>
</svg>
