<svg width="20" height="20" viewBox="0 0 20 20" fill="none" xmlns="http://www.w3.org/2000/svg">
<path d="M10.8057 10.75L9.473 12.0828C9.33467 12.2213 9.26708 12.3937 9.27025 12.6C9.27342 12.8063 9.34425 12.9788 9.48275 13.1173C9.62125 13.2558 9.79583 13.325 10.0065 13.325C10.2172 13.325 10.3907 13.2558 10.527 13.1173L13.0115 10.6328C13.1923 10.4519 13.2828 10.241 13.2828 10C13.2828 9.759 13.1923 9.54808 13.0115 9.36725L10.5173 6.873C10.3787 6.73467 10.2063 6.6655 10 6.6655C9.79367 6.6655 9.62125 6.73467 9.48275 6.873C9.34425 7.0115 9.275 7.18608 9.275 7.39675C9.275 7.60742 9.34425 7.78092 9.48275 7.91725L10.8057 9.25H7C6.7875 9.25 6.60942 9.32192 6.46575 9.46575C6.32192 9.60958 6.25 9.78775 6.25 10.0003C6.25 10.2129 6.32192 10.391 6.46575 10.5345C6.60942 10.6782 6.7875 10.75 7 10.75H10.8057ZM10.0017 19.5C8.68775 19.5 7.45267 19.2507 6.2965 18.752C5.14033 18.2533 4.13467 17.5766 3.2795 16.7218C2.42433 15.8669 1.74725 14.8617 1.24825 13.706C0.749417 12.5503 0.5 11.3156 0.5 10.0017C0.5 8.68775 0.749333 7.45267 1.248 6.2965C1.74667 5.14033 2.42342 4.13467 3.27825 3.2795C4.13308 2.42433 5.13833 1.74725 6.294 1.24825C7.44967 0.749417 8.68442 0.5 9.99825 0.5C11.3123 0.5 12.5473 0.749333 13.7035 1.248C14.8597 1.74667 15.8653 2.42342 16.7205 3.27825C17.5757 4.13308 18.2528 5.13833 18.7518 6.294C19.2506 7.44967 19.5 8.68442 19.5 9.99825C19.5 11.3123 19.2507 12.5473 18.752 13.7035C18.2533 14.8597 17.5766 15.8653 16.7218 16.7205C15.8669 17.5757 14.8617 18.2528 13.706 18.7518C12.5503 19.2506 11.3156 19.5 10.0017 19.5ZM10 18C12.2333 18 14.125 17.225 15.675 15.675C17.225 14.125 18 12.2333 18 10C18 7.76667 17.225 5.875 15.675 4.325C14.125 2.775 12.2333 2 10 2C7.76667 2 5.875 2.775 4.325 4.325C2.775 5.875 2 7.76667 2 10C2 12.2333 2.775 14.125 4.325 15.675C5.875 17.225 7.76667 18 10 18Z" fill="#273540"/>
</svg>
