<svg xmlns="http://www.w3.org/2000/svg" viewBox="0 0 24 24"><g><path fill-rule="evenodd" stroke="none" stroke-width="1" d="M1355.412 903.53H564.824V508.234c0-217.976 177.317-395.294 395.294-395.294 217.976 0 395.294 177.318 395.294 395.294V903.53zm-451.765 677.646v-338.823h112.941v338.823h-112.94zm564.706-677.647V508.235C1468.353 228.028 1240.325 0 960.118 0S451.882 228.028 451.882 508.235V903.53H226v790.589C226 1818.692 327.308 1920 451.882 1920h1016.47c124.575 0 225.883-101.308 225.883-225.882V903.529h-225.882z" transform="matrix(0.010416666666666666 0 0 0.010416666666666666 2 2)"/></g></svg>