<svg xmlns="http://www.w3.org/2000/svg" viewBox="0 0 24 24"><g transform="matrix(0.010416666666666666 0 0 0.010416666666666666 2 2)"><path d="M1801.441 0v1920H219.03v-439.216h-56.514c-31.196 0-56.515-25.299-56.515-56.47 0-31.172 25.319-56.47 56.515-56.47h56.514V1029.02h-56.514c-31.196 0-56.515-25.3-56.515-56.471 0-31.172 25.319-56.47 56.515-56.47h56.514V577.254h-56.514c-31.196 0-56.515-25.299-56.515-56.47 0-31.172 25.319-56.471 56.515-56.471h56.514V0h1582.412Zm-113.03 112.941H332.06v351.373h56.515c31.196 0 56.514 25.299 56.514 56.47 0 31.172-25.318 56.47-56.514 56.47H332.06v338.824h56.515c31.196 0 56.514 25.3 56.514 56.471 0 31.172-25.318 56.47-56.514 56.47H332.06v338.824h56.515c31.196 0 56.514 25.299 56.514 56.47 0 31.172-25.318 56.471-56.514 56.471H332.06v326.275h1356.353V112.94Zm-508.803 225.883v112.94H671.373v677.648h677.647V734.118h112.94v508.235H558.432v-903.53h621.177Zm207.326 75.817 79.85 79.85-432.452 432.451-224.866-224.979 79.85-79.85 145.016 145.13 352.602-352.602Z" fill-rule="evenodd"/></g>
</svg>