<svg width="24" height="24" viewBox="0 0 24 24" fill="none" xmlns="http://www.w3.org/2000/svg">
<path d="M7.95195 18.4999C7.73912 18.4999 7.56087 18.4281 7.4172 18.2844C7.2737 18.1409 7.20195 17.9628 7.20195 17.7499C7.20195 17.5371 7.2737 17.3589 7.4172 17.2154C7.56087 17.0718 7.73912 16.9999 7.95195 16.9999H14.3787C15.4224 16.9999 16.3205 16.6554 17.073 15.9662C17.8256 15.2772 18.202 14.4263 18.202 13.4134C18.202 12.4006 17.8256 11.5512 17.073 10.8652C16.3205 10.1794 15.4224 9.83644 14.3787 9.83644H7.3577L9.61345 12.0922C9.75829 12.2372 9.8307 12.4129 9.8307 12.6192C9.8307 12.8255 9.75829 13.0012 9.61345 13.1462C9.46862 13.291 9.29137 13.3619 9.0817 13.3587C8.87204 13.3554 8.69804 13.2845 8.5597 13.1462L5.1327 9.71919C5.03904 9.62553 4.97304 9.52677 4.9347 9.42294C4.8962 9.31911 4.87695 9.20694 4.87695 9.08644C4.87695 8.96594 4.8962 8.85378 4.9347 8.74994C4.97304 8.64611 5.03904 8.54736 5.1327 8.45369L8.5597 5.02694C8.70454 4.88211 8.88012 4.80969 9.08645 4.80969C9.29295 4.80969 9.46862 4.88211 9.61345 5.02694C9.75829 5.17178 9.82912 5.34902 9.82595 5.55869C9.82279 5.76819 9.75195 5.94219 9.61345 6.08069L7.3577 8.33644H14.3787C15.8415 8.33644 17.0945 8.82461 18.1375 9.80094C19.1805 10.7773 19.702 11.9814 19.702 13.4134C19.702 14.8454 19.1805 16.0512 18.1375 17.0307C17.0945 18.0102 15.8415 18.4999 14.3787 18.4999H7.95195Z" fill="#273540"/>
</svg>
