<svg width="164" height="148" viewBox="0 0 164 148" fill="none" xmlns="http://www.w3.org/2000/svg">
<path fill-rule="evenodd" clip-rule="evenodd" d="M82 55C86.5433 55 90.3004 58.3665 90.9127 62.7411C88.0828 63.5613 85.0926 64 82 64C78.9074 64 75.9172 63.5613 73.0884 62.7427C73.6996 58.3665 77.4567 55 82 55ZM65.7365 48.2635C68.9487 51.4756 69.2252 56.5117 66.5661 60.0379C61.2664 57.1152 56.8848 52.7336 53.9617 47.4348C57.4883 44.7748 62.5244 45.0513 65.7365 48.2635ZM110.038 47.4339L109.959 47.5784C107.036 52.8128 102.686 57.1416 97.4348 60.0383C94.7748 56.5117 95.0513 51.4756 98.2635 48.2635C101.476 45.0513 106.512 44.7748 110.038 47.4339ZM82 46C83.6569 46 85 47.3431 85 49C85 50.6569 83.6569 52 82 52C80.3431 52 79 50.6569 79 49C79 47.3431 80.3431 46 82 46ZM96.1421 41.8995C97.3137 43.0711 97.3137 44.9706 96.1421 46.1421C94.9706 47.3137 93.0711 47.3137 91.8995 46.1421C90.7279 44.9706 90.7279 43.0711 91.8995 41.8995C93.0711 40.7279 94.9706 40.7279 96.1421 41.8995ZM72.1005 41.8995C73.2721 43.0711 73.2721 44.9706 72.1005 46.1421C70.9289 47.3137 69.0294 47.3137 67.8579 46.1421C66.6863 44.9706 66.6863 43.0711 67.8579 41.8995C69.0294 40.7279 70.9289 40.7279 72.1005 41.8995ZM59 32C59 36.5433 55.6335 40.3004 51.2589 40.9127C50.4387 38.0828 50 35.0926 50 32C50 28.9074 50.4387 25.9172 51.2573 23.0884C55.6335 23.6996 59 27.4567 59 32ZM112.743 23.0884C113.561 25.9172 114 28.9074 114 32C114 35.0926 113.561 38.0828 112.743 40.9116C108.367 40.3004 105 36.5433 105 32C105 27.4732 108.342 23.727 112.693 23.0942L112.743 23.0884ZM99 29C100.657 29 102 30.3431 102 32C102 33.6569 100.657 35 99 35C97.3431 35 96 33.6569 96 32C96 30.3431 97.3431 29 99 29ZM65 29C66.6569 29 68 30.3431 68 32C68 33.6569 66.6569 35 65 35C63.3431 35 62 33.6569 62 32C62 30.3431 63.3431 29 65 29ZM96.1421 17.8579C97.3137 19.0294 97.3137 20.9289 96.1421 22.1005C94.9706 23.2721 93.0711 23.2721 91.8995 22.1005C90.7279 20.9289 90.7279 19.0294 91.8995 17.8579C93.0711 16.6863 94.9706 16.6863 96.1421 17.8579ZM72.1005 17.8579C73.2721 19.0294 73.2721 20.9289 72.1005 22.1005C70.9289 23.2721 69.0294 23.2721 67.8579 22.1005C66.6863 20.9289 66.6863 19.0294 67.8579 17.8579C69.0294 16.6863 70.9289 16.6863 72.1005 17.8579ZM97.4348 3.96169C102.734 6.88484 107.115 11.2664 110.038 16.5652C106.512 19.2252 101.476 18.9487 98.2635 15.7365C95.0933 12.5664 94.7825 7.6197 97.3311 4.10122L97.4348 3.96169ZM65.7365 15.7365C62.5244 18.9487 57.4883 19.2252 53.9621 16.5661C56.8848 11.2664 61.2664 6.88484 66.5652 3.96169C69.2252 7.48827 68.9487 12.5244 65.7365 15.7365ZM82 12C83.6569 12 85 13.3431 85 15C85 16.6569 83.6569 18 82 18C80.3431 18 79 16.6569 79 15C79 13.3431 80.3431 12 82 12ZM82 0C85.0926 0 88.0828 0.438709 90.9116 1.25729C90.3004 5.63346 86.5433 9 82 9C77.4567 9 73.6996 5.63346 73.0873 1.25885C75.9172 0.438709 78.9074 0 82 0Z" fill="#6B80EA"/>
<path d="M20 119C20 125.003 15.9217 128 9.98369 128H9.85318C3.91517 128 0 125.847 0 119.713V96.2871C0 90.4796 3.91517 88 9.85318 88H9.98369C15.9217 88 20 90.6925 20 96.5V101H14V97C14 94.2594 12.0065 93.677 9.98369 93.677C7.96085 93.677 6 94.2594 6 97V119C6 121.741 7.96085 122.258 9.98369 122.258C12.0065 122.258 14 121.741 14 119V114H20V119Z" fill="white"/>
<path d="M43 118H35L34 127H27.5L34.9045 88H43L50.5 127H44L43 118ZM42 113L39 96L36.1415 113.002L42 113Z" fill="white"/>
<path d="M129 118H121L120 127H113.5L120.904 88H129L136.5 127H130L129 118ZM128 113L125 96L122.142 113.002L128 113Z" fill="white"/>
<path d="M59 127V88H65.349L74 112V88H80V127H73.5L65 102V127H59Z" fill="white"/>
<path d="M102 127H96L88 88H95L99 117L103 88H109L102 127Z" fill="white"/>
<path d="M157 97C157 94.5123 155.588 93.5646 153.689 93.5646C151.791 93.5646 150 94.0777 150 96.5V99.5C150 101.529 151.07 102.468 152.903 103.581L157.486 106.134C161.218 108.295 164 110.81 164 115V119C164 125.023 159.957 128 154 128C148.043 128 144 126.088 144 120V116H150V119C150 121.422 151.536 122.5 153.5 122.5C155.464 122.5 157.093 121.388 157.093 118.966V115.889C157.093 113.859 156.504 112.877 154.54 111.83L150.023 109.277C146.226 107.116 144 105.059 144 101V96C144 90.1735 148.632 88 154 88C159.368 88 163 90.1735 163 96V100H157V97Z" fill="white"/>
<path d="M109.405 140.746H106.861V148H105.055V140.746H102.511V139.294H109.405V140.746Z" fill="white"/>
<path d="M99.5 139.294V148H98.57C98.43 148 98.312 147.978 98.216 147.934C98.12 147.886 98.026 147.806 97.934 147.694L93.596 142.174C93.608 142.314 93.616 142.452 93.62 142.588C93.628 142.724 93.632 142.85 93.632 142.966V148H92.042V139.294H92.99C93.066 139.294 93.13 139.298 93.182 139.306C93.238 139.31 93.288 139.324 93.332 139.348C93.376 139.368 93.418 139.396 93.458 139.432C93.498 139.468 93.542 139.516 93.59 139.576L97.958 145.12C97.942 144.968 97.93 144.822 97.922 144.682C97.914 144.538 97.91 144.402 97.91 144.274V139.294H99.5Z" fill="white"/>
<path d="M85.0434 140.704V142.942H87.9474V144.304H85.0434V146.59H88.7754V148H83.2314V139.294H88.7754V140.704H85.0434Z" fill="white"/>
<path d="M76.2426 143.416C76.5346 143.416 76.7866 143.38 76.9986 143.308C77.2106 143.232 77.3846 143.13 77.5206 143.002C77.6566 142.87 77.7566 142.716 77.8206 142.54C77.8846 142.364 77.9166 142.172 77.9166 141.964C77.9166 141.552 77.7786 141.232 77.5026 141.004C77.2306 140.776 76.8146 140.662 76.2546 140.662H75.3186V143.416H76.2426ZM80.4606 148H78.8346C78.5306 148 78.3106 147.884 78.1746 147.652L76.5186 144.982C76.4506 144.878 76.3746 144.802 76.2906 144.754C76.2106 144.706 76.0906 144.682 75.9306 144.682H75.3186V148H73.5186V139.294H76.2546C76.8626 139.294 77.3826 139.358 77.8146 139.486C78.2466 139.61 78.6006 139.784 78.8766 140.008C79.1526 140.232 79.3546 140.5 79.4826 140.812C79.6106 141.12 79.6746 141.46 79.6746 141.832C79.6746 142.12 79.6326 142.394 79.5486 142.654C79.4686 142.91 79.3506 143.144 79.1946 143.356C79.0386 143.568 78.8466 143.756 78.6186 143.92C78.3906 144.084 78.1306 144.216 77.8386 144.316C77.9546 144.38 78.0626 144.458 78.1626 144.55C78.2626 144.638 78.3526 144.744 78.4326 144.868L80.4606 148Z" fill="white"/>
<path d="M67.7688 144.694L66.8268 142.03C66.7708 141.89 66.7108 141.726 66.6468 141.538C66.5868 141.35 66.5288 141.146 66.4728 140.926C66.4168 141.15 66.3568 141.358 66.2928 141.55C66.2328 141.738 66.1748 141.902 66.1188 142.042L65.1828 144.694H67.7688ZM70.7928 148H69.3948C69.2388 148 69.1108 147.964 69.0108 147.892C68.9148 147.816 68.8428 147.72 68.7948 147.604L68.2068 145.942H64.7388L64.1508 147.604C64.1108 147.704 64.0408 147.796 63.9408 147.88C63.8408 147.96 63.7148 148 63.5628 148H62.1528L65.5548 139.294H67.3968L70.7928 148Z" fill="white"/>
<path d="M57.2784 143.626C57.8424 143.626 58.2544 143.49 58.5144 143.218C58.7784 142.946 58.9104 142.574 58.9104 142.102C58.9104 141.886 58.8764 141.69 58.8084 141.514C58.7444 141.334 58.6444 141.182 58.5084 141.058C58.3764 140.93 58.2084 140.832 58.0044 140.764C57.8004 140.696 57.5584 140.662 57.2784 140.662H56.1384V143.626H57.2784ZM57.2784 139.294C57.8744 139.294 58.3884 139.364 58.8204 139.504C59.2564 139.644 59.6144 139.84 59.8944 140.092C60.1744 140.34 60.3804 140.636 60.5124 140.98C60.6484 141.324 60.7164 141.698 60.7164 142.102C60.7164 142.53 60.6464 142.922 60.5064 143.278C60.3664 143.634 60.1544 143.94 59.8704 144.196C59.5864 144.452 59.2284 144.652 58.7964 144.796C58.3644 144.936 57.8584 145.006 57.2784 145.006H56.1384V148H54.3384V139.294H57.2784Z" fill="white"/>
</svg>
