<svg width="24" height="24" viewBox="0 0 24 24" fill="none" xmlns="http://www.w3.org/2000/svg">
<path d="M10.8211 21.5C10.316 21.5 9.83839 21.3936 9.38839 21.1808C8.93839 20.9679 8.56214 20.6622 8.25964 20.2635L3.49414 14.1C3.3928 13.9757 3.3473 13.8333 3.35764 13.673C3.3678 13.5128 3.4268 13.3789 3.53464 13.2713C3.78464 13.0046 4.08364 12.8443 4.43164 12.7905C4.77964 12.7365 5.10555 12.8025 5.40939 12.9885L7.84614 14.2963V6.38477C7.84614 6.17227 7.91805 5.9941 8.06189 5.85027C8.20555 5.7066 8.38372 5.63477 8.59639 5.63477C8.80905 5.63477 8.98972 5.7066 9.13839 5.85027C9.28705 5.9941 9.36139 6.17227 9.36139 6.38477V15.3843C9.36139 15.7293 9.21139 15.988 8.91139 16.1605C8.61139 16.333 8.31072 16.3353 8.00939 16.1673L6.35939 15.3095L9.47864 19.375C9.6428 19.5813 9.8428 19.7371 10.0786 19.8423C10.3146 19.9474 10.5621 20 10.8211 20H15.7401C16.3671 20 16.9006 19.7818 17.3404 19.3453C17.7801 18.9086 17.9999 18.3768 17.9999 17.75V13.9808C17.9999 13.6374 17.8838 13.3497 17.6516 13.1175C17.4193 12.8853 17.1316 12.7693 16.7884 12.7693H12.4961C12.2836 12.7693 12.1055 12.6973 11.9616 12.5535C11.818 12.4097 11.7461 12.2315 11.7461 12.019C11.7461 11.8063 11.818 11.6283 11.9616 11.4848C12.1055 11.3411 12.2836 11.2693 12.4961 11.2693H16.7884C17.5416 11.2693 18.1817 11.5328 18.7089 12.06C19.2362 12.5873 19.4999 13.2276 19.4999 13.9808V17.7493C19.4999 18.7856 19.1317 19.6698 18.3954 20.402C17.6592 21.134 16.7741 21.5 15.7401 21.5H10.8211ZM11.8499 9.00952C11.6371 9.00952 11.4589 8.93768 11.3154 8.79402C11.1717 8.65035 11.0999 8.47227 11.0999 8.25977C11.0999 8.21993 11.132 8.09493 11.1961 7.88477C11.3295 7.65143 11.4295 7.41393 11.4961 7.17227C11.5628 6.9306 11.5961 6.6681 11.5961 6.38477C11.5961 5.55143 11.3045 4.8431 10.7211 4.25977C10.1378 3.67643 9.42947 3.38477 8.59614 3.38477C7.7628 3.38477 7.05447 3.67643 6.47114 4.25977C5.8878 4.8431 5.59614 5.55143 5.59614 6.38477C5.59614 6.6681 5.62947 6.9306 5.69614 7.17227C5.7628 7.41393 5.8628 7.65143 5.99614 7.88477C6.03447 7.94727 6.06005 8.00977 6.07289 8.07227C6.08572 8.13477 6.09214 8.19735 6.09214 8.26002C6.09214 8.47252 6.02305 8.6506 5.88489 8.79427C5.74672 8.93777 5.5708 9.00952 5.35714 9.00952C5.21897 9.00952 5.09105 8.97235 4.97339 8.89802C4.85555 8.82368 4.76572 8.73077 4.70389 8.61927C4.50639 8.2846 4.35572 7.92951 4.25189 7.55401C4.14805 7.17835 4.09614 6.78768 4.09614 6.38202C4.09614 5.13502 4.53397 4.07377 5.40964 3.19827C6.28514 2.3226 7.3473 1.88477 8.59614 1.88477C9.8448 1.88477 10.907 2.3226 11.7826 3.19827C12.6581 4.07377 13.0959 5.13502 13.0959 6.38202C13.0959 6.78768 13.044 7.17835 12.9401 7.55401C12.8363 7.92951 12.6857 8.2846 12.4884 8.61927C12.4257 8.73077 12.3381 8.82368 12.2254 8.89802C12.1127 8.97235 11.9876 9.00952 11.8499 9.00952Z" fill="#273540"/>
</svg>
