<svg xmlns="http://www.w3.org/2000/svg" viewBox="0 0 24 24"><g transform="matrix(0.010416666666666666 0 0 0.010416666666666666 2 2)"><path d="M960 1489.82c-348.474 0-668.545-202.323-841.298-529.918C291.455 632.306 611.526 429.984 960 429.984s668.545 202.322 841.298 529.918C1628.545 1287.497 1308.474 1489.82 960 1489.82Zm948.342-553.552C1720.645 558.648 1357.332 324 960 324c-397.333 0-760.645 234.648-948.342 612.268L0 959.902l11.658 23.634c187.697 377.62 551.01 612.268 948.342 612.268 397.333 0 760.645-234.648 948.342-612.268L1920 959.902l-11.658-23.634ZM960 1171.869c-116.9 0-211.967-95.067-211.967-211.967 0-116.9 95.067-211.967 211.967-211.967 116.9 0 211.967 95.067 211.967 211.967 0 116.9-95.067 211.967-211.967 211.967m0-529.918c-175.297 0-317.951 142.654-317.951 317.951 0 175.297 142.654 317.95 317.951 317.95 175.297 0 317.951-142.653 317.951-317.95S1135.297 641.951 960 641.951" fill-rule="evenodd"/></g>
</svg>