<svg xmlns="http://www.w3.org/2000/svg" viewBox="0 0 24 24"><g transform="matrix(0.010416666666666666 0 0 0.010416666666666666 2 2)"><path d="M1750.176 0v1468.235h-225.882v338.824h169.412V1920H451.353c-82.447 0-161.506-36.141-215.718-99.388-42.917-50.824-66.635-116.33-66.635-182.965V282.353C169 126.494 295.494 0 451.353 0h1298.823Zm-338.823 1468.235H463.776c-89.223 0-166.023 60.989-179.576 140.047-1.13 9.036-2.259 18.07-2.259 25.977v3.388c0 40.659 13.553 79.059 40.659 109.553 31.624 38.4 79.059 59.859 128.753 59.859h960v-112.941H408.435v-112.942h1002.918v-112.94Zm-56.47-564.706h-790.59v112.942h790.588V903.529Zm56.47-564.705h-903.53v451.764h903.53V338.824ZM620.765 677.647h677.647V451.765H620.765v225.882Z" fill-rule="evenodd"/></g>
</svg>