<svg xmlns="http://www.w3.org/2000/svg" viewBox="0 0 24 24"><g><path fill-rule="evenodd" stroke="none" stroke-width="1" d="M1750.176 1468.235h-225.882v338.824h169.412V1920H451.353c-82.447 0-161.506-36.141-215.718-99.388-42.917-50.824-66.635-116.33-66.635-182.965V282.353C169 126.494 295.494 0 451.353 0h1298.823v1468.235zm-338.823 112.941v-112.94H463.776c-89.223 0-166.023 60.988-179.576 140.046-1.13 9.036-2.259 18.07-2.259 25.977v3.388c0 40.659 13.553 79.059 40.659 109.553 31.624 38.4 79.059 59.859 128.753 59.859h960v-112.941H408.435v-112.942h1002.918zm-903.53-790.588h903.53V338.824h-903.53v451.764zm56.471 225.883h790.588V903.529H564.294v112.942zm56.47-338.824h677.648V451.765H620.765v225.882z" transform="matrix(0.010416666666666666 0 0 0.010416666666666666 2 2)"/></g></svg>