<svg width="24" height="24" viewBox="0 0 24 24" fill="none" xmlns="http://www.w3.org/2000/svg">
<g clip-path="url(#clip0_1_2567)">
<path d="M7.98275 1.45975L15.8 9.277C16.1513 9.62833 16.327 10.0584 16.327 10.5672C16.327 11.0762 16.1513 11.5064 15.8 11.8577L11.473 16.2037C11.1282 16.5487 10.7013 16.7212 10.1923 16.7212C9.68325 16.7212 9.25633 16.5487 8.9115 16.2037L4.58475 11.8577C4.23342 11.5064 4.05775 11.0762 4.05775 10.5672C4.05775 10.0584 4.23342 9.62833 4.58475 9.277L9.13275 4.73275L6.90375 2.504C6.75508 2.35516 6.68333 2.18266 6.6885 1.9865C6.69367 1.79033 6.77058 1.61475 6.91925 1.45975C7.06792 1.31475 7.24358 1.23975 7.44625 1.23475C7.64875 1.22958 7.82758 1.30458 7.98275 1.45975ZM10.202 5.802L5.61925 10.3655C5.58725 10.3975 5.56642 10.4312 5.55675 10.4665C5.54708 10.5017 5.54225 10.5385 5.54225 10.577H14.8422C14.8422 10.5385 14.8375 10.5017 14.828 10.4665C14.8183 10.4312 14.7975 10.3975 14.7655 10.3655L10.202 5.802ZM18.7885 17.3462C18.3025 17.3462 17.8893 17.176 17.549 16.8355C17.2087 16.4952 17.0385 16.0821 17.0385 15.5962C17.0385 15.2719 17.1298 14.937 17.3125 14.5915C17.4952 14.246 17.6923 13.9207 17.9038 13.6155C18.0409 13.4283 18.1833 13.2392 18.3307 13.0482C18.4783 12.8571 18.6308 12.6679 18.7885 12.4807C18.9462 12.6679 19.0987 12.8571 19.2463 13.0482C19.3936 13.2392 19.5358 13.4283 19.673 13.6155C19.8845 13.9207 20.0817 14.246 20.2645 14.5915C20.4472 14.937 20.5385 15.2719 20.5385 15.5962C20.5385 16.0821 20.3682 16.4952 20.0278 16.8355C19.6874 17.176 19.2743 17.3462 18.7885 17.3462ZM3.5 24C3.091 24 2.73875 23.8538 2.44325 23.5615C2.14775 23.2692 2 22.9153 2 22.5C2 22.091 2.14775 21.7387 2.44325 21.4432C2.73875 21.1477 3.091 21 3.5 21H20.5C20.909 21 21.2613 21.1462 21.5568 21.4385C21.8523 21.7308 22 22.0847 22 22.5C22 22.909 21.8523 23.2612 21.5568 23.5567C21.2613 23.8522 20.909 24 20.5 24H3.5Z" fill="#273540"/>
</g>
<defs>
<clipPath id="clip0_1_2567">
<rect width="24" height="24" fill="white"/>
</clipPath>
</defs>
</svg>
