<svg width="1024" height="1024" viewBox="0 0 1024 1024" fill="none" xmlns="http://www.w3.org/2000/svg">
<path fill-rule="evenodd" clip-rule="evenodd" d="M407.553 151.738C440.708 142.143 475.753 137 512 137C548.247 137 583.292 142.143 616.447 151.738C609.278 203.01 565.247 242.469 512 242.469C458.753 242.469 414.722 203.01 407.553 151.738ZM872.262 407.553C881.857 440.708 887 475.753 887 512C887 548.247 881.857 583.292 872.262 616.447C820.99 609.278 781.531 565.247 781.531 512C781.531 458.753 820.99 414.722 872.262 407.553ZM840.577 692.872C806.32 754.971 754.971 806.32 692.872 840.577C661.704 799.254 664.943 740.232 702.587 702.587C740.232 664.943 799.254 661.704 840.577 692.872ZM616.447 872.262C583.292 881.857 548.247 887 512 887C475.753 887 440.708 881.857 407.553 872.262C414.722 820.99 458.753 781.531 512 781.531C565.247 781.531 609.278 820.99 616.447 872.262ZM331.128 840.577C269.029 806.32 217.68 754.971 183.423 692.872C224.746 661.704 283.768 664.943 321.413 702.587C359.057 740.232 362.296 799.254 331.128 840.577ZM151.738 616.447C142.143 583.292 137 548.247 137 512C137 475.753 142.143 440.708 151.738 407.553C203.01 414.722 242.469 458.753 242.469 512C242.469 565.247 203.01 609.278 151.738 616.447ZM183.423 331.128C217.68 269.029 269.029 217.68 331.128 183.423C362.296 224.746 359.057 283.768 321.413 321.413C283.768 359.057 224.746 362.296 183.423 331.128ZM512 347.938C492.584 347.938 476.844 332.198 476.844 312.781C476.844 293.365 492.584 277.625 512 277.625C531.416 277.625 547.156 293.365 547.156 312.781C547.156 332.198 531.416 347.938 512 347.938ZM676.062 512C676.062 492.584 691.802 476.844 711.219 476.844C730.635 476.844 746.375 492.584 746.375 512C746.375 531.416 730.635 547.156 711.219 547.156C691.802 547.156 676.062 531.416 676.062 512ZM628.01 628.01C641.739 614.28 663.999 614.28 677.728 628.01C691.458 641.739 691.458 663.999 677.728 677.728C663.999 691.458 641.739 691.458 628.01 677.728C614.28 663.999 614.28 641.739 628.01 628.01ZM512 676.062C531.416 676.062 547.156 691.802 547.156 711.219C547.156 730.635 531.416 746.375 512 746.375C492.584 746.375 476.844 730.635 476.844 711.219C476.844 691.802 492.584 676.062 512 676.062ZM395.99 628.01C409.72 641.739 409.72 663.999 395.99 677.728C382.261 691.458 360.001 691.458 346.272 677.728C332.542 663.999 332.542 641.739 346.272 628.01C360.001 614.28 382.261 614.28 395.99 628.01ZM347.938 512C347.938 531.416 332.198 547.156 312.781 547.156C293.365 547.156 277.625 531.416 277.625 512C277.625 492.584 293.365 476.844 312.781 476.844C332.198 476.844 347.938 492.584 347.938 512ZM395.99 395.99C382.261 409.72 360.001 409.72 346.272 395.99C332.542 382.261 332.542 360.001 346.272 346.272C360.001 332.542 382.261 332.542 395.99 346.272C409.72 360.001 409.72 382.261 395.99 395.99Z" fill="#9E58BD"/>
<path fill-rule="evenodd" clip-rule="evenodd" d="M728.499 437C806.649 437 870 373.647 870 295.499C870 217.351 806.649 153.998 728.499 153.998C650.351 153.998 587 217.351 587 295.499C587 373.647 650.351 437 728.499 437ZM749.319 307.79C759.561 309.937 767 319.646 767 330.882V343.807L765.619 344.817C758.2 350.233 743.071 359 722.953 359C721.883 359 720.807 358.973 719.717 358.926C701.988 358.098 688.538 350.798 680.374 344.81L679 343.801V330.875C679 319.639 686.446 309.93 696.695 307.783C700.296 307.037 703.938 306.458 707.593 306.014C702.557 301.694 699.308 295.39 699.308 288.278V281.549C699.308 268.564 709.935 258 723 258C736.065 258 746.692 268.564 746.692 281.549V288.278C746.692 295.403 743.423 301.721 738.373 306.048C742.042 306.485 745.697 307.037 749.319 307.79ZM806 231H651V332.176H670.235V323.059H660.118V240.118H796.882V323.059H775V332.176H806V231Z" fill="#9E58BD"/>
</svg>
