<svg width="24" height="24" viewBox="0 0 24 24" fill="none" xmlns="http://www.w3.org/2000/svg">
<path d="M11.25 12.7463V6.08075C9.98983 6.22442 8.96642 6.80325 8.17975 7.81725C7.39325 8.83142 7 9.89233 7 11H6.5C5.53333 11 4.70833 11.3417 4.025 12.025C3.34167 12.7083 3 13.5333 3 14.5C3 15.4667 3.34167 16.2917 4.025 16.975C4.70833 17.6583 5.53333 18 6.5 18H18.5C19.2 18 19.7917 17.7583 20.275 17.275C20.7583 16.7917 21 16.2 21 15.5C21 14.8 20.7583 14.2083 20.275 13.725C19.7917 13.2417 19.2 13 18.5 13H17V11C17 10.1872 16.8167 9.43492 16.45 8.74325C16.0833 8.05158 15.6 7.4705 15 7V5.24225C16.0858 5.79358 16.9407 6.58717 17.5645 7.623C18.1882 8.659 18.5 9.78467 18.5 11V11.5H18.8078C19.8616 11.582 20.7404 12.0058 21.4443 12.7713C22.1481 13.5366 22.5 14.4462 22.5 15.5C22.5 16.6153 22.1122 17.5608 21.3365 18.3365C20.5608 19.1122 19.6153 19.5 18.5 19.5H6.5C5.118 19.5 3.93917 19.0198 2.9635 18.0595C1.98783 17.0993 1.5 15.9283 1.5 14.5463C1.5 13.3231 1.89167 12.2352 2.675 11.2828C3.45833 10.3301 4.45767 9.76658 5.673 9.59225C5.89867 8.37308 6.56375 7.23308 7.66825 6.17225C8.77275 5.11125 9.96667 4.58075 11.25 4.58075C11.659 4.58075 12.0112 4.7285 12.3068 5.024C12.6023 5.3195 12.75 5.67175 12.75 6.08075V12.7463L14.0538 11.4577C14.1923 11.3193 14.3637 11.2484 14.5682 11.2453C14.7727 11.2421 14.9526 11.318 15.1077 11.473C15.2526 11.618 15.325 11.7937 15.325 12C15.325 12.2063 15.2526 12.382 15.1077 12.527L12.6328 15.002C12.4519 15.1827 12.241 15.273 12 15.273C11.759 15.273 11.5481 15.1827 11.3673 15.002L8.89225 12.527C8.75392 12.3885 8.68058 12.217 8.67225 12.0125C8.66392 11.808 8.73725 11.6282 8.89225 11.473C9.03725 11.3282 9.21033 11.2532 9.4115 11.248C9.61283 11.243 9.79108 11.3129 9.94625 11.4577L11.25 12.7463Z" fill="#273540"/>
</svg>
