<svg width="24" height="24" viewBox="0 0 24 24" fill="none" xmlns="http://www.w3.org/2000/svg">
<path d="M7.30775 20.5C6.80908 20.5 6.38308 20.3234 6.02975 19.9702C5.67658 19.6169 5.5 19.1909 5.5 18.6922V5.99998H5.25C5.03717 5.99998 4.859 5.92815 4.7155 5.78448C4.57183 5.64098 4.5 5.46281 4.5 5.24998C4.5 5.03715 4.57183 4.85898 4.7155 4.71548C4.859 4.57181 5.03717 4.49998 5.25 4.49998H9C9 4.25515 9.08625 4.04648 9.25875 3.87398C9.43108 3.70165 9.63967 3.61548 9.8845 3.61548H14.1155C14.3603 3.61548 14.5689 3.70165 14.7413 3.87398C14.9138 4.04648 15 4.25515 15 4.49998H18.75C18.9628 4.49998 19.141 4.57181 19.2845 4.71548C19.4282 4.85898 19.5 5.03715 19.5 5.24998C19.5 5.46281 19.4282 5.64098 19.2845 5.78448C19.141 5.92815 18.9628 5.99998 18.75 5.99998H18.5V18.6922C18.5 19.1909 18.3234 19.6169 17.9703 19.9702C17.6169 20.3234 17.1909 20.5 16.6923 20.5H7.30775ZM17 5.99998H7V18.6922C7 18.7821 7.02883 18.8558 7.0865 18.9135C7.14417 18.9711 7.21792 19 7.30775 19H16.6923C16.7821 19 16.8558 18.9711 16.9135 18.9135C16.9712 18.8558 17 18.7821 17 18.6922V5.99998ZM12 13.5537L14.073 15.627C14.2115 15.7653 14.3856 15.8361 14.5953 15.8395C14.8048 15.8426 14.982 15.7718 15.127 15.627C15.2718 15.482 15.3443 15.3063 15.3443 15.1C15.3443 14.8936 15.2718 14.718 15.127 14.573L13.0538 12.5L15.127 10.427C15.2653 10.2885 15.3362 10.1144 15.3395 9.90473C15.3427 9.69523 15.2718 9.51798 15.127 9.37298C14.982 9.22815 14.8063 9.15573 14.6 9.15573C14.3937 9.15573 14.218 9.22815 14.073 9.37298L12 11.4462L9.927 9.37298C9.7885 9.23464 9.61442 9.16381 9.40475 9.16048C9.19525 9.15731 9.018 9.22815 8.873 9.37298C8.72817 9.51798 8.65575 9.69365 8.65575 9.89998C8.65575 10.1063 8.72817 10.282 8.873 10.427L10.9463 12.5L8.873 14.573C8.73467 14.7115 8.66383 14.8856 8.6605 15.0952C8.65733 15.3047 8.72817 15.482 8.873 15.627C9.018 15.7718 9.19367 15.8442 9.4 15.8442C9.60633 15.8442 9.782 15.7718 9.927 15.627L12 13.5537Z" fill="#273540"/>
</svg>
