<svg width="24" height="24" viewBox="0 0 24 24" fill="none" xmlns="http://www.w3.org/2000/svg">
<path d="M4.30775 19.5C3.80258 19.5 3.375 19.325 3.025 18.975C2.675 18.625 2.5 18.1974 2.5 17.6923V6.30775C2.5 5.80258 2.675 5.375 3.025 5.025C3.375 4.675 3.80258 4.5 4.30775 4.5H9.05C9.291 4.5 9.52275 4.54683 9.74525 4.6405C9.96758 4.734 10.1608 4.86283 10.325 5.027L11.798 6.5H19.6923C20.1974 6.5 20.625 6.675 20.975 7.025C21.325 7.375 21.5 7.80258 21.5 8.30775V17.6923C21.5 18.1974 21.325 18.625 20.975 18.975C20.625 19.325 20.1974 19.5 19.6923 19.5H4.30775ZM4.30775 18H19.6923C19.7821 18 19.8558 17.9712 19.9135 17.9135C19.9712 17.8558 20 17.7821 20 17.6923V8.30775C20 8.21792 19.9712 8.14417 19.9135 8.0865C19.8558 8.02883 19.7821 8 19.6923 8H11.1845L9.27125 6.0865C9.23908 6.0545 9.20542 6.03208 9.17025 6.01925C9.13492 6.00642 9.098 6 9.0595 6H4.30775C4.21792 6 4.14417 6.02883 4.0865 6.0865C4.02883 6.14417 4 6.21792 4 6.30775V17.6923C4 17.7821 4.02883 17.8558 4.0865 17.9135C4.14417 17.9712 4.21792 18 4.30775 18ZM12 16.6152C12.2128 16.6152 12.391 16.5435 12.5345 16.4C12.6782 16.2563 12.75 16.0781 12.75 15.8652V12.1652L14.0828 13.498C14.2213 13.6365 14.3953 13.7073 14.6048 13.7105C14.8144 13.7137 14.9917 13.6428 15.1365 13.498C15.2813 13.3532 15.3538 13.1776 15.3538 12.9713C15.3538 12.7648 15.2813 12.5891 15.1365 12.4442L12.6328 9.9405C12.4519 9.75967 12.241 9.66925 12 9.66925C11.759 9.66925 11.5481 9.75967 11.3673 9.9405L8.88275 12.425C8.74425 12.5635 8.67342 12.7375 8.67025 12.947C8.66708 13.1567 8.73792 13.3339 8.88275 13.4788C9.02758 13.6237 9.20317 13.6962 9.4095 13.6962C9.616 13.6962 9.79167 13.6237 9.9365 13.4788L11.25 12.1652V15.8652C11.25 16.0781 11.3218 16.2563 11.4655 16.4C11.609 16.5435 11.7872 16.6152 12 16.6152Z" fill="#273540"/>
</svg>
