<svg width="24" height="24" viewBox="0 0 24 24" fill="none" xmlns="http://www.w3.org/2000/svg">
<path d="M5.30775 20.5C4.81058 20.5 4.385 20.323 4.031 19.969C3.677 19.615 3.5 19.1894 3.5 18.6923V5.30775C3.5 4.81058 3.677 4.385 4.031 4.031C4.385 3.677 4.81058 3.5 5.30775 3.5H18.6923C19.1894 3.5 19.615 3.677 19.969 4.031C20.323 4.385 20.5 4.81058 20.5 5.30775V18.6923C20.5 19.1894 20.323 19.615 19.969 19.969C19.615 20.323 19.1894 20.5 18.6923 20.5H5.30775ZM5.30775 19H18.6923C18.7821 19 18.8558 18.9712 18.9135 18.9135C18.9712 18.8558 19 18.7821 19 18.6923V7H5V18.6923C5 18.7821 5.02883 18.8558 5.0865 18.9135C5.14417 18.9712 5.21792 19 5.30775 19ZM12 16.5C10.7743 16.5 9.67533 16.1757 8.703 15.527C7.7305 14.8782 7.01217 14.0358 6.548 13C7.01217 11.9642 7.7305 11.1218 8.703 10.473C9.67533 9.82433 10.7743 9.5 12 9.5C13.2257 9.5 14.3247 9.82433 15.297 10.473C16.2695 11.1218 16.9878 11.9642 17.452 13C16.9878 14.0358 16.2695 14.8782 15.297 15.527C14.3247 16.1757 13.2257 16.5 12 16.5ZM12 15.3077C12.8628 15.3077 13.6568 15.1045 14.3818 14.698C15.1068 14.2917 15.6955 13.7257 16.148 13C15.6955 12.2743 15.1068 11.7083 14.3818 11.302C13.6568 10.8955 12.8628 10.6923 12 10.6923C11.1372 10.6923 10.3433 10.8955 9.61825 11.302C8.89325 11.7083 8.3045 12.2743 7.852 13C8.3045 13.7257 8.89325 14.2917 9.61825 14.698C10.3433 15.1045 11.1372 15.3077 12 15.3077ZM12.0022 14.3077C12.3661 14.3077 12.6746 14.1803 12.9277 13.9255C13.1811 13.6708 13.3077 13.3616 13.3077 12.9978C13.3077 12.6339 13.1803 12.3254 12.9255 12.0723C12.6708 11.8189 12.3616 11.6923 11.9978 11.6923C11.6339 11.6923 11.3254 11.8197 11.0723 12.0745C10.8189 12.3292 10.6923 12.6384 10.6923 13.0022C10.6923 13.3661 10.8197 13.6746 11.0745 13.9277C11.3292 14.1811 11.6384 14.3077 12.0022 14.3077Z" fill="#273540"/>
</svg>
