<svg width="24" height="24" viewBox="0 0 24 24" fill="none" xmlns="http://www.w3.org/2000/svg">
<path d="M5.75 12.0693C5.75 12.8506 5.89792 13.6102 6.19375 14.348C6.48942 15.0859 6.9505 15.7673 7.577 16.3923L8.2115 17.027V15.0385C8.2115 14.826 8.28342 14.6479 8.42725 14.504C8.57108 14.3604 8.74925 14.2885 8.96175 14.2885C9.17442 14.2885 9.35258 14.3604 9.49625 14.504C9.63975 14.6479 9.7115 14.826 9.7115 15.0385V18.7693C9.7115 19.0253 9.62492 19.2399 9.45175 19.4133C9.27842 19.5864 9.06375 19.673 8.80775 19.673H5.077C4.8645 19.673 4.68633 19.6011 4.5425 19.4573C4.39883 19.3134 4.327 19.1353 4.327 18.9228C4.327 18.7101 4.39883 18.532 4.5425 18.3885C4.68633 18.2449 4.8645 18.173 5.077 18.173H7.25L6.523 17.477C5.70133 16.7167 5.11708 15.865 4.77025 14.922C4.42342 13.9792 4.25 13.0283 4.25 12.0693C4.25 10.5603 4.63717 9.18594 5.4115 7.94628C6.18583 6.70644 7.22558 5.75128 8.53075 5.08078C8.71275 4.97944 8.90408 4.96794 9.10475 5.04628C9.30542 5.12444 9.43783 5.26378 9.502 5.46428C9.566 5.65228 9.56208 5.84211 9.49025 6.03378C9.41825 6.22561 9.29075 6.37269 9.10775 6.47503C8.08342 7.02753 7.26767 7.79961 6.6605 8.79128C6.0535 9.78311 5.75 10.8758 5.75 12.0693ZM18.25 11.9308C18.25 11.1494 18.1021 10.3899 17.8063 9.65203C17.5106 8.91419 17.0495 8.23278 16.423 7.60778L15.7885 6.97303V8.96153C15.7885 9.17403 15.7166 9.35219 15.5727 9.49603C15.4289 9.63969 15.2508 9.71153 15.0383 9.71153C14.8256 9.71153 14.6474 9.63969 14.5038 9.49603C14.3603 9.35219 14.2885 9.17403 14.2885 8.96153V5.23078C14.2885 4.97478 14.3751 4.76011 14.5483 4.58678C14.7216 4.41361 14.9363 4.32703 15.1923 4.32703H18.923C19.1355 4.32703 19.3137 4.39894 19.4575 4.54278C19.6012 4.68661 19.673 4.86478 19.673 5.07728C19.673 5.28994 19.6012 5.46803 19.4575 5.61153C19.3137 5.75519 19.1355 5.82703 18.923 5.82703H16.75L17.477 6.52303C18.2668 7.31286 18.8432 8.17128 19.206 9.09828C19.5687 10.0251 19.75 10.9698 19.75 11.9323C19.75 13.4403 19.3644 14.8125 18.5932 16.049C17.8221 17.2855 16.7839 18.239 15.4788 18.9095C15.2968 19.0109 15.1054 19.024 14.9047 18.949C14.7041 18.874 14.5717 18.7363 14.5078 18.5358C14.4436 18.3478 14.4478 18.1577 14.5203 17.9655C14.5926 17.7732 14.7166 17.6264 14.8923 17.525C15.9166 16.9725 16.7323 16.2004 17.3395 15.2088C17.9465 14.2169 18.25 13.1243 18.25 11.9308Z" fill="#273540"/>
</svg>
