<svg width="24" height="24" viewBox="0 0 24 24" fill="none" xmlns="http://www.w3.org/2000/svg">
<path d="M11.9999 19.7778C7.71105 19.7778 4.22216 16.2878 4.22216 12H1.99994C1.99994 17.5144 6.48661 22 11.9999 22C17.5133 22 21.9999 17.5144 21.9999 12C21.9999 6.48556 17.5133 2 11.9999 2C9.50994 2 7.14661 2.92333 5.33327 4.54556V2.55556H3.11105V8.66667H9.22216V6.44444H6.57549C8.01549 5.03889 9.94772 4.22222 11.9999 4.22222C16.2888 4.22222 19.7777 7.71222 19.7777 12C19.7777 16.2878 16.2888 19.7778 11.9999 19.7778Z" fill="#273540"/>
<path d="M12.5884 6.11792V11.7063L17 15.0149V15.1368L16.3534 16.0004L11.4117 12.2938V6.11792H12.5884Z" fill="#273540"/>
</svg>
