<svg width="178" height="59" viewBox="0 0 178 59" fill="none" xmlns="http://www.w3.org/2000/svg">
<path d="M0 20.4898C0 7.69842 9.57478 0 19.7714 0C29.9681 0 35.6615 5.86495 37.4413 12.7378L31.1797 14.8393C30.0217 10.0787 26.3655 6.25094 19.7714 6.25094C13.1774 6.25094 6.80849 10.9579 6.80849 20.4791C6.80849 30.0002 13.1238 34.5464 19.825 34.5464C26.5263 34.5464 30.1825 30.3326 31.5121 25.9044L37.6022 27.8987C35.833 34.5464 29.8501 40.9153 19.825 40.9153C9.25312 40.9153 0 33.2705 0 20.4791V20.4898Z" fill="white"/>
<path d="M52.5058 40.8078C44.5822 40.8078 39.4893 34.5462 39.4893 26.4617C39.4893 18.3773 44.6358 12.3408 52.3879 12.3408C57.1484 12.3408 59.5823 14.8283 60.3114 16.6618V13.1128H66.5731V35.1573C66.5731 37.3768 66.7983 39.5319 66.8519 40.0894H60.7082C60.6009 39.4783 60.4294 38.0415 60.4294 36.2081C59.2071 38.8135 56.3872 40.8078 52.5058 40.8078ZM53.2242 35.2753C57.4379 35.2753 60.3651 31.6726 60.3651 26.4725C60.3651 21.2723 57.4808 17.9484 53.2242 17.9484C48.9675 17.9484 45.9118 21.2723 45.9118 26.4725C45.9118 31.6726 48.7316 35.2753 53.2242 35.2753Z" fill="white"/>
<path d="M87.422 51.8833C87.8381 51.8833 88.1972 51.832 88.4993 51.7294C88.8014 51.6211 89.0494 51.4757 89.2432 51.2933C89.437 51.1052 89.5795 50.8857 89.6707 50.6349C89.7619 50.3841 89.8075 50.1105 89.8075 49.8141C89.8075 49.227 89.6108 48.771 89.2175 48.4461C88.8299 48.1212 88.2371 47.9587 87.4391 47.9587H86.1052V51.8833H87.422ZM93.4328 58.4156H91.1157C90.6824 58.4156 90.3689 58.2503 90.1751 57.9197L87.8153 54.1149C87.7184 53.9667 87.6101 53.8584 87.4904 53.79C87.3764 53.7216 87.2054 53.6874 86.9773 53.6874H86.1052V58.4156H83.5402V46.0093H87.4391C88.3055 46.0093 89.0465 46.1005 89.6621 46.2829C90.2777 46.4596 90.7822 46.7075 91.1755 47.0267C91.5688 47.3459 91.8567 47.7279 92.0391 48.1725C92.2215 48.6114 92.3127 49.0959 92.3127 49.626C92.3127 50.0364 92.2528 50.4269 92.1331 50.7974C92.0191 51.1622 91.851 51.4957 91.6287 51.7978C91.4064 52.0999 91.1328 52.3678 90.8078 52.6015C90.4829 52.8352 90.1124 53.0233 89.6963 53.1658C89.8616 53.257 90.0155 53.3682 90.158 53.4993C90.3005 53.6247 90.4288 53.7757 90.5428 53.9524L93.4328 58.4156Z" fill="white"/>
<path d="M73.5669 48.0186V51.2078H77.7052V53.1487H73.5669V56.4063H78.8851V58.4156H70.9847V46.0093H78.8851V48.0186H73.5669Z" fill="white"/>
<path d="M65.6504 46.0093V58.4156H63.0683V53.0718H57.6047V58.4156H55.0225V46.0093H57.6047V51.2762H63.0683V46.0093H65.6504Z" fill="white"/>
<path d="M49.4619 55.3633C49.6044 55.3633 49.7241 55.4146 49.821 55.5172L50.8385 56.6031C50.3369 57.2415 49.7127 57.726 48.966 58.0566C48.2249 58.3873 47.3414 58.5526 46.3154 58.5526C45.3863 58.5526 44.5512 58.3958 43.8102 58.0823C43.0692 57.7631 42.4393 57.3213 41.9206 56.757C41.4019 56.1927 41.0029 55.5229 40.7235 54.7477C40.4442 53.9725 40.3046 53.126 40.3046 52.2083C40.3046 51.5927 40.3701 51.0084 40.5012 50.4555C40.638 49.8969 40.8347 49.3839 41.0912 48.9164C41.3477 48.449 41.6555 48.0272 42.0146 47.651C42.3794 47.2748 42.7899 46.9556 43.2459 46.6934C43.7019 46.4255 44.1978 46.2231 44.7336 46.0863C45.2751 45.9438 45.8508 45.8726 46.4607 45.8726C46.9168 45.8726 47.3471 45.9125 47.7518 45.9923C48.1622 46.0721 48.5442 46.1832 48.8976 46.3257C49.251 46.4682 49.5759 46.6421 49.8723 46.8473C50.1744 47.0468 50.4452 47.2662 50.6846 47.5057L49.821 48.6856C49.7697 48.7597 49.7041 48.8252 49.6243 48.8822C49.5445 48.9392 49.4362 48.9677 49.2994 48.9677C49.1626 48.9677 49.023 48.9193 48.8805 48.8224C48.7437 48.7255 48.5727 48.6172 48.3675 48.4975C48.1679 48.3778 47.9143 48.2695 47.6065 48.1726C47.3044 48.0757 46.9196 48.0272 46.4522 48.0272C45.9335 48.0272 45.4575 48.1213 45.0243 48.3094C44.5911 48.4975 44.2177 48.7711 43.9042 49.1302C43.5964 49.4836 43.357 49.9197 43.186 50.4384C43.015 50.9571 42.9295 51.5471 42.9295 52.2083C42.9295 52.8752 43.0207 53.4709 43.2031 53.9953C43.3912 54.514 43.6449 54.9529 43.9641 55.312C44.289 55.6711 44.6652 55.9447 45.0927 56.1328C45.5259 56.3152 45.9876 56.4065 46.4778 56.4065C46.7686 56.4065 47.0308 56.3922 47.2645 56.3637C47.5039 56.3352 47.7233 56.2867 47.9228 56.2183C48.128 56.1499 48.319 56.0616 48.4957 55.9533C48.6781 55.845 48.8605 55.7082 49.0429 55.5429C49.1056 55.4916 49.1712 55.4488 49.2396 55.4146C49.308 55.3804 49.3821 55.3633 49.4619 55.3633Z" fill="white"/>
<path d="M33.2049 53.7045L31.8625 49.9082C31.7827 49.7087 31.6972 49.475 31.606 49.207C31.5205 48.9391 31.4379 48.6484 31.3581 48.3349C31.2783 48.6541 31.1928 48.9505 31.1016 49.2241C31.016 49.4921 30.9334 49.7258 30.8536 49.9253L29.5198 53.7045H33.2049ZM37.5142 58.4156H35.522C35.2997 58.4156 35.1173 58.3643 34.9748 58.2617C34.838 58.1534 34.7354 58.0166 34.667 57.8513L33.8291 55.4829H28.887L28.0491 57.8513C27.9921 57.9938 27.8924 58.1249 27.7499 58.2446C27.6074 58.3586 27.4278 58.4156 27.2112 58.4156H25.2019L30.0499 46.0093H32.6748L37.5142 58.4156Z" fill="white"/>
<path d="M16.6814 48.0186V51.2078H20.8198V53.1487H16.6814V56.4063H21.9997V58.4156H14.0993V46.0093H21.9997V48.0186H16.6814Z" fill="white"/>
<path d="M9.82421 48.0784H6.19891V58.4156H3.6253V48.0784H0V46.0093H9.82421V48.0784Z" fill="white"/>
<path d="M79.0963 40.0895H72.6738V13.1236H78.9355V16.7262C80.7046 13.6275 83.9212 12.3516 86.9127 12.3516C93.5067 12.3516 96.659 17.1121 96.659 23.0414V40.1002H90.2365V24.1565C90.2365 20.8327 88.7462 18.1736 84.6932 18.1736C81.037 18.1736 79.0963 20.9935 79.0963 24.5425V40.1002V40.0895Z" fill="white"/>
<path d="M115.562 40.0895H109.14L98.1709 13.1235H105.258L112.399 32.391L119.379 13.1235H126.134L115.562 40.0895Z" fill="white"/>
<path d="M139.15 40.8078C131.227 40.8078 126.134 34.5462 126.134 26.4617C126.134 18.3773 131.28 12.3408 139.032 12.3408C143.793 12.3408 146.227 14.8283 146.956 16.6618V13.1128H153.218V35.1573C153.218 37.3768 153.443 39.5319 153.496 40.0894H147.353C147.245 39.4783 147.074 38.0415 147.074 36.2081C145.852 38.8135 143.032 40.8078 139.15 40.8078ZM139.869 35.2753C144.082 35.2753 147.01 31.6726 147.01 26.4725C147.01 21.2723 144.125 17.9484 139.869 17.9484C135.612 17.9484 132.556 21.2723 132.556 26.4725C132.556 31.6726 135.376 35.2753 139.869 35.2753Z" fill="white"/>
<path d="M162.181 31.2334C162.407 33.6673 164.229 35.8332 167.66 35.8332C170.319 35.8332 171.703 34.3964 171.703 32.7345C171.703 31.2978 170.705 30.1827 168.55 29.7431L164.562 28.8532C159.801 27.8024 157.303 24.7037 157.303 20.9939C157.303 16.2869 161.624 12.2983 167.21 12.2983C174.737 12.2983 177.181 17.1769 177.621 19.8252L172.196 21.3799C171.971 19.8252 170.813 17.3377 167.21 17.3377C164.937 17.3377 163.329 18.7744 163.329 20.4364C163.329 21.8731 164.379 22.9239 166.041 23.2563L170.137 24.0926C175.23 25.1969 177.889 28.3063 177.889 32.2842C177.889 36.2621 174.565 40.9262 167.703 40.9262C159.898 40.9262 156.906 35.8332 156.574 32.7881L162.171 31.2334H162.181Z" fill="white"/>
</svg>
