<svg width="24" height="24" viewBox="0 0 24 24" fill="none" xmlns="http://www.w3.org/2000/svg">
<path d="M4 11.6098C4 12.8571 4.41983 13.9218 5.2595 14.8038C6.09933 15.6859 7.13975 16.1578 8.38075 16.2192H8.94825L7.829 15.0905C7.6905 14.952 7.61967 14.7779 7.6165 14.5683C7.61317 14.3586 7.684 14.1813 7.829 14.0365C7.97383 13.8917 8.14942 13.8193 8.35575 13.8193C8.56225 13.8193 8.73792 13.8917 8.88275 14.0365L11.2067 16.3693C11.3856 16.5487 11.4734 16.759 11.4703 17C11.4669 17.241 11.3781 17.4519 11.2037 17.6328L8.88275 19.973C8.74642 20.1178 8.57292 20.1902 8.36225 20.1902C8.15158 20.1902 7.97383 20.1178 7.829 19.973C7.6905 19.8367 7.62125 19.6632 7.62125 19.4525C7.62125 19.2418 7.6905 19.0641 7.829 18.9193L8.979 17.75H8.4115C6.75133 17.6885 5.351 17.0664 4.2105 15.8837C3.07017 14.7009 2.5 13.2813 2.5 11.625C2.5 9.91733 3.09008 8.46958 4.27025 7.28175C5.45042 6.09392 6.89242 5.5 8.59625 5.5H11.0963C11.3088 5.5 11.4868 5.57192 11.6305 5.71575C11.7743 5.85958 11.8463 6.03775 11.8463 6.25025C11.8463 6.46292 11.7743 6.641 11.6305 6.7845C11.4868 6.92817 11.3088 7 11.0963 7H8.59625C7.31942 7 6.23417 7.44633 5.3405 8.339C4.44683 9.23183 4 10.3221 4 11.6098ZM14.7885 16.25H20.75C20.9625 16.25 21.1406 16.3219 21.2843 16.4658C21.4281 16.6096 21.5 16.7878 21.5 17.0003C21.5 17.2129 21.4281 17.391 21.2843 17.5345C21.1406 17.6782 20.9625 17.75 20.75 17.75H14.7885C14.576 17.75 14.3978 17.6781 14.254 17.5343C14.1103 17.3904 14.0385 17.2122 14.0385 16.9998C14.0385 16.7871 14.1103 16.609 14.254 16.4655C14.3978 16.3218 14.576 16.25 14.7885 16.25ZM14.7885 10.875H20.75C20.9625 10.875 21.1406 10.9469 21.2843 11.0908C21.4281 11.2346 21.5 11.4128 21.5 11.6253C21.5 11.8379 21.4281 12.016 21.2843 12.1595C21.1406 12.3032 20.9625 12.375 20.75 12.375H14.7885C14.576 12.375 14.3978 12.3031 14.254 12.1592C14.1103 12.0154 14.0385 11.8372 14.0385 11.6247C14.0385 11.4121 14.1103 11.234 14.254 11.0905C14.3978 10.9468 14.576 10.875 14.7885 10.875ZM14.7885 5.5H20.75C20.9625 5.5 21.1406 5.57192 21.2843 5.71575C21.4281 5.85958 21.5 6.03775 21.5 6.25025C21.5 6.46292 21.4281 6.641 21.2843 6.7845C21.1406 6.92817 20.9625 7 20.75 7H14.7885C14.576 7 14.3978 6.92808 14.254 6.78425C14.1103 6.64042 14.0385 6.46225 14.0385 6.24975C14.0385 6.03708 14.1103 5.859 14.254 5.7155C14.3978 5.57183 14.576 5.5 14.7885 5.5Z" fill="#273540"/>
</svg>
