<svg width="101" height="154" viewBox="0 0 101 154" fill="none" xmlns="http://www.w3.org/2000/svg">
<g id="panda-inboxzero">
<path id="Stroke 21" fill-rule="evenodd" clip-rule="evenodd" d="M98.166 11.4601C97.6648 8.95248 94.6551 -3.08634 85.1247 2.43138C79.9736 5.41366 74.685 10.1478 70.9053 13.874C78.6985 18.0238 84.3124 24.766 88.0449 32.9187C89.5357 32.2044 91.0905 31.2651 92.6483 30.0191C100.172 24.0002 98.6673 13.9681 98.166 11.4601Z" fill="#2D3B45" stroke="#152633" stroke-width="2" stroke-linecap="round"/>
<g id="Fill 33">
<path fill-rule="evenodd" clip-rule="evenodd" d="M30.8104 96.0765C25.6767 94.9761 21.2644 93.2249 17.6201 90.8438C19.3093 95.6416 22.6311 100.232 27.75 103.163C28.5658 100.729 29.6473 98.3455 30.8104 96.0765" fill="#2D3B45"/>
<path d="M30.8104 96.0765C25.6767 94.9761 21.2644 93.2249 17.6201 90.8438C19.3093 95.6416 22.6311 100.232 27.75 103.163C28.5658 100.729 29.6473 98.3455 30.8104 96.0765" stroke="#152633" stroke-width="2"/>
</g>
<path id="Fill 1" fill-rule="evenodd" clip-rule="evenodd" d="M75.7894 140.708C77.0843 144.434 79.2185 149.589 85.2447 152.197C90.8738 154.634 102.397 145.764 92.3539 130.42C80.3738 112.116 74.3759 135.256 75.7894 140.708" fill="#394B58"/>
<g id="Fill 1_2">
<path fill-rule="evenodd" clip-rule="evenodd" d="M75.7894 140.708C77.0843 144.434 79.2185 149.589 85.2447 152.197C90.8738 154.634 102.397 145.764 92.3539 130.42C80.3738 112.116 74.3759 135.256 75.7894 140.708" fill="#2D3B45"/>
<path d="M75.7894 140.708C77.0843 144.434 79.2185 149.589 85.2447 152.197C90.8738 154.634 102.397 145.764 92.3539 130.42C80.3738 112.116 74.3759 135.256 75.7894 140.708" stroke="#152633" stroke-width="2"/>
</g>
<path id="Fill 3" fill-rule="evenodd" clip-rule="evenodd" d="M43.1943 144.93C45.726 147.884 55.8526 149.572 57.9623 140.711C60.072 131.85 47.8357 134.382 47.8357 134.382L43.1943 144.93Z" fill="#2D3B45" stroke="#152633" stroke-width="2"/>
<path id="Stroke 5" fill-rule="evenodd" clip-rule="evenodd" d="M1 60.1196C1 84.5921 18.0578 97.6723 48.4684 97.6723C78.8789 97.6723 93.9367 83.9044 93.9367 61.9635C93.9367 34.6989 81.9422 9.37695 51.5316 9.37695C21.1211 9.37695 1 34.3812 1 60.1196Z" fill="white" stroke="#152633" stroke-width="2"/>
<path id="Fill 7" fill-rule="evenodd" clip-rule="evenodd" d="M32.6459 71.7233C32.6459 73.9372 30.2281 76.5756 25.6838 76.5756C21.1395 76.5756 17.8779 73.5153 17.8779 71.3013C17.8779 69.0874 21.1395 67.7148 25.6838 67.7148C30.2281 67.7148 32.6459 69.5094 32.6459 71.7233" fill="#152633"/>
<path id="Fill 11" fill-rule="evenodd" clip-rule="evenodd" d="M36.0215 50.1724C36.0215 64.3475 48.3408 75.7629 58.5408 75.7629C68.7003 75.7629 77.188 64.281 76.9657 50.1724C76.5563 24.1692 59.3212 19.6289 54.4464 19.6289C44.0699 19.6289 36.0215 36.4295 36.0215 50.1724Z" fill="#2D3B45" stroke="#152633" stroke-width="2"/>
<path id="Fill 13" fill-rule="evenodd" clip-rule="evenodd" d="M2.22194 70.6952C3.76498 71.38 5.35738 71.734 6.67468 71.734C6.74051 71.734 6.80675 71.7332 6.87257 71.7311C10.1806 71.6425 14.0696 69.4361 17.543 64.2058C20.8768 59.1851 22.7726 53.2184 23.3612 48.3142C24.6287 37.7568 24.3063 26.788 19.7819 21.9703C19.4899 21.6598 19.1764 21.3885 18.8515 21.1387C7.72363 31.3606 1 45.9315 1 60.1197C1 63.9218 1.41224 67.4492 2.22194 70.6952Z" fill="#2D3B45" stroke="#152633" stroke-width="2"/>
<path id="Oval" d="M51.7317 56.4076C52.2601 52.6476 50.8874 49.3464 48.6655 49.0341C46.4437 48.7219 44.2142 51.5168 43.6858 55.2768" stroke="#152633" stroke-width="2" stroke-linecap="round"/>
<path id="Oval_2" d="M14.9619 56.7778C15.4423 53.3596 14.4463 50.3939 12.7372 50.1537C11.0281 49.9135 9.25314 52.4897 8.77275 55.9079" stroke="#152633" stroke-width="2" stroke-linecap="round"/>
<path id="Stroke 17" fill-rule="evenodd" clip-rule="evenodd" d="M11.0872 27.6856C11.4476 27.9734 11.8062 28.2333 12.1645 28.4785C16.0434 23.3873 20.8193 18.9021 26.3138 15.3899C23.6197 12.7823 20.045 9.65652 16.5556 7.63585C9.62944 3.62614 7.4421 12.3751 7.07754 14.1979C6.71298 16.0207 5.61931 23.3114 11.0872 27.6856Z" fill="#2D3B45" stroke="#152633" stroke-width="2" stroke-linecap="round"/>
<path id="Fill 25" fill-rule="evenodd" clip-rule="evenodd" d="M80.7471 89.6562C76.4349 91.0385 68.6071 95.4364 63.8649 96.2301C51.9471 98.2259 40.9049 98.1525 31.4505 96.0001C24.04 110.443 18.3627 132.652 51.026 139.338C65.9792 142.399 83.0725 136.903 87.4982 127.631C91.0893 120.869 88.6817 107.062 80.7471 89.6562" fill="white"/>
<path id="stroke" fill-rule="evenodd" clip-rule="evenodd" d="M47.9847 139.11C48.7606 139.898 50.7155 139.801 51.3176 140.482C41.2969 145.514 38.4315 151.956 26.8589 146.17C18.5788 142.03 20.1235 129.524 26.2345 120.678C28.2885 127.636 34.4952 134.144 47.9847 139.11Z" fill="#2D3B45" stroke="#152633" stroke-width="2"/>
<path id="Fill 31" fill-rule="evenodd" clip-rule="evenodd" d="M37.8238 97.1094C37.8221 97.1012 37.82 97.0926 37.8178 97.0844C36.6942 96.949 35.5951 96.7904 34.5195 96.6094C35.6027 96.8024 36.7048 96.9684 37.8238 97.1094" fill="#2D3B45"/>
<path id="Fill 39" fill-rule="evenodd" clip-rule="evenodd" d="M72.73 97.25C82.0127 115.393 75.5047 136.208 54.0392 136.208C41.7983 136.208 39.0414 134.333 33.5 130.666C36.6982 134.878 42.45 137.481 51.0257 139.336C64.3008 142.209 83.0726 136.902 87.4979 127.63C90.2414 122.464 89.4797 113.184 85.4321 101.333L84.1224 99.5707L72.73 97.25Z" fill="#2D3B45"/>
<path id="Stroke 27" fill-rule="evenodd" clip-rule="evenodd" d="M80.7471 89.6562C76.4349 91.0385 68.6071 95.4364 63.8649 96.2301C51.9471 98.2259 40.9049 98.1525 31.4505 96.0001C24.04 110.443 18.3627 132.652 51.026 139.338C65.9792 142.399 83.0725 136.903 87.4982 127.631C91.0893 120.869 88.6817 107.062 80.7471 89.6562Z" stroke="#152633" stroke-width="2"/>
<path id="Fill 35" fill-rule="evenodd" clip-rule="evenodd" d="M67.2662 80.4455C73.0422 73.0032 83.0153 72.5073 86.9844 80.382C90.9535 88.2564 85.1779 95.6987 84.72 97.5557C84.2621 99.4132 85.5315 103.098 86.3734 106.83C87.3147 111.002 84.5414 114.259 79.1986 111.957C64.659 105.69 61.4909 87.8871 67.2662 80.4455Z" fill="#2D3B45" stroke="#152633" stroke-width="2"/>
<path id="Fill 41" fill-rule="evenodd" clip-rule="evenodd" d="M40.1637 88.2123C39.4485 89.4701 38.5713 90.1215 37.557 90.1485C36.5776 90.1734 35.4511 89.6148 34.238 88.53C35.9355 86.8262 38.4283 86.1123 41.2625 86.0156C40.9232 86.7751 40.5549 87.5253 40.1637 88.2123ZM42.8587 80.0701C42.7996 80.1072 42.7397 80.1418 42.6806 80.1785C42.4228 80.3372 42.1654 80.4912 41.9089 80.6359C41.8806 80.6519 41.8527 80.6671 41.8249 80.6827C32.4747 85.9093 23.689 82.4409 23.5971 82.4026L23.1025 83.6068C23.192 83.6435 23.6971 83.8447 24.5363 84.0793C25.6726 84.3971 27.4262 84.7705 29.5814 84.8772C31.984 88.5532 34.2506 90.7042 36.3401 91.2878C36.7646 91.4064 37.1823 91.4604 37.5911 91.4498C39.0713 91.4106 40.3523 90.5139 41.2958 88.8561C43.3025 85.3279 44.6903 80.4026 44.7481 80.1945L45.2321 78.4629L43.7519 79.4836C43.454 79.6891 43.1561 79.8836 42.8587 80.0701Z" fill="#152633"/>
<path id="Fill 37" fill-rule="evenodd" clip-rule="evenodd" d="M87.4981 127.629C84.1399 134.665 73.4871 139.522 62.0107 140.121C62.2314 140.84 62.477 141.569 62.7711 142.315C68.8082 157.641 87.3858 151.603 90.6369 142.315C92.5086 136.966 90.7795 131.275 87.769 127.074C87.6821 127.263 87.5934 127.451 87.4981 127.629Z" fill="#2D3B45" stroke="#152633" stroke-width="2"/>
</g>
</svg>
