<svg width="24" height="24" viewBox="0 0 24 24" fill="none" xmlns="http://www.w3.org/2000/svg">
<path d="M11.3962 12L7.41543 6.43075C7.23976 6.18075 7.21859 5.9215 7.35192 5.653C7.48526 5.38433 7.70634 5.25 8.01517 5.25C8.13884 5.25 8.25626 5.27817 8.36743 5.3345C8.47859 5.39083 8.56509 5.46908 8.62692 5.56925L13.2307 12L8.62692 18.4307C8.56492 18.5309 8.47818 18.6092 8.36668 18.6655C8.25501 18.7218 8.13726 18.75 8.01343 18.75C7.71593 18.75 7.49801 18.6157 7.35968 18.347C7.22118 18.0785 7.23976 17.8193 7.41543 17.5693L11.3962 12ZM17.2692 12L13.2884 6.43075C13.1128 6.18075 13.0916 5.9215 13.2249 5.653C13.3583 5.38433 13.5793 5.25 13.8882 5.25C14.0118 5.25 14.1293 5.27817 14.2404 5.3345C14.3516 5.39083 14.4381 5.46908 14.4999 5.56925L19.1037 12L14.4999 18.4307C14.4379 18.5309 14.3512 18.6092 14.2397 18.6655C14.1282 18.7218 14.0104 18.75 13.8864 18.75C13.5891 18.75 13.3712 18.6157 13.2327 18.347C13.0942 18.0785 13.1128 17.8193 13.2884 17.5693L17.2692 12Z" fill="#273540"/>
</svg>
