<svg version="1.1" xmlns="http://www.w3.org/2000/svg" viewBox="0 0 24 24">
 <g id="Guides">
  <line id="Baseline-S" x1="0" x2="24" y1="18" y2="18"/>
  <line id="Capline-S"  x1="0" x2="24" y1="6"  y2="6"/>
  <line id="Baseline-M" x1="0" x2="24" y1="18" y2="18"/>
  <line id="Capline-M"  x1="0" x2="24" y1="6"  y2="6"/>
  <line id="Baseline-L" x1="0" x2="24" y1="18" y2="18"/>
  <line id="Capline-L"  x1="0" x2="24" y1="6"  y2="6"/>
  <line id="left-margin"  x1="0"  x2="0"  y1="0" y2="24"/>
  <line id="right-margin" x1="24" x2="24" y1="0" y2="24"/>
 </g>
 <g id="Symbols">
  <g id="Regular-M">
   <rect width="24" height="24" opacity="0" />
   <g transform="matrix(0.010416666666666666 0 0 0.010416666666666666 2 2)">
     <path d="M1581.176 1072.47h-225.882v438.551l-366.833 213.685c-17.506 10.278-39.416 10.278-56.922 0L564.706 1511.02v-438.55H338.824V685.647c0-20.103 10.842-38.739 28.009-48.79l310.814-181.045v164.894h564.706V455.812l310.814 181.044c17.167 10.052 28.01 28.688 28.01 48.791v386.824zm112.942 0V685.648c0-60.085-32.189-116.216-84.142-146.485L1242.353 325.14V56H677.647v269.139L310.024 539.162c-51.953 30.269-84.142 86.4-84.142 146.485v386.824H0v564.705h557.026l317.703 185.111c26.429 15.36 55.68 23.04 85.271 23.04 29.59 0 58.955-7.68 85.27-23.04l317.704-185.11H1920V1072.47h-225.882z" stroke="none" stroke-width="1" fill-rule="evenodd"/>
   </g>
  </g>
 </g>
</svg>
