<svg xmlns="http://www.w3.org/2000/svg" viewBox="0 0 24 24"><g transform="matrix(0.010416666666666666 0 0 0.010416666666666666 2 2)"><path d="M640 960.333v213.334h640V960.333h640V1547c0 146.987-119.68 266.667-266.667 266.667H266.667C119.68 1813.667 0 1693.987 0 1547V960.333h640ZM1120 107c88.213 0 160 71.787 160 160v160h373.333C1800.32 427 1920 546.68 1920 693.667v160h-640V747H640v106.667H0v-160C0 546.68 119.68 427 266.667 427H640V267c0-88.213 71.787-160 160-160Zm0 106.667H800c-29.44 0-53.333 23.893-53.333 53.333v160h426.666V267c0-29.44-23.893-53.333-53.333-53.333Z" fill-rule="evenodd"/></g>
</svg>