<svg width="41" height="81" viewBox="0 0 41 81" fill="none" xmlns="http://www.w3.org/2000/svg">
<path fill-rule="evenodd" clip-rule="evenodd" d="M6.5 10.5V22.5H18.5V10.5H6.5ZM17.3 11.7H7.7V21.3H17.3V11.7Z" fill="#556572"/>
<path fill-rule="evenodd" clip-rule="evenodd" d="M22.5 10.5H34.5V22.5H22.5V10.5ZM23.7 11.7H33.3V21.3H23.7V11.7Z" fill="#556572"/>
<path fill-rule="evenodd" clip-rule="evenodd" d="M6.5 26.5V38.5H18.5V26.5H6.5ZM17.3 27.7H7.7V37.3H17.3V27.7Z" fill="#556572"/>
<path fill-rule="evenodd" clip-rule="evenodd" d="M22.5 26.5H34.5V38.5H22.5V26.5ZM23.7 27.7H33.3V37.3H23.7V27.7Z" fill="#556572"/>
<path fill-rule="evenodd" clip-rule="evenodd" d="M6.5 42.5V54.5H18.5V42.5H6.5ZM17.3 43.7H7.7V53.3H17.3V43.7Z" fill="#556572"/>
<path fill-rule="evenodd" clip-rule="evenodd" d="M22.5 42.5H34.5V54.5H22.5V42.5ZM23.7 43.7H33.3V53.3H23.7V43.7Z" fill="#556572"/>
<path fill-rule="evenodd" clip-rule="evenodd" d="M6.5 58.5V70.5H18.5V58.5H6.5ZM17.3 59.7H7.7V69.3H17.3V59.7Z" fill="#556572"/>
<path fill-rule="evenodd" clip-rule="evenodd" d="M22.5 58.5H34.5V70.5H22.5V58.5ZM23.7 59.7H33.3V69.3H23.7V59.7Z" fill="#556572"/>
<path fill-rule="evenodd" clip-rule="evenodd" d="M4.5 0.5C2.29086 0.5 0.5 2.29086 0.5 4.5V76.5C0.5 78.7091 2.29086 80.5 4.5 80.5H36.5C38.7091 80.5 40.5 78.7091 40.5 76.5V4.5C40.5 2.29086 38.7091 0.5 36.5 0.5H4.5ZM36.5 1.7H4.5C2.9536 1.7 1.7 2.9536 1.7 4.5V76.5C1.7 78.0464 2.9536 79.3 4.5 79.3H36.5C38.0464 79.3 39.3 78.0464 39.3 76.5V4.5C39.3 2.9536 38.0464 1.7 36.5 1.7Z" fill="#556572"/>
</svg>
