
<svg version="1.1" xmlns="http://www.w3.org/2000/svg" viewBox="0 0 24 24">
 <g id="Guides">
  <line id="Baseline-S" x1="0" x2="24" y1="18" y2="18"/>
  <line id="Capline-S"  x1="0" x2="24" y1="6" y2="6"/>
  <line id="Baseline-M" x1="0" x2="24" y1="18" y2="18"/>
  <line id="Capline-M"  x1="0" x2="24" y1="6" y2="6"/>
  <line id="Baseline-L" x1="0" x2="24" y1="18" y2="18"/>
  <line id="Capline-L"  x1="0" x2="24" y1="6" y2="6"/>
  <line id="left-margin" x1="0" x2="0" y1="0" y2="24"/>
  <line id="right-margin"  x1="24" x2="24" y1="0" y2="24"/>
 </g>
 <g id="Symbols">
  <g id="Regular-M">
   <rect width="24" height="24" opacity="0" />
   <g transform="matrix(0.010416666666666666 0 0 0.010416666666666666 2 2)">
     <path d="M1280 1493.667v-213.334h106.667v213.334c0 88.213-71.787 160-160 160H160c-88.213 0-160-71.787-160-160V427c0-88.213 71.787-160 160-160h1066.667c88.213 0 160 71.787 160 160v426.667H1280v-160H106.667v800C106.667 1523 130.56 1547 160 1547h1066.667c29.44 0 53.333-24 53.333-53.333zm624.373-464.374c20.8 20.8 20.8 54.614 0 75.414l-320 320-75.413-75.414 228.907-228.906H906.613V1013.72h831.254L1508.96 784.707l75.413-75.414 320 320zM160 373.667c-29.44 0-53.333 24-53.333 53.333v160H1280V427c0-29.333-23.893-53.333-53.333-53.333H160z" stroke="none" stroke-width="1" fill-rule="evenodd"/>
   </g>
  </g>
 </g>
</svg>
