<svg xmlns="http://www.w3.org/2000/svg" viewBox="0 0 24 24"><g><path fill-rule="evenodd" stroke="none" stroke-width="1" d="M219.03 0H1801.44v1920H219.03v-439.216h-56.514c-31.196 0-56.515-25.299-56.515-56.47 0-31.172 25.319-56.47 56.515-56.47h56.514V1029.02h-56.514c-31.196 0-56.515-25.3-56.515-56.471 0-31.172 25.319-56.47 56.515-56.47h56.514V577.254h-56.514c-31.196 0-56.515-25.299-56.515-56.47 0-31.172 25.319-56.471 56.515-56.471h56.514V0zm1469.382 1807.059V112.94H332.059v351.373h56.515c31.196 0 56.514 25.299 56.514 56.47 0 31.172-25.318 56.47-56.514 56.47h-56.515v338.824h56.515c31.196 0 56.514 25.3 56.514 56.471 0 31.172-25.318 56.47-56.514 56.47h-56.515v338.824h56.515c31.196 0 56.514 25.299 56.514 56.47 0 31.172-25.318 56.471-56.514 56.471h-56.515v326.275h1356.353zM1461.96 734.118v508.235H558.43v-903.53h621.177v112.942H671.373v677.647h677.647V734.118h112.94zM889.315 622.114l145.017 145.13 352.602-352.603 79.85 79.85-432.452 432.451-224.866-224.979 79.85-79.85z" transform="matrix(0.010416666666666666 0 0 0.010416666666666666 2 2)"/></g></svg>