<svg width="24" height="24" viewBox="0 0 24 24" fill="none" xmlns="http://www.w3.org/2000/svg">
<path d="M5.404 20.5C5.14617 20.5 4.93108 20.4138 4.75875 20.2413C4.58625 20.0689 4.5 19.8538 4.5 19.596V17.873C4.5 17.632 4.54683 17.4003 4.6405 17.178C4.734 16.9555 4.86283 16.7622 5.027 16.598L17.6943 3.94625C17.8494 3.79108 18.0199 3.67792 18.2057 3.60675C18.3917 3.53558 18.5777 3.5 18.7635 3.5C18.9597 3.5 19.1497 3.53558 19.3337 3.60675C19.5176 3.67792 19.6788 3.79108 19.8173 3.94625L21.0538 5.18275C21.2089 5.32125 21.3221 5.48242 21.3932 5.66625C21.4644 5.85025 21.5 6.04033 21.5 6.2365C21.5 6.42233 21.4644 6.60825 21.3932 6.79425C21.3221 6.98008 21.2089 7.15058 21.0538 7.30575L8.402 19.973C8.23783 20.1372 8.0445 20.266 7.822 20.3595C7.59967 20.4532 7.368 20.5 7.127 20.5H5.404ZM6 19H7.2365L17.427 8.825L16.8135 8.1865L16.175 7.573L6 17.7635V19ZM16.8135 8.1865L16.175 7.573L17.427 8.825L16.8135 8.1865ZM14.1348 20.5C15.3039 20.5 16.3878 20.2141 17.3865 19.6423C18.3852 19.0704 18.8845 18.273 18.8845 17.25C18.8845 16.7295 18.7384 16.267 18.4462 15.8625C18.1539 15.458 17.7494 15.0987 17.2327 14.7845C17.0571 14.6692 16.8696 14.6211 16.6702 14.6403C16.4709 14.6596 16.3084 14.7468 16.1827 14.902C16.0571 15.057 16.0038 15.2419 16.023 15.4567C16.0423 15.6714 16.1398 15.8365 16.3155 15.952C16.645 16.148 16.9056 16.3515 17.0973 16.5625C17.2889 16.7733 17.3848 17.0025 17.3848 17.25C17.3848 17.723 17.0598 18.1329 16.4098 18.4798C15.7598 18.8266 15.0014 19 14.1348 19C13.9219 19 13.7437 19.0718 13.6 19.2155C13.4565 19.359 13.3848 19.5372 13.3848 19.75C13.3848 19.9628 13.4565 20.141 13.6 20.2845C13.7437 20.4282 13.9219 20.5 14.1348 20.5ZM9.5 6.25C9.5 6.541 9.33492 6.80483 9.00475 7.0415C8.67475 7.278 7.97508 7.63792 6.90575 8.12125C5.61725 8.68525 4.7275 9.19033 4.2365 9.6365C3.7455 10.0827 3.5 10.6205 3.5 11.25C3.5 11.6642 3.60642 12.0267 3.81925 12.3375C4.03208 12.6483 4.29683 12.916 4.6135 13.1405C4.77883 13.2725 4.95958 13.3244 5.15575 13.2963C5.35192 13.2679 5.516 13.1711 5.648 13.0058C5.78017 12.8404 5.83467 12.6581 5.8115 12.4588C5.7885 12.2594 5.69425 12.0937 5.52875 11.9615C5.35442 11.8462 5.22275 11.7292 5.13375 11.6105C5.04458 11.492 5 11.3718 5 11.25C5 10.9987 5.16767 10.7506 5.503 10.5057C5.83817 10.2609 6.50508 9.92375 7.50375 9.49425C8.89358 8.89942 9.82375 8.36125 10.2943 7.87975C10.7648 7.39842 11 6.85517 11 6.25C11 5.4295 10.6542 4.76608 9.9625 4.25975C9.27083 3.75325 8.36667 3.5 7.25 3.5C6.56417 3.5 5.93342 3.62375 5.35775 3.87125C4.78208 4.11858 4.35192 4.42117 4.06725 4.779C3.92892 4.94433 3.87158 5.12667 3.89525 5.326C3.91892 5.52533 4.0135 5.68908 4.179 5.81725C4.34433 5.94942 4.52508 6.00358 4.72125 5.97975C4.91742 5.95608 5.08467 5.875 5.223 5.7365C5.47567 5.484 5.76608 5.29808 6.09425 5.17875C6.42242 5.05958 6.80767 5 7.25 5C7.98467 5 8.54333 5.124 8.926 5.372C9.30867 5.62017 9.5 5.91283 9.5 6.25Z" fill="#273540"/>
</svg>
