<svg width="24" height="24" viewBox="0 0 24 24" fill="none" xmlns="http://www.w3.org/2000/svg">
<path d="M12 15.9288L10.227 17.702C10.0885 17.8403 9.91442 17.9112 9.70475 17.9145C9.49525 17.9177 9.318 17.8468 9.173 17.702C9.02817 17.557 8.95575 17.3813 8.95575 17.175C8.95575 16.9687 9.02817 16.793 9.173 16.648L10.9463 14.875L9.173 13.102C9.03467 12.9635 8.96383 12.7894 8.9605 12.5798C8.95733 12.3703 9.02817 12.193 9.173 12.048C9.318 11.9032 9.49367 11.8308 9.7 11.8308C9.90633 11.8308 10.082 11.9032 10.227 12.048L12 13.8213L13.773 12.048C13.9115 11.9097 14.0856 11.8388 14.2952 11.8355C14.5048 11.8323 14.682 11.9032 14.827 12.048C14.9718 12.193 15.0443 12.3687 15.0443 12.575C15.0443 12.7813 14.9718 12.957 14.827 13.102L13.0538 14.875L14.827 16.648C14.9653 16.7865 15.0362 16.9606 15.0395 17.1703C15.0427 17.3798 14.9718 17.557 14.827 17.702C14.682 17.8468 14.5063 17.9193 14.3 17.9193C14.0937 17.9193 13.918 17.8468 13.773 17.702L12 15.9288ZM5.30775 21.5C4.80258 21.5 4.375 21.325 4.025 20.975C3.675 20.625 3.5 20.1974 3.5 19.6923V6.30777C3.5 5.8026 3.675 5.37502 4.025 5.02502C4.375 4.67502 4.80258 4.50002 5.30775 4.50002H6.69225V3.15377C6.69225 2.9346 6.76567 2.7516 6.9125 2.60477C7.05933 2.4581 7.24233 2.38477 7.4615 2.38477C7.68083 2.38477 7.86383 2.4581 8.0105 2.60477C8.15733 2.7516 8.23075 2.9346 8.23075 3.15377V4.50002H15.8077V3.13477C15.8077 2.92193 15.8795 2.74368 16.023 2.60002C16.1667 2.45652 16.3449 2.38477 16.5577 2.38477C16.7706 2.38477 16.9488 2.45652 17.0922 2.60002C17.2359 2.74368 17.3077 2.92193 17.3077 3.13477V4.50002H18.6923C19.1974 4.50002 19.625 4.67502 19.975 5.02502C20.325 5.37502 20.5 5.8026 20.5 6.30777V19.6923C20.5 20.1974 20.325 20.625 19.975 20.975C19.625 21.325 19.1974 21.5 18.6923 21.5H5.30775ZM5.30775 20H18.6923C18.7692 20 18.8398 19.9679 18.9038 19.9038C18.9679 19.8398 19 19.7693 19 19.6923V10.3078H5V19.6923C5 19.7693 5.03208 19.8398 5.09625 19.9038C5.16025 19.9679 5.23075 20 5.30775 20ZM5 8.80777H19V6.30777C19 6.23077 18.9679 6.16026 18.9038 6.09626C18.8398 6.0321 18.7692 6.00002 18.6923 6.00002H5.30775C5.23075 6.00002 5.16025 6.0321 5.09625 6.09626C5.03208 6.16026 5 6.23077 5 6.30777V8.80777Z" fill="#273540"/>
</svg>
