<svg width="24" height="24" viewBox="0 0 24 24" fill="none" xmlns="http://www.w3.org/2000/svg">
<path d="M12.0017 21.5C10.6877 21.5 9.45267 21.2507 8.2965 20.752C7.14033 20.2533 6.13467 19.5766 5.2795 18.7218C4.42433 17.8669 3.74725 16.8617 3.24825 15.706C2.74942 14.5503 2.5 13.3156 2.5 12.0017C2.5 10.6877 2.74933 9.45267 3.248 8.2965C3.74667 7.14033 4.42342 6.13467 5.27825 5.2795C6.13308 4.42433 7.13833 3.74725 8.294 3.24825C9.44967 2.74942 10.6844 2.5 11.9983 2.5C13.3123 2.5 14.5473 2.74933 15.7035 3.248C16.8597 3.74667 17.8653 4.42342 18.7205 5.27825C19.5757 6.13308 20.2528 7.13833 20.7518 8.294C21.2506 9.44967 21.5 10.6844 21.5 11.9983C21.5 13.3123 21.2507 14.5473 20.752 15.7035C20.2533 16.8597 19.5766 17.8653 18.7218 18.7205C17.8669 19.5757 16.8617 20.2528 15.706 20.7518C14.5503 21.2506 13.3156 21.5 12.0017 21.5ZM12 20C14.2333 20 16.125 19.225 17.675 17.675C19.225 16.125 20 14.2333 20 12C20 9.76667 19.225 7.875 17.675 6.325C16.125 4.775 14.2333 4 12 4C9.76667 4 7.875 4.775 6.325 6.325C4.775 7.875 4 9.76667 4 12C4 14.2333 4.775 16.125 6.325 17.675C7.875 19.225 9.76667 20 12 20ZM11 16.75H12.9423C13.4474 16.75 13.875 16.575 14.225 16.225C14.575 15.875 14.75 15.4474 14.75 14.9423V9.05775C14.75 8.55258 14.575 8.125 14.225 7.775C13.875 7.425 13.4474 7.25 12.9423 7.25H11.0577C10.5526 7.25 10.125 7.425 9.775 7.775C9.425 8.125 9.25 8.55258 9.25 9.05775V10.9423C9.25 11.4474 9.425 11.875 9.775 12.225C10.125 12.575 10.5526 12.75 11.0577 12.75H13.25V14.9423C13.25 15.0321 13.2212 15.1058 13.1635 15.1635C13.1058 15.2212 13.0321 15.25 12.9423 15.25H11C10.7875 15.25 10.6094 15.3219 10.4658 15.4658C10.3219 15.6096 10.25 15.7878 10.25 16.0003C10.25 16.2129 10.3219 16.391 10.4658 16.5345C10.6094 16.6782 10.7875 16.75 11 16.75ZM13.25 11.25H11.0577C10.9679 11.25 10.8942 11.2212 10.8365 11.1635C10.7788 11.1058 10.75 11.0321 10.75 10.9423V9.05775C10.75 8.96792 10.7788 8.89417 10.8365 8.8365C10.8942 8.77883 10.9679 8.75 11.0577 8.75H12.9423C13.0321 8.75 13.1058 8.77883 13.1635 8.8365C13.2212 8.89417 13.25 8.96792 13.25 9.05775V11.25Z" fill="#273540"/>
</svg>
