<svg width="24" height="24" viewBox="0 0 24 24" fill="none" xmlns="http://www.w3.org/2000/svg">
<path d="M8.94225 12.6538H15.0577C15.2703 12.6538 15.4483 12.5818 15.592 12.438C15.7358 12.2943 15.8077 12.1162 15.8077 11.9035C15.8077 11.6908 15.7358 11.5127 15.592 11.3693C15.4483 11.2256 15.2703 11.1538 15.0577 11.1538H8.94225C8.72975 11.1538 8.55167 11.2257 8.408 11.3695C8.26417 11.5133 8.19225 11.6916 8.19225 11.9043C8.19225 12.1168 8.26417 12.2948 8.408 12.4385C8.55167 12.582 8.72975 12.6538 8.94225 12.6538ZM8.94225 15.5385H15.0577C15.2703 15.5385 15.4483 15.4666 15.592 15.3228C15.7358 15.1789 15.8077 15.0007 15.8077 14.788C15.8077 14.5755 15.7358 14.3974 15.592 14.2537C15.4483 14.1103 15.2703 14.0385 15.0577 14.0385H8.94225C8.72975 14.0385 8.55167 14.1104 8.408 14.2543C8.26417 14.3981 8.19225 14.5763 8.19225 14.7887C8.19225 15.0014 8.26417 15.1795 8.408 15.323C8.55167 15.4667 8.72975 15.5385 8.94225 15.5385ZM8.94225 18.423H12.0578C12.2702 18.423 12.4483 18.3511 12.592 18.2072C12.7358 18.0634 12.8077 17.8853 12.8077 17.6728C12.8077 17.4601 12.7358 17.282 12.592 17.1385C12.4483 16.9948 12.2702 16.923 12.0578 16.923H8.94225C8.72975 16.923 8.55167 16.9949 8.408 17.1388C8.26417 17.2826 8.19225 17.4608 8.19225 17.6735C8.19225 17.886 8.26417 18.0641 8.408 18.2078C8.55167 18.3512 8.72975 18.423 8.94225 18.423ZM6.30775 21.5C5.80258 21.5 5.375 21.325 5.025 20.975C4.675 20.625 4.5 20.1974 4.5 19.6923V4.30775C4.5 3.80258 4.675 3.375 5.025 3.025C5.375 2.675 5.80258 2.5 6.30775 2.5H13.502C13.7458 2.5 13.9782 2.54683 14.1992 2.6405C14.4202 2.734 14.6128 2.86283 14.777 3.027L18.973 7.223C19.1372 7.38717 19.266 7.57975 19.3595 7.80075C19.4532 8.02175 19.5 8.25417 19.5 8.498V19.6923C19.5 20.1974 19.325 20.625 18.975 20.975C18.625 21.325 18.1974 21.5 17.6923 21.5H6.30775ZM18 8.5H14.8558C14.4792 8.5 14.1592 8.36817 13.8955 8.1045C13.6318 7.84083 13.5 7.52075 13.5 7.14425V4H6.30775C6.23075 4 6.16025 4.03208 6.09625 4.09625C6.03208 4.16025 6 4.23075 6 4.30775V19.6923C6 19.7693 6.03208 19.8398 6.09625 19.9038C6.16025 19.9679 6.23075 20 6.30775 20H17.6923C17.7692 20 17.8398 19.9679 17.9038 19.9038C17.9679 19.8398 18 19.7693 18 19.6923V8.5Z" fill="#273540"/>
</svg>
