<svg width="24" height="24" viewBox="0 0 24 24" fill="none" xmlns="http://www.w3.org/2000/svg">
<path d="M5.25 18.8845C5.0375 18.8845 4.85942 18.8127 4.71575 18.669C4.57192 18.5252 4.5 18.3469 4.5 18.1343C4.5 17.9218 4.57192 17.7437 4.71575 17.6C4.85942 17.4565 5.0375 17.3848 5.25 17.3848H6.30775V9.923C6.30775 8.57817 6.72283 7.38908 7.553 6.35575C8.383 5.32242 9.44867 4.6615 10.75 4.373V3.75C10.75 3.40283 10.8714 3.10767 11.1143 2.8645C11.3571 2.6215 11.6519 2.5 11.9988 2.5C12.3458 2.5 12.641 2.6215 12.8845 2.8645C13.1282 3.10767 13.25 3.40283 13.25 3.75V4.373C14.5513 4.6615 15.617 5.32242 16.447 6.35575C17.2772 7.38908 17.6923 8.57817 17.6923 9.923V17.3848H18.75C18.9625 17.3848 19.1406 17.4566 19.2843 17.6003C19.4281 17.7441 19.5 17.9223 19.5 18.135C19.5 18.3475 19.4281 18.5256 19.2843 18.6693C19.1406 18.8128 18.9625 18.8845 18.75 18.8845H5.25ZM11.9983 21.6923C11.5008 21.6923 11.0754 21.5153 10.7223 21.1613C10.3689 20.8073 10.1923 20.3817 10.1923 19.8845H13.8077C13.8077 20.3833 13.6306 20.8093 13.2762 21.1625C12.9219 21.5157 12.4959 21.6923 11.9983 21.6923ZM7.80775 17.3848H16.1923V9.923C16.1923 8.76533 15.783 7.77725 14.9645 6.95875C14.1458 6.14008 13.1577 5.73075 12 5.73075C10.8423 5.73075 9.85417 6.14008 9.0355 6.95875C8.217 7.77725 7.80775 8.76533 7.80775 9.923V17.3848ZM12.0003 12.9038C12.2129 12.9038 12.391 12.8319 12.5345 12.6883C12.6782 12.5444 12.75 12.3663 12.75 12.1538V8.75C12.75 8.5375 12.6781 8.35933 12.5343 8.2155C12.3904 8.07183 12.2122 8 11.9997 8C11.7871 8 11.609 8.07183 11.4655 8.2155C11.3218 8.35933 11.25 8.5375 11.25 8.75V12.1538C11.25 12.3663 11.3219 12.5444 11.4658 12.6883C11.6096 12.8319 11.7878 12.9038 12.0003 12.9038ZM12 15.8078C12.2288 15.8078 12.4207 15.7303 12.5755 15.5755C12.7303 15.4207 12.8077 15.2288 12.8077 15C12.8077 14.7712 12.7303 14.5793 12.5755 14.4245C12.4207 14.2697 12.2288 14.1923 12 14.1923C11.7712 14.1923 11.5793 14.2697 11.4245 14.4245C11.2697 14.5793 11.1923 14.7712 11.1923 15C11.1923 15.2288 11.2697 15.4207 11.4245 15.5755C11.5793 15.7303 11.7712 15.8078 12 15.8078Z" fill="#273540"/>
</svg>
