<svg xmlns="http://www.w3.org/2000/svg" viewBox="0 0 24 24"><g transform="matrix(0.010416666666666666 0 0 0.010416666666666666 2 2)"><path d="M1591.462 544.364c129.295 100.893 238.985 236.548 316.774 392.233L1920 960.23l-11.658 23.634c-187.797 377.713-551.097 612.353-948.31 612.353-111.385 0-220.227-18.546-323.876-55.003l35.186-99.94c92.203 32.43 189.386 48.963 288.69 48.963 348.463 0 668.417-202.422 841.164-529.795-69.735-131.839-164.48-246.404-274.912-332.46ZM959.968 430.361c99.41 0 196.487 16.533 290.492 49.6 27.555 8.69 55.321 19.711 82.982 32.005l-189.704 189.705c-52.142-36.988-115.2-59.35-183.77-59.35-175.291 0-317.94 142.65-317.94 317.941 0 68.57 22.362 131.627 59.349 183.77l-212.703 212.596c-30.734-18.547-62.21-39.319-94.852-64.012-110.537-86.056-205.283-200.727-275.124-332.46C291.55 632.677 611.61 430.361 959.968 430.361Zm181.968 422.861c18.653 31.582 29.993 67.827 29.993 107.04 0 116.896-95.065 211.96-211.96 211.96-39.107 0-75.459-11.34-106.935-29.992l288.902-289.008Zm-181.968-104.92c39.213 0 75.458 11.446 107.04 29.992L778 1067.302c-18.546-31.582-29.992-67.827-29.992-107.04 0-116.79 95.064-211.96 211.96-211.96Zm0 529.9c175.397 0 317.94-142.543 317.94-317.94 0-68.463-22.361-131.627-59.242-183.663l573.67-573.671L1717.408 128l-304.905 304.905c-43.027-21.408-86.373-40.273-128.66-53.52-103.542-36.457-212.49-55.004-323.875-55.004-397.213 0-760.62 234.64-948.204 612.354L0 960.368l11.764 23.634c77.79 155.685 187.479 291.34 317.516 392.656 28.403 21.514 55.64 40.167 82.24 57.23l-283.814 283.814 74.928 74.928 573.67-573.67c52.037 36.88 115.095 59.243 183.664 59.243" fill-rule="evenodd"/></g>
</svg>