<svg width="24" height="24" viewBox="0 0 24 24" fill="none" xmlns="http://www.w3.org/2000/svg">
<mask id="mask0_4771_95644" style="mask-type:alpha" maskUnits="userSpaceOnUse" x="0" y="0" width="24" height="24">
<rect width="24" height="24" fill="#D9D9D9"/>
</mask>
<g mask="url(#mask0_4771_95644)">
<path d="M3.30775 15.5C2.83208 15.5 2.41192 15.3176 2.04725 14.9528C1.68242 14.5881 1.5 14.1679 1.5 13.6923V12.077C1.5 11.9732 1.51092 11.861 1.53275 11.7405C1.55458 11.62 1.58725 11.5077 1.63075 11.4037L4.49625 4.64225C4.63975 4.32175 4.88008 4.05125 5.21725 3.83075C5.55442 3.61025 5.90508 3.5 6.26925 3.5H14.3655C14.8642 3.5 15.2901 3.67658 15.6432 4.02975C15.9964 4.38308 16.173 4.80908 16.173 5.30775V14.752C16.173 14.993 16.1237 15.2247 16.025 15.447C15.9263 15.6695 15.7949 15.8628 15.6307 16.027L10.3405 21.2828C10.1417 21.4711 9.9115 21.5871 9.65 21.6308C9.3885 21.6743 9.13792 21.6352 8.89825 21.5135C8.65842 21.3917 8.48533 21.2128 8.379 20.977C8.2725 20.741 8.25133 20.4903 8.3155 20.225L9.3925 15.5H3.30775ZM19.6923 3.5C20.1909 3.5 20.6169 3.67658 20.9703 4.02975C21.3234 4.38308 21.5 4.80908 21.5 5.30775V13.6923C21.5 14.1909 21.3234 14.6169 20.9703 14.9703C20.6169 15.3234 20.1909 15.5 19.6923 15.5H19.4807C18.9821 15.5 18.5561 15.3234 18.2027 14.9703C17.8496 14.6169 17.673 14.1909 17.673 13.6923V5.298C17.673 4.79933 17.8496 4.375 18.2027 4.025C18.5561 3.675 18.9821 3.5 19.4807 3.5H19.6923Z" fill="#273540"/>
</g>
</svg>
