<svg version="1.1" xmlns="http://www.w3.org/2000/svg" viewBox="0 0 24 24">
 <g id="Guides">
  <line id="Baseline-S" x1="0" x2="24" y1="18" y2="18"/>
  <line id="Capline-S"  x1="0" x2="24" y1="6"  y2="6"/>
  <line id="Baseline-M" x1="0" x2="24" y1="18" y2="18"/>
  <line id="Capline-M"  x1="0" x2="24" y1="6"  y2="6"/>
  <line id="Baseline-L" x1="0" x2="24" y1="18" y2="18"/>
  <line id="Capline-L"  x1="0" x2="24" y1="6"  y2="6"/>
  <line id="left-margin"  x1="0"  x2="0"  y1="0" y2="24"/>
  <line id="right-margin" x1="24" x2="24" y1="0" y2="24"/>
 </g>
 <g id="Symbols">
  <g id="Regular-M">
   <rect width="24" height="24" opacity="0" />
   <g transform="matrix(0.010416666666666666 0 0 0.010416666666666666 2 2)">
     <path d="M960 1920C429.807 1920 0 1490.193 0 960S429.807 0 960 0s960 429.807 960 960-429.807 960-960 960zm0-101.053c474.384 0 858.947-384.563 858.947-858.947S1434.384 101.053 960 101.053 101.053 485.616 101.053 960 485.616 1818.947 960 1818.947zm-9.32-496.403c-80.024 0-145.128 65.104-145.128 145.128 0 80.024 65.104 145.128 145.128 145.128 80.024 0 145.128-65.104 145.128-145.128 0-80.024-65.104-145.128-145.128-145.128zm192.785-968.86h-385.57l93.901 851.327h197.768l93.901-851.327z" stroke="none" stroke-width="1" fill-rule="evenodd"/>
   </g>
  </g>
 </g>
</svg>
