<svg width="24" height="24" viewBox="0 0 24 24" fill="none" xmlns="http://www.w3.org/2000/svg">
<path d="M4.5 19V10.1537C4.5 9.86757 4.564 9.59649 4.692 9.34049C4.82017 9.08432 4.99717 8.87341 5.223 8.70774L10.9155 4.41924C11.2313 4.17824 11.5923 4.05774 11.9985 4.05774C12.4047 4.05774 12.7667 4.17824 13.0845 4.41924L18.777 8.70774C19.0028 8.87341 19.1798 9.08432 19.308 9.34049C19.436 9.59649 19.5 9.86757 19.5 10.1537V19C19.5 19.409 19.3523 19.7612 19.0568 20.0567C18.7613 20.3522 18.409 20.5 18 20.5H14.8077C14.5516 20.5 14.3369 20.4133 14.1637 20.24C13.9904 20.0668 13.9038 19.8522 13.9038 19.596V14.7115C13.9038 14.4555 13.8172 14.2408 13.644 14.0675C13.4708 13.8943 13.2562 13.8077 13 13.8077H11C10.7438 13.8077 10.5292 13.8943 10.356 14.0675C10.1828 14.2408 10.0963 14.4555 10.0963 14.7115V19.596C10.0963 19.8522 10.0096 20.0668 9.83625 20.24C9.66308 20.4133 9.44842 20.5 9.19225 20.5H6C5.591 20.5 5.23875 20.3522 4.94325 20.0567C4.64775 19.7612 4.5 19.409 4.5 19Z" fill="#273540"/>
</svg>
