<svg width="24" height="24" viewBox="0 0 24 24" fill="none" xmlns="http://www.w3.org/2000/svg">
<path d="M12.75 8.75V10C12.75 10.2125 12.8219 10.3906 12.9658 10.5343C13.1096 10.6781 13.2878 10.75 13.5003 10.75C13.7129 10.75 13.891 10.6781 14.0345 10.5343C14.1782 10.3906 14.25 10.2125 14.25 10V8.75H15.5C15.7125 8.75 15.8906 8.67808 16.0343 8.53425C16.1781 8.39042 16.25 8.21225 16.25 7.99975C16.25 7.78708 16.1781 7.609 16.0343 7.4655C15.8906 7.32183 15.7125 7.25 15.5 7.25H14.25V6C14.25 5.7875 14.1781 5.60942 14.0343 5.46575C13.8904 5.32192 13.7122 5.25 13.4998 5.25C13.2871 5.25 13.109 5.32192 12.9655 5.46575C12.8218 5.60942 12.75 5.7875 12.75 6V7.25H11.5C11.2875 7.25 11.1094 7.32192 10.9658 7.46575C10.8219 7.60958 10.75 7.78775 10.75 8.00025C10.75 8.21292 10.8219 8.391 10.9658 8.5345C11.1094 8.67817 11.2875 8.75 11.5 8.75H12.75ZM11.5 14.75H15.5C15.7125 14.75 15.8906 14.6781 16.0343 14.5343C16.1781 14.3904 16.25 14.2122 16.25 13.9998C16.25 13.7871 16.1781 13.609 16.0343 13.4655C15.8906 13.3218 15.7125 13.25 15.5 13.25H11.5C11.2875 13.25 11.1094 13.3219 10.9658 13.4658C10.8219 13.6096 10.75 13.7878 10.75 14.0003C10.75 14.2129 10.8219 14.391 10.9658 14.5345C11.1094 14.6782 11.2875 14.75 11.5 14.75ZM8.30775 18.5C7.80258 18.5 7.375 18.325 7.025 17.975C6.675 17.625 6.5 17.1974 6.5 16.6923V3.30775C6.5 2.80258 6.675 2.375 7.025 2.025C7.375 1.675 7.80258 1.5 8.30775 1.5H14.502C14.7458 1.5 14.9782 1.54683 15.1992 1.6405C15.4202 1.734 15.6128 1.86283 15.777 2.027L19.973 6.223C20.1372 6.38717 20.266 6.57975 20.3595 6.80075C20.4532 7.02175 20.5 7.25417 20.5 7.498V16.6923C20.5 17.1974 20.325 17.625 19.975 17.975C19.625 18.325 19.1974 18.5 18.6923 18.5H8.30775ZM8.30775 17H18.6923C18.7693 17 18.8398 16.9679 18.9038 16.9038C18.9679 16.8398 19 16.7692 19 16.6923V7.5L14.5 3H8.30775C8.23075 3 8.16025 3.03208 8.09625 3.09625C8.03208 3.16025 8 3.23075 8 3.30775V16.6923C8 16.7692 8.03208 16.8398 8.09625 16.9038C8.16025 16.9679 8.23075 17 8.30775 17ZM4.30775 22.5C3.80258 22.5 3.375 22.325 3.025 21.975C2.675 21.625 2.5 21.1974 2.5 20.6923V8.25C2.5 8.0375 2.57192 7.85942 2.71575 7.71575C2.85958 7.57192 3.03775 7.5 3.25025 7.5C3.46292 7.5 3.641 7.57192 3.7845 7.71575C3.92817 7.85942 4 8.0375 4 8.25V20.6923C4 20.7693 4.03208 20.8398 4.09625 20.9038C4.16025 20.9679 4.23075 21 4.30775 21H13.75C13.9625 21 14.1406 21.0719 14.2843 21.2157C14.4281 21.3596 14.5 21.5378 14.5 21.7502C14.5 21.9629 14.4281 22.141 14.2843 22.2845C14.1406 22.4282 13.9625 22.5 13.75 22.5H4.30775Z" fill="#273540"/>
</svg>
