<svg width="24" height="24" viewBox="0 0 24 24" fill="none" xmlns="http://www.w3.org/2000/svg">
<path d="M4.46915 12.0155L8.5269 16.073C8.66523 16.2115 8.73607 16.3856 8.7394 16.5952C8.74257 16.8047 8.67173 16.982 8.5269 17.127C8.3819 17.2718 8.20623 17.3442 7.9999 17.3442C7.79357 17.3442 7.6179 17.2718 7.4729 17.127L2.97865 12.6327C2.88515 12.5391 2.81915 12.4403 2.78065 12.3365C2.74215 12.2327 2.7229 12.1205 2.7229 12C2.7229 11.8795 2.74215 11.7673 2.78065 11.6635C2.81915 11.5597 2.88515 11.4609 2.97865 11.3672L7.4729 6.87299C7.62173 6.72432 7.7984 6.6484 8.0029 6.64524C8.20723 6.64207 8.38698 6.71799 8.54215 6.87299C8.69732 7.02815 8.7749 7.2064 8.7749 7.40774C8.7749 7.6089 8.69732 7.78707 8.54215 7.94224L4.46915 12.0155ZM19.5307 11.9845L15.4729 7.92699C15.3346 7.78849 15.2637 7.6144 15.2604 7.40474C15.2572 7.19524 15.3281 7.01799 15.4729 6.87299C15.6179 6.72815 15.7936 6.65574 15.9999 6.65574C16.2062 6.65574 16.3819 6.72815 16.5269 6.87299L21.0212 11.3672C21.1147 11.4609 21.1807 11.5597 21.2192 11.6635C21.2577 11.7673 21.2769 11.8795 21.2769 12C21.2769 12.1205 21.2577 12.2327 21.2192 12.3365C21.1807 12.4403 21.1147 12.5391 21.0212 12.6327L16.5269 17.127C16.3781 17.2757 16.204 17.349 16.0047 17.347C15.8053 17.3452 15.6281 17.2667 15.4729 17.1115C15.3179 16.9563 15.2404 16.7782 15.2404 16.577C15.2404 16.3757 15.3179 16.1974 15.4729 16.0422L19.5307 11.9845Z" fill="#273540"/>
</svg>
