<svg version="1.1" xmlns="http://www.w3.org/2000/svg" viewBox="0 0 24 24">
 <g id="Guides">
  <line id="Baseline-S" x1="0" x2="24" y1="18" y2="18"/>
  <line id="Capline-S"  x1="0" x2="24" y1="6"  y2="6"/>
  <line id="Baseline-M" x1="0" x2="24" y1="18" y2="18"/>
  <line id="Capline-M"  x1="0" x2="24" y1="6"  y2="6"/>
  <line id="Baseline-L" x1="0" x2="24" y1="18" y2="18"/>
  <line id="Capline-L"  x1="0" x2="24" y1="6"  y2="6"/>
  <line id="left-margin"  x1="0"  x2="0"  y1="0" y2="24"/>
  <line id="right-margin" x1="24" x2="24" y1="0" y2="24"/>
 </g>
 <g id="Symbols">
  <g id="Regular-M">
   <rect width="24" height="24" opacity="0" />
   <g transform="matrix(0.010416666666666666 0 0 0.010416666666666666 2 2)">
     <path d="M0 451.753h1242.353v1016.471H757.496l-418.672 418.673v-418.673H0V451.754zm338.824 451.878h564.705V790.577H338.824V903.63zm0 225.77H677.76v-112.942H338.824V1129.4zM677.68.033h1242.353v1016.47h-225.882v419.012l-338.937-338.936V338.857H677.681V.034z" stroke="none" stroke-width="1" fill-rule="evenodd"/>
   </g>
  </g>
 </g>
</svg>
