<svg width="24" height="25" viewBox="0 0 24 25" fill="none" xmlns="http://www.w3.org/2000/svg">
<path opacity="0.1" d="M19.7143 21.9287H4.28577L16.8533 7.61572L19.7143 10.3573V21.9287Z" fill="#008EE2"/>
<path opacity="0.6" fill-rule="evenodd" clip-rule="evenodd" d="M10.8203 10.8305C10.8203 10.1706 11.3489 9.63498 12.0003 9.63498C12.6516 9.63498 13.1803 10.1706 13.1803 10.8305C13.1803 11.4904 12.6516 12.026 12.0003 12.026C11.3489 12.026 10.8203 11.4904 10.8203 10.8305ZM14.3603 10.8305C14.3603 9.51184 13.3018 8.43945 12.0003 8.43945C10.6987 8.43945 9.64026 9.51184 9.64026 10.8305C9.64026 12.1492 10.6987 13.2216 12.0003 13.2216C13.3018 13.2216 14.3603 12.1492 14.3603 10.8305Z" fill="#008EE2"/>
<path fill-rule="evenodd" clip-rule="evenodd" d="M12.0006 2.21436L2.14282 12.2018L2.97826 13.0458L12.0006 3.90483L21.0228 13.0458L21.8571 12.2018L12.0006 2.21436ZM18.4904 13.2216V21.5903H14.9493V15.6126H9.05043V21.5903H5.51043V13.2216H4.32925V22.7858H9.05043H14.9493H19.6704V13.2216H18.4904ZM10.2304 21.5914V16.8081H13.7704V21.5914H10.2304Z" fill="#008EE2"/>
</svg>
