<svg width="24" height="24" viewBox="0 0 24 24" fill="none" xmlns="http://www.w3.org/2000/svg">
<path d="M2.14282 11.7017L12.0006 1.71429L21.8571 11.7017L21.0228 12.5458L12.0006 3.40477L2.97826 12.5458L2.14282 11.7017Z" fill="#2D3B45"/>
<path fill-rule="evenodd" clip-rule="evenodd" d="M18.4904 21.0902V12.7215H19.6704V22.2857H4.32925V12.7215H5.51043V21.0902H9.05043V15.1126H14.9493V21.0902H18.4904ZM10.2304 16.3081V21.0914H13.7704V16.3081H10.2304Z" fill="#2D3B45"/>
<path fill-rule="evenodd" clip-rule="evenodd" d="M12.0003 7.93951C13.3018 7.93951 14.3603 9.0119 14.3603 10.3306C14.3603 11.6492 13.3018 12.7216 12.0003 12.7216C10.6987 12.7216 9.64026 11.6492 9.64026 10.3306C9.64026 9.0119 10.6987 7.93951 12.0003 7.93951ZM12.0003 9.13504C11.3489 9.13504 10.8203 9.67064 10.8203 10.3306C10.8203 10.9905 11.3489 11.5261 12.0003 11.5261C12.6516 11.5261 13.1803 10.9905 13.1803 10.3306C13.1803 9.67064 12.6516 9.13504 12.0003 9.13504Z" fill="#2D3B45"/>
</svg>
