<svg xmlns="http://www.w3.org/2000/svg" viewBox="0 0 24 24"><g><path fill-rule="evenodd" stroke="none" stroke-width="1" d="M960.16 0L28 932.16l79 78.777 853.16-853.16 853.16 853.16 78.889-78.777L960.16 0zm613.693 1027.34v781.078h-334.86v-557.913h-557.8v557.912H346.445V1027.34H234.751V1920h1450.684v-892.66h-111.582zm-781.078 781.19v-446.442h334.748v446.441H792.775zm55.77-1004.344c0-61.593 49.988-111.582 111.582-111.582 61.593 0 111.582 49.989 111.582 111.582 0 61.594-49.989 111.583-111.582 111.583-61.594 0-111.583-49.99-111.583-111.583zm334.747 0c0-123.075-100.09-223.165-223.165-223.165-123.076 0-223.165 100.09-223.165 223.165 0 123.076 100.09 223.165 223.165 223.165 123.075 0 223.165-100.09 223.165-223.165" transform="matrix(0.010416666666666666 0 0 0.010416666666666666 2 2)"/></g></svg>