<svg width="24" height="24" viewBox="0 0 24 24" fill="none" xmlns="http://www.w3.org/2000/svg">
<path fill-rule="evenodd" clip-rule="evenodd" d="M11.7656 1.53939L8.43073 4.87431C8.19279 5.11224 8.19266 5.49797 8.43042 5.73607C8.66843 5.97441 9.05462 5.97454 9.29279 5.73637L11.696 3.3332V15.0602C11.696 15.3963 11.9685 15.6688 12.3046 15.6688C12.6407 15.6688 12.9132 15.3963 12.9132 15.0602V3.3332L15.3164 5.73637C15.5545 5.97449 15.9407 5.97422 16.1784 5.73576C16.4158 5.49778 16.4155 5.11256 16.1778 4.87492L12.8423 1.53939C12.545 1.24208 12.063 1.24208 11.7656 1.53939ZM4.625 10.501C4.625 9.74163 5.24061 9.12602 6 9.12602H9.41176V7.87602H6C4.55025 7.87602 3.375 9.05127 3.375 10.501V20.001C3.375 21.4508 4.55025 22.626 6 22.626H18C19.4497 22.626 20.625 21.4508 20.625 20.001V10.501C20.625 9.05127 19.4497 7.87602 18 7.87602H14.8235V9.12602H18C18.7594 9.12602 19.375 9.74163 19.375 10.501V20.001C19.375 20.7604 18.7594 21.376 18 21.376H6C5.24061 21.376 4.625 20.7604 4.625 20.001V10.501Z" fill="white"/>
</svg>
