<svg width="24" height="24" viewBox="0 0 24 24" fill="none" xmlns="http://www.w3.org/2000/svg">
<path d="M12.0386 19.5C9.94474 19.5 8.17132 18.7736 6.71832 17.3207C5.26516 15.8679 4.53857 14.0948 4.53857 12.0015C4.53857 9.90817 5.26516 8.13458 6.71832 6.68075C8.17132 5.22692 9.94474 4.5 12.0386 4.5C13.2077 4.5 14.3142 4.75992 15.3578 5.27975C16.4013 5.79975 17.2692 6.53342 17.9616 7.48075V5.25C17.9616 5.0375 18.0335 4.85942 18.1773 4.71575C18.3212 4.57192 18.4993 4.5 18.7118 4.5C18.9245 4.5 19.1026 4.57192 19.2461 4.71575C19.3897 4.85942 19.4616 5.0375 19.4616 5.25V9.7115C19.4616 9.96767 19.375 10.1823 19.2018 10.3555C19.0285 10.5287 18.8138 10.6152 18.5578 10.6152H14.0963C13.8838 10.6152 13.7057 10.5434 13.5618 10.3997C13.4182 10.2559 13.3463 10.0777 13.3463 9.865C13.3463 9.6525 13.4182 9.47442 13.5618 9.33075C13.7057 9.18725 13.8838 9.1155 14.0963 9.1155H17.2963C16.7693 8.15 16.0385 7.38942 15.1038 6.83375C14.1693 6.27792 13.1476 6 12.0386 6C10.3719 6 8.95524 6.58333 7.78857 7.75C6.62191 8.91667 6.03857 10.3333 6.03857 12C6.03857 13.6667 6.62191 15.0833 7.78857 16.25C8.95524 17.4167 10.3719 18 12.0386 18C13.2007 18 14.2647 17.6948 15.2303 17.0845C16.196 16.4743 16.9276 15.6603 17.4251 14.6423C17.5199 14.4602 17.6593 14.333 17.8433 14.2605C18.0273 14.1882 18.2148 14.184 18.4058 14.248C18.6097 14.3122 18.7523 14.4455 18.8338 14.648C18.9152 14.8507 18.9084 15.043 18.8136 15.225C18.1942 16.5198 17.2801 17.556 16.0711 18.3335C14.8621 19.1112 13.5179 19.5 12.0386 19.5Z" fill="#273540"/>
</svg>
