<svg xmlns="http://www.w3.org/2000/svg" viewBox="0 0 24 24"><g transform="matrix(0.010416666666666666 0 0 0.010416666666666666 2 2)"><path d="M110 1920h1699.932v-113.329H110V1920Zm367.548-528.792 143.474 95.65-60.29 93.156H326.82l150.727-188.806Zm-164.893 302.134h309.84l123.189-190.732 59.724-89.416c16.433-24.593 45.105-37.626 72.644-32.186 76.61 14.28 154.24-22.099 192.66-88.396l575.256-903.571c40.345-69.697 20.626-158.66-44.991-202.632l-242.75-161.834c-65.731-43.518-155.375-27.765-203.54 35.586L488.542 901.627c-47.712 62.784-51.338 148.688-8.953 213.512 15.3 23.685 14.62 54.964-1.7 79.67l-58.251 87.263-190.166 238.444c-25.839 32.299-30.712 75.477-12.806 112.649 17.906 37.058 54.738 60.177 95.99 60.177Z" fill-rule="evenodd"/></g>
</svg>