<svg xmlns="http://www.w3.org/2000/svg" viewBox="0 0 24 24"><g fill="#D852BE" transform="matrix(0.010416666666666666 0 0 0.010416666666666666 2 2)"><g fill-rule="evenodd"><path d="M1164.23 160.333h304.01v337.82L840.282 1126.11c-31.623 31.62-49.694 74.54-49.694 119.71v395.3h395.292c45.18 0 88.1-18.07 119.72-49.7l162.64-162.63V1867H0V160.333h329.104C351.069 98.19 410.335 53.667 480 53.667h533.33c69.67 0 128.93 44.523 150.9 106.666Zm-737.563 53.334c0-29.456 23.878-53.334 53.333-53.334h533.33c29.46 0 53.34 23.878 53.34 53.334v160H426.667v-160Z"/>
        <path d="m1677.57 528.308 225.88 225.882c22.02 22.024 22.02 57.713 0 79.85l-677.65 677.65c-10.62 10.5-24.96 16.49-39.98 16.49H903.467v-282.36c0-15.02 5.986-29.36 16.489-39.87L1597.6 528.308c22.14-22.137 57.83-22.137 79.97 0Zm-129.55 209.28 146.03 146.033 89.56-89.562-146.03-146.033-89.56 89.562Z"/>
    </g></g></svg>