<svg width="24" height="24" viewBox="0 0 24 24" fill="none" xmlns="http://www.w3.org/2000/svg">
<path d="M6.37307 11.75L9.69632 15.073C9.84499 15.2218 9.91832 15.3959 9.91632 15.5953C9.91449 15.7946 9.83599 15.9718 9.68082 16.127C9.52566 16.2718 9.34999 16.3468 9.15382 16.352C8.95782 16.357 8.78224 16.282 8.62707 16.127L4.13282 11.6328C3.95199 11.4519 3.86157 11.241 3.86157 11C3.86157 10.759 3.95199 10.5481 4.13282 10.3673L8.62707 5.873C8.76557 5.73467 8.93699 5.66384 9.14132 5.6605C9.34582 5.65734 9.52566 5.72817 9.68082 5.873C9.83599 6.02817 9.91357 6.20642 9.91357 6.40775C9.91357 6.60892 9.83599 6.78709 9.68082 6.94225L6.37307 10.25H15.7501C17.0629 10.25 18.1827 10.7135 19.1096 11.6405C20.0366 12.5673 20.5001 13.6872 20.5001 15V17.75C20.5001 17.9628 20.4282 18.141 20.2846 18.2845C20.1411 18.4282 19.9629 18.5 19.7501 18.5C19.5372 18.5 19.3591 18.4282 19.2156 18.2845C19.0719 18.141 19.0001 17.9628 19.0001 17.75V15C19.0001 14.1025 18.6827 13.3365 18.0481 12.702C17.4136 12.0673 16.6476 11.75 15.7501 11.75H6.37307Z" fill="#273540"/>
</svg>
