<svg xmlns="http://www.w3.org/2000/svg" viewBox="0 0 24 24"><g><path fill-rule="evenodd" stroke="none" stroke-width="1" d="M1392.7 1700.332l-44.782-44.781 307.872-307.872 44.781 44.782 77.248 385.12-385.12-77.249zm-104.117-332.501L596.711 675.959l79.487-79.487 691.872 691.872-79.487 79.487zM282.123 589.755L128.745 436.38c-10.075-10.076-16.793-24.63-16.793-39.184 0-15.673 6.718-29.108 16.793-40.303l228.385-228.385c11.196-10.076 24.63-16.793 40.303-16.793 14.554 0 29.108 6.717 39.184 16.793l153.376 153.376-307.872 307.872zm1521.446 747.848L747.849 281.883 516.104 49.02c-63.813-62.693-174.647-62.693-237.341 0L49.259 278.525C17.913 309.872 0 352.414 0 397.195c0 44.782 17.913 87.324 49.26 118.67L282.121 747.61l1055.72 1055.72L1920 1919.761l-116.431-582.158z" transform="matrix(0.010416666666666666 0 0 0.010416666666666666 2 2)"/></g></svg>