<svg width="24" height="24" viewBox="0 0 24 24" fill="none" xmlns="http://www.w3.org/2000/svg">
<path d="M5.25 5C5.0375 5 4.85942 4.92808 4.71575 4.78425C4.57192 4.64042 4.5 4.46225 4.5 4.24975C4.5 4.03708 4.57192 3.859 4.71575 3.7155C4.85942 3.57183 5.0375 3.5 5.25 3.5H18.75C18.9625 3.5 19.1406 3.57192 19.2843 3.71575C19.4281 3.85958 19.5 4.03775 19.5 4.25025C19.5 4.46292 19.4281 4.641 19.2843 4.7845C19.1406 4.92817 18.9625 5 18.75 5H5.25ZM11.9997 20.5C11.7871 20.5 11.609 20.4281 11.4655 20.2843C11.3218 20.1406 11.25 19.9625 11.25 19.75V10.2038L8.927 12.527C8.782 12.6718 8.60633 12.7443 8.4 12.7443C8.19367 12.7443 8.018 12.6718 7.873 12.527C7.72817 12.382 7.65733 12.2048 7.6605 11.9952C7.66383 11.7856 7.73467 11.6115 7.873 11.473L11.3672 7.97875C11.4609 7.88525 11.5601 7.81925 11.6648 7.78075C11.7694 7.74225 11.8816 7.723 12.0012 7.723C12.1209 7.723 12.2327 7.74225 12.3365 7.78075C12.4403 7.81925 12.5391 7.88525 12.6328 7.97875L16.127 11.473C16.2718 11.618 16.3443 11.7937 16.3443 12C16.3443 12.2063 16.2718 12.382 16.127 12.527C15.982 12.6718 15.8048 12.7427 15.5953 12.7395C15.3856 12.7362 15.2115 12.6653 15.073 12.527L12.75 10.2038V19.75C12.75 19.9625 12.6781 20.1406 12.5343 20.2843C12.3904 20.4281 12.2122 20.5 11.9997 20.5Z" fill="#273540"/>
</svg>
