<svg width="24" height="25" viewBox="0 0 24 25" fill="none" xmlns="http://www.w3.org/2000/svg">
<path opacity="0.5" fill-rule="evenodd" clip-rule="evenodd" d="M17.7903 11.2115C17.9688 11.0754 18.0433 10.8362 17.9748 10.6158C17.9068 10.396 17.7123 10.2479 17.4913 10.2479H13.6658L12.4838 6.43927C12.4153 6.21942 12.2208 6.07129 11.9998 6.07129C11.7788 6.07129 11.5848 6.21942 11.5163 6.43927L10.3343 10.2479H6.50825C6.28775 10.2479 6.09324 10.396 6.02524 10.6158C5.95674 10.8362 6.03074 11.0754 6.20974 11.211L9.30477 13.5655L8.12226 17.3741C8.05426 17.5944 8.12876 17.8336 8.30776 17.9697C8.39676 18.0373 8.50126 18.0713 8.60576 18.0713C8.71126 18.0713 8.81576 18.0373 8.90526 17.9687L11.9998 15.6153L15.0943 17.9687C15.2728 18.1048 15.5133 18.1058 15.6923 17.9697C15.8713 17.8336 15.9458 17.5944 15.8778 17.3741L14.6948 13.5655L17.7903 11.2115ZM16.3956 11.0954L13.9476 12.9572C13.7874 13.0792 13.7208 13.2945 13.7815 13.4933L14.7166 16.5051L12.2695 14.6433C12.108 14.5208 11.892 14.5208 11.7313 14.6433L9.28375 16.5051L10.2189 13.4924C10.2796 13.2945 10.213 13.0792 10.0524 12.9572L7.60434 11.0954H10.6297C10.8291 11.0954 11.0041 10.9621 11.0653 10.7647L12 7.75248L12.9351 10.7638C12.9963 10.9621 13.1709 11.0954 13.3702 11.0954H16.3956Z" fill="#2D3B45"/>
<path fill-rule="evenodd" clip-rule="evenodd" d="M1.71436 12.5001C1.71436 6.82841 6.32841 2.21436 12.0001 2.21436C17.6717 2.21436 22.2858 6.82841 22.2858 12.5001C22.2858 18.1717 17.6717 22.7858 12.0001 22.7858C6.32841 22.7858 1.71436 18.1717 1.71436 12.5001ZM3.04317 12.5001C3.04317 17.4397 7.06079 21.4573 12.0004 21.4573C16.94 21.4573 20.9577 17.4397 20.9577 12.5001C20.9577 7.56046 16.94 3.54284 12.0004 3.54284C7.06079 3.54284 3.04317 7.56046 3.04317 12.5001Z" fill="#2D3B45"/>
</svg>
