<svg width="218" height="160" viewBox="0 0 218 160" fill="none" xmlns="http://www.w3.org/2000/svg">
<path fill-rule="evenodd" clip-rule="evenodd" d="M126.292 -3.43896C110.501 4.94682 98.7496 27.1666 102.55 47.9132C107.531 75.1066 128.373 99.5403 145.566 96.3189C154.124 94.7162 163.157 86.2686 169.542 73.6446C176.002 60.8729 178.538 46.0529 176.346 34.0863C173.289 17.3961 164.388 3.96087 153.612 -2.56914C143.817 -3.43896 135.002 -4.42949 126.292 -3.43896Z" fill="#2D3B45"/>
<path d="M187.983 -0.602311C191.771 5.2299 194.802 11.7794 197.007 19.019C210.97 64.8455 173.573 125.9 117.609 136.385C61.6456 146.87 11.7306 104.24 2.95611 56.3381C1.81606 50.1153 1.50845 44.146 1.9698 38.4502L2.0476 37.5681C3.46359 22.7283 10.1292 9.77157 20.9055 -0.940125C44.7112 -3.15346 72.7136 -4.42941 102.68 -4.42941C111.512 -4.42941 120.172 -4.3186 128.605 -4.10564C111.908 3.47976 99.0903 26.607 103.036 48.1463C108.017 75.3398 128.859 99.7734 146.052 96.552C154.61 94.9493 163.643 86.5017 170.028 73.8777C176.488 61.106 179.024 46.286 176.832 34.3194C173.633 16.8564 164.037 2.95668 152.589 -3.1984C165.177 -2.55732 177.051 -1.68044 187.983 -0.602311Z" fill="white" stroke="#152633" stroke-width="2"/>
<path fill-rule="evenodd" clip-rule="evenodd" d="M87.2882 12.5154C88.0431 16.6355 81.8755 21.2457 73.5138 22.8129C65.1511 24.3795 57.7604 22.31 57.0052 18.1892C56.2509 14.0689 62.4179 9.45892 70.7798 7.89255C79.1425 6.32591 86.5335 8.39611 87.2882 12.5154Z" fill="#152633"/>
<path fill-rule="evenodd" clip-rule="evenodd" d="M119.751 50.1533C115.196 49.6754 112.106 43.4185 112.849 36.1805C113.592 28.941 117.887 23.4614 122.442 23.9393C126.997 24.418 130.087 30.6731 129.344 37.9118C128.601 45.1509 124.306 50.6313 119.751 50.1533Z" fill="white"/>
<path fill-rule="evenodd" clip-rule="evenodd" d="M53.9507 35.9713C46.7371 28.4391 39.4459 25.2691 33.4521 26.2253C33.3451 26.2418 33.2445 26.2589 33.1479 26.2771C28.8677 27.0793 23.8058 30.3271 20.9104 34.468C13.8497 44.5613 11.8498 54.5573 14.6184 69.6707C18.9837 93.499 47.025 119.979 63.9358 116.811C67.6022 116.124 70.3555 114.304 72.2286 111.355C77.8041 102.575 76.41 84.7678 69.6121 62.7532C66.693 53.2958 61.0508 43.3855 53.9507 35.9713Z" fill="#2D3B45" stroke="#152633" stroke-width="2"/>
<path fill-rule="evenodd" clip-rule="evenodd" d="M41.3408 55.8504C38.6716 50.5322 39.2196 44.828 42.5659 43.1103C45.9127 41.3916 50.789 44.3103 53.4589 49.6281C56.1288 54.946 55.5798 60.6498 52.2345 62.3679C48.8885 64.0864 44.0105 61.1676 41.3408 55.8504Z" fill="white"/>
<path fill-rule="evenodd" clip-rule="evenodd" d="M192.575 76.2085C195.615 76.8645 198.953 77.9993 202.43 79.882C215.804 87.1224 216.351 103.265 216.293 107.336C216.237 111.409 215.03 131.128 198.694 125.254C188.145 121.461 176.558 113.802 169.669 108.85C179.275 99.415 187.047 88.2518 192.575 76.2085Z" fill="#2D3B45" stroke="#152633" stroke-width="2"/>
<path fill-rule="evenodd" clip-rule="evenodd" d="M34.5042 119.362C35.8815 117.751 37.3037 116.387 38.7208 115.231C47.8552 122.724 58.3074 128.741 69.6422 132.703C65.5795 138.866 58.663 148.505 51.402 154.791C40.0236 164.641 33.0158 149.112 31.7234 145.846C30.4308 142.58 25.9329 129.388 34.5042 119.362Z" fill="#2D3B45" stroke="#152633" stroke-width="2"/>
</svg>
