<svg width="24" height="24" viewBox="0 0 24 24" fill="none" xmlns="http://www.w3.org/2000/svg">
<path d="M11.2501 17.6173V6.36351L9.92705 7.67701C9.79022 7.81535 9.61914 7.88451 9.4138 7.88451C9.20847 7.88451 9.03089 7.81018 8.88105 7.66151C8.74372 7.52518 8.67505 7.35168 8.67505 7.14101C8.67505 6.93035 8.7443 6.75576 8.8828 6.61726L11.3646 4.13551C11.4601 4.04001 11.5609 3.9731 11.6671 3.93476C11.7732 3.89626 11.887 3.87701 12.0083 3.87701C12.1298 3.87701 12.2425 3.89626 12.3463 3.93476C12.4501 3.9731 12.5497 4.04001 12.6451 4.13551L15.1271 6.61726C15.2654 6.75576 15.3362 6.92568 15.3396 7.12701C15.3427 7.32818 15.2726 7.50635 15.1291 7.66151C14.9726 7.81668 14.7936 7.89426 14.5923 7.89426C14.3911 7.89426 14.213 7.81668 14.0578 7.66151L12.7501 6.36351V17.6173L14.0731 16.3135C14.2099 16.175 14.381 16.1058 14.5863 16.1058C14.7916 16.1058 14.9692 16.1801 15.1191 16.3288C15.2564 16.4651 15.3251 16.6386 15.3251 16.8493C15.3251 17.0599 15.2558 17.2345 15.1173 17.373L12.6356 19.8548C12.5401 19.9503 12.44 20.0173 12.3353 20.0558C12.2306 20.0943 12.1185 20.1135 11.9988 20.1135C11.8791 20.1135 11.7655 20.0941 11.6578 20.0553C11.5501 20.0166 11.4501 19.9508 11.3578 19.8578L8.87305 17.373C8.73672 17.2362 8.66547 17.0651 8.6593 16.8598C8.65314 16.6546 8.72439 16.4771 8.87305 16.3273C9.00939 16.1899 9.18289 16.1213 9.39355 16.1213C9.60422 16.1213 9.7788 16.1904 9.9173 16.3288L11.2501 17.6173Z" fill="#273540"/>
</svg>
