<svg version="1.1" xmlns="http://www.w3.org/2000/svg" viewBox="0 0 24 24">
 <g id="Guides">
  <line id="Baseline-S" x1="0" x2="24" y1="18" y2="18"/>
  <line id="Capline-S"  x1="0" x2="24" y1="6"  y2="6"/>
  <line id="Baseline-M" x1="0" x2="24" y1="18" y2="18"/>
  <line id="Capline-M"  x1="0" x2="24" y1="6"  y2="6"/>
  <line id="Baseline-L" x1="0" x2="24" y1="18" y2="18"/>
  <line id="Capline-L"  x1="0" x2="24" y1="6"  y2="6"/>
  <line id="left-margin"  x1="0"  x2="0"  y1="0" y2="24"/>
  <line id="right-margin" x1="24" x2="24" y1="0" y2="24"/>
 </g>
 <g id="Symbols">
  <g id="Regular-M">
   <rect width="24" height="24" opacity="0" />
   <g transform="matrix(0.010416666666666666 0 0 0.010416666666666666 2 2)">
     <path d="M338.79-.011v527.66L-.034 821.298v1098.692h1920V821.297l-338.71-293.647V-.011H338.79zm112.94 1203.953V112.93h1016.471v1091.012l-189.289 151.34H641.02l-189.29-151.34zm1129.526-526.87l225.882 195.726v60.085l-225.882 180.706V677.07zM112.907 932.881v-60.084L338.79 677.071v436.518L112.907 932.883zm1205.76 535.455l488.47-390.777v623.323l-238.08-301.553-88.658 70.023 266.654 337.695H172.88l266.767-337.695-88.659-70.023-238.08 301.553V1077.56l488.47 390.777h717.29zM903.53 960V677.647H621.176V564.706H903.53V282.353h112.942v282.353h282.353v112.941H1016.47V960H903.529z" stroke="none" stroke-width="1" fill-rule="evenodd"/>
   </g>
  </g>
 </g>
</svg>
