<svg width="178" height="140" viewBox="0 0 178 140" fill="none" xmlns="http://www.w3.org/2000/svg">
<g clip-path="url(#clip0_10323_42229)">
<path d="M66.2406 31.9412C66.2406 27.2664 62.7559 23.3315 58.124 22.7632C56.5693 28.7782 56.5693 35.0935 58.124 41.1193C62.7559 40.551 66.2406 36.6161 66.2406 31.9412Z" fill="#FF3653"/>
<path d="M71.6116 29.0356C70.0036 29.0356 68.7065 30.3327 68.7065 31.9407C68.7065 33.5486 70.0036 34.8457 71.6116 34.8457C73.2195 34.8457 74.5166 33.5486 74.5166 31.9407C74.5166 30.3327 73.2195 29.0356 71.6116 29.0356Z" fill="#FF3653"/>
<path d="M111.67 31.9412C111.67 36.6161 115.155 40.551 119.787 41.1193C121.341 35.1042 121.341 28.789 119.787 22.7632C115.155 23.3315 111.67 27.2772 111.67 31.9412Z" fill="#FF3653"/>
<path d="M106.265 29.0356C104.657 29.0356 103.36 30.3327 103.36 31.9299C103.36 33.5272 104.657 34.835 106.255 34.835C107.852 34.835 109.16 33.5379 109.16 31.9407C109.16 30.3434 107.863 29.0356 106.265 29.0356Z" fill="#FF3653"/>
<path d="M88.8856 54.7363C84.2215 54.7363 80.2865 58.221 79.7075 62.8529C85.7226 64.4076 92.0379 64.4076 98.0636 62.8529C97.4954 58.221 93.5497 54.7363 88.8856 54.7363Z" fill="#FF3653"/>
<path d="M88.8957 46.4482C87.2878 46.4482 85.9907 47.7453 85.9907 49.3425C85.9907 50.9398 87.2878 52.2476 88.885 52.2476C90.4822 52.2476 91.79 50.9505 91.79 49.3533C91.79 47.756 90.493 46.4482 88.8957 46.4482Z" fill="#FF3653"/>
<path d="M88.8963 9.27479C93.5604 9.27479 97.4954 5.79013 98.0744 1.15821C92.0593 -0.396486 85.744 -0.396486 79.7183 1.15821C80.2973 5.79013 84.2322 9.27479 88.8963 9.27479Z" fill="#FF3653"/>
<path d="M88.8957 11.7622C87.2878 11.7622 85.9907 13.0593 85.9907 14.6565C85.9907 16.2537 87.2878 17.5615 88.885 17.5615C90.4822 17.5615 91.79 16.2644 91.79 14.6672C91.79 13.07 90.493 11.7729 88.8957 11.7729" fill="#FF3653"/>
<path d="M104.979 48.0244C101.688 51.3268 101.366 56.5699 104.229 60.2475C109.579 57.0845 114.05 52.6242 117.203 47.2739C113.525 44.4111 108.282 44.7327 104.979 48.0244Z" fill="#FF3653"/>
<path d="M99.1247 42.1699C97.9884 43.3061 97.9884 45.1392 99.1247 46.2755C100.261 47.4117 102.094 47.4117 103.23 46.2755C104.367 45.1392 104.367 43.3061 103.23 42.1699C102.094 41.0443 100.261 41.0443 99.1247 42.1699Z" fill="#FF3653"/>
<path d="M72.8559 15.9009C76.1583 12.5985 76.48 7.36611 73.6065 3.67773C68.2562 6.83001 63.7851 11.3011 60.6328 16.6514C64.3105 19.5249 69.5535 19.1925 72.8559 15.9009Z" fill="#FF3653"/>
<path d="M74.6037 17.6484C73.4674 18.7846 73.4674 20.6177 74.6037 21.754C75.74 22.8903 77.573 22.8903 78.7093 21.754C79.8456 20.6177 79.8456 18.7846 78.7093 17.6484C77.573 16.5228 75.74 16.5228 74.6037 17.6484Z" fill="#FF3653"/>
<path d="M104.958 15.8686C108.26 19.1603 113.503 19.482 117.181 16.6084C114.018 11.2582 109.558 6.79779 104.207 3.64551C101.345 7.32317 101.666 12.5662 104.958 15.8686Z" fill="#FF3653"/>
<path d="M103.209 21.7219C104.345 20.5856 104.335 18.7526 103.209 17.627C102.073 16.4907 100.24 16.5014 99.1142 17.627C97.9886 18.7633 97.9886 20.5963 99.1142 21.7219C100.25 22.8582 102.084 22.8582 103.209 21.7219Z" fill="#FF3653"/>
<path d="M72.8345 47.9922C69.5321 44.7005 64.2997 44.3789 60.6113 47.2416C63.7636 52.5919 68.2347 57.063 73.585 60.2153C76.4478 56.5376 76.1261 51.2946 72.8345 47.9922Z" fill="#FF3653"/>
<path d="M74.5714 42.1376C73.4352 43.2739 73.4352 45.107 74.5714 46.2432C75.7077 47.3795 77.5408 47.3795 78.6771 46.2432C79.8133 45.107 79.8133 43.2739 78.6771 42.1376C77.5408 41.0121 75.7077 41.0121 74.5714 42.1376Z" fill="#FF3653"/>
<path d="M41.3658 123.357C43.7782 123.357 45.1935 124.783 45.1935 126.788C45.1935 128.15 44.4108 129.115 43.2957 129.522C44.7432 129.876 45.5795 131.163 45.5795 132.578C45.5795 134.583 43.9927 136.03 41.666 136.03H37.2271V123.346H41.3658V123.357ZM41.1728 128.9C42.5881 128.9 43.4244 128.064 43.4244 126.884C43.4244 125.705 42.5452 124.901 41.0977 124.901H38.9855V128.911H41.1728V128.9ZM41.4194 134.497C42.8347 134.497 43.7997 133.714 43.7997 132.471C43.7997 131.227 43.0277 130.401 41.4944 130.401H38.9855V134.497H41.4194Z" fill="white"/>
<path d="M47.7881 139.622L49.9325 135.076L46.2334 127.42H48.1634L50.8439 133.36L53.4172 127.42H55.2185L49.6216 139.622H47.7774H47.7881Z" fill="white"/>
<path d="M60.5366 136.03V123.346H62.3272V136.03H60.5366Z" fill="white"/>
<path d="M66.5194 136.028H64.8364V127.431H66.4765V128.664C67.0983 127.592 68.1166 127.185 69.1243 127.185C71.1824 127.185 72.2008 128.664 72.2008 130.583V136.039H70.5178V130.872C70.5178 129.672 70.014 128.707 68.5133 128.707C67.1947 128.707 66.5087 129.757 66.5087 131.065V136.039L66.5194 136.028Z" fill="white"/>
<path d="M75.1402 133.264C75.2474 134.154 75.9229 134.872 77.1452 134.872C78.0888 134.872 78.6142 134.336 78.6142 133.725C78.6142 133.189 78.2175 132.781 77.5098 132.621L76.0409 132.299C74.7006 132.009 73.8965 131.098 73.8965 129.886C73.8965 128.418 75.2689 127.163 76.9522 127.163C79.3111 127.163 80.0509 128.696 80.2225 129.468L78.7428 130.026C78.6678 129.576 78.3139 128.6 76.9522 128.6C76.0945 128.6 75.5262 129.157 75.5262 129.747C75.5262 130.262 75.8479 130.637 76.5126 130.787L77.9065 131.087C79.4612 131.43 80.2868 132.374 80.2868 133.639C80.2868 134.904 79.2682 136.309 77.1345 136.309C74.7757 136.309 73.7678 134.786 73.6284 133.8L75.1509 133.264H75.1402Z" fill="white"/>
<path d="M84.2433 127.431H86.0982V128.954H84.2433V133.425C84.2433 134.208 84.5649 134.604 85.4441 134.604C85.6586 134.604 85.9588 134.572 86.1089 134.529V135.955C85.9695 136.009 85.5406 136.116 84.9616 136.116C83.4927 136.116 82.5599 135.226 82.5599 133.661V128.943H80.9194V127.421H81.3805C82.3133 127.421 82.6993 126.852 82.6993 126.102V124.708H84.2325V127.431H84.2433Z" fill="white"/>
<path d="M92.3371 129.125C92.0906 129.093 91.8333 129.071 91.6082 129.071C90.1932 129.071 89.2499 129.822 89.2499 131.719V136.028H87.5669V127.431H89.207V128.932C89.8287 127.614 90.9007 127.292 91.7797 127.292C92.0155 127.292 92.2407 127.324 92.3371 127.346V129.136V129.125Z" fill="white"/>
<path d="M96.648 136.296C94.6434 136.296 93.4321 134.796 93.4321 132.845V127.431H95.1151V132.598C95.1151 133.777 95.6511 134.817 97.0661 134.817C98.4811 134.817 99.1028 133.927 99.1028 132.619V127.431H100.786V134.442C100.786 135.117 100.839 135.728 100.872 136.028H99.2636C99.2314 135.835 99.1886 135.353 99.1886 134.988C98.7276 135.878 97.6557 136.296 96.648 136.296Z" fill="white"/>
<path d="M104.122 131.72C104.122 133.682 105.355 134.744 106.749 134.744C108.357 134.744 108.947 133.65 109.15 132.974L110.63 133.618C110.223 134.851 108.99 136.298 106.749 136.298C104.25 136.298 102.406 134.336 102.406 131.72C102.406 129.104 104.283 127.163 106.738 127.163C109.022 127.163 110.212 128.589 110.566 129.897L109.043 130.541C108.829 129.704 108.207 128.718 106.738 128.718C105.376 128.718 104.132 129.715 104.132 131.72H104.122Z" fill="white"/>
<path d="M114.415 127.431H116.27V128.954H114.415V133.425C114.415 134.208 114.737 134.604 115.616 134.604C115.83 134.604 116.131 134.572 116.281 134.529V135.955C116.141 136.009 115.713 136.116 115.134 136.116C113.665 136.116 112.732 135.226 112.732 133.661V128.943H111.091V127.421H111.552C112.485 127.421 112.871 126.852 112.871 126.102V124.708H114.404V127.431H114.415Z" fill="white"/>
<path d="M120.869 136.296C118.864 136.296 117.653 134.796 117.653 132.845V127.431H119.336V132.598C119.336 133.777 119.872 134.817 121.287 134.817C122.702 134.817 123.324 133.927 123.324 132.619V127.431H125.006V134.442C125.006 135.117 125.06 135.728 125.092 136.028H123.484C123.452 135.835 123.409 135.353 123.409 134.988C122.948 135.878 121.876 136.296 120.869 136.296Z" fill="white"/>
<path d="M131.977 129.125C131.73 129.093 131.473 129.071 131.248 129.071C129.833 129.071 128.89 129.822 128.89 131.719V136.028H127.207V127.431H128.847V128.932C129.468 127.614 130.54 127.292 131.419 127.292C131.655 127.292 131.88 127.324 131.977 127.346V129.136V129.125Z" fill="white"/>
<path d="M140.609 133.586C140.127 135.108 138.754 136.309 136.749 136.309C134.444 136.309 132.417 134.626 132.417 131.709C132.417 129.007 134.369 127.163 136.535 127.163C139.183 127.163 140.663 128.986 140.663 131.666C140.663 131.881 140.641 132.095 140.631 132.202H134.154C134.187 133.736 135.302 134.808 136.749 134.808C138.197 134.808 138.84 134.036 139.162 133.071L140.609 133.575V133.586ZM138.915 130.841C138.883 129.608 138.079 128.643 136.556 128.643C135.141 128.643 134.283 129.736 134.208 130.841H138.915Z" fill="white"/>
<path d="M0 97.9673C0 85.176 9.57478 77.4775 19.7714 77.4775C29.9681 77.4775 35.6615 83.3425 37.4413 90.2153L31.1797 92.3168C30.0217 87.5562 26.3655 83.7285 19.7714 83.7285C13.1774 83.7285 6.80849 88.4355 6.80849 97.9566C6.80849 107.478 13.1238 112.024 19.825 112.024C26.5263 112.024 30.1825 107.81 31.5121 103.382L37.6022 105.376C35.833 112.024 29.8501 118.393 19.825 118.393C9.25312 118.393 0 110.748 0 97.9566V97.9673Z" fill="white"/>
<path d="M52.5058 118.285C44.5822 118.285 39.4893 112.024 39.4893 103.939C39.4893 95.8549 44.6358 89.8184 52.3879 89.8184C57.1484 89.8184 59.5823 92.3059 60.3114 94.1393V90.5903H66.5731V112.635C66.5731 114.854 66.7983 117.009 66.8519 117.567H60.7082C60.6009 116.956 60.4294 115.519 60.4294 113.686C59.2071 116.291 56.3872 118.285 52.5058 118.285ZM53.2242 112.753C57.4379 112.753 60.3651 109.15 60.3651 103.95C60.3651 98.7498 57.4808 95.426 53.2242 95.426C48.9675 95.426 45.9118 98.7498 45.9118 103.95C45.9118 109.15 48.7316 112.753 53.2242 112.753Z" fill="white"/>
<path d="M79.0963 117.567H72.6738V90.6011H78.9355V94.2037C80.7046 91.105 83.9212 89.8291 86.9127 89.8291C93.5067 89.8291 96.659 94.5897 96.659 100.519V117.578H90.2365V101.634C90.2365 98.3102 88.7462 95.6512 84.6932 95.6512C81.037 95.6512 79.0963 98.4711 79.0963 102.02V117.578V117.567Z" fill="white"/>
<path d="M115.562 117.567H109.14L98.1709 90.6011H105.258L112.399 109.869L119.379 90.6011H126.134L115.562 117.567Z" fill="white"/>
<path d="M139.15 118.285C131.227 118.285 126.134 112.024 126.134 103.939C126.134 95.8549 131.28 89.8184 139.032 89.8184C143.793 89.8184 146.227 92.3059 146.956 94.1393V90.5903H153.218V112.635C153.218 114.854 153.443 117.009 153.496 117.567H147.353C147.245 116.956 147.074 115.519 147.074 113.686C145.852 116.291 143.032 118.285 139.15 118.285ZM139.869 112.753C144.082 112.753 147.01 109.15 147.01 103.95C147.01 98.7498 144.125 95.426 139.869 95.426C135.612 95.426 132.556 98.7498 132.556 103.95C132.556 109.15 135.376 112.753 139.869 112.753Z" fill="white"/>
<path d="M162.181 108.711C162.407 111.145 164.229 113.311 167.66 113.311C170.319 113.311 171.703 111.874 171.703 110.212C171.703 108.775 170.705 107.66 168.55 107.221L164.562 106.331C159.801 105.28 157.303 102.181 157.303 98.4714C157.303 93.7645 161.624 89.7759 167.21 89.7759C174.737 89.7759 177.181 94.6544 177.621 97.3027L172.196 98.8574C171.971 97.3027 170.813 94.8152 167.21 94.8152C164.937 94.8152 163.329 96.252 163.329 97.9139C163.329 99.3507 164.379 100.401 166.041 100.734L170.137 101.57C175.23 102.674 177.889 105.784 177.889 109.762C177.889 113.74 174.565 118.404 167.703 118.404C159.898 118.404 156.906 113.311 156.574 110.266L162.171 108.711H162.181Z" fill="white"/>
</g>
<defs>
<clipPath id="clip0_10323_42229">
<rect width="177.9" height="139.622" fill="white"/>
</clipPath>
</defs>
</svg>
