<svg width="24" height="24" viewBox="0 0 24 24" fill="none" xmlns="http://www.w3.org/2000/svg">
<path d="M11.9983 21.6923C11.5008 21.6923 11.0754 21.5153 10.7223 21.1613C10.3689 20.8073 10.1923 20.3817 10.1923 19.8845H13.8077C13.8077 20.3833 13.6306 20.8093 13.2762 21.1625C12.9219 21.5157 12.4959 21.6923 11.9983 21.6923ZM5.25 18.8845C5.0375 18.8845 4.85942 18.8127 4.71575 18.669C4.57192 18.5252 4.5 18.3469 4.5 18.1343C4.5 17.9218 4.57192 17.7437 4.71575 17.6C4.85942 17.4565 5.0375 17.3848 5.25 17.3848H6.30775V9.923C6.30775 8.57817 6.72283 7.38908 7.553 6.35575C8.383 5.32242 9.44867 4.6615 10.75 4.373V3.75C10.75 3.40283 10.8714 3.10767 11.1143 2.8645C11.3571 2.6215 11.6519 2.5 11.9988 2.5C12.3458 2.5 12.641 2.6215 12.8845 2.8645C13.1282 3.10767 13.25 3.40283 13.25 3.75V4.36925C13.4358 4.39875 13.6134 4.43917 13.7828 4.4905C13.9519 4.54167 14.1192 4.61217 14.2845 4.702C14.4667 4.80967 14.6048 4.9555 14.699 5.1395C14.7932 5.3235 14.798 5.51158 14.7135 5.70375C14.6288 5.89608 14.4945 6.032 14.3105 6.1115C14.1265 6.191 13.9416 6.19358 13.7557 6.11925C13.4148 5.96925 13.1099 5.867 12.8413 5.8125C12.5728 5.758 12.2923 5.73075 12 5.73075C10.8423 5.73075 9.85417 6.14008 9.0355 6.95875C8.217 7.77725 7.80775 8.76533 7.80775 9.923V17.3848H16.1923V15.404C16.1923 15.154 16.2703 14.9665 16.4262 14.8415C16.5821 14.7165 16.7535 14.654 16.9405 14.654C17.1277 14.654 17.2998 14.7165 17.4568 14.8415C17.6138 14.9665 17.6923 15.154 17.6923 15.404V17.3848H18.75C18.9625 17.3848 19.1406 17.4566 19.2843 17.6003C19.4281 17.7441 19.5 17.9223 19.5 18.135C19.5 18.3475 19.4281 18.5256 19.2843 18.6693C19.1406 18.8128 18.9625 18.8845 18.75 18.8845H5.25ZM17.8845 10.202H15.6345C15.422 10.202 15.2439 10.1301 15.1003 9.98625C14.9564 9.84242 14.8845 9.66417 14.8845 9.4515C14.8845 9.239 14.9564 9.06092 15.1003 8.91725C15.2439 8.77375 15.422 8.702 15.6345 8.702H17.8845V6.452C17.8845 6.2395 17.9564 6.06133 18.1003 5.9175C18.2441 5.77383 18.4223 5.702 18.635 5.702C18.8475 5.702 19.0256 5.77383 19.1693 5.9175C19.3128 6.06133 19.3845 6.2395 19.3845 6.452V8.702H21.6345C21.847 8.702 22.0252 8.77392 22.169 8.91775C22.3127 9.06158 22.3845 9.23975 22.3845 9.45225C22.3845 9.66492 22.3127 9.843 22.169 9.9865C22.0252 10.1302 21.847 10.202 21.6345 10.202H19.3845V12.452C19.3845 12.6645 19.3126 12.8426 19.1687 12.9863C19.0251 13.1301 18.8469 13.202 18.6342 13.202C18.4216 13.202 18.2435 13.1301 18.1 12.9863C17.9563 12.8426 17.8845 12.6645 17.8845 12.452V10.202Z" fill="#273540"/>
</svg>
