<svg width="24" height="24" viewBox="0 0 24 24" fill="none" xmlns="http://www.w3.org/2000/svg">
<path d="M3.99044 19.3078C3.56861 19.3078 3.20994 19.16 2.91444 18.8645C2.61894 18.5688 2.47119 18.2102 2.47119 17.7885V17.0845C2.47119 16.5538 2.60486 16.0901 2.87219 15.6933C3.13936 15.2964 3.49411 14.9858 3.93644 14.7615C4.78644 14.3282 5.68386 13.9776 6.62869 13.7098C7.57369 13.4418 8.68786 13.3078 9.97119 13.3078C10.1237 13.3078 10.2881 13.3103 10.4644 13.3155C10.6406 13.3205 10.805 13.3346 10.9577 13.3578C11.1539 13.3846 11.3186 13.4808 11.4519 13.6463C11.5853 13.8116 11.6384 13.9934 11.6114 14.1918C11.5846 14.3653 11.507 14.5161 11.3787 14.6443C11.2505 14.7724 11.0769 14.8333 10.8577 14.827C10.7449 14.8205 10.6067 14.8157 10.4432 14.8125C10.2797 14.8093 10.1224 14.8078 9.97119 14.8078C8.78786 14.8078 7.75094 14.9398 6.86044 15.2038C5.97011 15.4679 5.22494 15.7667 4.62494 16.1C4.39794 16.2218 4.23227 16.3642 4.12794 16.527C4.02344 16.6898 3.97119 16.8757 3.97119 17.0845V17.8078H10.8557C11.0682 17.8078 11.2464 17.8797 11.3902 18.0235C11.5339 18.1672 11.6057 18.3453 11.6057 18.558C11.6057 18.7707 11.5339 18.9488 11.3902 19.0923C11.2464 19.2359 11.0682 19.3078 10.8557 19.3078H3.99044ZM15.4249 17.9463L19.9479 13.423C20.0864 13.2847 20.2605 13.2138 20.4702 13.2105C20.6797 13.2073 20.8569 13.2782 21.0019 13.423C21.1468 13.568 21.2192 13.7437 21.2192 13.95C21.2192 14.1563 21.1468 14.332 21.0019 14.477L16.0577 19.4213C15.8769 19.6019 15.6659 19.6923 15.4249 19.6923C15.1839 19.6923 14.973 19.6019 14.7922 19.4213L12.8479 17.477C12.7096 17.3385 12.6388 17.1644 12.6354 16.9548C12.6323 16.7453 12.7031 16.568 12.8479 16.423C12.9929 16.2782 13.1686 16.2058 13.3749 16.2058C13.5813 16.2058 13.7569 16.2782 13.9019 16.423L15.4249 17.9463ZM9.97119 11.6923C9.00869 11.6923 8.18469 11.3496 7.49919 10.6643C6.81386 9.97876 6.47119 9.15476 6.47119 8.19226C6.47119 7.22976 6.81386 6.40584 7.49919 5.72051C8.18469 5.03501 9.00869 4.69226 9.97119 4.69226C10.9337 4.69226 11.7576 5.03501 12.4429 5.72051C13.1283 6.40584 13.4709 7.22976 13.4709 8.19226C13.4709 9.15476 13.1283 9.97876 12.4429 10.6643C11.7576 11.3496 10.9337 11.6923 9.97119 11.6923ZM9.97119 10.1923C10.5212 10.1923 10.992 9.99643 11.3837 9.60476C11.7754 9.21309 11.9712 8.74226 11.9712 8.19226C11.9712 7.64226 11.7754 7.17143 11.3837 6.77976C10.992 6.38809 10.5212 6.19226 9.97119 6.19226C9.42119 6.19226 8.95036 6.38809 8.55869 6.77976C8.16702 7.17143 7.97119 7.64226 7.97119 8.19226C7.97119 8.74226 8.16702 9.21309 8.55869 9.60476C8.95036 9.99643 9.42119 10.1923 9.97119 10.1923Z" fill="#273540"/>
</svg>
