<svg width="24" height="24" viewBox="0 0 24 24" fill="none" xmlns="http://www.w3.org/2000/svg">
<path d="M12.0385 13.6153L9.30377 16.35C9.4436 16.6 9.54326 16.8651 9.60277 17.1453C9.66243 17.4254 9.69227 17.7103 9.69227 18C9.69227 19.0048 9.3346 19.865 8.61927 20.5805C7.90393 21.296 7.04402 21.6538 6.03952 21.6538C5.03502 21.6538 4.17477 21.2961 3.45877 20.5808C2.74277 19.8654 2.38477 19.0055 2.38477 18.001C2.38477 16.9965 2.74252 16.1363 3.45802 15.4203C4.17352 14.7043 5.03368 14.3463 6.03852 14.3463C6.32818 14.3463 6.6131 14.376 6.89327 14.4355C7.17343 14.4952 7.43852 14.5949 7.68852 14.7348L10.423 12L7.68852 9.26525C7.43852 9.40509 7.17343 9.50484 6.89327 9.5645C6.6131 9.624 6.32818 9.65375 6.03852 9.65375C5.03368 9.65375 4.17352 9.29609 3.45802 8.58075C2.74252 7.86542 2.38477 7.0055 2.38477 6.001C2.38477 4.9965 2.74243 4.13625 3.45777 3.42025C4.1731 2.70425 5.03302 2.34625 6.03752 2.34625C7.04202 2.34625 7.90227 2.704 8.61827 3.4195C9.33427 4.135 9.69227 4.99517 9.69227 6C9.69227 6.28967 9.66243 6.57459 9.60277 6.85475C9.54326 7.13492 9.4436 7.4 9.30377 7.65L20.4845 18.8308C20.8512 19.1974 20.9333 19.6122 20.7308 20.075C20.5283 20.5378 20.1705 20.7693 19.6575 20.7693C19.509 20.7693 19.3646 20.7393 19.2243 20.6795C19.0841 20.6198 18.9606 20.5369 18.8538 20.4308L12.0385 13.6153ZM14.8078 10.8463L13.1923 9.23075L18.8538 3.56925C18.9616 3.46309 19.0862 3.38017 19.2275 3.3205C19.3688 3.26067 19.5135 3.23075 19.6615 3.23075C20.173 3.23075 20.5272 3.46475 20.724 3.93275C20.9208 4.40059 20.8359 4.81784 20.4693 5.1845L14.8078 10.8463ZM6.03852 8.15375C6.63085 8.15375 7.13793 7.94292 7.55977 7.52125C7.98143 7.09942 8.19227 6.59234 8.19227 6C8.19227 5.40767 7.98143 4.90059 7.55977 4.47875C7.13793 4.05709 6.63085 3.84625 6.03852 3.84625C5.44618 3.84625 4.9391 4.05709 4.51727 4.47875C4.09543 4.90059 3.88452 5.40767 3.88452 6C3.88452 6.59234 4.09543 7.09942 4.51727 7.52125C4.9391 7.94292 5.44618 8.15375 6.03852 8.15375ZM12.0385 12.25C12.1052 12.25 12.1635 12.225 12.2135 12.175C12.2635 12.125 12.2885 12.0667 12.2885 12C12.2885 11.9333 12.2635 11.875 12.2135 11.825C12.1635 11.775 12.1052 11.75 12.0385 11.75C11.9718 11.75 11.9135 11.775 11.8635 11.825C11.8135 11.875 11.7885 11.9333 11.7885 12C11.7885 12.0667 11.8135 12.125 11.8635 12.175C11.9135 12.225 11.9718 12.25 12.0385 12.25ZM6.03852 20.1538C6.63085 20.1538 7.13793 19.9429 7.55977 19.5213C7.98143 19.0994 8.19227 18.5923 8.19227 18C8.19227 17.4077 7.98143 16.9006 7.55977 16.4788C7.13793 16.0571 6.63085 15.8463 6.03852 15.8463C5.44618 15.8463 4.9391 16.0571 4.51727 16.4788C4.09543 16.9006 3.88452 17.4077 3.88452 18C3.88452 18.5923 4.09543 19.0994 4.51727 19.5213C4.9391 19.9429 5.44618 20.1538 6.03852 20.1538Z" fill="#273540"/>
</svg>
