<svg width="24" height="24" viewBox="0 0 24 24" fill="none" xmlns="http://www.w3.org/2000/svg">
<path d="M9.78075 15.5865H3.25C3.03717 15.5865 2.859 15.5147 2.7155 15.3712C2.57183 15.2276 2.5 15.0493 2.5 14.8365C2.5 14.6237 2.57183 14.4455 2.7155 14.302C2.859 14.1583 3.03717 14.0865 3.25 14.0865H9.78075L7.473 11.7787C7.33467 11.6404 7.26383 11.469 7.2605 11.2645C7.25733 11.06 7.32817 10.8802 7.473 10.725C7.62817 10.5698 7.80642 10.4922 8.00775 10.4922C8.20892 10.4922 8.38708 10.5698 8.54225 10.725L12.0213 14.2037C12.1147 14.2974 12.1807 14.3962 12.2192 14.5C12.2577 14.6038 12.277 14.716 12.277 14.8365C12.277 14.957 12.2577 15.0692 12.2192 15.173C12.1807 15.2768 12.1147 15.3756 12.0213 15.4692L8.527 18.9635C8.37817 19.1122 8.20408 19.1855 8.00475 19.1835C7.80542 19.1817 7.62817 19.1032 7.473 18.948C7.32817 18.7928 7.25317 18.6172 7.248 18.4212C7.243 18.2251 7.318 18.0494 7.473 17.8942L9.78075 15.5865ZM14.2193 9.90374L16.527 12.2115C16.6653 12.35 16.7362 12.5215 16.7395 12.726C16.7427 12.9305 16.6718 13.1103 16.527 13.2655C16.3718 13.4205 16.1936 13.498 15.9923 13.498C15.7911 13.498 15.6129 13.4205 15.4578 13.2655L11.9788 9.78649C11.8853 9.69299 11.8193 9.59432 11.7808 9.49048C11.7423 9.38665 11.723 9.2744 11.723 9.15374C11.723 9.03324 11.7423 8.92107 11.7808 8.81723C11.8193 8.7134 11.8853 8.61473 11.9788 8.52123L15.473 5.02699C15.6218 4.87832 15.7959 4.8049 15.9952 4.80674C16.1946 4.80874 16.3718 4.88723 16.527 5.04223C16.6718 5.1974 16.7468 5.37307 16.752 5.56924C16.757 5.7654 16.682 5.94107 16.527 6.09623L14.2193 8.40398H20.75C20.9628 8.40398 21.141 8.47574 21.2845 8.61924C21.4282 8.7629 21.5 8.94107 21.5 9.15374C21.5 9.36657 21.4282 9.54482 21.2845 9.68848C21.141 9.83198 20.9628 9.90374 20.75 9.90374H14.2193Z" fill="#273540"/>
</svg>
