<svg width="24" height="24" viewBox="0 0 24 24" fill="none" xmlns="http://www.w3.org/2000/svg">
<path d="M12.45 15.6288C11.8833 15.6391 11.3343 15.5647 10.803 15.4057C10.2715 15.2467 9.81025 14.9718 9.41925 14.5808C9.07308 14.2346 8.80767 13.842 8.623 13.403C8.4385 12.9638 8.34625 12.5013 8.34625 12.0155C8.34625 11.8232 8.35775 11.6382 8.38075 11.4605C8.40375 11.283 8.44667 11.1064 8.5095 10.9307C8.56333 10.7692 8.55917 10.6093 8.497 10.451C8.43483 10.2927 8.33133 10.1814 8.1865 10.1172C8.03133 10.0533 7.87717 10.0548 7.724 10.122C7.57083 10.1893 7.46733 10.3038 7.4135 10.4655C7.33017 10.7155 7.26608 10.9671 7.22125 11.2203C7.17625 11.4734 7.15375 11.7333 7.15375 12C7.15375 12.6475 7.27817 13.2657 7.527 13.8548C7.77567 14.4439 8.12692 14.9654 8.58075 15.4193C9.06275 15.9179 9.63517 16.2763 10.298 16.4943C10.9608 16.7123 11.6398 16.8263 12.3348 16.8365L11.6405 17.5307C11.5225 17.6487 11.4619 17.7869 11.4588 17.9453C11.4554 18.1036 11.516 18.2449 11.6405 18.3693C11.7648 18.4936 11.9045 18.5557 12.0595 18.5557C12.2147 18.5557 12.3544 18.4936 12.4788 18.3693L14.0402 16.8077C14.2211 16.6269 14.3115 16.416 14.3115 16.175C14.3115 15.934 14.2211 15.7231 14.0402 15.5423L12.4788 13.9808C12.3609 13.8628 12.2228 13.8022 12.0645 13.799C11.9062 13.7958 11.7648 13.8564 11.6405 13.9808C11.516 14.1051 11.4537 14.2448 11.4537 14.4C11.4537 14.5552 11.516 14.6949 11.6405 14.8193L12.45 15.6288ZM11.5442 8.35575C12.1109 8.35575 12.6625 8.43525 13.199 8.59425C13.7355 8.75325 14.1993 9.02825 14.5905 9.41925C14.9367 9.76542 15.202 10.158 15.3865 10.597C15.5712 11.0362 15.6635 11.4987 15.6635 11.9845C15.6635 12.1768 15.6519 12.3618 15.6288 12.5395C15.6058 12.717 15.5628 12.8936 15.5 13.0693C15.4462 13.2308 15.4503 13.3932 15.5125 13.5568C15.5747 13.7203 15.6782 13.834 15.823 13.898C15.9782 13.9622 16.1323 13.9622 16.2855 13.898C16.4387 13.834 16.5422 13.7212 16.5962 13.5595C16.6796 13.3095 16.7437 13.0538 16.7885 12.7923C16.8333 12.5308 16.8558 12.2667 16.8558 12C16.8558 11.3525 16.7365 10.7343 16.498 10.1452C16.2595 9.55608 15.9083 9.0295 15.4443 8.5655C14.9519 8.06667 14.3743 7.71083 13.7115 7.498C13.0487 7.28517 12.3698 7.17875 11.675 7.17875L12.3845 6.46925C12.4923 6.35125 12.5478 6.21308 12.551 6.05475C12.5542 5.89642 12.4936 5.75508 12.3693 5.63075C12.2449 5.50642 12.1052 5.44425 11.95 5.44425C11.7948 5.44425 11.6551 5.50642 11.5308 5.63075L9.96925 7.19225C9.78842 7.37308 9.698 7.584 9.698 7.825C9.698 8.066 9.78842 8.27692 9.96925 8.45775L11.5308 10.0193C11.6488 10.1373 11.7869 10.1978 11.9453 10.201C12.1036 10.2042 12.2449 10.1436 12.3693 10.0193C12.4936 9.89492 12.5558 9.75517 12.5558 9.6C12.5558 9.44483 12.4936 9.30508 12.3693 9.18075L11.5442 8.35575ZM12 21.5C10.6872 21.5 9.45292 21.2503 8.29725 20.751C7.14142 20.2517 6.13592 19.5744 5.28075 18.7193C4.42558 17.8641 3.74833 16.8586 3.249 15.7028C2.74967 14.5471 2.5 13.3128 2.5 12C2.5 10.6872 2.74967 9.45292 3.249 8.29725C3.74833 7.14142 4.42558 6.13592 5.28075 5.28075C6.13592 4.42558 7.14142 3.74833 8.29725 3.249C9.45292 2.74967 10.6872 2.5 12 2.5C13.3128 2.5 14.5471 2.74967 15.7028 3.249C16.8586 3.74833 17.8641 4.42558 18.7193 5.28075C19.5744 6.13592 20.2517 7.14142 20.751 8.29725C21.2503 9.45292 21.5 10.6872 21.5 12C21.5 13.3128 21.2503 14.5471 20.751 15.7028C20.2517 16.8586 19.5744 17.8641 18.7193 18.7193C17.8641 19.5744 16.8586 20.2517 15.7028 20.751C14.5471 21.2503 13.3128 21.5 12 21.5ZM12 20C14.2333 20 16.125 19.225 17.675 17.675C19.225 16.125 20 14.2333 20 12C20 9.76667 19.225 7.875 17.675 6.325C16.125 4.775 14.2333 4 12 4C9.76667 4 7.875 4.775 6.325 6.325C4.775 7.875 4 9.76667 4 12C4 14.2333 4.775 16.125 6.325 17.675C7.875 19.225 9.76667 20 12 20Z" fill="#273540"/>
</svg>
