<svg width="24" height="24" viewBox="0 0 24 24" fill="none" xmlns="http://www.w3.org/2000/svg">
<path d="M4.30775 19.5C3.80258 19.5 3.375 19.325 3.025 18.975C2.675 18.625 2.5 18.1974 2.5 17.6923V6.30775C2.5 5.80258 2.675 5.375 3.025 5.025C3.375 4.675 3.80258 4.5 4.30775 4.5H9.05C9.291 4.5 9.52275 4.54683 9.74525 4.6405C9.96758 4.734 10.1608 4.86283 10.325 5.027L11.798 6.5H19.6923C20.1974 6.5 20.625 6.675 20.975 7.025C21.325 7.375 21.5 7.80258 21.5 8.30775V17.6923C21.5 18.1974 21.325 18.625 20.975 18.975C20.625 19.325 20.1974 19.5 19.6923 19.5H4.30775ZM4.30775 18H19.6923C19.7821 18 19.8558 17.9712 19.9135 17.9135C19.9712 17.8558 20 17.7821 20 17.6923V8.30775C20 8.21792 19.9712 8.14417 19.9135 8.0865C19.8558 8.02883 19.7821 8 19.6923 8H11.1845L9.27125 6.0865C9.23908 6.0545 9.20542 6.03208 9.17025 6.01925C9.13492 6.00642 9.098 6 9.0595 6H4.30775C4.21792 6 4.14417 6.02883 4.0865 6.0865C4.02883 6.14417 4 6.21792 4 6.30775V17.6923C4 17.7821 4.02883 17.8558 4.0865 17.9135C4.14417 17.9712 4.21792 18 4.30775 18ZM14.3652 16.8077H16.5577C16.9296 16.8077 17.2468 16.6763 17.5095 16.4135C17.7723 16.1507 17.9038 15.8333 17.9038 15.4615V11.1923H18.2115C18.3833 11.1923 18.5257 11.1358 18.6385 11.023C18.7513 10.9102 18.8078 10.7679 18.8078 10.5962C18.8078 10.4244 18.7513 10.2821 18.6385 10.1693C18.5257 10.0564 18.3833 10 18.2115 10H16.4038V9.64425C16.4038 9.52375 16.3586 9.41833 16.2682 9.328C16.1779 9.2375 16.0725 9.19225 15.952 9.19225H14.9712C14.8507 9.19225 14.7453 9.2375 14.6547 9.328C14.5644 9.41833 14.5193 9.52375 14.5193 9.64425V10H12.7115C12.5397 10 12.3973 10.0564 12.2845 10.1693C12.1718 10.2821 12.1155 10.4244 12.1155 10.5962C12.1155 10.7679 12.1718 10.9102 12.2845 11.023C12.3973 11.1358 12.5397 11.1923 12.7115 11.1923H13.0193V15.4615C13.0193 15.8333 13.1507 16.1507 13.4135 16.4135C13.6763 16.6763 13.9936 16.8077 14.3652 16.8077ZM14.2115 11.1923H16.7115V15.4615C16.7115 15.5063 16.6971 15.5432 16.6683 15.572C16.6394 15.601 16.6026 15.6155 16.5577 15.6155H14.3652C14.3204 15.6155 14.2836 15.601 14.2548 15.572C14.2259 15.5432 14.2115 15.5063 14.2115 15.4615V11.1923Z" fill="#273540"/>
</svg>
