<svg xmlns="http://www.w3.org/2000/svg" viewBox="0 0 24 24"><g transform="matrix(0.010416666666666666 0 0 0.010416666666666666 2 2)"><path d="M480.286 822.857h548.571c151.269 0 274.286-123.017 274.286-274.286 0-151.268-123.017-274.285-274.286-274.285H480.286v548.571Zm0 822.857H1166c151.269 0 274.286-123.017 274.286-274.285 0-151.269-123.017-274.286-274.286-274.286H480.286v548.571ZM1166 1920H206V0h822.857c302.537 0 548.572 246.034 548.572 548.571 0 134.263-48.549 257.418-128.778 352.732 159.223 96.137 265.92 270.994 265.92 470.126 0 302.537-246.034 548.571-548.571 548.571Z" fill-rule="evenodd"/></g>
</svg>