<svg width="24" height="24" viewBox="0 0 24 24" fill="none" xmlns="http://www.w3.org/2000/svg">
<path d="M8.95375 11.354L11.1713 9.12123L9.44425 7.37873L8.84225 7.98073C8.70375 8.11923 8.53225 8.19264 8.32775 8.20098C8.12342 8.20931 7.94367 8.13589 7.7885 7.98073C7.63333 7.82556 7.55575 7.64739 7.55575 7.44623C7.55575 7.24489 7.63333 7.06664 7.7885 6.91148L8.375 6.32498L6.8365 4.78648L4.60375 7.01923L8.95375 11.354ZM16.9713 19.3865L19.2038 17.1537L17.6653 15.6152L17.0635 16.202C16.9147 16.3506 16.7406 16.4266 16.5413 16.4297C16.3419 16.4329 16.1647 16.357 16.0095 16.202C15.8545 16.0468 15.777 15.8711 15.777 15.675C15.777 15.4788 15.8545 15.3031 16.0095 15.148L16.5963 14.5462L14.8635 12.8287L12.646 15.0462L16.9713 19.3865ZM4.404 20.5C4.14617 20.5 3.93108 20.4137 3.75875 20.2412C3.58625 20.0689 3.5 19.8538 3.5 19.596V17.175C3.5 17.0545 3.52183 16.9397 3.5655 16.8307C3.609 16.7217 3.67758 16.6205 3.77125 16.527L7.88475 12.4135L3.348 7.86723C3.116 7.63523 3 7.35256 3 7.01923C3 6.68589 3.116 6.40323 3.348 6.17123L5.9885 3.53073C6.2205 3.29873 6.50317 3.18531 6.8365 3.19048C7.16983 3.19548 7.4525 3.31406 7.6845 3.54623L12.2558 8.09223L16.377 3.95573C16.5322 3.80056 16.7027 3.68581 16.8885 3.61148C17.0743 3.53714 17.2686 3.49998 17.4713 3.49998C17.6738 3.49998 17.8679 3.53714 18.0538 3.61148C18.2398 3.68581 18.4103 3.80056 18.5653 3.95573L20.0443 5.47898C20.1994 5.63398 20.3125 5.80448 20.3835 5.99048C20.4547 6.17631 20.4903 6.37048 20.4903 6.57298C20.4903 6.77564 20.4547 6.96573 20.3835 7.14323C20.3125 7.32073 20.1994 7.48706 20.0443 7.64223L15.9423 11.7692L20.4693 16.3155C20.7013 16.5475 20.8173 16.8301 20.8173 17.1635C20.8173 17.4968 20.7013 17.7795 20.4693 18.0115L17.8288 20.652C17.5968 20.884 17.3141 21 16.9808 21C16.6474 21 16.3648 20.884 16.1328 20.652L11.5865 16.1152L7.473 20.2287C7.3795 20.3224 7.27825 20.391 7.16925 20.4345C7.06025 20.4781 6.9455 20.5 6.825 20.5H4.404ZM5 19H6.5635L16.373 9.20573L14.7943 7.62698L5 17.4365V19ZM15.5963 8.41923L14.7943 7.62698L16.373 9.20573L15.5963 8.41923Z" fill="#273540"/>
</svg>
