<svg width="24" height="24" viewBox="0 0 24 24" fill="none" xmlns="http://www.w3.org/2000/svg">
<path d="M22.6442 8.99996C22.6442 10.1051 22.4449 11.1545 22.0462 12.148C21.6474 13.1416 21.1108 14.0378 20.4365 14.8365C20.2813 15.0121 20.0922 15.1099 19.8692 15.1297C19.646 15.1495 19.4461 15.071 19.2695 14.8942C19.1051 14.73 19.0296 14.5365 19.043 14.3135C19.0561 14.0903 19.1354 13.8858 19.2807 13.7C19.8192 13.0538 20.2388 12.3295 20.5395 11.527C20.8401 10.7243 20.9905 9.88196 20.9905 8.99996C20.9905 8.11796 20.8401 7.2808 20.5395 6.48846C20.2388 5.69613 19.8192 4.97688 19.2807 4.33071C19.1255 4.14488 19.0438 3.9398 19.0355 3.71546C19.0271 3.49113 19.1067 3.2918 19.2742 3.11746C19.4375 2.94296 19.6333 2.86313 19.8615 2.87796C20.0896 2.89263 20.2813 2.9878 20.4365 3.16346C21.1108 3.96213 21.6474 4.8583 22.0462 5.85196C22.4449 6.84546 22.6442 7.8948 22.6442 8.99996ZM18.0172 8.99996C18.0172 9.47696 17.9403 9.9353 17.7865 10.375C17.6326 10.8146 17.4185 11.2172 17.1442 11.5827C17.0057 11.7685 16.824 11.8656 16.599 11.874C16.374 11.8823 16.173 11.798 15.9962 11.6212C15.832 11.457 15.7474 11.2625 15.7422 11.0375C15.7372 10.8125 15.7936 10.5968 15.9115 10.3905C16.0436 10.1878 16.1469 9.9688 16.2212 9.73346C16.2955 9.49796 16.3327 9.25346 16.3327 8.99996C16.3327 8.73463 16.2949 8.48705 16.2192 8.25721C16.1437 8.02738 16.0411 7.80638 15.9115 7.59421C15.7936 7.38771 15.7372 7.17455 15.7422 6.95471C15.7474 6.73488 15.832 6.54288 15.9962 6.37871C16.173 6.20188 16.374 6.11763 16.599 6.12596C16.824 6.1343 17.0057 6.23138 17.1442 6.41721C17.4199 6.78438 17.6343 7.18446 17.7875 7.61746C17.9406 8.05063 18.0172 8.51146 18.0172 8.99996ZM8.85571 12.5C7.89321 12.5 7.0693 12.1572 6.38396 11.4717C5.69846 10.7864 5.35571 9.96246 5.35571 8.99996C5.35571 8.03746 5.69846 7.21355 6.38396 6.52821C7.0693 5.84271 7.89321 5.49996 8.85571 5.49996C9.81821 5.49996 10.6421 5.84271 11.3275 6.52821C12.013 7.21355 12.3557 8.03746 12.3557 8.99996C12.3557 9.96246 12.013 10.7864 11.3275 11.4717C10.6421 12.1572 9.81821 12.5 8.85571 12.5ZM1.35571 18.596V17.8922C1.35571 17.387 1.48455 16.9297 1.74221 16.5202C1.99988 16.1105 2.35955 15.7935 2.82121 15.5692C3.65188 15.155 4.58138 14.8092 5.60971 14.5317C6.63788 14.2542 7.71988 14.1155 8.85571 14.1155C9.99155 14.1155 11.0736 14.2542 12.102 14.5317C13.1301 14.8092 14.0595 15.155 14.8902 15.5692C15.3519 15.7935 15.7115 16.1105 15.9692 16.5202C16.2269 16.9297 16.3557 17.387 16.3557 17.8922V18.596C16.3557 19.0178 16.208 19.3765 15.9125 19.672C15.617 19.9675 15.2583 20.1152 14.8365 20.1152H2.87496C2.45313 20.1152 2.09446 19.9675 1.79896 19.672C1.50346 19.3765 1.35571 19.0178 1.35571 18.596ZM2.85571 18.6152H14.8557V17.8922C14.8557 17.664 14.7939 17.4685 14.6702 17.3057C14.5464 17.1429 14.3903 17.0102 14.202 16.9077C13.5891 16.5949 12.8119 16.3013 11.8702 16.027C10.9285 15.7525 9.92371 15.6152 8.85571 15.6152C7.78771 15.6152 6.78288 15.7525 5.84121 16.027C4.89955 16.3013 4.1223 16.5949 3.50946 16.9077C3.32113 17.0102 3.16505 17.1429 3.04121 17.3057C2.91755 17.4685 2.85571 17.664 2.85571 17.8922V18.6152ZM8.85571 11C9.40571 11 9.87655 10.8041 10.2682 10.4125C10.6599 10.0208 10.8557 9.54996 10.8557 8.99996C10.8557 8.44996 10.6599 7.97913 10.2682 7.58746C9.87655 7.1958 9.40571 6.99996 8.85571 6.99996C8.30571 6.99996 7.83488 7.1958 7.44321 7.58746C7.05155 7.97913 6.85571 8.44996 6.85571 8.99996C6.85571 9.54996 7.05155 10.0208 7.44321 10.4125C7.83488 10.8041 8.30571 11 8.85571 11Z" fill="#273540"/>
</svg>
