<svg width="24" height="24" viewBox="0 0 24 24" fill="none" xmlns="http://www.w3.org/2000/svg">
<path d="M12 17.4615L8.03075 19.1652C7.42825 19.4229 6.85583 19.3736 6.3135 19.0173C5.77117 18.6609 5.5 18.1597 5.5 17.5135V5.30775C5.5 4.80258 5.675 4.375 6.025 4.025C6.375 3.675 6.80258 3.5 7.30775 3.5H16.6923C17.1974 3.5 17.625 3.675 17.975 4.025C18.325 4.375 18.5 4.80258 18.5 5.30775V17.5135C18.5 18.1597 18.2288 18.6609 17.6865 19.0173C17.1442 19.3736 16.5718 19.4229 15.9693 19.1652L12 17.4615ZM12 15.8L16.5673 17.7673C16.6699 17.8121 16.7677 17.8025 16.8605 17.7385C16.9535 17.6743 17 17.5878 17 17.4788V5.30775C17 5.23075 16.9679 5.16025 16.9038 5.09625C16.8398 5.03208 16.7692 5 16.6923 5H7.30775C7.23075 5 7.16025 5.03208 7.09625 5.09625C7.03208 5.16025 7 5.23075 7 5.30775V17.4788C7 17.5878 7.0465 17.6743 7.1395 17.7385C7.23233 17.8025 7.33008 17.8121 7.43275 17.7673L12 15.8ZM12 5H7H17H12Z" fill="#273540"/>
</svg>
