<svg width="24" height="24" viewBox="0 0 24 24" fill="none" xmlns="http://www.w3.org/2000/svg">
<path d="M8 13.9423C7.75517 13.9423 7.5465 13.8561 7.374 13.6838C7.20167 13.5113 7.1155 13.3026 7.1155 13.0578C7.1155 12.8129 7.20167 12.6043 7.374 12.4318C7.5465 12.2593 7.75517 12.173 8 12.173C8.24483 12.173 8.4535 12.2593 8.626 12.4318C8.79833 12.6043 8.8845 12.8129 8.8845 13.0578C8.8845 13.3026 8.79833 13.5113 8.626 13.6838C8.4535 13.8561 8.24483 13.9423 8 13.9423ZM12 13.9423C11.7552 13.9423 11.5465 13.8561 11.374 13.6838C11.2017 13.5113 11.1155 13.3026 11.1155 13.0578C11.1155 12.8129 11.2017 12.6043 11.374 12.4318C11.5465 12.2593 11.7552 12.173 12 12.173C12.2448 12.173 12.4535 12.2593 12.626 12.4318C12.7983 12.6043 12.8845 12.8129 12.8845 13.0578C12.8845 13.3026 12.7983 13.5113 12.626 13.6838C12.4535 13.8561 12.2448 13.9423 12 13.9423ZM16 13.9423C15.7552 13.9423 15.5465 13.8561 15.374 13.6838C15.2017 13.5113 15.1155 13.3026 15.1155 13.0578C15.1155 12.8129 15.2017 12.6043 15.374 12.4318C15.5465 12.2593 15.7552 12.173 16 12.173C16.2448 12.173 16.4535 12.2593 16.626 12.4318C16.7983 12.6043 16.8845 12.8129 16.8845 13.0578C16.8845 13.3026 16.7983 13.5113 16.626 13.6838C16.4535 13.8561 16.2448 13.9423 16 13.9423ZM5.30775 21.5C4.80258 21.5 4.375 21.325 4.025 20.975C3.675 20.625 3.5 20.1974 3.5 19.6923V6.30777C3.5 5.8026 3.675 5.37502 4.025 5.02502C4.375 4.67502 4.80258 4.50002 5.30775 4.50002H6.69225V3.15377C6.69225 2.9346 6.76567 2.7516 6.9125 2.60477C7.05933 2.4581 7.24233 2.38477 7.4615 2.38477C7.68083 2.38477 7.86383 2.4581 8.0105 2.60477C8.15733 2.7516 8.23075 2.9346 8.23075 3.15377V4.50002H15.8077V3.13477C15.8077 2.92193 15.8795 2.74368 16.023 2.60002C16.1667 2.45652 16.3449 2.38477 16.5577 2.38477C16.7706 2.38477 16.9488 2.45652 17.0922 2.60002C17.2359 2.74368 17.3077 2.92193 17.3077 3.13477V4.50002H18.6923C19.1974 4.50002 19.625 4.67502 19.975 5.02502C20.325 5.37502 20.5 5.8026 20.5 6.30777V19.6923C20.5 20.1974 20.325 20.625 19.975 20.975C19.625 21.325 19.1974 21.5 18.6923 21.5H5.30775ZM5.30775 20H18.6923C18.7692 20 18.8398 19.9679 18.9038 19.9038C18.9679 19.8398 19 19.7693 19 19.6923V10.3078H5V19.6923C5 19.7693 5.03208 19.8398 5.09625 19.9038C5.16025 19.9679 5.23075 20 5.30775 20ZM5 8.80777H19V6.30777C19 6.23077 18.9679 6.16026 18.9038 6.09626C18.8398 6.0321 18.7692 6.00002 18.6923 6.00002H5.30775C5.23075 6.00002 5.16025 6.0321 5.09625 6.09626C5.03208 6.16026 5 6.23077 5 6.30777V8.80777Z" fill="#273540"/>
</svg>
