<svg width="24" height="24" viewBox="0 0 24 24" fill="none" xmlns="http://www.w3.org/2000/svg">
<path d="M11.25 14.75V17C11.25 17.2125 11.3219 17.3906 11.4658 17.5343C11.6096 17.6781 11.7878 17.75 12.0003 17.75C12.2129 17.75 12.391 17.6781 12.5345 17.5343C12.6782 17.3906 12.75 17.2125 12.75 17V14.75H15C15.2125 14.75 15.3906 14.6781 15.5343 14.5343C15.6781 14.3904 15.75 14.2122 15.75 13.9998C15.75 13.7871 15.6781 13.609 15.5343 13.4655C15.3906 13.3218 15.2125 13.25 15 13.25H12.75V11C12.75 10.7875 12.6781 10.6094 12.5343 10.4658C12.3904 10.3219 12.2122 10.25 11.9997 10.25C11.7871 10.25 11.609 10.3219 11.4655 10.4658C11.3218 10.6094 11.25 10.7875 11.25 11V13.25H9C8.7875 13.25 8.60942 13.3219 8.46575 13.4658C8.32192 13.6096 8.25 13.7878 8.25 14.0003C8.25 14.2129 8.32192 14.391 8.46575 14.5345C8.60942 14.6782 8.7875 14.75 9 14.75H11.25ZM6.30775 21.5C5.80258 21.5 5.375 21.325 5.025 20.975C4.675 20.625 4.5 20.1974 4.5 19.6923V4.30775C4.5 3.80258 4.675 3.375 5.025 3.025C5.375 2.675 5.80258 2.5 6.30775 2.5H13.502C13.7458 2.5 13.9782 2.54683 14.1992 2.6405C14.4202 2.734 14.6128 2.86283 14.777 3.027L18.973 7.223C19.1372 7.38717 19.266 7.57975 19.3595 7.80075C19.4532 8.02175 19.5 8.25417 19.5 8.498V19.6923C19.5 20.1974 19.325 20.625 18.975 20.975C18.625 21.325 18.1974 21.5 17.6923 21.5H6.30775ZM13.5 7.6V4H6.30775C6.23075 4 6.16025 4.03208 6.09625 4.09625C6.03208 4.16025 6 4.23075 6 4.30775V19.6923C6 19.7693 6.03208 19.8398 6.09625 19.9038C6.16025 19.9679 6.23075 20 6.30775 20H17.6923C17.7692 20 17.8398 19.9679 17.9038 19.9038C17.9679 19.8398 18 19.7693 18 19.6923V8.5H14.3997C14.1447 8.5 13.9311 8.41375 13.7587 8.24125C13.5862 8.06875 13.5 7.855 13.5 7.6Z" fill="#273540"/>
</svg>
