<svg width="24" height="24" viewBox="0 0 24 24" fill="none" xmlns="http://www.w3.org/2000/svg">
<path d="M11.75 11.6963L14.5 14.4463C14.6385 14.5846 14.7093 14.7586 14.7125 14.9683C14.7157 15.1779 14.6448 15.3552 14.5 15.5C14.3552 15.6448 14.1795 15.7173 13.973 15.7173C13.7667 15.7173 13.5911 15.6448 13.4462 15.5L10.5213 12.575C10.4276 12.4813 10.359 12.3793 10.3155 12.269C10.2718 12.1587 10.25 12.0447 10.25 11.927V7.75001C10.25 7.53751 10.3219 7.35934 10.4658 7.21551C10.6096 7.07184 10.7878 7.00001 11.0003 7.00001C11.2129 7.00001 11.391 7.07184 11.5345 7.21551C11.6782 7.35934 11.75 7.53751 11.75 7.75001V11.6963ZM18 5.94226H15.75C15.5375 5.94226 15.3593 5.87034 15.2155 5.72651C15.0718 5.58268 15 5.40451 15 5.19201C15 4.97934 15.0718 4.80126 15.2155 4.65776C15.3593 4.51409 15.5375 4.44226 15.75 4.44226H18V2.19226C18 1.97976 18.0719 1.80168 18.2158 1.65801C18.3596 1.51418 18.5378 1.44226 18.7502 1.44226C18.9629 1.44226 19.141 1.51418 19.2845 1.65801C19.4282 1.80168 19.5 1.97976 19.5 2.19226V4.44226H21.75C21.9625 4.44226 22.1406 4.51418 22.2843 4.65801C22.4281 4.80184 22.5 4.98009 22.5 5.19276C22.5 5.40526 22.4281 5.58334 22.2843 5.72701C22.1406 5.87051 21.9625 5.94226 21.75 5.94226H19.5V8.19226C19.5 8.40476 19.4281 8.58293 19.2843 8.72676C19.1404 8.87043 18.9622 8.94226 18.7498 8.94226C18.5371 8.94226 18.359 8.87043 18.2155 8.72676C18.0718 8.58293 18 8.40476 18 8.19226V5.94226ZM11.0013 20.5C9.82092 20.5 8.71517 20.2797 7.684 19.839C6.65267 19.3983 5.75125 18.7924 4.97975 18.0213C4.20825 17.2501 3.60208 16.3491 3.16125 15.3183C2.72042 14.2874 2.5 13.1818 2.5 12.0013C2.5 10.8209 2.72042 9.71518 3.16125 8.68401C3.60192 7.65268 4.20792 6.75126 4.97925 5.97976C5.75058 5.20826 6.65175 4.60209 7.68275 4.16126C8.71375 3.72043 9.8195 3.50001 11 3.50001C11.1833 3.50001 11.3542 3.50418 11.5125 3.51251C11.6708 3.52084 11.8417 3.54168 12.025 3.57501C12.2378 3.58151 12.416 3.65601 12.5595 3.79851C12.7032 3.94101 12.775 4.11759 12.775 4.32826C12.775 4.53893 12.7032 4.71768 12.5595 4.86451C12.416 5.01118 12.2378 5.08134 12.025 5.07501C11.848 5.06218 11.6793 5.04651 11.519 5.02801C11.3587 5.00934 11.1857 5.00001 11 5.00001C9.04617 5.00001 7.391 5.67818 6.0345 7.03451C4.67817 8.39101 4 10.0462 4 12C4 13.9538 4.67817 15.609 6.0345 16.9655C7.391 18.3218 9.04617 19 11 19C12.9538 19 14.609 18.3218 15.9655 16.9655C17.3218 15.609 18 13.9538 18 12C18 11.7875 18.0719 11.6094 18.2158 11.4658C18.3596 11.3219 18.5378 11.25 18.7502 11.25C18.9629 11.25 19.141 11.3219 19.2845 11.4658C19.4282 11.6094 19.5 11.7875 19.5 12C19.5 13.1805 19.2797 14.2863 18.839 15.3173C18.3983 16.3483 17.7924 17.2494 17.0212 18.0208C16.2501 18.7921 15.3491 19.3981 14.3182 19.8388C13.2874 20.2796 12.1818 20.5 11.0013 20.5Z" fill="#273540"/>
</svg>
