<svg width="24" height="24" viewBox="0 0 24 24" fill="none" xmlns="http://www.w3.org/2000/svg">
<path d="M5.30775 20.5C4.81058 20.5 4.385 20.323 4.031 19.969C3.677 19.615 3.5 19.1894 3.5 18.6922V5.30774C3.5 4.81057 3.677 4.38499 4.031 4.03099C4.385 3.67699 4.81058 3.49999 5.30775 3.49999H9.7135C9.852 3.01282 10.135 2.60899 10.5625 2.28849C10.99 1.96799 11.4692 1.80774 12 1.80774C12.5513 1.80774 13.0382 1.96799 13.4605 2.28849C13.883 2.60899 14.1635 3.01282 14.302 3.49999H18.6923C19.1894 3.49999 19.615 3.67699 19.969 4.03099C20.323 4.38499 20.5 4.81057 20.5 5.30774V9.59624C20.5 9.80874 20.4281 9.98682 20.2843 10.1305C20.1404 10.2743 19.9622 10.3462 19.7498 10.3462C19.5371 10.3462 19.359 10.2743 19.2155 10.1305C19.0718 9.98682 19 9.80874 19 9.59624V5.30774C19 5.23074 18.9679 5.16024 18.9038 5.09624C18.8398 5.03207 18.7692 4.99999 18.6923 4.99999H16.5V6.71149C16.5 6.96766 16.4138 7.18232 16.2413 7.35549C16.0688 7.52866 15.855 7.61524 15.6 7.61524H8.39975C8.14475 7.61524 7.93108 7.52866 7.75875 7.35549C7.58625 7.18232 7.5 6.96766 7.5 6.71149V4.99999H5.30775C5.23075 4.99999 5.16025 5.03207 5.09625 5.09624C5.03208 5.16024 5 5.23074 5 5.30774V18.6922C5 18.7692 5.03208 18.8397 5.09625 18.9037C5.16025 18.9679 5.23075 19 5.30775 19H9.5C9.7125 19 9.89067 19.0719 10.0345 19.2157C10.1782 19.3596 10.25 19.5377 10.25 19.7502C10.25 19.9629 10.1782 20.141 10.0345 20.2845C9.89067 20.4282 9.7125 20.5 9.5 20.5H5.30775ZM12.0017 5.11549C12.2583 5.11549 12.4727 5.02866 12.6453 4.85499C12.8176 4.68149 12.9038 4.46641 12.9038 4.20974C12.9038 3.95324 12.817 3.73874 12.6435 3.56624C12.47 3.39391 12.2549 3.30774 11.9983 3.30774C11.7417 3.30774 11.5273 3.39449 11.3548 3.56799C11.1824 3.74166 11.0963 3.95674 11.0963 4.21324C11.0963 4.46974 11.183 4.68424 11.3565 4.85674C11.53 5.02924 11.7451 5.11549 12.0017 5.11549ZM15.5385 19.5C14.4423 19.5 13.508 19.1137 12.7355 18.3412C11.9632 17.5689 11.577 16.6347 11.577 15.5385C11.577 14.4423 11.9632 13.508 12.7355 12.7355C13.508 11.9632 14.4423 11.577 15.5385 11.577C16.6347 11.577 17.5689 11.9632 18.3413 12.7355C19.1138 13.508 19.5 14.4423 19.5 15.5385C19.5 15.9398 19.4423 16.3292 19.327 16.7067C19.2115 17.0842 19.0423 17.4371 18.8193 17.7652L20.973 19.9192C21.1115 20.0577 21.1823 20.2317 21.1855 20.4412C21.1887 20.6509 21.1178 20.8282 20.973 20.973C20.8282 21.1178 20.6526 21.1887 20.4462 21.1855C20.2397 21.1823 20.0641 21.1115 19.9193 20.973L17.7653 18.8287C17.4307 19.0326 17.077 19.1954 16.704 19.3172C16.331 19.4391 15.9425 19.5 15.5385 19.5ZM15.5363 18C16.2249 18 16.8077 17.7622 17.2845 17.2867C17.7615 16.8112 18 16.2292 18 15.5407C18 14.8521 17.7622 14.2692 17.2867 13.7922C16.8112 13.3154 16.2292 13.077 15.5408 13.077C14.8521 13.077 14.2692 13.3147 13.7923 13.7902C13.3154 14.2656 13.077 14.8476 13.077 15.5362C13.077 16.2249 13.3147 16.8077 13.7902 17.2845C14.2656 17.7615 14.8476 18 15.5363 18Z" fill="#273540"/>
</svg>
