<svg width="13" height="13" viewBox="0 0 13 13" fill="none" xmlns="http://www.w3.org/2000/svg">
<path d="M6.3115 7.14617C6.21317 7.14617 6.11767 7.13333 6.025 7.10767C5.93222 7.082 5.84011 7.04567 5.74867 6.99867L0.307667 4.10517C0.198222 4.04272 0.119611 3.96578 0.0718334 3.87433C0.0239445 3.78289 0 3.6825 0 3.57317C0 3.46372 0.0239445 3.36328 0.0718334 3.27183C0.119611 3.18039 0.198222 3.10344 0.307667 3.041L5.74867 0.1475C5.84011 0.1005 5.93222 0.0641666 6.025 0.0385C6.11767 0.0128333 6.21317 0 6.3115 0C6.40983 0 6.50533 0.0128333 6.598 0.0385C6.69078 0.0641666 6.78289 0.1005 6.87433 0.1475L12.3217 3.041C12.4311 3.10344 12.5098 3.18039 12.5577 3.27183C12.6056 3.36328 12.6295 3.46372 12.6295 3.57317C12.6295 3.6825 12.6056 3.78289 12.5577 3.87433C12.5098 3.96578 12.4311 4.04272 12.3217 4.10517L6.87433 6.99867C6.78289 7.04567 6.69078 7.082 6.598 7.10767C6.50533 7.13333 6.40983 7.14617 6.3115 7.14617ZM6.3115 8.768L11.6473 5.94367C11.6739 5.92822 11.7645 5.91328 11.9192 5.89883C12.0525 5.90728 12.1617 5.95728 12.2467 6.04883C12.3318 6.14028 12.3743 6.25267 12.3743 6.386C12.3743 6.47822 12.354 6.5615 12.3133 6.63583C12.2728 6.71028 12.2063 6.77228 12.114 6.82183L6.87433 9.60133C6.78289 9.64833 6.69078 9.68467 6.598 9.71033C6.50533 9.73589 6.40983 9.74867 6.3115 9.74867C6.21317 9.74867 6.11767 9.73589 6.025 9.71033C5.93222 9.68467 5.84011 9.64833 5.74867 9.60133L0.515333 6.82183C0.423 6.77228 0.3555 6.71028 0.312833 6.63583C0.270056 6.5615 0.248667 6.47822 0.248667 6.386C0.248667 6.25267 0.292278 6.14028 0.3795 6.04883C0.466611 5.95728 0.576833 5.90728 0.710167 5.89883C0.757167 5.89028 0.8025 5.89006 0.846167 5.89817C0.889722 5.90628 0.935 5.92144 0.982 5.94367L6.3115 8.768ZM6.3115 11.3705L11.6473 8.54617C11.6739 8.53083 11.7645 8.51589 11.9192 8.50133C12.0525 8.50989 12.1617 8.55989 12.2467 8.65133C12.3318 8.74278 12.3743 8.85517 12.3743 8.9885C12.3743 9.08083 12.354 9.16417 12.3133 9.2385C12.2728 9.31283 12.2063 9.37478 12.114 9.42433L6.87433 12.2038C6.78289 12.2508 6.69078 12.2872 6.598 12.3128C6.50533 12.3385 6.40983 12.3513 6.3115 12.3513C6.21317 12.3513 6.11767 12.3385 6.025 12.3128C5.93222 12.2872 5.84011 12.2508 5.74867 12.2038L0.515333 9.42433C0.423 9.37478 0.3555 9.31283 0.312833 9.2385C0.270056 9.16417 0.248667 9.08083 0.248667 8.9885C0.248667 8.85517 0.292278 8.74278 0.3795 8.65133C0.466611 8.55989 0.576833 8.50989 0.710167 8.50133C0.757167 8.49278 0.8025 8.49256 0.846167 8.50067C0.889722 8.50878 0.935 8.52394 0.982 8.54617L6.3115 11.3705Z" fill="#6A7883"/>
</svg>
