<svg width="24" height="24" viewBox="0 0 24 24" fill="none" xmlns="http://www.w3.org/2000/svg">
<path d="M19.377 11L15.3193 6.94225C15.1641 6.78709 15.0865 6.60892 15.0865 6.40775C15.0865 6.20642 15.1641 6.02817 15.3193 5.873C15.4744 5.72817 15.6542 5.65734 15.8587 5.6605C16.0631 5.66384 16.2345 5.73467 16.373 5.873L20.8673 10.3673C20.9609 10.4609 21.0269 10.5597 21.0653 10.6635C21.1038 10.7673 21.123 10.8795 21.123 11C21.123 11.1205 21.1038 11.2327 21.0653 11.3365C21.0269 11.4403 20.9609 11.5391 20.8673 11.6328L16.373 16.127C16.2178 16.282 16.0422 16.357 15.8462 16.352C15.6501 16.3468 15.4744 16.2718 15.3193 16.127C15.1641 15.9718 15.0856 15.7946 15.0837 15.5953C15.0817 15.3959 15.1551 15.2218 15.3038 15.073L19.377 11ZM14.0693 11.75H7.25C6.3525 11.75 5.5865 12.0673 4.952 12.702C4.31733 13.3365 4 14.1025 4 15V17.75C4 17.9628 3.92817 18.141 3.7845 18.2845C3.641 18.4282 3.46283 18.5 3.25 18.5C3.03717 18.5 2.859 18.4282 2.7155 18.2845C2.57183 18.141 2.5 17.9628 2.5 17.75V15C2.5 13.6872 2.9635 12.5673 3.8905 11.6405C4.81733 10.7135 5.93717 10.25 7.25 10.25H14.0693L10.7615 6.94225C10.6065 6.78709 10.529 6.60892 10.529 6.40775C10.529 6.20642 10.6065 6.02817 10.7615 5.873C10.9167 5.72817 11.0965 5.65734 11.301 5.6605C11.5055 5.66384 11.677 5.73467 11.8155 5.873L16.3095 10.3673C16.4032 10.4609 16.4692 10.5597 16.5078 10.6635C16.5463 10.7673 16.5655 10.8795 16.5655 11C16.5655 11.1205 16.5463 11.2327 16.5078 11.3365C16.4692 11.4403 16.4032 11.5391 16.3095 11.6328L11.8155 16.127C11.6603 16.282 11.4847 16.357 11.2885 16.352C11.0923 16.3468 10.9167 16.2718 10.7615 16.127C10.6065 15.9718 10.528 15.7946 10.526 15.5953C10.524 15.3959 10.5974 15.2218 10.7463 15.073L14.0693 11.75Z" fill="#273540"/>
</svg>
