
<svg version="1.1" xmlns="http://www.w3.org/2000/svg" viewBox="0 0 24 24">
 <g id="Guides">
  <line id="Baseline-S" x1="0" x2="24" y1="18" y2="18"/>
  <line id="Capline-S"  x1="0" x2="24" y1="6" y2="6"/>
  <line id="Baseline-M" x1="0" x2="24" y1="18" y2="18"/>
  <line id="Capline-M"  x1="0" x2="24" y1="6" y2="6"/>
  <line id="Baseline-L" x1="0" x2="24" y1="18" y2="18"/>
  <line id="Capline-L"  x1="0" x2="24" y1="6" y2="6"/>
  <line id="left-margin" x1="0" x2="0" y1="0" y2="24"/>
  <line id="right-margin"  x1="24" x2="24" y1="0" y2="24"/>
 </g>
 <g id="Symbols">
  <g id="Regular-M">
   <rect width="24" height="24" opacity="0" />
   <g transform="matrix(0.010416666666666666 0 0 0.010416666666666666 2 2)">
     <path d="M1892.1 374.226L1517.874 0 1143.76 374.226l78.884 78.884 239.442-239.442v478.996c0 191.464-116.596 261.534-251.715 342.65-91.604 54.895-190.349 114.923-250.377 216.904-59.916-101.98-158.66-162.009-250.265-216.904-135.118-81.116-251.827-151.186-251.827-342.65V213.668L697.456 453.11l78.884-78.884L402.114 0 28 374.226l78.884 78.884 239.442-239.442v478.996c0 254.728 162.678 352.245 306.165 438.27 135.118 81.116 251.715 151.186 251.715 342.762V1920h111.576v-446.304c0-191.576 116.709-261.646 251.827-342.762 143.487-86.025 306.053-183.542 306.053-438.27V213.668l239.554 239.442 78.884-78.884z" stroke="none" stroke-width="1" fill-rule="evenodd"/>
   </g>
  </g>
 </g>
</svg>
