<svg width="24" height="24" viewBox="0 0 24 24" fill="none" xmlns="http://www.w3.org/2000/svg">
<mask id="mask0_18_3154" style="mask-type:alpha" maskUnits="userSpaceOnUse" x="0" y="0" width="24" height="24">
<rect width="24" height="24" fill="#D9D9D9"/>
</mask>
<g mask="url(#mask0_18_3154)">
<path d="M18.8463 11.975C18.8463 10.6 18.4779 9.34519 17.7411 8.21052C17.0042 7.07569 16.0162 6.22669 14.7771 5.66352C14.5847 5.57252 14.4431 5.4366 14.3521 5.25577C14.2611 5.0751 14.2499 4.89077 14.3186 4.70277C14.4011 4.50227 14.5442 4.36294 14.7481 4.28477C14.9519 4.20644 15.1583 4.21285 15.3673 4.30402C16.875 4.98852 18.0817 6.01852 18.9876 7.39402C19.8932 8.76935 20.3461 10.2963 20.3461 11.9748C20.3461 13.6531 19.8932 15.1801 18.9876 16.5558C18.0817 17.9314 16.875 18.9615 15.3673 19.646C15.1583 19.7372 14.9519 19.7436 14.7481 19.6653C14.5442 19.5871 14.4011 19.4478 14.3186 19.2473C14.2499 19.0593 14.2611 18.8749 14.3521 18.6943C14.4431 18.5134 14.5847 18.3775 14.7771 18.2865C16.0162 17.7234 17.0042 16.8744 17.7411 15.7395C18.4779 14.6049 18.8463 13.35 18.8463 11.975ZM7.36555 14.5H4.5578C4.30164 14.5 4.08697 14.4134 3.9138 14.24C3.74064 14.0669 3.65405 13.8522 3.65405 13.596V10.404C3.65405 10.1479 3.74064 9.93319 3.9138 9.76002C4.08697 9.58669 4.30164 9.50002 4.5578 9.50002H7.36555L10.3578 6.50777C10.5975 6.2681 10.8734 6.21402 11.1856 6.34552C11.4977 6.47702 11.6538 6.71185 11.6538 7.05002V16.95C11.6538 17.2882 11.4977 17.523 11.1856 17.6545C10.8734 17.786 10.5975 17.7319 10.3578 17.4923L7.36555 14.5ZM16.1538 12.001C16.1538 12.6249 16.0243 13.2153 15.7653 13.7723C15.5065 14.3293 15.1575 14.7975 14.7183 15.177C14.5766 15.2719 14.4279 15.2814 14.2721 15.2058C14.1164 15.1301 14.0386 15.0051 14.0386 14.8308V9.11927C14.0386 8.94494 14.1164 8.81994 14.2721 8.74427C14.4279 8.6686 14.5766 8.67769 14.7183 8.77152C15.1575 9.16235 15.5065 9.64235 15.7653 10.2115C16.0243 10.7809 16.1538 11.3774 16.1538 12.001ZM10.1538 8.85002L8.0038 11H5.1538V13H8.0038L10.1538 15.15V8.85002Z" fill="#273540"/>
</g>
</svg>
