<svg xmlns="http://www.w3.org/2000/svg" viewBox="0 0 24 24"><g transform="matrix(0.010416666666666666 0 0 0.010416666666666666 2 2)"><path d="M1599.04 1523.627 396.373 320.96C546.88 188.053 743.787 106.667 960 106.667c470.507 0 853.333 382.826 853.333 853.333 0 216.107-81.386 413.12-214.293 563.627M106.667 960c0-216.213 81.28-413.12 214.293-563.627L1523.627 1599.04c-150.507 132.907-347.52 214.293-563.627 214.293-470.507 0-853.333-382.826-853.333-853.333M960 0C429.76 0 0 429.76 0 960s429.76 960 960 960c530.133 0 960-429.76 960-960S1490.133 0 960 0" fill-rule="evenodd"/></g>
</svg>