<svg width="24" height="24" viewBox="0 0 24 24" fill="none" xmlns="http://www.w3.org/2000/svg">
<path d="M7.0385 16.5385C5.78283 16.5385 4.7125 16.096 3.8275 15.211C2.9425 14.3262 2.5 13.256 2.5 12.0005C2.5 10.745 2.9425 9.67471 3.8275 8.78955C4.7125 7.90421 5.78283 7.46155 7.0385 7.46155H10.0578C10.2702 7.46155 10.4483 7.53346 10.592 7.6773C10.7358 7.82113 10.8077 7.99938 10.8077 8.21205C10.8077 8.42455 10.7358 8.60263 10.592 8.7463C10.4483 8.8898 10.2702 8.96155 10.0578 8.96155H7.03725C6.19825 8.96155 5.48233 9.25805 4.8895 9.85105C4.2965 10.444 4 11.1604 4 12C4 12.8397 4.2965 13.556 4.8895 14.149C5.48233 14.742 6.19825 15.0385 7.03725 15.0385H10.0578C10.2702 15.0385 10.4483 15.1105 10.592 15.2543C10.7358 15.3981 10.8077 15.5763 10.8077 15.7888C10.8077 16.0015 10.7358 16.1795 10.592 16.323C10.4483 16.4667 10.2702 16.5385 10.0578 16.5385H7.0385ZM9 12.75C8.7875 12.75 8.60942 12.6781 8.46575 12.5343C8.32192 12.3905 8.25 12.2123 8.25 11.9998C8.25 11.7871 8.32192 11.609 8.46575 11.4655C8.60942 11.3219 8.7875 11.25 9 11.25H15C15.2125 11.25 15.3906 11.322 15.5343 11.4658C15.6781 11.6096 15.75 11.7878 15.75 12.0003C15.75 12.213 15.6781 12.391 15.5343 12.5345C15.3906 12.6782 15.2125 12.75 15 12.75H9ZM13.9423 16.5385C13.7298 16.5385 13.5517 16.4666 13.408 16.3228C13.2642 16.179 13.1923 16.0007 13.1923 15.788C13.1923 15.5755 13.2642 15.3975 13.408 15.2538C13.5517 15.1103 13.7298 15.0385 13.9423 15.0385H16.9628C17.8018 15.0385 18.5177 14.742 19.1105 14.149C19.7035 13.556 20 12.8397 20 12C20 11.1604 19.7035 10.444 19.1105 9.85105C18.5177 9.25805 17.8018 8.96155 16.9628 8.96155H13.9423C13.7298 8.96155 13.5517 8.88963 13.408 8.7458C13.2642 8.60196 13.1923 8.4238 13.1923 8.2113C13.1923 7.99863 13.2642 7.82055 13.408 7.67705C13.5517 7.53338 13.7298 7.46155 13.9423 7.46155H16.9615C18.2172 7.46155 19.2875 7.90405 20.1725 8.78905C21.0575 9.67388 21.5 10.744 21.5 11.9995C21.5 13.255 21.0575 14.3254 20.1725 15.2105C19.2875 16.0959 18.2172 16.5385 16.9615 16.5385H13.9423Z" fill="#273540"/>
</svg>
