<svg width="24" height="24" viewBox="0 0 24 24" fill="none" xmlns="http://www.w3.org/2000/svg">
<path d="M10.9345 15.2788L9.34225 13.6865C9.26792 13.6122 9.18683 13.5564 9.099 13.5192C9.01117 13.4821 8.92083 13.4635 8.828 13.4635C8.735 13.4635 8.64042 13.4821 8.54425 13.5192C8.44808 13.5564 8.36283 13.6122 8.2885 13.6865C8.13333 13.8417 8.05575 14.0199 8.05575 14.2213C8.05575 14.4224 8.13333 14.6006 8.2885 14.7558L10.3173 16.8C10.4109 16.8935 10.5097 16.9595 10.6135 16.998C10.7173 17.0365 10.8295 17.0557 10.95 17.0557C11.0705 17.0557 11.1827 17.0365 11.2865 16.998C11.3903 16.9595 11.4891 16.8935 11.5827 16.8L15.7115 12.671C15.8602 12.5223 15.9362 12.3433 15.9395 12.1337C15.9427 11.9241 15.8667 11.7417 15.7115 11.5865C15.5563 11.4313 15.3756 11.3538 15.1693 11.3538C14.9629 11.3538 14.7822 11.4313 14.627 11.5865L10.9345 15.2788ZM6.30775 21.5C5.80258 21.5 5.375 21.325 5.025 20.975C4.675 20.625 4.5 20.1974 4.5 19.6923V4.30775C4.5 3.80258 4.675 3.375 5.025 3.025C5.375 2.675 5.80258 2.5 6.30775 2.5H13.502C13.743 2.5 13.9748 2.54683 14.1973 2.6405C14.4196 2.734 14.6128 2.86283 14.777 3.027L18.973 7.223C19.1372 7.38717 19.266 7.58042 19.3595 7.80275C19.4532 8.02525 19.5 8.257 19.5 8.498V19.6923C19.5 20.1974 19.325 20.625 18.975 20.975C18.625 21.325 18.1974 21.5 17.6923 21.5H6.30775ZM13.5 7.596V4H6.30775C6.23075 4 6.16025 4.03208 6.09625 4.09625C6.03208 4.16025 6 4.23075 6 4.30775V19.6923C6 19.7693 6.03208 19.8398 6.09625 19.9038C6.16025 19.9679 6.23075 20 6.30775 20H17.6923C17.7692 20 17.8398 19.9679 17.9038 19.9038C17.9679 19.8398 18 19.7693 18 19.6923V8.5H14.404C14.1462 8.5 13.9311 8.41375 13.7587 8.24125C13.5862 8.06892 13.5 7.85383 13.5 7.596Z" fill="#273540"/>
</svg>
