<svg width="24" height="24" viewBox="0 0 24 24" fill="none" xmlns="http://www.w3.org/2000/svg">
<path d="M15.5 17.4615L20.6423 12.3192C20.7808 12.1807 20.9548 12.1099 21.1645 12.1067C21.374 12.1036 21.5513 12.1744 21.6962 12.3192C21.8411 12.4641 21.9135 12.6397 21.9135 12.8462C21.9135 13.0526 21.8411 13.2282 21.6962 13.373L16.1328 18.9365C15.9519 19.1173 15.741 19.2077 15.5 19.2077C15.259 19.2077 15.0481 19.1173 14.8673 18.9365L12.123 16.1922C11.9847 16.0537 11.9138 15.8797 11.9105 15.6702C11.9073 15.4606 11.9782 15.2833 12.123 15.1385C12.268 14.9937 12.4437 14.9212 12.65 14.9212C12.8563 14.9212 13.032 14.9937 13.177 15.1385L15.5 17.4615ZM5.30775 20.5C4.81058 20.5 4.385 20.323 4.031 19.969C3.677 19.615 3.5 19.1894 3.5 18.6922V5.30774C3.5 4.81057 3.677 4.38499 4.031 4.03099C4.385 3.67699 4.81058 3.49999 5.30775 3.49999H9.7135C9.852 3.01282 10.135 2.60899 10.5625 2.28849C10.99 1.96799 11.4692 1.80774 12 1.80774C12.5513 1.80774 13.0382 1.96799 13.4605 2.28849C13.883 2.60899 14.1635 3.01282 14.302 3.49999H18.6923C19.1894 3.49999 19.615 3.67699 19.969 4.03099C20.323 4.38499 20.5 4.81057 20.5 5.30774V9.24999C20.5 9.46249 20.4281 9.64066 20.2843 9.78449C20.1404 9.92816 19.9622 9.99999 19.7498 9.99999C19.5371 9.99999 19.359 9.92816 19.2155 9.78449C19.0718 9.64066 19 9.46249 19 9.24999V5.30774C19 5.23074 18.9679 5.16024 18.9038 5.09624C18.8398 5.03207 18.7692 4.99999 18.6923 4.99999H16.5V6.71149C16.5 6.96766 16.4138 7.18232 16.2413 7.35549C16.0688 7.52866 15.855 7.61524 15.6 7.61524H8.39975C8.14475 7.61524 7.93108 7.52866 7.75875 7.35549C7.58625 7.18232 7.5 6.96766 7.5 6.71149V4.99999H5.30775C5.23075 4.99999 5.16025 5.03207 5.09625 5.09624C5.03208 5.16024 5 5.23074 5 5.30774V18.6922C5 18.7692 5.03208 18.8397 5.09625 18.9037C5.16025 18.9679 5.23075 19 5.30775 19H10.25C10.4625 19 10.6407 19.0719 10.7845 19.2157C10.9282 19.3596 11 19.5377 11 19.7502C11 19.9629 10.9282 20.141 10.7845 20.2845C10.6407 20.4282 10.4625 20.5 10.25 20.5H5.30775ZM12.0017 5.11549C12.2583 5.11549 12.4727 5.02866 12.6453 4.85499C12.8176 4.68149 12.9038 4.46641 12.9038 4.20974C12.9038 3.95324 12.817 3.73874 12.6435 3.56624C12.47 3.39391 12.2549 3.30774 11.9983 3.30774C11.7417 3.30774 11.5273 3.39449 11.3548 3.56799C11.1824 3.74166 11.0963 3.95674 11.0963 4.21324C11.0963 4.46974 11.183 4.68424 11.3565 4.85674C11.53 5.02924 11.7451 5.11549 12.0017 5.11549Z" fill="#273540"/>
</svg>
