<svg xmlns="http://www.w3.org/2000/svg" viewBox="0 0 24 24"><g><path fill-rule="evenodd" stroke="none" stroke-width="1" d="M338.824 903.53V790.587h1242.465V903.53H338.824zm0 338.823v-112.941h903.529v112.94h-903.53zm282.352-903.53c-93.402 0-169.411-76.009-169.411-169.411C451.765 76.009 527.775 0 621.176 0c93.403 0 169.412 76.01 169.412 169.412 0 26.09-6.437 50.484-16.94 72.62L999.98 468.255l-79.962 79.962-226.221-226.334c-22.137 10.504-46.532 16.942-72.622 16.942zm847.06 1444.857v-315.445h315.444l-315.445 315.445zM1016.47 225.882v112.942h790.588v1016.47h-451.765v451.765H112.941V338.824h225.883V225.882H0V1920h1421.478c45.176 0 87.755-17.619 119.717-49.581l329.224-329.11c31.962-32.076 49.581-74.655 49.581-119.831V225.882h-903.53z" transform="matrix(0.010416666666666666 0 0 0.010416666666666666 2 2)"/></g></svg>