<svg width="95" height="71" viewBox="0 0 95 71" fill="none" xmlns="http://www.w3.org/2000/svg">
<g clip-path="url(#clip0_4274_29913)">
<path fill-rule="evenodd" clip-rule="evenodd" d="M1.48926 61.2144L63.4893 42.7144L94.4893 51.2144L31.4893 70.2144L1.48926 61.2144Z" fill="black" fill-opacity="0.05"/>
<path fill-rule="evenodd" clip-rule="evenodd" d="M65.4893 33.2144L82.4893 28.2144V50.2144L65.4893 55.2144V33.2144Z" fill="#FFA639" stroke="#152633" stroke-width="1.5" stroke-linejoin="round"/>
<path fill-rule="evenodd" clip-rule="evenodd" d="M65.4893 11.2144L82.4893 6.21436V28.2144L65.4893 33.2144V11.2144Z" fill="#FF5A78" stroke="#152633" stroke-width="1.5" stroke-linejoin="round"/>
<path fill-rule="evenodd" clip-rule="evenodd" d="M48.4893 6.21436L65.4893 1.21436L82.4893 6.21436L65.4893 11.2144L48.4893 6.21436Z" fill="#EF3A5A" stroke="#152633" stroke-width="1.5" stroke-linejoin="round"/>
<path fill-rule="evenodd" clip-rule="evenodd" d="M48.4893 38.2144L65.4893 33.2144V55.2144L48.4893 60.2144V38.2144Z" fill="#FFE991" stroke="#152633" stroke-width="1.5" stroke-linejoin="round"/>
<path fill-rule="evenodd" clip-rule="evenodd" d="M31.4893 33.2144L48.4893 28.2144L65.4893 33.2144L48.4893 38.2144L31.4893 33.2144Z" fill="white" stroke="#152633" stroke-width="1.5" stroke-linejoin="round"/>
<path fill-rule="evenodd" clip-rule="evenodd" d="M31.4893 33.2144L48.4893 38.2144V60.2144L31.4893 55.2144V33.2144Z" fill="white" stroke="#152633" stroke-width="1.5" stroke-linejoin="round"/>
<path fill-rule="evenodd" clip-rule="evenodd" d="M48.4893 16.2144L65.4893 11.2144V33.2144L48.4893 38.2144V16.2144Z" fill="#82CFFF" stroke="#152633" stroke-width="1.5" stroke-linejoin="round"/>
<path fill-rule="evenodd" clip-rule="evenodd" d="M31.4893 11.2144L48.4893 6.21436L65.4893 11.2144L48.4893 16.2144L31.4893 11.2144Z" fill="#409ED8" stroke="#152633" stroke-width="1.5" stroke-linejoin="round"/>
<path fill-rule="evenodd" clip-rule="evenodd" d="M31.4893 11.2144L48.4893 16.2144V38.2144L31.4893 33.2144V11.2144Z" fill="#2796DC" stroke="#152633" stroke-width="1.5" stroke-linejoin="round"/>
<path fill-rule="evenodd" clip-rule="evenodd" d="M31.4893 43.2144L48.4893 38.2144V60.2144L31.4893 65.2144V43.2144Z" fill="#1AD4BD" stroke="#152633" stroke-width="1.5" stroke-linejoin="round"/>
<path fill-rule="evenodd" clip-rule="evenodd" d="M14.4893 38.2144L31.4893 33.2144L48.4893 38.2144L31.4893 43.2144L14.4893 38.2144Z" fill="#13C2AD" stroke="#152633" stroke-width="1.5" stroke-linejoin="round"/>
<path fill-rule="evenodd" clip-rule="evenodd" d="M14.4893 38.2144L31.4893 43.2144V65.2144L14.4893 60.2144V38.2144Z" fill="#1C9D8D" stroke="#152633" stroke-width="1.5" stroke-linejoin="round"/>
</g>
<defs>
<clipPath id="clip0_4274_29913">
<rect width="94" height="70" fill="white" transform="translate(0.5 0.357178)"/>
</clipPath>
</defs>
</svg>
