<svg width="24" height="24" viewBox="0 0 24 24" fill="none" xmlns="http://www.w3.org/2000/svg">
<path d="M14.9134 4.5C15.1996 4.5 15.4707 4.56317 15.7269 4.6895C15.9829 4.81583 16.1937 4.9905 16.3594 5.2135L20.6769 10.9057C20.9242 11.2301 21.0479 11.5948 21.0479 12C21.0479 12.4052 20.9242 12.7699 20.6769 13.0942L16.3594 18.7865C16.1937 19.0095 15.9829 19.1842 15.7269 19.3105C15.4707 19.4368 15.1996 19.5 14.9134 19.5H12.8844C12.6719 19.5 12.4938 19.4281 12.3501 19.2843C12.2065 19.1404 12.1346 18.9622 12.1346 18.7498C12.1346 18.5371 12.2065 18.359 12.3501 18.2155C12.4938 18.0718 12.6719 18 12.8844 18H14.9134C14.9647 18 15.0112 17.9904 15.0529 17.9712C15.0946 17.9519 15.1314 17.923 15.1634 17.8845L19.4806 12.1923C19.5255 12.1346 19.5479 12.0705 19.5479 12C19.5479 11.9295 19.5255 11.8654 19.4806 11.8078L15.1634 6.1155C15.1314 6.077 15.0946 6.04808 15.0529 6.02875C15.0112 6.00958 14.9647 6 14.9134 6H4.30764C4.21781 6 4.14406 6.02883 4.08639 6.0865C4.02872 6.14417 3.99989 6.21792 3.99989 6.30775V10.0578C3.99989 10.2702 3.92797 10.4483 3.78414 10.592C3.64031 10.7358 3.46214 10.8078 3.24964 10.8078C3.03697 10.8078 2.85889 10.7358 2.71539 10.592C2.57172 10.4483 2.49989 10.2702 2.49989 10.0578V6.30775C2.49989 5.81058 2.67689 5.385 3.03089 5.031C3.38489 4.677 3.81047 4.5 4.30764 4.5H14.9134ZM6.19189 20.5C5.97922 20.5 5.80114 20.4281 5.65764 20.2843C5.51397 20.1406 5.44214 19.9625 5.44214 19.75V17.5H3.19214C2.97964 17.5 2.80156 17.4281 2.65789 17.2843C2.51406 17.1404 2.44214 16.9622 2.44214 16.7498C2.44214 16.5371 2.51406 16.359 2.65789 16.2155C2.80156 16.0718 2.97964 16 3.19214 16H5.44214V13.75C5.44214 13.5375 5.51406 13.3593 5.65789 13.2155C5.80172 13.0718 5.97997 13 6.19264 13C6.40514 13 6.58322 13.0718 6.72689 13.2155C6.87039 13.3593 6.94214 13.5375 6.94214 13.75V16H9.19214C9.40464 16 9.58281 16.0719 9.72664 16.2158C9.87031 16.3596 9.94214 16.5378 9.94214 16.7503C9.94214 16.9629 9.87031 17.141 9.72664 17.2845C9.58281 17.4282 9.40464 17.5 9.19214 17.5H6.94214V19.75C6.94214 19.9625 6.87022 20.1406 6.72639 20.2843C6.58256 20.4281 6.40439 20.5 6.19189 20.5Z" fill="#273540"/>
</svg>
