<svg width="178" height="63" viewBox="0 0 178 63" fill="none" xmlns="http://www.w3.org/2000/svg">
<path d="M4.1387 45.8794C6.55116 45.8794 7.96647 47.3054 7.96647 49.3104C7.96647 50.6721 7.18376 51.6371 6.06867 52.0445C7.51614 52.3984 8.35246 53.685 8.35246 55.1003C8.35246 57.1053 6.7656 58.5528 4.43892 58.5528H0V45.8687H4.1387V45.8794ZM3.94571 51.4227C5.36102 51.4227 6.19733 50.5863 6.19733 49.4069C6.19733 48.2275 5.31813 47.4233 3.87065 47.4233H1.75841V51.4334H3.94571V51.4227ZM4.19231 57.0196C5.60762 57.0196 6.5726 56.2369 6.5726 54.9931C6.5726 53.7493 5.80062 52.9238 4.26737 52.9238H1.75841V57.0196H4.19231Z" fill="#273540"/>
<path d="M10.561 62.1446L12.7055 57.5984L9.00635 49.9429H10.9363L13.6168 55.8829L16.1901 49.9429H17.9914L12.3945 62.1446H10.5503H10.561Z" fill="#273540"/>
<path d="M23.3096 58.5528V45.8687H25.1002V58.5528H23.3096Z" fill="#273540"/>
<path d="M29.2924 58.5507H27.6094V49.9536H29.2495V51.1863C29.8712 50.1144 30.8896 49.707 31.8972 49.707C33.9554 49.707 34.9738 51.1863 34.9738 53.1051V58.5614H33.2908V53.3946C33.2908 52.194 32.787 51.2292 31.2862 51.2292C29.9677 51.2292 29.2816 52.2797 29.2816 53.5875V58.5614L29.2924 58.5507Z" fill="#273540"/>
<path d="M37.9132 55.7864C38.0204 56.6763 38.6959 57.3947 39.9182 57.3947C40.8617 57.3947 41.3871 56.8586 41.3871 56.2474C41.3871 55.7113 40.9904 55.3039 40.2827 55.1431L38.8138 54.8214C37.4736 54.5319 36.6694 53.6205 36.6694 52.4089C36.6694 50.94 38.0418 49.6855 39.7252 49.6855C42.084 49.6855 42.8239 51.2188 42.9954 51.9908L41.5158 52.5483C41.4407 52.098 41.0869 51.1223 39.7252 51.1223C38.8674 51.1223 38.2992 51.6798 38.2992 52.2696C38.2992 52.7842 38.6208 53.1595 39.2856 53.3096L40.6795 53.6098C42.2342 53.9529 43.0598 54.8965 43.0598 56.1617C43.0598 57.4269 42.0412 58.8314 39.9075 58.8314C37.5486 58.8314 36.5408 57.3089 36.4014 56.3225L37.9239 55.7864H37.9132Z" fill="#273540"/>
<path d="M47.0162 49.9539H48.8711V51.4764H47.0162V55.9475C47.0162 56.7302 47.3379 57.1269 48.2171 57.1269C48.4315 57.1269 48.7317 57.0947 48.8818 57.0519V58.4779C48.7425 58.5315 48.3136 58.6387 47.7346 58.6387C46.2657 58.6387 45.3329 57.7488 45.3329 56.1834V51.4657H43.6924V49.9431H44.1534C45.0862 49.9431 45.4722 49.3749 45.4722 48.6243V47.2305H47.0055V49.9539H47.0162Z" fill="#273540"/>
<path d="M55.1101 51.6475C54.8635 51.6153 54.6063 51.5939 54.3811 51.5939C52.9662 51.5939 52.0228 52.3443 52.0228 54.2417V58.5509H50.3398V49.9538H51.9799V51.4546C52.6017 50.136 53.6736 49.8145 54.5527 49.8145C54.7885 49.8145 55.0136 49.8466 55.1101 49.868V51.6582V51.6475Z" fill="#273540"/>
<path d="M59.421 58.8187C57.4164 58.8187 56.2051 57.318 56.2051 55.367V49.9536H57.8881V55.1205C57.8881 56.2996 58.424 57.3394 59.839 57.3394C61.254 57.3394 61.8758 56.4497 61.8758 55.1419V49.9536H63.5587V56.9642C63.5587 57.6396 63.6123 58.2506 63.6445 58.5508H62.0366C62.0044 58.3578 61.9615 57.8754 61.9615 57.511C61.5006 58.4007 60.4286 58.8187 59.421 58.8187Z" fill="#273540"/>
<path d="M66.8947 54.2424C66.8947 56.2045 68.1278 57.266 69.5216 57.266C71.1299 57.266 71.7196 56.1724 71.9234 55.4969L73.403 56.1402C72.9956 57.3732 71.7625 58.8207 69.5216 58.8207C67.0234 58.8207 65.1792 56.8586 65.1792 54.2424C65.1792 51.6262 67.0556 49.6855 69.5109 49.6855C71.7947 49.6855 72.9848 51.1116 73.3387 52.4197L71.8161 53.063C71.6017 52.2267 70.9798 51.2402 69.5109 51.2402C68.1492 51.2402 66.9054 52.2374 66.9054 54.2424H66.8947Z" fill="#273540"/>
<path d="M77.1881 49.9539H79.043V51.4764H77.1881V55.9475C77.1881 56.7302 77.5098 57.1269 78.389 57.1269C78.6034 57.1269 78.9036 57.0947 79.0537 57.0519V58.4779C78.9143 58.5315 78.4855 58.6387 77.9065 58.6387C76.4375 58.6387 75.5047 57.7488 75.5047 56.1834V51.4657H73.8643V49.9431H74.3253C75.2581 49.9431 75.6441 49.3749 75.6441 48.6243V47.2305H77.1774V49.9539H77.1881Z" fill="#273540"/>
<path d="M83.6417 58.8187C81.6371 58.8187 80.4258 57.318 80.4258 55.367V49.9536H82.1088V55.1205C82.1088 56.2996 82.6447 57.3394 84.0597 57.3394C85.4747 57.3394 86.0965 56.4497 86.0965 55.1419V49.9536H87.7794V56.9642C87.7794 57.6396 87.833 58.2506 87.8652 58.5508H86.2573C86.2251 58.3578 86.1822 57.8754 86.1822 57.511C85.7213 58.4007 84.6493 58.8187 83.6417 58.8187Z" fill="#273540"/>
<path d="M94.7497 51.6475C94.5032 51.6153 94.2459 51.5939 94.0208 51.5939C92.6058 51.5939 91.6625 52.3443 91.6625 54.2417V58.5509H89.9795V49.9538H91.6196V51.4546C92.2413 50.136 93.3133 49.8145 94.1923 49.8145C94.4281 49.8145 94.6532 49.8466 94.7497 49.868V51.6582V51.6475Z" fill="#273540"/>
<path d="M103.382 56.108C102.9 57.6306 101.527 58.8314 99.5221 58.8314C97.2169 58.8314 95.1904 57.1481 95.1904 54.2317C95.1904 51.5297 97.1418 49.6855 99.3077 49.6855C101.956 49.6855 103.436 51.5083 103.436 54.1888C103.436 54.4032 103.414 54.6177 103.404 54.7249H96.9274C96.9596 56.2582 98.0747 57.3304 99.5221 57.3304C100.97 57.3304 101.613 56.5584 101.935 55.5934L103.382 56.0973V56.108ZM101.688 53.3632C101.656 52.1302 100.852 51.1652 99.3291 51.1652C97.9138 51.1652 97.0561 52.2588 96.981 53.3632H101.688Z" fill="#273540"/>
<path d="M0 20.4898C0 7.69842 9.57478 0 19.7714 0C29.9681 0 35.6615 5.86495 37.4413 12.7378L31.1797 14.8393C30.0217 10.0787 26.3655 6.25094 19.7714 6.25094C13.1774 6.25094 6.80849 10.9579 6.80849 20.4791C6.80849 30.0002 13.1238 34.5464 19.825 34.5464C26.5263 34.5464 30.1825 30.3326 31.5121 25.9044L37.6022 27.8987C35.833 34.5464 29.8501 40.9153 19.825 40.9153C9.25312 40.9153 0 33.2705 0 20.4791V20.4898Z" fill="#273540"/>
<path d="M52.5058 40.8078C44.5822 40.8078 39.4893 34.5462 39.4893 26.4617C39.4893 18.3773 44.6358 12.3408 52.3879 12.3408C57.1484 12.3408 59.5823 14.8283 60.3114 16.6618V13.1128H66.5731V35.1573C66.5731 37.3768 66.7983 39.5319 66.8519 40.0894H60.7082C60.6009 39.4783 60.4294 38.0415 60.4294 36.2081C59.2071 38.8135 56.3872 40.8078 52.5058 40.8078ZM53.2242 35.2753C57.4379 35.2753 60.3651 31.6726 60.3651 26.4725C60.3651 21.2723 57.4808 17.9484 53.2242 17.9484C48.9675 17.9484 45.9118 21.2723 45.9118 26.4725C45.9118 31.6726 48.7316 35.2753 53.2242 35.2753Z" fill="#273540"/>
<path d="M79.0963 40.0895H72.6738V13.1236H78.9355V16.7262C80.7046 13.6275 83.9212 12.3516 86.9127 12.3516C93.5067 12.3516 96.659 17.1121 96.659 23.0414V40.1002H90.2365V24.1565C90.2365 20.8327 88.7462 18.1736 84.6932 18.1736C81.037 18.1736 79.0963 20.9935 79.0963 24.5425V40.1002V40.0895Z" fill="#273540"/>
<path d="M115.562 40.0895H109.14L98.1709 13.1235H105.258L112.399 32.391L119.379 13.1235H126.134L115.562 40.0895Z" fill="#273540"/>
<path d="M139.15 40.8078C131.227 40.8078 126.134 34.5462 126.134 26.4617C126.134 18.3773 131.28 12.3408 139.032 12.3408C143.793 12.3408 146.227 14.8283 146.956 16.6618V13.1128H153.218V35.1573C153.218 37.3768 153.443 39.5319 153.496 40.0894H147.353C147.245 39.4783 147.074 38.0415 147.074 36.2081C145.852 38.8135 143.032 40.8078 139.15 40.8078ZM139.869 35.2753C144.082 35.2753 147.01 31.6726 147.01 26.4725C147.01 21.2723 144.125 17.9484 139.869 17.9484C135.612 17.9484 132.556 21.2723 132.556 26.4725C132.556 31.6726 135.376 35.2753 139.869 35.2753Z" fill="#273540"/>
<path d="M162.181 31.2334C162.407 33.6673 164.229 35.8332 167.66 35.8332C170.319 35.8332 171.703 34.3964 171.703 32.7345C171.703 31.2978 170.705 30.1827 168.55 29.7431L164.562 28.8532C159.801 27.8024 157.303 24.7037 157.303 20.9939C157.303 16.2869 161.624 12.2983 167.21 12.2983C174.737 12.2983 177.181 17.1769 177.621 19.8252L172.196 21.3799C171.971 19.8252 170.813 17.3377 167.21 17.3377C164.937 17.3377 163.329 18.7744 163.329 20.4364C163.329 21.8731 164.379 22.9239 166.041 23.2563L170.137 24.0926C175.23 25.1969 177.889 28.3063 177.889 32.2842C177.889 36.2621 174.565 40.9262 167.703 40.9262C159.898 40.9262 156.906 35.8332 156.574 32.7881L162.171 31.2334H162.181Z" fill="#273540"/>
</svg>
