<svg width="24" height="24" viewBox="0 0 24 24" fill="none" xmlns="http://www.w3.org/2000/svg">
<path d="M12.0017 21.5C10.6877 21.5 9.45267 21.2506 8.2965 20.7518C7.14033 20.2531 6.13467 19.5763 5.2795 18.7213C4.42433 17.8663 3.74725 16.8608 3.24825 15.705C2.74942 14.5492 2.5 13.3142 2.5 12C2.5 10.809 2.70417 9.68367 3.1125 8.624C3.52083 7.5645 4.08658 6.61742 4.80975 5.78275C4.95458 5.60708 5.123 5.52575 5.315 5.53875C5.50717 5.55158 5.67142 5.62267 5.80775 5.752C5.94625 5.88017 6.035 6.04392 6.074 6.24325C6.11317 6.44258 6.04492 6.6455 5.86925 6.852C5.29108 7.54817 4.835 8.33342 4.501 9.20775C4.167 10.0823 4 11.013 4 12C4 14.2333 4.775 16.125 6.325 17.675C7.875 19.225 9.76667 20 12 20C14.2333 20 16.125 19.225 17.675 17.675C19.225 16.125 20 14.2333 20 12C20 11.0115 19.833 10.0804 19.499 9.20675C19.165 8.33308 18.7089 7.54817 18.1307 6.852C17.9551 6.6455 17.8868 6.44258 17.926 6.24325C17.965 6.04392 18.0538 5.88017 18.1923 5.752C18.3308 5.62383 18.4955 5.553 18.6865 5.5395C18.8775 5.526 19.0454 5.60708 19.1903 5.78275C19.9134 6.61742 20.4792 7.5645 20.8875 8.624C21.2958 9.68367 21.5 10.809 21.5 12C21.5 13.3142 21.2507 14.5492 20.752 15.705C20.2533 16.8608 19.5766 17.8663 18.7218 18.7213C17.8669 19.5763 16.8617 20.2531 15.706 20.7518C14.5503 21.2506 13.3156 21.5 12.0017 21.5ZM11.9998 13C11.7871 13 11.609 12.9282 11.4655 12.7845C11.3218 12.6407 11.25 12.4625 11.25 12.25V3.25C11.25 3.0375 11.3219 2.85942 11.4658 2.71575C11.6096 2.57192 11.7878 2.5 12.0003 2.5C12.2129 2.5 12.391 2.57192 12.5345 2.71575C12.6782 2.85942 12.75 3.0375 12.75 3.25V12.25C12.75 12.4625 12.6781 12.6407 12.5343 12.7845C12.3904 12.9282 12.2122 13 11.9998 13Z" fill="#273540"/>
</svg>
