<svg width="24" height="24" viewBox="0 0 24 24" fill="none" xmlns="http://www.w3.org/2000/svg">
<path d="M13.8269 13.0538L15.8999 15.127C16.0384 15.2653 16.2124 15.3362 16.4219 15.3395C16.6316 15.3427 16.8088 15.2718 16.9537 15.127C17.0985 14.982 17.1709 14.8063 17.1709 14.6C17.1709 14.3937 17.0985 14.218 16.9537 14.073L14.8807 12L16.9537 9.927C17.0922 9.7885 17.163 9.61442 17.1662 9.40475C17.1693 9.19525 17.0985 9.018 16.9537 8.873C16.8088 8.72817 16.6332 8.65575 16.4269 8.65575C16.2204 8.65575 16.0447 8.72817 15.8999 8.873L13.8269 10.9462L11.7537 8.873C11.6153 8.73467 11.4413 8.66383 11.2317 8.6605C11.022 8.65733 10.8447 8.72817 10.6999 8.873C10.5551 9.018 10.4827 9.19367 10.4827 9.4C10.4827 9.60633 10.5551 9.782 10.6999 9.927L12.7729 12L10.6999 14.073C10.5614 14.2115 10.4906 14.3856 10.4874 14.5953C10.4842 14.8048 10.5551 14.982 10.6999 15.127C10.8447 15.2718 11.0204 15.3442 11.2269 15.3442C11.4332 15.3442 11.6088 15.2718 11.7537 15.127L13.8269 13.0538ZM9.0864 19.5C8.8019 19.5 8.53074 19.4372 8.2729 19.3115C8.01524 19.1858 7.8044 19.0108 7.6404 18.7865L3.3229 13.0942C3.07557 12.7699 2.9519 12.4052 2.9519 12C2.9519 11.5948 3.07557 11.2301 3.3229 10.9057L7.6404 5.2135C7.8044 4.98917 8.01524 4.81417 8.2729 4.6885C8.53074 4.56283 8.8019 4.5 9.0864 4.5H19.6922C20.1908 4.5 20.6168 4.67658 20.9702 5.02975C21.3233 5.38308 21.4999 5.80908 21.4999 6.30775V17.6923C21.4999 18.1909 21.3233 18.6169 20.9702 18.9703C20.6168 19.3234 20.1908 19.5 19.6922 19.5H9.0864ZM9.0864 18H19.6922C19.782 18 19.8557 17.9712 19.9134 17.9135C19.9711 17.8558 19.9999 17.7821 19.9999 17.6923V6.30775C19.9999 6.21792 19.9711 6.14417 19.9134 6.0865C19.8557 6.02883 19.782 6 19.6922 6H9.0864C9.03507 6 8.98857 6.00958 8.9469 6.02875C8.90524 6.04808 8.8684 6.077 8.8364 6.1155L4.51915 11.8078C4.47432 11.8654 4.4519 11.9295 4.4519 12C4.4519 12.0705 4.47432 12.1346 4.51915 12.1923L8.8364 17.8845C8.8684 17.923 8.90524 17.9519 8.9469 17.9712C8.98857 17.9904 9.03507 18 9.0864 18Z" fill="#273540"/>
</svg>
