<svg width="24" height="24" viewBox="0 0 24 24" fill="none" xmlns="http://www.w3.org/2000/svg">
<g clip-path="url(#clip0_32_2)">
<path d="M12.0142 0C7.51764 0 3.85938 3.65822 3.85938 8.15477C3.85938 9.96171 4.9232 12.7097 7.2073 16.8029C8.76593 19.5958 10.3174 21.9548 10.3828 22.0542L11.5042 23.7539C11.6172 23.9253 11.8088 24.0284 12.0142 24.0284C12.2196 24.0284 12.4111 23.9253 12.5242 23.7539L13.6455 22.0543C13.7103 21.956 15.2505 19.6174 16.8211 16.8029C19.1052 12.7099 20.169 9.96191 20.169 8.15477C20.169 3.65822 16.5107 0 12.0142 0ZM15.754 16.2074C14.2053 18.9825 12.6895 21.2845 12.6256 21.3812L12.0142 22.3079L11.403 21.3815C11.3388 21.2839 9.81133 18.9614 8.27435 16.2074C6.15565 12.4106 5.08137 9.70128 5.08137 8.15477C5.08137 4.33202 8.1914 1.222 12.0142 1.222C15.837 1.222 18.947 4.33202 18.947 8.15477C18.947 9.70147 17.8727 12.4107 15.754 16.2074Z" fill="black"/>
<path d="M12.0142 3.58246C9.52107 3.58246 7.4928 5.61078 7.4928 8.10384C7.4928 10.5969 9.52107 12.6252 12.0142 12.6252C14.5073 12.6252 16.5356 10.5969 16.5356 8.10384C16.5356 5.61078 14.5073 3.58246 12.0142 3.58246ZM12.0142 11.4032C10.1949 11.4032 8.71479 9.92315 8.71479 8.10384C8.71479 6.28454 10.1949 4.80445 12.0142 4.80445C13.8335 4.80445 15.3136 6.28454 15.3136 8.10384C15.3136 9.92315 13.8335 11.4032 12.0142 11.4032Z" fill="black"/>
</g>
<defs>
<clipPath id="clip0_32_2">
<rect width="24" height="24" fill="white"/>
</clipPath>
</defs>
</svg>
