<svg width="16" height="16" viewBox="0 0 16 16" fill="none" xmlns="http://www.w3.org/2000/svg">
<path fill-rule="evenodd" clip-rule="evenodd" d="M2.4445 4.07406H9.85201C10.0565 4.07406 10.2224 4.24073 10.2224 4.44444V5.55557H2.07412V4.44444C2.07412 4.24073 2.24005 4.07406 2.4445 4.07406ZM10.2224 11.852V10.3704H10.9631V11.852C10.9631 12.4646 10.4646 12.9631 9.85201 12.9631H2.4445C1.8319 12.9631 1.33337 12.4646 1.33337 11.852V4.44444C1.33337 3.83184 1.8319 3.33331 2.4445 3.33331H9.85201C10.4646 3.33331 10.9631 3.83184 10.9631 4.44444V7.40744H10.2224V6.29632H2.07412V11.852C2.07412 12.0557 2.24005 12.2223 2.4445 12.2223H9.85201C10.0565 12.2223 10.2224 12.0557 10.2224 11.852ZM14.5584 8.62709C14.7028 8.77154 14.7028 9.00636 14.5584 9.1508L12.3361 11.3731L11.8124 10.8493L13.4021 9.25969H7.62939V8.51894H13.4021L11.8124 6.92855L12.3361 6.40484L14.5584 8.62709Z" fill="#2B7ABC"/>
</svg>
