<svg width="24" height="24" viewBox="0 0 24 24" fill="none" xmlns="http://www.w3.org/2000/svg">
<path d="M9.56525 10.9038C9.83592 10.5718 10.184 10.2965 10.6095 10.078C11.0352 9.85933 11.4987 9.75 12 9.75C12.9 9.75 13.6667 10.0667 14.3 10.7C14.9333 11.3333 15.25 12.1 15.25 13C15.25 13.9 14.9333 14.6667 14.3 15.3C13.6667 15.9333 12.9 16.25 12 16.25C11.3743 16.25 10.8108 16.0904 10.3095 15.7712C9.80833 15.4519 9.41925 15.0346 9.14225 14.5192C9.06792 14.3744 8.95417 14.2744 8.801 14.2192C8.64783 14.1641 8.49558 14.1686 8.34425 14.2327C8.18275 14.2968 8.0725 14.4105 8.0135 14.574C7.9545 14.7375 7.96733 14.8917 8.052 15.0365C8.42633 15.7763 8.96417 16.3623 9.6655 16.7943C10.3667 17.2263 11.1448 17.4423 12 17.4423C13.223 17.4423 14.2692 17.0077 15.1385 16.1385C16.0077 15.2692 16.4423 14.223 16.4423 13C16.4423 11.777 16.0077 10.7308 15.1385 9.8615C14.2692 8.99233 13.223 8.55775 12 8.55775C11.3282 8.55775 10.7237 8.69367 10.1865 8.9655C9.64933 9.23717 9.18333 9.573 8.7885 9.973V8.94225C8.7885 8.77058 8.73208 8.62833 8.61925 8.5155C8.50642 8.40267 8.36408 8.34625 8.19225 8.34625C8.02058 8.34625 7.87833 8.40267 7.7655 8.5155C7.65267 8.62833 7.59625 8.77058 7.59625 8.94225V11.4135C7.59625 11.6045 7.66225 11.766 7.79425 11.898C7.92625 12.0302 8.08775 12.0963 8.27875 12.0963H10.75C10.9218 12.0963 11.0642 12.0398 11.177 11.927C11.2898 11.8142 11.3463 11.6718 11.3463 11.5C11.3463 11.3282 11.2898 11.1858 11.177 11.073C11.0642 10.9602 10.9218 10.9038 10.75 10.9038H9.56525ZM6.30775 21.5C5.80258 21.5 5.375 21.325 5.025 20.975C4.675 20.625 4.5 20.1974 4.5 19.6923V4.30775C4.5 3.80258 4.675 3.375 5.025 3.025C5.375 2.675 5.80258 2.5 6.30775 2.5H13.0402C13.2814 2.5 13.5132 2.54683 13.7355 2.6405C13.958 2.734 14.1512 2.86283 14.3152 3.027L18.973 7.68475C19.1372 7.84875 19.266 8.042 19.3595 8.2645C19.4532 8.48683 19.5 8.71858 19.5 8.95975V19.6923C19.5 20.1974 19.325 20.625 18.975 20.975C18.625 21.325 18.1974 21.5 17.6923 21.5H6.30775ZM6.30775 20H17.6923C17.7692 20 17.8398 19.9679 17.9038 19.9038C17.9679 19.8398 18 19.7693 18 19.6923V8.85L13.15 4H6.30775C6.23075 4 6.16025 4.03208 6.09625 4.09625C6.03208 4.16025 6 4.23075 6 4.30775V19.6923C6 19.7693 6.03208 19.8398 6.09625 19.9038C6.16025 19.9679 6.23075 20 6.30775 20Z" fill="#273540"/>
</svg>
