<svg width="18" height="20" viewBox="0 0 18 20" fill="none" xmlns="http://www.w3.org/2000/svg">
<path d="M9.0001 3.90374C8.4886 3.90374 8.05302 3.72399 7.69335 3.36449C7.33369 3.00482 7.15385 2.56924 7.15385 2.05774C7.15385 1.54624 7.33369 1.11065 7.69335 0.750986C8.05302 0.391319 8.4886 0.211487 9.0001 0.211487C9.5116 0.211487 9.94719 0.391319 10.3069 0.750986C10.6665 1.11065 10.8464 1.54624 10.8464 2.05774C10.8464 2.56924 10.6665 3.00482 10.3069 3.36449C9.94719 3.72399 9.5116 3.90374 9.0001 3.90374ZM6.4041 19V6.71149C5.5296 6.63849 4.66452 6.54365 3.80885 6.42699C2.95302 6.31032 2.1251 6.16032 1.3251 5.97699C1.10594 5.92315 0.928102 5.80324 0.791602 5.61724C0.654935 5.4314 0.618685 5.23207 0.682852 5.01924C0.747018 4.80007 0.880352 4.6414 1.08285 4.54324C1.28535 4.44524 1.50135 4.42315 1.73085 4.47699C2.90402 4.73332 4.09894 4.91982 5.3156 5.03649C6.53227 5.15315 7.76044 5.21149 9.0001 5.21149C10.2398 5.21149 11.4679 5.15315 12.6846 5.03649C13.9013 4.91982 15.0962 4.73332 16.2694 4.47699C16.4989 4.42315 16.7149 4.44524 16.9174 4.54324C17.1199 4.6414 17.2532 4.80007 17.3174 5.01924C17.3815 5.23207 17.3453 5.4314 17.2086 5.61724C17.0721 5.80324 16.8943 5.92315 16.6751 5.97699C15.8751 6.16032 15.0472 6.31032 14.1914 6.42699C13.3357 6.54365 12.4706 6.63849 11.5961 6.71149V19C11.5961 19.2128 11.5244 19.391 11.3809 19.5345C11.2372 19.6782 11.059 19.75 10.8464 19.75C10.6335 19.75 10.4553 19.6782 10.3116 19.5345C10.1681 19.391 10.0964 19.2128 10.0964 19V13.6345H7.90385V19C7.90385 19.2128 7.8321 19.391 7.6886 19.5345C7.54494 19.6782 7.36669 19.75 7.15385 19.75C6.94118 19.75 6.76302 19.6782 6.61935 19.5345C6.47585 19.391 6.4041 19.2128 6.4041 19Z" fill="#273540"/>
</svg>
