<svg width="24" height="24" viewBox="0 0 24 24" fill="none" xmlns="http://www.w3.org/2000/svg">
<path d="M7.6635 10.8172C6.78983 10.8172 6.04417 10.5084 5.4265 9.89073C4.80883 9.27323 4.5 8.52756 4.5 7.65373C4.5 6.78006 4.80883 6.03439 5.4265 5.41673C6.04417 4.79923 6.78983 4.49048 7.6635 4.49048C8.53717 4.49048 9.28283 4.79923 9.9005 5.41673C10.5182 6.03439 10.827 6.78006 10.827 7.65373C10.827 8.52756 10.5182 9.27323 9.9005 9.89073C9.28283 10.5084 8.53717 10.8172 7.6635 10.8172ZM7.663 9.31723C8.12483 9.31723 8.51758 9.15556 8.84125 8.83223C9.16508 8.50889 9.327 8.11631 9.327 7.65448C9.327 7.19248 9.16533 6.79964 8.842 6.47598C8.51867 6.15231 8.126 5.99048 7.664 5.99048C7.20217 5.99048 6.80933 6.15215 6.4855 6.47548C6.16183 6.79881 6 7.1914 6 7.65323C6 8.11523 6.16167 8.50806 6.485 8.83173C6.80833 9.1554 7.201 9.31723 7.663 9.31723ZM16.3462 19.5C15.4724 19.5 14.7268 19.1911 14.1093 18.5735C13.4916 17.9558 13.1827 17.2101 13.1827 16.3365C13.1827 15.4628 13.4916 14.7171 14.1093 14.0995C14.7268 13.4818 15.4724 13.173 16.3462 13.173C17.2199 13.173 17.9656 13.4818 18.5833 14.0995C19.2008 14.7171 19.5095 15.4628 19.5095 16.3365C19.5095 17.2101 19.2008 17.9558 18.5833 18.5735C17.9656 19.1911 17.2199 19.5 16.3462 19.5ZM16.3455 18C16.8075 18 17.2003 17.8383 17.524 17.515C17.8477 17.1916 18.0095 16.799 18.0095 16.337C18.0095 15.8751 17.8478 15.4824 17.5245 15.1587C17.2012 14.8349 16.8086 14.673 16.3468 14.673C15.8848 14.673 15.4919 14.8346 15.1683 15.158C14.8446 15.4813 14.6827 15.874 14.6827 16.336C14.6827 16.7978 14.8444 17.1906 15.1678 17.5145C15.4911 17.8381 15.8837 18 16.3455 18ZM5.123 18.877C4.98467 18.7385 4.9155 18.5639 4.9155 18.3532C4.9155 18.1426 4.98467 17.9691 5.123 17.8327L17.852 5.10398C17.9903 4.96548 18.1628 4.89781 18.3693 4.90098C18.5756 4.90414 18.748 4.97498 18.8865 5.11348C19.025 5.25198 19.0943 5.42656 19.0943 5.63723C19.0943 5.8479 19.025 6.0214 18.8865 6.15773L6.15775 18.8865C6.01925 19.025 5.84683 19.0926 5.6405 19.0895C5.434 19.0861 5.2615 19.0153 5.123 18.877Z" fill="#273540"/>
</svg>
