<svg width="24" height="24" viewBox="0 0 24 24" fill="none" xmlns="http://www.w3.org/2000/svg">
<path d="M4.43443 15.1463L3.26518 18.2172C3.20118 18.3866 3.10318 18.5177 2.97118 18.6105C2.83902 18.7035 2.68543 18.75 2.51043 18.75C2.2226 18.75 1.99668 18.6308 1.83268 18.3923C1.66852 18.1538 1.6371 17.8993 1.73843 17.6287L6.38843 5.76925C6.4461 5.61292 6.5436 5.48725 6.68093 5.39225C6.8181 5.29742 6.96677 5.25 7.12693 5.25H7.75543C7.92993 5.25 8.0826 5.29742 8.21343 5.39225C8.3441 5.48725 8.43827 5.61292 8.49593 5.76925L13.1519 17.6155C13.2531 17.8923 13.2196 18.1506 13.0514 18.3903C12.8833 18.6301 12.6559 18.75 12.3692 18.75C12.1948 18.75 12.0329 18.7004 11.8832 18.6012C11.7337 18.5021 11.6278 18.3658 11.5654 18.1923L10.4114 15.1463H4.43443ZM4.97693 13.65H9.86918L7.48918 7.35H7.37293L4.97693 13.65ZM18.1922 12.75H15.9422C15.7297 12.75 15.5516 12.6781 15.4079 12.5342C15.2641 12.3904 15.1922 12.2122 15.1922 11.9997C15.1922 11.7871 15.2641 11.609 15.4079 11.4655C15.5516 11.3218 15.7297 11.25 15.9422 11.25H18.1922V9C18.1922 8.7875 18.2641 8.60942 18.4079 8.46575C18.5518 8.32192 18.73 8.25 18.9427 8.25C19.1552 8.25 19.3333 8.32192 19.4769 8.46575C19.6204 8.60942 19.6922 8.7875 19.6922 9V11.25H21.9422C22.1547 11.25 22.3329 11.3219 22.4767 11.4658C22.6204 11.6096 22.6922 11.7878 22.6922 12.0003C22.6922 12.2129 22.6204 12.391 22.4767 12.5345C22.3329 12.6782 22.1547 12.75 21.9422 12.75H19.6922V15C19.6922 15.2125 19.6203 15.3906 19.4764 15.5343C19.3326 15.6781 19.1544 15.75 18.9419 15.75C18.7293 15.75 18.5512 15.6781 18.4077 15.5343C18.264 15.3906 18.1922 15.2125 18.1922 15V12.75Z" fill="#273540"/>
</svg>
