<svg width="24" height="24" viewBox="0 0 24 24" fill="none" xmlns="http://www.w3.org/2000/svg">
<path d="M18.2537 6.94136L17.0685 5.75617L12.0062 10.8185L6.93763 5.75L5.75244 6.93518L10.821 12.0037L5.7548 17.0699L6.93999 18.2551L12.0062 13.1889L17.0661 18.2489L18.2513 17.0637L13.1913 12.0037L18.2537 6.94136Z" fill="#2D3B45"/>
<path d="M18.2537 6.94136L17.0685 5.75617L12.0062 10.8185L6.93763 5.75L5.75244 6.93518L10.821 12.0037L5.7548 17.0699L6.93999 18.2551L12.0062 13.1889L17.0661 18.2489L18.2513 17.0637L13.1913 12.0037L18.2537 6.94136Z" fill="#2D3B45"/>
<path d="M18.2537 6.94136L17.0685 5.75617L12.0062 10.8185L6.93763 5.75L5.75244 6.93518L10.821 12.0037L5.7548 17.0699L6.93999 18.2551L12.0062 13.1889L17.0661 18.2489L18.2513 17.0637L13.1913 12.0037L18.2537 6.94136Z" fill="#2D3B45"/>
<path d="M18.2537 6.94136L17.0685 5.75617L12.0062 10.8185L6.93763 5.75L5.75244 6.93518L10.821 12.0037L5.7548 17.0699L6.93999 18.2551L12.0062 13.1889L17.0661 18.2489L18.2513 17.0637L13.1913 12.0037L18.2537 6.94136Z" fill="#2D3B45"/>
</svg>
