<svg xmlns="http://www.w3.org/2000/svg" viewBox="0 0 24 24"><g transform="matrix(0.010416666666666666 0 0 0.010416666666666666 2 2)"><path d="M1559.238 360.762c-330.46-330.46-868.016-330.46-1198.476 0-330.46 330.46-330.46 868.016 0 1198.476 330.46 330.46 868.016 330.46 1198.476 0 330.46-330.46 330.46-868.016 0-1198.476ZM280.863 1639.137c-374.484-374.484-374.484-983.79 0-1358.274 374.484-374.484 983.79-374.484 1358.274 0 374.484 374.484 374.484 983.79 0 1358.274-374.484 374.484-983.79 374.484-1358.274 0Zm359.543-599.239 263.106 263.106-.08-822.395h113.136l-.08 822.395 263.106-263.106 79.898 79.899L960 1519.289l-399.492-399.492 79.898-79.899Z" fill-rule="evenodd"/></g>
</svg>