<svg width="24" height="24" viewBox="0 0 24 24" fill="none" xmlns="http://www.w3.org/2000/svg">
<path d="M9.20975 20.5C8.96858 20.5 8.73683 20.4532 8.5145 20.3595C8.292 20.266 8.09875 20.1372 7.93475 19.973L4.027 16.0652C3.86283 15.9012 3.734 15.708 3.6405 15.4855C3.54683 15.2632 3.5 15.0314 3.5 14.7902V9.20975C3.5 8.96858 3.54683 8.73683 3.6405 8.5145C3.734 8.292 3.86283 8.09875 4.027 7.93475L7.93475 4.027C8.09875 3.86283 8.292 3.734 8.5145 3.6405C8.73683 3.54683 8.96858 3.5 9.20975 3.5H14.7902C15.0314 3.5 15.2632 3.54683 15.4855 3.6405C15.708 3.734 15.9012 3.86283 16.0652 4.027L19.973 7.93475C20.1372 8.09875 20.266 8.292 20.3595 8.5145C20.4532 8.73683 20.5 8.96858 20.5 9.20975V14.7902C20.5 15.0314 20.4532 15.2632 20.3595 15.4855C20.266 15.708 20.1372 15.9012 19.973 16.0652L16.0652 19.973C15.9012 20.1372 15.708 20.266 15.4855 20.3595C15.2632 20.4532 15.0314 20.5 14.7902 20.5H9.20975ZM9.1 19H14.9L19 14.9V9.1L14.9 5H9.1L5 9.1V14.9L9.1 19ZM12 13.0538L14.323 15.377C14.4615 15.5153 14.6356 15.5862 14.8453 15.5895C15.0548 15.5927 15.232 15.5218 15.377 15.377C15.5218 15.232 15.5943 15.0563 15.5943 14.85C15.5943 14.6437 15.5218 14.468 15.377 14.323L13.0538 12L15.377 9.677C15.5153 9.5385 15.5862 9.36442 15.5895 9.15475C15.5927 8.94525 15.5218 8.768 15.377 8.623C15.232 8.47817 15.0563 8.40575 14.85 8.40575C14.6437 8.40575 14.468 8.47817 14.323 8.623L12 10.9462L9.677 8.623C9.5385 8.48467 9.36442 8.41383 9.15475 8.4105C8.94525 8.40733 8.768 8.47817 8.623 8.623C8.47817 8.768 8.40575 8.94367 8.40575 9.15C8.40575 9.35633 8.47817 9.532 8.623 9.677L10.9463 12L8.623 14.323C8.48467 14.4615 8.41383 14.6356 8.4105 14.8453C8.40733 15.0548 8.47817 15.232 8.623 15.377C8.768 15.5218 8.94367 15.5942 9.15 15.5942C9.35633 15.5942 9.532 15.5218 9.677 15.377L12 13.0538Z" fill="#273540"/>
</svg>
