<svg width="64" height="64" viewBox="0 0 64 64" fill="none" xmlns="http://www.w3.org/2000/svg">
<path fill-rule="evenodd" clip-rule="evenodd" d="M23.0872 1.25764C25.9164 0.438836 28.9069 0 32 0C35.0931 0 38.0836 0.438836 40.9128 1.25764C40.3011 5.63284 36.5438 9 32 9C27.4562 9 23.6989 5.63284 23.0872 1.25764ZM47.4344 3.96146C52.7335 6.88469 57.1153 11.2665 60.0385 16.5656C56.5123 19.2252 51.4758 18.9489 48.2635 15.7365C45.0511 12.5242 44.7748 7.48768 47.4344 3.96146ZM62.7424 23.0872C63.5612 25.9164 64 28.9069 64 32C64 35.0931 63.5612 38.0836 62.7424 40.9128C58.3672 40.3011 55 36.5438 55 32C55 27.4562 58.3672 23.6989 62.7424 23.0872ZM60.0385 47.4344C57.1153 52.7335 52.7335 57.1153 47.4344 60.0385C44.7748 56.5123 45.0511 51.4758 48.2635 48.2635C51.4758 45.0511 56.5123 44.7748 60.0385 47.4344ZM40.9128 62.7424C38.0836 63.5612 35.0931 64 32 64C28.9069 64 25.9164 63.5612 23.0872 62.7424C23.6989 58.3672 27.4562 55 32 55C36.5438 55 40.3011 58.3672 40.9128 62.7424ZM16.5656 60.0385C11.2665 57.1153 6.88469 52.7335 3.96146 47.4344C7.48768 44.7748 12.5242 45.0511 15.7365 48.2635C18.9489 51.4758 19.2252 56.5123 16.5656 60.0385ZM1.25764 40.9128C0.438836 38.0836 0 35.0931 0 32C0 28.9069 0.438836 25.9164 1.25764 23.0872C5.63284 23.6989 9 27.4562 9 32C9 36.5438 5.63284 40.3011 1.25764 40.9128ZM3.96146 16.5656C6.88469 11.2665 11.2665 6.88469 16.5656 3.96146C19.2252 7.48768 18.9489 12.5242 15.7365 15.7365C12.5242 18.9489 7.48768 19.2252 3.96146 16.5656ZM32 18C30.3431 18 29 16.6569 29 15C29 13.3431 30.3431 12 32 12C33.6569 12 35 13.3431 35 15C35 16.6569 33.6569 18 32 18ZM41.8995 22.1005C40.7279 20.9289 40.7279 19.0294 41.8995 17.8579C43.0711 16.6863 44.9706 16.6863 46.1421 17.8579C47.3137 19.0294 47.3137 20.9289 46.1421 22.1005C44.9706 23.2721 43.0711 23.2721 41.8995 22.1005ZM46 32C46 30.3431 47.3431 29 49 29C50.6569 29 52 30.3431 52 32C52 33.6569 50.6569 35 49 35C47.3431 35 46 33.6569 46 32ZM41.8995 41.8995C43.0711 40.7279 44.9706 40.7279 46.1421 41.8995C47.3137 43.0711 47.3137 44.9706 46.1421 46.1421C44.9706 47.3137 43.0711 47.3137 41.8995 46.1421C40.7279 44.9706 40.7279 43.0711 41.8995 41.8995ZM32 46C33.6569 46 35 47.3431 35 49C35 50.6569 33.6569 52 32 52C30.3431 52 29 50.6569 29 49C29 47.3431 30.3431 46 32 46ZM22.1005 41.8995C23.2721 43.0711 23.2721 44.9706 22.1005 46.1421C20.9289 47.3137 19.0294 47.3137 17.8579 46.1421C16.6863 44.9706 16.6863 43.0711 17.8579 41.8995C19.0294 40.7279 20.9289 40.7279 22.1005 41.8995ZM18 32C18 33.6569 16.6569 35 15 35C13.3431 35 12 33.6569 12 32C12 30.3431 13.3431 29 15 29C16.6569 29 18 30.3431 18 32ZM22.1005 22.1005C20.9289 23.2721 19.0294 23.2721 17.8579 22.1005C16.6863 20.9289 16.6863 19.0294 17.8579 17.8579C19.0294 16.6863 20.9289 16.6863 22.1005 17.8579C23.2721 19.0294 23.2721 20.9289 22.1005 22.1005Z" fill="#B966D1"/>
</svg>
