
<svg version="1.1" xmlns="http://www.w3.org/2000/svg" viewBox="0 0 24 24">
 <g id="Guides">
  <line id="Baseline-S" x1="0" x2="24" y1="18" y2="18"/>
  <line id="Capline-S"  x1="0" x2="24" y1="6" y2="6"/>
  <line id="Baseline-M" x1="0" x2="24" y1="18" y2="18"/>
  <line id="Capline-M"  x1="0" x2="24" y1="6" y2="6"/>
  <line id="Baseline-L" x1="0" x2="24" y1="18" y2="18"/>
  <line id="Capline-L"  x1="0" x2="24" y1="6" y2="6"/>
  <line id="left-margin" x1="0" x2="0" y1="0" y2="24"/>
  <line id="right-margin"  x1="24" x2="24" y1="0" y2="24"/>
 </g>
 <g id="Symbols">
  <g id="Regular-M">
   <rect width="24" height="24" opacity="0" />
   <g transform="matrix(0.010416666666666666 0 0 0.010416666666666666 2 2)">
     <path d="M959.944 1260.706L1920 428.266v1189.54l-464.16-580.146-88.203 70.585 468.679 585.904H83.684l468.679-585.904-88.202-70.585L0 1617.805V428.265l959.944 832.441zM.045 226h1919.887v52.627l-959.943 832.44L.045 278.628V226z" stroke="none" stroke-width="1" fill-rule="evenodd"/>
   </g>
  </g>
 </g>
</svg>
