<?xml version="1.0" encoding="utf-8"?>
<!-- Generator: Adobe Illustrator 26.2.1, SVG Export Plug-In . SVG Version: 6.00 Build 0)  -->
<svg version="1.1" id="Layer_1" xmlns="http://www.w3.org/2000/svg" xmlns:xlink="http://www.w3.org/1999/xlink" x="0px" y="0px"
	 viewBox="0 0 24 24" style="enable-background:new 0 0 24 24;" xml:space="preserve">
<g>
	<path d="M4.7,13C4.7,13,4.7,13,4.7,13c-0.8,0-1.5,0.3-2.1,0.9c-0.6,0.6-0.9,1.3-0.9,2.1c0,1.6,1.3,2.9,2.9,2.9h0c0,0,0,0,0,0
		c1.6,0,2.9-1.3,2.9-2.9c0-0.8-0.3-1.5-0.9-2.1C6.2,13.3,5.4,13,4.7,13z M6.3,15.9c0,0.5-0.2,0.9-0.5,1.2c-0.3,0.3-0.7,0.5-1.2,0.5
		c0,0,0,0,0,0c-0.9,0-1.7-0.8-1.7-1.7c0-0.9,0.8-1.7,1.7-1.7c0,0,0,0,0,0c0.4,0,0.9,0.2,1.2,0.5C6.2,15,6.3,15.4,6.3,15.9z"/>
	<path d="M12,12.9C12,12.9,12,12.9,12,12.9c-0.3,0-0.6,0-0.9,0.1l-2-2.8c0.5-0.5,0.9-1.1,1-1.9c0.1-0.8-0.1-1.5-0.6-2.2
		c-0.5-0.6-1.2-1-2-1.1C6.7,5.1,6,5.3,5.4,5.8c-1.3,1-1.5,2.8-0.5,4.1C5.4,10.6,6.3,11,7.2,11c0,0,0,0,0,0c0.3,0,0.6,0,0.8-0.1
		l2,2.8c-0.6,0.6-1,1.3-1,2.2c0,0.8,0.3,1.5,0.9,2.1c0.6,0.6,1.3,0.9,2.1,0.9c0,0,0,0,0,0c0.8,0,1.5-0.3,2.1-0.9
		c0.6-0.6,0.9-1.3,0.9-2.1c0-0.8-0.3-1.5-0.9-2.1C13.6,13.3,12.8,13,12,12.9z M13.7,15.9c0,0.9-0.8,1.7-1.7,1.7
		c-0.9,0-1.7-0.8-1.7-1.7c0-0.9,0.8-1.7,1.7-1.7C12.9,14.2,13.7,15,13.7,15.9z M8.9,8.1c0,0.9-0.8,1.7-1.7,1.7
		C6.2,9.7,5.5,9,5.5,8.1c0-0.9,0.8-1.7,1.7-1.7c0,0,0,0,0,0C8.1,6.4,8.9,7.1,8.9,8.1z"/>
	<path d="M21.6,14c-0.5-0.6-1.3-1-2-1v0l-0.2,0c-0.3,0-0.7,0.1-1,0.2l-2-2.8c1.2-1,1.4-2.7,0.5-4c-1-1.3-2.8-1.5-4.1-0.6
		c-0.6,0.5-1,1.1-1.1,1.9c-0.1,0.8,0.1,1.5,0.5,2.1c0.7,0.9,1.9,1.4,3.1,1.1l2.1,2.9c-0.5,0.5-0.8,1.2-0.9,1.9
		c-0.1,0.8,0.2,1.5,0.7,2.1c0.6,0.7,1.4,1,2.2,1c0.7,0,1.4-0.2,1.9-0.7C22.5,17,22.6,15.2,21.6,14z M19.5,17.6h-0.1c0,0,0,0,0,0
		c-0.5,0-0.9-0.2-1.2-0.5c-0.3-0.3-0.5-0.7-0.5-1.2c0-0.5,0.2-0.9,0.5-1.2c0.3-0.3,0.7-0.5,1.2-0.5c0,0,0,0,0,0
		c0.9,0,1.7,0.8,1.7,1.7C21,16.8,20.3,17.5,19.5,17.6z M16.2,8.1c0,0.9-0.8,1.7-1.7,1.7c-0.9,0-1.7-0.8-1.7-1.7
		c0-0.9,0.8-1.7,1.7-1.7C15.5,6.4,16.2,7.1,16.2,8.1z"/>
</g>
</svg>
