<svg xmlns="http://www.w3.org/2000/svg" viewBox="0 0 24 24"><g transform="matrix(0.010416666666666666 0 0 0.010416666666666666 2 2)"><path d="M1468.214 0v551.145L840.27 1179.089c-31.623 31.623-49.693 74.54-49.693 119.715v395.289h395.288c45.176 0 88.093-18.07 119.716-49.694l162.633-162.633v438.206H0V0h1468.214Zm129.428 581.3c22.137-22.136 57.825-22.136 79.962 0l225.879 225.879c22.023 22.023 22.023 57.712 0 79.848l-677.638 677.637c-10.616 10.503-24.96 16.49-39.98 16.49H903.516v-282.35c0-15.02 5.986-29.364 16.49-39.867Zm-920.005 548.095H338.82v112.94h338.818v-112.94Zm225.88-225.879H338.818v112.94h564.697v-112.94Zm734.106-202.5-89.561 89.56 146.03 146.031 89.562-89.56-146.031-146.031Zm-508.228-362.197H338.82v338.818h790.576V338.82Z" fill-rule="evenodd"/></g>
</svg>