<svg width="20" height="19" viewBox="0 0 20 19" fill="none" xmlns="http://www.w3.org/2000/svg">
<path d="M8.95 11.0655L7.34225 9.45775C7.19358 9.30908 7.01958 9.23308 6.82025 9.22975C6.62092 9.22658 6.44367 9.30258 6.2885 9.45775C6.13333 9.61292 6.05575 9.79108 6.05575 9.99225C6.05575 10.1936 6.13333 10.3718 6.2885 10.527L8.31725 12.5712C8.49808 12.7519 8.709 12.8422 8.95 12.8422C9.191 12.8422 9.40192 12.7519 9.58275 12.5712L13.727 8.427C13.8757 8.27816 13.9516 8.1015 13.9547 7.897C13.9579 7.69267 13.882 7.51292 13.727 7.35775C13.5718 7.20258 13.3936 7.125 13.1922 7.125C12.9911 7.125 12.8129 7.20258 12.6577 7.35775L8.95 11.0655ZM10 18.5C8.8205 18.5 7.71542 18.2769 6.68475 17.8307C5.65392 17.3846 4.75516 16.7782 3.9885 16.0115C3.22183 15.2448 2.61541 14.3461 2.16925 13.3152C1.72308 12.2846 1.5 11.1795 1.5 10C1.5 8.8205 1.72308 7.71542 2.16925 6.68475C2.61541 5.65392 3.22183 4.75516 3.9885 3.9885C4.75516 3.22183 5.65392 2.61542 6.68475 2.16925C7.71542 1.72308 8.8205 1.5 10 1.5C11.1795 1.5 12.2846 1.72308 13.3152 2.16925C14.3461 2.61542 15.2448 3.22183 16.0115 3.9885C16.7782 4.75516 17.3846 5.65392 17.8307 6.68475C18.2769 7.71542 18.5 8.8205 18.5 10C18.5 11.1795 18.2769 12.2846 17.8307 13.3152C17.3846 14.3461 16.7782 15.2448 16.0115 16.0115C15.2448 16.7782 14.3461 17.3846 13.3152 17.8307C12.2846 18.2769 11.1795 18.5 10 18.5ZM0.415498 4.28075C0.270498 4.13591 0.197998 3.96025 0.197998 3.75375C0.197998 3.54742 0.270498 3.37183 0.415498 3.227L3.227 0.415498C3.3655 0.276998 3.5395 0.206165 3.749 0.202998C3.95866 0.199665 4.13591 0.270498 4.28075 0.415498C4.42558 0.560332 4.498 0.735915 4.498 0.942249C4.498 1.14875 4.42558 1.32442 4.28075 1.46925L1.46925 4.28075C1.33075 4.41925 1.15675 4.49008 0.947248 4.49325C0.737581 4.49641 0.560331 4.42558 0.415498 4.28075ZM19.5845 4.28075C19.4397 4.42558 19.2641 4.498 19.0577 4.498C18.8512 4.498 18.6756 4.42558 18.5307 4.28075L15.7192 1.46925C15.5807 1.33075 15.5099 1.15675 15.5067 0.947249C15.5036 0.737582 15.5744 0.560332 15.7192 0.415498C15.8641 0.270498 16.0397 0.197998 16.2462 0.197998C16.4526 0.197998 16.6282 0.270498 16.773 0.415498L19.5845 3.227C19.723 3.3655 19.7938 3.5395 19.797 3.749C19.8003 3.95867 19.7295 4.13591 19.5845 4.28075ZM10 17C11.9437 17 13.5962 16.3192 14.9577 14.9577C16.3192 13.5962 17 11.9437 17 10C17 8.05633 16.3192 6.40375 14.9577 5.04225C13.5962 3.68075 11.9437 3 10 3C8.05633 3 6.40375 3.68075 5.04225 5.04225C3.68075 6.40375 3 8.05633 3 10C3 11.9437 3.68075 13.5962 5.04225 14.9577C6.40375 16.3192 8.05633 17 10 17Z" fill="#273540"/>
</svg>
