<svg width="11" height="20" viewBox="0 0 11 20" fill="none" xmlns="http://www.w3.org/2000/svg">
<path d="M2.18449 9.99998L9.71724 17.5327C9.91591 17.7314 10.0127 17.9653 10.0077 18.2345C10.0026 18.5038 9.90066 18.7378 9.70199 18.9365C9.50316 19.1352 9.26916 19.2345 8.99999 19.2345C8.73082 19.2345 8.49682 19.1352 8.29799 18.9365L0.626988 11.2807C0.446155 11.0999 0.312155 10.8973 0.224989 10.673C0.137822 10.4487 0.0942383 10.2243 0.0942383 9.99998C0.0942383 9.77565 0.137822 9.55132 0.224989 9.32698C0.312155 9.10265 0.446155 8.90007 0.626988 8.71923L8.29799 1.04798C8.49682 0.849317 8.73341 0.752568 9.00774 0.757734C9.28207 0.762901 9.51857 0.864817 9.71724 1.06348C9.91591 1.26215 10.0152 1.49615 10.0152 1.76548C10.0152 2.03465 9.91591 2.26857 9.71724 2.46723L2.18449 9.99998Z" fill="#273540"/>
</svg>
