<svg width="24" height="24" viewBox="0 0 24 24" fill="none" xmlns="http://www.w3.org/2000/svg">
<path d="M12 19.923C11.5875 19.923 11.2344 19.7762 10.9408 19.4825C10.6469 19.1887 10.5 18.8355 10.5 18.423C10.5 18.0105 10.6469 17.6574 10.9408 17.3638C11.2344 17.0699 11.5875 16.923 12 16.923C12.4125 16.923 12.7656 17.0699 13.0592 17.3638C13.3531 17.6574 13.5 18.0105 13.5 18.423C13.5 18.8355 13.3531 19.1887 13.0592 19.4825C12.7656 19.7762 12.4125 19.923 12 19.923ZM11.9985 15.0193C11.6227 15.0193 11.3014 14.8856 11.0348 14.6183C10.7681 14.3508 10.6348 14.0294 10.6348 13.654V4.94228C10.6348 4.56678 10.7686 4.24536 11.0363 3.97803C11.3039 3.71069 11.6257 3.57703 12.0015 3.57703C12.3773 3.57703 12.6986 3.71069 12.9652 3.97803C13.2319 4.24536 13.3652 4.56678 13.3652 4.94228V13.654C13.3652 14.0294 13.2314 14.3508 12.9637 14.6183C12.6961 14.8856 12.3743 15.0193 11.9985 15.0193Z" fill="#273540"/>
</svg>
