<svg width="24" height="24" viewBox="0 0 24 24" fill="none" xmlns="http://www.w3.org/2000/svg">
<path d="M10.5499 18.2L15.7249 12H11.7249L12.4499 6.32501L7.82492 13H11.2999L10.5499 18.2ZM9.57692 14.5H6.53467C6.19867 14.5 5.9525 14.3513 5.79617 14.0538C5.63967 13.7564 5.65892 13.4699 5.85392 13.1943L12.4057 3.74251C12.5403 3.55401 12.7122 3.4251 12.9212 3.35576C13.13 3.2866 13.3473 3.29243 13.5729 3.37326C13.7986 3.45393 13.9637 3.59201 14.0682 3.78751C14.1727 3.98301 14.2114 4.1936 14.1844 4.41926L13.4327 10.5H17.1634C17.5198 10.5 17.771 10.6597 17.9172 10.979C18.0633 11.2982 18.0204 11.5956 17.7884 11.8713L10.5442 20.548C10.3993 20.7198 10.2224 20.8311 10.0134 20.8818C9.80442 20.9323 9.60059 20.912 9.40192 20.821C9.20325 20.73 9.04909 20.5909 8.93942 20.4038C8.82975 20.2166 8.78842 20.0102 8.81542 19.7845L9.57692 14.5Z" fill="#273540"/>
</svg>
