<svg xmlns="http://www.w3.org/2000/svg" viewBox="0 0 24 24"><g transform="matrix(0.010416666666666666 0 0 0.010416666666666666 2 2)"><g fill-rule="evenodd">
        <path d="M1439.667 1226.667H1333V1440c0 14.187 5.653 27.733 15.573 37.76l123.414 123.306 75.413-75.413-107.733-107.733v-191.253Z"/>
        <path d="M1386.333 1813.333C1180.467 1813.333 1013 1645.867 1013 1440c0-205.867 167.467-373.333 373.333-373.333 205.867 0 373.334 167.466 373.334 373.333 0 205.867-167.467 373.333-373.334 373.333m0-853.333c-264.64 0-480 215.36-480 480s215.36 480 480 480 480-215.36 480-480-215.36-480-480-480"/>
        <path d="M1546.333 426.667H159.666v-160c0-29.44 24-53.334 53.334-53.334h160v53.334c0 29.44 23.894 53.333 53.333 53.333 29.44 0 53.333-23.893 53.333-53.333v-53.334h746.667v53.334c0 29.44 23.894 53.333 53.334 53.333 29.44 0 53.333-23.893 53.333-53.333v-53.334h160c29.333 0 53.333 23.894 53.333 53.334v160Zm-53.333-320h-160V53.333C1333 23.893 1309.107 0 1279.667 0c-29.44 0-53.334 23.893-53.334 53.333v53.334H479.666V53.333C479.666 23.893 455.773 0 426.333 0 396.894 0 373 23.893 373 53.333v53.334H213c-88.213 0-160 71.786-160 160v1546.666h746.666v-106.666h-640V533.333h1386.667v320H1653V266.667c0-88.214-71.787-160-160-160Z"/>
    </g></g>
</svg>