<svg width="16" height="16" viewBox="0 0 16 16" fill="none" xmlns="http://www.w3.org/2000/svg">
<g clip-path="url(#clip0_2731_304071)">
<path fill-rule="evenodd" clip-rule="evenodd" d="M11.0535 10.498L14.6667 14.1077L14.1072 14.6671L10.4976 11.054C9.52536 11.8981 8.25698 12.4097 6.87123 12.4097C3.81727 12.4097 1.33333 9.92518 1.33333 6.87178C1.33333 3.81783 3.81727 1.33333 6.87123 1.33333C9.92518 1.33333 12.4091 3.81783 12.4091 6.87178C12.4091 8.25734 11.8976 9.52575 11.0535 10.498ZM2.12446 6.87178C2.12446 9.48906 4.25395 11.6185 6.87123 11.6185C9.4885 11.6185 11.618 9.48906 11.618 6.87178C11.618 4.25395 9.4885 2.12446 6.87123 2.12446C4.25395 2.12446 2.12446 4.25395 2.12446 6.87178Z" fill="#6A7883"/>
<path fill-rule="evenodd" clip-rule="evenodd" d="M3.13099 6.1851C3.08235 6.16695 3.03292 6.15038 2.98276 6.13545C2.91956 6.11665 2.8552 6.10046 2.78979 6.08701C2.77919 6.08483 2.76855 6.08272 2.7579 6.08068C2.74864 6.07891 2.7392 6.07717 2.72989 6.0755C2.64559 6.06048 2.64559 5.93952 2.72989 5.9245C2.7392 5.92283 2.74847 5.92112 2.75772 5.91935C2.76838 5.91731 2.77918 5.91517 2.78978 5.91299C2.85518 5.89954 2.91956 5.88335 2.98276 5.86454C3.03292 5.84962 3.08235 5.83305 3.13099 5.8149C3.22029 5.78156 3.30692 5.74289 3.3905 5.69926C3.4776 5.65379 3.56139 5.60295 3.64142 5.54714C3.86442 5.39167 4.05834 5.19775 4.21382 4.97475C4.26961 4.89472 4.32047 4.81094 4.36592 4.72384C4.40956 4.64026 4.44824 4.55363 4.48157 4.46433C4.49972 4.41569 4.51629 4.36626 4.53121 4.3161C4.55001 4.25289 4.5662 4.18853 4.57965 4.12313C4.58184 4.11248 4.58396 4.1018 4.586 4.0911C4.58776 4.08188 4.58951 4.07249 4.59116 4.06323C4.6062 3.97892 4.72714 3.97892 4.74218 4.06323C4.74383 4.07249 4.74553 4.08174 4.74729 4.09096C4.74933 4.10165 4.75148 4.11247 4.75367 4.12311C4.76712 4.18852 4.78332 4.25289 4.80212 4.3161C4.81704 4.36626 4.83361 4.41569 4.85177 4.46433C4.8851 4.55363 4.92376 4.64026 4.96739 4.72384C5.01286 4.81094 5.06372 4.89472 5.11952 4.97475C5.27499 5.19775 5.46891 5.39167 5.69192 5.54714C5.77195 5.60295 5.85573 5.65379 5.94282 5.69926C6.02641 5.74289 6.11305 5.78156 6.20235 5.8149C6.25098 5.83305 6.30041 5.84962 6.35057 5.86454C6.41377 5.88335 6.47814 5.89954 6.54354 5.91299C6.55412 5.91516 6.56473 5.91727 6.57536 5.9193C6.58462 5.92107 6.59414 5.92282 6.60343 5.9245C6.68775 5.93952 6.68775 6.06048 6.60343 6.0755C6.59414 6.07717 6.58486 6.07888 6.5756 6.08065C6.56498 6.08268 6.55413 6.08483 6.54356 6.087C6.47816 6.10045 6.41377 6.11665 6.35057 6.13545C6.30041 6.15038 6.25098 6.16695 6.20235 6.1851C6.11305 6.21843 6.02641 6.2571 5.94282 6.30073C5.85573 6.3462 5.77195 6.39704 5.69192 6.45286C5.46891 6.60833 5.27499 6.80225 5.11952 7.02524C5.06372 7.10529 5.01286 7.18907 4.96739 7.27616C4.92376 7.35974 4.8851 7.44637 4.85177 7.53567C4.83361 7.58431 4.81704 7.63374 4.80212 7.6839C4.78332 7.74711 4.76713 7.81148 4.75367 7.87688C4.75148 7.88752 4.74936 7.8982 4.74732 7.9089C4.74556 7.91812 4.74383 7.9275 4.74218 7.93676C4.72714 8.02108 4.6062 8.02108 4.59116 7.93676C4.58951 7.9275 4.58779 7.91826 4.58603 7.90903C4.58398 7.89833 4.58184 7.88752 4.57965 7.87688L4.53121 7.6839C4.51629 7.63374 4.49972 7.58431 4.48157 7.53567C4.44824 7.44637 4.40956 7.35974 4.36592 7.27616C4.32047 7.18907 4.26961 7.10529 4.21382 7.02524C4.05834 6.80225 3.86442 6.60833 3.64142 6.45286C3.56139 6.39704 3.4776 6.3462 3.3905 6.30073C3.30692 6.2571 3.22029 6.21843 3.13099 6.1851ZM3.57056 6C3.66442 6.04992 3.75497 6.10534 3.84164 6.16579C4.09851 6.34488 4.32184 6.56822 4.50092 6.82507C4.5613 6.91169 4.61672 7.00219 4.66666 7.0961C4.71661 7.0022 4.772 6.91174 4.83239 6.8251C5.01147 6.56825 5.23483 6.34488 5.4917 6.16579C5.57838 6.10533 5.66892 6.04992 5.76276 6C5.66892 5.95008 5.57844 5.89471 5.49176 5.83425C5.23489 5.65516 5.01148 5.43177 4.8324 5.17491C4.77201 5.08828 4.71661 4.9978 4.66666 4.9039C4.61671 4.99782 4.56132 5.08829 4.50093 5.17491C4.32185 5.43177 4.09851 5.65512 3.84164 5.83421C3.75496 5.89466 3.66442 5.95007 3.57056 6Z" fill="#6A7883"/>
<path fill-rule="evenodd" clip-rule="evenodd" d="M0.619101 13.5801C0.55425 13.5559 0.488343 13.5338 0.421464 13.5139C0.33719 13.4889 0.251371 13.4673 0.164171 13.4493C0.150037 13.4464 0.135844 13.4436 0.121638 13.4409C0.109302 13.4386 0.0967092 13.4362 0.0842947 13.434C-0.0280982 13.414 -0.0280982 13.2527 0.0842947 13.2327C0.0967092 13.2304 0.109072 13.2282 0.121408 13.2258C0.135614 13.2231 0.150015 13.2202 0.164149 13.2173C0.25135 13.1994 0.33719 13.1778 0.421464 13.1527C0.488343 13.1328 0.55425 13.1107 0.619101 13.0865C0.738163 13.0421 0.853668 12.9905 0.965108 12.9324C1.08125 12.8717 1.19296 12.8039 1.29966 12.7295C1.59701 12.5222 1.85557 12.2637 2.06287 11.9663C2.13726 11.8596 2.20507 11.7479 2.26568 11.6318C2.32386 11.5203 2.37542 11.4048 2.41986 11.2858C2.44407 11.2209 2.46616 11.155 2.48606 11.0881C2.51113 11.0039 2.53271 10.918 2.55064 10.8308C2.55356 10.8166 2.55639 10.8024 2.55911 10.7881C2.56146 10.7758 2.56379 10.7633 2.56598 10.751C2.58605 10.6386 2.74729 10.6386 2.76735 10.751C2.76955 10.7633 2.77182 10.7756 2.77416 10.7879C2.77689 10.8022 2.77975 10.8166 2.78267 10.8308C2.80061 10.918 2.8222 11.0039 2.84727 11.0881C2.86717 11.155 2.88926 11.2209 2.91347 11.2858C2.9579 11.4048 3.00946 11.5203 3.06764 11.6318C3.12826 11.7479 3.19608 11.8596 3.27047 11.9663C3.47777 12.2637 3.73633 12.5222 4.03367 12.7295C4.14038 12.8039 4.25209 12.8717 4.36821 12.9324C4.47966 12.9905 4.59517 13.0421 4.71424 13.0865C4.77909 13.1107 4.84499 13.1328 4.91187 13.1527C4.99614 13.1778 5.08197 13.1994 5.16917 13.2173C5.18327 13.2202 5.19742 13.223 5.21159 13.2257C5.22393 13.2281 5.23662 13.2304 5.24902 13.2327C5.36144 13.2527 5.36144 13.414 5.24902 13.434C5.23662 13.4362 5.22426 13.4385 5.21191 13.4409C5.19774 13.4436 5.18329 13.4464 5.16919 13.4493C5.08199 13.4673 4.99614 13.4889 4.91187 13.5139C4.84499 13.5338 4.77909 13.5559 4.71424 13.5801C4.59517 13.6246 4.47966 13.6761 4.36821 13.7343C4.25209 13.7949 4.14038 13.8627 4.03367 13.9371C3.73633 14.1444 3.47777 14.403 3.27047 14.7003C3.19608 14.807 3.12826 14.9188 3.06764 15.0349C3.00946 15.1463 2.9579 15.2618 2.91347 15.3809C2.88926 15.4457 2.86717 15.5117 2.84727 15.5785C2.8222 15.6628 2.80061 15.7486 2.78267 15.8358C2.77975 15.85 2.77693 15.8643 2.7742 15.8785C2.77185 15.8908 2.76955 15.9033 2.76735 15.9157C2.74729 16.0281 2.58605 16.0281 2.56598 15.9157C2.56379 15.9033 2.56149 15.891 2.55915 15.8787C2.55642 15.8644 2.55356 15.85 2.55064 15.8358L2.48606 15.5785C2.46616 15.5117 2.44407 15.4457 2.41987 15.3809C2.37542 15.2618 2.32386 15.1463 2.26568 15.0349C2.20507 14.9188 2.13726 14.807 2.06287 14.7003C1.85557 14.403 1.59701 14.1444 1.29966 13.9371C1.19296 13.8627 1.08125 13.7949 0.965108 13.7343C0.853668 13.6761 0.738163 13.6246 0.619101 13.5801ZM1.20519 13.3333C1.33034 13.3999 1.45106 13.4738 1.56663 13.5544C1.90912 13.7932 2.2069 14.091 2.44567 14.4334C2.52618 14.5489 2.60007 14.6696 2.66666 14.7948C2.73326 14.6696 2.80711 14.549 2.88763 14.4335C3.12641 14.091 3.42421 13.7932 3.76671 13.5544C3.88228 13.4738 4.00301 13.3999 4.12813 13.3333C4.00301 13.2668 3.88237 13.1929 3.76679 13.1123C3.4243 12.8736 3.12642 12.5757 2.88765 12.2332C2.80712 12.1177 2.73326 11.9971 2.66666 11.8719C2.60006 11.9971 2.5262 12.1177 2.44569 12.2332C2.20691 12.5757 1.90912 12.8735 1.56663 13.1123C1.45106 13.1929 1.33034 13.2668 1.20519 13.3333Z" fill="#6A7883"/>
<path fill-rule="evenodd" clip-rule="evenodd" d="M12.3096 2.79007C12.2771 2.77796 12.2442 2.76692 12.2107 2.75697C12.1686 2.74443 12.1257 2.73364 12.0821 2.72467C12.075 2.72322 12.0679 2.72181 12.0608 2.72045C12.0547 2.71928 12.0484 2.71811 12.0421 2.717C11.986 2.70698 11.986 2.62635 12.0421 2.61633C12.0484 2.61522 12.0545 2.61408 12.0607 2.6129C12.0678 2.61154 12.075 2.61011 12.0821 2.60866C12.1257 2.59969 12.1686 2.5889 12.2107 2.57636C12.2442 2.56641 12.2771 2.55537 12.3096 2.54326C12.3691 2.52104 12.4268 2.49526 12.4826 2.46618C12.5406 2.43586 12.5965 2.40197 12.6498 2.36476C12.7985 2.26111 12.9278 2.13183 13.0314 1.98317C13.0686 1.92981 13.1025 1.87396 13.1328 1.81589C13.1619 1.76017 13.1877 1.70242 13.2099 1.64289C13.222 1.61046 13.2331 1.5775 13.243 1.54406C13.2556 1.50193 13.2664 1.45902 13.2753 1.41542C13.2768 1.40832 13.2782 1.4012 13.2796 1.39407C13.2807 1.38792 13.2819 1.38166 13.283 1.37549C13.293 1.31928 13.3736 1.31928 13.3837 1.37549C13.3848 1.38166 13.3859 1.38782 13.3871 1.39397C13.3884 1.4011 13.3899 1.40831 13.3913 1.41541C13.4003 1.45901 13.4111 1.50193 13.4236 1.54407C13.4336 1.57751 13.4446 1.61046 13.4567 1.64289C13.479 1.70242 13.5047 1.76017 13.5338 1.81589C13.5641 1.87396 13.598 1.92981 13.6352 1.98317C13.7389 2.13183 13.8682 2.26111 14.0168 2.36476C14.0702 2.40197 14.126 2.43586 14.1841 2.46618C14.2398 2.49526 14.2976 2.52104 14.3571 2.54326C14.3895 2.55537 14.4225 2.56641 14.4559 2.57636C14.4981 2.5889 14.541 2.59969 14.5846 2.60866C14.5916 2.61011 14.5987 2.61151 14.6058 2.61287C14.612 2.61405 14.6183 2.61522 14.6245 2.61633C14.6807 2.62635 14.6807 2.70698 14.6245 2.717C14.6183 2.71811 14.6121 2.71925 14.606 2.72043C14.5989 2.72179 14.5916 2.72322 14.5846 2.72467C14.541 2.73364 14.4981 2.74443 14.4559 2.75697C14.4225 2.76692 14.3895 2.77796 14.3571 2.79007C14.2976 2.81229 14.2398 2.83807 14.1841 2.86715C14.126 2.89747 14.0702 2.93136 14.0168 2.96857C13.8682 3.07222 13.7389 3.2015 13.6352 3.35016C13.598 3.40352 13.5641 3.45938 13.5338 3.51744C13.5047 3.57316 13.479 3.63091 13.4567 3.69045C13.4446 3.72287 13.4336 3.75583 13.4236 3.78927C13.4111 3.83141 13.4003 3.87432 13.3913 3.91792C13.3899 3.92501 13.3885 3.93213 13.3871 3.93927C13.3859 3.94541 13.3848 3.95167 13.3837 3.95784C13.3736 4.01405 13.293 4.01405 13.283 3.95784C13.2819 3.95167 13.2807 3.9455 13.2796 3.93935C13.2782 3.93222 13.2768 3.92501 13.2753 3.91792L13.243 3.78927C13.2331 3.75583 13.222 3.72287 13.2099 3.69045C13.1877 3.63091 13.1619 3.57316 13.1328 3.51744C13.1025 3.45938 13.0686 3.40352 13.0314 3.35016C12.9278 3.2015 12.7985 3.07222 12.6498 2.96857C12.5965 2.93136 12.5406 2.89747 12.4826 2.86715C12.4268 2.83807 12.3691 2.81229 12.3096 2.79007ZM12.6026 2.66667C12.6652 2.69995 12.7255 2.73689 12.7833 2.77719C12.9546 2.89658 13.1035 3.04548 13.2228 3.21671C13.2631 3.27446 13.3 3.33479 13.3333 3.3974C13.3666 3.3348 13.4036 3.27449 13.4438 3.21673C13.5632 3.0455 13.7121 2.89658 13.8834 2.77719C13.9411 2.73689 14.0015 2.69995 14.0641 2.66667C14.0015 2.63338 13.9412 2.59647 13.8834 2.55617C13.7121 2.43678 13.5632 2.28785 13.4438 2.11661C13.4036 2.05885 13.3666 1.99854 13.3333 1.93593C13.3 1.99855 13.2631 2.05886 13.2228 2.11661C13.1035 2.28784 12.9546 2.43675 12.7833 2.55614C12.7255 2.59644 12.6652 2.63338 12.6026 2.66667Z" fill="#6A7883"/>
</g>
<defs>
<clipPath id="clip0_2731_304071">
<rect width="16" height="16" fill="white"/>
</clipPath>
</defs>
</svg>
