<svg width="16" height="16" viewBox="0 0 16 16" fill="none" xmlns="http://www.w3.org/2000/svg">
<g clip-path="url(#clip0_2731_304071)">
<path d="M8.98275 0.424523C8.25526 0.150173 7.46745 0 6.64531 0C2.98184 0 0 2.98184 0 6.64531C0 10.3088 2.98184 13.2906 6.64531 13.2906C8.30663 13.2906 9.82461 12.6735 10.9904 11.6616L15.3279 16L16 15.3279L11.6616 10.9904C12.6735 9.82461 13.2906 8.30663 13.2906 6.64531C13.2906 6.30336 13.2646 5.96735 13.2145 5.63915L12.3005 5.9616C12.3274 6.18579 12.3413 6.41396 12.3413 6.64531C12.3413 9.78664 9.78664 12.3413 6.64531 12.3413C3.50398 12.3413 0.949332 9.78664 0.949332 6.64531C0.949332 3.50398 3.50398 0.949331 6.64531 0.949331C7.34651 0.949331 8.01848 1.07662 8.63932 1.30931L8.98275 0.424523Z" fill="#6A7883"/>
<path d="M10.1067 0L11.2543 3.1013L14.3556 4.24889L11.2543 5.39647L10.1067 8.49778L8.95908 5.39647L5.85778 4.24889L8.95908 3.1013L10.1067 0Z" fill="#6A7883"/>
</g>
<defs>
<clipPath id="clip0_2731_304071">
<rect width="16" height="16" fill="white"/>
</clipPath>
</defs>
</svg>
