<svg width="178" height="59" viewBox="0 0 178 59" fill="none" xmlns="http://www.w3.org/2000/svg">
<path d="M0 20.4898C0 7.69842 9.57478 0 19.7714 0C29.9681 0 35.6615 5.86495 37.4413 12.7378L31.1797 14.8393C30.0217 10.0787 26.3655 6.25094 19.7714 6.25094C13.1774 6.25094 6.80849 10.9579 6.80849 20.4791C6.80849 30.0002 13.1238 34.5464 19.825 34.5464C26.5263 34.5464 30.1825 30.3326 31.5121 25.9044L37.6022 27.8987C35.833 34.5464 29.8501 40.9153 19.825 40.9153C9.25312 40.9153 0 33.2705 0 20.4791V20.4898Z" fill="white"/>
<path d="M52.5058 40.8078C44.5822 40.8078 39.4893 34.5462 39.4893 26.4617C39.4893 18.3773 44.6358 12.3408 52.3879 12.3408C57.1484 12.3408 59.5823 14.8283 60.3114 16.6618V13.1128H66.5731V35.1573C66.5731 37.3768 66.7983 39.5319 66.8519 40.0894H60.7082C60.6009 39.4783 60.4294 38.0415 60.4294 36.2081C59.2071 38.8135 56.3872 40.8078 52.5058 40.8078ZM53.2242 35.2753C57.4379 35.2753 60.3651 31.6726 60.3651 26.4725C60.3651 21.2723 57.4808 17.9484 53.2242 17.9484C48.9675 17.9484 45.9118 21.2723 45.9118 26.4725C45.9118 31.6726 48.7316 35.2753 53.2242 35.2753Z" fill="white"/>
<path d="M79.0963 40.0895H72.6738V13.1236H78.9355V16.7262C80.7046 13.6275 83.9212 12.3516 86.9127 12.3516C93.5067 12.3516 96.659 17.1121 96.659 23.0414V40.1002H90.2365V24.1565C90.2365 20.8327 88.7462 18.1736 84.6932 18.1736C81.037 18.1736 79.0963 20.9935 79.0963 24.5425V40.1002V40.0895Z" fill="white"/>
<path d="M115.562 40.0895H109.14L98.1709 13.1235H105.258L112.399 32.391L119.379 13.1235H126.134L115.562 40.0895Z" fill="white"/>
<path d="M139.15 40.8078C131.227 40.8078 126.134 34.5462 126.134 26.4617C126.134 18.3773 131.28 12.3408 139.032 12.3408C143.793 12.3408 146.227 14.8283 146.956 16.6618V13.1128H153.218V35.1573C153.218 37.3768 153.443 39.5319 153.496 40.0894H147.353C147.245 39.4783 147.074 38.0415 147.074 36.2081C145.852 38.8135 143.032 40.8078 139.15 40.8078ZM139.869 35.2753C144.082 35.2753 147.01 31.6726 147.01 26.4725C147.01 21.2723 144.125 17.9484 139.869 17.9484C135.612 17.9484 132.556 21.2723 132.556 26.4725C132.556 31.6726 135.376 35.2753 139.869 35.2753Z" fill="white"/>
<path d="M162.181 31.2334C162.407 33.6673 164.229 35.8332 167.66 35.8332C170.319 35.8332 171.703 34.3964 171.703 32.7345C171.703 31.2978 170.705 30.1827 168.55 29.7431L164.562 28.8532C159.801 27.8024 157.303 24.7037 157.303 20.9939C157.303 16.2869 161.624 12.2983 167.21 12.2983C174.737 12.2983 177.181 17.1769 177.621 19.8252L172.196 21.3799C171.971 19.8252 170.813 17.3377 167.21 17.3377C164.937 17.3377 163.329 18.7744 163.329 20.4364C163.329 21.8731 164.379 22.9239 166.041 23.2563L170.137 24.0926C175.23 25.1969 177.889 28.3063 177.889 32.2842C177.889 36.2621 174.565 40.9262 167.703 40.9262C159.898 40.9262 156.906 35.8332 156.574 32.7881L162.171 31.2334H162.181Z" fill="white"/>
<path d="M10.3107 49.4267C10.3107 50.167 10.1635 50.7909 9.86909 51.2983C9.57468 51.8057 9.17786 52.2147 8.67865 52.5251C8.17944 52.8355 7.60342 53.0624 6.9506 53.2057C6.29778 53.3489 5.61937 53.4206 4.91535 53.4206H3.2833V58.2025H0V45.5225H4.99215C5.73457 45.5225 6.42899 45.5911 7.07541 45.7284C7.72182 45.8657 8.28504 46.0866 8.76505 46.3911C9.24507 46.6955 9.62268 47.0955 9.89789 47.591C10.1731 48.0865 10.3107 48.6984 10.3107 49.4267ZM7.02741 49.4447C7.02741 49.1462 6.96341 48.9014 6.8354 48.7104C6.7074 48.5193 6.53459 48.3701 6.31698 48.2626C6.09938 48.1552 5.85297 48.0835 5.57776 48.0477C5.30255 48.0119 5.01774 47.994 4.72334 47.994H3.2833V50.9849H4.66573C4.97294 50.9849 5.26736 50.961 5.54896 50.9132C5.83057 50.8655 6.08338 50.7819 6.30738 50.6625C6.53139 50.5431 6.7074 50.3849 6.8354 50.1879C6.96341 49.9909 7.02741 49.7432 7.02741 49.4447ZM23.5527 58.2025L22.4966 55.713H17.2357L16.2373 58.2025H12.666L18.3685 45.5225H21.5558L27.2008 58.2025H23.5527ZM19.9046 48.9074L18.1765 53.2594H21.5942L19.9046 48.9074ZM38.8107 58.2025L35.873 53.1699H34.7594V58.2025H31.5337V45.5225H36.7179C37.3707 45.5225 38.0075 45.5852 38.6283 45.7105C39.2491 45.8359 39.8059 46.0478 40.2988 46.3463C40.7916 46.6448 41.1852 47.0388 41.4796 47.5284C41.774 48.0179 41.9212 48.6268 41.9212 49.3551C41.9212 50.2148 41.6716 50.9371 41.1724 51.5222C40.6732 52.1072 39.982 52.5251 39.0987 52.7758L42.6508 58.2025H38.8107ZM38.6763 49.4088C38.6763 49.1104 38.6091 48.8686 38.4747 48.6835C38.3403 48.4984 38.1675 48.3552 37.9563 48.2537C37.7451 48.1522 37.5083 48.0835 37.2459 48.0477C36.9835 48.0119 36.7307 47.994 36.4875 47.994H34.7402V50.9491H36.2954C36.5643 50.9491 36.8395 50.9282 37.1211 50.8864C37.4027 50.8446 37.6587 50.77 37.8891 50.6625C38.1195 50.5551 38.3083 50.3998 38.4555 50.1969C38.6027 49.9939 38.6763 49.7312 38.6763 49.4088ZM47.4638 58.2025V45.5225H56.6032V48.1194H50.6319V50.5013H56.2768V52.9549H50.6319V55.5877H56.9488V58.2025H47.4638ZM70.9589 58.2025L65.4867 49.9103H65.4291L65.5059 58.2025H62.3186V45.5225H66.0627L71.5157 53.7967H71.5733L71.4965 45.5225H74.6837V58.2025H70.9589ZM86.5049 48.1373V58.2025H83.2216V48.1373H79.3815V45.5225H90.345V48.1373H86.5049Z" fill="white"/>
</svg>
