<svg width="24" height="24" viewBox="0 0 24 24" fill="none" xmlns="http://www.w3.org/2000/svg">
<path d="M16.1845 18.3865L18.9193 15.652C19.0578 15.5135 19.2318 15.4427 19.4413 15.4395C19.6509 15.4362 19.8282 15.507 19.973 15.652C20.1178 15.7968 20.1903 15.9724 20.1903 16.1788C20.1903 16.3853 20.1178 16.5609 19.973 16.7057L16.827 19.852C16.6462 20.0327 16.4353 20.123 16.1943 20.123C15.9533 20.123 15.7423 20.0327 15.5615 19.852L14.2327 18.523C14.0942 18.3845 14.0266 18.2105 14.0297 18.001C14.0329 17.7913 14.1038 17.6173 14.2423 17.4788C14.3808 17.3404 14.5553 17.2712 14.766 17.2712C14.9767 17.2712 15.1502 17.3404 15.2865 17.4788L16.1845 18.3865ZM4.25 20.5C4.0375 20.5 3.85942 20.4281 3.71575 20.2843C3.57192 20.1404 3.5 19.9622 3.5 19.7498C3.5 19.5371 3.57192 19.359 3.71575 19.2155C3.85942 19.0718 4.0375 19 4.25 19H11.25C11.4625 19 11.6407 19.0719 11.7845 19.2158C11.9282 19.3596 12 19.5378 12 19.7502C12 19.9629 11.9282 20.141 11.7845 20.2845C11.6407 20.4282 11.4625 20.5 11.25 20.5H4.25ZM4.25 16.625C4.0375 16.625 3.85942 16.5531 3.71575 16.4093C3.57192 16.2654 3.5 16.0872 3.5 15.8748C3.5 15.6621 3.57192 15.484 3.71575 15.3405C3.85942 15.1968 4.0375 15.125 4.25 15.125H11.25C11.4625 15.125 11.6407 15.1969 11.7845 15.3408C11.9282 15.4846 12 15.6628 12 15.8753C12 16.0879 11.9282 16.266 11.7845 16.4095C11.6407 16.5532 11.4625 16.625 11.25 16.625H4.25ZM4.25 12.75C4.0375 12.75 3.85942 12.6781 3.71575 12.5343C3.57192 12.3904 3.5 12.2122 3.5 11.9998C3.5 11.7871 3.57192 11.609 3.71575 11.4655C3.85942 11.3218 4.0375 11.25 4.25 11.25H19.75C19.9625 11.25 20.1406 11.3219 20.2843 11.4658C20.4281 11.6096 20.5 11.7878 20.5 12.0003C20.5 12.2129 20.4281 12.391 20.2843 12.5345C20.1406 12.6782 19.9625 12.75 19.75 12.75H4.25ZM4.25 8.875C4.0375 8.875 3.85942 8.80308 3.71575 8.65925C3.57192 8.51542 3.5 8.33725 3.5 8.12475C3.5 7.91208 3.57192 7.734 3.71575 7.5905C3.85942 7.44683 4.0375 7.375 4.25 7.375H19.75C19.9625 7.375 20.1406 7.44692 20.2843 7.59075C20.4281 7.73458 20.5 7.91275 20.5 8.12525C20.5 8.33792 20.4281 8.516 20.2843 8.6595C20.1406 8.80317 19.9625 8.875 19.75 8.875H4.25ZM4.25 5C4.0375 5 3.85942 4.92808 3.71575 4.78425C3.57192 4.64042 3.5 4.46225 3.5 4.24975C3.5 4.03708 3.57192 3.859 3.71575 3.7155C3.85942 3.57183 4.0375 3.5 4.25 3.5H19.75C19.9625 3.5 20.1406 3.57192 20.2843 3.71575C20.4281 3.85958 20.5 4.03775 20.5 4.25025C20.5 4.46292 20.4281 4.641 20.2843 4.7845C20.1406 4.92817 19.9625 5 19.75 5H4.25Z" fill="#273540"/>
</svg>
