<svg width="20" height="13" viewBox="0 0 20 13" fill="none" xmlns="http://www.w3.org/2000/svg">
<path d="M15.0385 9.53849H12.802C12.5955 9.53849 12.423 9.46657 12.2845 9.32274C12.1462 9.17907 12.077 9.00099 12.077 8.78849C12.077 8.58199 12.1488 8.4054 12.2925 8.25874C12.4363 8.1119 12.6145 8.03849 12.827 8.03849H15.0385V5.82699C15.0385 5.61449 15.1104 5.43632 15.2542 5.29249C15.3981 5.14882 15.5763 5.07699 15.7887 5.07699C16.0014 5.07699 16.1795 5.14882 16.323 5.29249C16.4667 5.43632 16.5385 5.61449 16.5385 5.82699V8.03849H18.75C18.9625 8.03849 19.1406 8.1104 19.2843 8.25424C19.4281 8.39807 19.5 8.57624 19.5 8.78874C19.5 9.0014 19.4281 9.17949 19.2843 9.32299C19.1406 9.46665 18.9625 9.53849 18.75 9.53849H16.5385V11.75C16.5385 11.9625 16.4666 12.1406 16.3227 12.2842C16.1789 12.4281 16.0007 12.5 15.788 12.5C15.5755 12.5 15.3974 12.4281 15.2538 12.2842C15.1103 12.1406 15.0385 11.9625 15.0385 11.75V9.53849ZM8.05775 9.53849H5.0385C3.78283 9.53849 2.7125 9.09599 1.8275 8.21099C0.9425 7.32615 0.5 6.25599 0.5 5.00049C0.5 3.74499 0.9425 2.67465 1.8275 1.78949C2.7125 0.904153 3.78283 0.461487 5.0385 0.461487H8.05775C8.26408 0.461487 8.44067 0.534903 8.5875 0.681737C8.73433 0.82857 8.80775 1.00674 8.80775 1.21624C8.80775 1.4259 8.73433 1.60257 8.5875 1.74624C8.44067 1.88974 8.26408 1.96149 8.05775 1.96149H5.03725C4.19825 1.96149 3.48233 2.25799 2.8895 2.85099C2.2965 3.44399 2 4.16032 2 4.99999C2 5.83965 2.2965 6.55599 2.8895 7.14899C3.48233 7.74199 4.19825 8.03849 5.03725 8.03849H8.05775C8.26408 8.03849 8.44067 8.1119 8.5875 8.25874C8.73433 8.4054 8.80775 8.58357 8.80775 8.79324C8.80775 9.0029 8.73433 9.17949 8.5875 9.32299C8.44067 9.46665 8.26408 9.53849 8.05775 9.53849ZM7 5.74999C6.7875 5.74999 6.60942 5.67807 6.46575 5.53424C6.32192 5.3904 6.25 5.21224 6.25 4.99974C6.25 4.78707 6.32192 4.60899 6.46575 4.46549C6.60942 4.32182 6.7875 4.24999 7 4.24999H13C13.2125 4.24999 13.3906 4.3219 13.5343 4.46574C13.6781 4.60957 13.75 4.78774 13.75 5.00024C13.75 5.2129 13.6781 5.39099 13.5343 5.53449C13.3906 5.67815 13.2125 5.74999 13 5.74999H7ZM19.5 4.99999H18C18 4.16032 17.7035 3.44399 17.1105 2.85099C16.5177 2.25799 15.8018 1.96149 14.9628 1.96149H11.9173C11.7109 1.96149 11.5385 1.88965 11.4 1.74599C11.2615 1.60215 11.1923 1.42399 11.1923 1.21149C11.1923 1.00515 11.2642 0.82857 11.408 0.681737C11.5517 0.534903 11.7298 0.461487 11.9423 0.461487H14.9615C16.2172 0.461487 17.2875 0.903986 18.1725 1.78899C19.0575 2.67399 19.5 3.74432 19.5 4.99999Z" fill="#273540"/>
</svg>
