<svg width="16" height="16" viewBox="0 0 16 16" fill="none" xmlns="http://www.w3.org/2000/svg">
<path d="M7.25001 3.37301L2.08076 8.54226C1.93209 8.69093 1.75809 8.76435 1.55876 8.76251C1.35942 8.76051 1.18217 8.68201 1.02701 8.52701C0.882174 8.37185 0.807174 8.19618 0.802008 8.00001C0.796841 7.80385 0.871841 7.62818 1.02701 7.47301L7.36726 1.13276C7.46092 1.0391 7.55967 0.973097 7.66351 0.934764C7.76734 0.896264 7.87951 0.877014 8.00001 0.877014C8.12051 0.877014 8.23267 0.896264 8.33651 0.934764C8.44034 0.973097 8.53909 1.0391 8.63276 1.13276L14.973 7.47301C15.1115 7.61151 15.1823 7.78301 15.1855 7.98751C15.1887 8.19201 15.1178 8.37185 14.973 8.52701C14.8178 8.68201 14.6397 8.75951 14.4385 8.75951C14.2372 8.75951 14.0589 8.68201 13.9038 8.52701L8.75001 3.37301V14.75C8.75001 14.9628 8.67817 15.141 8.53451 15.2845C8.39101 15.4282 8.21284 15.5 8.00001 15.5C7.78717 15.5 7.60901 15.4282 7.46551 15.2845C7.32184 15.141 7.25001 14.9628 7.25001 14.75V3.37301Z" fill="#273540"/>
</svg>
