<svg width="24" height="24" viewBox="0 0 24 24" fill="none" xmlns="http://www.w3.org/2000/svg">
<path d="M5 19H7.4615C7.674 19 7.85217 19.0719 7.996 19.2158C8.13967 19.3596 8.2115 19.5378 8.2115 19.7502C8.2115 19.9629 8.13967 20.141 7.996 20.2845C7.85217 20.4282 7.674 20.5 7.4615 20.5H4.404C4.14783 20.5 3.93317 20.4133 3.76 20.24C3.58667 20.0668 3.5 19.8522 3.5 19.596V16.5385C3.5 16.326 3.57192 16.1478 3.71575 16.004C3.85958 15.8603 4.03775 15.7885 4.25025 15.7885C4.46292 15.7885 4.641 15.8603 4.7845 16.004C4.92817 16.1478 5 16.326 5 16.5385V19ZM19.0095 19V16.5385C19.0095 16.326 19.0814 16.1478 19.2253 16.004C19.3691 15.8603 19.5473 15.7885 19.76 15.7885C19.9725 15.7885 20.1506 15.8603 20.2943 16.004C20.4377 16.1478 20.5095 16.326 20.5095 16.5385V19.596C20.5095 19.8522 20.4229 20.0668 20.2498 20.24C20.0764 20.4133 19.8617 20.5 19.6057 20.5H16.548C16.3355 20.5 16.1574 20.4281 16.0138 20.2843C15.8699 20.1404 15.798 19.9622 15.798 19.7498C15.798 19.5371 15.8699 19.359 16.0138 19.2155C16.1574 19.0718 16.3355 19 16.548 19H19.0095ZM5 5V7.4615C5 7.674 4.92808 7.85217 4.78425 7.996C4.64042 8.13967 4.46225 8.2115 4.24975 8.2115C4.03708 8.2115 3.859 8.13967 3.7155 7.996C3.57183 7.85217 3.5 7.674 3.5 7.4615V4.404C3.5 4.14783 3.58667 3.93317 3.76 3.76C3.93317 3.58667 4.14783 3.5 4.404 3.5H7.4615C7.674 3.5 7.85217 3.57192 7.996 3.71575C8.13967 3.85958 8.2115 4.03775 8.2115 4.25025C8.2115 4.46292 8.13967 4.641 7.996 4.7845C7.85217 4.92817 7.674 5 7.4615 5H5ZM19.0095 5H16.548C16.3355 5 16.1574 4.92808 16.0138 4.78425C15.8699 4.64042 15.798 4.46225 15.798 4.24975C15.798 4.03708 15.8699 3.859 16.0138 3.7155C16.1574 3.57183 16.3355 3.5 16.548 3.5H19.6057C19.8617 3.5 20.0764 3.58667 20.2498 3.76C20.4229 3.93317 20.5095 4.14783 20.5095 4.404V7.4615C20.5095 7.674 20.4376 7.85217 20.2938 7.996C20.1501 8.13967 19.9719 8.2115 19.7593 8.2115C19.5466 8.2115 19.3685 8.13967 19.225 7.996C19.0813 7.85217 19.0095 7.674 19.0095 7.4615V5Z" fill="#273540"/>
</svg>
