<svg width="16" height="12" viewBox="0 0 16 12" fill="none" xmlns="http://www.w3.org/2000/svg">
<path d="M3.18642 6.75L6.47867 10.0422C6.6275 10.1911 6.70092 10.3652 6.69892 10.5645C6.69708 10.7638 6.62367 10.9411 6.47867 11.0962C6.32367 11.2512 6.1455 11.3313 5.94417 11.3365C5.74283 11.3417 5.56467 11.2667 5.40967 11.1115L0.930668 6.63275C0.750001 6.45191 0.659668 6.241 0.659668 6C0.659668 5.759 0.750001 5.54808 0.930668 5.36725L5.40967 0.888496C5.55834 0.73983 5.73492 0.666413 5.93942 0.668246C6.14392 0.670246 6.32367 0.748747 6.47867 0.903747C6.62367 1.05891 6.69867 1.23458 6.70367 1.43075C6.70883 1.62691 6.63383 1.80258 6.47867 1.95775L3.18642 5.25H14.9519C15.1648 5.25 15.3429 5.32183 15.4864 5.4655C15.6301 5.609 15.7019 5.78716 15.7019 6C15.7019 6.21283 15.6301 6.391 15.4864 6.5345C15.3429 6.67816 15.1648 6.75 14.9519 6.75H3.18642Z" fill="#273540"/>
</svg>
