<svg xmlns="http://www.w3.org/2000/svg" viewBox="0 0 24 24"><g transform="matrix(0.010416666666666666 0 0 0.010416666666666666 2 2)"><path d="M960 1277.853c-175.297 0-317.951-142.654-317.951-317.951 0-175.297 142.654-317.951 317.951-317.951 175.297 0 317.951 142.654 317.951 317.951 0 175.297-142.654 317.95-317.951 317.95Zm948.342-341.585C1720.645 558.648 1357.332 324 960 324c-397.333 0-760.645 234.648-948.342 612.268L0 959.902l11.658 23.634c187.697 377.62 551.01 612.268 948.342 612.268 397.333 0 760.645-234.648 948.342-612.268L1920 959.902l-11.658-23.634Z" fill-rule="evenodd"/></g>
</svg>