<svg width="24" height="24" viewBox="0 0 24 24" fill="none" xmlns="http://www.w3.org/2000/svg">
<path d="M12 17.4615L8.03075 19.1652C7.42825 19.4229 6.85583 19.3743 6.3135 19.0195C5.77117 18.6647 5.5 18.1627 5.5 17.5135V5.30775C5.5 4.80258 5.675 4.375 6.025 4.025C6.375 3.675 6.80258 3.5 7.30775 3.5H12.25C12.4625 3.5 12.6407 3.57192 12.7845 3.71575C12.9282 3.85958 13 4.03775 13 4.25025C13 4.46292 12.9282 4.641 12.7845 4.7845C12.6407 4.92817 12.4625 5 12.25 5H7.30775C7.23075 5 7.16025 5.03208 7.09625 5.09625C7.03208 5.16025 7 5.23075 7 5.30775V17.4788C7 17.5878 7.0465 17.6743 7.1395 17.7385C7.23233 17.8025 7.33008 17.8121 7.43275 17.7673L12 15.8L16.5673 17.7673C16.6699 17.8121 16.7677 17.8025 16.8605 17.7385C16.9535 17.6743 17 17.5878 17 17.4788V11.75C17 11.5375 17.0719 11.3593 17.2158 11.2155C17.3596 11.0718 17.5378 11 17.7503 11C17.9629 11 18.141 11.0718 18.2845 11.2155C18.4282 11.3593 18.5 11.5375 18.5 11.75V17.5135C18.5 18.1627 18.2288 18.6647 17.6865 19.0195C17.1442 19.3743 16.5718 19.4229 15.9693 19.1652L12 17.4615ZM12 5H7H13H12ZM17 7H15.75C15.5375 7 15.3593 6.92808 15.2155 6.78425C15.0718 6.64042 15 6.46225 15 6.24975C15 6.03708 15.0718 5.859 15.2155 5.7155C15.3593 5.57183 15.5375 5.5 15.75 5.5H17V4.25C17 4.0375 17.0719 3.85942 17.2158 3.71575C17.3596 3.57192 17.5378 3.5 17.7503 3.5C17.9629 3.5 18.141 3.57192 18.2845 3.71575C18.4282 3.85942 18.5 4.0375 18.5 4.25V5.5H19.75C19.9625 5.5 20.1406 5.57192 20.2843 5.71575C20.4281 5.85958 20.5 6.03775 20.5 6.25025C20.5 6.46292 20.4281 6.641 20.2843 6.7845C20.1406 6.92817 19.9625 7 19.75 7H18.5V8.25C18.5 8.4625 18.4281 8.64067 18.2843 8.7845C18.1404 8.92817 17.9622 9 17.7498 9C17.5371 9 17.359 8.92817 17.2155 8.7845C17.0718 8.64067 17 8.4625 17 8.25V7Z" fill="#273540"/>
</svg>
