<svg xmlns="http://www.w3.org/2000/svg" viewBox="0 0 24 24"><g transform="matrix(0.010416666666666666 0 0 0.010416666666666666 2 2)"><g fill-rule="evenodd">
        <path d="M1185.46.034V564.74h564.705v1355.294H168.99V.034h1016.47ZM900.508 677.68c-16.829 0-31.963 7.567-42.918 21.007-49.807 59.972-31.398 193.016-18.748 272.075 2.823 17.958.452 36.141-7.228 52.518l-107.86 233.223c-7.905 16.942-20.555 30.608-36.592 39.53-68.104 37.835-182.287 89.675-196.066 182.626-4.97 30.268 5.082 56.357 28.574 79.85 15.925 15.133 35.238 22.7 56.245 22.7 81.43 0 132.819-71.717 188.273-148.517 24.62-34.221 61.666-55.229 102.437-60.876 76.349-10.503 167.83-32.527 223.172-46.983 27.897-7.341 56.358-5.534 83.802 3.162 48.565 15.586 66.975 25.073 122.768 25.073 50.371 0 84.818-11.746 101.534-34.447 13.44-16.828 16.715-39.53 10.164-65.619-11.858-42.804-2.033-89.675-133.044-89.675-29.365 0-57.94 2.824-81.77 6.099-36.819 4.97-73.299-10.955-97.016-40.885-32.301-40.546-65.167-88.433-87.981-123.219-16.151-24.508-21.572-53.986-16.264-83.124 15.473-84.706 18.41-147.615-23.492-206.683-17.619-25.186-41.223-37.835-67.99-37.835Zm397.903-660.808 434.936 434.937h-434.936V16.873Z"/>
        <path d="M791.057 1297.943c92.273-43.37 275.916-65.28 275.916-65.28-92.386-88.998-145.92-215.04-145.92-215.04-43.257 126.607-119.718 264.282-129.996 280.32"/>
    </g></g>
</svg>