<svg width="24" height="24" viewBox="0 0 24 24" fill="none" xmlns="http://www.w3.org/2000/svg">
<path d="M14.0999 19.5462L19.2421 14.4038C19.3806 14.2654 19.5547 14.1946 19.7644 14.1912C19.9739 14.1881 20.1511 14.2589 20.2961 14.4038C20.441 14.5487 20.5134 14.7244 20.5134 14.9308C20.5134 15.1371 20.441 15.3127 20.2961 15.4578L15.3806 20.373C15.1998 20.5538 14.9972 20.6878 14.7729 20.775C14.5485 20.8622 14.3242 20.9058 14.0999 20.9058C13.8755 20.9058 13.6512 20.8622 13.4269 20.775C13.2025 20.6878 13 20.5538 12.8191 20.373L10.7229 18.277C10.5845 18.1385 10.5137 17.9644 10.5104 17.7548C10.5072 17.5452 10.578 17.368 10.7229 17.223C10.8679 17.0782 11.0435 17.0057 11.2499 17.0057C11.4562 17.0057 11.6319 17.0782 11.7769 17.223L14.0999 19.5462ZM6.27288 12.45L5.19413 15.498C5.12996 15.6532 5.03696 15.7757 4.91513 15.8655C4.79346 15.9552 4.64988 16 4.48438 16C4.20755 16 3.99638 15.8885 3.85088 15.6655C3.70538 15.4423 3.68005 15.2058 3.77488 14.9558L7.97888 3.53275C8.04288 3.36725 8.14346 3.23708 8.28063 3.14225C8.4178 3.04742 8.57421 3 8.74988 3H9.33838C9.51405 3 9.67046 3.04742 9.80763 3.14225C9.9448 3.23708 10.0454 3.36725 10.1094 3.53275L14.2941 14.9308C14.389 15.1974 14.3595 15.4423 14.2056 15.6655C14.0518 15.8885 13.8313 16 13.5441 16C13.3685 16 13.2114 15.951 13.0729 15.853C12.9345 15.7548 12.8333 15.6231 12.7691 15.4578L11.7346 12.45H6.27288ZM6.79988 11.05H11.2576L9.04988 4.8615H8.96913L6.79988 11.05Z" fill="#273540"/>
</svg>
