<svg width="28" height="28" viewBox="0 0 28 28" fill="none" xmlns="http://www.w3.org/2000/svg">
<path opacity="0.6" fill-rule="evenodd" clip-rule="evenodd" d="M12.6236 12.0523C12.6236 11.2824 13.2404 10.6575 14.0003 10.6575C14.7602 10.6575 15.377 11.2824 15.377 12.0523C15.377 12.8222 14.7602 13.4471 14.0003 13.4471C13.2404 13.4471 12.6236 12.8222 12.6236 12.0523ZM16.7536 12.0523C16.7536 10.5139 15.5188 9.26276 14.0003 9.26276C12.4818 9.26276 11.2469 10.5139 11.2469 12.0523C11.2469 13.5908 12.4818 14.8419 14.0003 14.8419C15.5188 14.8419 16.7536 13.5908 16.7536 12.0523Z" fill="#2D3B45"/>
<path fill-rule="evenodd" clip-rule="evenodd" d="M14.0007 2L2.5 13.652L3.47468 14.6367L14.0007 3.97222L24.5267 14.6367L25.5 13.652L14.0007 2ZM21.5722 14.8418V24.6052H17.4408V17.6313H10.5589V24.6052H6.42887V14.8418H5.05083V26H10.5589H17.4408H22.9489V14.8418H21.5722ZM11.9355 24.6066V19.0261H16.0656V24.6066H11.9355Z" fill="#2D3B45"/>
</svg>
