<svg width="24" height="24" viewBox="0 0 24 24" fill="none" xmlns="http://www.w3.org/2000/svg">
<path d="M12 14.6615C11.8795 14.6615 11.7673 14.6422 11.6635 14.6037C11.5596 14.5654 11.4609 14.4994 11.3672 14.4057L6.87298 9.91148C6.73465 9.77298 6.66131 9.60148 6.65298 9.39698C6.64465 9.19264 6.71798 9.01289 6.87298 8.85773C7.01798 8.71289 7.19365 8.64048 7.39998 8.64048C7.60631 8.64048 7.78198 8.71289 7.92698 8.85773L12 12.9155L16.073 8.85773C16.2115 8.71923 16.383 8.64581 16.5875 8.63748C16.792 8.62914 16.9718 8.70256 17.127 8.85773C17.2718 9.00256 17.3442 9.17814 17.3442 9.38448C17.3442 9.59098 17.2718 9.76665 17.127 9.91148L12.6327 14.4057C12.5391 14.4994 12.4403 14.5654 12.3365 14.6037C12.2326 14.6422 12.1205 14.6615 12 14.6615Z" fill="#273540"/>
</svg>
