<svg width="24" height="24" viewBox="0 0 24 24" fill="none" xmlns="http://www.w3.org/2000/svg">
<path d="M8.877 20.5H5C4.58467 20.5 4.23083 20.3538 3.9385 20.0615C3.64617 19.7692 3.5 19.4153 3.5 19V15.123C4.18467 15.0397 4.7725 14.7551 5.2635 14.2692C5.7545 13.7832 6 13.1935 6 12.5C6 11.8065 5.7545 11.2167 5.2635 10.7307C4.7725 10.2449 4.18467 9.96032 3.5 9.87699V5.99999C3.5 5.58466 3.64617 5.23082 3.9385 4.93849C4.23083 4.64616 4.58467 4.49999 5 4.49999H9C9.08983 3.86416 9.36833 3.33982 9.8355 2.92699C10.3028 2.51416 10.8577 2.30774 11.5 2.30774C12.1423 2.30774 12.6972 2.51416 13.1645 2.92699C13.6317 3.33982 13.9102 3.86416 14 4.49999H18C18.4153 4.49999 18.7692 4.64616 19.0615 4.93849C19.3538 5.23082 19.5 5.58466 19.5 5.99999V9.99999C20.1358 10.0898 20.6602 10.3683 21.073 10.8355C21.4858 11.3028 21.6923 11.8577 21.6923 12.5C21.6923 13.1423 21.4858 13.6972 21.073 14.1645C20.6602 14.6317 20.1358 14.9102 19.5 15V19C19.5 19.4153 19.3538 19.7692 19.0615 20.0615C18.7692 20.3538 18.4153 20.5 18 20.5H14.123C14.0333 19.782 13.7404 19.1858 13.2443 18.7115C12.7481 18.2372 12.1667 18 11.5 18C10.8333 18 10.2519 18.2372 9.75575 18.7115C9.25958 19.1858 8.96667 19.782 8.877 20.5ZM5 19H7.7115C8.05383 18.118 8.59458 17.4808 9.33375 17.0885C10.0728 16.6962 10.7948 16.5 11.5 16.5C12.2052 16.5 12.9273 16.6962 13.6663 17.0885C14.4054 17.4808 14.9462 18.118 15.2885 19H18V13.5577H19.2308C19.5371 13.5192 19.7739 13.3955 19.9413 13.1865C20.1086 12.9775 20.1923 12.7487 20.1923 12.5C20.1923 12.2513 20.1086 12.0225 19.9413 11.8135C19.7739 11.6045 19.5371 11.4807 19.2308 11.4422H18V5.99999H12.5578V4.76924C12.5193 4.46291 12.3955 4.22607 12.1865 4.05874C11.9775 3.89141 11.7487 3.80774 11.5 3.80774C11.2513 3.80774 11.0225 3.89141 10.8135 4.05874C10.6045 4.22607 10.4808 4.46291 10.4423 4.76924V5.99999H5V8.73849C5.759 9.05266 6.36542 9.55166 6.81925 10.2355C7.27308 10.9195 7.5 11.6743 7.5 12.5C7.5 13.3153 7.27308 14.065 6.81925 14.749C6.36542 15.433 5.759 15.9372 5 16.2615V19Z" fill="#273540"/>
</svg>
