<svg width="24" height="24" viewBox="0 0 24 24" fill="none" xmlns="http://www.w3.org/2000/svg">
<path d="M6 18.7692C5.78717 18.7692 5.609 18.6974 5.4655 18.5537C5.32183 18.4102 5.25 18.232 5.25 18.0192C5.25 17.8064 5.32183 17.6282 5.4655 17.4847C5.609 17.341 5.78717 17.2692 6 17.2692H18C18.2128 17.2692 18.391 17.341 18.5345 17.4847C18.6782 17.6282 18.75 17.8064 18.75 18.0192C18.75 18.232 18.6782 18.4102 18.5345 18.5537C18.391 18.6974 18.2128 18.7692 18 18.7692H6ZM7.6 13.9635L11.0923 4.67696C11.1461 4.53846 11.2313 4.42946 11.348 4.34996C11.4647 4.27046 11.5974 4.23071 11.7463 4.23071H12.273C12.4218 4.23071 12.5546 4.27205 12.6713 4.35471C12.7879 4.43738 12.8732 4.54796 12.927 4.68646L16.3807 13.9787C16.4551 14.198 16.4298 14.4039 16.3048 14.5962C16.1798 14.7884 15.9993 14.8845 15.7635 14.8845C15.6187 14.8845 15.4879 14.8448 15.3712 14.7655C15.2546 14.686 15.1693 14.5737 15.1155 14.4287L14.2788 12.0652H9.73275L8.86525 14.4442C8.81142 14.5827 8.72875 14.6907 8.61725 14.7682C8.50575 14.8457 8.37758 14.8845 8.23275 14.8845C7.98658 14.8845 7.79842 14.7858 7.66825 14.5885C7.53808 14.391 7.51533 14.1826 7.6 13.9635ZM10.1673 10.8307H13.8135L12.0595 5.91521H11.9595L10.1673 10.8307Z" fill="#273540"/>
</svg>
