<svg width="24" height="24" viewBox="0 0 24 24" fill="none" xmlns="http://www.w3.org/2000/svg">
<path d="M12 10.4538L7.92701 14.5115C7.78851 14.65 7.61701 14.7234 7.41251 14.7318C7.20801 14.7401 7.02818 14.6667 6.87301 14.5115C6.72818 14.3667 6.65576 14.191 6.65576 13.9845C6.65576 13.7782 6.72818 13.6026 6.87301 13.4578L11.3673 8.96351C11.4609 8.86985 11.5597 8.80385 11.6635 8.76551C11.7673 8.72701 11.8795 8.70776 12 8.70776C12.1205 8.70776 12.2327 8.72701 12.3365 8.76551C12.4403 8.80385 12.5391 8.86985 12.6328 8.96351L17.127 13.4578C17.2653 13.5963 17.3387 13.7677 17.347 13.972C17.3553 14.1765 17.282 14.3563 17.127 14.5115C16.982 14.6563 16.8063 14.7288 16.6 14.7288C16.3937 14.7288 16.218 14.6563 16.073 14.5115L12 10.4538Z" fill="#273540"/>
</svg>
