<svg xmlns="http://www.w3.org/2000/svg" viewBox="0 0 24 24"><g transform="matrix(0.010416666666666666 0 0 0.010416666666666666 2 2)"><path d="m1647.608 931.313-2.665 707.614-236.558 236.68h-.121l-352.475-352.476 591.819-591.818ZM792.79 1438.707l85.635 85.757-264.295 264.174-85.636-85.635 264.296-264.296Zm-176.165-176.044 85.636 85.636-352.354 352.233-85.636-85.636 352.354-352.233Zm-176.092-176.249 85.514 85.757-440.411 440.29L0 1526.947l440.533-440.533ZM1033.44 317.28 441.744 908.977 89.27 556.745l236.68-236.679 707.492-2.786Zm597.548-41.17 55.96 2.059 2.301 56.08c2.302 54.992-13.323 138.932-100.897 226.384l-42.757 42.878-184.11-184.231 42.756-42.879c86.605-86.483 172.24-102.108 226.747-100.291Zm259.45-202.037c-73.28-27.617-341.21-101.382-615.558 172.967L570.173 951.747l221.417 221.538 221.418 221.417 704.707-704.828c273.016-273.017 199.857-543.005 172.725-615.801" fill-rule="evenodd"/></g>
</svg>