<svg width="24" height="25" viewBox="0 0 24 25" fill="none" xmlns="http://www.w3.org/2000/svg">
<path fill-rule="evenodd" clip-rule="evenodd" d="M7.56095 19.317H9.58463C9.84374 19.317 9.88729 19.2198 9.90963 19.1673L10.2648 18.3956C10.4591 17.893 11.0745 17.4764 11.6832 17.4574C11.9646 17.4496 12.5509 17.4519 13.0457 17.4552L13.5996 17.4574C14.1536 17.4574 14.6081 17.7545 14.9488 18.3397L15.3664 19.0746C15.4279 19.1863 15.5496 19.3058 15.7093 19.3058L17.6236 19.3136L17.0562 16.88L17.4426 16.6801C18.6455 16.0592 19.4663 14.6944 19.3535 13.5061L19.3155 13.1141L19.674 12.9466C20.4223 12.5992 20.7764 12.205 20.5072 11.1217C20.3508 10.4862 19.8137 9.8954 19.1145 10.0506L18.7091 10.1411L18.5047 9.77925C17.2829 7.6059 15.5195 6.76493 14.2563 6.44105C12.236 5.92285 10.4245 6.3908 9.75774 6.80737L9.33335 7.07206L9.02399 6.68005C8.35836 5.83462 7.28062 5.7408 6.43183 6.11159C6.74678 6.63985 7.02152 7.27644 7.17787 7.86389L7.29514 8.30392L6.88861 8.50718C6.22299 8.84 5.35856 10.0797 5.17652 10.9631L5.13855 11.1485L4.99448 11.2724C4.3322 11.8443 3.48341 12.0498 2.83118 12.1145V13.993C2.83118 14.5716 3.10481 14.8742 3.69114 14.9468C4.65496 15.0663 5.13631 15.5812 5.56071 16.0357C6.03313 16.5405 6.44188 16.9772 7.59557 17.0855L8.22322 17.1447L8.08809 17.7612C8.01326 18.1052 7.76756 18.7798 7.56095 19.317ZM19.0319 20.4371L15.7071 20.4226C15.1654 20.4226 14.6595 20.1133 14.3903 19.6163L13.9816 18.897C13.794 18.5743 13.6622 18.5743 13.5996 18.5743L13.039 18.572C12.5599 18.5698 11.9914 18.5664 11.7178 18.5743C11.5357 18.5798 11.3302 18.734 11.2923 18.8311L10.9282 19.6252C10.7048 20.1356 10.2134 20.4338 9.58463 20.4338H5.91027L6.22299 19.6654C6.35142 19.3493 6.63174 18.6368 6.82161 18.0918C5.71706 17.8383 5.18545 17.2698 4.74542 16.7985C4.3657 16.392 4.11553 16.1251 3.55489 16.0558C2.40232 15.914 1.71436 15.1423 1.71436 13.993V11.0267H2.27277C3.02104 11.0267 3.68667 10.8469 4.1334 10.5298C4.39139 9.59832 5.13073 8.40109 5.9784 7.76449C5.76285 7.15247 5.44679 6.59629 5.19551 6.27465L4.83924 5.82233L5.30384 5.48058C6.65855 4.48437 8.44994 4.57819 9.5824 5.64029C10.7361 5.1232 12.6593 4.8775 14.5333 5.35885C15.9427 5.71958 17.8838 6.6298 19.2887 8.90812C20.3062 8.90366 21.2946 9.6564 21.5916 10.8525C21.9289 12.2117 21.5749 13.1532 20.4804 13.7864C20.4558 15.1813 19.6115 16.6254 18.3361 17.4519L19.0319 20.4371ZM10.576 9.33196L10.0243 8.36144C11.5678 7.48361 13.3815 7.47803 14.8736 8.34692L14.3129 9.31186C13.1492 8.63729 11.7878 8.644 10.576 9.33196ZM9.53226 11.4992C9.53226 12.1157 9.03192 12.616 8.41543 12.616C7.79894 12.616 7.2986 12.1157 7.2986 11.4992C7.2986 10.8827 7.79894 10.3823 8.41543 10.3823C9.03192 10.3823 9.53226 10.8827 9.53226 11.4992Z" fill="#2D3B45"/>
</svg>
