<svg width="24" height="24" viewBox="0 0 24 24" fill="none" xmlns="http://www.w3.org/2000/svg">
<path d="M8.35575 17.5865C6.73175 17.5865 5.34983 17.0214 4.21 15.8912C3.07 14.7612 2.5 13.3857 2.5 11.7645C2.5 10.1433 3.07 8.76607 4.21 7.63274C5.34983 6.49941 6.73175 5.93274 8.35575 5.93274H17.3462C18.5001 5.93274 19.4808 6.33341 20.2885 7.13474C21.0962 7.93591 21.5 8.91341 21.5 10.0672C21.5 11.2211 21.0962 12.1987 20.2885 13C19.4808 13.8013 18.5001 14.202 17.3462 14.202H8.8365C8.15967 14.202 7.58183 13.9662 7.103 13.4945C6.62417 13.023 6.38475 12.4483 6.38475 11.7705C6.38475 11.0927 6.6225 10.5143 7.098 10.0355C7.5735 9.55666 8.153 9.31724 8.8365 9.31724H16.8652C17.0778 9.31724 17.2559 9.38916 17.3997 9.53299C17.5434 9.67682 17.6152 9.85507 17.6152 10.0677C17.6152 10.2802 17.5434 10.4583 17.3997 10.602C17.2559 10.7455 17.0778 10.8172 16.8652 10.8172H8.8365C8.5685 10.8172 8.34283 10.9073 8.1595 11.0875C7.97617 11.2677 7.8845 11.4917 7.8845 11.7595C7.8845 12.0275 7.97617 12.2516 8.1595 12.4317C8.34283 12.6119 8.5685 12.702 8.8365 12.702H17.3558C18.0942 12.6917 18.7196 12.4352 19.2318 11.9325C19.7439 11.4298 20 10.8081 20 10.0672C20 9.32957 19.7423 8.70607 19.227 8.19674C18.7115 7.68741 18.0846 7.43274 17.3462 7.43274H8.35575C7.14675 7.42241 6.11858 7.84032 5.27125 8.68649C4.42375 9.53266 4 10.5598 4 11.768C4 12.959 4.42375 13.9714 5.27125 14.8052C6.11858 15.6389 7.14675 16.066 8.35575 16.0865H16.8652C17.0778 16.0865 17.2559 16.1584 17.3997 16.3022C17.5434 16.4461 17.6152 16.6242 17.6152 16.8367C17.6152 17.0494 17.5434 17.2276 17.3997 17.3712C17.2559 17.5147 17.0778 17.5865 16.8652 17.5865H8.35575Z" fill="#273540"/>
</svg>
