<svg width="24" height="24" viewBox="0 0 24 24" fill="none" xmlns="http://www.w3.org/2000/svg">
<path d="M4.62295 11L8.6962 15.073C8.84487 15.2218 8.9182 15.3959 8.9162 15.5953C8.91437 15.7946 8.83587 15.9718 8.6807 16.127C8.52554 16.2718 8.34987 16.3468 8.1537 16.352C7.9577 16.357 7.78212 16.282 7.62695 16.127L3.1327 11.6328C3.03904 11.5391 2.97304 11.4403 2.9347 11.3365C2.8962 11.2327 2.87695 11.1205 2.87695 11C2.87695 10.8795 2.8962 10.7673 2.9347 10.6635C2.97304 10.5597 3.03904 10.4609 3.1327 10.3673L7.62695 5.873C7.76545 5.73467 7.93687 5.66384 8.1412 5.6605C8.3457 5.65734 8.52554 5.72817 8.6807 5.873C8.83587 6.02817 8.91345 6.20642 8.91345 6.40775C8.91345 6.60892 8.83587 6.78709 8.6807 6.94225L4.62295 11ZM9.9307 11.75L13.2537 15.073C13.4025 15.2218 13.476 15.3959 13.474 15.5953C13.472 15.7946 13.3935 15.9718 13.2385 16.127C13.0833 16.2718 12.9076 16.3468 12.7115 16.352C12.5153 16.357 12.3396 16.282 12.1845 16.127L7.69045 11.6328C7.59679 11.5391 7.5307 11.4403 7.4922 11.3365C7.4537 11.2327 7.43445 11.1205 7.43445 11C7.43445 10.8795 7.4537 10.7673 7.4922 10.6635C7.5307 10.5597 7.59679 10.4609 7.69045 10.3673L12.1845 5.873C12.323 5.73467 12.4945 5.66384 12.699 5.6605C12.9035 5.65734 13.0833 5.72817 13.2385 5.873C13.3935 6.02817 13.471 6.20642 13.471 6.40775C13.471 6.60892 13.3935 6.78709 13.2385 6.94225L9.9307 10.25H16.75C18.0628 10.25 19.1826 10.7135 20.1095 11.6405C21.0365 12.5673 21.5 13.6872 21.5 15V17.75C21.5 17.9628 21.4281 18.141 21.2845 18.2845C21.141 18.4282 20.9628 18.5 20.75 18.5C20.5371 18.5 20.359 18.4282 20.2155 18.2845C20.0718 18.141 20 17.9628 20 17.75V15C20 14.1025 19.6826 13.3365 19.048 12.702C18.4135 12.0673 17.6475 11.75 16.75 11.75H9.9307Z" fill="#273540"/>
</svg>
