<svg width="24" height="24" viewBox="0 0 24 24" fill="none" xmlns="http://www.w3.org/2000/svg">
<mask id="mask0_4_426" style="mask-type:alpha" maskUnits="userSpaceOnUse" x="0" y="0" width="24" height="24">
<rect width="24" height="24" fill="#D9D9D9"/>
</mask>
<g mask="url(#mask0_4_426)">
<path d="M20.6921 19.1C20.6101 19.2282 20.474 19.3009 20.2836 19.3182C20.0931 19.3356 19.9222 19.2686 19.7709 19.1172L17.7691 17.1152H7.99989C7.51339 17.1152 7.09689 16.942 6.75039 16.5955C6.40389 16.2492 6.23064 15.8327 6.23064 15.346V14.7307H17.1154C17.6124 14.7307 18.0379 14.5537 18.3919 14.1997C18.7459 13.8457 18.9229 13.4202 18.9229 12.923V6H19.5384C20.0249 6 20.4414 6.17325 20.7879 6.51975C21.1344 6.86625 21.3076 7.28275 21.3076 7.76925V18.4692C21.3076 18.6537 21.2461 18.805 21.1229 18.923C20.9999 19.041 20.8563 19.1 20.6921 19.1ZM4.19214 12.6462L5.60764 11.2308H15.1154C15.2051 11.2308 15.2787 11.2019 15.3364 11.1442C15.3941 11.0866 15.4229 11.0128 15.4229 10.923V4.30775C15.4229 4.21792 15.3941 4.14417 15.3364 4.0865C15.2787 4.02883 15.2051 4 15.1154 4H4.49989C4.41022 4 4.33647 4.02883 4.27864 4.0865C4.22097 4.14417 4.19214 4.21792 4.19214 4.30775V12.6462ZM3.59289 15.0037C3.36039 15.0037 3.15214 14.9192 2.96814 14.75C2.78414 14.5807 2.69214 14.3574 2.69214 14.0802V4.30775C2.69214 3.81058 2.86914 3.385 3.22314 3.031C3.57714 2.677 4.00272 2.5 4.49989 2.5H15.1154C15.6124 2.5 16.0379 2.677 16.3919 3.031C16.7459 3.385 16.9229 3.81058 16.9229 4.30775V10.923C16.9229 11.4202 16.7459 11.8457 16.3919 12.1997C16.0379 12.5537 15.6124 12.7308 15.1154 12.7308H6.23064L4.22889 14.7327C4.13522 14.8262 4.03489 14.8948 3.92789 14.9385C3.82072 14.982 3.70906 15.0037 3.59289 15.0037Z" fill="#273540"/>
</g>
</svg>
