<svg width="24" height="24" viewBox="0 0 24 24" fill="none" xmlns="http://www.w3.org/2000/svg">
<path d="M4.30775 19.5C3.80258 19.5 3.375 19.325 3.025 18.975C2.675 18.625 2.5 18.1974 2.5 17.6923V6.30775C2.5 5.80258 2.675 5.375 3.025 5.025C3.375 4.675 3.80258 4.5 4.30775 4.5H9.05C9.291 4.5 9.52275 4.54683 9.74525 4.6405C9.96758 4.734 10.1608 4.86283 10.325 5.027L11.798 6.5H19.6923C20.1974 6.5 20.625 6.675 20.975 7.025C21.325 7.375 21.5 7.80258 21.5 8.30775V17.6923C21.5 18.1974 21.325 18.625 20.975 18.975C20.625 19.325 20.1974 19.5 19.6923 19.5H4.30775ZM4.30775 18H19.6923C19.7821 18 19.8558 17.9712 19.9135 17.9135C19.9712 17.8558 20 17.7821 20 17.6923V8.30775C20 8.21792 19.9712 8.14417 19.9135 8.0865C19.8558 8.02883 19.7821 8 19.6923 8H11.1845L9.27125 6.0865C9.23908 6.0545 9.20542 6.03208 9.17025 6.01925C9.13492 6.00642 9.098 6 9.0595 6H4.30775C4.21792 6 4.14417 6.02883 4.0865 6.0865C4.02883 6.14417 4 6.21792 4 6.30775V17.6923C4 17.7821 4.02883 17.8558 4.0865 17.9135C4.14417 17.9712 4.21792 18 4.30775 18ZM12.7963 13.75L11.5538 14.9923C11.4154 15.1308 11.3446 15.3048 11.3413 15.5145C11.3381 15.724 11.4089 15.9012 11.5538 16.0463C11.6987 16.1911 11.8744 16.2635 12.0808 16.2635C12.2873 16.2635 12.4629 16.1911 12.6077 16.0463L15.0212 13.6328C15.2019 13.4519 15.2923 13.241 15.2923 13C15.2923 12.759 15.2019 12.5481 15.0212 12.3672L12.6077 9.95375C12.4692 9.81542 12.2952 9.74458 12.0855 9.74125C11.876 9.73808 11.6987 9.80892 11.5538 9.95375C11.4089 10.0988 11.3365 10.2744 11.3365 10.4807C11.3365 10.6872 11.4089 10.8629 11.5538 11.0078L12.7963 12.25H9.09625C8.88342 12.25 8.70517 12.3218 8.5615 12.4655C8.418 12.609 8.34625 12.7872 8.34625 13C8.34625 13.2128 8.418 13.391 8.5615 13.5345C8.70517 13.6782 8.88342 13.75 9.09625 13.75H12.7963Z" fill="#273540"/>
</svg>
