<svg xmlns="http://www.w3.org/2000/svg" viewBox="0 0 24 24"><g><path fill-rule="evenodd" stroke="none" stroke-width="1" d="M833.935 1063.327c28.913 170.315 64.038 348.198 83.464 384.79 27.557 51.84 92.047 71.944 144 44.387 51.84-27.558 71.717-92.273 44.16-144.113-19.426-36.593-146.937-165.46-271.624-285.064zm177.995 554.315c-78.72 0-154.955-42.353-194.371-116.555-44.386-83.802-109.102-501.346-121.638-584.245-3.501-23.717 8.245-47.21 29.365-58.277 21.346-11.294 47.096-8.02 64.828 8.357 61.553 56.923 370.899 344.81 415.285 428.612 56.696 106.842 15.811 239.887-91.144 296.697-32.64 17.28-67.765 25.411-102.325 25.411zm-108.4-986.857V471.312h112.94v159.473H903.53zm566.196 234.455l-79.85-79.85 112.716-112.715 79.85 79.85-112.716 112.715zm-1019.452 0L337.559 752.524l79.849-79.85L530.123 785.39l-79.85 79.85zM1883 1511.015h-524.385v-112.942h434.258c9.487-50.71 14.231-103.115 14.231-156.084 0-467.125-380.047-847.06-847.059-847.06-467.125 0-847.059 379.935-847.059 847.06 0 52.97 4.744 105.374 14.118 156.084h487.454v112.942H36.977l-10.39-43.144C8.966 1395.137.044 1319.128.044 1241.99c0-529.243 430.645-960 960-960s960 430.757 960 960c0 77.139-8.922 153.148-26.654 225.882l-10.39 43.144z" transform="matrix(0.010416666666666666 0 0 0.010416666666666666 2 2)"/></g></svg>