<svg width="24" height="24" viewBox="0 0 24 24" fill="none" xmlns="http://www.w3.org/2000/svg">
<path d="M10.4227 19.5C10.2102 19.5 10.0321 19.4281 9.8884 19.2843C9.7449 19.1406 9.67315 18.9625 9.67315 18.75V13.5H9.5769C8.32824 13.5 7.26607 13.0622 6.3904 12.1865C5.51474 11.3108 5.0769 10.2487 5.0769 9C5.0769 7.75133 5.51474 6.68917 6.3904 5.8135C7.26607 4.93783 8.32824 4.5 9.5769 4.5H16.5384C16.7509 4.5 16.929 4.57192 17.0727 4.71575C17.2165 4.85958 17.2884 5.03775 17.2884 5.25025C17.2884 5.46292 17.2165 5.641 17.0727 5.7845C16.929 5.92817 16.7509 6 16.5384 6H15.2884V18.75C15.2884 18.9625 15.2165 19.1406 15.0727 19.2843C14.9288 19.4281 14.7506 19.5 14.5379 19.5C14.3254 19.5 14.1473 19.4281 14.0037 19.2843C13.8602 19.1406 13.7884 18.9625 13.7884 18.75V6H11.1729V18.75C11.1729 18.9625 11.101 19.1406 10.9572 19.2843C10.8135 19.4281 10.6353 19.5 10.4227 19.5Z" fill="#273540"/>
</svg>
