<svg width="106" height="132" viewBox="0 0 106 132" fill="none" xmlns="http://www.w3.org/2000/svg">
<path d="M54.0088 131.931C81.623 131.931 104.009 127.454 104.009 121.931C104.009 116.408 81.623 111.931 54.0088 111.931C26.3946 111.931 4.00879 116.408 4.00879 121.931C4.00879 127.454 26.3946 131.931 54.0088 131.931Z" fill="black" fill-opacity="0.05"/>
<path fill-rule="evenodd" clip-rule="evenodd" d="M78.5367 70.0564C77.4704 70.0473 76.3923 70.0116 75.3064 69.9533C74.086 74.7705 71.8924 85.6979 74.2316 94.9377C77.3332 107.19 89.715 102.892 92.4953 96.9202C95.0891 91.3501 89.8352 81.8931 78.5367 70.0564Z" fill="#2D3B45" stroke="#152633" stroke-width="2"/>
<path fill-rule="evenodd" clip-rule="evenodd" d="M32.971 70.2545C33.6811 75.1728 34.7205 86.2697 31.4284 95.2143C27.0629 107.076 15.1983 101.507 13.0574 95.277C11.0601 89.4662 17.2737 80.6102 29.7477 70.0193C30.8091 70.1218 31.8849 70.199 32.971 70.2545Z" fill="#2D3B45" stroke="#152633" stroke-width="2"/>
<path fill-rule="evenodd" clip-rule="evenodd" d="M74.2676 71.5195C67.5059 73.7712 59.7891 74.9951 51.5939 74.9951C44.2892 74.9951 37.5319 74.1333 31.5666 72.4436C29.1713 77.8073 26.458 84.68 25.8638 89.4336C24.116 101.666 34.749 112.387 53.6301 112.387C72.5112 112.387 82.375 101.281 80.2199 89.8039C78.7346 81.8971 76.3404 75.9236 74.2676 71.5195Z" fill="white"/>
<path fill-rule="evenodd" clip-rule="evenodd" d="M49.2191 96.6979C49.5204 95.8853 50.3026 95.3062 51.22 95.3062C52.1374 95.3062 52.9196 95.8853 53.2208 96.6979C54.0384 96.4287 54.9726 96.6735 55.5465 97.382C56.1273 98.0994 56.1665 99.0793 55.7159 99.8265C56.4427 100.302 56.8331 101.196 56.6263 102.092C56.4203 102.984 55.6827 103.615 54.8254 103.728C54.9061 104.587 54.4573 105.445 53.6361 105.845C52.8082 106.249 51.8468 106.068 51.22 105.464C50.5931 106.068 49.6318 106.249 48.8039 105.845C47.9827 105.445 47.5338 104.587 47.6146 103.728C46.7573 103.615 46.0196 102.984 45.8137 102.092C45.6069 101.196 45.9972 100.302 46.7241 99.8265C46.2735 99.0793 46.3126 98.0994 46.8935 97.382C47.4673 96.6735 48.4016 96.4287 49.2191 96.6979Z" fill="#2D3B45" stroke="#152633" stroke-width="2"/>
<path fill-rule="evenodd" clip-rule="evenodd" d="M74.2676 71.5195C67.5059 73.7712 59.7891 74.9951 51.5939 74.9951C44.2892 74.9951 37.5319 74.1333 31.5666 72.4436C29.1713 77.8073 26.458 84.68 25.8638 89.4336C24.116 101.666 34.749 112.387 53.6301 112.387C72.5112 112.387 82.375 101.281 80.2199 89.8039C78.7346 81.8971 76.3404 75.9236 74.2676 71.5195Z" stroke="#152633" stroke-width="2"/>
<path fill-rule="evenodd" clip-rule="evenodd" d="M80.2444 90.7708C81.6876 100.856 73.8704 110.472 58.8325 112.3L59.1498 113.725C60.2605 119.649 62.4818 121.87 66.1839 122.981C74.3287 125.943 92.0992 124.832 90.2481 117.798C88.2736 107.678 84.9391 98.6695 80.2444 90.7708Z" fill="#2D3B45"/>
<path fill-rule="evenodd" clip-rule="evenodd" d="M90.2481 117.798C87.2864 102.619 80.7433 93.5611 80.373 90.5994C81.8161 100.684 73.8704 110.472 58.8325 112.3L59.1498 113.725C60.2605 119.649 62.4818 121.87 66.1839 122.981C74.3287 125.942 92.0992 124.832 90.2481 117.798Z" stroke="#152633" stroke-width="2"/>
<path fill-rule="evenodd" clip-rule="evenodd" d="M25.7014 90.7708L25.6469 90.7715C25.2767 93.7332 18.6128 102.618 15.6511 117.797C13.8 124.832 31.5704 125.942 39.7152 122.98C43.4174 121.87 45.6387 119.649 46.7494 113.725L47.0511 112.491L47.0667 112.151C32.8158 110.052 24.8539 101.056 25.7014 90.7708Z" fill="#2D3B45"/>
<path fill-rule="evenodd" clip-rule="evenodd" d="M25.7014 90.7708C25.2767 93.7332 18.6128 102.618 15.6511 117.797C13.8 124.832 31.5704 125.942 39.7152 122.98C43.4174 121.87 45.6387 119.649 46.7494 113.725L47.0511 112.491L47.0667 112.151C32.8158 110.052 24.8539 101.056 25.7014 90.7708Z" stroke="#152633" stroke-width="2"/>
<path fill-rule="evenodd" clip-rule="evenodd" d="M14.4782 35.8607C13.1666 35.8025 11.6981 35.5679 10.1196 35.0351C4.04988 32.9853 3.75994 27.6998 3.503 26.0187C3.24606 24.3377 3.21095 15.2635 10.4202 16.5436C15.0762 17.3702 18.5572 19.2602 21.7682 20.8198C18.4178 25.3754 15.9503 30.5147 14.4782 35.8607Z" fill="#2D3B45" stroke="#152633" stroke-width="2"/>
<path fill-rule="evenodd" clip-rule="evenodd" d="M11.7976 44.1537C11.7976 64.177 29.0081 74.8791 52.668 74.8791C76.3278 74.8791 95.508 62.796 95.508 44.8441C95.508 22.5364 76.3278 1 52.668 1C29.0081 1 11.7976 23.0947 11.7976 44.1537Z" fill="white" stroke="#152633" stroke-width="2"/>
<path fill-rule="evenodd" clip-rule="evenodd" d="M84.2654 37.2939C85.839 36.641 87.5246 35.7034 89.2124 34.3535C95.7023 29.1616 94.4044 20.5084 93.9717 18.3451C93.539 16.1817 90.9431 5.79787 82.7225 10.5571C77.4133 13.6308 74.3543 17.3913 71.1318 20.7172C76.4794 25.2627 82.7225 33.0167 84.2654 37.2939Z" fill="#2D3B45" stroke="#152633" stroke-width="2"/>
</svg>
