<svg width="20" height="20" viewBox="0 0 20 20" fill="none" xmlns="http://www.w3.org/2000/svg">
<path d="M9.25 10.854L7.91725 9.52125C7.77875 9.38275 7.60633 9.3135 7.4 9.3135C7.19367 9.3135 7.02125 9.38275 6.88275 9.52125C6.74425 9.65958 6.675 9.83408 6.675 10.0448C6.675 10.2556 6.74425 10.4291 6.88275 10.5652L9.377 13.0595C9.55767 13.2403 9.7685 13.3307 10.0095 13.3307C10.2507 13.3307 10.4616 13.2403 10.6423 13.0595L13.1365 10.5652C13.275 10.4291 13.3443 10.2556 13.3443 10.0448C13.3443 9.83408 13.275 9.65958 13.1365 9.52125C12.998 9.38275 12.8234 9.3135 12.6128 9.3135C12.4021 9.3135 12.2286 9.38275 12.0922 9.52125L10.7595 10.854V7.048C10.7595 6.8355 10.6877 6.65742 10.544 6.51375C10.4002 6.36992 10.2219 6.298 10.0092 6.298C9.79675 6.298 9.61708 6.36992 9.47025 6.51375C9.32342 6.65742 9.25 6.8355 9.25 7.048V10.854ZM10.0017 19.5C8.68775 19.5 7.45267 19.2507 6.2965 18.752C5.14033 18.2533 4.13467 17.5766 3.2795 16.7218C2.42433 15.8669 1.74725 14.8617 1.24825 13.706C0.749417 12.5503 0.5 11.3156 0.5 10.0017C0.5 8.68775 0.749333 7.45267 1.248 6.2965C1.74667 5.14033 2.42342 4.13467 3.27825 3.2795C4.13308 2.42433 5.13833 1.74725 6.294 1.24825C7.44967 0.749417 8.68442 0.5 9.99825 0.5C11.3123 0.5 12.5473 0.749333 13.7035 1.248C14.8597 1.74667 15.8653 2.42342 16.7205 3.27825C17.5757 4.13308 18.2528 5.13833 18.7518 6.294C19.2506 7.44967 19.5 8.68442 19.5 9.99825C19.5 11.3123 19.2507 12.5473 18.752 13.7035C18.2533 14.8597 17.5766 15.8653 16.7218 16.7205C15.8669 17.5757 14.8617 18.2528 13.706 18.7518C12.5503 19.2506 11.3156 19.5 10.0017 19.5ZM10 18C12.2333 18 14.125 17.225 15.675 15.675C17.225 14.125 18 12.2333 18 10C18 7.76667 17.225 5.875 15.675 4.325C14.125 2.775 12.2333 2 10 2C7.76667 2 5.875 2.775 4.325 4.325C2.775 5.875 2 7.76667 2 10C2 12.2333 2.775 14.125 4.325 15.675C5.875 17.225 7.76667 18 10 18Z" fill="#273540"/>
</svg>
