<svg xmlns="http://www.w3.org/2000/svg" viewBox="0 0 24 24"><g transform="matrix(0.010416666666666666 0 0 0.010416666666666666 2 2)"><path d="M959.342 1355.283c4.287.007 20.897.18 45.834 4.517l-3.388 55.341c-1.13 29.365-25.976 53.083-55.34 53.083-65.507 0-110.683 19.2-141.177 57.6-68.895 88.094-45.177 263.153-30.495 324.14 4.518 16.942 0 35.013-10.164 48.566-11.294 13.553-27.106 21.458-44.047 21.458h-212.33c-31.623 0-56.47-24.847-56.47-56.47v-508.235Zm627.82-1324.044c11.633-23.492 37.61-35.576 63.473-29.816 25.525 6.099 43.483 28.8 43.483 55.002V570.42C1822.87 596.623 1920 710.693 1920 847.013c0 136.32-97.13 250.504-225.882 276.706v513.883c0 26.202-17.958 49.016-43.483 55.002a57.279 57.279 0 0 1-12.988 1.468c-21.12 0-40.772-11.746-50.485-31.172C1379.238 1247.164 964.18 1242.307 960 1242.307H395.294c-155.746 0-282.353-126.607-282.353-282.352v-56.471h-56.47C25.299 903.484 0 878.298 0 847.014c0-31.172 25.299-56.471 56.47-56.471h56.471v-56.47c0-155.634 126.607-282.354 282.353-282.354h564.593c16.941-.113 420.48-7.002 627.275-420.48Z" fill-rule="evenodd"/></g>
</svg>