<svg xmlns="http://www.w3.org/2000/svg" viewBox="0 0 24 24"><g transform="matrix(0.010416666666666666 0 0 0.010416666666666666 2 2)"><path d="M1653.333 1707H266.667c-88.214 0-160-71.787-160-160V960.333H640v213.334h640V960.333h533.333V1547c0 88.213-71.786 160-160 160Zm-906.666-640h426.666V853.667H746.667V1067Zm-480-533.333h1386.666c88.214 0 160 71.786 160 160v160H1280V747H640v106.667H106.667v-160c0-88.214 71.786-160 160-160Zm480-266.667c0-29.44 23.893-53.333 53.333-53.333h320c29.44 0 53.333 23.893 53.333 53.333v160H746.667V267Zm906.666 160H1280V267c0-88.213-71.787-160-160-160H800c-88.213 0-160 71.787-160 160v160H266.667C119.68 427 0 546.68 0 693.667V1547c0 146.987 119.68 266.667 266.667 266.667h1386.666c146.987 0 266.667-119.68 266.667-266.667V693.667C1920 546.68 1800.32 427 1653.333 427Z" fill-rule="evenodd"/></g>
</svg>