<svg width="217" height="135" viewBox="0 0 217 135" fill="none" xmlns="http://www.w3.org/2000/svg">
<g clip-path="url(#clip0_4274_28711)">
<path fill-rule="evenodd" clip-rule="evenodd" d="M11.4741 6.33655H207.474V122.337H11.4741V6.33655Z" fill="#FFD960" stroke="#152633" stroke-width="2"/>
<path fill-rule="evenodd" clip-rule="evenodd" d="M20.038 12.3365H198.91C199.802 12.3365 200.125 12.4294 200.451 12.6037C200.777 12.778 201.033 13.0338 201.207 13.3597C201.381 13.6856 201.474 14.0089 201.474 14.9004V113.773C201.474 114.664 201.381 114.987 201.207 115.313C201.033 115.639 200.777 115.895 200.451 116.069C200.125 116.244 199.802 116.337 198.91 116.337H20.038C19.1465 116.337 18.8232 116.244 18.4973 116.069C18.1714 115.895 17.9156 115.639 17.7413 115.313C17.5669 114.987 17.4741 114.664 17.4741 113.773V14.9004C17.4741 14.0089 17.5669 13.6856 17.7413 13.3597C17.9156 13.0338 18.1714 12.778 18.4973 12.6037C18.8232 12.4294 19.1465 12.3365 20.038 12.3365Z" fill="white" stroke="#152633" stroke-width="2"/>
<path fill-rule="evenodd" clip-rule="evenodd" d="M64.4741 20.3364H80.9741L82.4741 21.3364L83.4741 20.3364H88.4741V44.3364H64.4741V20.3364Z" fill="white" stroke="#152633" stroke-width="2"/>
<path d="M78.3462 36.3364L77.813 34.479H75.0474L74.5083 36.3364H72.3169L75.1587 27.8813H77.7896L80.6313 36.3364H78.3462ZM76.4067 29.6743L75.4634 32.9321H77.3911L76.4536 29.6743H76.4067Z" fill="#C51717"/>
<path fill-rule="evenodd" clip-rule="evenodd" d="M69.9741 22.8364L71.4071 18.0864L69.9741 22.8364Z" stroke="#152633" stroke-width="2" stroke-linecap="round" stroke-linejoin="round"/>
<path fill-rule="evenodd" clip-rule="evenodd" d="M69.2421 19.3365C69.9324 20.5322 71.4614 20.9419 72.6572 20.2515C73.8529 19.5612 74.2626 18.0322 73.5722 16.8365C72.8819 15.6407 71.3529 15.2311 70.1572 15.9214C68.9614 16.6118 68.5517 18.1407 69.2421 19.3365Z" fill="white" stroke="#152633" stroke-width="2"/>
<path fill-rule="evenodd" clip-rule="evenodd" d="M36.8139 18.5112L58.906 9.13367L61.9651 15.3404L61.8371 18.3947L63.889 20.8727L68.2836 31.2258L52.51 37.9213L48.8793 37.6135L45.1915 41.6033L44.3428 33.8923L42.4708 31.8379L36.8139 18.5112Z" fill="white" stroke="#152633" stroke-width="2"/>
<path d="M50.4509 18.5684L56.3779 16.3366" stroke="#152633" stroke-width="2"/>
<path d="M50.4509 22.5684L54.9985 21.6091L58.3779 19.3366" stroke="#152633" stroke-width="2"/>
<path d="M53.4739 26.3366L60.5665 22.8656" stroke="#152633" stroke-width="2"/>
<path d="M46.9792 25.0001L49.4419 25.753C51.2742 26.3132 52.025 27.7054 51.434 29.6385C50.8417 31.5759 49.416 32.3762 47.5879 31.8173L45.1252 31.0643L46.9792 25.0001ZM48.1413 26.7156L47.0479 30.2919L47.7665 30.5116C48.7709 30.8187 49.4951 30.3738 49.8651 29.1635C50.2133 28.0246 49.8349 27.2334 48.8599 26.9353L48.1413 26.7156ZM54.8783 32.0656L54.3631 33.7508L53.0477 33.3486L53.5629 31.6634L51.9575 31.1726L52.3494 29.8908L53.9548 30.3817L54.47 28.6964L55.7854 29.0986L55.2702 30.7838L56.8713 31.2733L56.4794 32.5551L54.8783 32.0656Z" fill="#C51717"/>
<path fill-rule="evenodd" clip-rule="evenodd" d="M47.9741 23.8365L43.9741 20.8365L47.9741 23.8365Z" stroke="#152633" stroke-width="2" stroke-linecap="round" stroke-linejoin="round"/>
<path fill-rule="evenodd" clip-rule="evenodd" d="M42.4701 22.8337C43.5728 23.6646 45.1403 23.4443 45.9713 22.3416C46.8022 21.239 46.5819 19.6715 45.4792 18.8405C44.3765 18.0096 42.809 18.2299 41.9781 19.3326C41.1472 20.4353 41.3675 22.0028 42.4701 22.8337Z" fill="white" stroke="#152633" stroke-width="2"/>
<path fill-rule="evenodd" clip-rule="evenodd" d="M14.4741 14.087H30.9741L32.4741 15.087L33.4741 14.087H38.4741V38.087H14.4741V14.087Z" fill="white" stroke="#152633" stroke-width="2"/>
<path d="M16.4741 23.3365L27.9741 21.8365L33.4741 22.3365" stroke="#152633" stroke-width="2"/>
<path d="M18.4741 27.3365L24.9741 25.8365L33.4741 26.3365" stroke="#152633" stroke-width="2"/>
<path d="M27.2499 34.7266L24.4047 35.7622L22.2358 29.8033L25.0067 28.7948C26.1795 28.368 27.0916 28.6767 27.4268 29.5976C27.6702 30.2665 27.3603 30.9826 26.7327 31.314L26.7447 31.347C27.5635 31.0911 28.4174 31.4584 28.7059 32.2512C29.0862 33.296 28.5259 34.2622 27.2499 34.7266ZM24.1422 30.3254L24.6351 31.6799L25.4156 31.3958C25.9648 31.1959 26.2005 30.8155 26.0442 30.386C25.8924 29.969 25.5049 29.8294 24.997 30.0143L24.1422 30.3254ZM25.5294 34.1369L26.4297 33.8093C27.0532 33.5823 27.3009 33.1835 27.1175 32.6797C26.9402 32.1924 26.4858 32.0492 25.8623 32.2761L24.9703 32.6008L25.5294 34.1369Z" fill="#C51717"/>
<path fill-rule="evenodd" clip-rule="evenodd" d="M25.9741 17.3365L24.4741 12.8365L25.9741 17.3365Z" stroke="#152633" stroke-width="2" stroke-linecap="round" stroke-linejoin="round"/>
<path fill-rule="evenodd" clip-rule="evenodd" d="M22.2421 14.0871C22.9324 15.2828 24.4614 15.6925 25.6572 15.0022C26.8529 14.3118 27.2626 12.7828 26.5722 11.5871C25.8819 10.3914 24.3529 9.98167 23.1572 10.672C21.9614 11.3624 21.5517 12.8914 22.2421 14.0871Z" fill="white" stroke="#152633" stroke-width="2"/>
<path fill-rule="evenodd" clip-rule="evenodd" d="M42.474 94.087L57.474 94.8365L64.474 94.087V96.8365L66.474 97.3365V118.087H42.474L42.2117 101.673L43.474 95.8365L42.474 94.087Z" fill="white" stroke="#152633" stroke-width="2"/>
<path d="M53.6565 110.087L53.1233 108.23H50.3577L49.8186 110.087H47.6272L50.469 101.632H53.0999L55.9417 110.087H53.6565ZM51.717 103.425L50.7737 106.683H52.7014L51.7639 103.425H51.717ZM60.7288 107.538H56.8733V105.757H60.7288V107.538Z" fill="#C51717"/>
<path fill-rule="evenodd" clip-rule="evenodd" d="M56.2205 97.6148L54.9462 92.4743L56.2205 97.6148Z" stroke="#152633" stroke-width="2" stroke-linecap="round" stroke-linejoin="round"/>
<path fill-rule="evenodd" clip-rule="evenodd" d="M52.2418 93.0871C52.9322 94.2828 54.4612 94.6925 55.6569 94.0022C56.8526 93.3118 57.2623 91.7828 56.572 90.5871C55.8816 89.3914 54.3526 88.9817 53.1569 89.672C51.9612 90.3624 51.5515 91.8914 52.2418 93.0871Z" fill="white" stroke="#152633" stroke-width="2"/>
<path fill-rule="evenodd" clip-rule="evenodd" d="M121.464 9.09436L141.482 12.716L137.379 34.09L116.74 29.5561L121.464 9.09436Z" fill="white" stroke="#152633" stroke-width="2"/>
<path d="M122.87 26.987C121.748 26.3395 121.45 25.2506 122.147 24.0429C122.844 22.8352 123.938 22.553 125.057 23.199C126.023 23.7571 126.391 24.8082 125.869 25.718L124.839 25.1232C125.054 24.6925 124.942 24.2592 124.569 24.0439C124.127 23.789 123.623 24.0186 123.245 24.6732C122.862 25.3354 122.913 25.8858 123.36 26.1436C123.73 26.3574 124.156 26.2412 124.434 25.8366L125.464 26.4313C124.931 27.3418 123.857 27.5568 122.87 26.987ZM127.618 28.2433L127.039 29.2455L126.126 28.7181L126.704 27.7159L125.753 27.1666L126.263 26.2837L127.214 26.833L127.793 25.8308L128.706 26.3582L128.128 27.3603L129.079 27.9097L128.569 28.7926L127.618 28.2433Z" fill="#C51717"/>
<path fill-rule="evenodd" clip-rule="evenodd" d="M126.139 13.0506L126.224 7.90344L126.139 13.0506Z" stroke="#152633" stroke-width="2" stroke-linecap="round" stroke-linejoin="round"/>
<path fill-rule="evenodd" clip-rule="evenodd" d="M124.974 10.0686C126.17 10.7589 127.699 10.3492 128.389 9.15349C129.079 7.95776 128.67 6.42879 127.474 5.73843C126.278 5.04807 124.749 5.45776 124.059 6.65349C123.369 7.84923 123.778 9.3782 124.974 10.0686Z" fill="white" stroke="#152633" stroke-width="2"/>
<path d="M123.974 16.3365L131.474 17.8365" stroke="#152633" stroke-width="2"/>
<path d="M123.974 19.3365L131.474 20.8365" stroke="#152633" stroke-width="2"/>
<path fill-rule="evenodd" clip-rule="evenodd" d="M189.02 106.499L209.007 102.707L212.835 124.132L191.943 127.295L189.02 106.499Z" fill="white" stroke="#152633" stroke-width="2"/>
<path fill-rule="evenodd" clip-rule="evenodd" d="M194.803 108.517L193.037 103.682L194.803 108.517Z" stroke="#152633" stroke-width="2" stroke-linecap="round" stroke-linejoin="round"/>
<path fill-rule="evenodd" clip-rule="evenodd" d="M192.646 106.151C194.01 106.367 195.291 105.437 195.507 104.073C195.723 102.709 194.792 101.429 193.428 101.213C192.065 100.997 190.784 101.927 190.568 103.291C190.352 104.654 191.282 105.935 192.646 106.151Z" fill="white" stroke="#152633" stroke-width="2"/>
<path d="M193.959 112.361L201.498 111.074" stroke="#152633" stroke-width="2"/>
<path d="M193.167 115.878L200.706 114.591" stroke="#152633" stroke-width="2"/>
<path d="M195.534 119.254L203.432 118.901" stroke="#152633" stroke-width="2"/>
<path d="M206.341 116.891L203.866 116.499L204.638 111.628L207.031 112.007C208.027 112.165 208.539 112.713 208.419 113.473C208.33 114.033 207.838 114.388 207.263 114.369L207.259 114.396C207.914 114.517 208.386 115.101 208.284 115.746C208.149 116.6 207.384 117.056 206.341 116.891ZM205.914 112.837L205.76 113.806L206.314 113.894C206.682 113.952 206.942 113.796 206.988 113.502C207.036 113.202 206.849 112.985 206.488 112.928L205.914 112.837ZM205.453 115.744L206.064 115.84C206.507 115.91 206.791 115.751 206.85 115.383C206.905 115.036 206.68 114.793 206.252 114.725L205.63 114.626L205.453 115.744Z" fill="#C51717"/>
<path fill-rule="evenodd" clip-rule="evenodd" d="M92.1981 11.028L113.217 15.6496L111.643 17.6364L112.39 19.9525L109.941 21.2943L110.667 27.9296L108.242 30.1429L108.751 32.6984L108.113 36.0236L87.4741 31.4897L92.1981 11.028Z" fill="white" stroke="#152633" stroke-width="2"/>
<path d="M99.0997 29.043L96.6004 29.2177L96.2563 24.2976L98.6738 24.1286C99.6796 24.0582 100.302 24.4773 100.355 25.2445C100.395 25.8105 99.9951 26.2667 99.4307 26.3781L99.4326 26.4054C100.099 26.376 100.689 26.8383 100.735 27.4895C100.795 28.3522 100.153 28.9693 99.0997 29.043ZM97.7714 25.1887L97.8398 26.1673L98.399 26.1282C98.7707 26.1022 98.9889 25.8916 98.9682 25.595C98.947 25.2915 98.7159 25.1227 98.3511 25.1482L97.7714 25.1887ZM97.9767 28.1244L98.5938 28.0813C99.0405 28.05 99.2822 27.831 99.2562 27.4593C99.2316 27.1081 98.9582 26.9217 98.5252 26.952L97.8978 26.9958L97.9767 28.1244Z" fill="#C51717"/>
<path fill-rule="evenodd" clip-rule="evenodd" d="M105.474 16.3365L106.958 11.837L105.474 16.3365Z" stroke="#152633" stroke-width="2" stroke-linecap="round" stroke-linejoin="round"/>
<path fill-rule="evenodd" clip-rule="evenodd" d="M105.708 14.0022C106.904 14.6925 108.433 14.2828 109.123 13.0871C109.814 11.8914 109.404 10.3624 108.208 9.67202C107.012 8.98167 105.483 9.39136 104.793 10.5871C104.103 11.7828 104.512 13.3118 105.708 14.0022Z" fill="white" stroke="#152633" stroke-width="2"/>
<path d="M94.7083 18.2701L102.208 19.7701" stroke="#152633" stroke-width="2"/>
<path fill-rule="evenodd" clip-rule="evenodd" d="M180.159 38.9165L193.304 23.3908L209.763 37.6319L195.517 53.2385L180.159 38.9165Z" fill="white" stroke="#152633" stroke-width="2"/>
<path fill-rule="evenodd" clip-rule="evenodd" d="M195.474 29.8366L197.883 24.8537L195.474 29.8366Z" stroke="#152633" stroke-width="2" stroke-linecap="round" stroke-linejoin="round"/>
<path fill-rule="evenodd" clip-rule="evenodd" d="M199.256 27.4272C200.452 26.7369 200.862 25.2079 200.171 24.0122C199.481 22.8164 197.952 22.4067 196.756 23.0971C195.56 23.7874 195.151 25.3164 195.841 26.5122C196.532 27.7079 198.06 28.1176 199.256 27.4272Z" fill="white" stroke="#152633" stroke-width="2"/>
<path d="M195.406 41.0414L194.694 40.32L193.391 41.072L193.66 42.0497L192.381 42.788L191.309 37.7117L192.884 36.8025L196.744 40.2689L195.406 41.0414ZM192.624 38.2667L193.108 40.0553L193.955 39.5665L192.648 38.253L192.624 38.2667ZM198.479 37.6335L196.528 38.7598L195.933 37.7297L197.884 36.6034L198.479 37.6335Z" fill="#C51717"/>
<path fill-rule="evenodd" clip-rule="evenodd" d="M185.922 36.8459L181.507 34.1988L185.922 36.8459Z" stroke="#152633" stroke-width="2" stroke-linecap="round" stroke-linejoin="round"/>
<path fill-rule="evenodd" clip-rule="evenodd" d="M182.757 36.3639C183.953 35.6735 184.363 34.1445 183.672 32.9488C182.982 31.7531 181.453 31.3434 180.257 32.0337C179.061 32.7241 178.652 34.2531 179.342 35.4488C180.032 36.6445 181.561 37.0542 182.757 36.3639Z" fill="white" stroke="#152633" stroke-width="2"/>
<path fill-rule="evenodd" clip-rule="evenodd" d="M191.378 56.8736L196.799 59.3981L200.193 57.7264L210.636 58.7368L208.411 77.3872L190.456 76.6693L191.378 56.8736Z" fill="white" stroke="#152633" stroke-width="2"/>
<path d="M199.333 71.0729C197.398 71.2422 196.095 70.1607 195.912 68.0769C195.73 65.993 196.83 64.7057 198.761 64.5368C200.429 64.3909 201.785 65.3663 201.926 66.9331L200.149 67.0886C200.042 66.3745 199.532 65.9383 198.889 65.9946C198.127 66.0613 197.704 66.7776 197.803 67.907C197.903 69.0497 198.439 69.6821 199.21 69.6147C199.849 69.5588 200.272 69.0497 200.265 68.3137L202.042 68.1582C202.171 69.7349 201.036 70.9239 199.333 71.0729Z" fill="#C51717"/>
<path fill-rule="evenodd" clip-rule="evenodd" d="M203.38 61.4075L206.017 57.2726L203.38 61.4075Z" stroke="#152633" stroke-width="2" stroke-linecap="round" stroke-linejoin="round"/>
<path fill-rule="evenodd" clip-rule="evenodd" d="M204.96 59.5383C206.211 60.1218 207.699 59.5804 208.282 58.329C208.866 57.0777 208.324 55.5902 207.073 55.0067C205.822 54.4232 204.334 54.9646 203.751 56.2159C203.167 57.4673 203.709 58.9547 204.96 59.5383Z" fill="white" stroke="#152633" stroke-width="2"/>
<path fill-rule="evenodd" clip-rule="evenodd" d="M57.8773 48.6225L82.4544 49.5702L82.3773 70.1225L57.8773 71.6225L57.8773 48.6225Z" fill="white" stroke="#152633" stroke-width="2"/>
<path d="M61.8767 58.2444L70.1265 58.0131" stroke="#152633" stroke-width="2"/>
<path d="M61.8767 62.2444L67.1379 62.2745" stroke="#152633" stroke-width="2"/>
<path d="M73.5772 66.3809L73.2363 65.426L71.7382 65.5571L71.5683 66.5566L70.0973 66.6853L71.2712 61.6317L73.0827 61.4732L75.1163 66.2462L73.5772 66.3809ZM72.2285 62.6904L71.9113 64.5161L72.8851 64.4309L72.2557 62.6881L72.2285 62.6904ZM77.802 64.5908L75.5582 64.7871L75.4545 63.6022L77.6984 63.4059L77.802 64.5908Z" fill="#C51717"/>
<path fill-rule="evenodd" clip-rule="evenodd" d="M76.9739 53.8365L76.9739 49.3365L76.9739 53.8365Z" stroke="#152633" stroke-width="2" stroke-linecap="round" stroke-linejoin="round"/>
<path fill-rule="evenodd" clip-rule="evenodd" d="M75.778 51.3716C77.0294 51.9551 78.5168 51.4138 79.1003 50.1624C79.6838 48.9111 79.1425 47.4236 77.8911 46.8401C76.6398 46.2566 75.1523 46.798 74.5688 48.0493C73.9853 49.3007 74.5267 50.7881 75.778 51.3716Z" fill="white" stroke="#152633" stroke-width="2"/>
<path fill-rule="evenodd" clip-rule="evenodd" d="M126.919 56.6225L151.496 57.5702L151.419 80.1225L126.919 79.6225L126.919 56.6225Z" fill="white" stroke="#152633" stroke-width="2"/>
<path d="M138.039 70.519L135.187 70.7686L134.695 65.1533L137.454 64.9119C138.602 64.8115 139.321 65.2779 139.398 66.1535C139.455 66.7995 139.007 67.3288 138.364 67.4674L138.367 67.4985C139.127 67.4516 139.812 67.9681 139.877 68.7114C139.963 69.6959 139.241 70.4138 138.039 70.519ZM136.444 66.1414L136.542 67.2582L137.18 67.2024C137.604 67.1652 137.85 66.9203 137.82 66.5817C137.79 66.2354 137.522 66.0471 137.106 66.0835L136.444 66.1414ZM136.737 69.4918L137.442 69.4302C137.952 69.3856 138.223 69.1305 138.186 68.7063C138.151 68.3055 137.835 68.0979 137.341 68.1412L136.625 68.2038L136.737 69.4918ZM143.482 68.4195L143.617 69.9566L142.216 70.0791L142.081 68.542L140.622 68.6697L140.504 67.3155L141.963 67.1878L141.828 65.6507L143.229 65.5282L143.364 67.0653L144.823 66.9376L144.941 68.2918L143.482 68.4195Z" fill="#C51717"/>
<path fill-rule="evenodd" clip-rule="evenodd" d="M146.016 61.8365L146.016 57.3365L146.016 61.8365Z" stroke="#152633" stroke-width="2" stroke-linecap="round" stroke-linejoin="round"/>
<path fill-rule="evenodd" clip-rule="evenodd" d="M144.82 59.3716C146.071 59.9551 147.559 59.4138 148.142 58.1624C148.726 56.9111 148.184 55.4236 146.933 54.8401C145.682 54.2566 144.194 54.798 143.611 56.0493C143.027 57.3007 143.568 58.7881 144.82 59.3716Z" fill="white" stroke="#152633" stroke-width="2"/>
<path fill-rule="evenodd" clip-rule="evenodd" d="M129.634 47.2837L144.464 40.0506L146.25 40.2918L146.711 38.9546L151.205 36.7628L157.342 49.3459L156.86 52.919L159.972 54.7387L159.512 56.0758L160.849 56.5363L161.726 58.3338L154.535 61.8408L146.479 62.4322L145.12 64.2077L143.312 66.2025L139.519 65.2706L138.423 63.0236L136.648 61.6644L131.168 50.4295L131.409 48.6429L129.634 47.2837Z" fill="white" stroke="#152633" stroke-width="2"/>
<path fill-rule="evenodd" clip-rule="evenodd" d="M138.435 45.3508L138.879 40.2222L138.435 45.3508Z" stroke="#152633" stroke-width="2" stroke-linecap="round" stroke-linejoin="round"/>
<path fill-rule="evenodd" clip-rule="evenodd" d="M137.481 42.2948C138.626 43.0669 140.179 42.7648 140.951 41.6202C141.724 40.4755 141.422 38.9217 140.277 38.1496C139.132 37.3775 137.578 37.6795 136.806 38.8242C136.034 39.9689 136.336 41.5227 137.481 42.2948Z" fill="white" stroke="#152633" stroke-width="2"/>
<path d="M137.174 53.6193L142.567 50.989L147.96 48.3588" stroke="#152633" stroke-width="2"/>
<path d="M135.421 50.0242L138.567 48.4899L141.712 46.9556" stroke="#152633" stroke-width="2"/>
<path d="M140.681 56.8097L146.973 53.7411L153.264 50.6725" stroke="#152633" stroke-width="2"/>
<path d="M144.85 43.1493L146.954 43.2964C148.448 43.4008 149.264 44.3111 149.154 45.8864C149.044 47.4616 148.1 48.3207 146.61 48.2165L144.506 48.0694L144.85 43.1493ZM146.216 44.3994L146.032 47.0214L146.486 47.0532C147.209 47.1037 147.618 46.6903 147.681 45.7834C147.739 44.9548 147.361 44.4795 146.669 44.4311L146.216 44.3994Z" fill="#C51717"/>
<path fill-rule="evenodd" clip-rule="evenodd" d="M34.4897 35.8823L41.474 41.3366L43.9659 46.8973L43.5087 48.6411L45.1054 50.2066L43.8655 52.7488L46.4077 53.9887L49.0122 61.5528L47.7723 64.095L49.5318 66.1332L49.2374 68.3498L51.1596 70.8608L52.4307 71.4808L54.5469 77.6267L53.307 80.1688L23.5231 90.4242L20.0584 90.2421L19.6839 88.3015L17.966 88.1072L15.5866 87.3401L11.6798 75.9938L12.7569 72.9789L10.2148 71.739L10.5092 69.5224L8.42415 66.5387L1.75 47.1555L34.4897 35.8823Z" fill="white" stroke="#152633" stroke-width="2"/>
<path d="M34.4741 35.8365L35.9741 42.8365L41.9741 41.3365" stroke="#152633" stroke-width="2"/>
<path d="M10.4741 57.8365L17.9741 55.3365" stroke="#152633" stroke-width="2"/>
<path d="M12.4741 64.3365L19.9741 61.8365L24.4741 60.8365L27.9741 58.8365L33.4741 57.3365" stroke="#152633" stroke-width="2"/>
<path d="M14.4741 68.3365L20.9741 66.8365L29.9741 62.8365L37.9741 61.3365" stroke="#152633" stroke-width="2"/>
<path d="M16.4741 73.3365L23.9741 70.8365L31.4741 68.3365L42.9741 64.8365" stroke="#152633" stroke-width="2"/>
<path d="M18.4741 78.3365L24.4741 77.3365L33.9741 72.8365L39.4741 71.3365" stroke="#152633" stroke-width="2"/>
<path d="M21.4741 84.3365L28.9741 81.8365" stroke="#152633" stroke-width="2"/>
<path d="M28.4741 44.3365L25.9741 39.8365" stroke="#152633" stroke-width="2" stroke-linecap="round"/>
<path d="M25.9741 42.3365C27.3548 42.3365 28.4741 41.2173 28.4741 39.8365C28.4741 38.4558 27.3548 37.3365 25.9741 37.3365C24.5934 37.3365 23.4741 38.4558 23.4741 39.8365C23.4741 41.2173 24.5934 42.3365 25.9741 42.3365Z" fill="white" stroke="#152633" stroke-width="2"/>
<path d="M40.1261 80.2209L37.8254 82.9626L32.428 78.4336L34.6533 75.7816C35.5791 74.6782 36.6271 74.4548 37.4687 75.161C38.0896 75.682 38.1617 76.5456 37.7161 77.2362L37.746 77.2613C38.3767 76.5476 39.4382 76.3993 40.1526 76.9988C41.0989 77.7928 41.0959 79.0651 40.1261 80.2209ZM34.8472 77.761L35.9207 78.6618L36.4355 78.0483C36.7776 77.6406 36.7778 77.2074 36.4524 76.9343C36.1195 76.655 35.7166 76.7249 35.3808 77.1251L34.8472 77.761ZM38.0677 80.4633L38.6358 79.7863C39.047 79.2963 39.0617 78.8306 38.654 78.4885C38.2687 78.1652 37.8058 78.2612 37.4072 78.7362L36.8297 79.4244L38.0677 80.4633ZM42.7958 73.8943L40.7275 76.3593L39.4258 75.267L41.4941 72.8021L42.7958 73.8943Z" fill="#C51717"/>
<path fill-rule="evenodd" clip-rule="evenodd" d="M188.474 63.3365L194.59 78.2487L198.496 89.595L197.974 91.8365L199.961 93.8498L199.974 98.3365L202.474 99.3365L205.474 105.837L171.974 117.837L169.474 111.337L165.974 101.837L162.974 93.3365L155.974 74.8365L188.474 63.3365Z" fill="white" stroke="#152633" stroke-width="2"/>
<path d="M163.198 83.3365L170.698 80.8365" stroke="#152633" stroke-width="2"/>
<path d="M165.198 88.3365L178.698 83.8365" stroke="#152633" stroke-width="2"/>
<path d="M167.198 92.8365L174.698 90.3365L179.198 89.3365L182.698 87.3365L188.198 85.8365" stroke="#152633" stroke-width="2"/>
<path d="M169.198 97.8365L175.198 96.8365L184.698 92.3365L190.198 90.8365" stroke="#152633" stroke-width="2"/>
<path d="M180.467 107.277L179.584 106.527L178.176 107.513L178.579 108.599L177.197 109.567L175.471 103.895L177.173 102.703L181.913 106.265L180.467 107.277ZM177.023 104.395L177.752 106.384L178.668 105.743L177.049 104.378L177.023 104.395ZM183.917 102.888L184.802 104.151L183.65 104.958L182.765 103.694L181.565 104.534L180.785 103.421L181.985 102.581L181.1 101.317L182.252 100.51L183.137 101.774L184.337 100.934L185.117 102.047L183.917 102.888Z" fill="#C51717"/>
<path fill-rule="evenodd" clip-rule="evenodd" d="M125.899 38.5864L133.318 51.6711L132.477 54.2854L118.896 86.9595L89.1977 75.2471L86.6197 72.9251L84.198 70.8365L84.9708 67.8557L89.0751 56.5794L90.6142 52.3508L92.4953 47.1824L99.5067 27.9187L125.899 38.5864Z" fill="white" stroke="#152633" stroke-width="2"/>
<path d="M125.51 38.2717L125.38 47.173L133.318 51.6712" stroke="#152633" stroke-width="2"/>
<path d="M99.5646 41.7097L106.967 44.4867" stroke="#152633" stroke-width="2"/>
<path d="M97.1763 49.4262L104.578 52.2033L117.902 57.2019" stroke="#152633" stroke-width="2"/>
<path d="M95.4361 53.1641L118.104 62.5132" stroke="#152633" stroke-width="2"/>
<path d="M93.8438 58.3086L108.506 64.3556" stroke="#152633" stroke-width="2"/>
<path d="M92.2514 63.4529L99.6533 66.2299" stroke="#152633" stroke-width="2"/>
<path d="M103.989 33.0681L104.878 27.9977" stroke="#152633" stroke-width="2" stroke-linecap="round"/>
<path d="M103.305 29.9406C104.378 30.8095 105.952 30.644 106.821 29.571C107.69 28.498 107.524 26.9238 106.451 26.0549C105.378 25.186 103.804 25.3514 102.935 26.4244C102.066 27.4974 102.232 29.0717 103.305 29.9406Z" fill="white" stroke="#152633" stroke-width="2"/>
<path d="M116.409 47.8933L116.768 46.4901L114.889 45.4485L113.89 46.4967L112.045 45.474L117.472 40.4265L119.744 41.6859L118.34 48.9633L116.409 47.8933ZM117.76 42.4451L115.926 44.3539L117.147 45.0309L117.794 42.4641L117.76 42.4451Z" fill="#C51717"/>
<path fill-rule="evenodd" clip-rule="evenodd" d="M130.86 86.3631L139.657 91.765L139.485 124.461L97.4928 121.654L99.8316 85.6847L130.86 86.3631Z" fill="white" stroke="#152633" stroke-width="2"/>
<path d="M130.387 86.2003L133.309 94.6096L138.717 92.107" stroke="#152633" stroke-width="2"/>
<path d="M102.397 96.8539L110.303 96.9319" stroke="#152633" stroke-width="2"/>
<path d="M125.257 118.85L133.163 118.928" stroke="#152633" stroke-width="2"/>
<path d="M102.108 103.043L109.671 102.181L113.694 103.157L124.243 103.261" stroke="#152633" stroke-width="2"/>
<path d="M101.154 108.432L125.652 109.464" stroke="#152633" stroke-width="2"/>
<path d="M107.483 115.859L123.329 116.527" stroke="#152633" stroke-width="2"/>
<path d="M107.746 121.238L115.652 121.316" stroke="#152633" stroke-width="2"/>
<path d="M108.384 88.6714L107.485 83.6027" stroke="#152633" stroke-width="2" stroke-linecap="round"/>
<path d="M106.671 85.9664C107.977 86.416 109.399 85.7221 109.849 84.4166C110.298 83.1111 109.605 81.6884 108.299 81.2388C106.994 80.7893 105.571 81.4832 105.121 82.7887C104.672 84.0942 105.366 85.5169 106.671 85.9664Z" fill="white" stroke="#152633" stroke-width="2"/>
<path d="M129.831 111.168L128.887 110.069L126.956 111.011L127.241 112.431L125.346 113.355L124.324 106.014L126.659 104.876L131.814 110.2L129.831 111.168ZM126.143 106.936L126.654 109.534L127.909 108.921L126.178 106.919L126.143 106.936ZM134.549 106.618L131.657 108.028L130.912 106.501L133.804 105.09L134.549 106.618Z" fill="#C51717"/>
<path fill-rule="evenodd" clip-rule="evenodd" d="M185.474 11.3366L186.974 49.3366L151.474 49.3366L151.474 39.8366L153.474 36.3366L149.974 30.3366L149.474 16.3366L157.474 10.3366L185.474 11.3366Z" fill="white" stroke="#152633" stroke-width="2"/>
<path d="M149.974 16.3365L155.974 16.3365L157.474 10.3365" stroke="#152633" stroke-width="2"/>
<path d="M155.42 22.2441L163.302 21.6328" stroke="#152633" stroke-width="2"/>
<path d="M156.516 28.247L164.398 27.6357L178.586 26.5353" stroke="#152633" stroke-width="2"/>
<path d="M156.519 32.3701L175.192 30.8117" stroke="#152633" stroke-width="2"/>
<path d="M157.981 43.0407L165.863 42.4294" stroke="#152633" stroke-width="2"/>
<path d="M178.974 15.3365L181.44 10.5712" stroke="#152633" stroke-width="2" stroke-linecap="round"/>
<path d="M180.835 12.9971C182.175 13.3311 183.532 12.5158 183.866 11.1761C184.2 9.83642 183.385 8.4796 182.045 8.14558C180.705 7.81155 179.348 8.62681 179.014 9.96651C178.68 11.3062 179.496 12.663 180.835 12.9971Z" fill="white" stroke="#152633" stroke-width="2"/>
<path d="M178.022 45.7646C175.869 45.614 174.626 44.2007 174.788 41.8821C174.951 39.5636 176.382 38.3421 178.53 38.4923C180.386 38.6221 181.704 39.9281 181.587 41.6723L179.61 41.534C179.617 40.7317 179.133 40.1644 178.417 40.1143C177.569 40.055 176.981 40.7677 176.893 42.0244C176.804 43.2957 177.283 44.0829 178.14 44.1429C178.851 44.1926 179.404 43.7075 179.524 42.8985L181.502 43.0368C181.369 44.7897 179.916 45.8971 178.022 45.7646Z" fill="#C51717"/>
<path fill-rule="evenodd" clip-rule="evenodd" d="M79.9019 63.1959L95.7627 67.7439L96.9289 69.1187L98.1658 68.433L102.972 69.8112L96.3568 92.8815L73.2866 86.2662L79.9019 63.1959Z" fill="white" stroke="#152633" stroke-width="2"/>
<path d="M84.6509 81.8293L81.3982 80.8966L83.3403 74.1237L86.4992 75.0294C87.8509 75.4171 88.4658 76.2842 88.1643 77.3356C87.9557 78.0631 87.235 78.5218 86.4886 78.4145L86.463 78.5037C87.3366 78.805 87.8241 79.6914 87.5764 80.5551C87.2359 81.7426 86.1013 82.2452 84.6509 81.8293ZM84.7143 75.8333L84.2715 77.3775L85.1821 77.6386C85.811 77.8189 86.2606 77.6329 86.3979 77.1541C86.5365 76.6707 86.2773 76.2814 85.6906 76.1132L84.7143 75.8333ZM83.4694 80.1749L84.5114 80.4737C85.2248 80.6783 85.7046 80.4755 85.8688 79.9029C86.0276 79.349 85.7174 78.9248 85.004 78.7202L83.9714 78.4242L83.4694 80.1749ZM92.1917 81.8023L91.652 83.6844L90.1829 83.2632L90.7226 81.381L88.9296 80.8669L89.3401 79.4353L91.1331 79.9495L91.6728 78.0673L93.1419 78.4886L92.6022 80.3707L94.3905 80.8835L93.98 82.3151L92.1917 81.8023Z" fill="#C51717"/>
<path fill-rule="evenodd" clip-rule="evenodd" d="M85.974 70.8366L87.3208 66.1035L85.974 70.8366Z" stroke="#152633" stroke-width="2" stroke-linecap="round" stroke-linejoin="round"/>
<path fill-rule="evenodd" clip-rule="evenodd" d="M84.8951 66.7083C85.2291 68.048 86.5859 68.8633 87.9256 68.5292C89.2653 68.1952 90.0806 66.8384 89.7465 65.4987C89.4125 64.159 88.0557 63.3437 86.716 63.6778C85.3763 64.0118 84.561 65.3686 84.8951 66.7083Z" fill="white" stroke="#152633" stroke-width="2"/>
<path fill-rule="evenodd" clip-rule="evenodd" d="M156.474 42.087L171.474 42.8365L178.474 42.087V44.8365L180.474 45.3365V66.087H156.474L156.212 49.6726L156.474 42.087Z" fill="white" stroke="#152633" stroke-width="2"/>
<path d="M179.198 69.8365L176.698 65.3365" stroke="#152633" stroke-width="2" stroke-linecap="round"/>
<path d="M176.698 67.8365C178.079 67.8365 179.198 66.7173 179.198 65.3365C179.198 63.9558 178.079 62.8365 176.698 62.8365C175.317 62.8365 174.198 63.9558 174.198 65.3365C174.198 66.7173 175.317 67.8365 176.698 67.8365Z" fill="white" stroke="#152633" stroke-width="2"/>
<path d="M166.838 58.087H163.474V51.0411H166.75C168.137 51.0411 168.972 51.7101 168.972 52.7989C168.972 53.59 168.376 54.2198 167.595 54.3273V54.3663C168.547 54.4103 169.299 55.1183 169.299 56.0558C169.299 57.2911 168.347 58.087 166.838 58.087ZM165.266 52.3107V53.9122H166.189C166.838 53.9122 167.229 53.6046 167.229 53.0968C167.229 52.6036 166.877 52.3107 166.277 52.3107H165.266ZM165.266 56.8175H166.33C167.068 56.8175 167.478 56.4952 167.478 55.8995C167.478 55.3234 167.058 55.0011 166.321 55.0011H165.266V56.8175ZM173.371 55.963H170.158V54.4786H173.371V55.963Z" fill="#C51717"/>
<path fill-rule="evenodd" clip-rule="evenodd" d="M170.221 45.6148L168.946 40.4743L170.221 45.6148Z" stroke="#152633" stroke-width="2" stroke-linecap="round" stroke-linejoin="round"/>
<path fill-rule="evenodd" clip-rule="evenodd" d="M166.242 41.0871C166.932 42.2828 168.461 42.6925 169.657 42.0022C170.853 41.3118 171.262 39.7828 170.572 38.5871C169.882 37.3914 168.353 36.9817 167.157 37.672C165.961 38.3624 165.551 39.8914 166.242 41.0871Z" fill="white" stroke="#152633" stroke-width="2"/>
<path fill-rule="evenodd" clip-rule="evenodd" d="M62.4741 83.3364H78.9741L80.4741 84.3364L81.4741 83.3364H86.4741V107.336H62.4741V83.3364Z" fill="white" stroke="#152633" stroke-width="2"/>
<path d="M70.8472 90.8813H74.2808C76.8354 90.8813 78.3354 92.3638 78.3354 95.0591C78.3354 97.7603 76.8296 99.3364 74.2808 99.3364H70.8472V90.8813ZM72.9976 92.6157V97.602H73.9995C75.3999 97.602 76.1499 96.7524 76.1499 95.0649C76.1499 93.4771 75.3589 92.6157 73.9995 92.6157H72.9976Z" fill="#C51717"/>
<path fill-rule="evenodd" clip-rule="evenodd" d="M67.76 88.5015L70.4071 84.0864L67.76 88.5015Z" stroke="#152633" stroke-width="2" stroke-linecap="round" stroke-linejoin="round"/>
<path fill-rule="evenodd" clip-rule="evenodd" d="M68.2421 85.3365C68.9324 86.5322 70.4614 86.9419 71.6572 86.2515C72.8529 85.5612 73.2626 84.0322 72.5722 82.8365C71.8819 81.6407 70.3529 81.2311 69.1572 81.9214C67.9614 82.6118 67.5517 84.1407 68.2421 85.3365Z" fill="white" stroke="#152633" stroke-width="2"/>
<path fill-rule="evenodd" clip-rule="evenodd" d="M141.198 71.028L162.217 75.6496L160.643 77.6364L158.941 81.2943L159.667 87.9296L157.751 92.6984L157.113 96.0236L136.474 91.4897L141.198 71.028Z" fill="white" stroke="#152633" stroke-width="2"/>
<path fill-rule="evenodd" clip-rule="evenodd" d="M156.474 77.3365L155.958 71.837L156.474 77.3365Z" stroke="#152633" stroke-width="2" stroke-linecap="round" stroke-linejoin="round"/>
<path fill-rule="evenodd" clip-rule="evenodd" d="M154.708 74.0022C155.904 74.6925 157.433 74.2828 158.123 73.0871C158.814 71.8914 158.404 70.3624 157.208 69.672C156.012 68.9817 154.483 69.3914 153.793 70.5871C153.103 71.7828 153.512 73.3118 154.708 74.0022Z" fill="white" stroke="#152633" stroke-width="2"/>
<path d="M143.708 78.2701L151.208 79.7701" stroke="#152633" stroke-width="2"/>
<path d="M142.708 82.2701L150.208 83.7701" stroke="#152633" stroke-width="2"/>
<path d="M152.1 91.043L149.6 91.2177L149.256 86.2976L151.674 86.1286C152.68 86.0582 153.302 86.4773 153.355 87.2445C153.395 87.8105 152.995 88.2667 152.431 88.3781L152.433 88.4054C153.099 88.376 153.689 88.8383 153.735 89.4895C153.795 90.3522 153.153 90.9693 152.1 91.043ZM150.771 87.1887L150.84 88.1673L151.399 88.1282C151.771 88.1022 151.989 87.8916 151.968 87.595C151.947 87.2915 151.716 87.1227 151.351 87.1482L150.771 87.1887ZM150.977 90.1244L151.594 90.0813C152.041 90.05 152.282 89.831 152.256 89.4593C152.232 89.1081 151.958 88.9217 151.525 88.952L150.898 88.9958L150.977 90.1244Z" fill="#C51717"/>
<path fill-rule="evenodd" clip-rule="evenodd" d="M144.474 106.336H160.974L162.474 107.336L163.474 106.336H168.474V120.336L166.474 123.336L168.474 126.336L167.474 127.336L168.474 128.336V130.336H160.474L152.974 127.336L150.974 128.336L148.474 129.336L145.474 126.836V124.336L144.474 122.336V109.836L145.474 108.336L144.474 106.336Z" fill="white" stroke="#152633" stroke-width="2"/>
<path fill-rule="evenodd" clip-rule="evenodd" d="M148.76 108.501L151.407 104.086L148.76 108.501Z" stroke="#152633" stroke-width="2" stroke-linecap="round" stroke-linejoin="round"/>
<path fill-rule="evenodd" clip-rule="evenodd" d="M149.242 105.336C149.932 106.532 151.461 106.942 152.657 106.252C153.853 105.561 154.263 104.032 153.572 102.836C152.882 101.641 151.353 101.231 150.157 101.921C148.961 102.612 148.552 104.141 149.242 105.336Z" fill="white" stroke="#152633" stroke-width="2"/>
<path d="M148.474 119.336H153.474H158.474" stroke="#152633" stroke-width="2"/>
<path d="M148.474 115.336H154.474H160.474" stroke="#152633" stroke-width="2"/>
<path d="M148.474 111.336H151.974H155.474" stroke="#152633" stroke-width="2"/>
<path d="M148.474 123.336H155.474H162.474" stroke="#152633" stroke-width="2"/>
<path d="M153.474 127.336H156.474H159.474" stroke="#152633" stroke-width="2"/>
<path d="M159.813 114.875L157.643 113.622L160.109 109.351L162.208 110.562C163.081 111.067 163.363 111.762 162.978 112.428C162.694 112.919 162.108 113.074 161.578 112.851L161.564 112.874C162.133 113.222 162.364 113.936 162.037 114.502C161.605 115.25 160.728 115.403 159.813 114.875ZM160.867 110.937L160.377 111.786L160.862 112.067C161.185 112.253 161.483 112.2 161.632 111.943C161.784 111.679 161.687 111.41 161.37 111.227L160.867 110.937ZM159.396 113.485L159.931 113.795C160.319 114.019 160.642 113.972 160.828 113.65C161.004 113.345 160.882 113.037 160.506 112.82L159.961 112.506L159.396 113.485Z" fill="#C51717"/>
<path fill-rule="evenodd" clip-rule="evenodd" d="M29.9739 84.8365L37.9739 86.3365L48.6362 85.7368L47.4108 104.387L28.4556 103.669L28.9346 97.7286L29.201 94.4239L29.4969 90.7535L29.9739 84.8365Z" fill="white" stroke="#152633" stroke-width="2"/>
<path d="M36.7825 98.0982L36.4417 97.1433L34.9435 97.2744L34.7736 98.2739L33.3027 98.4026L34.4765 93.3489L36.288 93.1905L38.3216 97.9635L36.7825 98.0982ZM35.4338 94.4077L35.1166 96.2333L36.0904 96.1481L35.461 94.4053L35.4338 94.4077ZM41.3172 96.281L41.4349 97.626L40.2091 97.7332L40.0914 96.3882L38.8146 96.4999L38.7109 95.315L39.9877 95.2033L39.8701 93.8583L41.0959 93.7511L41.2135 95.0961L42.4904 94.9844L42.5941 96.1693L41.3172 96.281Z" fill="#C51717"/>
<path fill-rule="evenodd" clip-rule="evenodd" d="M41.3805 88.4075L44.0165 84.2726L41.3805 88.4075Z" stroke="#152633" stroke-width="2" stroke-linecap="round" stroke-linejoin="round"/>
<path fill-rule="evenodd" clip-rule="evenodd" d="M42.9599 86.5383C44.2113 87.1218 45.6987 86.5804 46.2822 85.329C46.8657 84.0777 46.3243 82.5902 45.073 82.0067C43.8216 81.4232 42.3342 81.9646 41.7507 83.2159C41.1672 84.4673 41.7086 85.9547 42.9599 86.5383Z" fill="white" stroke="#152633" stroke-width="2"/>
<path fill-rule="evenodd" clip-rule="evenodd" d="M13.9739 92.3366L29.2302 100.581L30.2202 102.087L31.5315 101.558L36.134 103.511L30.6637 116.398L26.7564 125.603L19.3924 122.477L3.97388 114.337L13.9739 92.3366Z" fill="white" stroke="#152633" stroke-width="2"/>
<path fill-rule="evenodd" clip-rule="evenodd" d="M17.1411 97.8013L21.3029 94.7715L17.1411 97.8013Z" stroke="#152633" stroke-width="2" stroke-linecap="round" stroke-linejoin="round"/>
<path fill-rule="evenodd" clip-rule="evenodd" d="M18.8216 95.0761C18.9898 96.4465 20.2372 97.4211 21.6076 97.2528C22.978 97.0845 23.9526 95.8372 23.7843 94.4668C23.616 93.0963 22.3687 92.1218 20.9983 92.2901C19.6278 92.4583 18.6533 93.7057 18.8216 95.0761Z" fill="white" stroke="#152633" stroke-width="2"/>
<path d="M12.6444 107.663L15.247 108.617L19.3928 110.528L22.8495 111.57" stroke="#152633" stroke-width="2"/>
<path d="M14.2073 103.981L19.7303 106.325L25.2533 108.67" stroke="#152633" stroke-width="2"/>
<path d="M15.7703 100.299L18.992 101.667L22.2138 103.034" stroke="#152633" stroke-width="2"/>
<path d="M11.0814 111.345L15.4367 112.87L17.525 115.08L21.9685 116.815" stroke="#152633" stroke-width="2"/>
<path d="M23.0866 119.419L23.7158 118.624L22.8107 117.423L21.873 117.808L20.9844 116.629L25.8922 114.947L26.9865 116.399L24.0164 120.653L23.0866 119.419ZM25.5015 116.319L23.7853 117.018L24.3736 117.799L25.518 116.341L25.5015 116.319Z" fill="#C51717"/>
</g>
<defs>
<clipPath id="clip0_4274_28711">
<rect width="216.417" height="133.898" fill="white" transform="translate(0.25 0.97937)"/>
</clipPath>
</defs>
</svg>
