<svg xmlns="http://www.w3.org/2000/svg" viewBox="0 0 24 24"><g><path fill-rule="evenodd" stroke="none" stroke-width="1" d="M1344.962 112.94C1321.584 47.324 1259.466 0 1185.942 0H734.177c-73.525 0-135.643 47.323-159.022 112.94H113V1920h1694.118V112.94h-462.156zm349.214 1694.119H225.942V225.882h338.823v225.884h790.589V225.882h338.822v1581.177zM677.706 225.882v-56.47c0-31.171 25.299-56.471 56.47-56.471h451.766c31.172 0 56.47 25.3 56.47 56.472v169.412H677.706V225.882zm-225.86 790.589h338.823V677.647H451.846v338.824zm112.941-112.942h112.941V790.588H564.787v112.941zm338.824-112.941h564.707V677.647H903.611v112.941zm0 564.706h564.707v-112.941H903.611v112.941zm0-338.823h338.823V903.529H903.611v112.942zm0 564.706h338.823v-112.941H903.611v112.941zm-338.824-112.942h112.941v-112.941H564.787v112.941zm-112.941 112.942h338.823v-338.824H451.846v338.824z" transform="matrix(0.010416666666666666 0 0 0.010416666666666666 2 2)"/></g></svg>