<svg width="118" height="167" viewBox="0 0 118 167" fill="none" xmlns="http://www.w3.org/2000/svg">
<g clip-path="url(#clip0_3306_7033)">
<path d="M52.5 165.904C81.4949 165.904 105 162.77 105 158.904C105 155.038 81.4949 151.904 52.5 151.904C23.5051 151.904 0 155.038 0 158.904C0 162.77 23.5051 165.904 52.5 165.904Z" fill="black" fill-opacity="0.05"/>
<path fill-rule="evenodd" clip-rule="evenodd" d="M47 119.904L47 152.904C47 156.218 44.3137 158.904 41 158.904H16C12.6863 158.904 10 156.218 10 152.904L10 119.904L47 119.904Z" fill="#EBEDEE" stroke="#C7CDD1" stroke-width="2" stroke-linejoin="round"/>
<path fill-rule="evenodd" clip-rule="evenodd" d="M22 119.904L22 152.904C22 156.218 19.3137 158.904 16 158.904C12.6863 158.904 10 156.218 10 152.904L10 119.904H22Z" fill="white" stroke="#C7CDD1" stroke-width="2" stroke-linejoin="round"/>
<path fill-rule="evenodd" clip-rule="evenodd" d="M42 110.904H75C78.3137 110.904 81 113.59 81 116.904C81 120.218 78.3137 122.904 75 122.904H42V110.904Z" fill="#EBEDEE" stroke="#C7CDD1" stroke-width="2" stroke-linejoin="round"/>
<path fill-rule="evenodd" clip-rule="evenodd" d="M45 134.904H78C81.3137 134.904 84 137.59 84 140.904C84 144.218 81.3137 146.904 78 146.904H45V134.904Z" fill="#EBEDEE" stroke="#C7CDD1" stroke-width="2" stroke-linejoin="round"/>
<path fill-rule="evenodd" clip-rule="evenodd" d="M56 146.904H89C92.3137 146.904 95 149.59 95 152.904C95 156.218 92.3137 158.904 89 158.904H56V146.904Z" fill="#EBEDEE" stroke="#C7CDD1" stroke-width="2" stroke-linejoin="round"/>
<path fill-rule="evenodd" clip-rule="evenodd" d="M27 110.904H60C63.3137 110.904 66 113.59 66 116.904C66 120.218 63.3137 122.904 60 122.904H27V110.904Z" fill="white" stroke="#C7CDD1" stroke-width="2" stroke-linejoin="round"/>
<path fill-rule="evenodd" clip-rule="evenodd" d="M92 122.904V134.904H59C55.6863 134.904 53 132.218 53 128.904C53 125.59 55.6863 122.904 59 122.904H92Z" fill="white" stroke="#C7CDD1" stroke-width="2" stroke-linejoin="round"/>
<path fill-rule="evenodd" clip-rule="evenodd" d="M77 122.904V134.904H44C40.6863 134.904 38 132.218 38 128.904C38 125.59 40.6863 122.904 44 122.904H77Z" fill="white" stroke="#C7CDD1" stroke-width="2" stroke-linejoin="round"/>
<path fill-rule="evenodd" clip-rule="evenodd" d="M30 134.904H63C66.3137 134.904 69 137.59 69 140.904C69 144.218 66.3137 146.904 63 146.904H30V134.904Z" fill="white" stroke="#C7CDD1" stroke-width="2" stroke-linejoin="round"/>
<path fill-rule="evenodd" clip-rule="evenodd" d="M41 146.904H74C77.3137 146.904 80 149.59 80 152.904C80 156.218 77.3137 158.904 74 158.904H41V146.904Z" fill="white" stroke="#C7CDD1" stroke-width="2" stroke-linejoin="round"/>
<path fill-rule="evenodd" clip-rule="evenodd" d="M38.5 70.4041L48 73.9041L44 82.9041C35.6667 91.5707 30.5 93.0707 28.5 87.4041C26.5 81.7374 29.8333 76.0707 38.5 70.4041Z" fill="#2D3B45" stroke="#152633" stroke-width="2"/>
<path fill-rule="evenodd" clip-rule="evenodd" d="M86.5 70.4041C95.1667 76.0707 98.5 81.7374 96.5 87.4041C94.5 93.0707 89.3333 91.5707 81 82.9041L77 73.9041" fill="#2D3B45"/>
<path d="M86.5 70.4041C95.1667 76.0707 98.5 81.7374 96.5 87.4041C94.5 93.0707 89.3333 91.5707 81 82.9041L77 73.9041" stroke="#152633" stroke-width="2"/>
<path fill-rule="evenodd" clip-rule="evenodd" d="M81.9319 74.9041C75.6098 77.0094 68.3946 78.1537 60.7321 78.1537C53.9021 78.1537 47.5841 77.3479 42.0066 75.7681C39.7669 80.7831 37.23 87.2091 36.6744 91.6537C35.0402 103.091 44.9821 103.115 62.6359 103.115C80.2898 103.115 89.5124 102.731 87.4974 91.9999C86.1086 84.6071 83.8701 79.0219 81.9319 74.9041Z" fill="white" stroke="#152633" stroke-width="2"/>
<path fill-rule="evenodd" clip-rule="evenodd" d="M19 47.1733C19 67.2502 37.1478 77.981 62.0962 77.981C87.0445 77.981 107.269 65.8656 107.269 47.8656C107.269 25.4982 87.0445 3.90405 62.0962 3.90405C37.1478 3.90405 19 26.0579 19 47.1733Z" fill="white"/>
<path fill-rule="evenodd" clip-rule="evenodd" d="M18.5225 47.2378C18.5225 67.3148 36.6703 78.0455 61.6186 78.0455C86.567 78.0455 106.792 65.9301 106.792 47.9301C106.792 25.5627 86.567 3.9686 61.6186 3.9686C36.6703 3.9686 18.5225 26.1224 18.5225 47.2378Z" stroke="#152633" stroke-width="2"/>
<path fill-rule="evenodd" clip-rule="evenodd" d="M68.5 59.1925C68.5 61.0088 65.7019 62.481 62.25 62.481C58.7981 62.481 56 61.0088 56 59.1925C56 57.3762 58.7981 55.9041 62.25 55.9041C65.7019 55.9041 68.5 57.3762 68.5 59.1925Z" fill="#152633"/>
<path fill-rule="evenodd" clip-rule="evenodd" d="M83.9456 18.8146C76.3794 18.8146 69.3687 30.8183 69.3687 42.7377C69.3687 53.3846 78.6832 63.1992 87.4071 63.1992C95.3622 63.1992 101.984 54.0758 101.984 42.7377C101.984 37.496 99.7316 31.4121 95.9574 26.5086C92.2334 21.6703 87.7103 18.8146 83.9456 18.8146Z" fill="#2D3B45" stroke="#152633" stroke-width="2"/>
<path fill-rule="evenodd" clip-rule="evenodd" d="M37.5609 63.1993C46.2848 63.1993 55.5994 53.3847 55.5994 42.7378C55.5994 30.8182 48.5888 18.8147 41.0225 18.8147C37.2575 18.8147 32.7345 21.6703 29.0107 26.5088C25.2363 31.412 22.984 37.4956 22.984 42.7378C22.984 54.0759 29.6059 63.1993 37.5609 63.1993Z" fill="#2D3B45" stroke="#152633" stroke-width="2"/>
<path fill-rule="evenodd" clip-rule="evenodd" d="M82.133 54.1538C82.133 56.5008 80.76 58.4035 79.0665 58.4035C77.373 58.4035 76 56.5008 76 54.1538C76 51.8068 77.373 49.9041 79.0665 49.9041C80.76 49.9041 82.133 51.8068 82.133 54.1538Z" fill="white"/>
<path fill-rule="evenodd" clip-rule="evenodd" d="M49.133 54.1538C49.133 56.5008 47.76 58.4035 46.0665 58.4035C44.373 58.4035 43 56.5008 43 54.1538C43 51.8068 44.373 49.9041 46.0665 49.9041C47.76 49.9041 49.133 51.8068 49.133 54.1538Z" fill="white"/>
<path fill-rule="evenodd" clip-rule="evenodd" d="M98.68 23.6287C99.939 23.1064 101.288 22.3562 102.638 21.2762C107.83 17.1224 106.792 10.1993 106.446 8.46855C106.099 6.73778 104.023 -1.56991 97.4456 2.23778C93.198 4.69686 88.8087 8.88601 86.2306 11.5469C91.1159 14.8007 95.3469 18.9373 98.68 23.6287Z" fill="#2D3B45" stroke="#152633" stroke-width="2"/>
<path fill-rule="evenodd" clip-rule="evenodd" d="M25.4326 23.6287C24.174 23.1064 22.8251 22.3562 21.4747 21.2762C16.2824 17.1224 17.3209 10.1993 17.667 8.46855C18.0132 6.73778 20.0901 -1.56991 26.667 2.23778C30.9147 4.69686 35.3039 8.88601 37.8821 11.5469C32.9971 14.8007 28.7661 18.9373 25.4326 23.6287Z" fill="#2D3B45" stroke="#152633" stroke-width="2"/>
<path fill-rule="evenodd" clip-rule="evenodd" d="M44.3001 99.6625C46.2089 107.738 53.5639 111.836 63.2328 111.453C72.073 111.104 80.4403 106.945 82.6688 101.692C84.545 97.268 75.4279 92.0461 63.5164 90.5139C57.7161 89.7677 52.386 90.1089 48.8061 91.5519C44.9671 93.0992 43.3732 95.7412 44.3001 99.6625Z" fill="#2D3B45" stroke="#152633" stroke-width="2"/>
<path fill-rule="evenodd" clip-rule="evenodd" d="M65.5257 109.121L55.7569 108.268C56.571 118.782 53.5861 124.891 46.8022 126.596C17.4959 134.695 34.1842 95.9073 46.8022 93.3499C55.2142 91.6449 61.4554 96.9018 65.5257 109.121Z" fill="#2D3B45" stroke="#152633" stroke-width="2"/>
<path fill-rule="evenodd" clip-rule="evenodd" d="M58.5 109.121C62.5703 96.9018 68.8115 91.6449 77.2235 93.3499C89.8415 95.9073 106.53 134.695 77.2235 126.596C70.4396 124.891 67.4547 118.782 68.2688 108.268L58.5 109.121Z" fill="#2D3B45" stroke="#152633" stroke-width="2"/>
<path fill-rule="evenodd" clip-rule="evenodd" d="M93.5 85.9041L105 94.4041L116 113.404L98 104.904L90 91.4041L93.5 85.9041Z" fill="white" stroke="#C7CDD1" stroke-width="2" stroke-linejoin="round"/>
<path fill-rule="evenodd" clip-rule="evenodd" d="M62 107.904V87.904C66.6667 82.2374 73.1667 80.5707 81.5 82.904C87.5 84.904 89.5 87.904 93 85.404L98 96.404L100.5 104.904L73.5 102.404L62 107.904Z" fill="white" stroke="#C7CDD1" stroke-width="2" stroke-linejoin="round"/>
<path fill-rule="evenodd" clip-rule="evenodd" d="M62 108.904C62.6667 97.904 69.6667 93.904 83 96.904C92.5 98.904 96.5 99.404 98.5 96.904L116.5 113.904C100.833 111.237 90.1667 108.904 84.5 106.904C78.8333 104.904 74.6667 105.904 72 109.904L62 108.904Z" fill="white" stroke="#C7CDD1" stroke-width="2" stroke-linejoin="round"/>
<path fill-rule="evenodd" clip-rule="evenodd" d="M30.5 85.9041L34 91.4041L26 104.904L8 113.404L19 94.4041L30.5 85.9041Z" fill="white" stroke="#C7CDD1" stroke-width="2" stroke-linejoin="round"/>
<path fill-rule="evenodd" clip-rule="evenodd" d="M62 107.904L50.5 102.404L23.5 104.904L26 96.404L31 85.404C34.5 87.904 36.5 84.904 42.5 82.904C50.8333 80.5707 57.3333 82.2374 62 87.904V107.904Z" fill="white" stroke="#C7CDD1" stroke-width="2" stroke-linejoin="round"/>
<path fill-rule="evenodd" clip-rule="evenodd" d="M62 108.904L52 109.904C49.3333 105.904 45.1667 104.904 39.5 106.904C33.8333 108.904 23.1667 111.237 7.5 113.904L25.5 96.904C27.5 99.404 31.5 98.904 41 96.904C54.3333 93.904 61.3333 97.904 62 108.904Z" fill="white" stroke="#C7CDD1" stroke-width="2" stroke-linejoin="round"/>
<path fill-rule="evenodd" clip-rule="evenodd" d="M89 75.9041C84.0294 75.9041 80 79.9335 80 84.9041C80 89.8746 84.0294 93.9041 89 93.9041C93.9706 93.9041 98 89.8746 98 84.9041H95L91 79.9041L89 75.9041Z" fill="#2D3B45"/>
<path fill-rule="evenodd" clip-rule="evenodd" d="M88.5958 76.9141C84.3653 77.1246 81 80.6213 81 84.9041C81 89.3223 84.5817 92.9041 89 92.9041C93.2827 92.9041 96.7795 89.5387 96.99 85.3082L88.5958 76.9141Z" stroke="#152633" stroke-width="2"/>
<path fill-rule="evenodd" clip-rule="evenodd" d="M36 75.9041C40.9706 75.9041 45 79.9335 45 84.9041C45 89.8746 40.9706 93.9041 36 93.9041C31.0294 93.9041 27 89.8746 27 84.9041H30L34 79.9041L36 75.9041Z" fill="#2D3B45"/>
<path fill-rule="evenodd" clip-rule="evenodd" d="M36.4042 76.9141L28.01 85.3082C28.2205 89.5387 31.7172 92.9041 36 92.9041C40.4183 92.9041 44 89.3223 44 84.9041C44 80.6213 40.6346 77.1246 36.4042 76.9141Z" stroke="#152633" stroke-width="2"/>
<path d="M61 68.9041H63" stroke="#152633" stroke-width="2" stroke-linecap="round"/>
</g>
<defs>
<clipPath id="clip0_3306_7033">
<rect width="118" height="166" fill="white" transform="translate(0 0.25)"/>
</clipPath>
</defs>
</svg>
