<svg width="24" height="24" viewBox="0 0 24 24" fill="none" xmlns="http://www.w3.org/2000/svg">
<path d="M5.30775 20.5C4.81058 20.5 4.385 20.323 4.031 19.969C3.677 19.615 3.5 19.1894 3.5 18.6923V5.30775C3.5 4.81058 3.677 4.385 4.031 4.031C4.385 3.677 4.81058 3.5 5.30775 3.5H18.6923C19.1894 3.5 19.615 3.677 19.969 4.031C20.323 4.385 20.5 4.81058 20.5 5.30775V18.6923C20.5 19.1894 20.323 19.615 19.969 19.969C19.615 20.323 19.1894 20.5 18.6923 20.5H5.30775ZM5.30775 19H18.6923C18.7821 19 18.8558 18.9712 18.9135 18.9135C18.9712 18.8558 19 18.7821 19 18.6923V7H5V18.6923C5 18.7821 5.02883 18.8558 5.0865 18.9135C5.14417 18.9712 5.21792 19 5.30775 19ZM7.75 11.75C7.5375 11.75 7.35933 11.6781 7.2155 11.5343C7.07183 11.3904 7 11.2122 7 10.9997C7 10.7871 7.07183 10.609 7.2155 10.4655C7.35933 10.3218 7.5375 10.25 7.75 10.25H16.25C16.4625 10.25 16.6407 10.3219 16.7845 10.4658C16.9282 10.6096 17 10.7878 17 11.0003C17 11.2129 16.9282 11.391 16.7845 11.5345C16.6407 11.6782 16.4625 11.75 16.25 11.75H7.75ZM7.75 15.75C7.5375 15.75 7.35933 15.6781 7.2155 15.5343C7.07183 15.3904 7 15.2122 7 14.9998C7 14.7871 7.07183 14.609 7.2155 14.4655C7.35933 14.3218 7.5375 14.25 7.75 14.25H12.25C12.4625 14.25 12.6407 14.3219 12.7845 14.4658C12.9282 14.6096 13 14.7878 13 15.0003C13 15.2129 12.9282 15.391 12.7845 15.5345C12.6407 15.6782 12.4625 15.75 12.25 15.75H7.75Z" fill="#273540"/>
</svg>
