<svg width="24" height="24" viewBox="0 0 24 24" fill="none" xmlns="http://www.w3.org/2000/svg">
<path d="M9.67125 12.75H3.25C3.0375 12.75 2.85942 12.678 2.71575 12.5342C2.57192 12.3904 2.5 12.2122 2.5 11.9997C2.5 11.787 2.57192 11.609 2.71575 11.4655C2.85942 11.3218 3.0375 11.25 3.25 11.25H9.67125L6.923 8.4672C6.78467 8.3287 6.7145 8.15729 6.7125 7.95295C6.71067 7.74845 6.78408 7.57129 6.93275 7.42145C7.06908 7.28412 7.24258 7.21545 7.45325 7.21545C7.66392 7.21545 7.8385 7.28462 7.977 7.42295L11.9115 11.3672C12.0923 11.548 12.1827 11.759 12.1827 12C12.1827 12.241 12.0923 12.4519 11.9115 12.6327L7.96725 16.577C7.82875 16.7153 7.65733 16.7855 7.453 16.7875C7.2485 16.7893 7.07133 16.7153 6.9215 16.5655C6.78417 16.4281 6.7155 16.2563 6.7155 16.05C6.7155 15.8436 6.78467 15.6712 6.923 15.5327L9.67125 12.75ZM13.7115 16.6345C13.499 16.6345 13.3209 16.5625 13.1773 16.4187C13.0334 16.275 12.9615 16.0969 12.9615 15.8842C12.9615 15.6717 13.0334 15.4936 13.1773 15.35C13.3209 15.2065 13.499 15.1347 13.7115 15.1347H20.75C20.9625 15.1347 21.1406 15.2065 21.2843 15.3502C21.4281 15.494 21.5 15.6723 21.5 15.885C21.5 16.0975 21.4281 16.2755 21.2843 16.4192C21.1406 16.5627 20.9625 16.6345 20.75 16.6345H13.7115ZM13.7115 8.8652C13.499 8.8652 13.3209 8.79337 13.1773 8.6497C13.0334 8.50587 12.9615 8.32762 12.9615 8.11495C12.9615 7.90245 13.0334 7.72437 13.1773 7.5807C13.3209 7.4372 13.499 7.36545 13.7115 7.36545H20.75C20.9625 7.36545 21.1406 7.43737 21.2843 7.5812C21.4281 7.72487 21.5 7.90304 21.5 8.1157C21.5 8.3282 21.4281 8.50629 21.2843 8.64995C21.1406 8.79345 20.9625 8.8652 20.75 8.8652H13.7115ZM16.7115 12.75C16.499 12.75 16.3209 12.678 16.1773 12.5342C16.0334 12.3904 15.9615 12.2122 15.9615 11.9997C15.9615 11.787 16.0334 11.609 16.1773 11.4655C16.3209 11.3218 16.499 11.25 16.7115 11.25H20.75C20.9625 11.25 21.1406 11.3219 21.2843 11.4657C21.4281 11.6095 21.5 11.7877 21.5 12.0002C21.5 12.2129 21.4281 12.391 21.2843 12.5345C21.1406 12.6781 20.9625 12.75 20.75 12.75H16.7115Z" fill="#273540"/>
</svg>
