<svg width="24" height="24" viewBox="0 0 24 24" fill="none" xmlns="http://www.w3.org/2000/svg">
<path d="M6.30775 14.5C5.81058 14.5 5.385 14.323 5.031 13.969C4.677 13.615 4.5 13.1894 4.5 12.6923V9.75C4.5 9.5375 4.57192 9.35933 4.71575 9.2155C4.85958 9.07183 5.03775 9 5.25025 9C5.46292 9 5.641 9.07183 5.7845 9.2155C5.92817 9.35933 6 9.5375 6 9.75V12.6923C6 12.7821 6.02883 12.8558 6.0865 12.9135C6.14417 12.9712 6.21792 13 6.30775 13H17.6923C17.7821 13 17.8558 12.9712 17.9135 12.9135C17.9712 12.8558 18 12.7821 18 12.6923V9.75C18 9.5375 18.0719 9.35933 18.2158 9.2155C18.3596 9.07183 18.5378 9 18.7503 9C18.9629 9 19.141 9.07183 19.2845 9.2155C19.4282 9.35933 19.5 9.5375 19.5 9.75V12.6923C19.5 13.1894 19.323 13.615 18.969 13.969C18.615 14.323 18.1894 14.5 17.6923 14.5H6.30775Z" fill="#273540"/>
</svg>
