<svg width="24" height="24" viewBox="0 0 24 24" fill="none" xmlns="http://www.w3.org/2000/svg">
<path d="M11.9999 13.0635L8.75365 16.3095C8.60881 16.4545 8.43323 16.5253 8.2269 16.522C8.0204 16.5188 7.84473 16.4448 7.6999 16.3C7.55506 16.1552 7.48265 15.9779 7.48265 15.7682C7.48265 15.5586 7.55506 15.3813 7.6999 15.2365L10.9364 12L7.6904 8.77874C7.5454 8.6339 7.47456 8.45665 7.4779 8.24699C7.48106 8.03749 7.55506 7.86032 7.6999 7.71549C7.84473 7.57049 8.02198 7.49799 8.23165 7.49799C8.44131 7.49799 8.61856 7.57049 8.7634 7.71549L11.9999 10.9615L15.2211 7.71549C15.366 7.57049 15.5416 7.49799 15.7479 7.49799C15.9544 7.49799 16.1301 7.57049 16.2749 7.71549C16.4301 7.87049 16.5076 8.05024 16.5076 8.25474C16.5076 8.45924 16.4301 8.6339 16.2749 8.77874L13.0384 12L16.2844 15.2462C16.4294 15.3911 16.5019 15.5667 16.5019 15.773C16.5019 15.9795 16.4294 16.1552 16.2844 16.3C16.1294 16.4552 15.9496 16.5327 15.7451 16.5327C15.5406 16.5327 15.366 16.4552 15.2211 16.3L11.9999 13.0635Z" fill="#273540"/>
</svg>
