<svg width="64" height="64" viewBox="0 0 64 64" fill="none" xmlns="http://www.w3.org/2000/svg">
<path fill-rule="evenodd" clip-rule="evenodd" d="M23.0872 1.25764C25.9164 0.438836 28.9069 0 32 0C35.0931 0 38.0836 0.438836 40.9128 1.25764C40.3011 5.63284 36.5438 9 32 9C27.4562 9 23.6989 5.63284 23.0872 1.25764ZM62.7424 23.0872C63.5612 25.9164 64 28.9069 64 32C64 35.0931 63.5612 38.0836 62.7424 40.9128C58.3672 40.3011 55 36.5438 55 32C55 27.4562 58.3672 23.6989 62.7424 23.0872ZM60.0385 47.4344C57.1153 52.7335 52.7335 57.1153 47.4344 60.0385C44.7748 56.5123 45.0511 51.4758 48.2635 48.2635C51.4758 45.0511 56.5123 44.7748 60.0385 47.4344ZM40.9128 62.7424C38.0836 63.5612 35.0931 64 32 64C28.9069 64 25.9164 63.5612 23.0872 62.7424C23.6989 58.3672 27.4562 55 32 55C36.5438 55 40.3011 58.3672 40.9128 62.7424ZM16.5656 60.0385C11.2665 57.1153 6.88469 52.7335 3.96146 47.4344C7.48768 44.7748 12.5242 45.0511 15.7365 48.2635C18.9489 51.4758 19.2252 56.5123 16.5656 60.0385ZM1.25764 40.9128C0.438836 38.0836 0 35.0931 0 32C0 28.9069 0.438836 25.9164 1.25764 23.0872C5.63284 23.6989 9 27.4562 9 32C9 36.5438 5.63284 40.3011 1.25764 40.9128ZM3.96146 16.5656C6.88469 11.2665 11.2665 6.88469 16.5656 3.96146C19.2252 7.48768 18.9489 12.5242 15.7365 15.7365C12.5242 18.9489 7.48768 19.2252 3.96146 16.5656ZM32 18C30.3431 18 29 16.6569 29 15C29 13.3431 30.3431 12 32 12C33.6569 12 35 13.3431 35 15C35 16.6569 33.6569 18 32 18ZM46 32C46 30.3431 47.3431 29 49 29C50.6569 29 52 30.3431 52 32C52 33.6569 50.6569 35 49 35C47.3431 35 46 33.6569 46 32ZM41.8995 41.8995C43.0711 40.7279 44.9706 40.7279 46.1421 41.8995C47.3137 43.0711 47.3137 44.9706 46.1421 46.1421C44.9706 47.3137 43.0711 47.3137 41.8995 46.1421C40.7279 44.9706 40.7279 43.0711 41.8995 41.8995ZM32 46C33.6569 46 35 47.3431 35 49C35 50.6569 33.6569 52 32 52C30.3431 52 29 50.6569 29 49C29 47.3431 30.3431 46 32 46ZM22.1005 41.8995C23.2721 43.0711 23.2721 44.9706 22.1005 46.1421C20.9289 47.3137 19.0294 47.3137 17.8579 46.1421C16.6863 44.9706 16.6863 43.0711 17.8579 41.8995C19.0294 40.7279 20.9289 40.7279 22.1005 41.8995ZM18 32C18 33.6569 16.6569 35 15 35C13.3431 35 12 33.6569 12 32C12 30.3431 13.3431 29 15 29C16.6569 29 18 30.3431 18 32ZM22.1005 22.1005C20.9289 23.2721 19.0294 23.2721 17.8579 22.1005C16.6863 20.9289 16.6863 19.0294 17.8579 17.8579C19.0294 16.6863 20.9289 16.6863 22.1005 17.8579C23.2721 19.0294 23.2721 20.9289 22.1005 22.1005Z" fill="#B966D1"/>
<path d="M50.4741 25.6001C57.1429 25.6001 62.5493 20.1935 62.5493 13.5249C62.5491 6.85649 57.1428 1.45068 50.4741 1.45068C43.8058 1.45088 38.4001 6.85662 38.3999 13.5249C38.3999 20.1934 43.8057 25.5999 50.4741 25.6001ZM43.8618 16.6548V8.021H57.0884V16.6548H54.4429V15.8774H56.3101V8.79932H44.6392V15.8774H45.5024V16.6548H43.8618ZM49.7251 18.938C48.2123 18.8674 47.0643 18.2439 46.3677 17.7329L46.2505 17.647V16.5444C46.2505 15.5857 46.8859 14.7571 47.7603 14.5737C48.0676 14.51 48.379 14.4603 48.6909 14.4224C48.2612 14.0538 47.9839 13.5156 47.9839 12.9087V12.3345C47.9841 11.2265 48.8907 10.3257 50.0054 10.3257C51.1201 10.3257 52.0266 11.2266 52.0269 12.3345V12.9087C52.0269 13.5167 51.7478 14.0561 51.3169 14.4253C51.63 14.4626 51.9424 14.5094 52.2515 14.5737C53.1253 14.757 53.7602 15.5857 53.7603 16.5444V17.6479L53.6421 17.7339C53.009 18.1961 51.718 18.9438 50.0015 18.9438C49.9102 18.9438 49.8181 18.942 49.7251 18.938Z" fill="#B966D1"/>
</svg>
