<svg width="178" height="140" viewBox="0 0 178 140" fill="none" xmlns="http://www.w3.org/2000/svg">
<g clip-path="url(#clip0_10323_39343)">
<path fill-rule="evenodd" clip-rule="evenodd" d="M80.0423 1.26301C82.8715 0.444207 85.862 0.00537109 88.9551 0.00537109C92.0481 0.00537109 95.0387 0.444207 97.8679 1.26301C97.2561 5.63821 93.4988 9.00537 88.9551 9.00537C84.4113 9.00537 80.654 5.63821 80.0423 1.26301ZM119.697 23.0925C120.516 25.9217 120.955 28.9123 120.955 32.0054C120.955 35.0984 120.516 38.089 119.697 40.9182C115.322 40.3064 111.955 36.5491 111.955 32.0054C111.955 27.4616 115.322 23.7043 119.697 23.0925ZM116.994 47.4397C114.07 52.7389 109.689 57.1207 104.389 60.0439C101.73 56.5177 102.006 51.4812 105.219 48.2688C108.431 45.0565 113.467 44.7801 116.994 47.4397ZM97.8679 62.7477C95.0387 63.5665 92.0481 64.0054 88.9551 64.0054C85.862 64.0054 82.8715 63.5665 80.0423 62.7477C80.654 58.3725 84.4113 55.0054 88.9551 55.0054C93.4988 55.0054 97.2561 58.3725 97.8679 62.7477ZM73.5207 60.0439C68.2216 57.1207 63.8398 52.7389 60.9165 47.4397C64.4428 44.7801 69.4793 45.0565 72.6916 48.2688C75.904 51.4812 76.1803 56.5177 73.5207 60.0439ZM58.2127 40.9182C57.3939 38.089 56.9551 35.0984 56.9551 32.0054C56.9551 28.9123 57.3939 25.9217 58.2127 23.0925C62.5879 23.7043 65.9551 27.4616 65.9551 32.0054C65.9551 36.5491 62.5879 40.3064 58.2127 40.9182ZM60.9165 16.571C63.8398 11.2719 68.2216 6.89006 73.5207 3.96683C76.1803 7.49305 75.904 12.5296 72.6916 15.7419C69.4793 18.9543 64.4428 19.2306 60.9165 16.571ZM88.9551 18.0054C87.2982 18.0054 85.9551 16.6622 85.9551 15.0054C85.9551 13.3485 87.2982 12.0054 88.9551 12.0054C90.6119 12.0054 91.9551 13.3485 91.9551 15.0054C91.9551 16.6622 90.6119 18.0054 88.9551 18.0054ZM102.955 32.0054C102.955 30.3485 104.298 29.0054 105.955 29.0054C107.612 29.0054 108.955 30.3485 108.955 32.0054C108.955 33.6622 107.612 35.0054 105.955 35.0054C104.298 35.0054 102.955 33.6622 102.955 32.0054ZM98.8546 41.9049C100.026 40.7333 101.926 40.7333 103.097 41.9049C104.269 43.0764 104.269 44.9759 103.097 46.1475C101.926 47.3191 100.026 47.3191 98.8546 46.1475C97.683 44.9759 97.683 43.0764 98.8546 41.9049ZM88.9551 46.0054C90.6119 46.0054 91.9551 47.3485 91.9551 49.0054C91.9551 50.6622 90.6119 52.0054 88.9551 52.0054C87.2982 52.0054 85.9551 50.6622 85.9551 49.0054C85.9551 47.3485 87.2982 46.0054 88.9551 46.0054ZM79.0556 41.9049C80.2272 43.0764 80.2272 44.9759 79.0556 46.1475C77.884 47.3191 75.9845 47.3191 74.8129 46.1475C73.6414 44.9759 73.6414 43.0764 74.8129 41.9049C75.9845 40.7333 77.884 40.7333 79.0556 41.9049ZM74.9551 32.0054C74.9551 33.6622 73.6119 35.0054 71.9551 35.0054C70.2982 35.0054 68.9551 33.6622 68.9551 32.0054C68.9551 30.3485 70.2982 29.0054 71.9551 29.0054C73.6119 29.0054 74.9551 30.3485 74.9551 32.0054ZM79.0556 22.1059C77.884 23.2774 75.9845 23.2774 74.8129 22.1059C73.6414 20.9343 73.6414 19.0348 74.8129 17.8632C75.9845 16.6917 77.884 16.6917 79.0556 17.8632C80.2272 19.0348 80.2272 20.9343 79.0556 22.1059Z" fill="#9E58BD"/>
<path d="M107.429 25.6055C114.098 25.6055 119.504 20.1989 119.504 13.5303C119.504 6.86187 114.098 1.45605 107.429 1.45605C100.761 1.45625 95.3552 6.86199 95.355 13.5303C95.355 20.1988 100.761 25.6053 107.429 25.6055ZM100.817 16.6602V8.02637H114.043V16.6602H111.398V15.8828H113.265V8.80469H101.594V15.8828H102.458V16.6602H100.817ZM106.68 18.9434C105.167 18.8727 104.019 18.2493 103.323 17.7383L103.206 17.6523V16.5498C103.206 15.5911 103.841 14.7624 104.715 14.5791C105.023 14.5154 105.334 14.4656 105.646 14.4277C105.216 14.0591 104.939 13.5209 104.939 12.9141V12.3398C104.939 11.2319 105.846 10.3311 106.96 10.3311C108.075 10.3311 108.982 11.2319 108.982 12.3398V12.9141C108.982 13.5221 108.703 14.0615 108.272 14.4307C108.585 14.468 108.898 14.5148 109.207 14.5791C110.08 14.7623 110.715 15.5911 110.715 16.5498V17.6533L110.597 17.7393C109.964 18.2014 108.673 18.9492 106.957 18.9492C106.865 18.9492 106.773 18.9474 106.68 18.9434Z" fill="#9E58BD"/>
<path d="M0 97.9673C0 85.176 9.57478 77.4775 19.7714 77.4775C29.9681 77.4775 35.6615 83.3425 37.4413 90.2153L31.1797 92.3168C30.0217 87.5562 26.3655 83.7285 19.7714 83.7285C13.1774 83.7285 6.80849 88.4355 6.80849 97.9566C6.80849 107.478 13.1238 112.024 19.825 112.024C26.5263 112.024 30.1825 107.81 31.5121 103.382L37.6022 105.376C35.833 112.024 29.8501 118.393 19.825 118.393C9.25312 118.393 0 110.748 0 97.9566V97.9673Z" fill="#273540"/>
<path d="M52.5058 118.285C44.5822 118.285 39.4893 112.024 39.4893 103.939C39.4893 95.8549 44.6358 89.8184 52.3879 89.8184C57.1484 89.8184 59.5823 92.3059 60.3114 94.1393V90.5903H66.5731V112.635C66.5731 114.854 66.7983 117.009 66.8519 117.567H60.7082C60.6009 116.956 60.4294 115.519 60.4294 113.686C59.2071 116.291 56.3872 118.285 52.5058 118.285ZM53.2242 112.753C57.4379 112.753 60.3651 109.15 60.3651 103.95C60.3651 98.7498 57.4808 95.426 53.2242 95.426C48.9675 95.426 45.9118 98.7498 45.9118 103.95C45.9118 109.15 48.7316 112.753 53.2242 112.753Z" fill="#273540"/>
<path d="M124.652 129.361C125.068 129.361 125.427 129.31 125.729 129.207C126.031 129.099 126.279 128.953 126.473 128.771C126.667 128.583 126.809 128.363 126.901 128.112C126.992 127.862 127.037 127.588 127.037 127.292C127.037 126.705 126.841 126.249 126.447 125.924C126.06 125.599 125.467 125.436 124.669 125.436H123.335V129.361H124.652ZM130.663 135.893H128.346C127.912 135.893 127.599 135.728 127.405 135.397L125.045 131.592C124.948 131.444 124.84 131.336 124.72 131.268C124.606 131.199 124.435 131.165 124.207 131.165H123.335V135.893H120.77V123.487H124.669C125.535 123.487 126.276 123.578 126.892 123.76C127.508 123.937 128.012 124.185 128.405 124.504C128.799 124.823 129.087 125.205 129.269 125.65C129.451 126.089 129.543 126.573 129.543 127.104C129.543 127.514 129.483 127.904 129.363 128.275C129.249 128.64 129.081 128.973 128.859 129.275C128.636 129.577 128.363 129.845 128.038 130.079C127.713 130.313 127.342 130.501 126.926 130.643C127.092 130.735 127.246 130.846 127.388 130.977C127.531 131.102 127.659 131.253 127.773 131.43L130.663 135.893Z" fill="#273540"/>
<path d="M110.797 125.496V128.685H114.935V130.626H110.797V133.884H116.115V135.893H108.215V123.487H116.115V125.496H110.797Z" fill="#273540"/>
<path d="M102.88 123.487V135.893H100.298V130.549H94.8347V135.893H92.2525V123.487H94.8347V128.754H100.298V123.487H102.88Z" fill="#273540"/>
<path d="M86.6919 132.841C86.8344 132.841 86.9541 132.892 87.051 132.995L88.0684 134.081C87.5668 134.719 86.9427 135.204 86.1959 135.534C85.4549 135.865 84.5714 136.03 83.5454 136.03C82.6163 136.03 81.7812 135.873 81.0402 135.56C80.2991 135.241 79.6693 134.799 79.1506 134.235C78.6318 133.67 78.2328 133 77.9535 132.225C77.6742 131.45 77.5346 130.604 77.5346 129.686C77.5346 129.07 77.6001 128.486 77.7312 127.933C77.868 127.374 78.0647 126.861 78.3212 126.394C78.5777 125.927 78.8855 125.505 79.2446 125.129C79.6094 124.752 80.0198 124.433 80.4758 124.171C80.9319 123.903 81.4278 123.701 81.9636 123.564C82.5051 123.421 83.0808 123.35 83.6907 123.35C84.1467 123.35 84.5771 123.39 84.9818 123.47C85.3922 123.55 85.7741 123.661 86.1275 123.803C86.481 123.946 86.8059 124.12 87.1023 124.325C87.4044 124.524 87.6751 124.744 87.9145 124.983L87.051 126.163C86.9997 126.237 86.9341 126.303 86.8543 126.36C86.7745 126.417 86.6662 126.445 86.5294 126.445C86.3926 126.445 86.2529 126.397 86.1104 126.3C85.9736 126.203 85.8026 126.095 85.5974 125.975C85.3979 125.855 85.1443 125.747 84.8365 125.65C84.5344 125.553 84.1496 125.505 83.6822 125.505C83.1635 125.505 82.6875 125.599 82.2543 125.787C81.8211 125.975 81.4477 126.249 81.1342 126.608C80.8264 126.961 80.587 127.397 80.416 127.916C80.245 128.435 80.1595 129.025 80.1595 129.686C80.1595 130.353 80.2507 130.948 80.4331 131.473C80.6212 131.992 80.8749 132.43 81.1941 132.79C81.519 133.149 81.8952 133.422 82.3227 133.61C82.7559 133.793 83.2176 133.884 83.7078 133.884C83.9985 133.884 84.2607 133.87 84.4944 133.841C84.7339 133.813 84.9533 133.764 85.1528 133.696C85.358 133.627 85.549 133.539 85.7257 133.431C85.9081 133.323 86.0905 133.186 86.2729 133.02C86.3356 132.969 86.4011 132.926 86.4696 132.892C86.538 132.858 86.6121 132.841 86.6919 132.841Z" fill="#273540"/>
<path d="M70.4349 131.182L69.0925 127.386C69.0127 127.186 68.9272 126.952 68.836 126.685C68.7505 126.417 68.6678 126.126 68.588 125.812C68.5082 126.132 68.4227 126.428 68.3315 126.702C68.246 126.97 68.1634 127.203 68.0836 127.403L66.7497 131.182H70.4349ZM74.7442 135.893H72.752C72.5297 135.893 72.3473 135.842 72.2048 135.739C72.068 135.631 71.9654 135.494 71.897 135.329L71.0591 132.96H66.117L65.2791 135.329C65.2221 135.471 65.1223 135.602 64.9798 135.722C64.8373 135.836 64.6578 135.893 64.4412 135.893H62.4319L67.2799 123.487H69.9048L74.7442 135.893Z" fill="#273540"/>
<path d="M53.9114 125.496V128.685H58.0497V130.626H53.9114V133.884H59.2297V135.893H51.3293V123.487H59.2297V125.496H53.9114Z" fill="#273540"/>
<path d="M47.0542 125.556H43.4289V135.893H40.8553V125.556H37.23V123.487H47.0542V125.556Z" fill="#273540"/>
<path d="M79.0963 117.567H72.6738V90.6011H78.9355V94.2037C80.7046 91.105 83.9212 89.8291 86.9127 89.8291C93.5067 89.8291 96.659 94.5897 96.659 100.519V117.578H90.2365V101.634C90.2365 98.3102 88.7462 95.6512 84.6932 95.6512C81.037 95.6512 79.0963 98.4711 79.0963 102.02V117.578V117.567Z" fill="#273540"/>
<path d="M115.562 117.567H109.14L98.1709 90.6011H105.258L112.399 109.869L119.379 90.6011H126.134L115.562 117.567Z" fill="#273540"/>
<path d="M139.15 118.285C131.227 118.285 126.134 112.024 126.134 103.939C126.134 95.8549 131.28 89.8184 139.032 89.8184C143.793 89.8184 146.227 92.3059 146.956 94.1393V90.5903H153.218V112.635C153.218 114.854 153.443 117.009 153.496 117.567H147.353C147.245 116.956 147.074 115.519 147.074 113.686C145.852 116.291 143.032 118.285 139.15 118.285ZM139.869 112.753C144.082 112.753 147.01 109.15 147.01 103.95C147.01 98.7498 144.125 95.426 139.869 95.426C135.612 95.426 132.556 98.7498 132.556 103.95C132.556 109.15 135.376 112.753 139.869 112.753Z" fill="#273540"/>
<path d="M162.181 108.711C162.407 111.145 164.229 113.311 167.66 113.311C170.319 113.311 171.703 111.874 171.703 110.212C171.703 108.775 170.705 107.66 168.55 107.221L164.562 106.331C159.801 105.28 157.303 102.181 157.303 98.4714C157.303 93.7645 161.624 89.7759 167.21 89.7759C174.737 89.7759 177.181 94.6544 177.621 97.3027L172.196 98.8574C171.971 97.3027 170.813 94.8152 167.21 94.8152C164.937 94.8152 163.329 96.252 163.329 97.9139C163.329 99.3507 164.379 100.401 166.041 100.734L170.137 101.57C175.23 102.674 177.889 105.784 177.889 109.762C177.889 113.74 174.565 118.404 167.703 118.404C159.898 118.404 156.906 113.311 156.574 110.266L162.171 108.711H162.181Z" fill="#273540"/>
</g>
<defs>
<clipPath id="clip0_10323_39343">
<rect width="177.9" height="139.622" fill="white"/>
</clipPath>
</defs>
</svg>
