<svg width="121" height="157" viewBox="0 0 121 157" fill="none" xmlns="http://www.w3.org/2000/svg">
<g clip-path="url(#clip0_4274_29337)">
<path fill-rule="evenodd" clip-rule="evenodd" d="M82.1647 97.5713C81.2967 98.1907 80.4036 98.7955 79.4908 99.3866C81.3349 104.001 85.9832 114.131 93.3067 120.231C103.018 128.321 110.509 117.566 109.248 111.1C108.072 105.069 98.2629 100.506 82.1647 97.5713Z" fill="#2D3B45" stroke="#152633" stroke-width="2"/>
<path fill-rule="evenodd" clip-rule="evenodd" d="M57.3416 156.605C88.8218 156.605 114.342 152.576 114.342 147.605C114.342 142.635 88.8218 138.605 57.3416 138.605C25.8613 138.605 0.341553 142.635 0.341553 147.605C0.341553 152.576 25.8613 156.605 57.3416 156.605Z" fill="black" fill-opacity="0.05"/>
<path fill-rule="evenodd" clip-rule="evenodd" d="M36.2048 96.4444C26.5099 83.2621 18.1089 76.4458 12.173 78.033C5.80868 79.734 -0.573963 91.1813 10.954 96.3635C19.6471 100.272 30.7895 100.009 35.7454 99.6435C35.8766 98.5639 36.0286 97.4961 36.2048 96.4444Z" fill="#2D3B45" stroke="#152633" stroke-width="2"/>
<path fill-rule="evenodd" clip-rule="evenodd" d="M78.6801 93.8132C71.5369 96.1919 63.3846 97.4849 54.727 97.4849C47.0101 97.4849 43.8187 93.9034 37.5168 92.1184C31.3025 97.4849 28.1727 107.716 27.545 112.738C25.6986 125.661 36.9316 136.987 56.8781 136.987C76.8247 136.987 87.245 125.254 84.9684 113.129C83.3992 104.776 80.8699 98.4658 78.6801 93.8132Z" fill="white" stroke="#152633" stroke-width="2"/>
<path fill-rule="evenodd" clip-rule="evenodd" d="M84.9942 114.151C86.5187 124.805 78.2604 134.964 62.374 136.895L62.7092 138.401C63.8825 144.659 66.2291 147.005 70.1402 148.179C78.7446 151.307 97.5179 150.134 95.5623 142.703C93.4764 132.013 89.9537 122.495 84.9942 114.151Z" fill="#2D3B45"/>
<path fill-rule="evenodd" clip-rule="evenodd" d="M95.5623 142.703C92.4334 126.668 85.5211 117.099 85.13 113.97C86.6545 124.624 78.2604 134.964 62.374 136.895L62.7092 138.401C63.8825 144.659 66.2291 147.005 70.1402 148.179C78.7446 151.307 97.5179 150.134 95.5623 142.703Z" stroke="#152633" stroke-width="2"/>
<path fill-rule="evenodd" clip-rule="evenodd" d="M27.3734 114.151L27.3159 114.152C26.9248 117.281 19.8849 126.667 16.756 142.703C14.8005 150.134 33.5737 151.307 42.1781 148.178C46.0892 147.005 48.4358 144.658 49.6092 138.4L49.9279 137.097L49.9443 136.737C34.8894 134.52 26.4782 125.017 27.3734 114.151Z" fill="#2D3B45"/>
<path fill-rule="evenodd" clip-rule="evenodd" d="M27.3734 114.151C26.9248 117.281 19.8849 126.667 16.756 142.703C14.8005 150.134 33.5737 151.307 42.1781 148.178C46.0892 147.005 48.4358 144.658 49.6092 138.4L49.9279 137.097L49.9443 136.737C34.8894 134.52 26.4782 125.017 27.3734 114.151Z" stroke="#152633" stroke-width="2"/>
<path fill-rule="evenodd" clip-rule="evenodd" d="M9.75644 54.1495C5.49679 77.1401 24.0019 93.2777 52.571 98.5704C81.1397 103.863 102.216 94.4108 108.818 72.9873C115.946 49.8551 96.8548 19.0363 68.2856 13.7436C39.7169 8.45092 14.2357 29.9699 9.75644 54.1495Z" fill="white" stroke="#152633" stroke-width="2"/>
<path fill-rule="evenodd" clip-rule="evenodd" d="M48.8898 92.569C50.0199 93.7105 51.0963 94.3288 52.0629 94.3623C53.0636 94.397 53.9667 93.8079 54.7469 92.6113C55.1736 91.9578 55.5812 91.2409 55.9608 90.513C53.1632 90.4386 50.6648 90.9922 48.8898 92.569ZM59.7437 84.9877C59.0181 87.0846 58.0124 89.9581 55.8232 93.3138C54.7944 94.8901 53.4788 95.697 52.0188 95.6461C51.6147 95.6323 51.2068 95.5542 50.7959 95.412C48.7723 94.7118 46.6681 92.4564 44.5217 88.6917C42.4048 88.4572 40.6999 87.9836 39.5995 87.6028C38.7868 87.3216 38.3011 87.0927 38.2157 87.0517C37.388 86.605 37.7557 85.5424 38.7746 85.8949C38.8633 85.938 47.3102 89.8813 56.8348 85.2934C56.863 85.2794 57.9121 84.8736 58.805 84.2275C59.9145 83.3363 60.2274 83.5897 59.7437 84.9877Z" fill="#152633"/>
<path fill-rule="evenodd" clip-rule="evenodd" d="M52.8072 76.2702C53.1926 74.1904 50.0441 71.8633 45.7755 71.0723C41.5064 70.2815 37.7335 71.3261 37.348 73.4062C36.963 75.486 40.1111 77.813 44.3798 78.6037C48.6489 79.3945 52.4219 78.3495 52.8072 76.2702Z" fill="#152633"/>
<path fill-rule="evenodd" clip-rule="evenodd" d="M77.2936 85.7337L77.2935 85.7337C67.2123 83.8663 58.5714 70.5642 60.8461 58.2845C63.3888 44.5579 74.0286 32.2244 82.8054 33.8505C87.1744 34.6595 91.7854 38.9236 95.0449 45.2959C98.3427 51.7427 99.6375 59.2235 98.5186 65.264C96.0984 78.3276 86.5057 87.4407 77.2936 85.7337Z" fill="#2D3B45" stroke="#152633" stroke-width="2"/>
<path fill-rule="evenodd" clip-rule="evenodd" d="M69.379 57.2715C67.0539 57.5127 65.4764 60.6711 65.8557 64.3246C66.2347 67.979 68.4274 70.745 70.7526 70.5037C73.0779 70.2621 74.6554 67.1047 74.2763 63.4507C73.8968 59.7966 71.7042 57.0302 69.379 57.2715Z" fill="white"/>
<path fill-rule="evenodd" clip-rule="evenodd" d="M35.7888 64.4301C32.1063 68.2321 28.3842 69.8323 25.3244 69.3496C25.2698 69.3413 25.2184 69.3327 25.1691 69.3235C22.9841 68.9186 20.4 67.2792 18.922 65.1889C15.3176 60.0941 14.2966 55.0483 15.71 47.4195C17.9384 35.3915 32.2532 22.0251 40.8861 23.6242C42.7577 23.971 44.1633 24.8895 45.1194 26.3783C47.9657 30.8103 47.254 39.7988 43.7838 50.9112C42.2936 55.6851 39.4133 60.6876 35.7888 64.4301Z" fill="#2D3B45" stroke="#152633" stroke-width="2"/>
<path fill-rule="evenodd" clip-rule="evenodd" d="M29.3515 54.3956C27.9889 57.0801 28.2687 59.9595 29.9769 60.8265C31.6854 61.6941 34.1747 60.2208 35.5377 57.5365C36.9006 54.8521 36.6204 51.973 34.9126 51.1057C33.2045 50.2383 30.7143 51.7117 29.3515 54.3956Z" fill="white"/>
<path fill-rule="evenodd" clip-rule="evenodd" d="M106.555 44.1193C108.107 43.7882 109.811 43.2153 111.586 42.265C118.413 38.6102 118.692 30.4619 118.663 28.4067C118.634 26.3511 118.018 16.3971 109.679 19.3622C104.293 21.2768 98.3786 25.1429 94.8619 27.6429C99.7656 32.4052 103.733 38.0401 106.555 44.1193Z" fill="#2D3B45" stroke="#152633" stroke-width="2"/>
<path fill-rule="evenodd" clip-rule="evenodd" d="M25.8615 22.3367C26.5645 23.1497 27.2905 23.8381 28.014 24.4217C32.677 20.6392 38.0127 17.602 43.7991 15.6023C41.7251 12.4915 38.1943 7.62602 34.4876 4.45305C28.6791 -0.519107 25.1016 7.31931 24.4419 8.96786C23.782 10.6168 21.4859 17.2756 25.8615 22.3367Z" fill="#2D3B45" stroke="#152633" stroke-width="2"/>
</g>
<defs>
<clipPath id="clip0_4274_29337">
<rect width="120" height="156" fill="white" transform="matrix(-1 0 0 1 120.003 0.857178)"/>
</clipPath>
</defs>
</svg>
