<svg width="24" height="24" viewBox="0 0 24 24" fill="none" xmlns="http://www.w3.org/2000/svg">
<path d="M4.09625 21.5C3.92392 21.5 3.7815 21.4438 3.669 21.3313C3.55633 21.2188 3.5 21.0764 3.5 20.9042C3.5 20.7323 3.55633 20.5898 3.669 20.477C3.7815 20.3642 3.92392 20.3078 4.09625 20.3078H6V19.25H5.09625C4.92392 19.25 4.7815 19.1938 4.669 19.0813C4.55633 18.9688 4.5 18.8264 4.5 18.6542C4.5 18.4823 4.55633 18.3398 4.669 18.227C4.7815 18.1142 4.92392 18.0577 5.09625 18.0577H6V17H4.09625C3.92392 17 3.7815 16.9438 3.669 16.8313C3.55633 16.7188 3.5 16.5764 3.5 16.4043C3.5 16.2323 3.55633 16.0898 3.669 15.977C3.7815 15.8642 3.92392 15.8077 4.09625 15.8077H6.34625C6.58592 15.8077 6.78683 15.8888 6.949 16.051C7.11117 16.2132 7.19225 16.4141 7.19225 16.6538V17.8462C7.19225 18.0859 7.11117 18.2868 6.949 18.449C6.78683 18.6112 6.58592 18.6923 6.34625 18.6923C6.58592 18.6923 6.78683 18.7733 6.949 18.9355C7.11117 19.0977 7.19225 19.2987 7.19225 19.5385V20.6538C7.19225 20.8936 7.11117 21.0946 6.949 21.2568C6.78683 21.4189 6.58592 21.5 6.34625 21.5H4.09625ZM4.18275 14.8463C3.99175 14.8463 3.83017 14.7802 3.698 14.648C3.566 14.516 3.5 14.3545 3.5 14.1635V12.25C3.5 12.0103 3.58108 11.8093 3.74325 11.647C3.90542 11.4848 4.10642 11.4038 4.34625 11.4038H6V10.3462H4.09625C3.92392 10.3462 3.7815 10.2899 3.669 10.1773C3.55633 10.0648 3.5 9.9225 3.5 9.7505C3.5 9.57833 3.55633 9.43583 3.669 9.323C3.7815 9.21017 3.92392 9.15375 4.09625 9.15375H6.34625C6.58592 9.15375 6.78683 9.23483 6.949 9.397C7.11117 9.55933 7.19225 9.76033 7.19225 10V11.75C7.19225 11.9897 7.11117 12.1907 6.949 12.353C6.78683 12.5152 6.58592 12.5963 6.34625 12.5963H4.69225V13.6538H6.59625C6.76842 13.6538 6.91083 13.7101 7.0235 13.8228C7.136 13.9353 7.19225 14.0775 7.19225 14.2495C7.19225 14.4217 7.136 14.5642 7.0235 14.677C6.91083 14.7898 6.76842 14.8463 6.59625 14.8463H4.18275ZM5.59675 8.19225C5.42458 8.19225 5.28208 8.136 5.16925 8.0235C5.05642 7.91083 5 7.76842 5 7.59625V3.69225H4.09625C3.92392 3.69225 3.7815 3.636 3.669 3.5235C3.55633 3.411 3.5 3.26875 3.5 3.09675C3.5 2.92458 3.55633 2.78208 3.669 2.66925C3.7815 2.55642 3.92392 2.5 4.09625 2.5H5.51925C5.71025 2.5 5.87017 2.56442 5.999 2.69325C6.12783 2.82208 6.19225 2.982 6.19225 3.173V7.59625C6.19225 7.76842 6.136 7.91083 6.0235 8.0235C5.911 8.136 5.76875 8.19225 5.59675 8.19225ZM10.0578 18.75C9.84525 18.75 9.66708 18.6781 9.52325 18.5343C9.37958 18.3904 9.30775 18.2122 9.30775 17.9998C9.30775 17.7871 9.37958 17.609 9.52325 17.4655C9.66708 17.3218 9.84525 17.25 10.0578 17.25H19.75C19.9625 17.25 20.1406 17.3219 20.2843 17.4658C20.4281 17.6096 20.5 17.7878 20.5 18.0003C20.5 18.2129 20.4281 18.391 20.2843 18.5345C20.1406 18.6782 19.9625 18.75 19.75 18.75H10.0578ZM10.0578 12.75C9.84525 12.75 9.66708 12.6781 9.52325 12.5343C9.37958 12.3904 9.30775 12.2122 9.30775 11.9998C9.30775 11.7871 9.37958 11.609 9.52325 11.4655C9.66708 11.3218 9.84525 11.25 10.0578 11.25H19.75C19.9625 11.25 20.1406 11.3219 20.2843 11.4658C20.4281 11.6096 20.5 11.7878 20.5 12.0003C20.5 12.2129 20.4281 12.391 20.2843 12.5345C20.1406 12.6782 19.9625 12.75 19.75 12.75H10.0578ZM10.0578 6.75C9.84525 6.75 9.66708 6.67808 9.52325 6.53425C9.37958 6.39042 9.30775 6.21225 9.30775 5.99975C9.30775 5.78708 9.37958 5.609 9.52325 5.4655C9.66708 5.32183 9.84525 5.25 10.0578 5.25H19.75C19.9625 5.25 20.1406 5.32192 20.2843 5.46575C20.4281 5.60958 20.5 5.78775 20.5 6.00025C20.5 6.21292 20.4281 6.391 20.2843 6.5345C20.1406 6.67817 19.9625 6.75 19.75 6.75H10.0578Z" fill="#273540"/>
</svg>
