<svg width="20" height="20" viewBox="0 0 20 20" fill="none" xmlns="http://www.w3.org/2000/svg">
<mask id="mask0_13168_2856" style="mask-type:alpha" maskUnits="userSpaceOnUse" x="0" y="0" width="20" height="20">
<rect width="20" height="20" fill="#D9D9D9"/>
</mask>
<g mask="url(#mask0_13168_2856)">
<path d="M5.8335 11.4583H10.8335C11.0106 11.4583 11.159 11.3983 11.2787 11.2785C11.3986 11.1586 11.4585 11.0101 11.4585 10.8331C11.4585 10.6558 11.3986 10.5074 11.2787 10.3878C11.159 10.2681 11.0106 10.2083 10.8335 10.2083H5.8335C5.65641 10.2083 5.50801 10.2682 5.38829 10.3881C5.26843 10.5079 5.2085 10.6564 5.2085 10.8335C5.2085 11.0107 5.26843 11.1591 5.38829 11.2787C5.50801 11.3984 5.65641 11.4583 5.8335 11.4583ZM5.8335 8.95826H14.1668C14.3439 8.95826 14.4923 8.89833 14.612 8.77847C14.7319 8.65861 14.7918 8.51014 14.7918 8.33305C14.7918 8.15583 14.7319 8.00743 14.612 7.88785C14.4923 7.76812 14.3439 7.70826 14.1668 7.70826H5.8335C5.65641 7.70826 5.50801 7.76819 5.38829 7.88805C5.26843 8.00792 5.2085 8.15639 5.2085 8.33347C5.2085 8.51069 5.26843 8.6591 5.38829 8.77868C5.50801 8.8984 5.65641 8.95826 5.8335 8.95826ZM5.8335 6.45826H12.9168C13.0939 6.45826 13.2424 6.39833 13.3622 6.27847C13.482 6.15861 13.5418 6.01014 13.5418 5.83305C13.5418 5.65583 13.482 5.50743 13.3622 5.38785C13.2424 5.26812 13.0939 5.20826 12.9168 5.20826H5.8335C5.65641 5.20826 5.50801 5.26819 5.38829 5.38805C5.26843 5.50792 5.2085 5.65639 5.2085 5.83347C5.2085 6.01069 5.26843 6.1591 5.38829 6.27868C5.50801 6.3984 5.65641 6.45826 5.8335 6.45826ZM5.03225 14.5833L3.36391 16.2514C3.12683 16.4886 2.85412 16.5419 2.54579 16.4114C2.23759 16.2807 2.0835 16.0474 2.0835 15.7114V3.58972C2.0835 3.16875 2.22933 2.81243 2.521 2.52076C2.81266 2.2291 3.16898 2.08326 3.58995 2.08326H11.2341C11.4136 2.08326 11.5639 2.14576 11.6852 2.27076C11.8066 2.39576 11.8645 2.54694 11.8591 2.7243C11.8538 2.89625 11.7913 3.04076 11.6716 3.15785C11.552 3.27479 11.4062 3.33326 11.2341 3.33326H3.58995C3.52579 3.33326 3.46704 3.36 3.4137 3.41347C3.36023 3.4668 3.3335 3.52555 3.3335 3.58972V14.4872L4.50016 13.3333H16.4104C16.4745 13.3333 16.5333 13.3065 16.5866 13.2531C16.6401 13.1997 16.6668 13.141 16.6668 13.0768V7.47597C16.6668 7.29889 16.7268 7.15041 16.8466 7.03055C16.9665 6.91083 17.115 6.85097 17.292 6.85097C17.4693 6.85097 17.6177 6.91083 17.7372 7.03055C17.857 7.15041 17.9168 7.29889 17.9168 7.47597V13.0768C17.9168 13.4978 17.771 13.8541 17.4793 14.1458C17.1877 14.4374 16.8313 14.5833 16.4104 14.5833H5.03225ZM15.8345 5.19222C15.1981 5.19222 14.657 4.96951 14.211 4.52409C13.7649 4.07868 13.5418 3.53785 13.5418 2.9016C13.5418 2.26521 13.7645 1.72403 14.21 1.27805C14.6554 0.831942 15.1962 0.608887 15.8325 0.608887C16.4688 0.608887 17.01 0.831595 17.456 1.27701C17.9021 1.72243 18.1252 2.26333 18.1252 2.89972C18.1252 3.53597 17.9025 4.07715 17.457 4.52326C17.0116 4.96923 16.4708 5.19222 15.8345 5.19222ZM3.3335 3.58972V13.9101V3.33326V3.58972Z" fill="#273540"/>
</g>
</svg>
