<svg width="24" height="24" viewBox="0 0 24 24" fill="none" xmlns="http://www.w3.org/2000/svg">
<path d="M5 11C4.591 11 4.23875 10.8523 3.94325 10.5568C3.64775 10.2613 3.5 9.909 3.5 9.5V5C3.5 4.591 3.64775 4.23875 3.94325 3.94325C4.23875 3.64775 4.591 3.5 5 3.5H9.5C9.909 3.5 10.2613 3.64775 10.5567 3.94325C10.8522 4.23875 11 4.591 11 5V9.5C11 9.909 10.8522 10.2613 10.5567 10.5568C10.2613 10.8523 9.909 11 9.5 11H5ZM5 20.5C4.591 20.5 4.23875 20.3523 3.94325 20.0568C3.64775 19.7613 3.5 19.409 3.5 19V14.5C3.5 14.091 3.64775 13.7388 3.94325 13.4433C4.23875 13.1478 4.591 13 5 13H9.5C9.909 13 10.2613 13.1478 10.5567 13.4433C10.8522 13.7388 11 14.091 11 14.5V19C11 19.409 10.8522 19.7613 10.5567 20.0568C10.2613 20.3523 9.909 20.5 9.5 20.5H5ZM14.5 11C14.091 11 13.7387 10.8523 13.4432 10.5568C13.1477 10.2613 13 9.909 13 9.5V5C13 4.591 13.1477 4.23875 13.4432 3.94325C13.7387 3.64775 14.091 3.5 14.5 3.5H19C19.409 3.5 19.7613 3.64775 20.0568 3.94325C20.3523 4.23875 20.5 4.591 20.5 5V9.5C20.5 9.909 20.3523 10.2613 20.0568 10.5568C19.7613 10.8523 19.409 11 19 11H14.5ZM14.5 20.5C14.091 20.5 13.7387 20.3523 13.4432 20.0568C13.1477 19.7613 13 19.409 13 19V14.5C13 14.091 13.1477 13.7388 13.4432 13.4433C13.7387 13.1478 14.091 13 14.5 13H19C19.409 13 19.7613 13.1478 20.0568 13.4433C20.3523 13.7388 20.5 14.091 20.5 14.5V19C20.5 19.409 20.3523 19.7613 20.0568 20.0568C19.7613 20.3523 19.409 20.5 19 20.5H14.5ZM5 9.5H9.5V5H5V9.5ZM14.5 9.5H19V5H14.5V9.5ZM14.5 19H19V14.5H14.5V19ZM5 19H9.5V14.5H5V19Z" fill="#273540"/>
</svg>
