<svg width="15" height="17" viewBox="0 0 15 17" fill="none" xmlns="http://www.w3.org/2000/svg">
<path d="M11.627 6.75H2.30775C2.21792 6.75 2.14417 6.77883 2.0865 6.8365C2.02883 6.89417 2 6.96792 2 7.05775V15.75C2 15.9628 1.92817 16.141 1.7845 16.2845C1.641 16.4282 1.46283 16.5 1.25 16.5C1.03717 16.5 0.859 16.4282 0.7155 16.2845C0.571833 16.141 0.5 15.9628 0.5 15.75V7.05775C0.5 6.55908 0.676583 6.13308 1.02975 5.77975C1.38308 5.42658 1.80908 5.25 2.30775 5.25H11.627L8.473 2.09625C8.32433 1.94742 8.24583 1.77075 8.2375 1.56625C8.22917 1.36192 8.30258 1.18217 8.45775 1.027C8.61292 0.871834 8.79108 0.79425 8.99225 0.79425C9.19358 0.79425 9.37183 0.871834 9.527 1.027L13.8673 5.36725C13.9609 5.46092 14.0269 5.55967 14.0652 5.6635C14.1038 5.76733 14.123 5.8795 14.123 6C14.123 6.1205 14.1038 6.23267 14.0652 6.3365C14.0269 6.44033 13.9609 6.53908 13.8673 6.63275L9.5115 10.9885C9.36283 11.1372 9.18883 11.2105 8.9895 11.2085C8.79017 11.2067 8.61292 11.1282 8.45775 10.973C8.31292 10.8178 8.23792 10.6423 8.23275 10.4462C8.22758 10.2501 8.30258 10.0744 8.45775 9.91925L11.627 6.75Z" fill="#273540"/>
</svg>
