<svg width="24" height="24" viewBox="0 0 24 24" fill="none" xmlns="http://www.w3.org/2000/svg">
<path d="M16.9998 20.725C16.7871 20.725 16.609 20.6531 16.4655 20.5093C16.3218 20.3656 16.25 20.1875 16.25 19.975V17.725H14C13.7875 17.725 13.6094 17.6531 13.4658 17.5092C13.3219 17.3654 13.25 17.1873 13.25 16.9747C13.25 16.7621 13.3219 16.584 13.4658 16.4405C13.6094 16.2968 13.7875 16.225 14 16.225H16.25V13.975C16.25 13.7625 16.3219 13.5844 16.4658 13.4408C16.6096 13.2969 16.7878 13.225 17.0003 13.225C17.2129 13.225 17.391 13.2969 17.5345 13.4408C17.6782 13.5844 17.75 13.7625 17.75 13.975V16.225H20C20.2125 16.225 20.3906 16.2969 20.5343 16.4408C20.6781 16.5846 20.75 16.7628 20.75 16.9753C20.75 17.1879 20.6781 17.366 20.5343 17.5095C20.3906 17.6532 20.2125 17.725 20 17.725H17.75V19.975C17.75 20.1875 17.6781 20.3656 17.5343 20.5093C17.3904 20.6531 17.2122 20.725 16.9998 20.725ZM5 17.75C4.7875 17.75 4.60942 17.6781 4.46575 17.5343C4.32192 17.3904 4.25 17.2122 4.25 16.9998C4.25 16.7871 4.32192 16.609 4.46575 16.4655C4.60942 16.3218 4.7875 16.25 5 16.25H11.2963C11.2654 16.5133 11.2542 16.7641 11.2625 17.0022C11.2708 17.2404 11.2904 17.4897 11.3213 17.75H5ZM5 13.75C4.7875 13.75 4.60942 13.6781 4.46575 13.5343C4.32192 13.3904 4.25 13.2122 4.25 12.9998C4.25 12.7871 4.32192 12.609 4.46575 12.4655C4.60942 12.3218 4.7875 12.25 5 12.25H13.727C13.4398 12.4525 13.1773 12.6788 12.9395 12.9288C12.7017 13.1788 12.4853 13.4525 12.2905 13.75H5ZM5 9.75C4.7875 9.75 4.60942 9.67808 4.46575 9.53425C4.32192 9.39042 4.25 9.21225 4.25 8.99975C4.25 8.78708 4.32192 8.609 4.46575 8.4655C4.60942 8.32183 4.7875 8.25 5 8.25H18C18.2125 8.25 18.3906 8.32192 18.5343 8.46575C18.6781 8.60958 18.75 8.78775 18.75 9.00025C18.75 9.21292 18.6781 9.391 18.5343 9.5345C18.3906 9.67817 18.2125 9.75 18 9.75H5ZM5 5.75C4.7875 5.75 4.60942 5.67808 4.46575 5.53425C4.32192 5.39042 4.25 5.21225 4.25 4.99975C4.25 4.78708 4.32192 4.609 4.46575 4.4655C4.60942 4.32183 4.7875 4.25 5 4.25H18C18.2125 4.25 18.3906 4.32192 18.5343 4.46575C18.6781 4.60958 18.75 4.78775 18.75 5.00025C18.75 5.21292 18.6781 5.391 18.5343 5.5345C18.3906 5.67817 18.2125 5.75 18 5.75H5Z" fill="#273540"/>
</svg>
