<svg width="24" height="24" viewBox="0 0 24 24" fill="none" xmlns="http://www.w3.org/2000/svg">
<path d="M10.2 20.5C9.78867 20.5 9.39642 20.4121 9.02325 20.2365C8.65008 20.0608 8.33142 19.8108 8.06725 19.4865L2.475 12.6537C2.334 12.4794 2.27025 12.2849 2.28375 12.0702C2.29725 11.8554 2.386 11.6724 2.55 11.5212C2.79617 11.2814 3.08784 11.1477 3.425 11.1202C3.76217 11.0927 4.06734 11.1719 4.3405 11.3577L7.5 13.4307V3.24048C7.5 3.02798 7.57192 2.84981 7.71575 2.70598C7.85959 2.56231 8.03775 2.49048 8.25025 2.49048C8.46292 2.49048 8.641 2.56231 8.7845 2.70598C8.92817 2.84981 9 3.02798 9 3.24048V14.5865C9 14.9416 8.84009 15.2071 8.52025 15.3827C8.20042 15.5582 7.88984 15.5454 7.5885 15.3442L5.50375 13.9942L9.24075 18.5342C9.36742 18.6794 9.51283 18.7933 9.677 18.876C9.841 18.9586 10.0153 19 10.2 19H16.75C17.3768 19 17.9086 18.7817 18.3453 18.3452C18.7818 17.9086 19 17.3768 19 16.75V9.74998C19 9.53748 19.0719 9.35931 19.2158 9.21548C19.3596 9.07181 19.5378 8.99998 19.7503 8.99998C19.9629 8.99998 20.141 9.07181 20.2845 9.21548C20.4282 9.35931 20.5 9.53748 20.5 9.74998V16.75C20.5 17.7858 20.134 18.6698 19.402 19.402C18.6698 20.134 17.7858 20.5 16.75 20.5H10.2ZM12.087 5.99998C12.2995 5.99998 12.4776 6.07181 12.6213 6.21548C12.7648 6.35931 12.8365 6.53748 12.8365 6.74998V11.75C12.8365 11.9625 12.7646 12.1406 12.6208 12.2842C12.4769 12.4281 12.2988 12.5 12.0863 12.5C11.8736 12.5 11.6955 12.4281 11.552 12.2842C11.4083 12.1406 11.3365 11.9625 11.3365 11.75V6.74998C11.3365 6.53748 11.4084 6.35931 11.5523 6.21548C11.6961 6.07181 11.8743 5.99998 12.087 5.99998ZM15.9235 7.09623C16.136 7.09623 16.3141 7.16806 16.4578 7.31173C16.6013 7.45556 16.673 7.63373 16.673 7.84623V11.75C16.673 11.9625 16.6011 12.1406 16.4573 12.2842C16.3134 12.4281 16.1353 12.5 15.9228 12.5C15.7101 12.5 15.532 12.4281 15.3885 12.2842C15.2448 12.1406 15.173 11.9625 15.173 11.75V7.84623C15.173 7.63373 15.2449 7.45556 15.3888 7.31173C15.5326 7.16806 15.7108 7.09623 15.9235 7.09623Z" fill="#273540"/>
</svg>
