<svg width="24" height="24" viewBox="0 0 24 24" fill="none" xmlns="http://www.w3.org/2000/svg">
<path d="M5.30775 19H14V14.9038C14 14.6477 14.0866 14.4331 14.2598 14.2598C14.4331 14.0866 14.6478 14 14.9038 14H19V5.30775C19 5.21792 18.9712 5.14417 18.9135 5.0865C18.8558 5.02883 18.7821 5 18.6923 5H5.30775C5.21792 5 5.14417 5.02883 5.0865 5.0865C5.02883 5.14417 5 5.21792 5 5.30775V18.6923C5 18.7821 5.02883 18.8558 5.0865 18.9135C5.14417 18.9712 5.21792 19 5.30775 19ZM5.30775 20.5C4.81058 20.5 4.385 20.323 4.031 19.969C3.677 19.615 3.5 19.1894 3.5 18.6923V5.30775C3.5 4.81058 3.677 4.385 4.031 4.031C4.385 3.677 4.81058 3.5 5.30775 3.5H18.6923C19.1894 3.5 19.615 3.677 19.969 4.031C20.323 4.385 20.5 4.81058 20.5 5.30775V13.8963C20.5 14.1401 20.4532 14.3725 20.3595 14.5935C20.266 14.8145 20.1372 15.007 19.973 15.171L15.171 19.973C15.007 20.1372 14.8145 20.266 14.5935 20.3595C14.3725 20.4532 14.1401 20.5 13.8962 20.5H5.30775ZM11.25 13.7308H8.19225C7.97975 13.7308 7.80167 13.6588 7.658 13.515C7.51417 13.3712 7.44225 13.193 7.44225 12.9805C7.44225 12.7678 7.51417 12.5898 7.658 12.4462C7.80167 12.3026 7.97975 12.2308 8.19225 12.2308H11.25C11.4625 12.2308 11.6407 12.3027 11.7845 12.4465C11.9282 12.5903 12 12.7685 12 12.981C12 13.1937 11.9282 13.3717 11.7845 13.5153C11.6407 13.6589 11.4625 13.7308 11.25 13.7308ZM15.8077 9.75H8.19225C7.97975 9.75 7.80167 9.67808 7.658 9.53425C7.51417 9.39042 7.44225 9.21225 7.44225 8.99975C7.44225 8.78708 7.51417 8.609 7.658 8.4655C7.80167 8.32183 7.97975 8.25 8.19225 8.25H15.8077C16.0203 8.25 16.1983 8.32192 16.342 8.46575C16.4858 8.60958 16.5577 8.78775 16.5577 9.00025C16.5577 9.21292 16.4858 9.391 16.342 9.5345C16.1983 9.67817 16.0203 9.75 15.8077 9.75Z" fill="#273540"/>
</svg>
