<svg width="24" height="24" viewBox="0 0 24 24" fill="none" xmlns="http://www.w3.org/2000/svg">
<path d="M15.0177 21.5338C20.2749 19.8692 23.1971 14.2391 21.5325 8.98304C19.8679 3.72701 14.2378 0.801369 8.98177 2.46829C6.45963 3.26705 4.3998 4.99984 3.17637 7.302V4.35519H2V9.06068H6.70549V7.88431H4.19746C5.27502 5.83742 7.10075 4.29872 9.33586 3.59055C13.9719 2.12244 18.9421 4.69987 20.4114 9.3383C21.8795 13.9767 19.3009 18.9446 14.6636 20.4127C10.0252 21.8773 5.05739 19.3022 3.5881 14.6649L2.46702 15.0202C3.81397 19.2763 7.76187 22.002 12.0062 22.002C13.0038 22.002 14.0178 21.8514 15.0177 21.5338Z" fill="#273540"/>
<path d="M12.5884 11.7063V6.11792H11.4117V12.2938L16.3534 16.0004L17 15.1368V15.0149L12.5884 11.7063Z" fill="#273540"/>
</svg>
