<svg width="24" height="24" viewBox="0 0 24 24" fill="none" xmlns="http://www.w3.org/2000/svg">
<path d="M8.84989 16.825L11.9999 14.925L15.1499 16.85L14.3249 13.25L17.0999 10.85L13.4499 10.525L11.9999 7.12499L10.5499 10.5L6.89989 10.825L9.67489 13.25L8.84989 16.825ZM11.9999 16.6885L8.10964 19.0345C7.96464 19.1192 7.81939 19.1547 7.67389 19.1412C7.52839 19.1277 7.39672 19.0787 7.27889 18.9942C7.16089 18.9096 7.0698 18.799 7.00564 18.6625C6.94164 18.526 6.93139 18.375 6.97489 18.2095L8.00764 13.7922L4.57314 10.8192C4.4448 10.7077 4.36305 10.5786 4.32789 10.4317C4.29255 10.2849 4.3018 10.1422 4.35564 10.0037C4.40947 9.86541 4.48705 9.75232 4.58839 9.66449C4.68972 9.57665 4.82822 9.51924 5.00389 9.49224L9.53639 9.09624L11.2961 4.92499C11.3601 4.76982 11.4572 4.65507 11.5874 4.58074C11.7176 4.5064 11.8551 4.46924 11.9999 4.46924C12.1447 4.46924 12.2822 4.5064 12.4124 4.58074C12.5426 4.65507 12.6396 4.76982 12.7036 4.92499L14.4634 9.09624L18.9959 9.49224C19.1716 9.51924 19.3101 9.57665 19.4114 9.66449C19.5127 9.75232 19.5903 9.86541 19.6441 10.0037C19.698 10.1422 19.7072 10.2849 19.6719 10.4317C19.6367 10.5786 19.555 10.7077 19.4266 10.8192L15.9921 13.7922L17.0249 18.2095C17.0684 18.375 17.0581 18.526 16.9941 18.6625C16.93 18.799 16.8389 18.9096 16.7209 18.9942C16.6031 19.0787 16.4714 19.1277 16.3259 19.1412C16.1804 19.1547 16.0351 19.1192 15.8901 19.0345L11.9999 16.6885Z" fill="#273540"/>
</svg>
