<svg width="105" height="133" viewBox="0 0 105 133" fill="none" xmlns="http://www.w3.org/2000/svg">
<path d="M54.0029 132.857C81.6172 132.857 104.003 128.38 104.003 122.857C104.003 117.335 81.6172 112.857 54.0029 112.857C26.3887 112.857 4.00293 117.335 4.00293 122.857C4.00293 128.38 26.3887 132.857 54.0029 132.857Z" fill="black" fill-opacity="0.05"/>
<path opacity="0.5" d="M64.0264 60.7426C64.9987 60.8182 65.9925 60.8573 67.003 60.8573C78.601 60.8573 88.003 55.7086 88.003 49.3573C88.003 47.3775 87.0894 45.5145 85.4805 43.8879" stroke="#DFB271" stroke-width="2"/>
<path fill-rule="evenodd" clip-rule="evenodd" d="M78.5308 70.9824C77.4645 70.9733 76.3865 70.9376 75.3005 70.8793C74.0802 75.6965 71.8865 86.624 74.2257 95.8637C77.3274 108.116 89.7091 103.818 92.4894 97.8463C95.0833 92.2761 89.8294 82.8191 78.5308 70.9824Z" fill="#2D3B45" stroke="#152633" stroke-width="2"/>
<path fill-rule="evenodd" clip-rule="evenodd" d="M32.9651 71.1805C33.6753 76.0989 34.7147 87.1958 31.4225 96.1404C27.0571 108.002 15.1924 102.433 13.0516 96.203C11.0542 90.3922 17.2678 81.5362 29.7418 70.9454C30.8032 71.0478 31.8791 71.125 32.9651 71.1805Z" fill="#2D3B45" stroke="#152633" stroke-width="2"/>
<path fill-rule="evenodd" clip-rule="evenodd" d="M74.2617 72.4456C67.5 74.6972 59.7832 75.9212 51.5881 75.9212C44.2833 75.9212 37.5261 75.0593 31.5608 73.3696C29.1654 78.7333 26.4521 85.6061 25.8579 90.3597C24.1101 102.592 34.7432 113.313 53.6243 113.313C72.5054 113.313 82.3691 102.207 80.2141 90.7299C78.7288 82.8231 76.3346 76.8497 74.2617 72.4456Z" fill="white"/>
<path fill-rule="evenodd" clip-rule="evenodd" d="M49.2133 97.6241C49.5145 96.8115 50.2967 96.2324 51.2141 96.2324C52.1315 96.2324 52.9137 96.8115 53.215 97.6241C54.0325 97.355 54.9668 97.5997 55.5406 98.3083C56.1215 99.0257 56.1606 100.006 55.71 100.753C56.4369 101.228 56.8272 102.123 56.6204 103.018C56.4145 103.91 55.6769 104.542 54.8195 104.654C54.9003 105.513 54.4514 106.371 53.6303 106.772C52.8023 107.175 51.841 106.995 51.2141 106.39C50.5873 106.995 49.6259 107.175 48.798 106.772C47.9768 106.371 47.528 105.513 47.6087 104.654C46.7514 104.542 46.0138 103.91 45.8078 103.018C45.601 102.123 45.9914 101.228 46.7182 100.753C46.2676 100.006 46.3068 99.0257 46.8877 98.3083C47.4615 97.5997 48.3957 97.355 49.2133 97.6241Z" fill="#2D3B45" stroke="#152633" stroke-width="2"/>
<path fill-rule="evenodd" clip-rule="evenodd" d="M74.2617 72.4456C67.5 74.6972 59.7832 75.9212 51.5881 75.9212C44.2833 75.9212 37.5261 75.0593 31.5608 73.3696C29.1654 78.7333 26.4521 85.6061 25.8579 90.3597C24.1101 102.592 34.7432 113.313 53.6243 113.313C72.5054 113.313 82.3691 102.207 80.2141 90.7299C78.7288 82.8231 76.3346 76.8497 74.2617 72.4456Z" stroke="#152633" stroke-width="2"/>
<path fill-rule="evenodd" clip-rule="evenodd" d="M80.2386 91.6968C81.6817 101.782 73.8645 111.398 58.8267 113.226L59.1439 114.651C60.2546 120.575 62.4759 122.796 66.1781 123.907C74.3229 126.869 92.0933 125.758 90.2423 118.724C88.2678 108.605 84.9332 99.5955 80.2386 91.6968Z" fill="#2D3B45"/>
<path fill-rule="evenodd" clip-rule="evenodd" d="M90.2423 118.724C87.2805 103.545 80.7374 94.4871 80.3672 91.5254C81.8103 101.61 73.8645 111.398 58.8267 113.226L59.1439 114.651C60.2546 120.575 62.4759 122.796 66.1781 123.907C74.3229 126.869 92.0933 125.758 90.2423 118.724Z" stroke="#152633" stroke-width="2"/>
<path fill-rule="evenodd" clip-rule="evenodd" d="M25.6955 91.6968L25.6411 91.6975C25.2709 94.6593 18.6069 103.544 15.6452 118.723C13.7941 125.758 31.5646 126.868 39.7094 123.906C43.4116 122.796 45.6329 120.575 46.7435 114.651L47.0452 113.417L47.0608 113.077C32.81 110.978 24.8481 101.982 25.6955 91.6968Z" fill="#2D3B45"/>
<path fill-rule="evenodd" clip-rule="evenodd" d="M25.6955 91.6968C25.2709 94.6593 18.6069 103.544 15.6452 118.723C13.7941 125.758 31.5646 126.868 39.7094 123.906C43.4116 122.796 45.6329 120.575 46.7435 114.651L47.0452 113.417L47.0608 113.077C32.81 110.978 24.8481 101.982 25.6955 91.6968Z" stroke="#152633" stroke-width="2"/>
<path fill-rule="evenodd" clip-rule="evenodd" d="M14.4724 36.7867C13.1607 36.7285 11.6922 36.4939 10.1138 35.9611C4.04402 33.9113 3.75408 28.6258 3.49714 26.9448C3.2402 25.2637 3.20509 16.1895 10.4144 17.4696C15.0704 18.2962 18.5514 20.1863 21.7624 21.7458C18.412 26.3014 15.9444 31.4408 14.4724 36.7867Z" fill="#2D3B45" stroke="#152633" stroke-width="2"/>
<path fill-rule="evenodd" clip-rule="evenodd" d="M11.7917 45.0799C11.7917 65.1032 29.0023 75.8053 52.6621 75.8053C76.322 75.8053 95.5022 63.7223 95.5022 45.7704C95.5022 23.4627 76.322 1.92627 52.6621 1.92627C29.0023 1.92627 11.7917 24.0209 11.7917 45.0799Z" fill="white" stroke="#152633" stroke-width="2"/>
<path fill-rule="evenodd" clip-rule="evenodd" d="M84.2595 38.2199C85.8331 37.567 87.5187 36.6295 89.2066 35.2796C95.6965 30.0876 94.3985 21.4344 93.9658 19.2711C93.5332 17.1078 90.9372 6.7239 82.7166 11.4832C77.4075 14.5568 74.3484 18.3174 71.126 21.6432C76.4736 26.1887 82.7166 33.9427 84.2595 38.2199Z" fill="#2D3B45" stroke="#152633" stroke-width="2"/>
</svg>
