<svg width="24" height="24" viewBox="0 0 24 24" fill="none" xmlns="http://www.w3.org/2000/svg">
<path d="M9 20.5C7.47433 20.5 6.17625 19.9648 5.10575 18.8943C4.03525 17.8238 3.5 16.5257 3.5 15V9C3.5 7.47433 4.03525 6.17625 5.10575 5.10575C6.17625 4.03525 7.47433 3.5 9 3.5H15C16.5257 3.5 17.8238 4.03525 18.8943 5.10575C19.9648 6.17625 20.5 7.47433 20.5 9V15C20.5 16.5257 19.9648 17.8238 18.8943 18.8943C17.8238 19.9648 16.5257 20.5 15 20.5H9ZM11 13.5463L9.327 11.873C9.1885 11.7347 9.01442 11.6638 8.80475 11.6605C8.59525 11.6573 8.418 11.7282 8.273 11.873C8.12817 12.018 8.05575 12.1937 8.05575 12.4C8.05575 12.6063 8.12817 12.782 8.273 12.927L10.3672 15.0213C10.5481 15.2019 10.759 15.2923 11 15.2923C11.241 15.2923 11.4519 15.2019 11.6328 15.0213L16.127 10.527C16.2653 10.3885 16.3362 10.2144 16.3395 10.0048C16.3427 9.79525 16.2718 9.618 16.127 9.473C15.982 9.32817 15.8063 9.25575 15.6 9.25575C15.3937 9.25575 15.218 9.32817 15.073 9.473L11 13.5463ZM9 19H15C16.1 19 17.0417 18.6083 17.825 17.825C18.6083 17.0417 19 16.1 19 15V9C19 7.9 18.6083 6.95833 17.825 6.175C17.0417 5.39167 16.1 5 15 5H9C7.9 5 6.95833 5.39167 6.175 6.175C5.39167 6.95833 5 7.9 5 9V15C5 16.1 5.39167 17.0417 6.175 17.825C6.95833 18.6083 7.9 19 9 19Z" fill="#273540"/>
</svg>
