<svg xmlns="http://www.w3.org/2000/svg" viewBox="0 0 24 24"><g><path fill-rule="evenodd" stroke="none" stroke-width="1" d="M960 1920C429.807 1920 0 1490.193 0 960S429.807 0 960 0s960 429.807 960 960-429.807 960-960 960zm0-101.053c474.384 0 858.947-384.563 858.947-858.947S1434.384 101.053 960 101.053 101.053 485.616 101.053 960 485.616 1818.947 960 1818.947zm-9.32-496.403c-80.024 0-145.128 65.104-145.128 145.128 0 80.024 65.104 145.128 145.128 145.128 80.024 0 145.128-65.104 145.128-145.128 0-80.024-65.104-145.128-145.128-145.128zm192.785-968.86h-385.57l93.901 851.327h197.768l93.901-851.327z" transform="matrix(0.010416666666666666 0 0 0.010416666666666666 2 2)"/></g></svg>