<svg width="24" height="12" viewBox="0 0 24 12" fill="none" xmlns="http://www.w3.org/2000/svg">
<path d="M5.5 11.25C4.03633 11.25 2.79542 10.741 1.77725 9.723C0.759083 8.705 0.25 7.46425 0.25 6.00075C0.25 4.53742 0.759083 3.2965 1.77725 2.278C2.79542 1.25933 4.03633 0.75 5.5 0.75C6.08283 0.75 6.642 0.8535 7.1775 1.0605C7.713 1.26767 8.19617 1.56158 8.627 1.94225L10.5385 3.627L9.404 4.63075L7.623 3.05775C7.33083 2.80642 7.002 2.60892 6.6365 2.46525C6.27117 2.32175 5.89208 2.25 5.49925 2.25C4.46375 2.25 3.58 2.61625 2.848 3.34875C2.116 4.08108 1.75 4.96533 1.75 6.0015C1.75 7.03767 2.116 7.9215 2.848 8.653C3.58 9.38433 4.46375 9.75 5.49925 9.75C5.89208 9.75 6.27117 9.67825 6.6365 9.53475C7.002 9.39108 7.33083 9.19358 7.623 8.94225L15.373 1.94225C15.7975 1.55508 16.2785 1.25958 16.816 1.05575C17.3537 0.851916 17.915 0.75 18.5 0.75C19.9637 0.75 21.2046 1.259 22.2227 2.277C23.2409 3.295 23.75 4.53575 23.75 5.99925C23.75 7.46258 23.2409 8.7035 22.2227 9.722C21.2046 10.7407 19.9637 11.25 18.5 11.25C17.9153 11.25 17.3573 11.1448 16.826 10.9345C16.2945 10.7243 15.8102 10.4321 15.373 10.0577L13.4808 8.373L14.596 7.3595L16.377 8.94225C16.6692 9.20125 16.998 9.40067 17.3635 9.5405C17.7288 9.68017 18.1079 9.75 18.5008 9.75C19.5363 9.75 20.42 9.38375 21.152 8.65125C21.884 7.91892 22.25 7.03467 22.25 5.9985C22.25 4.96233 21.884 4.0785 21.152 3.347C20.42 2.61567 19.5363 2.25 18.5008 2.25C18.1079 2.25 17.7288 2.32175 17.3635 2.46525C16.998 2.60892 16.6692 2.80642 16.377 3.05775L8.627 10.0577C8.2025 10.4449 7.7215 10.7404 7.184 10.9443C6.64633 11.1481 6.085 11.25 5.5 11.25Z" fill="#273540"/>
</svg>
