<svg width="24" height="24" viewBox="0 0 24 24" fill="none" xmlns="http://www.w3.org/2000/svg">
<g clip-path="url(#clip0_1_2946)">
<mask id="mask0_1_2946" style="mask-type:alpha" maskUnits="userSpaceOnUse" x="-1" y="-1" width="25" height="25">
<rect x="-0.5" y="-0.5" width="24" height="24" fill="#D9D9D9"/>
</mask>
<g mask="url(#mask0_1_2946)">
<path d="M18.5 20.25C17.8757 20.25 17.3196 20.0625 16.8318 19.6875C16.3439 19.3125 16.0224 18.8333 15.8673 18.25H10.5C9.46417 18.25 8.58017 17.884 7.848 17.152C7.116 16.4198 6.75 15.5358 6.75 14.5C6.75 13.4642 7.116 12.5802 7.848 11.848C8.58017 11.116 9.46417 10.75 10.5 10.75H12.5C13.1188 10.75 13.6485 10.5295 14.089 10.0885C14.5297 9.6475 14.75 9.11742 14.75 8.49825C14.75 7.87892 14.5297 7.34933 14.089 6.9095C13.6485 6.46983 13.1188 6.25 12.5 6.25H7.13275C6.96725 6.83333 6.64317 7.3125 6.1605 7.6875C5.67783 8.0625 5.12433 8.25 4.5 8.25C3.73617 8.25 3.08683 7.98275 2.552 7.44825C2.01733 6.91375 1.75 6.26475 1.75 5.50125C1.75 4.73758 2.01733 4.08817 2.552 3.553C3.08683 3.01767 3.73617 2.75 4.5 2.75C5.12433 2.75 5.67783 2.9375 6.1605 3.3125C6.64317 3.6875 6.96725 4.16667 7.13275 4.75H12.5C13.5358 4.75 14.4198 5.116 15.152 5.848C15.884 6.58017 16.25 7.46417 16.25 8.5C16.25 9.53583 15.884 10.4198 15.152 11.152C14.4198 11.884 13.5358 12.25 12.5 12.25H10.5C9.88117 12.25 9.3515 12.4705 8.911 12.9115C8.47033 13.3525 8.25 13.8826 8.25 14.5017C8.25 15.1211 8.47033 15.6507 8.911 16.0905C9.3515 16.5302 9.88117 16.75 10.5 16.75H15.8673C16.0328 16.1667 16.3568 15.6875 16.8395 15.3125C17.3222 14.9375 17.8757 14.75 18.5 14.75C19.2638 14.75 19.9132 15.0173 20.448 15.5518C20.9827 16.0863 21.25 16.7353 21.25 17.4988C21.25 18.2624 20.9827 18.9118 20.448 19.447C19.9132 19.9823 19.2638 20.25 18.5 20.25ZM4.5 6.75C4.8475 6.75 5.14267 6.6285 5.3855 6.3855C5.6285 6.14267 5.75 5.8475 5.75 5.5C5.75 5.1525 5.6285 4.85733 5.3855 4.6145C5.14267 4.3715 4.8475 4.25 4.5 4.25C4.1525 4.25 3.85733 4.3715 3.6145 4.6145C3.3715 4.85733 3.25 5.1525 3.25 5.5C3.25 5.8475 3.3715 6.14267 3.6145 6.3855C3.85733 6.6285 4.1525 6.75 4.5 6.75Z" fill="#273540"/>
</g>
</g>
<defs>
<clipPath id="clip0_1_2946">
<rect width="24" height="24" fill="white"/>
</clipPath>
</defs>
</svg>
