<svg width="7" height="12" viewBox="0 0 7 12" fill="none" xmlns="http://www.w3.org/2000/svg">
<path d="M4.94626 6.00001L0.873012 1.92701C0.734678 1.78851 0.663845 1.61443 0.660512 1.40476C0.657345 1.19526 0.728178 1.01801 0.873012 0.873012C1.01801 0.728178 1.19368 0.655762 1.40001 0.655762C1.60634 0.655762 1.78201 0.728178 1.92701 0.873012L6.42126 5.36726C6.51476 5.46093 6.58076 5.55968 6.61926 5.66351C6.65776 5.76735 6.67701 5.87951 6.67701 6.00001C6.67701 6.12051 6.65776 6.23268 6.61926 6.33651C6.58076 6.44035 6.51476 6.5391 6.42126 6.63276L1.92701 11.127C1.78851 11.2653 1.61443 11.3362 1.40476 11.3395C1.19526 11.3427 1.01801 11.2718 0.873012 11.127C0.728178 10.982 0.655762 10.8063 0.655762 10.6C0.655762 10.3937 0.728178 10.218 0.873012 10.073L4.94626 6.00001Z" fill="#273540"/>
</svg>
