<svg width="16" height="20" viewBox="0 0 16 20" fill="none" xmlns="http://www.w3.org/2000/svg">
<path d="M1.25 16.8845C1.0375 16.8845 0.859417 16.8127 0.71575 16.669C0.571917 16.5252 0.5 16.3469 0.5 16.1343C0.5 15.9218 0.571917 15.7437 0.71575 15.6C0.859417 15.4565 1.0375 15.3848 1.25 15.3848H2.30775V7.923C2.30775 6.57817 2.72283 5.38908 3.553 4.35575C4.383 3.32242 5.44867 2.6615 6.75 2.373V1.75C6.75 1.40283 6.87142 1.10767 7.11425 0.8645C7.35708 0.6215 7.65192 0.5 7.99875 0.5C8.34575 0.5 8.641 0.6215 8.8845 0.8645C9.12817 1.10767 9.25 1.40283 9.25 1.75V2.373C10.5513 2.6615 11.617 3.32242 12.447 4.35575C13.2772 5.38908 13.6923 6.57817 13.6923 7.923V15.3848H14.75C14.9625 15.3848 15.1406 15.4566 15.2843 15.6003C15.4281 15.7441 15.5 15.9223 15.5 16.135C15.5 16.3475 15.4281 16.5256 15.2843 16.6693C15.1406 16.8128 14.9625 16.8845 14.75 16.8845H1.25ZM7.99825 19.6923C7.50075 19.6923 7.07542 19.5153 6.72225 19.1613C6.36892 18.8073 6.19225 18.3817 6.19225 17.8845H9.80775C9.80775 18.3833 9.63058 18.8093 9.27625 19.1625C8.92192 19.5157 8.49592 19.6923 7.99825 19.6923ZM3.80775 15.3848H12.1923V7.923C12.1923 6.76533 11.783 5.77725 10.9645 4.95875C10.1458 4.14008 9.15767 3.73075 8 3.73075C6.84233 3.73075 5.85417 4.14008 5.0355 4.95875C4.217 5.77725 3.80775 6.76533 3.80775 7.923V15.3848ZM7.25 10.8078V12.0578C7.25 12.2703 7.32192 12.4483 7.46575 12.592C7.60958 12.7358 7.78775 12.8078 8.00025 12.8078C8.21292 12.8078 8.391 12.7358 8.5345 12.592C8.67817 12.4483 8.75 12.2703 8.75 12.0578V10.8078H10C10.2125 10.8078 10.3906 10.7358 10.5343 10.592C10.6781 10.4482 10.75 10.2699 10.75 10.0573C10.75 9.84475 10.6781 9.66667 10.5343 9.523C10.3906 9.3795 10.2125 9.30775 10 9.30775H8.75V8.05775C8.75 7.84525 8.67808 7.66708 8.53425 7.52325C8.39042 7.37958 8.21225 7.30775 7.99975 7.30775C7.78708 7.30775 7.609 7.37958 7.4655 7.52325C7.32183 7.66708 7.25 7.84525 7.25 8.05775V9.30775H6C5.7875 9.30775 5.60942 9.37967 5.46575 9.5235C5.32192 9.66733 5.25 9.8455 5.25 10.058C5.25 10.2707 5.32192 10.4488 5.46575 10.5923C5.60942 10.7359 5.7875 10.8078 6 10.8078H7.25Z" fill="#273540"/>
</svg>
