<svg version="1.1" xmlns="http://www.w3.org/2000/svg" viewBox="0 0 24 24">
 <g id="Guides">
  <line id="Baseline-S" x1="0" x2="24" y1="18" y2="18"/>
  <line id="Capline-S"  x1="0" x2="24" y1="6"  y2="6"/>
  <line id="Baseline-M" x1="0" x2="24" y1="18" y2="18"/>
  <line id="Capline-M"  x1="0" x2="24" y1="6"  y2="6"/>
  <line id="Baseline-L" x1="0" x2="24" y1="18" y2="18"/>
  <line id="Capline-L"  x1="0" x2="24" y1="6"  y2="6"/>
  <line id="left-margin"  x1="0"  x2="0"  y1="0" y2="24"/>
  <line id="right-margin" x1="24" x2="24" y1="0" y2="24"/>
 </g>
 <g id="Symbols">
  <g id="Regular-M">
   <rect width="24" height="24" opacity="0" />
   <g transform="matrix(0.010416666666666666 0 0 0.010416666666666666 2 2)">
     <path d="M169.034 282.353C169.034 126.494 295.528 0 451.387 0H1750.21v1468.235h-225.882v338.824h169.412V1920H451.387c-82.447 0-161.506-36.141-214.701-99.388-43.934-51.953-67.652-116.33-67.652-182.965V282.353zM451.387 112.94c-92.725 0-169.412 75.67-169.412 169.412v1132.8c50.824-37.27 113.958-59.859 181.835-59.859h1173.46V112.941H451.386zm112.907 903.53V903.529h790.588v112.942H564.294zm-56.47-225.883V338.824h903.529v451.764h-903.53zm112.94-112.94h677.648V451.764H620.765v225.882zM463.81 1468.234c-89.223 0-166.136 59.86-179.576 140.047-1.242 9.036-2.259 18.07-2.259 27.106v2.26c0 40.658 13.553 77.928 40.659 109.552 32.753 38.4 79.059 59.859 128.753 59.859h960v-112.941H409.599v-112.942h1001.788v-112.94H463.81z" stroke="none" stroke-width="1" fill-rule="evenodd"/>
   </g>
  </g>
 </g>
</svg>
