<svg width="24" height="24" viewBox="0 0 24 24" fill="none" xmlns="http://www.w3.org/2000/svg">
<path d="M5.37295 15.5864L7.6807 17.8942C7.8192 18.0327 7.89004 18.2042 7.8932 18.4087C7.89637 18.613 7.82554 18.7928 7.6807 18.9479C7.52554 19.1031 7.34737 19.1807 7.1462 19.1807C6.94487 19.1807 6.76662 19.1031 6.61145 18.9479L3.1327 15.4692C3.03904 15.3755 2.97304 15.2768 2.9347 15.1729C2.8962 15.0691 2.87695 14.9569 2.87695 14.8364C2.87695 14.7159 2.8962 14.6038 2.9347 14.4999C2.97304 14.3961 3.03904 14.2974 3.1327 14.2037L6.62695 10.7094C6.77562 10.5608 6.94962 10.4874 7.14895 10.4894C7.34829 10.4913 7.52554 10.5698 7.6807 10.7249C7.82554 10.8801 7.90054 11.0558 7.9057 11.2519C7.91087 11.4481 7.83587 11.6237 7.6807 11.7787L5.37295 14.0864H11.9037C12.1165 14.0864 12.2948 14.1583 12.4385 14.3019C12.582 14.4454 12.6537 14.6236 12.6537 14.8364C12.6537 15.0493 12.582 15.2275 12.4385 15.3712C12.2948 15.5147 12.1165 15.5864 11.9037 15.5864H5.37295ZM18.627 9.90369H12.0962C11.8834 9.90369 11.7051 9.83194 11.5615 9.68844C11.418 9.54478 11.3462 9.36653 11.3462 9.15369C11.3462 8.94103 11.418 8.76286 11.5615 8.61919C11.7051 8.47569 11.8834 8.40394 12.0962 8.40394H18.627L16.3192 6.09619C16.1807 5.95769 16.1099 5.78619 16.1067 5.58169C16.1035 5.37719 16.1744 5.19736 16.3192 5.04219C16.4744 4.88719 16.6525 4.80969 16.8537 4.80969C17.055 4.80969 17.2333 4.88719 17.3885 5.04219L20.8672 8.52119C20.9609 8.61469 21.0269 8.71336 21.0652 8.81719C21.1037 8.92103 21.123 9.03319 21.123 9.15369C21.123 9.27436 21.1037 9.38661 21.0652 9.49044C21.0269 9.59428 20.9609 9.69294 20.8672 9.78644L17.373 13.2807C17.2243 13.4294 17.0503 13.5028 16.851 13.5009C16.6516 13.4989 16.4744 13.4204 16.3192 13.2654C16.1744 13.1103 16.0994 12.9346 16.0942 12.7384C16.089 12.5423 16.164 12.3666 16.3192 12.2114L18.627 9.90369Z" fill="#273540"/>
</svg>
