<svg width="24" height="24" viewBox="0 0 24 24" fill="none" xmlns="http://www.w3.org/2000/svg">
<path d="M5.30775 19H18.6923C18.7821 19 18.8558 18.9712 18.9135 18.9135C18.9712 18.8558 19 18.7821 19 18.6923V9.719L14.281 5H5.30775C5.21792 5 5.14417 5.02883 5.0865 5.0865C5.02883 5.14417 5 5.21792 5 5.30775V18.6923C5 18.7821 5.02883 18.8558 5.0865 18.9135C5.14417 18.9712 5.21792 19 5.30775 19ZM5.30775 20.5C4.81058 20.5 4.385 20.323 4.031 19.969C3.677 19.615 3.5 19.1894 3.5 18.6923V5.30775C3.5 4.81058 3.677 4.385 4.031 4.031C4.385 3.677 4.81058 3.5 5.30775 3.5H14.1462C14.3901 3.5 14.6225 3.54683 14.8435 3.6405C15.0645 3.734 15.2571 3.86283 15.4212 4.027L19.973 8.57875C20.1372 8.74292 20.266 8.9355 20.3595 9.1565C20.4532 9.3775 20.5 9.60992 20.5 9.85375V18.6923C20.5 19.1894 20.323 19.615 19.969 19.969C19.615 20.323 19.1894 20.5 18.6923 20.5H5.30775ZM8 16.5H16C16.2125 16.5 16.3906 16.4281 16.5343 16.2843C16.6781 16.1404 16.75 15.9622 16.75 15.7498C16.75 15.5371 16.6781 15.359 16.5343 15.2155C16.3906 15.0718 16.2125 15 16 15H8C7.7875 15 7.60942 15.0719 7.46575 15.2158C7.32192 15.3596 7.25 15.5378 7.25 15.7503C7.25 15.9629 7.32192 16.141 7.46575 16.2845C7.60942 16.4282 7.7875 16.5 8 16.5ZM8 12.75H16C16.2125 12.75 16.3906 12.6781 16.5343 12.5343C16.6781 12.3904 16.75 12.2122 16.75 11.9998C16.75 11.7871 16.6781 11.609 16.5343 11.4655C16.3906 11.3218 16.2125 11.25 16 11.25H8C7.7875 11.25 7.60942 11.3219 7.46575 11.4658C7.32192 11.6096 7.25 11.7878 7.25 12.0003C7.25 12.2129 7.32192 12.391 7.46575 12.5345C7.60942 12.6782 7.7875 12.75 8 12.75ZM8 9H12.8652C13.0778 9 13.2559 8.92808 13.3997 8.78425C13.5434 8.64042 13.6152 8.46225 13.6152 8.24975C13.6152 8.03708 13.5434 7.859 13.3997 7.7155C13.2559 7.57183 13.0778 7.5 12.8652 7.5H8C7.7875 7.5 7.60942 7.57192 7.46575 7.71575C7.32192 7.85958 7.25 8.03775 7.25 8.25025C7.25 8.46292 7.32192 8.641 7.46575 8.7845C7.60942 8.92817 7.7875 9 8 9Z" fill="#273540"/>
</svg>
