<svg width="22" height="20" viewBox="0 0 22 20" fill="none" xmlns="http://www.w3.org/2000/svg">
<path d="M10 19.5C8.68583 19.5 7.45083 19.2507 6.295 18.752C5.13917 18.2533 4.13375 17.5766 3.27875 16.7218C2.42375 15.8669 1.74692 14.8617 1.24825 13.706C0.749417 12.5503 0.5 11.3156 0.5 10.0017C0.5 8.68775 0.749417 7.45267 1.24825 6.2965C1.74692 5.14033 2.42375 4.13467 3.27875 3.2795C4.13375 2.42433 5.13917 1.74725 6.295 1.24825C7.45083 0.749417 8.68583 0.5 10 0.5C10.832 0.5 11.6384 0.606083 12.4193 0.81825C13.2001 1.03042 13.9469 1.33717 14.6598 1.7385C14.8519 1.84617 14.9775 2.00133 15.0365 2.204C15.0955 2.4065 15.0609 2.59558 14.9327 2.77125C14.8046 2.94692 14.635 3.05683 14.424 3.101C14.2132 3.14517 14.0097 3.11342 13.8135 3.00575C13.2288 2.67892 12.6137 2.42958 11.9682 2.25775C11.3228 2.08592 10.6667 2 10 2C7.76667 2 5.875 2.775 4.325 4.325C2.775 5.875 2 7.76667 2 10C2 12.2333 2.775 14.125 4.325 15.675C5.875 17.225 7.76667 18 10 18C10.4793 18 10.9495 17.9587 11.4105 17.876C11.8715 17.7933 12.3263 17.6693 12.775 17.5038C12.9878 17.4398 13.1972 17.434 13.403 17.4865C13.6087 17.539 13.7678 17.6588 13.8805 17.8458C13.9807 18.0204 14.0019 18.2087 13.9443 18.4105C13.8866 18.6123 13.7552 18.7512 13.55 18.827C12.9833 19.0563 12.4016 19.2258 11.8048 19.3355C11.2079 19.4452 10.6063 19.5 10 19.5ZM17.25 14.75H15C14.7875 14.75 14.6094 14.6781 14.4658 14.5343C14.3219 14.3904 14.25 14.2122 14.25 13.9998C14.25 13.7871 14.3219 13.609 14.4658 13.4655C14.6094 13.3218 14.7875 13.25 15 13.25H17.25V11C17.25 10.7875 17.3219 10.6094 17.4657 10.4658C17.6096 10.3219 17.7878 10.25 18.0002 10.25C18.2129 10.25 18.391 10.3219 18.5345 10.4658C18.6782 10.6094 18.75 10.7875 18.75 11V13.25H21C21.2125 13.25 21.3906 13.3219 21.5343 13.4658C21.6781 13.6096 21.75 13.7878 21.75 14.0003C21.75 14.2129 21.6781 14.391 21.5343 14.5345C21.3906 14.6782 21.2125 14.75 21 14.75H18.75V17C18.75 17.2125 18.6781 17.3906 18.5343 17.5343C18.3904 17.6781 18.2122 17.75 17.9998 17.75C17.7871 17.75 17.609 17.6781 17.4655 17.5343C17.3218 17.3906 17.25 17.2125 17.25 17V14.75ZM8.58075 12.1463L17.9193 2.79225C18.0578 2.65392 18.2318 2.58308 18.4413 2.57975C18.6509 2.57658 18.8282 2.64742 18.973 2.79225C19.1178 2.93725 19.1903 3.11292 19.1903 3.31925C19.1903 3.52558 19.1178 3.70125 18.973 3.84625L9.2135 13.6212C9.03267 13.8019 8.82175 13.8923 8.58075 13.8923C8.33975 13.8923 8.12883 13.8019 7.948 13.6212L5.20375 10.877C5.06542 10.7385 4.99458 10.5644 4.99125 10.3548C4.98808 10.1453 5.05892 9.968 5.20375 9.823C5.34875 9.67817 5.52442 9.60575 5.73075 9.60575C5.93708 9.60575 6.11275 9.67817 6.25775 9.823L8.58075 12.1463Z" fill="#273540"/>
</svg>
