<svg width="24" height="24" viewBox="0 0 24 24" fill="none" xmlns="http://www.w3.org/2000/svg">
<path d="M13.6001 13.8462L11.0001 11.2462L6.05785 16.1885C6.00019 16.2461 5.97135 16.3166 5.97135 16.4C5.97135 16.4833 6.00019 16.5538 6.05785 16.6115L8.2346 18.7885C8.29244 18.8461 8.36302 18.875 8.44635 18.875C8.52969 18.875 8.60019 18.8461 8.65785 18.7885L13.6001 13.8462ZM12.0694 10.177L14.6694 12.777L19.6251 7.82123C19.6828 7.76356 19.7116 7.68981 19.7116 7.59998C19.7116 7.51015 19.6828 7.4364 19.6251 7.37873L17.4674 5.22123C17.4097 5.16356 17.336 5.13473 17.2464 5.13473C17.1565 5.13473 17.0828 5.16356 17.0251 5.22123L12.0694 10.177ZM10.4886 9.64998L15.1961 14.3577L9.7116 19.8422C9.3501 20.2037 8.92835 20.3845 8.44635 20.3845C7.96419 20.3845 7.54235 20.2037 7.18085 19.8422L7.05385 19.7152L6.68085 20.0885C6.51669 20.2525 6.32344 20.3813 6.1011 20.475C5.8786 20.5685 5.64685 20.6152 5.40585 20.6152H3.3541C3.14627 20.6152 3.00552 20.5233 2.93185 20.3395C2.85819 20.1555 2.89502 19.9897 3.04235 19.8422L5.1116 17.773L5.0041 17.6652C4.64244 17.3037 4.4616 16.882 4.4616 16.4C4.4616 15.918 4.64244 15.4962 5.0041 15.1347L10.4886 9.64998ZM10.4886 9.64998L15.9809 4.15773C16.3424 3.79623 16.7642 3.61548 17.2464 3.61548C17.7284 3.61548 18.1501 3.79623 18.5116 4.15773L20.6886 6.33473C21.0501 6.69623 21.2309 7.11798 21.2309 7.59998C21.2309 8.08198 21.0501 8.50373 20.6886 8.86523L15.1961 14.3577L10.4886 9.64998Z" fill="#273540"/>
</svg>
