<svg width="8" height="5" viewBox="0 0 8 5" fill="none" xmlns="http://www.w3.org/2000/svg">
<path d="M0.680754 4.75C0.545254 4.75 0.436087 4.70433 0.353254 4.613C0.270421 4.52183 0.229004 4.41542 0.229004 4.29375C0.229004 4.26325 0.275754 4.15766 0.369254 3.977L3.52025 0.825998C3.59259 0.753498 3.66742 0.700582 3.74475 0.667249C3.82209 0.633915 3.90717 0.617249 4 0.617249C4.09284 0.617249 4.17792 0.633915 4.25525 0.667249C4.33259 0.700582 4.40742 0.753498 4.47975 0.825998L7.631 3.977C7.67434 4.0205 7.7085 4.06908 7.7335 4.12275C7.7585 4.17625 7.771 4.23366 7.771 4.295C7.771 4.4175 7.72959 4.524 7.64675 4.6145C7.56392 4.70483 7.45475 4.75 7.31925 4.75H0.680754Z" fill="#273540"/>
</svg>
