<svg width="24" height="24" viewBox="0 0 24 24" fill="none" xmlns="http://www.w3.org/2000/svg">
<path d="M12.0017 21.5C10.6877 21.5 9.45267 21.2507 8.2965 20.752C7.14033 20.2533 6.13467 19.5766 5.2795 18.7218C4.42433 17.8669 3.74725 16.8617 3.24825 15.706C2.74942 14.5503 2.5 13.3156 2.5 12.0017C2.5 10.6877 2.74933 9.45267 3.248 8.2965C3.74667 7.14033 4.42342 6.13467 5.27825 5.2795C6.13308 4.42433 7.13833 3.74725 8.294 3.24825C9.44967 2.74942 10.6844 2.5 11.9983 2.5C13.3123 2.5 14.5473 2.74933 15.7035 3.248C16.8597 3.74667 17.8653 4.42342 18.7205 5.27825C19.5757 6.13308 20.2528 7.13833 20.7518 8.294C21.2506 9.44967 21.5 10.6844 21.5 11.9983C21.5 13.3123 21.2507 14.5473 20.752 15.7035C20.2533 16.8597 19.5766 17.8653 18.7218 18.7205C17.8669 19.5757 16.8617 20.2528 15.706 20.7518C14.5503 21.2506 13.3156 21.5 12.0017 21.5ZM12 20C14.2333 20 16.125 19.225 17.675 17.675C19.225 16.125 20 14.2333 20 12C20 9.76667 19.225 7.875 17.675 6.325C16.125 4.775 14.2333 4 12 4C9.76667 4 7.875 4.775 6.325 6.325C4.775 7.875 4 9.76667 4 12C4 14.2333 4.775 16.125 6.325 17.675C7.875 19.225 9.76667 20 12 20ZM13.25 12.75V16C13.25 16.2125 13.3219 16.3906 13.4658 16.5343C13.6096 16.6781 13.7878 16.75 14.0003 16.75C14.2129 16.75 14.391 16.6781 14.5345 16.5343C14.6782 16.3906 14.75 16.2125 14.75 16V8C14.75 7.7875 14.6781 7.60942 14.5343 7.46575C14.3904 7.32192 14.2122 7.25 13.9998 7.25C13.7871 7.25 13.609 7.32192 13.4655 7.46575C13.3218 7.60942 13.25 7.7875 13.25 8V11.25H10.75V8C10.75 7.7875 10.6781 7.60942 10.5343 7.46575C10.3904 7.32192 10.2122 7.25 9.99975 7.25C9.78708 7.25 9.609 7.32192 9.4655 7.46575C9.32183 7.60942 9.25 7.7875 9.25 8V11.8463C9.25 12.1023 9.33658 12.3169 9.50975 12.4902C9.68308 12.6634 9.89775 12.75 10.1537 12.75H13.25Z" fill="#273540"/>
</svg>
