<svg width="24" height="24" viewBox="0 0 24 24" fill="none" xmlns="http://www.w3.org/2000/svg">
<path d="M4.25 17.5C4.0375 17.5 3.85942 17.4281 3.71575 17.2843C3.57192 17.1404 3.5 16.9622 3.5 16.7498C3.5 16.5371 3.57192 16.359 3.71575 16.2155C3.85942 16.0718 4.0375 16 4.25 16H8.125C8.3375 16 8.51558 16.0719 8.65925 16.2158C8.80308 16.3596 8.875 16.5378 8.875 16.7503C8.875 16.9629 8.80308 17.141 8.65925 17.2845C8.51558 17.4282 8.3375 17.5 8.125 17.5H4.25ZM4.25 12.75C4.0375 12.75 3.85942 12.6781 3.71575 12.5342C3.57192 12.3904 3.5 12.2122 3.5 11.9997C3.5 11.7871 3.57192 11.609 3.71575 11.4655C3.85942 11.3218 4.0375 11.25 4.25 11.25H13.9327C14.1453 11.25 14.3233 11.3219 14.467 11.4658C14.6108 11.6096 14.6827 11.7878 14.6827 12.0003C14.6827 12.2129 14.6108 12.391 14.467 12.5345C14.3233 12.6782 14.1453 12.75 13.9327 12.75H4.25ZM4.25 8C4.0375 8 3.85942 7.92808 3.71575 7.78425C3.57192 7.64042 3.5 7.46225 3.5 7.24975C3.5 7.03708 3.57192 6.859 3.71575 6.7155C3.85942 6.57183 4.0375 6.5 4.25 6.5H19.75C19.9625 6.5 20.1406 6.57192 20.2843 6.71575C20.4281 6.85958 20.5 7.03775 20.5 7.25025C20.5 7.46292 20.4281 7.641 20.2843 7.7845C20.1406 7.92817 19.9625 8 19.75 8H4.25Z" fill="#273540"/>
</svg>
