<svg width="24" height="24" viewBox="0 0 24 24" fill="none" xmlns="http://www.w3.org/2000/svg">
<path d="M8.077 9.05775C7.8645 9.05775 7.68633 8.98583 7.5425 8.842C7.39883 8.69817 7.327 8.52 7.327 8.3075C7.327 8.09483 7.39883 7.91667 7.5425 7.773C7.68633 7.6295 7.8645 7.55775 8.077 7.55775H19.75C19.9625 7.55775 20.1406 7.62967 20.2843 7.7735C20.4281 7.91733 20.5 8.0955 20.5 8.308C20.5 8.52067 20.4281 8.69875 20.2843 8.84225C20.1406 8.98592 19.9625 9.05775 19.75 9.05775H8.077ZM8.077 12.75C7.8645 12.75 7.68633 12.6781 7.5425 12.5342C7.39883 12.3904 7.327 12.2122 7.327 11.9997C7.327 11.7871 7.39883 11.609 7.5425 11.4655C7.68633 11.3218 7.8645 11.25 8.077 11.25H19.75C19.9625 11.25 20.1406 11.3219 20.2843 11.4658C20.4281 11.6096 20.5 11.7878 20.5 12.0003C20.5 12.2129 20.4281 12.391 20.2843 12.5345C20.1406 12.6782 19.9625 12.75 19.75 12.75H8.077ZM8.077 16.4423C7.8645 16.4423 7.68633 16.3703 7.5425 16.2265C7.39883 16.0827 7.327 15.9045 7.327 15.692C7.327 15.4793 7.39883 15.3012 7.5425 15.1578C7.68633 15.0141 7.8645 14.9423 8.077 14.9423H19.75C19.9625 14.9423 20.1406 15.0142 20.2843 15.158C20.4281 15.3018 20.5 15.48 20.5 15.6925C20.5 15.9052 20.4281 16.0833 20.2843 16.227C20.1406 16.3705 19.9625 16.4423 19.75 16.4423H8.077ZM4.30775 9.1155C4.07892 9.1155 3.88708 9.03717 3.73225 8.8805C3.57742 8.72383 3.5 8.52967 3.5 8.298C3.5 8.072 3.57742 7.8825 3.73225 7.7295C3.88708 7.5765 4.07892 7.5 4.30775 7.5C4.53658 7.5 4.72842 7.5765 4.88325 7.7295C5.03808 7.8825 5.1155 8.072 5.1155 8.298C5.1155 8.52967 5.03808 8.72383 4.88325 8.8805C4.72842 9.03717 4.53658 9.1155 4.30775 9.1155ZM4.30775 12.798C4.07892 12.798 3.88708 12.7215 3.73225 12.5685C3.57742 12.4157 3.5 12.2262 3.5 12C3.5 11.7615 3.57742 11.5657 3.73225 11.4125C3.88708 11.2593 4.07892 11.1827 4.30775 11.1827C4.53658 11.1827 4.72842 11.2593 4.88325 11.4125C5.03808 11.5657 5.1155 11.7615 5.1155 12C5.1155 12.2262 5.03808 12.4157 4.88325 12.5685C4.72842 12.7215 4.53658 12.798 4.30775 12.798ZM4.30775 16.5C4.07892 16.5 3.88708 16.4217 3.73225 16.265C3.57742 16.1083 3.5 15.9143 3.5 15.6827C3.5 15.4566 3.57742 15.267 3.73225 15.114C3.88708 14.961 4.07892 14.8845 4.30775 14.8845C4.53658 14.8845 4.72842 14.961 4.88325 15.114C5.03808 15.267 5.1155 15.4566 5.1155 15.6827C5.1155 15.9143 5.03808 16.1083 4.88325 16.265C4.72842 16.4217 4.53658 16.5 4.30775 16.5Z" fill="#273540"/>
</svg>
