<svg width="108" height="134" viewBox="0 0 108 134" fill="none" xmlns="http://www.w3.org/2000/svg">
<g clip-path="url(#clip0_4274_28893)">
<path d="M54.1665 133.073C83.4376 133.073 107.166 128.484 107.166 122.823C107.166 117.162 83.4376 112.573 54.1665 112.573C24.8954 112.573 1.1665 117.162 1.1665 122.823C1.1665 128.484 24.8954 133.073 54.1665 133.073Z" fill="black" fill-opacity="0.05"/>
<path fill-rule="evenodd" clip-rule="evenodd" d="M79.6941 70.6977C90.9927 82.5344 96.2465 91.9914 93.6527 97.5616C90.8724 103.534 78.4907 107.832 75.389 95.579C73.0498 86.3393 75.2435 75.4118 76.4638 70.5946C77.5498 70.6529 78.6278 70.6886 79.6941 70.6977Z" fill="#2D3B45" stroke="#152633" stroke-width="2"/>
<path fill-rule="evenodd" clip-rule="evenodd" d="M34.1285 70.896C34.8386 75.8144 35.878 86.9113 32.5858 95.8559C28.2204 107.717 16.3557 102.149 14.2149 95.9185C12.2176 90.1077 18.4312 81.2517 30.9051 70.6609C31.9665 70.7633 33.0424 70.8405 34.1285 70.896Z" fill="#2D3B45" stroke="#152633" stroke-width="2"/>
<path fill-rule="evenodd" clip-rule="evenodd" d="M75.4253 72.1609C68.6636 74.4126 60.9468 75.6365 52.7516 75.6365C45.4469 75.6365 38.6897 74.7746 32.7243 73.085C30.329 78.4487 27.6157 85.3214 27.0215 90.075C25.2737 102.307 35.9067 113.029 54.7878 113.029C73.669 113.029 83.5327 101.922 81.3776 90.4452C79.8923 82.5385 77.4981 76.565 75.4253 72.1609Z" fill="white" stroke="#152633" stroke-width="2"/>
<path fill-rule="evenodd" clip-rule="evenodd" d="M50.3766 97.3395C50.6779 96.5269 51.46 95.9478 52.3775 95.9478C53.2949 95.9478 54.077 96.5269 54.3783 97.3395C55.1959 97.0703 56.1301 97.3151 56.7039 98.0237C57.2848 98.741 57.3239 99.7209 56.8734 100.468C57.6002 100.944 57.9905 101.838 57.7837 102.734C57.5778 103.626 56.8402 104.257 55.9829 104.37C56.0636 105.228 55.6148 106.086 54.7936 106.487C53.9656 106.891 53.0043 106.71 52.3775 106.106C51.7506 106.71 50.7893 106.891 49.9613 106.487C49.1401 106.086 48.6913 105.228 48.772 104.37C47.9147 104.257 47.1771 103.626 46.9712 102.734C46.7644 101.838 47.1547 100.944 47.8816 100.468C47.431 99.7209 47.4701 98.741 48.051 98.0237C48.6248 97.3151 49.5591 97.0703 50.3766 97.3395Z" fill="#2D3B45" stroke="#152633" stroke-width="2"/>
<path fill-rule="evenodd" clip-rule="evenodd" d="M91.4056 118.439C88.4438 103.26 81.9007 94.2027 81.5305 91.241C82.9736 101.326 75.0279 111.113 59.99 112.942L60.3073 114.367C61.4179 120.29 63.6392 122.512 67.3414 123.622C75.4862 126.584 93.2567 125.473 91.4056 118.439Z" fill="#2D3B45" stroke="#152633" stroke-width="2"/>
<path fill-rule="evenodd" clip-rule="evenodd" d="M26.8588 91.4122C26.4342 94.3747 19.7703 103.26 16.8085 118.439C14.9574 125.473 32.7279 126.584 40.8727 123.622C44.5749 122.511 46.7962 120.29 47.9068 114.366L48.2086 113.133L48.2241 112.792C33.9733 110.693 26.0114 101.698 26.8588 91.4122Z" fill="#2D3B45" stroke="#152633" stroke-width="2"/>
<path fill-rule="evenodd" clip-rule="evenodd" d="M15.6358 36.5023C14.3241 36.4441 12.8556 36.2095 11.2772 35.6767C5.20744 33.6269 4.9175 28.3414 4.66056 26.6603C4.40362 24.9793 4.36851 15.9051 11.5778 17.1851C16.2338 18.0118 19.7148 19.9018 22.9258 21.4613C19.5754 26.017 17.1078 31.1563 15.6358 36.5023Z" fill="#2D3B45" stroke="#152633" stroke-width="2"/>
<path fill-rule="evenodd" clip-rule="evenodd" d="M12.9551 44.7954C12.9551 64.8187 30.1656 75.5208 53.8255 75.5208C77.4853 75.5208 96.6655 63.4378 96.6655 45.4858C96.6655 23.1782 77.4853 1.64172 53.8255 1.64172C30.1656 1.64172 12.9551 23.7364 12.9551 44.7954Z" fill="white" stroke="#152633" stroke-width="2"/>
<path fill-rule="evenodd" clip-rule="evenodd" d="M85.4228 37.9355C86.9964 37.2826 88.6821 36.345 90.3699 34.9951C96.8598 29.8032 95.5618 21.15 95.1292 18.9867C94.6965 16.8233 92.1005 6.43948 83.88 11.1988C78.5708 14.2724 75.5118 18.033 72.2893 21.3588C77.6369 25.9043 83.88 33.6583 85.4228 37.9355Z" fill="#2D3B45" stroke="#152633" stroke-width="2"/>
</g>
<defs>
<clipPath id="clip0_4274_28893">
<rect width="107" height="133" fill="white" transform="translate(0.25 0.428589)"/>
</clipPath>
</defs>
</svg>
