<svg width="24" height="24" viewBox="0 0 24 24" fill="none" xmlns="http://www.w3.org/2000/svg">
<path d="M16.0577 10C16.2706 10 16.4488 9.92817 16.5922 9.7845C16.7359 9.641 16.8077 9.46283 16.8077 9.25C16.8077 9.03717 16.7359 8.859 16.5922 8.7155C16.4488 8.57183 16.2706 8.5 16.0577 8.5H12.75C12.5372 8.5 12.359 8.57183 12.2155 8.7155C12.0718 8.859 12 9.03717 12 9.25C12 9.46283 12.0718 9.641 12.2155 9.7845C12.359 9.92817 12.5372 10 12.75 10H16.0577ZM16.0577 15.5C16.2706 15.5 16.4488 15.4282 16.5922 15.2845C16.7359 15.141 16.8077 14.9628 16.8077 14.75C16.8077 14.5372 16.7359 14.359 16.5922 14.2155C16.4488 14.0718 16.2706 14 16.0577 14H12.75C12.5372 14 12.359 14.0718 12.2155 14.2155C12.0718 14.359 12 14.5372 12 14.75C12 14.9628 12.0718 15.141 12.2155 15.2845C12.359 15.4282 12.5372 15.5 12.75 15.5H16.0577ZM9 10.8652C9.4475 10.8652 9.82858 10.7079 10.1433 10.3932C10.4579 10.0786 10.6152 9.6975 10.6152 9.25C10.6152 8.80267 10.4579 8.42158 10.1433 8.10675C9.82858 7.79208 9.4475 7.63475 9 7.63475C8.5525 7.63475 8.17142 7.79208 7.85675 8.10675C7.54208 8.42158 7.38475 8.80267 7.38475 9.25C7.38475 9.6975 7.54208 10.0786 7.85675 10.3932C8.17142 10.7079 8.5525 10.8652 9 10.8652ZM9 16.3652C9.4475 16.3652 9.82858 16.2079 10.1433 15.8933C10.4579 15.5784 10.6152 15.1973 10.6152 14.75C10.6152 14.3025 10.4579 13.9214 10.1433 13.6067C9.82858 13.2921 9.4475 13.1348 9 13.1348C8.5525 13.1348 8.17142 13.2921 7.85675 13.6067C7.54208 13.9214 7.38475 14.3025 7.38475 14.75C7.38475 15.1973 7.54208 15.5784 7.85675 15.8933C8.17142 16.2079 8.5525 16.3652 9 16.3652ZM5.30775 20.5C4.80258 20.5 4.375 20.325 4.025 19.975C3.675 19.625 3.5 19.1974 3.5 18.6923V5.30775C3.5 4.80258 3.675 4.375 4.025 4.025C4.375 3.675 4.80258 3.5 5.30775 3.5H18.6923C19.1974 3.5 19.625 3.675 19.975 4.025C20.325 4.375 20.5 4.80258 20.5 5.30775V18.6923C20.5 19.1974 20.325 19.625 19.975 19.975C19.625 20.325 19.1974 20.5 18.6923 20.5H5.30775ZM5.30775 19H18.6923C18.7692 19 18.8398 18.9679 18.9038 18.9038C18.9679 18.8398 19 18.7692 19 18.6923V5.30775C19 5.23075 18.9679 5.16025 18.9038 5.09625C18.8398 5.03208 18.7692 5 18.6923 5H5.30775C5.23075 5 5.16025 5.03208 5.09625 5.09625C5.03208 5.16025 5 5.23075 5 5.30775V18.6923C5 18.7692 5.03208 18.8398 5.09625 18.9038C5.16025 18.9679 5.23075 19 5.30775 19Z" fill="#273540"/>
</svg>
