<svg width="24" height="24" viewBox="0 0 24 24" fill="none" xmlns="http://www.w3.org/2000/svg">
<path d="M17.673 15.6443C17.673 17.2683 17.108 18.6502 15.9778 19.79C14.8478 20.93 13.4722 21.5 11.851 21.5C10.2299 21.5 8.85262 20.93 7.71929 19.79C6.58595 18.6502 6.01929 17.2683 6.01929 15.6443V6.65375C6.01929 5.49992 6.41995 4.51917 7.22129 3.7115C8.02245 2.90383 8.99995 2.5 10.1538 2.5C11.3076 2.5 12.2852 2.90383 13.0865 3.7115C13.8879 4.51917 14.2885 5.49992 14.2885 6.65375V15.1635C14.2885 15.8403 14.0528 16.4182 13.5813 16.897C13.1096 17.3758 12.535 17.6152 11.8573 17.6152C11.1795 17.6152 10.6011 17.3775 10.1223 16.902C9.64345 16.4265 9.40404 15.847 9.40404 15.1635V7.13475C9.40404 6.92225 9.47587 6.74408 9.61954 6.60025C9.76337 6.45658 9.94162 6.38475 10.1543 6.38475C10.3668 6.38475 10.5449 6.45658 10.6885 6.60025C10.832 6.74408 10.9038 6.92225 10.9038 7.13475V15.1635C10.9038 15.4315 10.9939 15.6572 11.174 15.8405C11.3542 16.0238 11.5783 16.1155 11.8463 16.1155C12.1141 16.1155 12.3381 16.0238 12.5183 15.8405C12.6985 15.6572 12.7885 15.4315 12.7885 15.1635V6.64425C12.7782 5.90575 12.5217 5.28042 12.019 4.76825C11.5164 4.25608 10.8946 4 10.1538 4C9.41612 4 8.79262 4.25767 8.28329 4.773C7.77395 5.2885 7.51929 5.91542 7.51929 6.65375V15.6443C7.50895 16.8533 7.92687 17.8814 8.77304 18.7288C9.6192 19.5763 10.6464 20 11.8545 20C13.0455 20 14.058 19.5763 14.8918 18.7288C15.7255 17.8814 16.1525 16.8533 16.173 15.6443V7.13475C16.173 6.92225 16.245 6.74408 16.3888 6.60025C16.5326 6.45658 16.7109 6.38475 16.9235 6.38475C17.136 6.38475 17.3141 6.45658 17.4578 6.60025C17.6013 6.74408 17.673 6.92225 17.673 7.13475V15.6443Z" fill="#273540"/>
</svg>
