<svg width="24" height="24" viewBox="0 0 24 24" fill="none" xmlns="http://www.w3.org/2000/svg">
<path d="M14.8771 8.62301C15.2834 9.02951 15.5975 9.52343 15.8193 10.1048C16.0412 10.6863 16.1251 11.2699 16.0711 11.8558C16.0711 12.0481 16.0019 12.2109 15.8636 12.3443C15.7251 12.4776 15.5597 12.5443 15.3673 12.5443C15.175 12.5443 15.0122 12.4776 14.8788 12.3443C14.7455 12.2109 14.6788 12.0481 14.6788 11.8558C14.743 11.4161 14.7068 10.9994 14.5703 10.6058C14.4338 10.2123 14.2239 9.87385 13.9406 9.59051C13.6572 9.30718 13.3156 9.0921 12.9156 8.94526C12.5156 8.79843 12.0937 8.76026 11.6501 8.83076C11.4577 8.83726 11.2917 8.77285 11.1521 8.63751C11.0122 8.50235 10.9392 8.33859 10.9328 8.14626C10.9263 7.95393 10.9882 7.78785 11.1183 7.64801C11.2485 7.50835 11.4097 7.43534 11.6021 7.42901C12.1841 7.36234 12.769 7.43826 13.3568 7.65676C13.9447 7.87543 14.4514 8.19751 14.8771 8.62301ZM12.0001 6.00001C11.6449 6.00001 11.2965 6.01735 10.9548 6.05201C10.6132 6.08651 10.2731 6.14351 9.93457 6.22301C9.72174 6.26668 9.53007 6.23626 9.35957 6.13176C9.18907 6.02726 9.07182 5.87693 9.00782 5.68076C8.94366 5.47826 8.96482 5.28568 9.07132 5.10301C9.17766 4.92035 9.33207 4.80718 9.53457 4.76351C9.93724 4.66735 10.344 4.59943 10.7548 4.55976C11.1658 4.51993 11.5809 4.50001 12.0001 4.50001C14.1487 4.50001 16.1225 5.05835 17.9213 6.17501C19.72 7.29168 21.1032 8.8026 22.0711 10.7078C22.1377 10.8346 22.1862 10.9624 22.2163 11.0913C22.2465 11.2201 22.2616 11.3563 22.2616 11.5C22.2616 11.6437 22.2491 11.7799 22.2241 11.9088C22.1991 12.0376 22.1532 12.1654 22.0866 12.2923C21.7802 12.9333 21.4078 13.531 20.9693 14.0855C20.5308 14.64 20.0481 15.1493 19.5211 15.6135C19.3661 15.752 19.1889 15.8093 18.9896 15.7855C18.7901 15.7618 18.6262 15.6622 18.4981 15.4865C18.3699 15.3108 18.3167 15.1224 18.3386 14.9213C18.3604 14.7199 18.4488 14.55 18.6038 14.4115C19.0552 14.0025 19.4667 13.5554 19.8386 13.0703C20.2104 12.5849 20.5309 12.0615 20.8001 11.5C19.9667 9.81668 18.7626 8.47918 17.1876 7.48751C15.6126 6.49585 13.8834 6.00001 12.0001 6.00001ZM12.0001 18.5C9.89491 18.5 7.96541 17.9375 6.21157 16.8125C4.45774 15.6875 3.06357 14.2058 2.02907 12.3673C1.94574 12.2404 1.88482 12.1026 1.84632 11.9538C1.80782 11.8051 1.78857 11.6538 1.78857 11.5C1.78857 11.3462 1.80524 11.1974 1.83857 11.0538C1.87191 10.9103 1.93024 10.7699 2.01357 10.6328C2.38541 9.95326 2.80657 9.3061 3.27707 8.69126C3.74757 8.0766 4.28857 7.52568 4.90007 7.03851L2.64232 4.76526C2.50399 4.6166 2.43574 4.44001 2.43757 4.23551C2.43957 4.03101 2.51299 3.85635 2.65782 3.71151C2.80266 3.56668 2.97832 3.49426 3.18482 3.49426C3.39116 3.49426 3.56674 3.56668 3.71157 3.71151L20.2886 20.2885C20.4271 20.427 20.5005 20.5984 20.5088 20.8028C20.5172 21.0073 20.4437 21.1871 20.2886 21.3423C20.1437 21.4871 19.9681 21.5595 19.7616 21.5595C19.5552 21.5595 19.3797 21.4871 19.2348 21.3423L15.7156 17.8538C15.1257 18.0819 14.5196 18.2467 13.8971 18.348C13.2747 18.4493 12.6424 18.5 12.0001 18.5ZM5.95407 8.09226C5.36807 8.54493 4.84141 9.05676 4.37407 9.62776C3.90674 10.1989 3.51541 10.823 3.20007 11.5C4.03341 13.1833 5.23757 14.5208 6.81257 15.5125C8.38757 16.5042 10.1167 17 12.0001 17C12.4296 17 12.8523 16.9712 13.2683 16.9135C13.6843 16.8558 14.0975 16.7668 14.5078 16.6463L13.2423 15.35C13.0398 15.4385 12.8376 15.4984 12.6356 15.5298C12.4337 15.5613 12.2219 15.577 12.0001 15.577C10.8654 15.577 9.90224 15.1812 9.11057 14.3895C8.31891 13.5978 7.92307 12.6347 7.92307 11.5C7.92307 11.2782 7.94041 11.0663 7.97507 10.8645C8.00974 10.6625 8.06807 10.4603 8.15007 10.2578L5.95407 8.09226Z" fill="#273540"/>
</svg>
