<svg xmlns="http://www.w3.org/2000/svg" viewBox="0 0 24 24"><g transform="matrix(0.010416666666666666 0 0 0.010416666666666666 2 2)"><path d="M1740.135 0c32.46 0 58.775 26.315 58.775 58.776v1125.587c0 32.46-26.314 58.775-58.775 58.775h-245.278v199.818c0 14.201 11.512 25.714 25.714 25.714h61.463c23.377-65.684 86.101-112.707 159.808-112.707 93.658 0 169.582 75.924 169.582 169.581 0 93.657-75.924 169.582-169.582 169.582-74.315 0-137.465-47.803-160.379-114.337l-59.1.048c-77.131 0-139.628-62.497-139.628-139.592l.033-198.107h-123.405v347.178c66.118 23.143 113.538 86.085 113.538 160.103 0 93.657-75.924 169.581-169.581 169.581-93.657 0-169.581-75.924-169.581-169.581 0-74.018 47.42-136.96 113.538-160.103v-347.178H782.214v347.178c66.118 23.143 113.538 86.085 113.538 160.103 0 93.657-75.924 169.581-169.581 169.581-93.657 0-169.581-75.924-169.581-169.581 0-74.018 47.42-136.96 113.538-160.103v-347.178H546.656l.033 198.107c0 77.095-62.497 139.592-139.592 139.592l-59.136-.048c-22.914 66.534-86.064 114.337-160.38 114.337C93.924 1695.126 18 1619.2 18 1525.544s75.924-169.581 169.581-169.581c73.707 0 136.431 47.023 159.809 112.707h61.463c14.201 0 25.714-11.513 25.714-25.714v-199.818H188.115c-32.461 0-58.776-26.314-58.776-58.775V58.776C129.339 26.315 155.654 0 188.115 0h1552.02ZM1204.67 1694.79c-30.723 0-55.629 24.906-55.629 55.629s24.906 55.629 55.63 55.629c30.722 0 55.628-24.906 55.628-55.63 0-30.722-24.906-55.628-55.629-55.628Zm-477.149 0c-30.723 0-55.629 24.906-55.629 55.629s24.906 55.629 55.629 55.629 55.629-24.906 55.629-55.63c0-30.722-24.906-55.628-55.629-55.628Zm1015.672-224.875c-30.723 0-55.63 24.906-55.63 55.63 0 30.722 24.907 55.628 55.63 55.628 30.723 0 55.628-24.906 55.628-55.629s-24.905-55.629-55.628-55.629Zm-1556.964 0c-30.723 0-55.629 24.906-55.629 55.63 0 30.722 24.906 55.628 55.63 55.628 30.722 0 55.628-24.906 55.628-55.629s-24.906-55.629-55.629-55.629ZM1692.202 1040H236.047v67.099c0 16.23 13.157 29.387 29.388 29.387h1397.38c16.23 0 29.387-13.157 29.387-29.387V1040Zm-29.388-933.333H265.434c-16.23 0-29.387 13.157-29.387 29.387v797.28h1456.155v-797.28c0-16.23-13.157-29.387-29.388-29.387ZM906.047 348.665l220.035 131.796C1138.59 489.628 1146 504.338 1146 520c0 15.662-7.41 30.372-19.918 39.539L906.047 691.335a47.406 47.406 0 0 1-48.007.014c-14.858-8.697-24.02-24.777-24.04-42.189V390.84c.02-17.412 9.182-33.492 24.04-42.19a47.406 47.406 0 0 1 48.007.015Z" fill-rule="evenodd"/></g>
</svg>