<svg width="24" height="24" viewBox="0 0 24 24" fill="none" xmlns="http://www.w3.org/2000/svg">
<path d="M6.99975 17.75C6.78708 17.75 6.609 17.6781 6.4655 17.5343C6.32183 17.3906 6.25 17.2125 6.25 17V7C6.25 6.7875 6.32192 6.60942 6.46575 6.46575C6.60958 6.32192 6.78775 6.25 7.00025 6.25C7.21292 6.25 7.391 6.32192 7.5345 6.46575C7.67817 6.60942 7.75 6.7875 7.75 7V17C7.75 17.2125 7.67808 17.3906 7.53425 17.5343C7.39042 17.6781 7.21225 17.75 6.99975 17.75ZM13.4538 12L17.527 16.073C17.6653 16.2115 17.7362 16.3856 17.7395 16.5953C17.7427 16.8048 17.6718 16.982 17.527 17.127C17.382 17.2718 17.2063 17.3442 17 17.3442C16.7937 17.3442 16.618 17.2718 16.473 17.127L11.9787 12.6328C11.8853 12.5391 11.8193 12.4399 11.7808 12.3353C11.7423 12.2306 11.723 12.1184 11.723 11.9988C11.723 11.8791 11.7423 11.7673 11.7808 11.6635C11.8193 11.5597 11.8853 11.4609 11.9787 11.3672L16.473 6.873C16.6115 6.73467 16.7856 6.66383 16.9952 6.6605C17.2048 6.65733 17.382 6.72817 17.527 6.873C17.6718 7.018 17.7443 7.19367 17.7443 7.4C17.7443 7.60633 17.6718 7.782 17.527 7.927L13.4538 12Z" fill="#273540"/>
</svg>
