<svg width="24" height="24" viewBox="0 0 24 24" fill="none" xmlns="http://www.w3.org/2000/svg">
<path d="M10.5001 14.5443L4.06159 20.9828C3.92309 21.1211 3.75067 21.1887 3.54434 21.1855C3.338 21.1823 3.16559 21.1115 3.02709 20.973C2.88859 20.8345 2.81934 20.6599 2.81934 20.4493C2.81934 20.2386 2.88859 20.0651 3.02709 19.9288L9.45584 13.5H5.25009C5.03759 13.5 4.8595 13.4281 4.71584 13.2843C4.572 13.1404 4.50009 12.9623 4.50009 12.7498C4.50009 12.5371 4.572 12.359 4.71584 12.2155C4.8595 12.0718 5.03759 12 5.25009 12H11.0963C11.3523 12 11.567 12.0866 11.7403 12.2598C11.9135 12.4331 12.0001 12.6478 12.0001 12.9038V18.75C12.0001 18.9625 11.9282 19.1406 11.7843 19.2843C11.6405 19.4281 11.4623 19.5 11.2498 19.5C11.0372 19.5 10.8591 19.4281 10.7156 19.2843C10.5719 19.1406 10.5001 18.9625 10.5001 18.75V14.5443ZM14.5443 10.5H18.7501C18.9626 10.5 19.1407 10.5719 19.2843 10.7158C19.4282 10.8596 19.5001 11.0378 19.5001 11.2503C19.5001 11.4629 19.4282 11.641 19.2843 11.7845C19.1407 11.9282 18.9626 12 18.7501 12H12.9038C12.6478 12 12.4332 11.9134 12.2598 11.7403C12.0867 11.5669 12.0001 11.3523 12.0001 11.0963V5.25C12.0001 5.0375 12.072 4.85942 12.2158 4.71575C12.3597 4.57192 12.5378 4.5 12.7503 4.5C12.963 4.5 13.1411 4.57192 13.2846 4.71575C13.4283 4.85942 13.5001 5.0375 13.5001 5.25V9.45575L19.9386 3.01725C20.0749 2.87892 20.2484 2.80975 20.4591 2.80975C20.6698 2.80975 20.8443 2.87892 20.9828 3.01725C21.1212 3.15575 21.1903 3.33034 21.1903 3.541C21.1903 3.75167 21.1212 3.92517 20.9828 4.0615L14.5443 10.5Z" fill="#273540"/>
</svg>
