<svg width="24" height="24" viewBox="0 0 24 24" fill="none" xmlns="http://www.w3.org/2000/svg">
<path d="M4.15375 10.75C3.89775 10.75 3.68308 10.6634 3.50975 10.4902C3.33658 10.3169 3.25 10.1022 3.25 9.84625V4.15375C3.25 3.89775 3.33658 3.68308 3.50975 3.50975C3.68308 3.33658 3.89775 3.25 4.15375 3.25H9.84625C10.1023 3.25 10.3169 3.33658 10.4902 3.50975C10.6634 3.68308 10.75 3.89775 10.75 4.15375V9.84625C10.75 10.1022 10.6634 10.3169 10.4902 10.4902C10.3169 10.6634 10.1023 10.75 9.84625 10.75H4.15375ZM14.1538 10.75C13.8978 10.75 13.6831 10.6634 13.5098 10.4902C13.3366 10.3169 13.25 10.1022 13.25 9.84625V4.15375C13.25 3.89775 13.3366 3.68308 13.5098 3.50975C13.6831 3.33658 13.8978 3.25 14.1538 3.25H19.8463C20.1022 3.25 20.3169 3.33658 20.4902 3.50975C20.6634 3.68308 20.75 3.89775 20.75 4.15375V9.84625C20.75 10.1022 20.6634 10.3169 20.4902 10.4902C20.3169 10.6634 20.1022 10.75 19.8463 10.75H14.1538ZM4.15375 20.75C3.89775 20.75 3.68308 20.6634 3.50975 20.4902C3.33658 20.3169 3.25 20.1022 3.25 19.8463V14.1538C3.25 13.8977 3.33658 13.6831 3.50975 13.5098C3.68308 13.3366 3.89775 13.25 4.15375 13.25H9.84625C10.1023 13.25 10.3169 13.3366 10.4902 13.5098C10.6634 13.6831 10.75 13.8977 10.75 14.1538V19.8463C10.75 20.1022 10.6634 20.3169 10.4902 20.4902C10.3169 20.6634 10.1023 20.75 9.84625 20.75H4.15375ZM16.9998 20.75C16.7871 20.75 16.609 20.6781 16.4655 20.5343C16.3218 20.3906 16.25 20.2125 16.25 20V17.75H13.975C13.7687 17.75 13.5963 17.6781 13.4578 17.5343C13.3193 17.3904 13.25 17.2122 13.25 16.9998C13.25 16.7871 13.3219 16.609 13.4658 16.4655C13.6094 16.3218 13.7875 16.25 14 16.25H16.25V13.975C16.25 13.7687 16.3219 13.5963 16.4658 13.4578C16.6096 13.3193 16.7878 13.25 17.0003 13.25C17.2129 13.25 17.391 13.3219 17.5345 13.4658C17.6782 13.6094 17.75 13.7875 17.75 14V16.25H20.025C20.2313 16.25 20.4037 16.3219 20.5422 16.4658C20.6807 16.6096 20.75 16.7878 20.75 17.0003C20.75 17.2129 20.6781 17.391 20.5343 17.5345C20.3906 17.6782 20.2125 17.75 20 17.75H17.75V20.025C17.75 20.2313 17.6781 20.4037 17.5343 20.5422C17.3904 20.6807 17.2122 20.75 16.9998 20.75ZM14.75 4.75V9.25H19.25V4.75H14.75ZM4.75 4.75V9.25H9.25V4.75H4.75ZM4.75 14.75V19.25H9.25V14.75H4.75Z" fill="#273540"/>
</svg>
