<svg width="147" height="143" viewBox="0 0 147 143" fill="none" xmlns="http://www.w3.org/2000/svg">
<g clip-path="url(#clip0_4274_29774)">
<path d="M63.5816 69.1886L52.9717 70.5673C49.0209 40.1637 58.4704 21.4501 81.3422 16.8757C98.0674 13.5307 114.938 21.666 123.31 36.4824C132.294 52.3835 129.781 72.2974 114.839 89.8902L106.684 82.9642C118.803 68.6947 120.705 53.623 113.995 41.7455C107.857 30.8831 95.5451 24.9461 83.4405 27.367C66.9092 30.6733 60.2821 43.7974 63.5816 69.1886Z" fill="white" stroke="#152633" stroke-width="2"/>
<path fill-rule="evenodd" clip-rule="evenodd" d="M64.0654 103.647C62.4671 107.646 58.4386 116.425 52.0918 121.711C43.6755 128.722 37.1836 119.402 38.2765 113.798C39.2953 108.571 47.7965 104.617 61.748 102.073C62.5002 102.61 63.2743 103.134 64.0654 103.647Z" fill="white" stroke="#152633" stroke-width="2"/>
<path fill-rule="evenodd" clip-rule="evenodd" d="M114.52 78.0697C105.536 71.9228 102.901 80.9756 101.441 83.1101C107.014 88.6831 109.905 99.2042 101.81 109.54C110.521 105.659 116.728 101.867 120.43 98.1653C124.846 93.7489 123.503 84.2166 114.52 78.0697Z" fill="white" stroke="#152633" stroke-width="2"/>
<path fill-rule="evenodd" clip-rule="evenodd" d="M87.5674 76.8781C87.3088 75.9718 87.0339 75.0784 86.7405 74.202C93.252 61.6038 99.519 54.6302 104.815 55.1841C110.494 55.7773 117.509 64.7106 108.344 70.7094C101.432 75.2332 91.8592 76.5189 87.5674 76.8781Z" fill="white" stroke="#152633" stroke-width="2"/>
<path fill-rule="evenodd" clip-rule="evenodd" d="M86.1597 74.7496C83.3959 80.2731 79.417 85.7521 74.3949 90.7742C69.9184 95.2507 65.2493 98.8635 60.5582 101.484C62.3773 106.239 64.9262 112.113 67.4752 115.39C73.9003 123.958 86.9865 124.012 98.5571 112.441C110.128 100.87 109.366 88.0193 101.012 82.3068C95.2568 78.3716 90.1289 76.1782 86.1597 74.7496Z" fill="white"/>
<path fill-rule="evenodd" clip-rule="evenodd" d="M86.3001 75.0679C83.5363 80.5914 79.5574 86.0705 74.5353 91.0926C70.0588 95.5691 65.3897 99.1818 60.6986 101.802C62.5177 106.557 65.0666 112.431 67.6156 115.709C74.0407 124.276 87.1268 124.33 98.6975 112.759C110.268 101.189 109.507 88.3377 101.153 82.6252C95.3971 78.69 90.2693 76.4966 86.3001 75.0679Z" stroke="#152633" stroke-width="2"/>
<path fill-rule="evenodd" clip-rule="evenodd" d="M121.327 94.6444C119.184 96.09 115.019 93.663 112.025 89.2235C109.03 84.784 108.34 80.0132 110.483 78.5676C112.626 77.122 116.791 79.549 119.786 83.9885C122.78 88.428 123.47 93.1988 121.327 94.6444Z" stroke="#152633" stroke-width="2"/>
<path fill-rule="evenodd" clip-rule="evenodd" d="M62.9268 129.662C56.7799 120.678 65.8327 118.043 67.9671 116.584C73.5402 122.157 84.0613 125.048 94.3973 116.953C90.5162 125.664 86.7245 131.871 83.0223 135.573C78.606 139.989 69.0736 138.646 62.9268 129.662Z" fill="white" stroke="#152633" stroke-width="2"/>
<path fill-rule="evenodd" clip-rule="evenodd" d="M79.4969 136.475C78.0513 138.618 73.2805 137.928 68.841 134.933C64.4015 131.939 61.9745 127.774 63.4201 125.631C64.8657 123.487 69.6365 124.178 74.076 127.172C78.5155 130.166 80.9425 134.331 79.4969 136.475Z" stroke="#152633" stroke-width="2"/>
<path d="M75.2961 91.287L76.2418 90.3413L98.938 113.038L97.9923 113.983L75.2961 91.287Z" fill="#152633"/>
<path d="M89.9543 51.0959C91.26 49.7902 89.0372 45.4504 84.9895 41.4027C80.9418 37.355 76.602 35.1322 75.2963 36.4379C73.9906 37.7436 76.2134 42.0834 80.2611 46.1311C84.3088 50.1788 88.6486 52.4016 89.9543 51.0959Z" fill="white" stroke="#152633" stroke-width="2"/>
<path d="M36.9963 104.054C38.302 102.748 36.0792 98.4082 32.0315 94.3605C27.9838 90.3128 23.644 88.09 22.3383 89.3957C21.0326 90.7014 23.2554 95.0412 27.3031 99.0889C31.3508 103.137 35.6906 105.359 36.9963 104.054Z" fill="white" stroke="#152633" stroke-width="2"/>
<path fill-rule="evenodd" clip-rule="evenodd" d="M28.5585 97.5071C41.5368 110.485 59.2262 106.67 75.3082 90.5875C91.3902 74.5055 95.6498 54.5823 84.0141 42.9465C69.5551 28.4875 43.5045 26.6199 27.4225 42.7019C11.3405 58.7839 14.9088 83.8574 28.5585 97.5071Z" fill="white" stroke="#152633" stroke-width="2"/>
<path fill-rule="evenodd" clip-rule="evenodd" d="M27.7457 93.8574C17.5777 83.6893 17.5683 62.3626 32.2211 47.7097C46.8739 33.0569 69.151 31.577 79.922 42.3479C88.5898 51.0157 73.0886 59.2716 58.4358 73.9245C43.783 88.5773 37.4137 103.525 27.7457 93.8574Z" fill="#2D3B45" stroke="#152633" stroke-width="2"/>
<path opacity="0.6" fill-rule="evenodd" clip-rule="evenodd" d="M26.6061 70.9673C28.6023 72.9635 30.08 61.7949 38.4544 53.4205C46.8289 45.046 58.3349 43.1186 56.3949 41.1786C54.9022 39.6859 44.2283 42.4454 35.8538 50.8199C27.4794 59.1943 25.3859 69.7471 26.6061 70.9673Z" fill="#F2F2F2"/>
<path d="M72.8926 32.0055C69.1034 29.3307 67.2087 26.2102 67.2087 22.6438" stroke="#152633" stroke-width="2"/>
<path d="M80.5572 28.1037C78.1222 25.3553 77.239 21.975 77.9077 17.9629" stroke="#152633" stroke-width="2"/>
<path d="M89.61 26.656C88.9413 24.3156 89.61 18.2973 91.9504 15.9569" stroke="#152633" stroke-width="2"/>
<path d="M99.3059 28.3276C99.9746 24.6498 101.312 21.3064 103.987 19.3003" stroke="#152633" stroke-width="2"/>
<path d="M107.665 34.0115C107.999 31.3367 111.677 26.9902 115.689 26.6559" stroke="#152633" stroke-width="2"/>
<path d="M114.017 41.3672C116.023 38.6924 120.37 36.352 123.379 37.0207" stroke="#152633" stroke-width="2"/>
<path d="M117.026 50.0602C119.032 47.7198 126.054 47.3854 127.725 48.3885" stroke="#152633" stroke-width="2"/>
<path d="M118.029 57.7501C121.038 57.7501 125.719 58.4188 128.06 60.4249" stroke="#152633" stroke-width="2"/>
<path d="M116.023 67.1119C120.704 68.115 124.382 70.4554 125.385 71.7928" stroke="#152633" stroke-width="2"/>
<path d="M112.345 74.8019C115.689 75.4706 121.373 79.1484 121.373 80.8201" stroke="#152633" stroke-width="2"/>
</g>
<defs>
<clipPath id="clip0_4274_29774">
<rect width="146.236" height="142.903" fill="white" transform="translate(0.587891 0.048645)"/>
</clipPath>
</defs>
</svg>
