<svg width="7" height="12" viewBox="0 0 7 12" fill="none" xmlns="http://www.w3.org/2000/svg">
<path d="M2.45365 6L6.5269 10.073C6.66523 10.2115 6.73607 10.3856 6.7394 10.5953C6.74257 10.8048 6.67173 10.982 6.5269 11.127C6.3819 11.2718 6.20623 11.3443 5.9999 11.3443C5.79357 11.3443 5.6179 11.2718 5.4729 11.127L0.97865 6.63275C0.88515 6.53909 0.81915 6.44034 0.78065 6.3365C0.74215 6.23267 0.7229 6.1205 0.7229 6C0.7229 5.8795 0.74215 5.76734 0.78065 5.6635C0.81915 5.55967 0.88515 5.46092 0.97865 5.36725L5.4729 0.873002C5.6114 0.734669 5.78548 0.663835 5.99515 0.660502C6.20465 0.657335 6.3819 0.728169 6.5269 0.873002C6.67173 1.018 6.74415 1.19367 6.74415 1.4C6.74415 1.60634 6.67173 1.782 6.5269 1.927L2.45365 6Z" fill="#273540"/>
</svg>
