<?xml version="1.0" encoding="UTF-8"?>
<!--Generator: Apple Native CoreSVG 175.5-->
<!DOCTYPE svg
PUBLIC "-//W3C//DTD SVG 1.1//EN"
       "http://www.w3.org/Graphics/SVG/1.1/DTD/svg11.dtd">
<svg version="1.1" xmlns="http://www.w3.org/2000/svg" xmlns:xlink="http://www.w3.org/1999/xlink" width="12.2733" height="21.0635">
 <g>
  <rect height="21.0635" opacity="0" width="12.2733" x="0" y="0"/>
  <path d="M0 10.5259C0 11.0015 0.168819 11.3971 0.559167 11.78L9.57638 20.6012C9.87621 20.909 10.2421 21.0555 10.6772 21.0555C11.5623 21.0555 12.2733 20.3563 12.2733 19.4823C12.2733 19.0397 12.0848 18.644 11.7706 18.3293L3.75358 10.5222L11.7706 2.72248C12.0885 2.40401 12.2733 2.00406 12.2733 1.57321C12.2733 0.695526 11.5623 0 10.6772 0C10.2384 0 9.87621 0.14646 9.57638 0.446294L0.559167 9.27174C0.172545 9.64664 0.00372648 10.0466 0 10.5259Z" fill="#000000" fill-opacity="0.85"/>
 </g>
</svg>
