<svg width="85" height="113" viewBox="0 0 85 113" fill="none" xmlns="http://www.w3.org/2000/svg">
<path fill-rule="evenodd" clip-rule="evenodd" d="M23.1698 99.4688H82.5793C83.1315 99.4688 83.5793 99.9165 83.5793 100.469C83.5793 100.86 83.3506 101.216 82.9943 101.379L61.0454 111.393C60.3939 111.69 59.6861 111.844 58.97 111.844H2.4209C1.86861 111.844 1.4209 111.396 1.4209 110.844C1.4209 110.465 1.63489 110.119 1.97367 109.949L22.7226 99.5743C22.8614 99.5049 23.0145 99.4688 23.1698 99.4688Z" fill="black" fill-opacity="0.05"/>
<path fill-rule="evenodd" clip-rule="evenodd" d="M16.3179 7.21875H58.5054V106.781H16.3179V7.21875Z" fill="#EBEDEE" stroke="#152633" stroke-width="1.5" stroke-linejoin="round"/>
<path fill-rule="evenodd" clip-rule="evenodd" d="M21.3804 12.2812H53.4429V30.8438H21.3804V12.2812Z" fill="#EBEDEE" stroke="#152633" stroke-width="1.5" stroke-linejoin="round"/>
<path fill-rule="evenodd" clip-rule="evenodd" d="M33.4741 20.7188H41.3491C41.8151 20.7188 42.1929 21.0965 42.1929 21.5625C42.1929 22.0285 41.8151 22.4062 41.3491 22.4062H33.4741C33.0081 22.4062 32.6304 22.0285 32.6304 21.5625C32.6304 21.0965 33.0081 20.7188 33.4741 20.7188Z" fill="#152633"/>
<path fill-rule="evenodd" clip-rule="evenodd" d="M21.3804 35.9062H53.4429V54.4688H21.3804V35.9062Z" fill="#73818C" stroke="#152633" stroke-width="1.5" stroke-linejoin="round"/>
<path fill-rule="evenodd" clip-rule="evenodd" d="M21.3804 59.5312H53.4429V78.0938H21.3804V59.5312Z" fill="#EBEDEE" stroke="#152633" stroke-width="1.5" stroke-linejoin="round"/>
<path fill-rule="evenodd" clip-rule="evenodd" d="M33.4741 67.9688H41.3491C41.8151 67.9688 42.1929 68.3465 42.1929 68.8125C42.1929 69.2785 41.8151 69.6562 41.3491 69.6562H33.4741C33.0081 69.6562 32.6304 69.2785 32.6304 68.8125C32.6304 68.3465 33.0081 67.9688 33.4741 67.9688Z" fill="#152633"/>
<path fill-rule="evenodd" clip-rule="evenodd" d="M21.3804 83.1562H53.4429V101.719H21.3804V83.1562Z" fill="#EBEDEE" stroke="#152633" stroke-width="1.5" stroke-linejoin="round"/>
<path fill-rule="evenodd" clip-rule="evenodd" d="M33.4741 91.5938H41.3491C41.8151 91.5938 42.1929 91.9715 42.1929 92.4375C42.1929 92.9035 41.8151 93.2812 41.3491 93.2812H33.4741C33.0081 93.2812 32.6304 92.9035 32.6304 92.4375C32.6304 91.9715 33.0081 91.5938 33.4741 91.5938Z" fill="#152633"/>
<path fill-rule="evenodd" clip-rule="evenodd" d="M4.50537 42.6562L21.3804 35.9062V54.4688L4.50537 61.2188V42.6562Z" fill="#73818C" stroke="#152633" stroke-width="2" stroke-linejoin="round"/>
<path fill-rule="evenodd" clip-rule="evenodd" d="M36.5679 42.6562L53.4429 35.9062V54.4688L36.5679 61.2188V42.6562Z" fill="#C7CDD1" stroke="#152633" stroke-width="1.5" stroke-linejoin="round"/>
<path fill-rule="evenodd" clip-rule="evenodd" d="M4.50537 42.6562H36.5679V61.2188H4.50537V42.6562Z" fill="#EBEDEE" stroke="#152633" stroke-width="1.5" stroke-linejoin="round"/>
<path fill-rule="evenodd" clip-rule="evenodd" d="M16.5991 51.0938H24.4741C24.9401 51.0938 25.3179 51.4715 25.3179 51.9375C25.3179 52.4035 24.9401 52.7812 24.4741 52.7812H16.5991C16.1331 52.7812 15.7554 52.4035 15.7554 51.9375C15.7554 51.4715 16.1331 51.0938 16.5991 51.0938Z" fill="#152633"/>
<path fill-rule="evenodd" clip-rule="evenodd" d="M58.5054 7.2051L71.1616 2.15625V101.732L58.5054 106.781V7.2051Z" fill="#C7CDD1" stroke="#152633" stroke-width="1.5" stroke-linejoin="round"/>
<path fill-rule="evenodd" clip-rule="evenodd" d="M28.9741 2.57812L71.1616 2.15625L58.5054 7.21875H16.3179L28.9741 2.57812Z" fill="#EBEDEE" stroke="#152633" stroke-width="1.5" stroke-linecap="round" stroke-linejoin="round"/>
</svg>
