<svg width="24" height="24" viewBox="0 0 24 24" fill="none" xmlns="http://www.w3.org/2000/svg">
<path d="M4.25 18.5C4.0375 18.5 3.85942 18.4281 3.71575 18.2843C3.57192 18.1404 3.5 17.9622 3.5 17.7498C3.5 17.5371 3.57192 17.359 3.71575 17.2155C3.85942 17.0718 4.0375 17 4.25 17H19.75C19.9625 17 20.1406 17.0719 20.2843 17.2158C20.4281 17.3596 20.5 17.5378 20.5 17.7503C20.5 17.9629 20.4281 18.141 20.2843 18.2845C20.1406 18.4282 19.9625 18.5 19.75 18.5H4.25ZM4.25 14.6635C4.0375 14.6635 3.85942 14.5916 3.71575 14.4478C3.57192 14.3039 3.5 14.1257 3.5 13.913C3.5 13.7005 3.57192 13.5224 3.71575 13.3787C3.85942 13.2352 4.0375 13.1635 4.25 13.1635H19.75C19.9625 13.1635 20.1406 13.2354 20.2843 13.3793C20.4281 13.5231 20.5 13.7013 20.5 13.9137C20.5 14.1264 20.4281 14.3045 20.2843 14.448C20.1406 14.5917 19.9625 14.6635 19.75 14.6635H4.25ZM4.25 10.8365C4.0375 10.8365 3.85942 10.7646 3.71575 10.6208C3.57192 10.4769 3.5 10.2988 3.5 10.0863C3.5 9.87358 3.57192 9.6955 3.71575 9.552C3.85942 9.40833 4.0375 9.3365 4.25 9.3365H19.75C19.9625 9.3365 20.1406 9.40842 20.2843 9.55225C20.4281 9.69608 20.5 9.87433 20.5 10.087C20.5 10.2995 20.4281 10.4776 20.2843 10.6212C20.1406 10.7647 19.9625 10.8365 19.75 10.8365H4.25ZM4.25 7C4.0375 7 3.85942 6.92808 3.71575 6.78425C3.57192 6.64042 3.5 6.46225 3.5 6.24975C3.5 6.03708 3.57192 5.859 3.71575 5.7155C3.85942 5.57183 4.0375 5.5 4.25 5.5H19.75C19.9625 5.5 20.1406 5.57192 20.2843 5.71575C20.4281 5.85958 20.5 6.03775 20.5 6.25025C20.5 6.46292 20.4281 6.641 20.2843 6.7845C20.1406 6.92817 19.9625 7 19.75 7H4.25Z" fill="#273540"/>
</svg>
