<svg width="24" height="24" viewBox="0 0 24 24" fill="none" xmlns="http://www.w3.org/2000/svg">
<path d="M12 13.4557C11.8525 13.4557 11.7092 13.4365 11.5702 13.398C11.431 13.3595 11.2929 13.3049 11.1557 13.2345L2.99421 8.8942C2.83005 8.80053 2.71213 8.68512 2.64046 8.54795C2.56863 8.41078 2.53271 8.2602 2.53271 8.0962C2.53271 7.93203 2.56863 7.78137 2.64046 7.6442C2.71213 7.50703 2.83005 7.39162 2.99421 7.29795L11.1557 2.9577C11.2929 2.8872 11.431 2.8327 11.5702 2.7942C11.7092 2.7557 11.8525 2.73645 12 2.73645C12.1475 2.73645 12.2907 2.7557 12.4297 2.7942C12.5689 2.8327 12.707 2.8872 12.8442 2.9577L21.0152 7.29795C21.1794 7.39162 21.2974 7.50703 21.3692 7.6442C21.441 7.78137 21.477 7.93203 21.477 8.0962C21.477 8.2602 21.441 8.41078 21.3692 8.54795C21.2974 8.68512 21.1794 8.80053 21.0152 8.8942L12.8442 13.2345C12.707 13.3049 12.5689 13.3595 12.4297 13.398C12.2907 13.4365 12.1475 13.4557 12 13.4557ZM12 11.9847L19.373 8.0962L12 4.2077L4.63647 8.0962L12 11.9847ZM12 15.8884L20.0037 11.6519C20.0435 11.6288 20.1795 11.6064 20.4115 11.5847C20.6115 11.5974 20.7752 11.6724 20.9027 11.8097C21.0304 11.9469 21.0942 12.1154 21.0942 12.3154C21.0942 12.4538 21.0637 12.5787 21.0027 12.6902C20.9419 12.8019 20.8422 12.8949 20.7037 12.9692L12.8442 17.1384C12.707 17.2089 12.5689 17.2635 12.4297 17.302C12.2907 17.3403 12.1475 17.3595 12 17.3595C11.8525 17.3595 11.7092 17.3403 11.5702 17.302C11.431 17.2635 11.2929 17.2089 11.1557 17.1384L3.30571 12.9692C3.16721 12.8949 3.06596 12.8019 3.00196 12.6902C2.9378 12.5787 2.90571 12.4538 2.90571 12.3154C2.90571 12.1154 2.97113 11.9469 3.10196 11.8097C3.23263 11.6724 3.39796 11.5974 3.59796 11.5847C3.66846 11.5719 3.73646 11.5715 3.80196 11.5837C3.8673 11.5959 3.93521 11.6186 4.00571 11.6519L12 15.8884ZM12 19.7922L20.0037 15.5557C20.0435 15.5327 20.1795 15.5103 20.4115 15.4885C20.6115 15.5013 20.7752 15.5763 20.9027 15.7134C21.0304 15.8506 21.0942 16.0192 21.0942 16.2192C21.0942 16.3577 21.0637 16.4827 21.0027 16.5942C20.9419 16.7057 20.8422 16.7986 20.7037 16.8729L12.8442 21.0422C12.707 21.1127 12.5689 21.1672 12.4297 21.2057C12.2907 21.2442 12.1475 21.2634 12 21.2634C11.8525 21.2634 11.7092 21.2442 11.5702 21.2057C11.431 21.1672 11.2929 21.1127 11.1557 21.0422L3.30571 16.8729C3.16721 16.7986 3.06596 16.7057 3.00196 16.5942C2.9378 16.4827 2.90571 16.3577 2.90571 16.2192C2.90571 16.0192 2.97113 15.8506 3.10196 15.7134C3.23263 15.5763 3.39796 15.5013 3.59796 15.4885C3.66846 15.4756 3.73646 15.4753 3.80196 15.4874C3.8673 15.4996 3.93521 15.5224 4.00571 15.5557L12 19.7922Z" fill="#273540"/>
</svg>
