<svg width="16" height="16" viewBox="0 0 16 16" fill="none" xmlns="http://www.w3.org/2000/svg">
<path d="M12.627 8.75001H1.25C1.03717 8.75001 0.859 8.67817 0.7155 8.53451C0.571833 8.39101 0.5 8.21284 0.5 8.00001C0.5 7.78717 0.571833 7.60901 0.7155 7.46551C0.859 7.32184 1.03717 7.25001 1.25 7.25001H12.627L7.45775 2.08076C7.30908 1.93209 7.23567 1.75809 7.2375 1.55876C7.2395 1.35942 7.318 1.18217 7.473 1.02701C7.62817 0.882174 7.80383 0.807174 8 0.802008C8.19617 0.796841 8.37183 0.871841 8.527 1.02701L14.8673 7.36726C14.9609 7.46092 15.0269 7.55967 15.0652 7.66351C15.1038 7.76734 15.123 7.87951 15.123 8.00001C15.123 8.12051 15.1038 8.23267 15.0652 8.33651C15.0269 8.44034 14.9609 8.53909 14.8673 8.63276L8.527 14.973C8.3885 15.1115 8.217 15.1823 8.0125 15.1855C7.808 15.1887 7.62817 15.1178 7.473 14.973C7.318 14.8178 7.2405 14.6397 7.2405 14.4385C7.2405 14.2372 7.318 14.0589 7.473 13.9038L12.627 8.75001Z" fill="#273540"/>
</svg>
