<svg width="24" height="24" viewBox="0 0 24 24" fill="none" xmlns="http://www.w3.org/2000/svg">
<path d="M16.9998 20.725C16.7871 20.725 16.609 20.6531 16.4655 20.5093C16.3218 20.3656 16.25 20.1875 16.25 19.975V17.725H14C13.7875 17.725 13.6094 17.6531 13.4658 17.5092C13.3219 17.3654 13.25 17.1873 13.25 16.9747C13.25 16.7621 13.3219 16.584 13.4658 16.4405C13.6094 16.2968 13.7875 16.225 14 16.225H16.25V13.975C16.25 13.7625 16.3219 13.5844 16.4658 13.4408C16.6096 13.2969 16.7878 13.225 17.0003 13.225C17.2129 13.225 17.391 13.2969 17.5345 13.4408C17.6782 13.5844 17.75 13.7625 17.75 13.975V16.225H20C20.2125 16.225 20.3906 16.2969 20.5343 16.4408C20.6781 16.5846 20.75 16.7628 20.75 16.9753C20.75 17.1879 20.6781 17.366 20.5343 17.5095C20.3906 17.6532 20.2125 17.725 20 17.725H17.75V19.975C17.75 20.1875 17.6781 20.3656 17.5343 20.5093C17.3904 20.6531 17.2122 20.725 16.9998 20.725ZM7.5 17.75C7.2875 17.75 7.10933 17.6781 6.9655 17.5343C6.82183 17.3904 6.75 17.2122 6.75 16.9998C6.75 16.7871 6.82183 16.609 6.9655 16.4655C7.10933 16.3218 7.2875 16.25 7.5 16.25H10.8942C11.1068 16.25 11.2848 16.3219 11.4285 16.4658C11.5723 16.6096 11.6442 16.7878 11.6442 17.0003C11.6442 17.2129 11.5723 17.391 11.4285 17.5345C11.2848 17.6782 11.1068 17.75 10.8942 17.75H7.5ZM7.5 13.75C7.2875 13.75 7.10933 13.6781 6.9655 13.5343C6.82183 13.3904 6.75 13.2122 6.75 12.9998C6.75 12.7871 6.82183 12.609 6.9655 12.4655C7.10933 12.3218 7.2875 12.25 7.5 12.25H10.8942C11.1068 12.25 11.2848 12.3219 11.4285 12.4658C11.5723 12.6096 11.6442 12.7878 11.6442 13.0003C11.6442 13.2129 11.5723 13.391 11.4285 13.5345C11.2848 13.6782 11.1068 13.75 10.8942 13.75H7.5ZM7.5 9.75C7.2875 9.75 7.10933 9.67808 6.9655 9.53425C6.82183 9.39042 6.75 9.21225 6.75 8.99975C6.75 8.78708 6.82183 8.609 6.9655 8.4655C7.10933 8.32183 7.2875 8.25 7.5 8.25H18C18.2125 8.25 18.3906 8.32192 18.5343 8.46575C18.6781 8.60958 18.75 8.78775 18.75 9.00025C18.75 9.21292 18.6781 9.391 18.5343 9.5345C18.3906 9.67817 18.2125 9.75 18 9.75H7.5ZM7.5 5.75C7.2875 5.75 7.10933 5.67808 6.9655 5.53425C6.82183 5.39042 6.75 5.21225 6.75 4.99975C6.75 4.78708 6.82183 4.609 6.9655 4.4655C7.10933 4.32183 7.2875 4.25 7.5 4.25H18C18.2125 4.25 18.3906 4.32192 18.5343 4.46575C18.6781 4.60958 18.75 4.78775 18.75 5.00025C18.75 5.21292 18.6781 5.391 18.5343 5.5345C18.3906 5.67817 18.2125 5.75 18 5.75H7.5ZM3.99975 5.75C3.78708 5.75 3.609 5.67808 3.4655 5.53425C3.32183 5.39042 3.25 5.21225 3.25 4.99975C3.25 4.78708 3.32192 4.609 3.46575 4.4655C3.60958 4.32183 3.78775 4.25 4.00025 4.25C4.21292 4.25 4.391 4.32192 4.5345 4.46575C4.67817 4.60958 4.75 4.78775 4.75 5.00025C4.75 5.21292 4.67808 5.391 4.53425 5.5345C4.39042 5.67817 4.21225 5.75 3.99975 5.75ZM3.99975 9.75C3.78708 9.75 3.609 9.67808 3.4655 9.53425C3.32183 9.39042 3.25 9.21225 3.25 8.99975C3.25 8.78708 3.32192 8.609 3.46575 8.4655C3.60958 8.32183 3.78775 8.25 4.00025 8.25C4.21292 8.25 4.391 8.32192 4.5345 8.46575C4.67817 8.60958 4.75 8.78775 4.75 9.00025C4.75 9.21292 4.67808 9.391 4.53425 9.5345C4.39042 9.67817 4.21225 9.75 3.99975 9.75ZM3.99975 13.75C3.78708 13.75 3.609 13.6781 3.4655 13.5343C3.32183 13.3904 3.25 13.2122 3.25 12.9998C3.25 12.7871 3.32192 12.609 3.46575 12.4655C3.60958 12.3218 3.78775 12.25 4.00025 12.25C4.21292 12.25 4.391 12.3219 4.5345 12.4658C4.67817 12.6096 4.75 12.7878 4.75 13.0003C4.75 13.2129 4.67808 13.391 4.53425 13.5345C4.39042 13.6782 4.21225 13.75 3.99975 13.75ZM3.99975 17.75C3.78708 17.75 3.609 17.6781 3.4655 17.5343C3.32183 17.3904 3.25 17.2122 3.25 16.9998C3.25 16.7871 3.32192 16.609 3.46575 16.4655C3.60958 16.3218 3.78775 16.25 4.00025 16.25C4.21292 16.25 4.391 16.3219 4.5345 16.4658C4.67817 16.6096 4.75 16.7878 4.75 17.0003C4.75 17.2129 4.67808 17.391 4.53425 17.5345C4.39042 17.6782 4.21225 17.75 3.99975 17.75Z" fill="#273540"/>
</svg>
