<svg width="24" height="24" viewBox="0 0 24 24" fill="none" xmlns="http://www.w3.org/2000/svg">
<path d="M12.05 19.75C9.88718 19.75 8.04651 18.9974 6.52801 17.4923C5.00934 15.9871 4.25001 14.1563 4.25001 12V11.2192L2.92701 12.5423C2.78851 12.6807 2.61443 12.7516 2.40476 12.7548C2.19526 12.7579 2.01801 12.6871 1.87301 12.5423C1.72818 12.3974 1.65576 12.2218 1.65576 12.0155C1.65576 11.809 1.72818 11.6333 1.87301 11.4885L4.36726 8.99425C4.54809 8.81342 4.75901 8.723 5.00001 8.723C5.24101 8.723 5.45193 8.81342 5.63276 8.99425L8.12701 11.4885C8.26534 11.627 8.33618 11.801 8.33951 12.0105C8.34268 12.2202 8.27184 12.3974 8.12701 12.5423C7.98201 12.6871 7.80634 12.7595 7.60001 12.7595C7.39368 12.7595 7.21801 12.6871 7.07301 12.5423L5.75001 11.2192V12C5.75001 13.7372 6.36151 15.2132 7.58451 16.428C8.80768 17.6427 10.2962 18.25 12.05 18.25C12.3423 18.25 12.6337 18.2302 12.924 18.1905C13.2145 18.1507 13.5008 18.0827 13.7828 17.9865C13.9956 17.9225 14.1965 17.9293 14.3855 18.0068C14.5747 18.0843 14.7167 18.216 14.8115 18.402C14.9063 18.5982 14.9124 18.7933 14.8298 18.9875C14.7471 19.1817 14.5993 19.3108 14.3865 19.375C14.0097 19.5083 13.6244 19.6042 13.2308 19.6625C12.8373 19.7208 12.4437 19.75 12.05 19.75ZM11.95 5.75C11.6577 5.75 11.3663 5.76983 11.076 5.8095C10.7855 5.84933 10.4993 5.91733 10.2173 6.0135C10.0044 6.0775 9.80093 6.07075 9.60676 5.99325C9.41259 5.91575 9.26801 5.784 9.17301 5.598C9.07818 5.41217 9.07051 5.22217 9.15001 5.028C9.22951 4.83367 9.37051 4.7045 9.57301 4.6405C9.96018 4.50717 10.3522 4.40875 10.749 4.34525C11.1458 4.28175 11.5462 4.25 11.95 4.25C14.1128 4.25 15.9535 5.00258 17.472 6.50775C18.9907 8.01292 19.75 9.84367 19.75 12V12.7808L21.073 11.4577C21.2115 11.3193 21.3856 11.2484 21.5953 11.2453C21.8048 11.2421 21.982 11.3129 22.127 11.4577C22.2718 11.6026 22.3443 11.7782 22.3443 11.9845C22.3443 12.191 22.2718 12.3667 22.127 12.5115L19.6328 15.0058C19.4519 15.1866 19.241 15.277 19 15.277C18.759 15.277 18.5481 15.1866 18.3673 15.0058L15.873 12.5115C15.7347 12.373 15.6638 12.199 15.6605 11.9895C15.6573 11.7798 15.7282 11.6026 15.873 11.4577C16.018 11.3129 16.1937 11.2405 16.4 11.2405C16.6063 11.2405 16.782 11.3129 16.927 11.4577L18.25 12.7808V12C18.25 10.2628 17.6385 8.78683 16.4155 7.572C15.1923 6.35733 13.7038 5.75 11.95 5.75Z" fill="#273540"/>
</svg>
