<svg xmlns="http://www.w3.org/2000/svg" viewBox="0 0 24 24"><g transform="matrix(0.010416666666666666 0 0 0.010416666666666666 2 2)"><path d="M1848.715 357.685c-13.891-15.586-35.35-22.137-55.793-17.167-419.802 105.035-630.324-19.087-833.844-139.03C756.46 82.333 547.52-40.66 168.94 103.905V0H56v1920h112.941V227.012c352.941-148.97 522.127-52.292 732.763 71.83 195.84 115.313 415.849 245.083 811.82 174.156-170.88 375.53-385.92 382.87-652.912 392.131-233.788 8.02-498.748 17.28-762.24 280.772l79.85 79.963c232.093-232.095 463.058-240 686.343-247.906 290.823-10.052 591.473-20.443 794.88-562.786 7.34-19.652 3.275-41.788-10.73-57.487" fill-rule="evenodd"/></g>
</svg>