<svg width="24" height="24" viewBox="0 0 24 24" fill="none" xmlns="http://www.w3.org/2000/svg">
<path d="M7.55775 21.5C6.71325 21.5 5.9925 21.2015 5.3955 20.6045C4.7985 20.0075 4.5 19.2868 4.5 18.4423V5.75C4.5 4.8475 4.816 4.08017 5.448 3.448C6.08017 2.816 6.8475 2.5 7.75 2.5H17.6923C18.1894 2.5 18.615 2.677 18.969 3.031C19.323 3.385 19.5 3.81058 19.5 4.30775V16.448C19.5 16.5667 19.4538 16.6742 19.3615 16.7707C19.2692 16.8671 19.1198 16.9595 18.9135 17.048C18.6225 17.1518 18.3878 17.3286 18.2095 17.5782C18.0313 17.8279 17.9423 18.1159 17.9423 18.4423C17.9423 18.7628 18.0297 19.0503 18.2048 19.3048C18.3798 19.5592 18.6128 19.7365 18.9038 19.8365C19.0923 19.9108 19.2387 20.0152 19.3432 20.1495C19.4478 20.2837 19.5 20.4274 19.5 20.5807V20.7345C19.5 20.9462 19.4281 21.1267 19.2843 21.276C19.1406 21.4253 18.9625 21.5 18.75 21.5H7.55775ZM8.94275 15.3848C9.15525 15.3848 9.33333 15.3128 9.477 15.169C9.6205 15.0253 9.69225 14.8473 9.69225 14.6348V4.75C9.69225 4.5375 9.62033 4.35933 9.4765 4.2155C9.33267 4.07183 9.1545 4 8.942 4C8.72933 4 8.55125 4.07183 8.40775 4.2155C8.26408 4.35933 8.19225 4.5375 8.19225 4.75V14.6348C8.19225 14.8473 8.26417 15.0253 8.408 15.169C8.55183 15.3128 8.73008 15.3848 8.94275 15.3848ZM7.55775 20H16.902C16.757 19.773 16.6442 19.5317 16.5635 19.276C16.4827 19.0202 16.4423 18.7423 16.4423 18.4423C16.4423 18.1564 16.4801 17.8821 16.5557 17.6193C16.6314 17.3564 16.7468 17.1115 16.902 16.8845H7.55775C7.11158 16.8845 6.74042 17.036 6.44425 17.339C6.14808 17.6418 6 18.0096 6 18.4423C6 18.8884 6.14808 19.2596 6.44425 19.5557C6.74042 19.8519 7.11158 20 7.55775 20Z" fill="#273540"/>
</svg>
