<svg width="24" height="24" viewBox="0 0 24 24" fill="none" xmlns="http://www.w3.org/2000/svg">
<path d="M8.50375 12L10.127 10.377C10.2757 10.2282 10.349 10.0541 10.347 9.85475C10.3452 9.65542 10.2718 9.47817 10.127 9.323C9.97183 9.168 9.79358 9.08792 9.59225 9.08275C9.39108 9.07758 9.21292 9.15258 9.05775 9.30775L6.998 11.3673C6.81733 11.5481 6.727 11.759 6.727 12C6.727 12.241 6.81733 12.4519 6.998 12.6328L9.05775 14.6923C9.20642 14.8409 9.383 14.9143 9.5875 14.9125C9.792 14.9105 9.97183 14.832 10.127 14.677C10.2718 14.5218 10.3468 14.3462 10.352 14.15C10.357 13.9538 10.282 13.7782 10.127 13.623L8.50375 12ZM15.4962 12L13.873 13.623C13.7243 13.7718 13.651 13.9459 13.653 14.1453C13.6548 14.3446 13.7282 14.5218 13.873 14.677C14.0282 14.832 14.2064 14.9121 14.4078 14.9173C14.6089 14.9224 14.7871 14.8474 14.9423 14.6923L17.002 12.6328C17.1827 12.4519 17.273 12.241 17.273 12C17.273 11.759 17.1827 11.5481 17.002 11.3673L14.9423 9.30775C14.7936 9.15908 14.617 9.08567 14.4125 9.0875C14.208 9.0895 14.0282 9.168 13.873 9.323C13.7282 9.47817 13.6532 9.65383 13.648 9.85C13.643 10.0462 13.718 10.2218 13.873 10.377L15.4962 12ZM5.30775 20.5C4.80908 20.5 4.38308 20.3234 4.02975 19.9703C3.67658 19.6169 3.5 19.1909 3.5 18.6923V5.30775C3.5 4.80908 3.67658 4.38308 4.02975 4.02975C4.38308 3.67658 4.80908 3.5 5.30775 3.5H9.75775C9.82058 2.94483 10.0629 2.47275 10.4848 2.08375C10.9064 1.69458 11.4115 1.5 12 1.5C12.5948 1.5 13.1032 1.69458 13.525 2.08375C13.9468 2.47275 14.1859 2.94483 14.2423 3.5H18.6923C19.1909 3.5 19.6169 3.67658 19.9703 4.02975C20.3234 4.38308 20.5 4.80908 20.5 5.30775V18.6923C20.5 19.1909 20.3234 19.6169 19.9703 19.9703C19.6169 20.3234 19.1909 20.5 18.6923 20.5H5.30775ZM5.30775 19H18.6923C18.7692 19 18.8398 18.9679 18.9038 18.9038C18.9679 18.8398 19 18.7693 19 18.6923V5.30775C19 5.23075 18.9679 5.16025 18.9038 5.09625C18.8398 5.03208 18.7692 5 18.6923 5H5.30775C5.23075 5 5.16025 5.03208 5.09625 5.09625C5.03208 5.16025 5 5.23075 5 5.30775V18.6923C5 18.7693 5.03208 18.8398 5.09625 18.9038C5.16025 18.9679 5.23075 19 5.30775 19ZM12 4.34625C12.2167 4.34625 12.3958 4.27542 12.5375 4.13375C12.6792 3.99208 12.75 3.81292 12.75 3.59625C12.75 3.37958 12.6792 3.20042 12.5375 3.05875C12.3958 2.91708 12.2167 2.84625 12 2.84625C11.7833 2.84625 11.6042 2.91708 11.4625 3.05875C11.3208 3.20042 11.25 3.37958 11.25 3.59625C11.25 3.81292 11.3208 3.99208 11.4625 4.13375C11.6042 4.27542 11.7833 4.34625 12 4.34625Z" fill="#273540"/>
</svg>
