<svg width="15" height="17" viewBox="0 0 15 17" fill="none" xmlns="http://www.w3.org/2000/svg">
<path d="M3.37295 6.75L6.5422 9.91925C6.69737 10.0744 6.77237 10.2501 6.7672 10.4463C6.76204 10.6423 6.68704 10.8178 6.5422 10.973C6.38704 11.1282 6.20979 11.2067 6.01045 11.2085C5.81112 11.2105 5.63712 11.1372 5.48845 10.9885L1.1327 6.63275C1.03904 6.53909 0.973036 6.44034 0.934703 6.3365C0.896203 6.23267 0.876953 6.1205 0.876953 6C0.876953 5.8795 0.896203 5.76734 0.934703 5.6635C0.973036 5.55967 1.03904 5.46092 1.1327 5.36725L5.4577 1.04225C5.61287 0.887253 5.79104 0.809753 5.9922 0.809753C6.19354 0.809753 6.37179 0.887253 6.52695 1.04225C6.68195 1.19742 6.75787 1.37467 6.7547 1.574C6.75154 1.77334 6.67562 1.94742 6.52695 2.09625L3.37295 5.25H12.6922C13.1909 5.25 13.6169 5.42659 13.9702 5.77975C14.3234 6.13309 14.5 6.55909 14.5 7.05775V15.75C14.5 15.9628 14.4281 16.141 14.2845 16.2845C14.141 16.4282 13.9628 16.5 13.75 16.5C13.5371 16.5 13.359 16.4282 13.2155 16.2845C13.0718 16.141 13 15.9628 13 15.75V7.05775C13 6.96792 12.9711 6.89417 12.9135 6.8365C12.8558 6.77884 12.782 6.75 12.6922 6.75H3.37295Z" fill="#273540"/>
</svg>
