<svg width="24" height="24" viewBox="0 0 24 24" fill="none" xmlns="http://www.w3.org/2000/svg">
<path d="M5.40403 7.38851L4.08078 8.69626C3.94228 8.8346 3.77078 8.90543 3.56628 8.90876C3.36195 8.91193 3.18145 8.83526 3.02478 8.67876C2.88145 8.53526 2.80978 8.36026 2.80978 8.15376C2.80978 7.94743 2.8822 7.77185 3.02703 7.62701L5.51778 5.13601C5.61362 5.04018 5.71387 4.9731 5.81853 4.93476C5.92337 4.89626 6.03562 4.87701 6.15528 4.87701C6.27495 4.87701 6.3867 4.89626 6.49053 4.93476C6.59437 4.9731 6.69412 5.04018 6.78978 5.13601L9.28079 7.62701C9.41929 7.76551 9.4927 7.93693 9.50104 8.14126C9.50937 8.34576 9.43528 8.52626 9.27878 8.68276C9.13528 8.82626 8.96287 8.9006 8.76153 8.90576C8.56037 8.91093 8.3822 8.8411 8.22703 8.69626L6.90378 7.38851V16.6115L8.22703 15.3038C8.36553 15.1654 8.53695 15.0946 8.74128 15.0913C8.94578 15.0881 9.12628 15.1648 9.28278 15.3213C9.42628 15.4648 9.49804 15.6398 9.49804 15.8463C9.49804 16.0526 9.42562 16.2282 9.28079 16.373L6.78978 18.864C6.69412 18.9598 6.59387 19.0269 6.48903 19.0653C6.38437 19.1038 6.2722 19.123 6.15253 19.123C6.03287 19.123 5.92112 19.1038 5.81728 19.0653C5.71345 19.0269 5.61362 18.9598 5.51778 18.864L3.02703 16.373C2.88853 16.2345 2.81512 16.0631 2.80678 15.8588C2.79845 15.6543 2.87253 15.4738 3.02903 15.3173C3.17253 15.1738 3.34495 15.0994 3.54628 15.0943C3.74745 15.0891 3.92562 15.1589 4.08078 15.3038L5.40403 16.6115V7.38851ZM12.9328 18.5C12.7263 18.5 12.5513 18.4281 12.4078 18.2843C12.2641 18.1404 12.1923 17.9623 12.1923 17.7498C12.1923 17.5371 12.2642 17.359 12.408 17.2155C12.5517 17.0718 12.7298 17 12.9423 17H20.702C20.928 17 21.1175 17.0764 21.2705 17.2293C21.4235 17.3821 21.5 17.5715 21.5 17.7975C21.5 18.0235 21.4202 18.2148 21.2605 18.3713C21.1009 18.5276 20.9083 18.6058 20.6828 18.6058L12.9328 18.5ZM12.9423 12.75C12.7298 12.75 12.5517 12.6781 12.408 12.5343C12.2642 12.3904 12.1923 12.2123 12.1923 11.9998C12.1923 11.7871 12.2642 11.609 12.408 11.4655C12.5517 11.3218 12.7298 11.25 12.9423 11.25H20.75C20.9625 11.25 21.1406 11.3219 21.2843 11.4658C21.4281 11.6096 21.5 11.7878 21.5 12.0003C21.5 12.2129 21.4281 12.391 21.2843 12.5345C21.1406 12.6782 20.9625 12.75 20.75 12.75H12.9423ZM12.9423 7.00001C12.7298 7.00001 12.5517 6.92718 12.408 6.78151C12.2642 6.63601 12.1923 6.45568 12.1923 6.24051C12.1923 6.03068 12.2633 5.85485 12.4053 5.71301C12.5471 5.57101 12.723 5.50001 12.9328 5.50001L20.6923 5.39426C20.9211 5.39426 21.113 5.47068 21.2678 5.62351C21.4226 5.77635 21.5 5.96576 21.5 6.19176C21.5 6.41776 21.4226 6.60901 21.2678 6.76551C21.113 6.92185 20.9211 7.00001 20.6923 7.00001H12.9423Z" fill="#273540"/>
</svg>
