<svg xmlns="http://www.w3.org/2000/svg" viewBox="0 0 24 24"><g transform="matrix(0.010416666666666666 0 0 0.010416666666666666 2 2)"><path d="M517.257 1127.343c72.733 0 148.871 36.586 221.274 107.45 87.455 110.418 114.922 204.135 81.632 278.296-72.733 162.274-412.664 234.897-618.666 259.178 34.609-82.62 75.15-216.88 75.15-394.645 0-97.123 66.47-195.455 157.88-233.689 26.698-11.097 54.494-16.59 82.73-16.59Zm229.404-167.109c54.055 28.895 106.462 65.371 155.133 113.494l13.844 15.6c28.016 35.378 50.649 69.987 70.425 104.155-29.554 26.259-59.878 52.737-90.75 79.545-18.898-35.488-43.069-71.964-72.843-109.319l-4.285-4.834c-48.342-47.683-99.43-83.39-151.727-107.011 26.368-30.653 53.066-61.196 80.203-91.63Zm1046.49-803.133c7.801 7.8 18.129 21.754 16.92 52.187-6.043 155.683-284.338 494.405-740.509 909.266-19.995-32.302-41.969-64.822-67.788-97.453l-22.523-25.27c-49.22-48.671-101.408-88.883-156.012-121.074 350.588-385.855 728.203-734.356 910.254-741.828 30.983-.109 44.497 9.01 59.658 24.172Zm126.678 56.472c2.087-53.615-14.832-99.98-56.142-141.29-34.28-34.279-81.962-51.198-134.588-49.11-304.554 12.414-912.232 683.377-1179.54 996.17-53.616-5.383-106.682 2.088-157.441 23.402-132.61 55.263-225.339 193.038-225.339 334.877 0 268.517-103.935 425.737-104.923 427.275L0 1896.747l110.307-6.153c69.217-3.735 681.29-45.375 810.165-332.46 24.39-54.604 29.225-113.163 15.93-175.239 374.32-321.802 972.11-879.71 983.427-1169.322" fill-rule="evenodd"/></g>
</svg>