<svg width="16" height="16" viewBox="0 0 16 16" fill="none" xmlns="http://www.w3.org/2000/svg">
<path fill-rule="evenodd" clip-rule="evenodd" d="M14.1177 8.38398V5.73456C14.6645 5.92938 15.0589 6.44609 15.0589 7.0588C15.0589 7.6715 14.6645 8.18915 14.1177 8.38398ZM13.1765 12.0376C11.5539 10.0169 9.40803 9.55292 8.47062 9.44563V4.6729C9.40803 4.56561 11.5539 4.10067 13.1765 2.0809V12.0376ZM7.52943 9.41174H3.29412C2.51577 9.41174 1.88235 8.77833 1.88235 7.99997V6.11762C1.88235 5.33926 2.51577 4.70585 3.29412 4.70585H7.52943V9.41174ZM16.0001 7.05879C16.0001 5.92279 15.1906 4.9722 14.1177 4.75385V0.470538C14.1177 0.252184 13.968 0.0630073 13.7553 0.0121836C13.537 -0.0367578 13.3224 0.0648896 13.2264 0.260655C11.5031 3.70631 8.14026 3.76373 7.99908 3.76467H3.29413C1.99624 3.76467 0.941179 4.82067 0.941179 6.11762V6.5882H0.47059C0.210824 6.5882 0 6.79903 0 7.05879C0 7.3195 0.210824 7.52938 0.47059 7.52938H0.941179V7.99997C0.941179 9.29786 1.99624 10.3529 3.29413 10.3529H3.76472V15.5294C3.76472 15.7901 3.97554 16 4.23531 16H6.00002C6.14402 16 6.28143 15.9332 6.37084 15.8193C6.45931 15.7054 6.49131 15.5567 6.45649 15.4165C6.3332 14.9129 6.13555 13.4466 6.70873 12.7143C6.96096 12.3925 7.34496 12.2353 7.88238 12.2353V11.2941C7.04661 11.2941 6.40284 11.5774 5.96614 12.1365C5.29131 13.0005 5.33837 14.3078 5.43719 15.0588H4.7059V10.3529H8.00003C8.03485 10.3529 11.4937 10.3934 13.2264 13.8579C13.3073 14.0198 13.4711 14.1176 13.6471 14.1176C13.6829 14.1176 13.7186 14.1139 13.7553 14.1054C13.968 14.0555 14.1177 13.8654 14.1177 13.6471V9.36468C15.1906 9.14633 16.0001 8.1948 16.0001 7.05879Z" fill="#273540"/>
</svg>
