<svg width="16" height="13" viewBox="0 0 16 13" fill="none" xmlns="http://www.w3.org/2000/svg">
<path d="M15.3562 7.62527H13.5933C13.4159 7.62527 13.2674 7.56541 13.1479 7.44569C13.0281 7.32611 12.9683 7.17763 12.9683 7.00027C12.9683 6.82291 13.0281 6.67444 13.1479 6.55486C13.2674 6.43513 13.4159 6.37527 13.5933 6.37527H15.3562C15.5336 6.37527 15.682 6.43513 15.8016 6.55486C15.9213 6.67444 15.9812 6.82291 15.9812 7.00027C15.9812 7.17763 15.9213 7.32611 15.8016 7.44569C15.682 7.56541 15.5336 7.62527 15.3562 7.62527ZM11.8897 10.9282C11.9965 10.7818 12.1331 10.6974 12.2993 10.6749C12.4654 10.6525 12.6217 10.6947 12.7681 10.8015L14.1735 11.8576C14.3199 11.9645 14.4043 12.101 14.4266 12.2671C14.4491 12.4333 14.4069 12.5895 14.2999 12.7359C14.1931 12.8821 14.0567 12.9665 13.8906 12.989C13.7245 13.0115 13.5682 12.9693 13.4218 12.8624L12.0164 11.8063C11.87 11.6995 11.7856 11.5631 11.7633 11.3969C11.7408 11.2308 11.7829 11.0746 11.8897 10.9282ZM14.1414 2.1109L12.736 3.16694C12.5896 3.27375 12.4334 3.31597 12.2672 3.29361C12.1011 3.27111 11.9646 3.18666 11.8577 3.04027C11.7509 2.89402 11.7087 2.73777 11.7312 2.57152C11.7536 2.40541 11.8379 2.26895 11.9843 2.16215L13.3897 1.10611C13.5361 0.999301 13.6924 0.957078 13.8585 0.979439C14.0246 1.00194 14.1611 1.08631 14.2681 1.23256C14.3749 1.37895 14.417 1.5352 14.3945 1.70132C14.3722 1.86757 14.2878 2.00409 14.1414 2.1109ZM2.37536 9.14777H1.52599C1.11043 9.14777 0.755504 9.00055 0.461198 8.70611C0.166754 8.4118 0.0195312 8.05687 0.0195312 7.64131V6.35923C0.0195312 5.94368 0.166754 5.58875 0.461198 5.29444C0.755504 5 1.11043 4.85277 1.52599 4.85277H4.74724L7.33849 3.30319C7.5896 3.15249 7.8428 3.15118 8.09807 3.29923C8.35349 3.44715 8.4812 3.66479 8.4812 3.95215V10.0484C8.4812 10.3358 8.35349 10.5534 8.09807 10.7013C7.8428 10.8494 7.5896 10.8481 7.33849 10.6974L4.74724 9.14777H3.62536V11.7759C3.62536 11.9533 3.5655 12.1017 3.44578 12.2213C3.3262 12.341 3.17773 12.4009 3.00036 12.4009C2.823 12.4009 2.67453 12.341 2.55495 12.2213C2.43523 12.1017 2.37536 11.9533 2.37536 11.7759V9.14777ZM7.2312 9.15423V4.84631L5.09328 6.10277H1.52599C1.46196 6.10277 1.40321 6.12951 1.34974 6.18298C1.29627 6.23645 1.26953 6.2952 1.26953 6.35923V7.64131C1.26953 7.70534 1.29627 7.76409 1.34974 7.81756C1.40321 7.87104 1.46196 7.89777 1.52599 7.89777H5.09328L7.2312 9.15423ZM9.63495 9.59965V4.4009C9.96189 4.69687 10.2252 5.06972 10.4249 5.51944C10.6248 5.9693 10.7247 6.46291 10.7247 7.00027C10.7247 7.53763 10.6248 8.03124 10.4249 8.48111C10.2252 8.93083 9.96189 9.30368 9.63495 9.59965Z" fill="#273540"/>
</svg>
