<svg width="24" height="24" viewBox="0 0 24 24" fill="none" xmlns="http://www.w3.org/2000/svg">
<path d="M11.2578 16.4615C11.5706 16.4615 11.8744 16.4176 12.1693 16.3298C12.4641 16.2419 12.7397 16.1166 12.9962 15.9538L15.0538 18.0115C15.1923 18.15 15.3663 18.2208 15.576 18.224C15.7855 18.2272 15.9628 18.1563 16.1077 18.0115C16.2526 17.8667 16.325 17.691 16.325 17.4845C16.325 17.2782 16.2526 17.1026 16.1077 16.9578L14.05 14.9C14.2257 14.65 14.3542 14.3759 14.4355 14.0778C14.517 13.7797 14.5577 13.4743 14.5577 13.1615C14.5577 12.2653 14.2417 11.508 13.6095 10.8895C12.9775 10.2708 12.2102 9.9615 11.3078 9.9615C10.4051 9.9615 9.63775 10.2775 9.00575 10.9095C8.37375 11.5417 8.05775 12.309 8.05775 13.2115C8.05775 14.114 8.367 14.8813 8.9855 15.5135C9.60417 16.1455 10.3616 16.4615 11.2578 16.4615ZM11.3078 14.9615C10.8269 14.9615 10.415 14.79 10.072 14.447C9.72917 14.1042 9.55775 13.6923 9.55775 13.2115C9.55775 12.7307 9.72917 12.3188 10.072 11.976C10.415 11.633 10.8269 11.4615 11.3078 11.4615C11.7884 11.4615 12.2003 11.633 12.5433 11.976C12.8863 12.3188 13.0577 12.7307 13.0577 13.2115C13.0577 13.6923 12.8863 14.1042 12.5433 14.447C12.2003 14.79 11.7884 14.9615 11.3078 14.9615ZM6.30775 21.5C5.80258 21.5 5.375 21.325 5.025 20.975C4.675 20.625 4.5 20.1974 4.5 19.6923V4.30775C4.5 3.80258 4.675 3.375 5.025 3.025C5.375 2.675 5.80258 2.5 6.30775 2.5H13.502C13.743 2.5 13.9748 2.54683 14.1973 2.6405C14.4196 2.734 14.6128 2.86283 14.777 3.027L18.973 7.223C19.1372 7.38717 19.266 7.58042 19.3595 7.80275C19.4532 8.02525 19.5 8.257 19.5 8.498V19.6923C19.5 20.1974 19.325 20.625 18.975 20.975C18.625 21.325 18.1974 21.5 17.6923 21.5H6.30775ZM13.5 7.596V4H6.30775C6.23075 4 6.16025 4.03208 6.09625 4.09625C6.03208 4.16025 6 4.23075 6 4.30775V19.6923C6 19.7693 6.03208 19.8398 6.09625 19.9038C6.16025 19.9679 6.23075 20 6.30775 20H17.6923C17.7692 20 17.8398 19.9679 17.9038 19.9038C17.9679 19.8398 18 19.7693 18 19.6923V8.5H14.404C14.1462 8.5 13.9311 8.41375 13.7587 8.24125C13.5862 8.06892 13.5 7.85383 13.5 7.596Z" fill="#273540"/>
</svg>
