<svg width="104" height="127" viewBox="0 0 104 127" fill="none" xmlns="http://www.w3.org/2000/svg">
<g clip-path="url(#clip0_4274_29910)">
<path d="M51.636 126.41C66.2715 126.41 78.136 123.514 78.136 119.942C78.136 116.369 66.2715 113.473 51.636 113.473C37.0004 113.473 25.136 116.369 25.136 119.942C25.136 123.514 37.0004 126.41 51.636 126.41Z" fill="black" fill-opacity="0.05"/>
<path fill-rule="evenodd" clip-rule="evenodd" d="M55.8442 106.179C56.4631 106.125 57.0088 106.582 57.0629 107.201L57.7002 114.486C57.7544 115.105 57.2965 115.651 56.6776 115.705C56.0586 115.759 55.513 115.301 55.4588 114.682L54.8215 107.397C54.7673 106.778 55.2252 106.233 55.8442 106.179Z" fill="#C4144B" stroke="#152633" stroke-width="1.5"/>
<path fill-rule="evenodd" clip-rule="evenodd" d="M49.0967 107.316C49.7157 107.371 50.1735 107.916 50.1194 108.535L48.8937 122.544C48.8396 123.163 48.2939 123.621 47.675 123.567C47.056 123.513 46.5981 122.967 46.6523 122.348L47.8779 108.339C47.9321 107.72 48.4777 107.262 49.0967 107.316Z" fill="#EF3E60" stroke="#152633"/>
<path fill-rule="evenodd" clip-rule="evenodd" d="M50.1057 108.692L49.4435 116.26C48.6788 116.238 47.928 116.202 47.1943 116.153L47.8471 108.692H50.1057Z" fill="#C4144B"/>
<path fill-rule="evenodd" clip-rule="evenodd" d="M49.0967 107.316C49.7157 107.371 50.1735 107.916 50.1194 108.535L48.8937 122.544C48.8396 123.163 48.2939 123.621 47.675 123.567C47.056 123.513 46.5981 122.967 46.6523 122.348L47.8779 108.339C47.9321 107.72 48.4777 107.262 49.0967 107.316Z" stroke="#152633" stroke-width="1.5"/>
<path fill-rule="evenodd" clip-rule="evenodd" d="M39.3629 102.152C39.9468 102.365 40.2478 103.01 40.0353 103.594L35.2257 116.809C35.0132 117.393 34.3676 117.694 33.7837 117.481C33.1999 117.269 32.8989 116.623 33.1114 116.039L37.921 102.825C38.1335 102.241 38.7791 101.94 39.3629 102.152Z" fill="#EF3E60" stroke="#152633"/>
<path fill-rule="evenodd" clip-rule="evenodd" d="M38.7942 107.004L36.8069 112.464C36.0124 112.151 35.3314 111.811 34.782 111.449L36.3998 107.004H38.7942Z" fill="#C4144B"/>
<path fill-rule="evenodd" clip-rule="evenodd" d="M39.3629 102.152C39.9468 102.365 40.2478 103.01 40.0353 103.594L35.2257 116.809C35.0132 117.393 34.3676 117.694 33.7837 117.481C33.1999 117.269 32.8989 116.623 33.1114 116.039L37.921 102.825C38.1335 102.241 38.7791 101.94 39.3629 102.152Z" stroke="#152633" stroke-width="1.5"/>
<path fill-rule="evenodd" clip-rule="evenodd" d="M63.5962 104.402C64.1801 104.19 64.8257 104.491 65.0382 105.075L69.8478 118.289C70.0603 118.873 69.7593 119.519 69.1755 119.731C68.5916 119.944 67.946 119.643 67.7335 119.059L62.9239 105.844C62.7114 105.26 63.0124 104.615 63.5962 104.402Z" fill="#EF3E60" stroke="#152633"/>
<path fill-rule="evenodd" clip-rule="evenodd" d="M65.9452 107.567L67.5729 112.039C67.0204 112.397 66.3383 112.734 65.5446 113.045L63.5508 107.567H65.9452Z" fill="#C4144B"/>
<path fill-rule="evenodd" clip-rule="evenodd" d="M63.5962 104.402C64.1801 104.19 64.8257 104.491 65.0382 105.075L69.8478 118.289C70.0603 118.873 69.7593 119.519 69.1755 119.731C68.5916 119.944 67.946 119.643 67.7335 119.059L62.9239 105.844C62.7114 105.26 63.0124 104.615 63.5962 104.402Z" stroke="#152633" stroke-width="1.5"/>
<path fill-rule="evenodd" clip-rule="evenodd" d="M33.1985 103.067V105.317C33.1985 108.268 41.2574 110.66 51.1985 110.66C61.1396 110.66 69.1985 108.268 69.1985 105.317V103.067" fill="#C4144B"/>
<path d="M33.1985 103.067V105.317C33.1985 108.268 41.2574 110.66 51.1985 110.66C61.1396 110.66 69.1985 108.268 69.1985 105.317V103.067" stroke="#152633" stroke-width="1.5" stroke-linecap="round" stroke-linejoin="round"/>
<path d="M51.1985 108.41C61.1396 108.41 69.1985 106.018 69.1985 103.067C69.1985 100.115 61.1396 97.7229 51.1985 97.7229C41.2574 97.7229 33.1985 100.115 33.1985 103.067C33.1985 106.018 41.2574 108.41 51.1985 108.41Z" fill="#EF3E60" stroke="#152633" stroke-width="1.5"/>
<path d="M51.5422 104.598C55.46 104.598 58.636 103.842 58.636 102.91C58.636 101.978 55.46 101.223 51.5422 101.223C47.6245 101.223 44.4485 101.978 44.4485 102.91C44.4485 103.842 47.6245 104.598 51.5422 104.598Z" fill="black" fill-opacity="0.05"/>
<path fill-rule="evenodd" clip-rule="evenodd" d="M23.0186 73.6604C17.7497 79.8251 14.0802 83.4679 12.0102 84.5887C8.90532 86.27 11.4457 94.1159 18.2201 94.9566C22.7364 95.517 29.4167 93.0885 38.261 87.6711L23.0186 73.6604Z" fill="#2D3B45" stroke="#152633" stroke-width="1.5"/>
<path fill-rule="evenodd" clip-rule="evenodd" d="M28.3774 59.5883C24.9229 61.4418 16.9769 65.2066 9.45768 65.1794C-0.513368 65.1436 0.413443 54.8455 4.45438 51.5774C8.22315 48.5288 16.465 50.7456 27.682 57.1353C27.8924 57.9498 28.1255 58.7682 28.3774 59.5883Z" fill="#2D3B45" stroke="#152633" stroke-width="1.5"/>
<path fill-rule="evenodd" clip-rule="evenodd" d="M66.2454 36.5482L78.5326 27.9446C79.0483 27.5835 79.7039 27.4863 80.3021 27.6822L81.0743 27.935C81.6726 28.1309 82.3281 28.0337 82.8438 27.6726L89.141 23.2632C90.0458 22.6297 91.2929 22.8496 91.9265 23.7544L101.892 37.9872C102.526 38.892 102.306 40.1391 101.401 40.7726L79.7961 55.9007C78.8913 56.5342 77.6442 56.3144 77.0106 55.4095L65.7542 39.3337C65.1206 38.4289 65.3405 37.1818 66.2454 36.5482Z" fill="#FFD469"/>
<path fill-rule="evenodd" clip-rule="evenodd" d="M87.0051 24.759L89.1412 23.2632C90.046 22.6297 91.2931 22.8496 91.9266 23.7544L101.893 37.9872C102.526 38.892 102.306 40.1391 101.401 40.7726L79.7962 55.9007C78.8914 56.5342 77.6443 56.3144 77.0108 55.4095L76.3074 54.405L95.7764 40.7726C96.6812 40.1391 96.9011 38.892 96.2675 37.9872L87.0051 24.759Z" fill="#FFC44E"/>
<path fill-rule="evenodd" clip-rule="evenodd" d="M66.2454 36.5482L78.5326 27.9446C79.0483 27.5835 79.7039 27.4863 80.3021 27.6822L81.0743 27.935C81.6726 28.1309 82.3281 28.0337 82.8438 27.6726L89.141 23.2632C90.0458 22.6297 91.2929 22.8496 91.9265 23.7544L101.892 37.9872C102.526 38.892 102.306 40.1391 101.401 40.7726L79.7961 55.9007C78.8913 56.5342 77.6442 56.3143 77.0106 55.4095L65.7542 39.3337C65.1206 38.4289 65.3405 37.1818 66.2454 36.5482Z" stroke="#152633" stroke-width="1.5" stroke-linejoin="round"/>
<path fill-rule="evenodd" clip-rule="evenodd" d="M61.1306 60.085C63.8878 47.4736 67.7553 39.8655 72.5426 39.1046C77.6752 38.2884 85.9483 44.4904 79.303 51.9243C74.2918 57.5303 66.1772 60.9162 62.4882 62.2432C62.0473 61.5072 61.5951 60.7864 61.1306 60.085Z" fill="#2D3B45" stroke="#152633" stroke-width="1.5"/>
<path fill-rule="evenodd" clip-rule="evenodd" d="M54.011 102.348C68.9172 86.0353 65.9527 73.6117 65.6607 71.2751C66.7992 79.2314 54.6245 86.8428 42.761 88.2853C42.9485 92.2228 43.3235 95.0353 43.886 96.7228C44.7297 99.254 47.8235 104.035 54.011 102.348Z" fill="#2D3B45" stroke="#152633" stroke-width="1.5"/>
<path fill-rule="evenodd" clip-rule="evenodd" d="M61.4067 56.2229C56.0724 57.9993 49.9845 58.9648 43.5193 58.9648C37.7565 58.9648 32.4257 58.2849 27.7196 56.9519C25.83 61.1834 23.6894 66.6053 23.2206 70.3555C21.8418 80.0056 30.2303 88.4636 45.1257 88.4636C60.0211 88.4636 67.8027 79.7016 66.1025 70.6475C64.9308 64.4098 63.042 59.6973 61.4067 56.2229Z" fill="white" stroke="#152633" stroke-width="1.5"/>
<path fill-rule="evenodd" clip-rule="evenodd" d="M38.1301 75.8025C38.3807 75.1265 39.0314 74.6448 39.7946 74.6448C40.5578 74.6448 41.2084 75.1265 41.4591 75.8025C42.1392 75.5786 42.9164 75.7822 43.3937 76.3717C43.877 76.9685 43.9095 77.7836 43.5347 78.4053C44.1394 78.8009 44.4641 79.5448 44.292 80.29C44.1207 81.0321 43.5071 81.5571 42.7939 81.6508C42.8611 82.3653 42.4877 83.0791 41.8045 83.4123C41.1158 83.7482 40.3161 83.5978 39.7946 83.0952C39.2731 83.5978 38.4734 83.7482 37.7846 83.4123C37.1015 83.0791 36.7281 82.3653 36.7952 81.6508C36.082 81.5571 35.4684 81.0321 35.2971 80.29C35.1251 79.5448 35.4498 78.8009 36.0545 78.4053C35.6796 77.7836 35.7122 76.9685 36.1954 76.3717C36.6727 75.7822 37.45 75.5786 38.1301 75.8025Z" fill="#2D3B45" stroke="#152633" stroke-width="1.5"/>
<path fill-rule="evenodd" clip-rule="evenodd" d="M14.2384 29.0915C13.2036 29.0456 12.0451 28.8605 10.7999 28.4402C6.01142 26.8231 5.78268 22.6534 5.57998 21.3272C5.37728 20.001 5.34958 12.8423 11.037 13.8521C14.7102 14.5043 17.4564 15.9953 19.9895 17.2256C17.3464 20.8196 15.3997 24.8741 14.2384 29.0915Z" fill="#2D3B45" stroke="#152633" stroke-width="1.5"/>
<path fill-rule="evenodd" clip-rule="evenodd" d="M12.1235 35.634C12.1235 51.4305 25.701 59.8735 44.3664 59.8735C63.0318 59.8735 78.1632 50.3411 78.1632 36.1787C78.1632 18.5801 63.0318 1.58984 44.3664 1.58984C25.701 1.58984 12.1235 19.0205 12.1235 35.634Z" fill="white" stroke="#152633" stroke-width="1.5"/>
<path fill-rule="evenodd" clip-rule="evenodd" d="M69.294 30.2223C70.5354 29.7072 71.8652 28.9676 73.1967 27.9026C78.3167 23.8067 77.2927 16.9801 76.9514 15.2735C76.61 13.5668 74.5621 5.37491 68.0768 9.12953C63.8884 11.5543 61.4751 14.5211 58.9329 17.1449C63.1516 20.7308 68.0768 26.848 69.294 30.2223Z" fill="#2D3B45" stroke="#152633" stroke-width="1.5"/>
</g>
<defs>
<clipPath id="clip0_4274_29910">
<rect width="103" height="127" fill="white" transform="translate(0.5)"/>
</clipPath>
</defs>
</svg>
