<svg width="24" height="24" viewBox="0 0 24 24" fill="none" xmlns="http://www.w3.org/2000/svg">
<path d="M2.5 14.6635V9.3365C2.5 8.8315 2.67983 8.39917 3.0395 8.0395C3.39917 7.67983 3.8315 7.5 4.3365 7.5C4.84167 7.5 5.27408 7.67983 5.63375 8.0395C5.99325 8.39917 6.173 8.8315 6.173 9.3365V14.6635C6.173 15.1685 5.99325 15.6008 5.63375 15.9605C5.27408 16.3202 4.84167 16.5 4.3365 16.5C3.8315 16.5 3.39917 16.3202 3.0395 15.9605C2.67983 15.6008 2.5 15.1685 2.5 14.6635ZM9.173 18.5C8.668 18.5 8.2405 18.325 7.8905 17.975C7.5405 17.625 7.3655 17.1974 7.3655 16.6923V7.30775C7.3655 6.80258 7.5405 6.375 7.8905 6.025C8.2405 5.675 8.668 5.5 9.173 5.5H14.827C15.332 5.5 15.7595 5.675 16.1095 6.025C16.4595 6.375 16.6345 6.80258 16.6345 7.30775V16.6923C16.6345 17.1974 16.4595 17.625 16.1095 17.975C15.7595 18.325 15.332 18.5 14.827 18.5H9.173ZM17.827 14.6635V9.3365C17.827 8.8315 18.0068 8.39917 18.3663 8.0395C18.7259 7.67983 19.1583 7.5 19.6635 7.5C20.1685 7.5 20.6008 7.67983 20.9605 8.0395C21.3202 8.39917 21.5 8.8315 21.5 9.3365V14.6635C21.5 15.1685 21.3202 15.6008 20.9605 15.9605C20.6008 16.3202 20.1685 16.5 19.6635 16.5C19.1583 16.5 18.7259 16.3202 18.3663 15.9605C18.0068 15.6008 17.827 15.1685 17.827 14.6635ZM9.173 17H14.827C14.9167 17 14.9903 16.9712 15.048 16.9135C15.1058 16.8558 15.1348 16.7821 15.1348 16.6923V7.30775C15.1348 7.21792 15.1058 7.14417 15.048 7.0865C14.9903 7.02883 14.9167 7 14.827 7H9.173C9.08333 7 9.00967 7.02883 8.952 7.0865C8.89417 7.14417 8.86525 7.21792 8.86525 7.30775V16.6923C8.86525 16.7821 8.89417 16.8558 8.952 16.9135C9.00967 16.9712 9.08333 17 9.173 17Z" fill="#273540"/>
</svg>
