<svg width="45" height="45" viewBox="0 0 45 45" fill="none" xmlns="http://www.w3.org/2000/svg">
<rect x="0.5" y="0.5" width="44" height="44" rx="22" fill="white"/>
<rect x="0.5" y="0.5" width="44" height="44" rx="22" fill="url(#paint0_linear_5184_172)"/>
<path d="M28.2655 14.1336C28.3461 13.916 28.6539 13.916 28.7345 14.1336L29.2704 15.5819C29.2957 15.6503 29.3497 15.7043 29.4181 15.7296L30.8664 16.2655C31.084 16.3461 31.084 16.6539 30.8664 16.7345L29.4181 17.2704C29.3497 17.2957 29.2957 17.3497 29.2704 17.4181L28.7345 18.8664C28.6539 19.084 28.3461 19.084 28.2655 18.8664L27.7296 17.4181C27.7043 17.3497 27.6503 17.2957 27.5819 17.2704L26.1336 16.7345C25.916 16.6539 25.916 16.3461 26.1336 16.2655L27.5819 15.7296C27.6503 15.7043 27.7043 15.6503 27.7296 15.5819L28.2655 14.1336Z" fill="white"/>
<path fill-rule="evenodd" clip-rule="evenodd" d="M22.5 16.5341L21.2317 19.9615C21.014 20.55 20.55 21.014 19.9615 21.2317L16.5341 22.5L19.9615 23.7682C20.55 23.986 21.014 24.45 21.2317 25.0385L22.5 28.4658L23.7682 25.0385C23.986 24.45 24.45 23.986 25.0385 23.7682L28.4658 22.5L25.0385 21.2317C24.45 21.014 23.986 20.55 23.7682 19.9615L22.5 16.5341ZM23.2034 14.4009C22.9617 13.7479 22.0382 13.7479 21.7966 14.4009L19.9187 19.4756C19.8428 19.6809 19.6809 19.8428 19.4756 19.9187L14.4009 21.7966C13.7479 22.0382 13.7479 22.9617 14.4009 23.2034L19.4756 25.0812C19.6809 25.1572 19.8428 25.319 19.9187 25.5243L21.7966 30.5991C22.0382 31.2521 22.9617 31.2521 23.2034 30.5991L25.0812 25.5243C25.1572 25.319 25.319 25.1572 25.5243 25.0812L30.5991 23.2034C31.2521 22.9617 31.2521 22.0382 30.5991 21.7966L25.5243 19.9187C25.319 19.8428 25.1572 19.6809 25.0812 19.4756L23.2034 14.4009Z" fill="white"/>
<defs>
<linearGradient id="paint0_linear_5184_172" x1="-8" y1="-8" x2="-18.7254" y2="50.3285" gradientUnits="userSpaceOnUse">
<stop stop-color="#02672D"/>
<stop offset="0.821921" stop-color="#09508C"/>
</linearGradient>
</defs>
</svg>
