<svg width="44" height="44" viewBox="0 0 44 44" fill="none" xmlns="http://www.w3.org/2000/svg">
<rect width="44" height="44" rx="22" fill="url(#paint0_linear_693_12330)"/>
<path d="M27.7655 13.6336C27.8461 13.416 28.1539 13.416 28.2345 13.6336L28.7704 15.0819C28.7957 15.1503 28.8497 15.2043 28.9181 15.2296L30.3664 15.7655C30.584 15.8461 30.584 16.1539 30.3664 16.2345L28.9181 16.7704C28.8497 16.7957 28.7957 16.8497 28.7704 16.9181L28.2345 18.3664C28.1539 18.584 27.8461 18.584 27.7655 18.3664L27.2296 16.9181C27.2043 16.8497 27.1503 16.7957 27.0819 16.7704L25.6336 16.2345C25.416 16.1539 25.416 15.8461 25.6336 15.7655L27.0819 15.2296C27.1503 15.2043 27.2043 15.1503 27.2296 15.0819L27.7655 13.6336Z" fill="white"/>
<path fill-rule="evenodd" clip-rule="evenodd" d="M22 16.0341L20.7317 19.4615C20.514 20.05 20.05 20.514 19.4615 20.7317L16.0341 22L19.4615 23.2682C20.05 23.486 20.514 23.95 20.7317 24.5385L22 27.9658L23.2682 24.5385C23.486 23.95 23.95 23.486 24.5385 23.2682L27.9658 22L24.5385 20.7317C23.95 20.514 23.486 20.05 23.2682 19.4615L22 16.0341ZM22.7034 13.9009C22.4617 13.2479 21.5382 13.2479 21.2966 13.9009L19.4187 18.9756C19.3428 19.1809 19.1809 19.3428 18.9756 19.4187L13.9009 21.2966C13.2479 21.5382 13.2479 22.4617 13.9009 22.7034L18.9756 24.5812C19.1809 24.6572 19.3428 24.819 19.4187 25.0243L21.2966 30.0991C21.5382 30.7521 22.4617 30.7521 22.7034 30.0991L24.5812 25.0243C24.6572 24.819 24.819 24.6572 25.0243 24.5812L30.0991 22.7034C30.7521 22.4617 30.7521 21.5382 30.0991 21.2966L25.0243 19.4187C24.819 19.3428 24.6572 19.1809 24.5812 18.9756L22.7034 13.9009Z" fill="white"/>
<defs>
<linearGradient id="paint0_linear_693_12330" x1="-10.9141" y1="-9" x2="-0.174553" y2="70.5433" gradientUnits="userSpaceOnUse">
<stop stop-color="#9E58BD"/>
<stop offset="1" stop-color="#00828E"/>
</linearGradient>
</defs>
</svg>
