<svg width="24" height="25" viewBox="0 0 24 25" fill="none" xmlns="http://www.w3.org/2000/svg">
<path opacity="0.6" d="M9.65487 13.1256C9.70287 12.7896 9.79545 12.493 9.93259 12.2359C10.0697 11.9753 10.2429 11.7576 10.452 11.5827C10.6646 11.4079 10.9063 11.2759 11.1772 11.1867C11.4514 11.0941 11.7463 11.0479 12.0617 11.0479C12.3737 11.0479 12.6617 11.0924 12.9257 11.1816C13.1897 11.2707 13.416 11.3976 13.6046 11.5621C13.7966 11.7267 13.9457 11.9256 14.052 12.1587C14.1583 12.3919 14.2114 12.6507 14.2114 12.9353C14.2114 13.1684 14.1806 13.3776 14.1189 13.5627C14.0606 13.7444 13.9749 13.9039 13.8617 14.041C13.752 14.1781 13.6183 14.2947 13.4606 14.3907C13.3029 14.4867 13.1263 14.5656 12.9309 14.6273C13.4109 14.7507 13.7709 14.9633 14.0109 15.265C14.2543 15.5633 14.376 15.937 14.376 16.3861C14.376 16.7256 14.3109 17.0307 14.1806 17.3016C14.0537 17.5724 13.8789 17.8039 13.656 17.9959C13.4332 18.1844 13.1726 18.3301 12.8743 18.433C12.5794 18.5324 12.2623 18.5821 11.9229 18.5821C11.532 18.5821 11.1977 18.5341 10.92 18.4381C10.6423 18.3387 10.4074 18.2033 10.2154 18.0319C10.0234 17.8604 9.86573 17.6581 9.7423 17.425C9.61887 17.1884 9.5143 16.933 9.42859 16.6587L9.82459 16.4941C9.92745 16.4496 10.0269 16.4376 10.1229 16.4581C10.2223 16.4787 10.2943 16.5353 10.3389 16.6279C10.3834 16.7239 10.4383 16.8387 10.5034 16.9724C10.572 17.1061 10.6646 17.2347 10.7812 17.3581C10.8977 17.4816 11.0452 17.5861 11.2234 17.6719C11.4052 17.7576 11.6349 17.8004 11.9126 17.8004C12.1697 17.8004 12.3943 17.7593 12.5863 17.677C12.7817 17.5913 12.9429 17.4816 13.0697 17.3479C13.2 17.2141 13.2977 17.065 13.3629 16.9004C13.428 16.7359 13.4606 16.573 13.4606 16.4119C13.4606 16.213 13.4349 16.0313 13.3834 15.8667C13.332 15.7021 13.236 15.5599 13.0954 15.4399C12.9549 15.3199 12.7612 15.2256 12.5143 15.157C12.2709 15.0884 11.9572 15.0541 11.5732 15.0541V14.3907C11.8886 14.3873 12.156 14.353 12.3754 14.2879C12.5983 14.2227 12.7783 14.1336 12.9154 14.0204C13.056 13.9073 13.1572 13.7719 13.2189 13.6141C13.284 13.4564 13.3166 13.2816 13.3166 13.0896C13.3166 12.877 13.2823 12.6919 13.2137 12.5341C13.1486 12.3764 13.0577 12.2461 12.9412 12.1433C12.8246 12.0404 12.6857 11.9633 12.5246 11.9119C12.3669 11.8604 12.1954 11.8347 12.0103 11.8347C11.8252 11.8347 11.652 11.8621 11.4909 11.917C11.3332 11.9719 11.1926 12.049 11.0692 12.1484C10.9492 12.2444 10.848 12.3593 10.7657 12.493C10.6834 12.6267 10.6252 12.7741 10.5909 12.9353C10.5463 13.0553 10.4897 13.1359 10.4212 13.177C10.356 13.2147 10.26 13.225 10.1332 13.2079L9.65487 13.1256Z" fill="#394B58"/>
<path fill-rule="evenodd" clip-rule="evenodd" d="M7.92855 3.07157C7.92855 2.71653 7.64073 2.42871 7.28569 2.42871C6.93065 2.42871 6.64284 2.71653 6.64284 3.07157V3.28585H6.10381H6.10381C5.76493 3.28584 5.47258 3.28583 5.23179 3.30551C4.97764 3.32627 4.72485 3.37212 4.48161 3.49606C4.11872 3.68096 3.82369 3.97599 3.63879 4.33887C3.51485 4.58212 3.46901 4.8349 3.44824 5.08905C3.42857 5.32985 3.42858 5.62219 3.42859 5.96107V5.96108L3.42859 22.5716H20.5714V5.96106V5.96098C20.5715 5.62214 20.5715 5.32982 20.5518 5.08905C20.531 4.8349 20.4852 4.58212 20.3612 4.33887C20.1763 3.97599 19.8813 3.68096 19.5184 3.49606C19.2752 3.37212 19.0224 3.32627 18.7682 3.30551C18.5275 3.28583 18.2351 3.28584 17.8962 3.28585H17.3571V3.07157C17.3571 2.71653 17.0693 2.42871 16.7143 2.42871C16.3592 2.42871 16.0714 2.71653 16.0714 3.07157V3.28585H7.92855V3.07157ZM6.64284 4.57157V4.78585C6.64284 5.14089 6.93065 5.42871 7.28569 5.42871C7.64073 5.42871 7.92855 5.14089 7.92855 4.78585V4.57157H16.0714V4.78585C16.0714 5.14089 16.3592 5.42871 16.7143 5.42871C17.0693 5.42871 17.3571 5.14089 17.3571 4.78585V4.57157H17.8714C18.2421 4.57157 18.4814 4.57207 18.6636 4.58695C18.8382 4.60122 18.9029 4.62544 18.9347 4.64164C19.0557 4.70327 19.154 4.80161 19.2157 4.92258C19.2319 4.95436 19.2561 5.01911 19.2703 5.19375C19.2852 5.37589 19.2857 5.61521 19.2857 5.98585V7.143H4.7143V5.98585C4.7143 5.61521 4.7148 5.37589 4.72969 5.19375C4.74395 5.01911 4.76818 4.95436 4.78437 4.92258C4.846 4.80161 4.94435 4.70327 5.06531 4.64164C5.0971 4.62544 5.16184 4.60122 5.33648 4.58695C5.51863 4.57207 5.75795 4.57157 6.12859 4.57157H6.64284ZM4.7143 8.42871V21.2859H19.2857V8.42871H4.7143Z" fill="#2D3B45"/>
</svg>
