<svg width="24" height="24" viewBox="0 0 24 24" fill="none" xmlns="http://www.w3.org/2000/svg">
<path d="M5.25 14.75C5.0375 14.75 4.85942 14.6781 4.71575 14.5342C4.57192 14.3904 4.5 14.2122 4.5 13.9997C4.5 13.7871 4.57192 13.609 4.71575 13.4655C4.85942 13.3218 5.0375 13.25 5.25 13.25H18.75C18.9625 13.25 19.1406 13.3219 19.2843 13.4658C19.4281 13.6096 19.5 13.7878 19.5 14.0003C19.5 14.2129 19.4281 14.391 19.2843 14.5345C19.1406 14.6782 18.9625 14.75 18.75 14.75H5.25ZM5.25 10.75C5.0375 10.75 4.85942 10.6781 4.71575 10.5342C4.57192 10.3904 4.5 10.2122 4.5 9.99975C4.5 9.78708 4.57192 9.609 4.71575 9.4655C4.85942 9.32183 5.0375 9.25 5.25 9.25H18.75C18.9625 9.25 19.1406 9.32192 19.2843 9.46575C19.4281 9.60958 19.5 9.78775 19.5 10.0003C19.5 10.2129 19.4281 10.391 19.2843 10.5345C19.1406 10.6782 18.9625 10.75 18.75 10.75H5.25Z" fill="#273540"/>
</svg>
