<svg width="24" height="24" viewBox="0 0 24 24" fill="none" xmlns="http://www.w3.org/2000/svg">
<path d="M11.9808 20.5C9.97067 20.5 8.19892 19.8865 6.66559 18.6595C5.13226 17.4327 4.14951 15.8628 3.71734 13.95C3.66351 13.7513 3.69592 13.5687 3.81459 13.402C3.93309 13.2353 4.10101 13.1385 4.31834 13.1115C4.52284 13.0847 4.70617 13.1251 4.86834 13.2327C5.03051 13.3404 5.14367 13.4987 5.20784 13.7078C5.58851 15.2526 6.40867 16.5208 7.66834 17.5125C8.92801 18.5042 10.3655 19 11.9808 19C13.9308 19 15.585 18.3208 16.9433 16.9625C18.3017 15.6042 18.9808 13.95 18.9808 12C18.9808 10.05 18.3017 8.39583 16.9433 7.0375C15.585 5.67917 13.9308 5 11.9808 5C10.8885 5 9.86484 5.24267 8.90984 5.728C7.95467 6.21317 7.13217 6.88075 6.44234 7.73075H8.30784C8.52034 7.73075 8.69842 7.80267 8.84209 7.9465C8.98592 8.09033 9.05784 8.2685 9.05784 8.481C9.05784 8.69367 8.98592 8.87175 8.84209 9.01525C8.69842 9.15892 8.52034 9.23075 8.30784 9.23075H4.88484C4.62867 9.23075 4.41401 9.14408 4.24084 8.97075C4.06751 8.79758 3.98084 8.58292 3.98084 8.32675V4.90375C3.98084 4.69125 4.05276 4.51317 4.19659 4.3695C4.34042 4.22567 4.51867 4.15375 4.73134 4.15375C4.94384 4.15375 5.12192 4.22567 5.26559 4.3695C5.40909 4.51317 5.48084 4.69125 5.48084 4.90375V6.523C6.29234 5.56533 7.26417 4.82208 8.39634 4.29325C9.52834 3.76442 10.7232 3.5 11.9808 3.5C13.1608 3.5 14.2661 3.72308 15.2966 4.16925C16.3271 4.61542 17.2257 5.22183 17.9923 5.9885C18.759 6.75517 19.3654 7.65367 19.8116 8.684C20.2578 9.7145 20.4808 10.8197 20.4808 11.9995C20.4808 13.1793 20.2578 14.2846 19.8116 15.3152C19.3654 16.3461 18.759 17.2448 17.9923 18.0115C17.2257 18.7782 16.3271 19.3846 15.2966 19.8307C14.2661 20.2769 13.1608 20.5 11.9808 20.5ZM12.7596 11.6962L15.5096 14.4462C15.6481 14.5846 15.7189 14.7586 15.7221 14.9683C15.7254 15.1779 15.6546 15.3552 15.5096 15.5C15.3648 15.6448 15.1892 15.7172 14.9828 15.7172C14.7763 15.7172 14.6007 15.6448 14.4558 15.5L11.5308 12.575C11.4373 12.4813 11.3688 12.3793 11.3251 12.269C11.2816 12.1587 11.2598 12.0447 11.2598 11.927V7.75C11.2598 7.5375 11.3317 7.35933 11.4753 7.2155C11.6192 7.07183 11.7974 7 12.0101 7C12.2226 7 12.4007 7.07183 12.5443 7.2155C12.6878 7.35933 12.7596 7.5375 12.7596 7.75V11.6962Z" fill="#273540"/>
</svg>
