<svg width="24" height="24" viewBox="0 0 24 24" fill="none" xmlns="http://www.w3.org/2000/svg">
<path d="M3.51538 16.6923V7.30775C3.51538 6.81058 3.69238 6.385 4.04638 6.031C4.40038 5.677 4.82588 5.5 5.32288 5.5H18.6921C19.1893 5.5 19.6149 5.677 19.9689 6.031C20.3229 6.385 20.4999 6.81058 20.4999 7.30775V16.6923C20.4999 17.1894 20.3229 17.615 19.9689 17.969C19.6149 18.323 19.1893 18.5 18.6921 18.5H5.32288C4.82588 18.5 4.40038 18.323 4.04638 17.969C3.69238 17.615 3.51538 17.1894 3.51538 16.6923ZM5.30763 17H8.66138V7H5.30763C5.23063 7 5.16013 7.03208 5.09613 7.09625C5.03196 7.16025 4.99988 7.23075 4.99988 7.30775V16.6923C4.99988 16.7692 5.03196 16.8398 5.09613 16.9038C5.16013 16.9679 5.23063 17 5.30763 17ZM10.1614 17H13.8229V7H10.1614V17ZM15.3229 17H18.6769C18.7537 17 18.8242 16.9679 18.8884 16.9038C18.9524 16.8398 18.9844 16.7692 18.9844 16.6923V7.30775C18.9844 7.23075 18.9524 7.16025 18.8884 7.09625C18.8242 7.03208 18.7537 7 18.6769 7H15.3229V17Z" fill="#273540"/>
</svg>
