<svg width="24" height="24" viewBox="0 0 24 24" fill="none" xmlns="http://www.w3.org/2000/svg">
<path d="M1.92292 12.877C1.77425 12.7282 1.70092 12.5541 1.70292 12.3547C1.70475 12.1554 1.78325 11.9782 1.93842 11.823C2.09359 11.6782 2.26925 11.6032 2.46542 11.598C2.66142 11.593 2.837 11.668 2.99217 11.823L6.71542 15.5462L6.96542 15.2962C7.06275 15.3424 7.165 15.3997 7.27217 15.4682C7.37917 15.5369 7.48459 15.6232 7.58842 15.727C7.74359 15.882 7.81859 16.0576 7.81342 16.2537C7.80825 16.4499 7.72809 16.6256 7.57292 16.7807L7.33267 17.0212C7.15184 17.1917 6.94092 17.2795 6.69992 17.2845C6.45892 17.2897 6.248 17.2019 6.06717 17.0212L1.92292 12.877ZM12.3499 15.5307L21.0229 6.85773C21.1718 6.70907 21.3458 6.63565 21.5452 6.63748C21.7445 6.63948 21.9218 6.71798 22.0769 6.87298C22.2218 7.02815 22.2968 7.20382 22.3019 7.39998C22.3069 7.59615 22.2319 7.77182 22.0769 7.92699L12.9827 17.0212C12.8018 17.2019 12.5909 17.2922 12.3499 17.2922C12.1089 17.2922 11.898 17.2019 11.7172 17.0212L7.57292 12.877C7.43459 12.7385 7.36375 12.567 7.36042 12.3625C7.35725 12.158 7.42809 11.9782 7.57292 11.823C7.72809 11.668 7.90634 11.5905 8.10767 11.5905C8.30884 11.5905 8.487 11.668 8.64217 11.823L12.3499 15.5307ZM16.4114 7.94223L12.5307 11.823C12.3922 11.9615 12.2207 12.0323 12.0162 12.0355C11.8117 12.0388 11.6319 11.968 11.4769 11.823C11.3218 11.668 11.2442 11.4898 11.2442 11.2885C11.2442 11.0872 11.3218 10.909 11.4769 10.754L15.3577 6.87298C15.4962 6.73465 15.6676 6.66382 15.8719 6.66048C16.0764 6.65732 16.2563 6.72815 16.4114 6.87298C16.5666 7.02815 16.6442 7.2064 16.6442 7.40773C16.6442 7.6089 16.5666 7.78707 16.4114 7.94223Z" fill="#273540"/>
</svg>
