<svg version="1.1" xmlns="http://www.w3.org/2000/svg" viewBox="0 0 24 24">
 <g id="Guides">
  <line id="Baseline-S" x1="0" x2="24" y1="18" y2="18"/>
  <line id="Capline-S"  x1="0" x2="24" y1="6"  y2="6"/>
  <line id="Baseline-M" x1="0" x2="24" y1="18" y2="18"/>
  <line id="Capline-M"  x1="0" x2="24" y1="6"  y2="6"/>
  <line id="Baseline-L" x1="0" x2="24" y1="18" y2="18"/>
  <line id="Capline-L"  x1="0" x2="24" y1="6"  y2="6"/>
  <line id="left-margin"  x1="0"  x2="0"  y1="0" y2="24"/>
  <line id="right-margin" x1="24" x2="24" y1="0" y2="24"/>
 </g>
 <g id="Symbols">
  <g id="Regular-M">
   <rect width="24" height="24" opacity="0" />
   <g transform="matrix(0.010416666666666666 0 0 0.010416666666666666 2 2)">
     <path d="M1803.305 1337.072L1919.958 1920l-582.928-116.653-950.128-950.015 79.15-79.15 801.792 801.68 307.977-307.976-907.362-907.474L281.22 747.65 49.034 515.464c-65.379-65.603-65.379-172.069 0-237.448l228.94-228.94c65.267-65.379 171.733-65.49 237.448 0l232.186 232.187 1055.697 1055.809zm-411.196 363.056l385 77.023-77.023-385-45.116-45.116-307.977 307.977 45.117 45.116zM281.222 589.352l308.089-308.09-59.11-59.11-93.927-93.926c-10.972-10.971-25.301-16.345-39.63-16.345-14.33 0-28.548 5.374-39.52 16.345l-228.94 228.94c-21.718 21.718-21.718 57.318 0 79.149l153.038 153.037zm394.134 6.907l692.304 692.304-79.149 79.15-692.304-692.305 79.149-79.15z" stroke="none" stroke-width="1" fill-rule="evenodd"/>
   </g>
  </g>
 </g>
</svg>
