<svg width="24" height="24" viewBox="0 0 24 24" fill="none" xmlns="http://www.w3.org/2000/svg">
<path d="M12.0095 20.5C10.8297 20.5 9.72443 20.2769 8.69377 19.8307C7.66327 19.3846 6.76468 18.7782 5.99802 18.0115C5.23135 17.2448 4.62502 16.3463 4.17902 15.316C3.73285 14.2855 3.50977 13.1803 3.50977 12.0005C3.50977 10.8207 3.73285 9.71542 4.17902 8.68475C4.62502 7.65392 5.23135 6.75517 5.99802 5.9885C6.76468 5.22183 7.66327 4.61542 8.69377 4.16925C9.72443 3.72308 10.8297 3.5 12.0095 3.5C13.2673 3.5 14.4623 3.76442 15.5943 4.29325C16.7263 4.82208 17.698 5.56533 18.5095 6.523V4.90375C18.5095 4.69125 18.5814 4.51317 18.7253 4.3695C18.8691 4.22567 19.0473 4.15375 19.26 4.15375C19.4725 4.15375 19.6506 4.22567 19.7943 4.3695C19.9378 4.51317 20.0095 4.69125 20.0095 4.90375V8.32675C20.0095 8.58292 19.9229 8.79758 19.7498 8.97075C19.5764 9.14408 19.3618 9.23075 19.1058 9.23075H15.6828C15.4703 9.23075 15.2921 9.15883 15.1483 9.015C15.0046 8.87117 14.9328 8.693 14.9328 8.4805C14.9328 8.26783 15.0046 8.08975 15.1483 7.94625C15.2921 7.80258 15.4703 7.73075 15.6828 7.73075H17.548C16.8583 6.88075 16.0359 6.21317 15.0808 5.728C14.1256 5.24267 13.1018 5 12.0095 5C10.0595 5 8.40535 5.67917 7.04702 7.0375C5.68868 8.39583 5.00952 10.05 5.00952 12C5.00952 13.95 5.68868 15.6042 7.04702 16.9625C8.40535 18.3208 10.0595 19 12.0095 19C13.625 19 15.0625 18.5042 16.322 17.5125C17.5817 16.5208 18.4019 15.2526 18.7828 13.7078C18.8468 13.4987 18.9598 13.3404 19.122 13.2327C19.2842 13.1251 19.4676 13.0847 19.6723 13.1115C19.8894 13.1385 20.0573 13.2353 20.176 13.402C20.2945 13.5687 20.3268 13.7513 20.273 13.95C19.841 15.8628 18.8583 17.4327 17.325 18.6595C15.7917 19.8865 14.0198 20.5 12.0095 20.5ZM12.7595 11.6962L15.5095 14.4462C15.648 14.5846 15.7188 14.7586 15.722 14.9683C15.7253 15.1779 15.6545 15.3552 15.5095 15.5C15.3647 15.6448 15.1891 15.7172 14.9828 15.7172C14.7763 15.7172 14.6006 15.6448 14.4558 15.5L11.5308 12.575C11.4373 12.4813 11.3687 12.3793 11.325 12.269C11.2815 12.1587 11.2598 12.0447 11.2598 11.927V7.75C11.2598 7.5375 11.3316 7.35933 11.4753 7.2155C11.6191 7.07183 11.7973 7 12.01 7C12.2225 7 12.4006 7.07183 12.5443 7.2155C12.6878 7.35933 12.7595 7.5375 12.7595 7.75V11.6962Z" fill="#273540"/>
</svg>
