<svg width="24" height="24" viewBox="0 0 24 24" fill="none" xmlns="http://www.w3.org/2000/svg">
<path d="M5.30775 10.8077C4.80258 10.8077 4.375 10.6327 4.025 10.2827C3.675 9.93274 3.5 9.50516 3.5 8.99999V5.61549C3.5 5.11032 3.675 4.68274 4.025 4.33274C4.375 3.98274 4.80258 3.80774 5.30775 3.80774H18.6923C19.1974 3.80774 19.625 3.98274 19.975 4.33274C20.325 4.68274 20.5 5.11032 20.5 5.61549V8.99999C20.5 9.50516 20.325 9.93274 19.975 10.2827C19.625 10.6327 19.1974 10.8077 18.6923 10.8077H5.30775ZM5.30775 9.30774H18.6923C18.7692 9.30774 18.8398 9.27566 18.9038 9.21149C18.9679 9.14749 19 9.07699 19 8.99999V5.61549C19 5.53849 18.9679 5.46799 18.9038 5.40399C18.8398 5.33982 18.7692 5.30774 18.6923 5.30774H5.30775C5.23075 5.30774 5.16025 5.33982 5.09625 5.40399C5.03208 5.46799 5 5.53849 5 5.61549V8.99999C5 9.07699 5.03208 9.14749 5.09625 9.21149C5.16025 9.27566 5.23075 9.30774 5.30775 9.30774ZM5.30775 20.1922C4.80258 20.1922 4.375 20.0172 4.025 19.6672C3.675 19.3172 3.5 18.8897 3.5 18.3845V15C3.5 14.4948 3.675 14.0672 4.025 13.7172C4.375 13.3672 4.80258 13.1922 5.30775 13.1922H18.6923C19.1974 13.1922 19.625 13.3672 19.975 13.7172C20.325 14.0672 20.5 14.4948 20.5 15V18.3845C20.5 18.8897 20.325 19.3172 19.975 19.6672C19.625 20.0172 19.1974 20.1922 18.6923 20.1922H5.30775ZM5.30775 18.6922H18.6923C18.7692 18.6922 18.8398 18.6602 18.9038 18.596C18.9679 18.532 19 18.4615 19 18.3845V15C19 14.923 18.9679 14.8525 18.9038 14.7885C18.8398 14.7243 18.7692 14.6922 18.6923 14.6922H5.30775C5.23075 14.6922 5.16025 14.7243 5.09625 14.7885C5.03208 14.8525 5 14.923 5 15V18.3845C5 18.4615 5.03208 18.532 5.09625 18.596C5.16025 18.6602 5.23075 18.6922 5.30775 18.6922Z" fill="#273540"/>
</svg>
