<svg xmlns="http://www.w3.org/2000/svg" viewBox="0 0 24 24"><g transform="matrix(0.010416666666666666 0 0 0.010416666666666666 2 2)"><path d="M960 0c530.193 0 960 429.807 960 960s-429.807 960-960 960S0 1490.193 0 960 429.807 0 960 0Zm223.797 707.147c-28.531-29.561-67.826-39.944-109.227-39.455-55.225.657-114.197 20.664-156.38 40.315-100.942 47.024-178.395 130.295-242.903 219.312-11.616 16.025-17.678 34.946 2.76 49.697 17.428 12.58 29.978 1.324 40.49-9.897l.69-.74c.801-.862 1.591-1.72 2.37-2.565 11.795-12.772 23.194-25.999 34.593-39.237l2.85-3.31 2.851-3.308c34.231-39.687 69.056-78.805 115.144-105.345 27.4-15.778 47.142 8.591 42.912 35.963-2.535 16.413-11.165 31.874-17.2 47.744-21.44 56.363-43.197 112.607-64.862 168.888-23.74 61.7-47.405 123.425-70.426 185.398l-2 5.38-1.998 5.375c-20.31 54.64-40.319 108.872-53.554 165.896-10.575 45.592-24.811 100.906-4.357 145.697 11.781 25.8 36.77 43.532 64.567 47.566 37.912 5.504 78.906 6.133 116.003-2.308 19.216-4.368 38.12-10.07 56.57-17.005 56.646-21.298 108.226-54.146 154.681-92.755 47.26-39.384 88.919-85.972 126.906-134.292 12.21-15.53 27.004-32.703 31.163-52.596 3.908-18.657-12.746-45.302-34.326-34.473-11.395 5.718-19.929 19.867-28.231 29.27-10.42 11.798-21.044 23.423-31.786 34.92-21.488 22.987-43.513 45.463-65.634 67.831-13.54 13.692-30.37 25.263-47.662 33.763-21.59 10.609-38.785-1.157-36.448-25.064 2.144-21.954 7.515-44.145 15.046-64.926 30.306-83.675 61.19-167.135 91.834-250.686 19.157-52.214 38.217-104.461 56.999-156.816 17.554-48.928 32.514-97.463 38.834-149.3 4.357-35.71-4.9-72.647-30.269-98.937Zm63.72-401.498c-91.342-35.538-200.232 25.112-218.574 121.757-13.25 69.784 13.336 131.23 67.998 157.155 105.765 50.16 232.284-29.954 232.29-147.084.005-64.997-28.612-111.165-81.715-131.828Z" fill-rule="evenodd"/></g>
</svg>