<svg width="24" height="24" viewBox="0 0 24 24" fill="none" xmlns="http://www.w3.org/2000/svg">
<path d="M9.16334 12.6442C8.95067 12.6442 8.7725 12.5723 8.62884 12.4285C8.48534 12.2848 8.41359 12.1067 8.41359 11.8942V5.36345L6.09634 7.6807C5.961 7.8192 5.79192 7.88845 5.58909 7.88845C5.38625 7.88845 5.20725 7.8167 5.05209 7.6732C4.89692 7.5167 4.81934 7.33779 4.81934 7.13645C4.81934 6.93529 4.89692 6.75712 5.05209 6.60195L8.52134 3.1327C8.61484 3.03904 8.71392 2.97304 8.81859 2.9347C8.92342 2.8962 9.03567 2.87695 9.15534 2.87695C9.275 2.87695 9.38867 2.89629 9.49634 2.93495C9.604 2.97379 9.704 3.0397 9.79634 3.1327L13.2906 6.62695C13.4393 6.77562 13.5126 6.94804 13.5106 7.1442C13.5088 7.34037 13.4303 7.5167 13.2751 7.6732C13.1199 7.8167 12.9443 7.89104 12.7481 7.8962C12.5519 7.9012 12.3763 7.8262 12.2213 7.6712L9.91359 5.36345V11.9037C9.91359 12.1135 9.84167 12.2894 9.69784 12.4312C9.554 12.5732 9.37584 12.6442 9.16334 12.6442ZM14.8448 21.1135C14.7252 21.1135 14.6115 21.094 14.5038 21.0552C14.3962 21.0165 14.2962 20.9507 14.2038 20.8577L10.7096 17.3635C10.5609 17.2146 10.4876 17.0422 10.4896 16.8462C10.4914 16.65 10.5699 16.4737 10.7251 16.3172C10.8803 16.1737 11.0559 16.0994 11.2521 16.0942C11.4483 16.089 11.6238 16.164 11.7788 16.3192L14.0866 18.627V12.0865C14.0866 11.8768 14.1585 11.701 14.3023 11.559C14.4462 11.4171 14.6243 11.3462 14.8368 11.3462C15.0495 11.3462 15.2277 11.418 15.3713 11.5617C15.5148 11.7055 15.5866 11.8837 15.5866 12.0962V18.627L17.9038 16.3095C18.0392 16.1711 18.2083 16.102 18.4111 16.102C18.6139 16.102 18.7929 16.1737 18.9481 16.3172C19.1033 16.4737 19.1808 16.6525 19.1808 16.8537C19.1808 17.055 19.1033 17.2333 18.9481 17.3885L15.4788 20.8577C15.3853 20.9512 15.2863 21.0172 15.1816 21.0557C15.0768 21.0942 14.9645 21.1135 14.8448 21.1135Z" fill="#273540"/>
</svg>
