<svg xmlns="http://www.w3.org/2000/svg" viewBox="0 0 24 24"><g transform="matrix(0.010416666666666666 0 0 0.010416666666666666 2 2)"><path d="m0 524.664 878.039 812.43 592.454-557.236c48.603 25.014 101.924 40.484 158.207 43.007 5.815.22 11.41.33 17.225.33 38.29 0 74.606-7.132 109.495-17.555v857.633l-424.812-491.847-82.943 71.643 442.804 512.692H64.951l442.804-512.692-82.943-71.643L0 1663.273V524.663ZM1278.977 329.56c-8.777 29.622-15.47 60.232-16.786 92.598-4.608 102.473 30.939 200.557 100.278 276.26 5.376 5.924 11.85 10.312 17.554 15.798l-502.598 472.866L.044 375.091V329.56ZM1645.552 165c4.06 0 8.229.11 12.398.22 151.295 6.802 268.47 134.838 261.777 286.243-6.583 147.126-127.926 262.106-273.736 262.106-4.06 0-8.338-.11-12.507-.33-151.295-6.692-268.47-134.838-261.667-286.243C1378.29 279.87 1499.743 165 1645.552 165Z" fill-rule="evenodd"/></g>
</svg>