<svg width="24" height="24" viewBox="0 0 24 24" fill="none" xmlns="http://www.w3.org/2000/svg">
<path d="M20.0692 7.32503L15.6442 11.725C15.5057 11.8635 15.3342 11.9369 15.1297 11.9453C14.9252 11.9536 14.7454 11.8802 14.5902 11.725C14.4454 11.5802 14.373 11.4045 14.373 11.198C14.373 10.9917 14.4454 10.8161 14.5902 10.6713L16.498 8.76353L15.2365 7.50203L13.3287 9.40978C13.1904 9.54811 13.0164 9.61894 12.8067 9.62228C12.5971 9.62544 12.4198 9.55461 12.275 9.40978C12.1302 9.26478 12.0593 9.08911 12.0625 8.88278C12.0657 8.67628 12.1365 8.50061 12.275 8.35578L16.6905 3.93078C16.8392 3.78211 17.0055 3.67319 17.1895 3.60403C17.3735 3.53469 17.5667 3.50003 17.7692 3.50003C17.9654 3.50003 18.158 3.53561 18.347 3.60678C18.5362 3.67794 18.7032 3.79111 18.848 3.94628L20.0692 5.18278C20.2244 5.32761 20.335 5.49461 20.401 5.68378C20.467 5.87278 20.5 6.06344 20.5 6.25578C20.5 6.45194 20.4653 6.64203 20.396 6.82603C20.3268 7.01003 20.2179 7.17636 20.0692 7.32503ZM5 19H6.2615L11.5692 13.6923L10.9462 13.0538L10.3077 12.4308L5 17.7385V19ZM19.2537 21.3615L12.6385 14.771L7.4115 19.9828C7.24733 20.1468 7.05408 20.274 6.83175 20.3645C6.60925 20.4549 6.3775 20.5 6.1365 20.5H4.404C4.14616 20.5 3.93108 20.4138 3.75875 20.2413C3.58625 20.0689 3.5 19.8539 3.5 19.596V17.8788C3.5 17.6378 3.54516 17.4061 3.6355 17.1838C3.726 16.9613 3.85325 16.768 4.01725 16.604L9.24425 11.377L2.6385 4.74628C2.48983 4.59744 2.41641 4.42336 2.41825 4.22403C2.42025 4.02469 2.49883 3.84744 2.654 3.69228C2.809 3.53728 2.98716 3.45978 3.1885 3.45978C3.38983 3.45978 3.568 3.53728 3.723 3.69228L20.323 20.2923C20.4718 20.4409 20.5452 20.6175 20.5432 20.822C20.5412 21.0265 20.4627 21.2064 20.3077 21.3615C20.1526 21.5167 19.9769 21.5943 19.7807 21.5943C19.5846 21.5943 19.4089 21.5167 19.2537 21.3615ZM10.9462 13.0538L10.3077 12.4308L11.5692 13.6923L10.9462 13.0538Z" fill="#273540"/>
</svg>
