<svg width="24" height="24" viewBox="0 0 24 24" fill="none" xmlns="http://www.w3.org/2000/svg">
<path d="M12.0017 21.5C10.6877 21.5 9.45267 21.2507 8.2965 20.752C7.14033 20.2533 6.13467 19.5766 5.2795 18.7218C4.42433 17.8669 3.74725 16.8617 3.24825 15.706C2.74942 14.5503 2.5 13.3156 2.5 12.0017C2.5 10.6877 2.74933 9.45267 3.248 8.2965C3.74667 7.14033 4.42342 6.13467 5.27825 5.2795C6.13308 4.42433 7.13833 3.74725 8.294 3.24825C9.44967 2.74942 10.6844 2.5 11.9983 2.5C13.3123 2.5 14.5473 2.74933 15.7035 3.248C16.8597 3.74667 17.8653 4.42342 18.7205 5.27825C19.5757 6.13308 20.2528 7.13833 20.7518 8.294C21.2506 9.44967 21.5 10.6844 21.5 11.9983C21.5 13.3123 21.2507 14.5473 20.752 15.7035C20.2533 16.8597 19.5766 17.8653 18.7218 18.7205C17.8669 19.5757 16.8617 20.2528 15.706 20.7518C14.5503 21.2506 13.3156 21.5 12.0017 21.5ZM12 20C14.2333 20 16.125 19.225 17.675 17.675C19.225 16.125 20 14.2333 20 12C20 9.76667 19.225 7.875 17.675 6.325C16.125 4.775 14.2333 4 12 4C9.76667 4 7.875 4.775 6.325 6.325C4.775 7.875 4 9.76667 4 12C4 14.2333 4.775 16.125 6.325 17.675C7.875 19.225 9.76667 20 12 20ZM10 16.75H12.9423C13.4474 16.75 13.875 16.575 14.225 16.225C14.575 15.875 14.75 15.4474 14.75 14.9423V13.3652C14.75 12.9513 14.6276 12.625 14.3828 12.3865C14.1377 12.148 13.8435 12.0192 13.5 12C13.8435 11.9808 14.1377 11.852 14.3828 11.6135C14.6276 11.375 14.75 11.0488 14.75 10.6348V9.05775C14.75 8.55258 14.575 8.125 14.225 7.775C13.875 7.425 13.4474 7.25 12.9423 7.25H10C9.7875 7.25 9.60942 7.32192 9.46575 7.46575C9.32192 7.60958 9.25 7.78775 9.25 8.00025C9.25 8.21292 9.32192 8.391 9.46575 8.5345C9.60942 8.67817 9.7875 8.75 10 8.75H12.9423C13.0321 8.75 13.1058 8.77883 13.1635 8.8365C13.2212 8.89417 13.25 8.96792 13.25 9.05775V10.9423C13.25 11.0321 13.2212 11.1058 13.1635 11.1635C13.1058 11.2212 13.0321 11.25 12.9423 11.25H11.8077C11.5953 11.25 11.4171 11.3219 11.2732 11.4658C11.1296 11.6096 11.0577 11.7878 11.0577 12.0003C11.0577 12.2129 11.1296 12.391 11.2732 12.5345C11.4171 12.6782 11.5953 12.75 11.8077 12.75H12.9423C13.0321 12.75 13.1058 12.7788 13.1635 12.8365C13.2212 12.8942 13.25 12.9679 13.25 13.0577V14.9423C13.25 15.0321 13.2212 15.1058 13.1635 15.1635C13.1058 15.2212 13.0321 15.25 12.9423 15.25H10C9.7875 15.25 9.60942 15.3219 9.46575 15.4658C9.32192 15.6096 9.25 15.7878 9.25 16.0003C9.25 16.2129 9.32192 16.391 9.46575 16.5345C9.60942 16.6782 9.7875 16.75 10 16.75Z" fill="#273540"/>
</svg>
