<svg width="24" height="24" viewBox="0 0 24 24" fill="none" xmlns="http://www.w3.org/2000/svg">
<path d="M9.52496 17.6443L19.7595 7.4095L18.6905 6.35575L9.50946 15.5213L5.28446 11.2808L4.21546 12.35L9.52496 17.6443ZM8.44621 18.6885L3.17121 13.4135C3.01605 13.2583 2.90388 13.0903 2.83471 12.9095C2.76538 12.7288 2.73071 12.5423 2.73071 12.35C2.73071 12.1577 2.76538 11.9686 2.83471 11.7828C2.90388 11.5968 3.01605 11.4263 3.17121 11.2713L4.20571 10.2365C4.36088 10.0815 4.52888 9.96675 4.70971 9.89225C4.89038 9.81792 5.08196 9.78075 5.28446 9.78075C5.48713 9.78075 5.6788 9.81792 5.85946 9.89225C6.0403 9.96675 6.2083 10.0815 6.36346 10.2365L9.52496 13.3983L17.6212 5.2865C17.766 5.1315 17.9314 5.01934 18.1172 4.95C18.3032 4.88084 18.4923 4.84625 18.6845 4.84625C18.8768 4.84625 19.066 4.88084 19.252 4.95C19.4378 5.01934 19.6083 5.12642 19.7635 5.27125L20.8135 6.30575C20.9685 6.46092 21.0832 6.62892 21.1577 6.80975C21.232 6.99042 21.2692 7.182 21.2692 7.3845C21.2692 7.58717 21.2345 7.77884 21.1652 7.9595C21.096 8.14034 20.9839 8.30834 20.8287 8.4635L10.6037 18.6885C10.4487 18.8435 10.2782 18.9583 10.0922 19.0328C9.90638 19.1071 9.7173 19.1443 9.52496 19.1443C9.33263 19.1443 9.14355 19.1071 8.95771 19.0328C8.77171 18.9583 8.60121 18.8435 8.44621 18.6885Z" fill="#273540"/>
</svg>
