<svg width="24" height="24" viewBox="0 0 24 24" fill="none" xmlns="http://www.w3.org/2000/svg">
<path d="M11.25 13.95V17.6345C11.25 17.8473 11.3218 18.0256 11.4655 18.1693C11.609 18.3128 11.7872 18.3845 12 18.3845C12.2128 18.3845 12.391 18.3128 12.5345 18.1693C12.6782 18.0256 12.75 17.8473 12.75 17.6345V13.95L14.073 15.273C14.1475 15.3473 14.2312 15.4031 14.324 15.4402C14.417 15.4774 14.51 15.4935 14.603 15.4885C14.6958 15.4833 14.7878 15.4622 14.8788 15.425C14.9698 15.3878 15.0525 15.3321 15.127 15.2578C15.2718 15.1026 15.3468 14.9269 15.352 14.7308C15.357 14.5346 15.282 14.3589 15.127 14.2037L12.6328 11.7095C12.5391 11.616 12.4403 11.55 12.3365 11.5115C12.2327 11.473 12.1205 11.4537 12 11.4537C11.8795 11.4537 11.7673 11.473 11.6635 11.5115C11.5597 11.55 11.4609 11.616 11.3672 11.7095L8.873 14.2037C8.72433 14.3526 8.651 14.5267 8.653 14.726C8.65483 14.9253 8.73333 15.1026 8.8885 15.2578C9.04367 15.4026 9.21933 15.4776 9.4155 15.4827C9.6115 15.4878 9.78708 15.4128 9.94225 15.2578L11.25 13.95ZM6.30775 21.5C5.80258 21.5 5.375 21.325 5.025 20.975C4.675 20.625 4.5 20.1974 4.5 19.6923V4.30775C4.5 3.80258 4.675 3.375 5.025 3.025C5.375 2.675 5.80258 2.5 6.30775 2.5H13.502C13.743 2.5 13.9748 2.54683 14.1973 2.6405C14.4196 2.734 14.6128 2.86283 14.777 3.027L18.973 7.223C19.1372 7.38717 19.266 7.58042 19.3595 7.80275C19.4532 8.02525 19.5 8.257 19.5 8.498V19.6923C19.5 20.1974 19.325 20.625 18.975 20.975C18.625 21.325 18.1974 21.5 17.6923 21.5H6.30775ZM13.5 7.596V4H6.30775C6.23075 4 6.16025 4.03208 6.09625 4.09625C6.03208 4.16025 6 4.23075 6 4.30775V19.6923C6 19.7693 6.03208 19.8398 6.09625 19.9038C6.16025 19.9679 6.23075 20 6.30775 20H17.6923C17.7692 20 17.8398 19.9679 17.9038 19.9038C17.9679 19.8398 18 19.7693 18 19.6923V8.5H14.404C14.1462 8.5 13.9311 8.41375 13.7587 8.24125C13.5862 8.06892 13.5 7.85383 13.5 7.596Z" fill="#273540"/>
</svg>
