<svg width="24" height="24" viewBox="0 0 24 24" fill="none" xmlns="http://www.w3.org/2000/svg">
<path d="M5.05775 20.5C4.55258 20.5 4.125 20.325 3.775 19.975C3.425 19.625 3.25 19.1974 3.25 18.6923V5.30775C3.25 4.80258 3.425 4.375 3.775 4.025C4.125 3.675 4.55258 3.5 5.05775 3.5H13.4615C13.674 3.5 13.8522 3.57192 13.996 3.71575C14.1397 3.85958 14.2115 4.03775 14.2115 4.25025C14.2115 4.46292 14.1397 4.641 13.996 4.7845C13.8522 4.92817 13.674 5 13.4615 5H5.05775C4.98075 5 4.91025 5.03208 4.84625 5.09625C4.78208 5.16025 4.75 5.23075 4.75 5.30775V18.6923C4.75 18.7692 4.78208 18.8398 4.84625 18.9038C4.91025 18.9679 4.98075 19 5.05775 19H18.4423C18.5192 19 18.5898 18.9679 18.6538 18.9038C18.7179 18.8398 18.75 18.7692 18.75 18.6923V10.2885C18.75 10.076 18.8219 9.89783 18.9658 9.754C19.1096 9.61033 19.2878 9.5385 19.5002 9.5385C19.7129 9.5385 19.891 9.61033 20.0345 9.754C20.1782 9.89783 20.25 10.076 20.25 10.2885V18.6923C20.25 19.1974 20.075 19.625 19.725 19.975C19.375 20.325 18.9474 20.5 18.4423 20.5H5.05775ZM8.75 16.75C8.5375 16.75 8.35933 16.6781 8.2155 16.5343C8.07183 16.3904 8 16.2122 8 15.9998C8 15.7871 8.07183 15.609 8.2155 15.4655C8.35933 15.3218 8.5375 15.25 8.75 15.25H14.75C14.9625 15.25 15.1406 15.3219 15.2843 15.4658C15.4281 15.6096 15.5 15.7878 15.5 16.0003C15.5 16.2129 15.4281 16.391 15.2843 16.5345C15.1406 16.6782 14.9625 16.75 14.75 16.75H8.75ZM8.75 13.75C8.5375 13.75 8.35933 13.6781 8.2155 13.5343C8.07183 13.3904 8 13.2122 8 12.9998C8 12.7871 8.07183 12.609 8.2155 12.4655C8.35933 12.3218 8.5375 12.25 8.75 12.25H14.75C14.9625 12.25 15.1406 12.3219 15.2843 12.4658C15.4281 12.6096 15.5 12.7878 15.5 13.0003C15.5 13.2129 15.4281 13.391 15.2843 13.5345C15.1406 13.6782 14.9625 13.75 14.75 13.75H8.75ZM8.75 10.75C8.5375 10.75 8.35933 10.6781 8.2155 10.5342C8.07183 10.3904 8 10.2122 8 9.99975C8 9.78708 8.07183 9.609 8.2155 9.4655C8.35933 9.32183 8.5375 9.25 8.75 9.25H14.75C14.9625 9.25 15.1406 9.32192 15.2843 9.46575C15.4281 9.60958 15.5 9.78775 15.5 10.0003C15.5 10.2129 15.4281 10.391 15.2843 10.5345C15.1406 10.6782 14.9625 10.75 14.75 10.75H8.75ZM17.9998 8.5C17.7871 8.5 17.609 8.42808 17.4655 8.28425C17.3218 8.14058 17.25 7.9625 17.25 7.75V6.5H16C15.7875 6.5 15.6094 6.42808 15.4658 6.28425C15.3219 6.14042 15.25 5.96225 15.25 5.74975C15.25 5.53708 15.3219 5.359 15.4658 5.2155C15.6094 5.07183 15.7875 5 16 5H17.25V3.75C17.25 3.5375 17.3219 3.35933 17.4658 3.2155C17.6096 3.07183 17.7878 3 18.0003 3C18.2129 3 18.391 3.07183 18.5345 3.2155C18.6782 3.35933 18.75 3.5375 18.75 3.75V5H20C20.2125 5 20.3906 5.07192 20.5343 5.21575C20.6781 5.35958 20.75 5.53775 20.75 5.75025C20.75 5.96292 20.6781 6.141 20.5343 6.2845C20.3906 6.42817 20.2125 6.5 20 6.5H18.75V7.75C18.75 7.9625 18.6781 8.14058 18.5343 8.28425C18.3904 8.42808 18.2122 8.5 17.9998 8.5Z" fill="#273540"/>
</svg>
