<svg xmlns="http://www.w3.org/2000/svg" viewBox="0 0 24 24"><g><path fill-rule="evenodd" stroke="none" stroke-width="1" d="M1129.412 1637.647c0 93.448-75.964 169.412-169.412 169.412-93.448 0-169.412-75.964-169.412-169.412 0-93.447 75.964-169.412 169.412-169.412 93.448 0 169.412 75.965 169.412 169.412zm0-677.647c0 93.448-75.964 169.412-169.412 169.412-93.448 0-169.412-75.964-169.412-169.412 0-93.448 75.964-169.412 169.412-169.412 93.448 0 169.412 75.964 169.412 169.412zm0-677.647c0 93.447-75.964 169.412-169.412 169.412-93.448 0-169.412-75.965-169.412-169.412 0-93.448 75.964-169.412 169.412-169.412 93.448 0 169.412 75.964 169.412 169.412z" transform="matrix(0.010416666666666666 0 0 0.010416666666666666 2 2)"/></g></svg>