<svg xmlns="http://www.w3.org/2000/svg" viewBox="0 0 24 24"><g transform="matrix(0.010416666666666666 0 0 0.010416666666666666 2 2)"><path d="M1290 1083.396c-114.12 113.16-253.68 269.88-332.04 466.8-76.92-199.08-215.16-354.84-327.96-466.92-141.36-140.04-210-279.48-210-426.48 0-295.92 240.84-536.76 543.12-536.76 296.04 0 536.88 240.84 536.88 536.76 0 147-68.64 286.44-210 426.6M956.88.036C594.72.036 300 294.636 300 656.796c0 180.6 80.28 348 245.4 511.68 239.76 237.84 351.48 457.56 351.48 691.56v60h120v-60c0-232.92 110.4-446.16 357.72-691.44 165.12-163.8 245.4-331.2 245.4-511.8C1620 294.636 1325.28.036 956.88.036" fill-rule="evenodd"/></g>
</svg>