<svg width="24" height="24" viewBox="0 0 24 24" fill="none" xmlns="http://www.w3.org/2000/svg">
<path d="M17.1923 21.5C15.9436 21.5 14.8814 21.0622 14.0058 20.1865C13.1301 19.3108 12.6923 18.2487 12.6923 17C12.6923 15.7513 13.1301 14.6892 14.0058 13.8135C14.8814 12.9378 15.9436 12.5 17.1923 12.5C18.4411 12.5 19.5033 12.9378 20.3788 13.8135C21.2544 14.6892 21.6923 15.7513 21.6923 17C21.6923 18.2487 21.2544 19.3108 20.3788 20.1865C19.5033 21.0622 18.4411 21.5 17.1923 21.5ZM17.6348 16.8172V14.5C17.6348 14.382 17.5905 14.2788 17.502 14.1905C17.4135 14.102 17.3103 14.0577 17.1923 14.0577C17.0744 14.0577 16.9713 14.102 16.8828 14.1905C16.7943 14.2788 16.75 14.382 16.75 14.5V16.8037C16.75 16.9216 16.7718 17.0357 16.8155 17.146C16.859 17.2563 16.9276 17.3583 17.0213 17.452L18.5463 18.977C18.6334 19.0642 18.7357 19.1093 18.853 19.1125C18.9702 19.1157 19.0756 19.0705 19.1693 18.977C19.2629 18.8833 19.3098 18.7795 19.3098 18.6655C19.3098 18.5513 19.2629 18.4474 19.1693 18.3537L17.6348 16.8172ZM5.30775 20.5C4.81058 20.5 4.385 20.323 4.031 19.969C3.677 19.615 3.5 19.1894 3.5 18.6922V5.30774C3.5 4.81057 3.677 4.38499 4.031 4.03099C4.385 3.67699 4.81058 3.49999 5.30775 3.49999H9.7135C9.852 3.01282 10.135 2.60899 10.5625 2.28849C10.99 1.96799 11.4692 1.80774 12 1.80774C12.5513 1.80774 13.0382 1.96799 13.4605 2.28849C13.883 2.60899 14.1635 3.01282 14.302 3.49999H18.6923C19.1894 3.49999 19.615 3.67699 19.969 4.03099C20.323 4.38499 20.5 4.81057 20.5 5.30774V9.71149C20.5 9.92399 20.4281 10.1022 20.2843 10.246C20.1404 10.3897 19.9623 10.4615 19.7498 10.4615C19.5371 10.4615 19.359 10.3897 19.2155 10.246C19.0718 10.1022 19 9.92399 19 9.71149V5.30774C19 5.23074 18.9679 5.16024 18.9038 5.09624C18.8398 5.03207 18.7693 4.99999 18.6923 4.99999H16.5V6.71149C16.5 6.96766 16.4138 7.18232 16.2413 7.35549C16.0688 7.52866 15.855 7.61524 15.6 7.61524H8.39975C8.14475 7.61524 7.93108 7.52866 7.75875 7.35549C7.58625 7.18232 7.5 6.96766 7.5 6.71149V4.99999H5.30775C5.23075 4.99999 5.16025 5.03207 5.09625 5.09624C5.03208 5.16024 5 5.23074 5 5.30774V18.6922C5 18.7821 5.02883 18.8558 5.0865 18.9135C5.14417 18.9712 5.21792 19 5.30775 19H10.4713C10.6838 19 10.8618 19.0719 11.0055 19.2157C11.1493 19.3596 11.2213 19.5377 11.2213 19.7502C11.2213 19.9629 11.1493 20.141 11.0055 20.2845C10.8618 20.4282 10.6838 20.5 10.4713 20.5H5.30775ZM12.0018 5.11549C12.2583 5.11549 12.4728 5.02866 12.6453 4.85499C12.8176 4.68149 12.9038 4.46641 12.9038 4.20974C12.9038 3.95324 12.817 3.73874 12.6435 3.56624C12.47 3.39391 12.2549 3.30774 11.9983 3.30774C11.7418 3.30774 11.5273 3.39449 11.3548 3.56799C11.1824 3.74166 11.0963 3.95674 11.0963 4.21324C11.0963 4.46974 11.183 4.68424 11.3565 4.85674C11.53 5.02924 11.7451 5.11549 12.0018 5.11549Z" fill="#273540"/>
</svg>
