<svg width="24" height="24" viewBox="0 0 24 24" fill="none" xmlns="http://www.w3.org/2000/svg">
<path d="M8 16.75H16C16.2125 16.75 16.3906 16.6781 16.5343 16.5343C16.6781 16.3904 16.75 16.2122 16.75 15.9998C16.75 15.7871 16.6781 15.609 16.5343 15.4655C16.3906 15.3218 16.2125 15.25 16 15.25H8C7.7875 15.25 7.60942 15.3219 7.46575 15.4658C7.32192 15.6096 7.25 15.7878 7.25 16.0003C7.25 16.2129 7.32192 16.391 7.46575 16.5345C7.60942 16.6782 7.7875 16.75 8 16.75ZM11.25 10.7655L9.927 9.45775C9.7885 9.31925 9.617 9.24842 9.4125 9.24525C9.208 9.24208 9.0275 9.31875 8.871 9.47525C8.7275 9.61875 8.65575 9.79367 8.65575 10C8.65575 10.2063 8.72817 10.382 8.873 10.527L11.3673 13.0213C11.5481 13.2019 11.759 13.2923 12 13.2923C12.241 13.2923 12.4519 13.2019 12.6328 13.0213L15.127 10.527C15.2653 10.3885 15.3387 10.217 15.347 10.0125C15.3553 9.808 15.2812 9.6275 15.1248 9.471C14.9812 9.3275 14.8089 9.25317 14.6077 9.248C14.4064 9.243 14.2282 9.31292 14.073 9.45775L12.75 10.7655V7C12.75 6.7875 12.6781 6.60942 12.5343 6.46575C12.3904 6.32192 12.2122 6.25 11.9998 6.25C11.7871 6.25 11.609 6.32192 11.4655 6.46575C11.3218 6.60942 11.25 6.7875 11.25 7V10.7655ZM12.0017 21.5C10.6877 21.5 9.45267 21.2507 8.2965 20.752C7.14033 20.2533 6.13467 19.5766 5.2795 18.7218C4.42433 17.8669 3.74725 16.8617 3.24825 15.706C2.74942 14.5503 2.5 13.3156 2.5 12.0017C2.5 10.6877 2.74933 9.45267 3.248 8.2965C3.74667 7.14033 4.42342 6.13467 5.27825 5.2795C6.13308 4.42433 7.13833 3.74725 8.294 3.24825C9.44967 2.74942 10.6844 2.5 11.9983 2.5C13.3123 2.5 14.5473 2.74933 15.7035 3.248C16.8597 3.74667 17.8653 4.42342 18.7205 5.27825C19.5757 6.13308 20.2528 7.13833 20.7518 8.294C21.2506 9.44967 21.5 10.6844 21.5 11.9983C21.5 13.3123 21.2507 14.5473 20.752 15.7035C20.2533 16.8597 19.5766 17.8653 18.7218 18.7205C17.8669 19.5757 16.8617 20.2528 15.706 20.7518C14.5503 21.2506 13.3156 21.5 12.0017 21.5ZM12 20C14.2333 20 16.125 19.225 17.675 17.675C19.225 16.125 20 14.2333 20 12C20 9.76667 19.225 7.875 17.675 6.325C16.125 4.775 14.2333 4 12 4C9.76667 4 7.875 4.775 6.325 6.325C4.775 7.875 4 9.76667 4 12C4 14.2333 4.775 16.125 6.325 17.675C7.875 19.225 9.76667 20 12 20Z" fill="#273540"/>
</svg>
