<svg width="64" height="64" viewBox="0 0 64 64" fill="none" xmlns="http://www.w3.org/2000/svg">
<path d="M9.2826 31.9359C9.2826 27.2631 5.79794 23.3297 1.16602 22.7617C-0.388674 28.7743 -0.388674 35.0869 1.16602 41.1102C5.79794 40.5421 9.2826 36.6088 9.2826 31.9359Z" fill="#273540"/>
<path d="M14.6545 29.0312C13.0466 29.0312 11.7495 30.3278 11.7495 31.9351C11.7495 33.5423 13.0466 34.8389 14.6545 34.8389C16.2625 34.8389 17.5595 33.5423 17.5595 31.9351C17.5595 30.3278 16.2625 29.0312 14.6545 29.0312Z" fill="#273540"/>
<path d="M54.7168 31.9359C54.7168 36.6088 58.2015 40.5421 62.8334 41.1102C64.3881 35.0976 64.3881 28.785 62.8334 22.7617C58.2015 23.3297 54.7168 27.2738 54.7168 31.9359Z" fill="#273540"/>
<path d="M49.3113 29.0312C47.7033 29.0312 46.4062 30.3278 46.4062 31.9243C46.4062 33.5209 47.7033 34.8281 49.3005 34.8281C50.8978 34.8281 52.2056 33.5316 52.2056 31.9351C52.2056 30.3385 50.9085 29.0312 49.3113 29.0312Z" fill="#273540"/>
<path d="M31.9303 54.7212C27.2658 54.7212 23.3305 58.2044 22.7515 62.8344C28.767 64.3884 35.0829 64.3884 41.1092 62.8344C40.5408 58.2044 36.5948 54.7212 31.9303 54.7212Z" fill="#273540"/>
<path d="M31.9402 46.4365C30.3322 46.4365 29.0352 47.7331 29.0352 49.3296C29.0352 50.9262 30.3322 52.2334 31.9295 52.2334C33.5267 52.2334 34.8345 50.9369 34.8345 49.3403C34.8345 47.7438 33.5374 46.4365 31.9402 46.4365Z" fill="#273540"/>
<path d="M31.9411 9.27872C36.6055 9.27872 40.5409 5.79552 41.1199 1.16553C35.1043 -0.388511 28.7885 -0.388511 22.7622 1.16553C23.3412 5.79552 27.2766 9.27872 31.9411 9.27872Z" fill="#273540"/>
<path d="M31.9402 11.7651C30.3322 11.7651 29.0352 13.0617 29.0352 14.6582C29.0352 16.2548 30.3322 17.562 31.9295 17.562C33.5267 17.562 34.8345 16.2655 34.8345 14.6689C34.8345 13.0724 33.5374 11.7759 31.9402 11.7759" fill="#273540"/>
<path d="M48.0256 48.0121C44.7337 51.3131 44.412 56.5539 47.275 60.2301C52.6258 57.0684 57.0972 52.6099 60.2498 47.2618C56.5718 44.4002 51.3283 44.7218 48.0256 48.0121Z" fill="#273540"/>
<path d="M42.1701 42.1602C41.0338 43.296 41.0338 45.1283 42.1701 46.2641C43.3064 47.3999 45.1394 47.3999 46.2757 46.2641C47.412 45.1283 47.412 43.296 46.2757 42.1602C45.1394 41.0351 43.3064 41.0351 42.1701 42.1602Z" fill="#273540"/>
<path d="M15.899 15.9021C19.2016 12.6011 19.5233 7.37092 16.6496 3.68408C11.2988 6.83504 6.82735 11.3043 3.6748 16.6523C7.35278 19.5246 12.5963 19.1924 15.899 15.9021Z" fill="#273540"/>
<path d="M17.6471 17.649C16.5109 18.7848 16.5109 20.6171 17.6471 21.7529C18.7834 22.8887 20.6165 22.8887 21.7527 21.7529C22.889 20.6171 22.889 18.7848 21.7527 17.649C20.6165 16.5239 18.7834 16.5239 17.6471 17.649Z" fill="#273540"/>
<path d="M48.0041 15.8699C51.3068 19.1602 56.5503 19.4817 60.2283 16.6094C57.065 11.2613 52.6043 6.80282 47.2535 3.65186C44.3905 7.32798 44.7122 12.5689 48.0041 15.8699Z" fill="#273540"/>
<path d="M46.2545 21.7208C47.3908 20.585 47.3801 18.7527 46.2545 17.6276C45.1182 16.4918 43.2852 16.5025 42.1596 17.6276C41.034 18.7634 41.034 20.5957 42.1596 21.7208C43.2959 22.8566 45.1289 22.8566 46.2545 21.7208Z" fill="#273540"/>
<path d="M15.8775 47.9798C12.5748 44.6895 7.34202 44.368 3.65332 47.2296C6.80587 52.5777 11.2773 57.0469 16.6281 60.1978C19.4911 56.5217 19.1694 51.2808 15.8775 47.9798Z" fill="#273540"/>
<path d="M17.6149 42.128C16.4786 43.2638 16.4786 45.0961 17.6149 46.2319C18.7512 47.3677 20.5842 47.3677 21.7205 46.2319C22.8568 45.0961 22.8568 43.2638 21.7205 42.128C20.5842 41.0029 18.7512 41.0029 17.6149 42.128Z" fill="#273540"/>
</svg>
