<svg width="178" height="140" viewBox="0 0 178 140" fill="none" xmlns="http://www.w3.org/2000/svg">
<g clip-path="url(#clip0_10323_42270)">
<path fill-rule="evenodd" clip-rule="evenodd" d="M80.0423 1.26301C82.8715 0.444207 85.862 0.00537109 88.9551 0.00537109C92.0481 0.00537109 95.0387 0.444207 97.8679 1.26301C97.2561 5.63821 93.4988 9.00537 88.9551 9.00537C84.4113 9.00537 80.654 5.63821 80.0423 1.26301ZM119.697 23.0925C120.516 25.9217 120.955 28.9123 120.955 32.0054C120.955 35.0984 120.516 38.089 119.697 40.9182C115.322 40.3064 111.955 36.5491 111.955 32.0054C111.955 27.4616 115.322 23.7043 119.697 23.0925ZM116.994 47.4397C114.07 52.7389 109.689 57.1207 104.389 60.0439C101.73 56.5177 102.006 51.4812 105.219 48.2688C108.431 45.0565 113.467 44.7801 116.994 47.4397ZM97.8679 62.7477C95.0387 63.5665 92.0481 64.0054 88.9551 64.0054C85.862 64.0054 82.8715 63.5665 80.0423 62.7477C80.654 58.3725 84.4113 55.0054 88.9551 55.0054C93.4988 55.0054 97.2561 58.3725 97.8679 62.7477ZM73.5207 60.0439C68.2216 57.1207 63.8398 52.7389 60.9165 47.4397C64.4428 44.7801 69.4793 45.0565 72.6916 48.2688C75.904 51.4812 76.1803 56.5177 73.5207 60.0439ZM58.2127 40.9182C57.3939 38.089 56.9551 35.0984 56.9551 32.0054C56.9551 28.9123 57.3939 25.9217 58.2127 23.0925C62.5879 23.7043 65.9551 27.4616 65.9551 32.0054C65.9551 36.5491 62.5879 40.3064 58.2127 40.9182ZM60.9165 16.571C63.8398 11.2719 68.2216 6.89006 73.5207 3.96683C76.1803 7.49305 75.904 12.5296 72.6916 15.7419C69.4793 18.9543 64.4428 19.2306 60.9165 16.571ZM88.9551 18.0054C87.2982 18.0054 85.9551 16.6622 85.9551 15.0054C85.9551 13.3485 87.2982 12.0054 88.9551 12.0054C90.6119 12.0054 91.9551 13.3485 91.9551 15.0054C91.9551 16.6622 90.6119 18.0054 88.9551 18.0054ZM102.955 32.0054C102.955 30.3485 104.298 29.0054 105.955 29.0054C107.612 29.0054 108.955 30.3485 108.955 32.0054C108.955 33.6622 107.612 35.0054 105.955 35.0054C104.298 35.0054 102.955 33.6622 102.955 32.0054ZM98.8546 41.9049C100.026 40.7333 101.926 40.7333 103.097 41.9049C104.269 43.0764 104.269 44.9759 103.097 46.1475C101.926 47.3191 100.026 47.3191 98.8546 46.1475C97.683 44.9759 97.683 43.0764 98.8546 41.9049ZM88.9551 46.0054C90.6119 46.0054 91.9551 47.3485 91.9551 49.0054C91.9551 50.6622 90.6119 52.0054 88.9551 52.0054C87.2982 52.0054 85.9551 50.6622 85.9551 49.0054C85.9551 47.3485 87.2982 46.0054 88.9551 46.0054ZM79.0556 41.9049C80.2272 43.0764 80.2272 44.9759 79.0556 46.1475C77.884 47.3191 75.9845 47.3191 74.8129 46.1475C73.6414 44.9759 73.6414 43.0764 74.8129 41.9049C75.9845 40.7333 77.884 40.7333 79.0556 41.9049ZM74.9551 32.0054C74.9551 33.6622 73.6119 35.0054 71.9551 35.0054C70.2982 35.0054 68.9551 33.6622 68.9551 32.0054C68.9551 30.3485 70.2982 29.0054 71.9551 29.0054C73.6119 29.0054 74.9551 30.3485 74.9551 32.0054ZM79.0556 22.1059C77.884 23.2774 75.9845 23.2774 74.8129 22.1059C73.6414 20.9343 73.6414 19.0348 74.8129 17.8632C75.9845 16.6917 77.884 16.6917 79.0556 17.8632C80.2272 19.0348 80.2272 20.9343 79.0556 22.1059Z" fill="#6B80EA"/>
<path d="M107.429 1.45605C114.098 1.45605 119.504 6.86182 119.504 13.5303C119.504 20.1989 114.098 25.6055 107.429 25.6055C100.761 25.6052 95.355 20.1988 95.355 13.5303C95.3552 6.86197 100.761 1.4563 107.429 1.45605ZM107.472 8.36816C104.258 8.36822 101.32 10.266 99.8013 13.3203L99.7065 13.5117L99.8013 13.7031C101.32 16.7575 104.258 18.6552 107.472 18.6553C110.686 18.6553 113.625 16.7575 115.143 13.7031L115.238 13.5117L115.143 13.3203C113.625 10.266 110.686 8.36816 107.472 8.36816ZM107.472 10.9404C108.89 10.9404 110.044 12.0938 110.044 13.5117C110.044 14.9297 108.89 16.084 107.472 16.084C106.054 16.0839 104.901 14.9296 104.901 13.5117C104.901 12.0939 106.054 10.9405 107.472 10.9404Z" fill="#6B80EA"/>
<path d="M0 97.9673C0 85.176 9.57478 77.4775 19.7714 77.4775C29.9681 77.4775 35.6615 83.3425 37.4413 90.2153L31.1797 92.3168C30.0217 87.5562 26.3655 83.7285 19.7714 83.7285C13.1774 83.7285 6.80849 88.4355 6.80849 97.9566C6.80849 107.478 13.1238 112.024 19.825 112.024C26.5263 112.024 30.1825 107.81 31.5121 103.382L37.6022 105.376C35.833 112.024 29.8501 118.393 19.825 118.393C9.25312 118.393 0 110.748 0 97.9566V97.9673Z" fill="white"/>
<path d="M52.5058 118.285C44.5822 118.285 39.4893 112.024 39.4893 103.939C39.4893 95.8549 44.6358 89.8184 52.3879 89.8184C57.1484 89.8184 59.5823 92.3059 60.3114 94.1393V90.5903H66.5731V112.635C66.5731 114.854 66.7983 117.009 66.8519 117.567H60.7082C60.6009 116.956 60.4294 115.519 60.4294 113.686C59.2071 116.291 56.3872 118.285 52.5058 118.285ZM53.2242 112.753C57.4379 112.753 60.3651 109.15 60.3651 103.95C60.3651 98.7498 57.4808 95.426 53.2242 95.426C48.9675 95.426 45.9118 98.7498 45.9118 103.95C45.9118 109.15 48.7316 112.753 53.2242 112.753Z" fill="white"/>
<path d="M79.0963 117.567H72.6738V90.6011H78.9355V94.2037C80.7046 91.105 83.9212 89.8291 86.9127 89.8291C93.5067 89.8291 96.659 94.5897 96.659 100.519V117.578H90.2365V101.634C90.2365 98.3102 88.7462 95.6512 84.6932 95.6512C81.037 95.6512 79.0963 98.4711 79.0963 102.02V117.578V117.567Z" fill="white"/>
<path d="M115.562 117.567H109.14L98.1709 90.6011H105.258L112.399 109.869L119.379 90.6011H126.134L115.562 117.567Z" fill="white"/>
<path d="M139.15 118.285C131.227 118.285 126.134 112.024 126.134 103.939C126.134 95.8549 131.28 89.8184 139.032 89.8184C143.793 89.8184 146.227 92.3059 146.956 94.1393V90.5903H153.218V112.635C153.218 114.854 153.443 117.009 153.496 117.567H147.353C147.245 116.956 147.074 115.519 147.074 113.686C145.852 116.291 143.032 118.285 139.15 118.285ZM139.869 112.753C144.082 112.753 147.01 109.15 147.01 103.95C147.01 98.7498 144.125 95.426 139.869 95.426C135.612 95.426 132.556 98.7498 132.556 103.95C132.556 109.15 135.376 112.753 139.869 112.753Z" fill="white"/>
<path d="M162.181 108.711C162.407 111.145 164.229 113.311 167.66 113.311C170.319 113.311 171.703 111.874 171.703 110.212C171.703 108.775 170.705 107.66 168.55 107.221L164.562 106.331C159.801 105.28 157.303 102.181 157.303 98.4714C157.303 93.7645 161.624 89.7759 167.21 89.7759C174.737 89.7759 177.181 94.6544 177.621 97.3027L172.196 98.8574C171.971 97.3027 170.813 94.8152 167.21 94.8152C164.937 94.8152 163.329 96.252 163.329 97.9139C163.329 99.3507 164.379 100.401 166.041 100.734L170.137 101.57C175.23 102.674 177.889 105.784 177.889 109.762C177.889 113.74 174.565 118.404 167.703 118.404C159.898 118.404 156.906 113.311 156.574 110.266L162.171 108.711H162.181Z" fill="white"/>
<path d="M47.3107 126.904C47.3107 127.645 47.1635 128.268 46.8691 128.776C46.5747 129.283 46.1779 129.692 45.6786 130.003C45.1794 130.313 44.6034 130.54 43.9506 130.683C43.2978 130.826 42.6194 130.898 41.9153 130.898H40.2833V135.68H37V123H41.9921C42.7346 123 43.429 123.069 44.0754 123.206C44.7218 123.343 45.285 123.564 45.7651 123.869C46.2451 124.173 46.6227 124.573 46.8979 125.069C47.1731 125.564 47.3107 126.176 47.3107 126.904ZM44.0274 126.922C44.0274 126.624 43.9634 126.379 43.8354 126.188C43.7074 125.997 43.5346 125.848 43.317 125.74C43.0994 125.633 42.853 125.561 42.5778 125.525C42.3026 125.489 42.0177 125.472 41.7233 125.472H40.2833V128.462H41.6657C41.9729 128.462 42.2674 128.439 42.549 128.391C42.8306 128.343 43.0834 128.259 43.3074 128.14C43.5314 128.021 43.7074 127.862 43.8354 127.665C43.9634 127.468 44.0274 127.221 44.0274 126.922ZM60.5527 135.68L59.4966 133.191H54.2357L53.2373 135.68H49.666L55.3685 123H58.5558L64.2008 135.68H60.5527ZM56.9046 126.385L55.1765 130.737H58.5942L56.9046 126.385ZM75.8107 135.68L72.873 130.647H71.7594V135.68H68.5337V123H73.7179C74.3707 123 75.0075 123.063 75.6283 123.188C76.2491 123.313 76.8059 123.525 77.2988 123.824C77.7916 124.122 78.1852 124.516 78.4796 125.006C78.774 125.495 78.9212 126.104 78.9212 126.833C78.9212 127.692 78.6716 128.415 78.1724 129C77.6732 129.585 76.982 130.003 76.0987 130.253L79.6508 135.68H75.8107ZM75.6763 126.886C75.6763 126.588 75.6091 126.346 75.4747 126.161C75.3403 125.976 75.1675 125.833 74.9563 125.731C74.7451 125.63 74.5083 125.561 74.2459 125.525C73.9835 125.489 73.7307 125.472 73.4875 125.472H71.7402V128.427H73.2954C73.5643 128.427 73.8395 128.406 74.1211 128.364C74.4027 128.322 74.6587 128.248 74.8891 128.14C75.1195 128.033 75.3083 127.877 75.4555 127.674C75.6027 127.471 75.6763 127.209 75.6763 126.886ZM84.4638 135.68V123H93.6032V125.597H87.6319V127.979H93.2768V130.432H87.6319V133.065H93.9488V135.68H84.4638ZM107.959 135.68L102.487 127.388H102.429L102.506 135.68H99.3186V123H103.063L108.516 131.274H108.573L108.496 123H111.684V135.68H107.959ZM123.505 125.615V135.68H120.222V125.615H116.381V123H127.345V125.615H123.505Z" fill="white"/>
</g>
<defs>
<clipPath id="clip0_10323_42270">
<rect width="177.9" height="139.622" fill="white"/>
</clipPath>
</defs>
</svg>
