<svg width="276" height="163" viewBox="0 0 276 163" fill="none" xmlns="http://www.w3.org/2000/svg">
<g clip-path="url(#clip0_3401_48)">
<path fill-rule="evenodd" clip-rule="evenodd" d="M37.325 53.6397C36.8562 52.0392 35.603 50.788 34 50.3199C35.603 49.8518 36.8562 48.6005 37.325 47C37.7938 48.6005 39.047 49.8518 40.65 50.3199C39.047 50.788 37.7938 52.0392 37.325 53.6397Z" fill="#FFC100"/>
<path fill-rule="evenodd" clip-rule="evenodd" d="M188.6 11.994C187.779 9.19309 185.586 7.00346 182.781 6.18428C185.586 5.3651 187.779 3.17546 188.6 0.374512C189.42 3.17546 191.613 5.3651 194.418 6.18428C191.613 7.00346 189.42 9.19309 188.6 11.994Z" fill="#FFD960"/>
<path fill-rule="evenodd" clip-rule="evenodd" d="M10.6679 103.694C9.26145 98.8927 5.50198 95.139 0.692932 93.7347C5.50198 92.3304 9.26145 88.5768 10.6679 83.7751C12.0744 88.5768 15.8339 92.3304 20.6429 93.7347C15.8339 95.139 12.0744 98.8927 10.6679 103.694Z" fill="#FFD960"/>
<path fill-rule="evenodd" clip-rule="evenodd" d="M269.055 63.654C268.118 60.4529 265.611 57.9504 262.405 57.0142C265.611 56.078 268.118 53.5756 269.055 50.3745C269.993 53.5756 272.499 56.078 275.705 57.0142C272.499 57.9504 269.993 60.4529 269.055 63.654Z" fill="#FFD960"/>
<path fill-rule="evenodd" clip-rule="evenodd" d="M199.481 52.8862C200.887 48.0846 204.647 44.3309 209.456 42.9266C204.647 41.5223 200.887 37.7687 199.481 32.967C198.074 37.7687 194.315 41.5223 189.506 42.9266C194.315 44.3309 198.074 48.0846 199.481 52.8862Z" fill="#FFD960"/>
<path fill-rule="evenodd" clip-rule="evenodd" d="M82.5306 161.405C84.4059 155.002 89.4185 149.998 95.8306 148.125C89.4185 146.253 84.4059 141.248 82.5306 134.846C80.6553 141.248 75.6427 146.253 69.2306 148.125C75.6427 149.998 80.6553 155.002 82.5306 161.405Z" fill="#FFD960"/>
<path fill-rule="evenodd" clip-rule="evenodd" d="M169.962 162.644C171.017 159.043 173.836 156.227 177.443 155.174C173.836 154.121 171.017 151.306 169.962 147.704C168.907 151.306 166.087 154.121 162.481 155.174C166.087 156.227 168.907 159.043 169.962 162.644Z" fill="#FFD960"/>
<path fill-rule="evenodd" clip-rule="evenodd" d="M89.9617 22.6437C91.0166 19.0425 93.8362 16.2273 97.443 15.1741C93.8362 14.1208 91.0166 11.3056 89.9617 7.70435C88.9069 11.3056 86.0873 14.1208 82.4805 15.1741C86.0873 16.2273 88.9069 19.0425 89.9617 22.6437Z" fill="#FFD960"/>
<path fill-rule="evenodd" clip-rule="evenodd" d="M238.249 141.065C239.07 138.264 241.263 136.074 244.068 135.255C241.263 134.436 239.07 132.246 238.249 129.445C237.429 132.246 235.236 134.436 232.431 135.255C235.236 136.074 237.429 138.264 238.249 141.065Z" fill="#FFD960"/>
</g>
<g clip-path="url(#clip1_3401_48)">
<path fill-rule="evenodd" clip-rule="evenodd" d="M138.143 97.8979C131.476 98.7313 142.476 97.6063 171.143 94.5229C199.81 91.4396 220.976 90.7313 234.643 92.3979C204.31 88.7313 179.476 86.8979 160.143 86.8979C140.81 86.8979 133.476 90.5646 138.143 97.8979Z" fill="#98040C" stroke="#152633" stroke-width="2"/>
<path fill-rule="evenodd" clip-rule="evenodd" d="M177.707 105.198C156.664 125.82 139.989 120.341 136.862 120.061C147.517 121.208 151.708 107.317 153.078 91.4418C160.976 90.8035 166.53 90.9787 169.741 91.9675C174.557 93.4507 179.668 96.8741 177.707 105.198Z" fill="#2D3B45" stroke="#152633" stroke-width="2"/>
<path fill-rule="evenodd" clip-rule="evenodd" d="M189.717 110.909C167.967 130.784 151.494 124.727 148.378 124.338C158.987 125.856 163.66 112.12 165.583 96.3024C173.498 95.94 179.043 96.309 182.217 97.4092C186.979 99.0596 191.967 102.659 189.717 110.909Z" fill="#2D3B45" stroke="#152633" stroke-width="2"/>
<path fill-rule="evenodd" clip-rule="evenodd" d="M153.143 126.898C167.143 124.398 170.268 117.173 171.143 109.398C172.018 101.623 169.12 96.1632 159.012 91.5884C159.012 99.8979 158.643 117.398 153.143 126.898Z" fill="#EE0612" stroke="#152633" stroke-width="2" stroke-linejoin="round"/>
<path fill-rule="evenodd" clip-rule="evenodd" d="M113.057 118.723C116.031 122.277 120.768 125.398 134.643 127.648C140.176 128.545 146.961 128.333 153.31 126.898C158.268 116.398 160.893 103.273 156.708 90.622C150.443 88.1922 142.847 86.773 134.643 86.773C111.393 86.773 116.318 115.078 113.057 118.723Z" fill="#008EE2" stroke="#152633" stroke-width="2"/>
<path fill-rule="evenodd" clip-rule="evenodd" d="M137.643 127.898C138.255 126.854 138.643 126.094 138.643 124.898C138.643 119.927 132.823 115.898 125.643 115.898C121.079 115.898 117.064 117.526 114.745 119.99C113.416 121.401 123.091 125.713 137.643 127.898Z" fill="#FFD960" stroke="#152633" stroke-width="2" stroke-linejoin="round"/>
<path fill-rule="evenodd" clip-rule="evenodd" d="M132.643 126.898C133.255 125.854 133.643 124.594 133.643 123.398C133.643 120.483 131.641 118.391 128.537 116.747C126.348 115.587 119.143 118.898 119.143 123.398C123.01 124.91 126.466 125.97 132.643 126.898Z" fill="#EE0612" stroke="#152633" stroke-width="2"/>
<path fill-rule="evenodd" clip-rule="evenodd" d="M113.057 118.723C116.031 122.277 120.768 125.398 134.643 127.648C140.176 128.545 146.961 128.333 153.31 126.898C158.268 116.398 160.893 103.273 156.708 90.622C150.443 88.1921 142.847 86.773 134.643 86.773C111.393 86.773 116.318 115.078 113.057 118.723Z" stroke="#152633" stroke-width="2"/>
<path fill-rule="evenodd" clip-rule="evenodd" d="M152.643 89.3979C159.643 96.8979 156.643 122.898 147.143 127.898C152.018 127.148 154.393 126.523 157.143 125.398C164.143 121.898 166.643 96.8979 160.643 92.3979C158.643 91.1479 155.976 90.1479 152.643 89.3979Z" fill="#FFD960" stroke="#152633" stroke-width="2" stroke-linejoin="round"/>
<path fill-rule="evenodd" clip-rule="evenodd" d="M117.569 114.549C121.749 109.576 120.394 102.401 118.518 101.488C117.778 101.969 115.303 107.06 113.786 106.65C96.7242 102.039 85.3431 102.353 80.8893 108.047C75.6891 114.694 77.9846 131.328 93.7752 127.742C105.683 125.038 113.388 119.521 117.569 114.549Z" fill="#2D3B45" stroke="#152633" stroke-width="2"/>
<path fill-rule="evenodd" clip-rule="evenodd" d="M137.143 93.8979C155.143 70.3979 191.143 96.8979 226.143 83.3979C232.143 87.3979 241.143 90.0646 253.143 91.3979C217.643 101.898 204.643 95.8979 182.143 91.3979C159.143 87.0646 142.643 95.3979 132.643 116.398C123.643 117.065 125.143 109.565 137.143 93.8979Z" fill="#EE0612" stroke="#152633" stroke-width="2"/>
<path fill-rule="evenodd" clip-rule="evenodd" d="M47.6329 93.5372C51.4292 116.215 73.9574 124.904 102.138 120.186C130.318 115.468 146.616 99.6442 145.511 77.6265C144.317 53.853 116.31 31.7946 88.129 36.5126C59.9487 41.2306 43.6395 69.6865 47.6329 93.5372Z" fill="white" stroke="#152633" stroke-width="2"/>
<path fill-rule="evenodd" clip-rule="evenodd" d="M94.8558 99.4986C95.1992 101.55 92.064 103.784 87.853 104.489C83.6424 105.195 79.9506 104.103 79.6068 102.052C79.2635 99.9997 82.3986 97.7654 86.6096 97.0603C90.8202 96.3556 94.5125 97.4471 94.8558 99.4986Z" fill="#152633"/>
<path fill-rule="evenodd" clip-rule="evenodd" d="M120.664 99.9918L120.664 99.9918C110.729 101.655 98.2782 92.2756 96.2516 80.1718C93.9858 66.6399 99.6661 51.6733 108.312 50.2259C112.616 49.505 118.306 51.8926 123.458 56.6816C128.671 61.5275 132.382 68.0017 133.379 73.9562C135.535 86.834 129.74 98.4726 120.664 99.9918Z" fill="#2D3B45" stroke="#152633" stroke-width="2"/>
<path fill-rule="evenodd" clip-rule="evenodd" d="M103.78 76.3685C101.712 77.3734 101.317 80.8226 102.896 84.0713C104.475 87.3207 107.432 89.1392 109.5 88.1343C111.567 87.1289 111.963 83.6805 110.384 80.4315C108.804 77.1824 105.847 75.3635 103.78 76.3685Z" fill="white"/>
<path fill-rule="evenodd" clip-rule="evenodd" d="M75.1318 94.2749C73.0097 99.0223 70.1124 101.749 67.1283 102.331C67.0752 102.342 67.025 102.351 66.9765 102.359C64.8254 102.719 61.8905 102.074 59.8252 100.642C54.7846 97.149 52.1465 92.8336 50.8873 85.3128C48.9025 73.4565 57.6303 56.2993 66.1353 54.8752C67.9771 54.5669 69.5802 54.9418 70.9609 55.9932C75.0764 59.1274 77.441 67.6693 77.9715 79.1007C78.2 84.0109 77.2213 89.5998 75.1318 94.2749ZM75.1318 94.2749C75.1318 94.2749 75.1318 94.2749 75.1318 94.2749L75.1318 94.2748C75.1318 94.2748 75.1318 94.2748 75.1318 94.2749Z" fill="#2D3B45" stroke="#152633" stroke-width="2"/>
<path fill-rule="evenodd" clip-rule="evenodd" d="M65.8234 87.1738C65.4672 90.1128 66.6941 92.6795 68.5643 92.9062C70.4349 93.1332 72.2397 90.9346 72.5964 87.9956C72.9531 85.0566 71.7257 82.4903 69.8559 82.2632C67.9857 82.0361 66.1801 84.2352 65.8234 87.1738Z" fill="white"/>
<path fill-rule="evenodd" clip-rule="evenodd" d="M133.71 51.7109C135.033 50.8829 136.415 49.7804 137.735 48.3052C142.815 42.6316 140.333 35.0079 139.614 33.1185C138.896 31.2287 134.979 22.2375 128.27 27.7823C123.937 31.363 119.772 36.9251 117.363 40.418C123.496 43.1695 129.058 47.0422 133.71 51.7109Z" fill="#2D3B45" stroke="#152633" stroke-width="2"/>
<path fill-rule="evenodd" clip-rule="evenodd" d="M51.8155 58.7223C52.7387 59.2371 53.6411 59.629 54.5059 59.925C57.5428 54.8613 61.4519 50.26 66.1265 46.466C63.1636 44.2888 58.2643 40.9803 53.7719 39.2948C46.7319 36.6538 46.0624 45.1004 46.0072 46.8457C45.952 48.5914 46.0698 55.5171 51.8155 58.7223Z" fill="#2D3B45" stroke="#152633" stroke-width="2"/>
<path d="M94.6431 112.898C100.31 112.231 104.143 109.898 106.143 105.898" stroke="#152633" stroke-width="2" stroke-linecap="round"/>
<path fill-rule="evenodd" clip-rule="evenodd" d="M136.569 115.549C140.749 110.576 139.394 103.401 137.518 102.488C136.778 102.969 134.303 108.06 132.786 107.65C115.724 103.039 104.343 103.353 99.8893 109.047C94.6891 115.694 96.9846 132.328 112.775 128.742C124.683 126.038 132.388 120.521 136.569 115.549Z" fill="#2D3B45" stroke="#152633" stroke-width="2"/>
</g>
<defs>
<clipPath id="clip0_3401_48">
<rect width="276" height="163" fill="white"/>
</clipPath>
<clipPath id="clip1_3401_48">
<rect width="209" height="112.519" fill="white" transform="translate(45 25)"/>
</clipPath>
</defs>
</svg>
