<svg width="24" height="24" viewBox="0 0 24 24" fill="none" xmlns="http://www.w3.org/2000/svg">
<path d="M16.2153 16.3385L19.9385 12.6155C20.0872 12.4667 20.2628 12.3933 20.4653 12.3953C20.6679 12.3971 20.8436 12.4756 20.9923 12.6308C21.1308 12.7818 21.2 12.958 21.2 13.1595C21.2 13.3608 21.1308 13.5358 20.9923 13.6845L16.873 17.8193C16.6923 17.9999 16.4814 18.0903 16.2402 18.0903C15.9992 18.0903 15.7884 17.9999 15.6077 17.8193L13.5635 15.775C13.425 15.6365 13.3573 15.4624 13.3605 15.2528C13.3638 15.0433 13.4347 14.8693 13.573 14.7308C13.7115 14.5923 13.8861 14.523 14.0968 14.523C14.3074 14.523 14.4809 14.5923 14.6173 14.7308L16.2153 16.3385ZM16.2153 8.72301L19.9385 5.00001C20.0872 4.85134 20.2628 4.77792 20.4653 4.77976C20.6679 4.78176 20.8436 4.86034 20.9923 5.01551C21.1308 5.16651 21.2 5.34267 21.2 5.54401C21.2 5.74551 21.1308 5.92059 20.9923 6.06926L16.873 10.2038C16.6923 10.3846 16.4814 10.475 16.2402 10.475C15.9992 10.475 15.7884 10.3846 15.6077 10.2038L13.5635 8.15951C13.425 8.02117 13.3573 7.84717 13.3605 7.63751C13.3638 7.42784 13.4347 7.25384 13.573 7.11551C13.7115 6.97701 13.8861 6.90776 14.0968 6.90776C14.3074 6.90776 14.4809 6.97701 14.6173 7.11551L16.2153 8.72301ZM3.25 16.5578C3.0375 16.5578 2.85942 16.4858 2.71575 16.342C2.57192 16.1982 2.5 16.0199 2.5 15.8073C2.5 15.5948 2.57192 15.4167 2.71575 15.273C2.85942 15.1295 3.0375 15.0578 3.25 15.0578H10.25C10.4625 15.0578 10.6407 15.1297 10.7845 15.2735C10.9282 15.4173 11 15.5955 11 15.808C11 16.0207 10.9282 16.1988 10.7845 16.3423C10.6407 16.4859 10.4625 16.5578 10.25 16.5578H3.25ZM3.25 8.94226C3.0375 8.94226 2.85942 8.87034 2.71575 8.72651C2.57192 8.58267 2.5 8.40451 2.5 8.19201C2.5 7.97934 2.57192 7.80126 2.71575 7.65776C2.85942 7.51409 3.0375 7.44226 3.25 7.44226H10.25C10.4625 7.44226 10.6407 7.51417 10.7845 7.65801C10.9282 7.80184 11 7.98009 11 8.19276C11 8.40526 10.9282 8.58334 10.7845 8.72701C10.6407 8.87051 10.4625 8.94226 10.25 8.94226H3.25Z" fill="#273540"/>
</svg>
