<svg width="24" height="24" viewBox="0 0 24 24" fill="none" xmlns="http://www.w3.org/2000/svg">
<path d="M4.25 19.5C3.76417 19.5 3.351 19.3298 3.0105 18.9895C2.67017 18.649 2.5 18.2358 2.5 17.75V6.30775C2.5 5.82192 2.67983 5.39917 3.0395 5.0395C3.39917 4.67983 3.82192 4.5 4.30775 4.5H9.05C9.291 4.5 9.52275 4.54683 9.74525 4.6405C9.96758 4.734 10.1608 4.86283 10.325 5.027L11.798 6.5H20.6635C20.8763 6.5 21.0545 6.57183 21.198 6.7155C21.3417 6.859 21.4135 7.03717 21.4135 7.25C21.4135 7.46283 21.3417 7.641 21.198 7.7845C21.0545 7.92817 20.8763 8 20.6635 8H11.1845L9.1845 6H4.30775C4.21792 6 4.14417 6.02883 4.0865 6.0865C4.02883 6.14417 4 6.21792 4 6.30775V18C4 17.9102 4.01767 17.8765 4.053 17.899C4.08817 17.9215 4.13458 17.9487 4.19225 17.9808L6.1385 11.4827C6.259 11.0943 6.48075 10.7821 6.80375 10.5462C7.12692 10.3102 7.48592 10.1923 7.88075 10.1923H20.7423C21.3551 10.1923 21.8413 10.4358 22.201 10.923C22.5605 11.4102 22.655 11.9416 22.4845 12.5173L20.7615 18.2578C20.6473 18.6333 20.4336 18.9342 20.1203 19.1605C19.8067 19.3868 19.459 19.5 19.077 19.5H4.25ZM5.7635 18H19.0385C19.109 18 19.1715 17.9808 19.226 17.9423C19.2805 17.9038 19.3173 17.8493 19.3365 17.7788L21.0405 12.0865C21.0725 11.984 21.0564 11.8927 20.9923 11.8125C20.9283 11.7323 20.8449 11.6923 20.7423 11.6923H7.88075C7.81025 11.6923 7.74775 11.7115 7.69325 11.75C7.63875 11.7885 7.60192 11.843 7.58275 11.9135L5.7635 18ZM5.7635 18L7.58275 11.9135C7.60192 11.843 7.61792 11.7885 7.63075 11.75L7.65 11.6923L7.61625 11.8125C7.59392 11.8927 7.56667 11.984 7.5345 12.0865L5.83075 17.7788C5.81158 17.8493 5.79558 17.9038 5.78275 17.9423L5.7635 18Z" fill="#273540"/>
</svg>
