<svg width="24" height="24" viewBox="0 0 24 24" fill="none" xmlns="http://www.w3.org/2000/svg">
<path d="M10 13.9558L16.073 7.87303C16.211 7.73469 16.3865 7.66553 16.5995 7.66553C16.8127 7.66553 16.9885 7.73453 17.127 7.87253C17.2654 8.01053 17.3345 8.18611 17.3345 8.39928C17.3345 8.61261 17.2654 8.78853 17.127 8.92703L10.6328 15.4115C10.4519 15.5924 10.241 15.6828 10 15.6828C9.75903 15.6828 9.54811 15.5924 9.36728 15.4115L6.87303 12.927C6.73469 12.789 6.66553 12.6135 6.66553 12.4005C6.66553 12.1874 6.73453 12.0115 6.87253 11.873C7.01053 11.7347 7.18611 11.6655 7.39928 11.6655C7.61261 11.6655 7.78853 11.7347 7.92703 11.873L10 13.9558Z" fill="#273540"/>
</svg>
