<svg width="22" height="18" viewBox="0 0 22 18" fill="none" xmlns="http://www.w3.org/2000/svg">
<path d="M4.69213 18C4.43613 18 4.1763 17.9221 3.91263 17.7663C3.64897 17.6106 3.4558 17.4251 3.33313 17.2098L1.03213 13.1748C0.9093 12.9596 0.8463 12.6988 0.843133 12.3923C0.839966 12.0859 0.901883 11.8257 1.02888 11.6115L7.33638 0.788499C7.46338 0.574333 7.65663 0.389416 7.91613 0.233749C8.1758 0.0779161 8.43447 0 8.69213 0H13.3076C13.5653 0 13.824 0.0779161 14.0836 0.233749C14.3431 0.389416 14.5364 0.574333 14.6634 0.788499L18.2151 6.89625C18.364 7.15642 18.3646 7.41083 18.2171 7.6595C18.0698 7.90833 17.8474 8.02567 17.5499 8.0115C17.4217 8.00767 17.3029 7.97625 17.1934 7.91725C17.0839 7.85825 16.997 7.76983 16.9326 7.652L13.3499 1.5H8.64988L2.29988 12.4L4.64988 16.5H12.1364C12.2636 16.5 12.3781 16.5253 12.4799 16.576C12.5817 16.6267 12.6698 16.7058 12.7441 16.8135C12.9133 17.0635 12.9312 17.3238 12.7979 17.5943C12.6646 17.8647 12.4441 18 12.1364 18H4.69213ZM6.86338 13.75C6.71855 13.75 6.5798 13.7163 6.44713 13.649C6.3143 13.5817 6.21588 13.4807 6.15188 13.3462L6.05963 13.177C5.98263 13.0418 5.94413 12.8917 5.94413 12.7265C5.94413 12.5613 5.98263 12.4102 6.05963 12.273L10.0306 5.35575C10.1058 5.22025 10.2147 5.11108 10.3574 5.02825C10.5001 4.94525 10.654 4.90375 10.8191 4.90375H11.2191C11.3701 4.90375 11.5109 4.94167 11.6414 5.0175C11.7719 5.09333 11.8715 5.19325 11.9401 5.31725L13.9344 8.80775C14.0191 8.94625 14.0521 9.09883 14.0334 9.2655C14.0147 9.43233 13.9492 9.5775 13.8369 9.701C13.6622 9.88617 13.4515 9.96183 13.2046 9.928C12.958 9.894 12.7705 9.77058 12.6421 9.55775L10.9999 6.7L7.81713 12.25H11.3576C11.5988 12.25 11.7925 12.3363 11.9386 12.5087C12.0846 12.6811 12.1365 12.8868 12.0941 13.126C12.066 13.3022 11.9771 13.4502 11.8276 13.5703C11.6783 13.6901 11.5165 13.75 11.3421 13.75H6.86338ZM17.2499 14.75H14.9999C14.7874 14.75 14.6093 14.6781 14.4656 14.5343C14.3218 14.3904 14.2499 14.2122 14.2499 13.9998C14.2499 13.7871 14.3218 13.609 14.4656 13.4655C14.6093 13.3218 14.7874 13.25 14.9999 13.25H17.2499V11C17.2499 10.7875 17.3218 10.6094 17.4656 10.4658C17.6095 10.3219 17.7876 10.25 18.0001 10.25C18.2128 10.25 18.3909 10.3219 18.5344 10.4658C18.6781 10.6094 18.7499 10.7875 18.7499 11V13.25H20.9999C21.2124 13.25 21.3905 13.3219 21.5341 13.4658C21.678 13.6096 21.7499 13.7878 21.7499 14.0003C21.7499 14.2129 21.678 14.391 21.5341 14.5345C21.3905 14.6782 21.2124 14.75 20.9999 14.75H18.7499V17C18.7499 17.2125 18.678 17.3906 18.5341 17.5343C18.3903 17.6781 18.2121 17.75 17.9996 17.75C17.787 17.75 17.6089 17.6781 17.4654 17.5343C17.3217 17.3906 17.2499 17.2125 17.2499 17V14.75Z" fill="#273540"/>
</svg>
