<svg width="24" height="24" viewBox="0 0 24 24" fill="none" xmlns="http://www.w3.org/2000/svg">
<path d="M4.30775 19.5C3.80258 19.5 3.375 19.325 3.025 18.975C2.675 18.625 2.5 18.1974 2.5 17.6923V6.30777C2.5 5.8026 2.675 5.37502 3.025 5.02502C3.375 4.67502 3.80258 4.50002 4.30775 4.50002H13.4712C13.6841 4.50002 13.8638 4.57343 14.0105 4.72027C14.1573 4.8671 14.2276 5.04693 14.2212 5.25977C14.2147 5.4661 14.1397 5.64102 13.9962 5.78452C13.8526 5.92818 13.6776 6.00002 13.4712 6.00002H4V17.6923C4 17.7821 4.02883 17.8558 4.0865 17.9135C4.14417 17.9712 4.21792 18 4.30775 18H19.6923C19.7821 18 19.8558 17.9712 19.9135 17.9135C19.9712 17.8558 20 17.7821 20 17.6923V11C20 10.7872 20.0718 10.609 20.2155 10.4655C20.359 10.3218 20.5372 10.25 20.75 10.25C20.9628 10.25 21.141 10.3218 21.2845 10.4655C21.4282 10.609 21.5 10.7872 21.5 11V17.6923C21.5 18.1974 21.325 18.625 20.975 18.975C20.625 19.325 20.1974 19.5 19.6923 19.5H4.30775ZM12 11L15.2538 8.93277C15.4359 8.81477 15.6071 8.78368 15.7673 8.83952C15.9276 8.89518 16.0533 8.99543 16.1443 9.14026C16.2353 9.28526 16.2689 9.44043 16.2452 9.60576C16.2214 9.7711 16.1185 9.91277 15.9365 10.0308L12.477 12.252C12.3232 12.3455 12.1642 12.3938 12 12.397C11.8358 12.4003 11.6768 12.3552 11.523 12.2615L4 7.54802V6.00002L12 11ZM19 8.13477C18.2372 8.13477 17.5882 7.8671 17.053 7.33177C16.5177 6.79643 16.25 6.14743 16.25 5.38477C16.25 4.62193 16.5177 3.97285 17.053 3.43752C17.5882 2.90235 18.2372 2.63477 19 2.63477C19.7628 2.63477 20.4118 2.90235 20.947 3.43752C21.4823 3.97285 21.75 4.62193 21.75 5.38477C21.75 6.14743 21.4823 6.79643 20.947 7.33177C20.4118 7.8671 19.7628 8.13477 19 8.13477Z" fill="#273540"/>
</svg>
