<svg width="24" height="24" viewBox="0 0 24 24" fill="none" xmlns="http://www.w3.org/2000/svg">
<path d="M13.2692 4.94425C12.1654 5.77492 11.306 6.80117 10.6912 8.023C10.0765 9.24483 9.76921 10.5468 9.76921 11.9288C9.76921 13.4904 10.1525 14.9466 10.9192 16.2973C11.6859 17.6478 12.7449 18.7198 14.0962 19.5135C14.2782 19.625 14.4054 19.7795 14.4777 19.977C14.5502 20.1743 14.5358 20.366 14.4345 20.552C14.3333 20.7442 14.185 20.8717 13.9895 20.9345C13.794 20.9973 13.6051 20.9782 13.423 20.877C11.8218 19.9448 10.5625 18.6868 9.64521 17.1027C8.72788 15.5189 8.26921 13.7975 8.26921 11.9385C8.26921 10.3833 8.60288 8.91533 9.27021 7.5345C9.93755 6.15383 10.8725 4.97567 12.075 4H8.98071C8.76788 4 8.58971 3.92817 8.44621 3.7845C8.30255 3.641 8.23071 3.46283 8.23071 3.25C8.23071 3.03717 8.30255 2.859 8.44621 2.7155C8.58971 2.57183 8.76788 2.5 8.98071 2.5H13.8652C14.123 2.5 14.3381 2.58625 14.5105 2.75875C14.683 2.93108 14.7692 3.14617 14.7692 3.404V8.2885C14.7692 8.50133 14.6974 8.6795 14.5537 8.823C14.4102 8.96667 14.232 9.0385 14.0192 9.0385C13.8064 9.0385 13.6282 8.96667 13.4847 8.823C13.341 8.6795 13.2692 8.50133 13.2692 8.2885V4.94425Z" fill="#273540"/>
</svg>
