<svg width="24" height="24" viewBox="0 0 24 24" fill="none" xmlns="http://www.w3.org/2000/svg">
<path d="M17.077 16.6537C15.9219 16.6537 14.918 16.2889 14.0655 15.5594C13.2129 14.8299 12.686 13.8934 12.4848 12.7499H6.74229C6.58712 13.1999 6.3157 13.572 5.92804 13.8662C5.5402 14.1605 5.08987 14.3077 4.57704 14.3077C3.9347 14.3077 3.38945 14.0836 2.94129 13.6354C2.49329 13.1874 2.26929 12.6423 2.26929 11.9999C2.26929 11.3576 2.49329 10.8124 2.94129 10.3644C3.38945 9.91628 3.9347 9.69219 4.57704 9.69219C5.08987 9.69219 5.5402 9.83936 5.92804 10.1337C6.3157 10.4279 6.58712 10.7999 6.74229 11.2499H12.4848C12.686 10.1064 13.2129 9.16994 14.0655 8.44044C14.918 7.71094 15.9219 7.34619 17.077 7.34619C18.3642 7.34619 19.4616 7.80319 20.3693 8.71719C21.277 9.63136 21.7308 10.732 21.7308 12.0192C21.7308 13.2935 21.277 14.3845 20.3693 15.2922C19.4616 16.1999 18.3642 16.6537 17.077 16.6537ZM17.077 15.1537C17.9489 15.1537 18.6925 14.846 19.3078 14.2307C19.9231 13.6154 20.2308 12.8718 20.2308 11.9999C20.2308 11.1281 19.9231 10.3845 19.3078 9.76919C18.6925 9.15386 17.9489 8.84619 17.077 8.84619C16.2052 8.84619 15.4616 9.15386 14.8463 9.76919C14.2308 10.3845 13.923 11.1281 13.923 11.9999C13.923 12.8718 14.2308 13.6154 14.8463 14.2307C15.4616 14.846 16.2052 15.1537 17.077 15.1537Z" fill="#273540"/>
</svg>
