<svg xmlns="http://www.w3.org/2000/svg" viewBox="0 0 24 24"><g transform="matrix(0.010416666666666666 0 0 0.010416666666666666 2 2)"><path d="M1471.2 1261.689c9.24 67.2 4.92 138.84-16.32 215.64-53.16 190.08-176.64 319.56-348 364.8-46.44 12.24-94.56 17.76-143.04 17.76-209.16 0-424.92-104.04-546.84-225.12l-52.44-56.04 175.68-163.68 49.2 52.92c98.76 97.92 303.48 182.16 456.24 142.08 89.28-23.64 147.48-87.96 177.96-196.92 16.56-60 17.16-109.44 3.12-151.44Zm-31.92-991.08-163.8 175.32c-105.12-98.16-319.2-176.16-469.8-134.76-85.8 23.28-141.6 82.08-170.64 179.76-54.48 183.24 66.72 252 377.76 345.48 71.04 21.36 133.56 40.68 183.96 65.28H1920v240H0v-240h561.72c-135.6-96.84-226.68-243.6-156.72-479.16 67.08-225.84 220.68-311.16 337.8-343.08 247.8-66.72 543.6 48.36 696.48 191.16Z" fill-rule="evenodd"/></g>
</svg>