<svg width="24" height="24" viewBox="0 0 24 24" fill="none" xmlns="http://www.w3.org/2000/svg">
<path d="M11.2499 18.7655V15C11.2499 14.7872 11.3217 14.609 11.4654 14.4655C11.6089 14.3219 11.7871 14.25 11.9999 14.25C12.2127 14.25 12.3909 14.3219 12.5344 14.4655C12.6781 14.609 12.7499 14.7872 12.7499 15V18.75L14.2769 17.2078C14.4256 17.0591 14.6047 16.9831 14.8144 16.9798C15.0239 16.9766 15.2062 17.0526 15.3614 17.2078C15.5166 17.3629 15.5942 17.5437 15.5942 17.75C15.5942 17.9564 15.5166 18.1371 15.3614 18.2923L12.6327 21.0213C12.539 21.1148 12.4402 21.1808 12.3364 21.2193C12.2326 21.2578 12.1204 21.277 11.9999 21.277C11.8794 21.277 11.7672 21.2578 11.6634 21.2193C11.5596 21.1808 11.4608 21.1148 11.3672 21.0213L8.6229 18.277C8.47423 18.1282 8.4009 17.9515 8.4029 17.747C8.40473 17.5427 8.48323 17.3629 8.6384 17.2078C8.79357 17.0526 8.97173 16.975 9.1729 16.975C9.37423 16.975 9.55248 17.0526 9.70765 17.2078L11.2499 18.7655ZM5.2499 12.75L6.79215 14.277C6.94082 14.4257 7.01682 14.6049 7.02015 14.8145C7.02332 15.024 6.94732 15.2064 6.79215 15.3615C6.63698 15.5167 6.45623 15.5943 6.2499 15.5943C6.04357 15.5943 5.86282 15.5167 5.70765 15.3615L2.97865 12.6328C2.88515 12.5391 2.81915 12.4404 2.78065 12.3365C2.74215 12.2327 2.7229 12.1205 2.7229 12C2.7229 11.8795 2.74215 11.7674 2.78065 11.6635C2.81915 11.5597 2.88515 11.4609 2.97865 11.3673L5.70765 8.63852C5.85632 8.48986 6.0329 8.41386 6.2374 8.41052C6.4419 8.40736 6.62173 8.48336 6.7769 8.63852C6.9319 8.79369 7.0094 8.97186 7.0094 9.17302C7.0094 9.37436 6.9319 9.55261 6.7769 9.70777L5.2344 11.25H8.9999C9.21273 11.25 9.3909 11.3219 9.5344 11.4655C9.67807 11.609 9.7499 11.7872 9.7499 12C9.7499 12.2129 9.67807 12.391 9.5344 12.5345C9.3909 12.6782 9.21273 12.75 8.9999 12.75H5.2499ZM18.7654 12.75H14.9999C14.7871 12.75 14.6089 12.6782 14.4654 12.5345C14.3217 12.391 14.2499 12.2129 14.2499 12C14.2499 11.7872 14.3217 11.609 14.4654 11.4655C14.6089 11.3219 14.7871 11.25 14.9999 11.25H18.7499L17.2077 9.72302C17.059 9.57436 16.983 9.39519 16.9797 9.18552C16.9765 8.97602 17.0525 8.79369 17.2077 8.63852C17.3628 8.48336 17.5436 8.40577 17.7499 8.40577C17.9562 8.40577 18.137 8.48336 18.2922 8.63852L21.0212 11.3673C21.1147 11.4609 21.1807 11.5597 21.2192 11.6635C21.2577 11.7674 21.2769 11.8795 21.2769 12C21.2769 12.1205 21.2577 12.2327 21.2192 12.3365C21.1807 12.4404 21.1147 12.5391 21.0212 12.6328L18.2769 15.377C18.1281 15.5257 17.954 15.599 17.7547 15.597C17.5553 15.5952 17.3781 15.5167 17.2229 15.3615C17.0679 15.2064 16.9904 15.0282 16.9904 14.827C16.9904 14.6257 17.0679 14.4474 17.2229 14.2923L18.7654 12.75ZM11.2499 5.23452L9.69215 6.79227C9.54348 6.94094 9.36948 7.01694 9.17015 7.02027C8.97082 7.02344 8.79357 6.94744 8.6384 6.79227C8.48323 6.63711 8.40565 6.45894 8.40565 6.25777C8.40565 6.05644 8.48323 5.87819 8.6384 5.72302L11.3672 2.97877C11.4608 2.88527 11.5596 2.81927 11.6634 2.78077C11.7672 2.74227 11.8794 2.72302 11.9999 2.72302C12.1204 2.72302 12.2326 2.74227 12.3364 2.78077C12.4402 2.81927 12.539 2.88527 12.6327 2.97877L15.3769 5.72302C15.5256 5.87186 15.6015 6.04594 15.6047 6.24527C15.6078 6.44461 15.5319 6.62186 15.3769 6.77702C15.2217 6.93202 15.0435 7.00952 14.8422 7.00952C14.641 7.00952 14.4628 6.93202 14.3077 6.77702L12.7499 5.23452V9.00002C12.7499 9.21286 12.6781 9.39102 12.5344 9.53452C12.3909 9.67819 12.2127 9.75002 11.9999 9.75002C11.7871 9.75002 11.6089 9.67819 11.4654 9.53452C11.3217 9.39102 11.2499 9.21286 11.2499 9.00002V5.23452Z" fill="#273540"/>
</svg>
