<svg width="24" height="24" viewBox="0 0 24 24" fill="none" xmlns="http://www.w3.org/2000/svg">
<path d="M8.11542 19.3845C7.70292 19.3845 7.34976 19.2377 7.05592 18.944C6.76226 18.6502 6.61542 18.297 6.61542 17.8845V16.2885C6.61542 16.0323 6.70201 15.8177 6.87517 15.6445C7.04851 15.4713 7.26317 15.3848 7.51917 15.3848H9.49992V12.6345C8.97426 12.6718 8.43676 12.619 7.88742 12.476C7.33809 12.333 6.86084 12.0801 6.45567 11.7173C6.36167 11.6264 6.28717 11.5243 6.23217 11.4108C6.17734 11.2973 6.14992 11.177 6.14992 11.05V10.1923H5.24217C5.12451 10.1923 5.01051 10.1705 4.90017 10.127C4.78984 10.0833 4.68817 10.0151 4.59517 9.92226L2.50542 7.83251C2.31976 7.64668 2.23167 7.4301 2.24117 7.18276C2.25084 6.93526 2.35251 6.72435 2.54617 6.55001C3.02951 6.13718 3.63142 5.83268 4.35192 5.63651C5.07242 5.44035 5.75509 5.34226 6.39992 5.34226C6.94542 5.34226 7.47567 5.40451 7.99067 5.52901C8.50584 5.65335 9.00892 5.85843 9.49992 6.14426V5.96151C9.49992 5.56485 9.63792 5.22851 9.91392 4.95251C10.1899 4.67651 10.5263 4.53851 10.9229 4.53851H18.6967C19.1923 4.53851 19.6168 4.71551 19.9702 5.06951C20.3233 5.42351 20.4999 5.8491 20.4999 6.34626V16.8845C20.4999 17.5833 20.2579 18.1747 19.7739 18.6585C19.2899 19.1425 18.6986 19.3845 17.9999 19.3845H8.11542ZM10.9999 15.3848H16.1154C16.3603 15.3848 16.5688 15.4709 16.7412 15.6433C16.9137 15.8158 16.9999 16.0244 16.9999 16.2693V16.8845C16.9999 17.1678 17.0958 17.4053 17.2874 17.597C17.4791 17.7887 17.7166 17.8845 17.9999 17.8845C18.2833 17.8845 18.5208 17.7887 18.7124 17.597C18.9041 17.4053 18.9999 17.1678 18.9999 16.8845V6.34626C18.9999 6.25643 18.9711 6.18268 18.9134 6.12501C18.8558 6.06735 18.782 6.03851 18.6922 6.03851H11.3077C11.2178 6.03851 11.1441 6.06735 11.0864 6.12501C11.0288 6.18268 10.9999 6.25643 10.9999 6.34626V7.13851L16.5422 12.6808C16.6567 12.7929 16.7267 12.9207 16.7522 13.064C16.7775 13.2072 16.7588 13.3483 16.6962 13.4873C16.6333 13.6264 16.5453 13.737 16.4322 13.819C16.3192 13.9012 16.1747 13.9423 15.9987 13.9423C15.8982 13.9423 15.8011 13.9206 15.7074 13.8773C15.6136 13.8339 15.5354 13.7813 15.4729 13.7193L12.7499 10.9963L12.3672 11.3788C12.1532 11.5929 11.9346 11.7788 11.7114 11.9365C11.4884 12.0942 11.2513 12.223 10.9999 12.323V15.3848ZM5.50367 8.69226H6.74617C7.00217 8.69226 7.21684 8.77893 7.39017 8.95226C7.56334 9.12543 7.64992 9.3401 7.64992 9.59626V10.7463C7.92042 10.9181 8.18326 11.0353 8.43842 11.098C8.69359 11.1608 8.94876 11.1923 9.20392 11.1923C9.62309 11.1923 10.0028 11.1243 10.3432 10.9885C10.6835 10.8527 11.0101 10.6283 11.3229 10.3155L11.6962 9.94226L10.1229 8.36926C9.61392 7.86026 9.04342 7.47851 8.41142 7.22401C7.77942 6.96951 7.10892 6.84226 6.39992 6.84226C5.98959 6.84226 5.59442 6.88651 5.21442 6.97501C4.83426 7.06351 4.47809 7.18343 4.14592 7.33476L5.50367 8.69226ZM15.4999 16.8845H8.11542V17.8845H15.7269C15.6449 17.741 15.5866 17.5848 15.5519 17.416C15.5173 17.2473 15.4999 17.0702 15.4999 16.8845Z" fill="#273540"/>
</svg>
