<svg xmlns="http://www.w3.org/2000/svg" viewBox="0 0 24 24"><g><path fill-rule="evenodd" stroke="none" stroke-width="1" d="M0 734.187c0-93.742 75.672-169.414 169.415-169.414H338.83v790.602H169.415C75.672 1355.375 0 1279.703 0 1185.96V734.187zm451.773-169.414L903.545 113h225.887v1694.148H903.545l-451.772-451.773V564.773zm900.676 115.258l80.303-79.173c95.776 97.018 148.407 224.644 148.407 359.16 0 134.628-52.631 262.253-148.407 359.272l-80.303-79.174c74.656-75.897 115.767-175.4 115.767-280.099 0-104.585-41.111-204.088-115.767-279.986zm319.528-318.974C1832.017 521.097 1920 733.882 1920 960.107c0 226.226-87.983 438.898-248.023 598.938l-79.851-79.85c138.694-138.582 214.93-323.018 214.93-519.087 0-196.183-76.236-380.506-214.93-519.2l79.85-79.85z" transform="matrix(0.010416666666666666 0 0 0.010416666666666666 2 2)"/></g></svg>