<svg width="24" height="24" viewBox="0 0 24 24" fill="none" xmlns="http://www.w3.org/2000/svg">
<path d="M5.75 12.05C5.75 12.3423 5.76983 12.6337 5.8095 12.924C5.84933 13.2145 5.91733 13.5008 6.0135 13.7828C6.0775 13.9956 6.07075 14.1991 5.99325 14.3933C5.91575 14.5874 5.784 14.7268 5.598 14.8115C5.40183 14.9063 5.20667 14.914 5.0125 14.8345C4.81833 14.755 4.68917 14.6089 4.625 14.3963C4.49167 14.0193 4.39583 13.6323 4.3375 13.2355C4.27917 12.8388 4.25 12.4437 4.25 12.05C4.25 9.88718 5.00258 8.04651 6.50775 6.52801C8.01292 5.00935 9.84367 4.25001 12 4.25001H12.7808L11.4577 2.92701C11.3193 2.78851 11.2484 2.61443 11.2453 2.40476C11.2421 2.19526 11.3129 2.01801 11.4577 1.87301C11.6026 1.72818 11.7782 1.65576 11.9845 1.65576C12.191 1.65576 12.3667 1.72818 12.5115 1.87301L15.0057 4.36726C15.1866 4.5481 15.277 4.75901 15.277 5.00001C15.277 5.24101 15.1866 5.45193 15.0057 5.63276L12.5115 8.12701C12.373 8.26535 12.199 8.33618 11.9895 8.33951C11.7798 8.34268 11.6026 8.27185 11.4577 8.12701C11.3129 7.98201 11.2405 7.80635 11.2405 7.60001C11.2405 7.39368 11.3129 7.21801 11.4577 7.07301L12.7808 5.75001H12C10.2628 5.75001 8.78683 6.36151 7.572 7.58451C6.35733 8.80768 5.75 10.2962 5.75 12.05ZM18.25 11.95C18.25 11.6577 18.2302 11.3663 18.1905 11.076C18.1507 10.7855 18.0827 10.4993 17.9865 10.2173C17.9225 10.0044 17.9293 9.80093 18.0068 9.60676C18.0843 9.4126 18.216 9.27318 18.402 9.18851C18.5982 9.09368 18.7917 9.08601 18.9827 9.16551C19.1737 9.24501 19.3012 9.3911 19.3652 9.60376C19.4986 9.98076 19.5961 10.3677 19.6578 10.7645C19.7192 11.1612 19.75 11.5563 19.75 11.95C19.75 14.1128 18.9974 15.9535 17.4923 17.472C15.9871 18.9907 14.1563 19.75 12 19.75H11.2192L12.5423 21.073C12.6807 21.2115 12.7516 21.3856 12.7548 21.5953C12.7579 21.8048 12.6871 21.982 12.5423 22.127C12.3974 22.2718 12.2218 22.3443 12.0155 22.3443C11.809 22.3443 11.6333 22.2718 11.4885 22.127L8.99425 19.6328C8.81342 19.4519 8.723 19.241 8.723 19C8.723 18.759 8.81342 18.5481 8.99425 18.3673L11.4885 15.873C11.627 15.7347 11.801 15.6638 12.0105 15.6605C12.2202 15.6573 12.3974 15.7282 12.5423 15.873C12.6871 16.018 12.7595 16.1937 12.7595 16.4C12.7595 16.6063 12.6871 16.782 12.5423 16.927L11.2192 18.25H12C13.7372 18.25 15.2132 17.6385 16.428 16.4155C17.6427 15.1923 18.25 13.7038 18.25 11.95Z" fill="#273540"/>
</svg>
