<svg width="24" height="24" viewBox="0 0 24 24" fill="none" xmlns="http://www.w3.org/2000/svg">
<path d="M11.989 17.6152C12.2745 17.6152 12.5157 17.5168 12.7125 17.3198C12.9093 17.1226 13.0078 16.8812 13.0078 16.5955C13.0078 16.31 12.9092 16.0688 12.712 15.872C12.5148 15.6753 12.2735 15.577 11.988 15.577C11.7025 15.577 11.4613 15.6756 11.2645 15.8728C11.0677 16.0699 10.9692 16.3112 10.9692 16.5968C10.9692 16.8822 11.0678 17.1234 11.265 17.3203C11.4622 17.5169 11.7035 17.6152 11.989 17.6152ZM12.0017 21.5C10.6877 21.5 9.45267 21.2507 8.2965 20.752C7.14033 20.2533 6.13467 19.5766 5.2795 18.7218C4.42433 17.8669 3.74725 16.8617 3.24825 15.706C2.74942 14.5503 2.5 13.3156 2.5 12.0017C2.5 10.6877 2.74933 9.45267 3.248 8.2965C3.74667 7.14033 4.42342 6.13467 5.27825 5.2795C6.13308 4.42433 7.13833 3.74725 8.294 3.24825C9.44967 2.74942 10.6844 2.5 11.9983 2.5C13.3123 2.5 14.5473 2.74933 15.7035 3.248C16.8597 3.74667 17.8653 4.42342 18.7205 5.27825C19.5757 6.13308 20.2528 7.13833 20.7518 8.294C21.2506 9.44967 21.5 10.6844 21.5 11.9983C21.5 13.3123 21.2507 14.5473 20.752 15.7035C20.2533 16.8597 19.5766 17.8653 18.7218 18.7205C17.8669 19.5757 16.8617 20.2528 15.706 20.7518C14.5503 21.2506 13.3156 21.5 12.0017 21.5ZM12 20C14.2333 20 16.125 19.225 17.675 17.675C19.225 16.125 20 14.2333 20 12C20 9.76667 19.225 7.875 17.675 6.325C16.125 4.775 14.2333 4 12 4C9.76667 4 7.875 4.775 6.325 6.325C4.775 7.875 4 9.76667 4 12C4 14.2333 4.775 16.125 6.325 17.675C7.875 19.225 9.76667 20 12 20ZM12.081 7.71925C12.5423 7.71925 12.9416 7.8645 13.2788 8.155C13.6161 8.4455 13.7848 8.80858 13.7848 9.24425C13.7848 9.61092 13.677 9.93908 13.4615 10.2288C13.2462 10.5186 13 10.7885 12.723 11.0385C12.36 11.3605 12.0404 11.7148 11.7643 12.1012C11.4881 12.4876 11.3404 12.9179 11.3212 13.3923C11.3148 13.5744 11.3788 13.727 11.5135 13.85C11.6482 13.973 11.8052 14.0345 11.9845 14.0345C12.1768 14.0345 12.3397 13.9704 12.473 13.8422C12.6063 13.7141 12.6916 13.5571 12.7288 13.3713C12.7954 13.0276 12.9374 12.7215 13.1547 12.453C13.3721 12.1843 13.6075 11.9289 13.861 11.6868C14.2255 11.3314 14.5436 10.9441 14.8152 10.5247C15.0871 10.1052 15.223 9.63742 15.223 9.12125C15.223 8.32892 14.9108 7.67792 14.2865 7.16825C13.6622 6.65875 12.9333 6.404 12.1 6.404C11.5052 6.404 10.9443 6.53567 10.4173 6.799C9.89042 7.0625 9.48017 7.44683 9.1865 7.952C9.0955 8.10717 9.06633 8.27042 9.099 8.44175C9.1315 8.61325 9.21942 8.74342 9.36275 8.83225C9.54525 8.93375 9.73267 8.96275 9.925 8.91925C10.1173 8.87558 10.2807 8.766 10.4152 8.5905C10.6179 8.32767 10.8632 8.11675 11.151 7.95775C11.4388 7.79875 11.7488 7.71925 12.081 7.71925Z" fill="#273540"/>
</svg>
