<svg width="24" height="24" viewBox="0 0 24 24" fill="none" xmlns="http://www.w3.org/2000/svg">
<path d="M5.30775 20.5C4.80258 20.5 4.375 20.325 4.025 19.975C3.675 19.625 3.5 19.1974 3.5 18.6923V5.30775C3.5 4.80258 3.675 4.375 4.025 4.025C4.375 3.675 4.80258 3.5 5.30775 3.5H10.8652C11.0781 3.5 11.2563 3.57183 11.4 3.7155C11.5435 3.859 11.6152 4.03717 11.6152 4.25C11.6152 4.46283 11.5435 4.641 11.4 4.7845C11.2563 4.92817 11.0781 5 10.8652 5H5.30775C5.23075 5 5.16025 5.03208 5.09625 5.09625C5.03208 5.16025 5 5.23075 5 5.30775V18.6923C5 18.7692 5.03208 18.8398 5.09625 18.9038C5.16025 18.9679 5.23075 19 5.30775 19H18.6923C18.7692 19 18.8398 18.9679 18.9038 18.9038C18.9679 18.8398 19 18.7692 19 18.6923V13.1348C19 12.9219 19.0718 12.7437 19.2155 12.6C19.359 12.4565 19.5372 12.3848 19.75 12.3848C19.9628 12.3848 20.141 12.4565 20.2845 12.6C20.4282 12.7437 20.5 12.9219 20.5 13.1348V18.6923C20.5 19.1974 20.325 19.625 19.975 19.975C19.625 20.325 19.1974 20.5 18.6923 20.5H5.30775ZM19 6.05375L10.2463 14.8077C10.1078 14.9461 9.93367 15.0169 9.724 15.0203C9.5145 15.0234 9.33725 14.9526 9.19225 14.8077C9.04742 14.6628 8.975 14.4871 8.975 14.2808C8.975 14.0744 9.04742 13.8988 9.19225 13.7537L17.9462 5H14.75C14.5372 5 14.359 4.92817 14.2155 4.7845C14.0718 4.641 14 4.46283 14 4.25C14 4.03717 14.0718 3.859 14.2155 3.7155C14.359 3.57183 14.5372 3.5 14.75 3.5H19.596C19.8538 3.5 20.0689 3.58625 20.2413 3.75875C20.4138 3.93108 20.5 4.14617 20.5 4.404V9.25C20.5 9.46283 20.4282 9.641 20.2845 9.7845C20.141 9.92817 19.9628 10 19.75 10C19.5372 10 19.359 9.92817 19.2155 9.7845C19.0718 9.641 19 9.46283 19 9.25V6.05375Z" fill="#273540"/>
</svg>
