<svg width="24" height="24" viewBox="0 0 24 24" fill="none" xmlns="http://www.w3.org/2000/svg">
<path d="M5.30775 20.5C4.81058 20.5 4.385 20.323 4.031 19.969C3.677 19.615 3.5 19.1894 3.5 18.6923V5.30775C3.5 4.81058 3.677 4.385 4.031 4.031C4.385 3.677 4.81058 3.5 5.30775 3.5H16.0402C16.2843 3.5 16.5168 3.54683 16.7378 3.6405C16.9588 3.734 17.1512 3.86283 17.3152 4.027L19.973 6.68475C20.1372 6.84875 20.266 7.04125 20.3595 7.26225C20.4532 7.48325 20.5 7.71575 20.5 7.95975V11.173C20.5 11.3855 20.4281 11.5637 20.2843 11.7075C20.1404 11.8512 19.9622 11.923 19.7498 11.923C19.5371 11.923 19.359 11.8512 19.2155 11.7075C19.0718 11.5637 19 11.3855 19 11.173V7.8345L16.1655 5H5.30775C5.21792 5 5.14417 5.02883 5.0865 5.0865C5.02883 5.14417 5 5.21792 5 5.30775V18.6923C5 18.7821 5.02883 18.8558 5.0865 18.9135C5.14417 18.9712 5.21792 19 5.30775 19H10.173C10.3855 19 10.5637 19.0719 10.7075 19.2158C10.8512 19.3596 10.923 19.5378 10.923 19.7502C10.923 19.9629 10.8512 20.141 10.7075 20.2845C10.5637 20.4282 10.3855 20.5 10.173 20.5H5.30775ZM13.1155 21.596V20.2345C13.1155 20.1168 13.1372 20.0028 13.1807 19.8925C13.2244 19.7822 13.293 19.6802 13.3865 19.5865L18.5443 14.4537C18.6686 14.3294 18.8028 14.2419 18.947 14.1912C19.0912 14.1407 19.2353 14.1155 19.3795 14.1155C19.5367 14.1155 19.6887 14.1449 19.8358 14.2037C19.9827 14.2627 20.1163 14.3512 20.2365 14.4692L21.1615 15.4038C21.2692 15.5282 21.3525 15.6629 21.4115 15.8077C21.4705 15.9526 21.5 16.0974 21.5 16.2423C21.5 16.3871 21.4731 16.5345 21.4193 16.6845C21.3654 16.8345 21.2795 16.9717 21.1615 17.096L16.0288 22.2288C15.9353 22.3224 15.8333 22.391 15.723 22.4345C15.6125 22.4782 15.4984 22.5 15.3807 22.5H14.0193C13.7631 22.5 13.5484 22.4133 13.3753 22.24C13.2021 22.0668 13.1155 21.8522 13.1155 21.596ZM14.3077 21.3078H15.2578L18.5038 18.046L18.0443 17.571L17.5788 17.102L14.3077 20.3577V21.3078ZM18.0443 17.571L17.5788 17.102L18.5038 18.046L18.0443 17.571ZM7.2885 9.8845H13.6902C13.9493 9.8845 14.165 9.79792 14.3375 9.62475C14.5098 9.45158 14.596 9.23692 14.596 8.98075V7.2885C14.596 7.03233 14.5094 6.81767 14.3363 6.6445C14.1631 6.47133 13.9484 6.38475 13.6923 6.38475H7.2905C7.0315 6.38475 6.81575 6.47133 6.64325 6.6445C6.47092 6.81767 6.38475 7.03233 6.38475 7.2885V8.98075C6.38475 9.23692 6.47133 9.45158 6.6445 9.62475C6.81767 9.79792 7.03233 9.8845 7.2885 9.8845ZM12 17.2693C12.068 17.2693 12.1327 17.2628 12.1943 17.25C12.2557 17.2372 12.3173 17.2148 12.3787 17.1827L14.4135 15.173C14.4455 15.1013 14.4679 15.0357 14.4808 14.976C14.4936 14.9163 14.5 14.8474 14.5 14.7692C14.5 14.0747 14.2572 13.4845 13.7715 12.9985C13.2858 12.5123 12.6961 12.2692 12.0022 12.2692C11.3084 12.2692 10.7179 12.5121 10.2308 12.9978C9.74358 13.4834 9.5 14.0732 9.5 14.767C9.5 15.4608 9.74308 16.0513 10.2293 16.5385C10.7153 17.0257 11.3055 17.2693 12 17.2693Z" fill="#273540"/>
</svg>
