<svg width="24" height="24" viewBox="0 0 24 24" fill="none" xmlns="http://www.w3.org/2000/svg">
<path d="M7.15375 21.5578C6.66792 21.5578 6.25483 21.3875 5.9145 21.047C5.57417 20.7067 5.404 20.2936 5.404 19.8078C5.404 19.3218 5.57417 18.9086 5.9145 18.5683C6.25483 18.2279 6.66792 18.0577 7.15375 18.0577C7.63975 18.0577 8.05292 18.2279 8.39325 18.5683C8.73358 18.9086 8.90375 19.3218 8.90375 19.8078C8.90375 20.2936 8.73358 20.7067 8.39325 21.047C8.05292 21.3875 7.63975 21.5578 7.15375 21.5578ZM16.8462 21.5578C16.3602 21.5578 15.9471 21.3875 15.6068 21.047C15.2664 20.7067 15.0962 20.2936 15.0962 19.8078C15.0962 19.3218 15.2664 18.9086 15.6068 18.5683C15.9471 18.2279 16.3602 18.0577 16.8462 18.0577C17.3321 18.0577 17.7452 18.2279 18.0855 18.5683C18.4258 18.9086 18.596 19.3218 18.596 19.8078C18.596 20.2936 18.4258 20.7067 18.0855 21.047C17.7452 21.3875 17.3321 21.5578 16.8462 21.5578ZM3.404 3.75H2.25C2.03717 3.75 1.859 3.67817 1.7155 3.5345C1.57183 3.391 1.5 3.21283 1.5 3C1.5 2.78717 1.57183 2.609 1.7155 2.4655C1.859 2.32183 2.03717 2.25 2.25 2.25H3.79425C3.96475 2.25 4.12375 2.29517 4.27125 2.3855C4.41858 2.476 4.53075 2.60325 4.60775 2.76725L8.5345 11.0577H15.352C15.4097 11.0577 15.4609 11.0433 15.5057 11.0145C15.5506 10.9857 15.5891 10.9456 15.6212 10.8943L19.1115 4.625C19.1757 4.50317 19.2635 4.41025 19.375 4.34625C19.4865 4.28208 19.6115 4.25 19.75 4.25C20.0372 4.25 20.2525 4.37242 20.396 4.61725C20.5397 4.86208 20.5423 5.1095 20.4038 5.3595L16.9345 11.6423C16.7705 11.9307 16.5536 12.1554 16.2837 12.3162C16.0138 12.4773 15.7179 12.5577 15.3962 12.5577H8.1L6.94225 14.673C6.89092 14.75 6.88933 14.8333 6.9375 14.923C6.9855 15.0128 7.05758 15.0577 7.15375 15.0577H17.8463C18.0589 15.0577 18.2371 15.1295 18.3808 15.273C18.5243 15.4167 18.596 15.5949 18.596 15.8077C18.596 16.0206 18.5243 16.1988 18.3808 16.3422C18.2371 16.4859 18.0589 16.5577 17.8463 16.5577H7.15375C6.48708 16.5577 5.98358 16.2727 5.64325 15.7028C5.30292 15.1329 5.29367 14.5563 5.6155 13.973L7.04225 11.4078L3.404 3.75ZM12.7905 6.75H9C8.78717 6.75 8.609 6.67817 8.4655 6.5345C8.32183 6.391 8.25 6.21283 8.25 6C8.25 5.78717 8.32183 5.609 8.4655 5.4655C8.609 5.32183 8.78717 5.25 9 5.25H12.7905L11.4578 3.91725C11.3091 3.76858 11.2373 3.59617 11.2423 3.4C11.2474 3.20383 11.3243 3.03142 11.473 2.88275C11.6218 2.74425 11.7959 2.67242 11.9952 2.66725C12.1946 2.66225 12.3686 2.73408 12.5173 2.88275L15.0115 5.36725C15.1923 5.54808 15.2828 5.759 15.2828 6C15.2828 6.241 15.1923 6.45192 15.0115 6.63275L12.5173 9.127C12.3787 9.26533 12.2089 9.3355 12.0078 9.3375C11.8064 9.33933 11.6314 9.26592 11.4827 9.11725C11.3442 8.97875 11.275 8.80475 11.275 8.59525C11.275 8.38558 11.3442 8.2115 11.4827 8.073L12.7905 6.75Z" fill="#273540"/>
</svg>
