<svg xmlns="http://www.w3.org/2000/svg" viewBox="0 0 24 24"><g transform="matrix(0.010416666666666666 0 0 0.010416666666666666 2 2)"><path d="M1559.238 1559.238c330.46-330.46 330.46-868.016 0-1198.476-330.46-330.46-868.016-330.46-1198.476 0-330.46 330.46-330.46 868.016 0 1198.476 330.46 330.46 868.016 330.46 1198.476 0ZM280.863 280.863c374.484-374.484 983.79-374.484 1358.274 0 374.484 374.484 374.484 983.79 0 1358.274-374.484 374.484-983.79 374.484-1358.274 0-374.484-374.484-374.484-983.79 0-1358.274Zm359.543 599.239-79.898-79.899L960 400.711l399.492 399.492-79.898 79.899-263.106-263.106.08 822.395H903.432l.08-822.395-263.106 263.106Z" fill-rule="evenodd"/></g>
</svg>