<svg width="24" height="24" viewBox="0 0 24 24" fill="none" xmlns="http://www.w3.org/2000/svg">
<path d="M8.94214 14.75C7.34497 14.75 5.98739 14.191 4.86939 13.073C3.75122 11.9548 3.19214 10.5972 3.19214 9C3.19214 8.72217 3.21239 8.44442 3.25289 8.16675C3.29322 7.88892 3.36081 7.62242 3.45564 7.36725C3.51981 7.21342 3.60639 7.09967 3.71539 7.026C3.82422 6.95233 3.94722 6.89883 4.08439 6.8655C4.22172 6.83217 4.35989 6.83467 4.49889 6.873C4.63806 6.9115 4.76464 6.98783 4.87864 7.102L7.54214 9.74625L9.68839 7.6L7.05364 4.95575C6.93964 4.84158 6.86339 4.71275 6.82489 4.56925C6.78639 4.42575 6.78381 4.286 6.81714 4.15C6.85047 4.01417 6.90564 3.89175 6.98264 3.78275C7.05947 3.67375 7.17164 3.58717 7.31914 3.523C7.57431 3.42183 7.83972 3.351 8.11539 3.3105C8.39089 3.27017 8.66647 3.25 8.94214 3.25C10.5395 3.25 11.8971 3.809 13.0151 4.927C14.1331 6.04517 14.6921 7.40283 14.6921 9C14.6921 9.42183 14.6524 9.81475 14.5729 10.1788C14.4934 10.5429 14.3741 10.8949 14.2151 11.2348L19.6499 16.6385C20.0691 17.056 20.2786 17.5671 20.2786 18.1718C20.2786 18.7764 20.0697 19.2884 19.6519 19.7078C19.2341 20.1269 18.7226 20.3365 18.1174 20.3365C17.5122 20.3365 17 20.1217 16.5806 19.6923L11.1769 14.273C10.8242 14.4257 10.4658 14.5433 10.1016 14.626C9.73731 14.7087 9.35081 14.75 8.94214 14.75ZM8.94214 13.25C9.37981 13.25 9.81747 13.1849 10.2551 13.0548C10.6926 12.9248 11.0928 12.7212 11.4556 12.4443L17.6654 18.654C17.7871 18.7757 17.9396 18.834 18.1229 18.829C18.3062 18.8238 18.4588 18.7603 18.5806 18.6385C18.7025 18.5167 18.7634 18.3641 18.7634 18.1807C18.7634 17.9974 18.7025 17.8448 18.5806 17.723L12.3711 11.5288C12.6518 11.1826 12.8588 10.7887 12.9921 10.347C13.1255 9.90533 13.1921 9.45633 13.1921 9C13.1921 7.891 12.796 6.90958 12.0036 6.05575C11.2113 5.20192 10.2087 4.78333 8.99589 4.8L11.1634 6.96725C11.3441 7.14808 11.4344 7.359 11.4344 7.6C11.4344 7.841 11.3441 8.05192 11.1634 8.23275L8.17489 11.2213C7.99406 11.4019 7.78314 11.4923 7.54214 11.4923C7.30114 11.4923 7.09022 11.4019 6.90939 11.2213L4.74214 9.05375C4.74464 10.3371 5.17606 11.3573 6.03639 12.1145C6.89672 12.8715 7.86531 13.25 8.94214 13.25Z" fill="#273540"/>
</svg>
