<svg width="20" height="20" viewBox="0 0 20 20" fill="none" xmlns="http://www.w3.org/2000/svg">
<path d="M9.25 9.1365V12.9423C9.25 13.1547 9.32192 13.3329 9.46575 13.4768C9.60958 13.6204 9.78775 13.6923 10.0003 13.6923C10.2129 13.6923 10.3927 13.6195 10.5395 13.474C10.6862 13.3283 10.7595 13.1479 10.7595 12.9327V9.1365L12.0922 10.4692C12.2308 10.6077 12.4048 10.6753 12.6145 10.672C12.824 10.6688 12.998 10.598 13.1365 10.4595C13.275 10.3212 13.3443 10.1467 13.3443 9.936C13.3443 9.72533 13.275 9.55183 13.1365 9.4155L10.6423 6.93075C10.4616 6.75008 10.2507 6.65975 10.0095 6.65975C9.7685 6.65975 9.55767 6.75008 9.377 6.93075L6.88275 9.425C6.74425 9.5635 6.675 9.73592 6.675 9.94225C6.675 10.1488 6.74425 10.3212 6.88275 10.4595C7.02125 10.598 7.19583 10.6673 7.4065 10.6673C7.61717 10.6673 7.79067 10.598 7.927 10.4595L9.25 9.1365ZM10.0017 19.5C8.68775 19.5 7.45267 19.2507 6.2965 18.752C5.14033 18.2533 4.13467 17.5766 3.2795 16.7218C2.42433 15.8669 1.74725 14.8617 1.24825 13.706C0.749417 12.5503 0.5 11.3156 0.5 10.0017C0.5 8.68775 0.749333 7.45267 1.248 6.2965C1.74667 5.14033 2.42342 4.13467 3.27825 3.2795C4.13308 2.42433 5.13833 1.74725 6.294 1.24825C7.44967 0.749417 8.68442 0.5 9.99825 0.5C11.3123 0.5 12.5473 0.749333 13.7035 1.248C14.8597 1.74667 15.8653 2.42342 16.7205 3.27825C17.5757 4.13308 18.2528 5.13833 18.7518 6.294C19.2506 7.44967 19.5 8.68442 19.5 9.99825C19.5 11.3123 19.2507 12.5473 18.752 13.7035C18.2533 14.8597 17.5766 15.8653 16.7218 16.7205C15.8669 17.5757 14.8617 18.2528 13.706 18.7518C12.5503 19.2506 11.3156 19.5 10.0017 19.5ZM10 18C12.2333 18 14.125 17.225 15.675 15.675C17.225 14.125 18 12.2333 18 10C18 7.76667 17.225 5.875 15.675 4.325C14.125 2.775 12.2333 2 10 2C7.76667 2 5.875 2.775 4.325 4.325C2.775 5.875 2 7.76667 2 10C2 12.2333 2.775 14.125 4.325 15.675C5.875 17.225 7.76667 18 10 18Z" fill="#273540"/>
</svg>
