<svg width="24" height="24" viewBox="0 0 24 24" fill="none" xmlns="http://www.w3.org/2000/svg">
<path d="M12 20.5C11.0065 20.5 10.0889 20.2558 9.24725 19.7673C8.40558 19.2788 7.73725 18.6063 7.24225 17.75H5.25C5.0375 17.75 4.85942 17.6781 4.71575 17.5343C4.57192 17.3904 4.5 17.2123 4.5 16.9998C4.5 16.7871 4.57192 16.609 4.71575 16.4655C4.85942 16.3218 5.0375 16.25 5.25 16.25H6.677C6.57567 15.8398 6.52083 15.4253 6.5125 15.0065C6.50417 14.5877 6.5 14.1688 6.5 13.75H5.25C5.0375 13.75 4.85942 13.6781 4.71575 13.5343C4.57192 13.3904 4.5 13.2123 4.5 12.9998C4.5 12.7871 4.57192 12.609 4.71575 12.4655C4.85942 12.3218 5.0375 12.25 5.25 12.25H6.5C6.5 11.827 6.501 11.4055 6.503 10.9855C6.50483 10.5657 6.56283 10.1538 6.677 9.75001H5.25C5.0375 9.75001 4.85942 9.67809 4.71575 9.53426C4.57192 9.39042 4.5 9.21226 4.5 8.99976C4.5 8.78709 4.57192 8.60901 4.71575 8.46551C4.85942 8.32184 5.0375 8.25001 5.25 8.25001H7.24225C7.48208 7.84101 7.76542 7.46826 8.09225 7.13176C8.41925 6.79526 8.79367 6.51159 9.2155 6.28076L8.02125 5.07126C7.88275 4.93592 7.8135 4.76684 7.8135 4.56401C7.8135 4.36117 7.88842 4.18484 8.03825 4.03501C8.17558 3.89767 8.34742 3.82901 8.55375 3.82901C8.76025 3.82901 8.93275 3.89817 9.07125 4.03651L10.6848 5.65001C11.1129 5.51934 11.5462 5.45401 11.9845 5.45401C12.423 5.45401 12.8563 5.51934 13.2845 5.65001L14.948 4.02126C15.0833 3.88276 15.2524 3.81351 15.4553 3.81351C15.6581 3.81351 15.8344 3.88843 15.9843 4.03826C16.1216 4.17559 16.1902 4.34742 16.1902 4.55376C16.1902 4.76026 16.1211 4.93276 15.9827 5.07126L14.773 6.28076C15.1948 6.51159 15.5712 6.79267 15.902 7.12401C16.2327 7.45551 16.5179 7.83084 16.7578 8.25001H18.75C18.9625 8.25001 19.1406 8.32192 19.2843 8.46576C19.4281 8.60959 19.5 8.78776 19.5 9.00026C19.5 9.21292 19.4281 9.39101 19.2843 9.53451C19.1406 9.67817 18.9625 9.75001 18.75 9.75001H17.323C17.4372 10.1538 17.4952 10.5663 17.497 10.9873C17.499 11.4081 17.5 11.829 17.5 12.25H18.75C18.9625 12.25 19.1406 12.3219 19.2843 12.4658C19.4281 12.6096 19.5 12.7878 19.5 13.0003C19.5 13.2129 19.4281 13.391 19.2843 13.5345C19.1406 13.6782 18.9625 13.75 18.75 13.75H17.5C17.5 14.1667 17.4958 14.5849 17.4875 15.0048C17.4792 15.4248 17.4243 15.8398 17.323 16.25H18.75C18.9625 16.25 19.1406 16.3219 19.2843 16.4658C19.4281 16.6096 19.5 16.7878 19.5 17.0003C19.5 17.2129 19.4281 17.391 19.2843 17.5345C19.1406 17.6782 18.9625 17.75 18.75 17.75H16.7578C16.2627 18.6063 15.5944 19.2788 14.7527 19.7673C13.9111 20.2558 12.9935 20.5 12 20.5ZM12 19C13.1 19 14.0417 18.6083 14.825 17.825C15.6083 17.0417 16 16.1 16 15V11C16 9.90001 15.6083 8.95834 14.825 8.17501C14.0417 7.39167 13.1 7.00001 12 7.00001C10.9 7.00001 9.95833 7.39167 9.175 8.17501C8.39167 8.95834 8 9.90001 8 11V15C8 16.1 8.39167 17.0417 9.175 17.825C9.95833 18.6083 10.9 19 12 19ZM10.9037 15.75H13.0962C13.3087 15.75 13.4868 15.6781 13.6305 15.5343C13.7743 15.3904 13.8462 15.2123 13.8462 14.9998C13.8462 14.7871 13.7743 14.609 13.6305 14.4655C13.4868 14.3218 13.3087 14.25 13.0962 14.25H10.9037C10.6912 14.25 10.5132 14.3219 10.3695 14.4658C10.2257 14.6096 10.1537 14.7878 10.1537 15.0003C10.1537 15.2129 10.2257 15.391 10.3695 15.5345C10.5132 15.6782 10.6912 15.75 10.9037 15.75ZM10.9037 11.75H13.0962C13.3087 11.75 13.4868 11.6781 13.6305 11.5343C13.7743 11.3904 13.8462 11.2123 13.8462 10.9998C13.8462 10.7871 13.7743 10.609 13.6305 10.4655C13.4868 10.3218 13.3087 10.25 13.0962 10.25H10.9037C10.6912 10.25 10.5132 10.3219 10.3695 10.4658C10.2257 10.6096 10.1537 10.7878 10.1537 11.0003C10.1537 11.2129 10.2257 11.391 10.3695 11.5345C10.5132 11.6782 10.6912 11.75 10.9037 11.75Z" fill="#273540"/>
</svg>
