<svg width="24" height="24" viewBox="0 0 24 24" fill="none" xmlns="http://www.w3.org/2000/svg">
<path d="M13.2308 8.75L11.4537 15.8385C11.3897 16.068 11.4341 16.2773 11.5868 16.4663C11.7396 16.6554 11.9369 16.75 12.1788 16.75C12.3571 16.75 12.5087 16.6993 12.6337 16.598C12.7587 16.4968 12.843 16.3635 12.8865 16.198L14.6902 9.048C14.7172 8.96467 14.7339 8.89125 14.7402 8.82775C14.7467 8.76442 14.75 8.69108 14.75 8.60775C14.75 8.23975 14.6176 7.9215 14.3527 7.653C14.0881 7.38433 13.7718 7.25 13.4038 7.25H10C9.7875 7.25 9.60942 7.32192 9.46575 7.46575C9.32192 7.60958 9.25 7.78775 9.25 8.00025C9.25 8.21292 9.32192 8.391 9.46575 8.5345C9.60942 8.67817 9.7875 8.75 10 8.75H13.2308ZM12.0017 21.5C10.6877 21.5 9.45267 21.2507 8.2965 20.752C7.14033 20.2533 6.13467 19.5766 5.2795 18.7218C4.42433 17.8669 3.74725 16.8617 3.24825 15.706C2.74942 14.5503 2.5 13.3156 2.5 12.0017C2.5 10.6877 2.74933 9.45267 3.248 8.2965C3.74667 7.14033 4.42342 6.13467 5.27825 5.2795C6.13308 4.42433 7.13833 3.74725 8.294 3.24825C9.44967 2.74942 10.6844 2.5 11.9983 2.5C13.3123 2.5 14.5473 2.74933 15.7035 3.248C16.8597 3.74667 17.8653 4.42342 18.7205 5.27825C19.5757 6.13308 20.2528 7.13833 20.7518 8.294C21.2506 9.44967 21.5 10.6844 21.5 11.9983C21.5 13.3123 21.2507 14.5473 20.752 15.7035C20.2533 16.8597 19.5766 17.8653 18.7218 18.7205C17.8669 19.5757 16.8617 20.2528 15.706 20.7518C14.5503 21.2506 13.3156 21.5 12.0017 21.5ZM12 20C14.2333 20 16.125 19.225 17.675 17.675C19.225 16.125 20 14.2333 20 12C20 9.76667 19.225 7.875 17.675 6.325C16.125 4.775 14.2333 4 12 4C9.76667 4 7.875 4.775 6.325 6.325C4.775 7.875 4 9.76667 4 12C4 14.2333 4.775 16.125 6.325 17.675C7.875 19.225 9.76667 20 12 20Z" fill="#273540"/>
</svg>
