<svg width="24" height="24" viewBox="0 0 24 24" fill="none" xmlns="http://www.w3.org/2000/svg">
<path d="M6.5 19.5C5.10133 19.5 3.91833 19.0163 2.951 18.049C1.98367 17.0817 1.5 15.8987 1.5 14.5C1.5 13.2487 1.90225 12.1615 2.70675 11.2385C3.51125 10.3153 4.5 9.7666 5.673 9.59226C5.70383 9.40126 5.7635 9.18235 5.852 8.93551C5.9405 8.68885 6.03858 8.4616 6.14625 8.25376L2.65775 4.76526C2.51925 4.62693 2.44842 4.45293 2.44525 4.24326C2.44208 4.0336 2.51292 3.85635 2.65775 3.71151C2.80258 3.56668 2.97825 3.49426 3.18475 3.49426C3.39108 3.49426 3.56667 3.56668 3.7115 3.71151L20.6538 20.6538C20.7923 20.7923 20.8657 20.9638 20.874 21.1683C20.8823 21.3728 20.8083 21.5533 20.6518 21.7098C20.5083 21.8533 20.3359 21.9276 20.1348 21.9328C19.9334 21.9378 19.7552 21.8678 19.6 21.723L17.3807 19.5H6.5ZM6.5 18H15.8615L7.29225 9.43076C7.20125 9.65893 7.12983 9.90768 7.078 10.177C7.026 10.4462 7 10.7205 7 11H6.5C5.53333 11 4.70833 11.3417 4.025 12.025C3.34167 12.7083 3 13.5333 3 14.5C3 15.4667 3.34167 16.2917 4.025 16.975C4.70833 17.6583 5.53333 18 6.5 18ZM21.2538 18.4038L20.1693 17.35C20.4398 17.1103 20.6458 16.8373 20.7875 16.5308C20.9292 16.2244 21 15.8808 21 15.5C21 14.8 20.7583 14.2083 20.275 13.725C19.7917 13.2417 19.2 13 18.5 13H17V11C17 9.61668 16.5125 8.43751 15.5375 7.46251C14.5625 6.48751 13.3833 6.00001 12 6.00001C11.55 6.00001 11.1167 6.05418 10.7 6.16251C10.2833 6.27085 9.88333 6.44168 9.5 6.67501L8.4155 5.58076C8.99883 5.20643 9.578 4.93276 10.153 4.75976C10.728 4.5866 11.3437 4.50001 12 4.50001C13.8107 4.50001 15.3467 5.13068 16.608 6.39201C17.8693 7.65335 18.5 9.18935 18.5 11V11.5H18.8078C19.8616 11.582 20.7404 12.0058 21.4443 12.7713C22.1481 13.5366 22.5 14.4462 22.5 15.5C22.5 16.0538 22.3958 16.5778 22.1875 17.072C21.9792 17.5663 21.6679 18.0103 21.2538 18.4038Z" fill="#273540"/>
</svg>
