<svg width="24" height="24" viewBox="0 0 24 24" fill="none" xmlns="http://www.w3.org/2000/svg">
<path d="M4.30775 19.5C3.81058 19.5 3.385 19.323 3.031 18.969C2.677 18.615 2.5 18.1894 2.5 17.6923V6.30775C2.5 5.81058 2.677 5.385 3.031 5.031C3.385 4.677 3.81058 4.5 4.30775 4.5H14.9135C15.1997 4.5 15.4708 4.56317 15.727 4.6895C15.983 4.81583 16.1938 4.9905 16.3595 5.2135L20.677 10.9057C20.9243 11.2301 21.048 11.5948 21.048 12C21.048 12.4052 20.9243 12.7699 20.677 13.0942L16.3595 18.7865C16.1938 19.0095 15.983 19.1842 15.727 19.3105C15.4708 19.4368 15.1997 19.5 14.9135 19.5H4.30775ZM4.30775 18H14.9135C14.9648 18 15.0113 17.9904 15.053 17.9712C15.0947 17.9519 15.1315 17.923 15.1635 17.8845L19.4807 12.1923C19.5256 12.1346 19.548 12.0705 19.548 12C19.548 11.9295 19.5256 11.8654 19.4807 11.8078L15.1635 6.1155C15.1315 6.077 15.0947 6.04808 15.053 6.02875C15.0113 6.00958 14.9648 6 14.9135 6H4.30775C4.21792 6 4.14417 6.02883 4.0865 6.0865C4.02883 6.14417 4 6.21792 4 6.30775V17.6923C4 17.7821 4.02883 17.8558 4.0865 17.9135C4.14417 17.9712 4.21792 18 4.30775 18Z" fill="#273540"/>
</svg>
