
<svg version="1.1" xmlns="http://www.w3.org/2000/svg" viewBox="0 0 24 24">
 <g id="Guides">
  <line id="Baseline-S" x1="0" x2="24" y1="18" y2="18"/>
  <line id="Capline-S"  x1="0" x2="24" y1="6" y2="6"/>
  <line id="Baseline-M" x1="0" x2="24" y1="18" y2="18"/>
  <line id="Capline-M"  x1="0" x2="24" y1="6" y2="6"/>
  <line id="Baseline-L" x1="0" x2="24" y1="18" y2="18"/>
  <line id="Capline-L"  x1="0" x2="24" y1="6" y2="6"/>
  <line id="left-margin" x1="0" x2="0" y1="0" y2="24"/>
  <line id="right-margin"  x1="24" x2="24" y1="0" y2="24"/>
 </g>
 <g id="Symbols">
  <g id="Regular-M">
   <rect width="24" height="24" opacity="0" />
   <g transform="matrix(0.010416666666666666 0 0 0.010416666666666666 2 2)">
     <path d="M1185.865 1694.093c45.176 0 88.093-18.07 119.716-49.694l162.633-162.633v438.206H0V0h1468.214v551.145L840.27 1179.089c-31.623 31.623-49.693 74.54-49.693 119.715v395.289h395.288zM338.819 677.637h790.576V338.82H338.82v338.818zm0 564.698h338.818v-112.94H338.82v112.94zm0-225.88h564.697V903.517H338.82v112.94zM1903.483 807.18c22.023 22.023 22.023 57.712 0 79.848l-677.638 677.637c-10.616 10.503-24.96 16.49-39.98 16.49H903.516v-282.35c0-15.02 5.986-29.364 16.49-39.867L1597.641 581.3c22.137-22.136 57.825-22.136 79.962 0l225.879 225.879zm-209.39 129.428l89.56-89.56-146.03-146.031-89.561 89.56 146.03 146.031z" stroke="none" stroke-width="1" fill-rule="evenodd"/>
   </g>
  </g>
 </g>
</svg>
