<svg width="24" height="24" viewBox="0 0 24 24" fill="none" xmlns="http://www.w3.org/2000/svg">
<path d="M18.7713 17.75H13C12.7875 17.75 12.6094 17.6781 12.4658 17.5342C12.3219 17.3904 12.25 17.2122 12.25 16.9997C12.25 16.7871 12.3219 16.609 12.4658 16.4655C12.6094 16.3218 12.7875 16.25 13 16.25H18.7713L17.4578 14.9365C17.3193 14.798 17.2484 14.6265 17.2453 14.422C17.2421 14.2177 17.3188 14.0372 17.4753 13.8805C17.6188 13.7372 17.7937 13.6655 18 13.6655C18.2063 13.6655 18.382 13.7379 18.527 13.8827L21.0115 16.3672C21.1923 16.5481 21.2828 16.759 21.2828 17C21.2828 17.241 21.1923 17.4519 21.0115 17.6327L18.527 20.1172C18.3782 20.2659 18.2041 20.3393 18.0048 20.3375C17.8054 20.3355 17.6275 20.257 17.471 20.102C17.3275 19.9468 17.2532 19.7712 17.248 19.575C17.243 19.3788 17.318 19.2032 17.473 19.048L18.7713 17.75ZM5.30775 20.5C4.81058 20.5 4.385 20.323 4.031 19.969C3.677 19.615 3.5 19.1894 3.5 18.6922V5.30774C3.5 4.81057 3.677 4.38499 4.031 4.03099C4.385 3.67699 4.81058 3.49999 5.30775 3.49999H9.7135C9.852 3.01282 10.135 2.60899 10.5625 2.28849C10.99 1.96799 11.4692 1.80774 12 1.80774C12.5513 1.80774 13.0382 1.96799 13.4605 2.28849C13.883 2.60899 14.1635 3.01282 14.302 3.49999H18.6923C19.1894 3.49999 19.615 3.67699 19.969 4.03099C20.323 4.38499 20.5 4.81057 20.5 5.30774V10.6057C20.5 10.8182 20.4281 10.9964 20.2843 11.1402C20.1404 11.2839 19.9623 11.3557 19.7498 11.3557C19.5371 11.3557 19.359 11.2839 19.2155 11.1402C19.0718 10.9964 19 10.8182 19 10.6057V5.30774C19 5.23074 18.9679 5.16024 18.9038 5.09624C18.8398 5.03207 18.7693 4.99999 18.6923 4.99999H16.5V6.71149C16.5 6.96766 16.4138 7.18232 16.2413 7.35549C16.0688 7.52866 15.855 7.61524 15.6 7.61524H8.39975C8.14475 7.61524 7.93108 7.52866 7.75875 7.35549C7.58625 7.18232 7.5 6.96766 7.5 6.71149V4.99999H5.30775C5.23075 4.99999 5.16025 5.03207 5.09625 5.09624C5.03208 5.16024 5 5.23074 5 5.30774V18.6922C5 18.7692 5.03208 18.8397 5.09625 18.9037C5.16025 18.9679 5.23075 19 5.30775 19H9.5C9.7125 19 9.89067 19.0719 10.0345 19.2157C10.1782 19.3596 10.25 19.5377 10.25 19.7502C10.25 19.9629 10.1782 20.141 10.0345 20.2845C9.89067 20.4282 9.7125 20.5 9.5 20.5H5.30775ZM12.0018 5.11549C12.2583 5.11549 12.4728 5.02866 12.6453 4.85499C12.8176 4.68149 12.9038 4.46641 12.9038 4.20974C12.9038 3.95324 12.817 3.73874 12.6435 3.56624C12.47 3.39391 12.2549 3.30774 11.9983 3.30774C11.7418 3.30774 11.5273 3.39449 11.3548 3.56799C11.1824 3.74166 11.0963 3.95674 11.0963 4.21324C11.0963 4.46974 11.183 4.68424 11.3565 4.85674C11.53 5.02924 11.7451 5.11549 12.0018 5.11549Z" fill="#273540"/>
</svg>
