
<svg version="1.1" xmlns="http://www.w3.org/2000/svg" viewBox="0 0 24 24">
 <g id="Guides">
  <line id="Baseline-S" x1="0" x2="24" y1="18" y2="18"/>
  <line id="Capline-S"  x1="0" x2="24" y1="6" y2="6"/>
  <line id="Baseline-M" x1="0" x2="24" y1="18" y2="18"/>
  <line id="Capline-M"  x1="0" x2="24" y1="6" y2="6"/>
  <line id="Baseline-L" x1="0" x2="24" y1="18" y2="18"/>
  <line id="Capline-L"  x1="0" x2="24" y1="6" y2="6"/>
  <line id="left-margin" x1="0" x2="0" y1="0" y2="24"/>
  <line id="right-margin"  x1="24" x2="24" y1="0" y2="24"/>
 </g>
 <g id="Symbols">
  <g id="Regular-M">
   <rect width="24" height="24" opacity="0" />
   <g transform="matrix(0.010416666666666666 0 0 0.010416666666666666 2 2)">
     <path d="M621.176 338.824c-93.402 0-169.411-76.01-169.411-169.412C451.765 76.009 527.775 0 621.176 0c93.403 0 169.412 76.01 169.412 169.412 0 26.09-6.437 50.484-16.94 72.62L999.98 468.255l-79.962 79.962-226.221-226.334c-22.137 10.504-46.645 16.942-72.622 16.942zM338.824 1016.47V903.529h1242.352v112.942H338.824zm0 338.823v-112.941h790.588v112.941H338.824zM917.082 225.882H1920v1129.412h-564.706V1920H0V225.882h344.47c25.977 128.753 140.048 225.883 276.706 225.883 13.553 0 27.106-1.13 39.53-3.389L920.47 708.141l239.435-239.435-242.824-242.824zm551.153 1686.675v-444.31h444.424l-444.424 444.31z" stroke="none" stroke-width="1" fill-rule="evenodd"/>
   </g>
  </g>
 </g>
</svg>
