<svg width="8" height="5" viewBox="0 0 8 5" fill="none" xmlns="http://www.w3.org/2000/svg">
<path d="M3.52025 4.174L0.369004 1.023C0.325671 0.9795 0.291504 0.930917 0.266504 0.877251C0.241504 0.823751 0.229004 0.766334 0.229004 0.705C0.229004 0.5825 0.270421 0.476 0.353254 0.3855C0.436087 0.295166 0.545254 0.25 0.680754 0.25H7.31925C7.45475 0.25 7.56392 0.295666 7.64675 0.387C7.72959 0.478166 7.771 0.584583 7.771 0.70625C7.771 0.73675 7.72425 0.842333 7.63075 1.023L4.47975 4.174C4.40742 4.2465 4.33259 4.29942 4.25525 4.33275C4.17792 4.36608 4.09284 4.38275 4 4.38275C3.90717 4.38275 3.82209 4.36608 3.74475 4.33275C3.66742 4.29942 3.59259 4.2465 3.52025 4.174Z" fill="#273540"/>
</svg>
