<svg width="24" height="24" viewBox="0 0 24 24" fill="none" xmlns="http://www.w3.org/2000/svg">
<g clip-path="url(#clip0_3740_169)">
<path d="M13.4741 0.636784C12.3829 0.22526 11.2012 0 9.96796 0C4.47277 0 0 4.47277 0 9.96796C0 15.4632 4.47277 19.9359 9.96796 19.9359C12.46 19.9359 14.7369 19.0103 16.4856 17.4923L22.9918 24L24 22.9918L17.4923 16.4856C19.0103 14.7369 19.9359 12.46 19.9359 9.96796C19.9359 9.45504 19.897 8.95103 19.8218 8.45873L18.4508 8.94239C18.4911 9.27869 18.5119 9.62094 18.5119 9.96796C18.5119 14.68 14.68 18.5119 9.96796 18.5119C5.25597 18.5119 1.424 14.68 1.424 9.96796C1.424 5.25597 5.25597 1.424 9.96796 1.424C11.0198 1.424 12.0277 1.61493 12.959 1.96396L13.4741 0.636784Z" fill="white"/>
<path d="M15.16 0L16.8814 4.65196L21.5333 6.37333L16.8814 8.09471L15.16 12.7467L13.4386 8.09471L8.78667 6.37333L13.4386 4.65196L15.16 0Z" fill="white"/>
</g>
<defs>
<clipPath id="clip0_3740_169">
<rect width="24" height="24" fill="white"/>
</clipPath>
</defs>
</svg>
