<svg width="24" height="24" viewBox="0 0 24 24" fill="none" xmlns="http://www.w3.org/2000/svg">
<path d="M5.25 14C5.0375 14 4.85942 13.9281 4.71575 13.7843C4.57192 13.6404 4.5 13.4622 4.5 13.2498C4.5 13.0371 4.57192 12.859 4.71575 12.7155C4.85942 12.5718 5.0375 12.5 5.25 12.5H10.75C10.9625 12.5 11.1407 12.5719 11.2845 12.7158C11.4282 12.8596 11.5 13.0378 11.5 13.2503C11.5 13.4629 11.4282 13.641 11.2845 13.7845C11.1407 13.9282 10.9625 14 10.75 14H5.25ZM5.25 10C5.0375 10 4.85942 9.92808 4.71575 9.78425C4.57192 9.64042 4.5 9.46225 4.5 9.24975C4.5 9.03708 4.57192 8.859 4.71575 8.7155C4.85942 8.57183 5.0375 8.5 5.25 8.5H14.75C14.9625 8.5 15.1407 8.57192 15.2845 8.71575C15.4282 8.85958 15.5 9.03775 15.5 9.25025C15.5 9.46292 15.4282 9.641 15.2845 9.7845C15.1407 9.92817 14.9625 10 14.75 10H5.25ZM5.25 6C5.0375 6 4.85942 5.92808 4.71575 5.78425C4.57192 5.64042 4.5 5.46225 4.5 5.24975C4.5 5.03708 4.57192 4.859 4.71575 4.7155C4.85942 4.57183 5.0375 4.5 5.25 4.5H14.75C14.9625 4.5 15.1407 4.57192 15.2845 4.71575C15.4282 4.85958 15.5 5.03775 15.5 5.25025C15.5 5.46292 15.4282 5.641 15.2845 5.7845C15.1407 5.92817 14.9625 6 14.75 6H5.25ZM13.1155 18.596V17.2345C13.1155 17.1168 13.1372 17.0028 13.1807 16.8925C13.2244 16.7822 13.293 16.6802 13.3865 16.5865L18.5443 11.4538C18.6686 11.3294 18.8028 11.2419 18.947 11.1913C19.0912 11.1408 19.2353 11.1155 19.3795 11.1155C19.5367 11.1155 19.6888 11.1449 19.8357 11.2038C19.9827 11.2628 20.1163 11.3512 20.2365 11.4692L21.1615 12.4037C21.2692 12.5282 21.3525 12.6629 21.4115 12.8077C21.4705 12.9526 21.5 13.0974 21.5 13.2423C21.5 13.3871 21.4731 13.5345 21.4193 13.6845C21.3654 13.8345 21.2795 13.9717 21.1615 14.096L16.0288 19.2288C15.9353 19.3224 15.8333 19.391 15.723 19.4345C15.6125 19.4782 15.4984 19.5 15.3807 19.5H14.0193C13.7631 19.5 13.5484 19.4133 13.3753 19.24C13.2021 19.0668 13.1155 18.8522 13.1155 18.596ZM14.3077 18.3077H15.2578L18.5038 15.046L18.0443 14.571L17.5788 14.102L14.3077 17.3577V18.3077ZM18.0443 14.571L17.5788 14.102L18.5038 15.046L18.0443 14.571Z" fill="#273540"/>
</svg>
