<svg width="24" height="24" viewBox="0 0 24 24" fill="none" xmlns="http://www.w3.org/2000/svg">
<path d="M4.30775 19.5C3.80258 19.5 3.375 19.325 3.025 18.975C2.675 18.625 2.5 18.1974 2.5 17.6923V6.30775C2.5 5.80258 2.675 5.375 3.025 5.025C3.375 4.675 3.80258 4.5 4.30775 4.5H9.05C9.291 4.5 9.52275 4.54683 9.74525 4.6405C9.96758 4.734 10.1608 4.86283 10.325 5.027L11.798 6.5H19.6923C20.1974 6.5 20.625 6.675 20.975 7.025C21.325 7.375 21.5 7.80258 21.5 8.30775V17.6923C21.5 18.1974 21.325 18.625 20.975 18.975C20.625 19.325 20.1974 19.5 19.6923 19.5H4.30775ZM4.30775 18H19.6923C19.7821 18 19.8558 17.9712 19.9135 17.9135C19.9712 17.8558 20 17.7821 20 17.6923V8.30775C20 8.21792 19.9712 8.14417 19.9135 8.0865C19.8558 8.02883 19.7821 8 19.6923 8H11.1845L9.27125 6.0865C9.23908 6.0545 9.20542 6.03208 9.17025 6.01925C9.13492 6.00642 9.098 6 9.0595 6H4.30775C4.21792 6 4.14417 6.02883 4.0865 6.0865C4.02883 6.14417 4 6.21792 4 6.30775V17.6923C4 17.7821 4.02883 17.8558 4.0865 17.9135C4.14417 17.9712 4.21792 18 4.30775 18ZM14.25 13.75V15C14.25 15.2128 14.3218 15.391 14.4655 15.5345C14.609 15.6782 14.7872 15.75 15 15.75C15.2128 15.75 15.391 15.6782 15.5345 15.5345C15.6782 15.391 15.75 15.2128 15.75 15V13.75H17C17.2128 13.75 17.391 13.6782 17.5345 13.5345C17.6782 13.391 17.75 13.2128 17.75 13C17.75 12.7872 17.6782 12.609 17.5345 12.4655C17.391 12.3218 17.2128 12.25 17 12.25H15.75V11C15.75 10.7872 15.6782 10.609 15.5345 10.4655C15.391 10.3218 15.2128 10.25 15 10.25C14.7872 10.25 14.609 10.3218 14.4655 10.4655C14.3218 10.609 14.25 10.7872 14.25 11V12.25H13C12.7872 12.25 12.609 12.3218 12.4655 12.4655C12.3218 12.609 12.25 12.7872 12.25 13C12.25 13.2128 12.3218 13.391 12.4655 13.5345C12.609 13.6782 12.7872 13.75 13 13.75H14.25Z" fill="#273540"/>
</svg>
