<svg width="24" height="24" viewBox="0 0 24 24" fill="none" xmlns="http://www.w3.org/2000/svg">
<path d="M6.09619 20.125C5.88369 20.125 5.70552 20.0531 5.56169 19.9093C5.41802 19.7654 5.34619 19.5872 5.34619 19.3745C5.34619 19.162 5.41802 18.9839 5.56169 18.8403C5.70552 18.6968 5.88369 18.625 6.09619 18.625H17.9037C18.1162 18.625 18.2944 18.6969 18.4382 18.8408C18.5819 18.9846 18.6537 19.1628 18.6537 19.3753C18.6537 19.5879 18.5819 19.766 18.4382 19.9095C18.2944 20.0532 18.1162 20.125 17.9037 20.125H6.09619ZM11.9999 16.5288C10.4448 16.5288 9.23102 16.0567 8.35869 15.1125C7.48619 14.1683 7.04994 12.9033 7.04994 11.3173V4.33276C7.04994 4.08043 7.14302 3.8641 7.32919 3.68376C7.51536 3.5036 7.73461 3.41351 7.98694 3.41351C8.23911 3.41351 8.45494 3.5036 8.63444 3.68376C8.81394 3.8641 8.90369 4.08043 8.90369 4.33276V11.4095C8.90369 12.4198 9.17227 13.2295 9.70944 13.8385C10.2466 14.4475 11.0101 14.752 11.9999 14.752C12.9898 14.752 13.7533 14.4475 14.2904 13.8385C14.8276 13.2295 15.0962 12.4198 15.0962 11.4095V4.33276C15.0962 4.08043 15.1893 3.8641 15.3754 3.68376C15.5616 3.5036 15.7809 3.41351 16.0332 3.41351C16.2854 3.41351 16.5012 3.5036 16.6807 3.68376C16.8602 3.8641 16.9499 4.08043 16.9499 4.33276V11.3173C16.9499 12.9033 16.5137 14.1683 15.6412 15.1125C14.7689 16.0567 13.5551 16.5288 11.9999 16.5288Z" fill="#273540"/>
</svg>
