<svg width="20" height="20" viewBox="0 0 20 20" fill="none" xmlns="http://www.w3.org/2000/svg">
<path d="M14.5577 15.5V17.5578C14.5577 17.6756 14.602 17.7787 14.6905 17.8673C14.7788 17.9557 14.882 18 15 18C15.118 18 15.2212 17.9557 15.3095 17.8673C15.398 17.7787 15.4423 17.6756 15.4423 17.5578V15.5H17.5C17.618 15.5 17.7212 15.4558 17.8095 15.3673C17.898 15.2788 17.9423 15.1756 17.9423 15.0577C17.9423 14.9397 17.898 14.8365 17.8095 14.748C17.7212 14.6597 17.618 14.6155 17.5 14.6155H15.4423V12.5577C15.4423 12.4397 15.398 12.3365 15.3095 12.248C15.2212 12.1597 15.118 12.1155 15 12.1155C14.882 12.1155 14.7788 12.1597 14.6905 12.248C14.602 12.3365 14.5577 12.4397 14.5577 12.5577V14.6155H12.5C12.382 14.6155 12.2788 14.6597 12.1905 14.748C12.102 14.8365 12.0577 14.9397 12.0577 15.0577C12.0577 15.1756 12.102 15.2788 12.1905 15.3673C12.2788 15.4558 12.382 15.5 12.5 15.5H14.5577ZM2.30775 17.5C1.81058 17.5 1.385 17.323 1.031 16.969C0.677 16.615 0.5 16.1894 0.5 15.6923V2.30775C0.5 1.81058 0.677 1.385 1.031 1.031C1.385 0.677 1.81058 0.5 2.30775 0.5H15.6923C16.1894 0.5 16.615 0.677 16.969 1.031C17.323 1.385 17.5 1.81058 17.5 2.30775V7.3655C17.5 7.578 17.4281 7.75608 17.2843 7.89975C17.1404 8.04358 16.9622 8.1155 16.7498 8.1155C16.5371 8.1155 16.359 8.04358 16.2155 7.89975C16.0718 7.75608 16 7.578 16 7.3655V2.30775C16 2.23075 15.9679 2.16025 15.9038 2.09625C15.8398 2.03208 15.7692 2 15.6923 2H2.30775C2.23075 2 2.16025 2.03208 2.09625 2.09625C2.03208 2.16025 2 2.23075 2 2.30775V15.6923C2 15.7692 2.03208 15.8398 2.09625 15.9038C2.16025 15.9679 2.23075 16 2.30775 16H7.3655C7.578 16 7.75608 16.0719 7.89975 16.2158C8.04358 16.3596 8.1155 16.5378 8.1155 16.7502C8.1155 16.9629 8.04358 17.141 7.89975 17.2845C7.75608 17.4282 7.578 17.5 7.3655 17.5H2.30775ZM2 15.0033V16V2V8.1905V8.1155V15.0033ZM4.25 12.885C4.25 13.0975 4.32192 13.2756 4.46575 13.4193C4.60942 13.5628 4.7875 13.6345 5 13.6345H7.51725C7.72975 13.6345 7.90792 13.5626 8.05175 13.4187C8.19542 13.2751 8.26725 13.0969 8.26725 12.8842C8.26725 12.6718 8.19542 12.4937 8.05175 12.35C7.90792 12.2065 7.72975 12.1348 7.51725 12.1348H5C4.7875 12.1348 4.60942 12.2066 4.46575 12.3503C4.32192 12.4941 4.25 12.6723 4.25 12.885ZM4.25 9.00025C4.25 9.21292 4.32192 9.391 4.46575 9.5345C4.60942 9.67817 4.7875 9.75 5 9.75H10.7405C10.953 9.75 11.1311 9.67808 11.2747 9.53425C11.4186 9.39042 11.4905 9.21225 11.4905 8.99975C11.4905 8.78708 11.4186 8.609 11.2747 8.4655C11.1311 8.32183 10.953 8.25 10.7405 8.25H5C4.7875 8.25 4.60942 8.32192 4.46575 8.46575C4.32192 8.60958 4.25 8.78775 4.25 9.00025ZM4.25 5.11575C4.25 5.32825 4.32192 5.50633 4.46575 5.65C4.60942 5.7935 4.7875 5.86525 5 5.86525H13C13.2125 5.86525 13.3906 5.79342 13.5343 5.64975C13.6781 5.50592 13.75 5.32767 13.75 5.115C13.75 4.9025 13.6781 4.72442 13.5343 4.58075C13.3906 4.43725 13.2125 4.3655 13 4.3655H5C4.7875 4.3655 4.60942 4.43742 4.46575 4.58125C4.32192 4.72492 4.25 4.90308 4.25 5.11575ZM15 19.5578C13.7513 19.5578 12.6892 19.1199 11.8135 18.2443C10.9378 17.3686 10.5 16.3064 10.5 15.0577C10.5 13.8091 10.9378 12.7469 11.8135 11.8713C12.6892 10.9956 13.7513 10.5577 15 10.5577C16.2487 10.5577 17.3108 10.9956 18.1865 11.8713C19.0622 12.7469 19.5 13.8091 19.5 15.0577C19.5 16.3064 19.0622 17.3686 18.1865 18.2443C17.3108 19.1199 16.2487 19.5578 15 19.5578Z" fill="#273540"/>
</svg>
