<svg width="138" height="157" viewBox="0 0 138 157" fill="none" xmlns="http://www.w3.org/2000/svg">
<g clip-path="url(#clip0_4274_29914)">
<path fill-rule="evenodd" clip-rule="evenodd" d="M38.5109 96.5713C39.3788 97.1907 40.272 97.7955 41.1848 98.3866C39.3406 103.001 34.6923 113.131 27.3689 119.231C17.6576 127.321 10.1668 116.566 11.4279 110.1C12.6035 104.069 22.4127 99.5062 38.5109 96.5713Z" fill="#2D3B45" stroke="#152633" stroke-width="2"/>
<path fill-rule="evenodd" clip-rule="evenodd" d="M63.334 155.605C31.8538 155.605 6.33398 151.576 6.33398 146.605C6.33398 141.635 31.8538 137.605 63.334 137.605C94.8142 137.605 120.334 141.635 120.334 146.605C120.334 151.576 94.8142 155.605 63.334 155.605Z" fill="black" fill-opacity="0.05"/>
<path fill-rule="evenodd" clip-rule="evenodd" d="M84.4707 95.4444C94.1656 82.2621 102.567 75.4458 108.503 77.033C114.867 78.734 121.25 90.1813 109.722 95.3635C101.028 99.2716 89.886 99.0088 84.9301 98.6435C84.799 97.5639 84.6469 96.4961 84.4707 95.4444Z" fill="#2D3B45" stroke="#152633" stroke-width="2"/>
<path fill-rule="evenodd" clip-rule="evenodd" d="M41.9954 92.8132C49.1386 95.1919 57.2909 96.4849 65.9485 96.4849C73.6655 96.4849 76.8568 92.9034 83.1588 91.1184C89.3731 96.4849 92.5028 106.716 93.1306 111.738C94.977 124.661 83.7439 135.987 63.7974 135.987C43.8508 135.987 33.4305 124.254 35.7072 112.129C37.2763 103.776 39.8056 97.4658 41.9954 92.8132Z" fill="white" stroke="#152633" stroke-width="2"/>
<path fill-rule="evenodd" clip-rule="evenodd" d="M35.6814 113.151C34.1568 123.805 42.4151 133.964 58.3016 135.895L57.9664 137.401C56.793 143.659 54.4464 146.005 50.5353 147.179C41.9309 150.307 23.1577 149.134 25.1132 141.703C27.1991 131.013 30.7219 121.495 35.6814 113.151Z" fill="#2D3B45"/>
<path fill-rule="evenodd" clip-rule="evenodd" d="M25.1132 141.703C28.2421 125.668 35.1544 116.099 35.5455 112.97C34.021 123.624 42.4151 133.964 58.3016 135.895L57.9664 137.401C56.793 143.659 54.4464 146.005 50.5353 147.179C41.9309 150.307 23.1577 149.134 25.1132 141.703Z" stroke="#152633" stroke-width="2"/>
<path fill-rule="evenodd" clip-rule="evenodd" d="M93.3021 113.151L93.3596 113.152C93.7507 116.281 100.791 125.667 103.92 141.703C105.875 149.134 87.1018 150.307 78.4975 147.178C74.5864 146.005 72.2397 143.658 71.0664 137.4L70.7476 136.097L70.7312 135.737C85.7862 133.52 94.1973 124.017 93.3021 113.151Z" fill="#2D3B45"/>
<path fill-rule="evenodd" clip-rule="evenodd" d="M93.3021 113.151C93.7507 116.281 100.791 125.667 103.92 141.703C105.875 149.134 87.1018 150.307 78.4975 147.178C74.5864 146.005 72.2397 143.658 71.0664 137.4L70.7476 136.097L70.7312 135.737C85.7862 133.52 94.1973 124.017 93.3021 113.151Z" stroke="#152633" stroke-width="2"/>
<path fill-rule="evenodd" clip-rule="evenodd" d="M110.919 53.1495C115.179 76.1401 96.6736 92.2777 68.1045 97.5704C39.5359 102.863 18.4592 93.4108 11.8577 71.9873C4.73003 48.8551 23.8208 18.0363 52.3899 12.7436C80.9587 7.45092 106.44 28.9699 110.919 53.1495Z" fill="white" stroke="#152633" stroke-width="2"/>
<path d="M61.8341 83.6055C61.3341 86.1055 65.3341 90.1055 71.3341 87.1055" stroke="#152633" stroke-width="2" stroke-linecap="round"/>
<path fill-rule="evenodd" clip-rule="evenodd" d="M67.8684 75.2702C67.483 73.1904 70.6315 70.8633 74.9 70.0723C79.1691 69.2815 82.942 70.3261 83.3275 72.4062C83.7126 74.486 80.5644 76.813 76.2957 77.6037C72.0266 78.3945 68.2536 77.3495 67.8684 75.2702Z" fill="#152633"/>
<path fill-rule="evenodd" clip-rule="evenodd" d="M43.382 84.7337L43.382 84.7337C53.4633 82.8663 62.1042 69.5642 59.8294 57.2845C57.2867 43.5579 46.6469 31.2244 37.8702 32.8505C33.5011 33.6595 28.8901 37.9236 25.6306 44.2959C22.3329 50.7427 21.0381 58.2235 22.157 64.264C24.5772 77.3276 34.1698 86.4407 43.382 84.7337Z" fill="#2D3B45" stroke="#152633" stroke-width="2"/>
<path fill-rule="evenodd" clip-rule="evenodd" d="M51.2965 56.2715C53.6217 56.5127 55.1991 59.6711 54.8199 63.3246C54.4409 66.979 52.2481 69.745 49.923 69.5037C47.5977 69.2621 46.0201 66.1047 46.3993 62.4507C46.7788 58.7966 48.9714 56.0302 51.2965 56.2715Z" fill="white"/>
<path fill-rule="evenodd" clip-rule="evenodd" d="M84.8868 63.4301C88.5693 67.2321 92.2913 68.8323 95.3511 68.3496C95.4057 68.3413 95.4571 68.3327 95.5064 68.3235C97.6914 67.9186 100.275 66.2792 101.754 64.1889C105.358 59.0941 106.379 54.0483 104.966 46.4195C102.737 34.3915 88.4223 21.0251 79.7895 22.6242C77.9178 22.971 76.5123 23.8895 75.5561 25.3783C72.7099 29.8103 73.4215 38.7988 76.8918 49.9112C78.3819 54.6851 81.2622 59.6876 84.8868 63.4301Z" fill="#2D3B45" stroke="#152633" stroke-width="2"/>
<path fill-rule="evenodd" clip-rule="evenodd" d="M91.324 53.3956C92.6866 56.0801 92.4069 58.9595 90.6986 59.8265C88.9901 60.6941 86.5008 59.2208 85.1379 56.5365C83.7749 53.8521 84.0552 50.973 85.7629 50.1057C87.471 49.2383 89.9612 50.7117 91.324 53.3956Z" fill="white"/>
<path fill-rule="evenodd" clip-rule="evenodd" d="M14.1206 43.1193C12.5685 42.7882 10.8645 42.2153 9.0896 41.265C2.26237 37.6102 1.98306 29.4619 2.01242 27.4067C2.04127 25.3511 2.65744 15.3971 10.9965 18.3622C16.382 20.2768 22.2969 24.1429 25.8136 26.6429C20.9099 31.4052 16.9423 37.0401 14.1206 43.1193Z" fill="#2D3B45" stroke="#152633" stroke-width="2"/>
<path fill-rule="evenodd" clip-rule="evenodd" d="M94.8141 21.3367C94.111 22.1497 93.385 22.8381 92.6615 23.4217C87.9985 19.6392 82.6628 16.602 76.8765 14.6023C78.9505 11.4915 82.4813 6.62602 86.1879 3.45305C91.9965 -1.51911 95.5739 6.31931 96.2337 7.96786C96.8935 9.61678 99.1897 16.2756 94.8141 21.3367Z" fill="#2D3B45" stroke="#152633" stroke-width="2"/>
<path fill-rule="evenodd" clip-rule="evenodd" d="M118.287 76.9324L111.125 97.7338L96.679 87.4716L103.841 66.6702L118.287 76.9324Z" fill="#764B9F" stroke="#152633" stroke-width="1.5" stroke-linejoin="round"/>
<path fill-rule="evenodd" clip-rule="evenodd" d="M135.989 77.7395L118.288 76.9324L103.842 66.6702L121.543 67.4772L135.989 77.7395Z" fill="#9B67CD" stroke="#152633" stroke-width="1.5" stroke-linejoin="round"/>
<path fill-rule="evenodd" clip-rule="evenodd" d="M135.989 77.7394L128.827 98.5408L111.125 97.7338L118.287 76.9324L135.989 77.7394Z" fill="#AD7ADD" stroke="#152633" stroke-width="1.5" stroke-linejoin="round"/>
</g>
<defs>
<clipPath id="clip0_4274_29914">
<rect width="137" height="156" fill="white" transform="translate(0.5 0.357178)"/>
</clipPath>
</defs>
</svg>
