<svg width="5" height="8" viewBox="0 0 5 8" fill="none" xmlns="http://www.w3.org/2000/svg">
<path d="M3.97694 7.63075L0.825938 4.47975C0.753438 4.40742 0.700521 4.33259 0.667188 4.25525C0.633854 4.17792 0.617188 4.09284 0.617188 4C0.617188 3.90717 0.633854 3.82209 0.667188 3.74475C0.700521 3.66742 0.753438 3.59259 0.825938 3.52025L3.97694 0.369005C4.02044 0.325671 4.06902 0.291504 4.12269 0.266504C4.17619 0.241504 4.2336 0.229004 4.29494 0.229004C4.41744 0.229004 4.52394 0.270421 4.61444 0.353255C4.70477 0.436088 4.74994 0.545254 4.74994 0.680754V7.31925C4.74994 7.45475 4.70427 7.56392 4.61294 7.64675C4.52177 7.72959 4.41535 7.771 4.29369 7.771C4.26319 7.771 4.1576 7.72426 3.97694 7.63075Z" fill="#273540"/>
</svg>
