<svg width="24" height="24" viewBox="0 0 24 24" fill="none" xmlns="http://www.w3.org/2000/svg">
<path d="M5.30775 20.5C4.80258 20.5 4.375 20.325 4.025 19.975C3.675 19.625 3.5 19.1974 3.5 18.6923V5.30775C3.5 4.80258 3.675 4.375 4.025 4.025C4.375 3.675 4.80258 3.5 5.30775 3.5H15.0402C15.2814 3.5 15.5132 3.54683 15.7355 3.6405C15.958 3.734 16.1512 3.86283 16.3152 4.027L19.973 7.68475C20.1372 7.84875 20.266 8.042 20.3595 8.2645C20.4532 8.48683 20.5 8.71858 20.5 8.95975V18.6923C20.5 19.1974 20.325 19.625 19.975 19.975C19.625 20.325 19.1974 20.5 18.6923 20.5H5.30775ZM5.30775 19H18.6923C18.7821 19 18.8558 18.9712 18.9135 18.9135C18.9712 18.8558 19 18.7821 19 18.6923V9H15.9038C15.6461 9 15.4311 8.91375 15.2587 8.74125C15.0862 8.56892 15 8.35392 15 8.09625V5H5.30775C5.21792 5 5.14417 5.02883 5.0865 5.0865C5.02883 5.14417 5 5.21792 5 5.30775V18.6923C5 18.7821 5.02883 18.8558 5.0865 18.9135C5.14417 18.9712 5.21792 19 5.30775 19ZM16 16.5C16.2128 16.5 16.391 16.4282 16.5345 16.2845C16.6782 16.141 16.75 15.9628 16.75 15.75C16.75 15.5372 16.6782 15.359 16.5345 15.2155C16.391 15.0718 16.2128 15 16 15H8C7.78717 15 7.609 15.0718 7.4655 15.2155C7.32183 15.359 7.25 15.5372 7.25 15.75C7.25 15.9628 7.32183 16.141 7.4655 16.2845C7.609 16.4282 7.78717 16.5 8 16.5H16ZM11.25 9C11.4628 9 11.641 8.92817 11.7845 8.7845C11.9282 8.641 12 8.46283 12 8.25C12 8.03717 11.9282 7.859 11.7845 7.7155C11.641 7.57183 11.4628 7.5 11.25 7.5H8C7.78717 7.5 7.609 7.57183 7.4655 7.7155C7.32183 7.859 7.25 8.03717 7.25 8.25C7.25 8.46283 7.32183 8.641 7.4655 8.7845C7.609 8.92817 7.78717 9 8 9H11.25ZM16 12.75C16.2128 12.75 16.391 12.6782 16.5345 12.5345C16.6782 12.391 16.75 12.2128 16.75 12C16.75 11.7872 16.6782 11.609 16.5345 11.4655C16.391 11.3218 16.2128 11.25 16 11.25H8C7.78717 11.25 7.609 11.3218 7.4655 11.4655C7.32183 11.609 7.25 11.7872 7.25 12C7.25 12.2128 7.32183 12.391 7.4655 12.5345C7.609 12.6782 7.78717 12.75 8 12.75H16Z" fill="#273540"/>
</svg>
