<svg width="24" height="24" viewBox="0 0 24 24" fill="none" xmlns="http://www.w3.org/2000/svg">
<path d="M12.0001 3.9038C11.4886 3.9038 11.053 3.72405 10.6934 3.36455C10.3337 3.00488 10.1539 2.5693 10.1539 2.0578C10.1539 1.5463 10.3337 1.11071 10.6934 0.751047C11.053 0.39138 11.4886 0.211548 12.0001 0.211548C12.5116 0.211548 12.9472 0.39138 13.3069 0.751047C13.6665 1.11071 13.8464 1.5463 13.8464 2.0578C13.8464 2.5693 13.6665 3.00488 13.3069 3.36455C12.9472 3.72405 12.5116 3.9038 12.0001 3.9038ZM9.4041 18.1923V6.71155C8.5296 6.63855 7.66452 6.54371 6.80885 6.42705C5.95302 6.31038 5.1251 6.16038 4.3251 5.97705C4.10594 5.92321 3.9281 5.8033 3.7916 5.6173C3.65494 5.43146 3.61868 5.23213 3.68285 5.0193C3.74702 4.80013 3.88035 4.64146 4.08285 4.5433C4.28535 4.4453 4.50135 4.42321 4.73085 4.47705C5.90402 4.73338 7.09894 4.91988 8.3156 5.03655C9.53227 5.15321 10.7604 5.21155 12.0001 5.21155C13.2398 5.21155 14.4679 5.15321 15.6846 5.03655C16.9013 4.91988 18.0962 4.73338 19.2694 4.47705C19.4989 4.42321 19.7149 4.4453 19.9174 4.5433C20.1199 4.64146 20.2532 4.80013 20.3174 5.0193C20.3815 5.23213 20.3453 5.43146 20.2086 5.6173C20.0721 5.8033 19.8943 5.92321 19.6751 5.97705C18.8751 6.16038 18.0472 6.31038 17.1914 6.42705C16.3357 6.54371 15.4706 6.63855 14.5961 6.71155V18.1923C14.5961 18.4051 14.5244 18.5834 14.3809 18.727C14.2372 18.8705 14.059 18.9423 13.8464 18.9423C13.6335 18.9423 13.4553 18.8705 13.3116 18.727C13.1681 18.5834 13.0964 18.4051 13.0964 18.1923V12.923H10.9039V18.1923C10.9039 18.4051 10.8321 18.5834 10.6886 18.727C10.5449 18.8705 10.3667 18.9423 10.1539 18.9423C9.94118 18.9423 9.76302 18.8705 9.61935 18.727C9.47585 18.5834 9.4041 18.4051 9.4041 18.1923ZM8.0001 23.8845C7.75527 23.8845 7.5466 23.7984 7.3741 23.626C7.20177 23.4535 7.1156 23.2449 7.1156 23C7.1156 22.7552 7.20177 22.5465 7.3741 22.374C7.5466 22.2017 7.75527 22.1155 8.0001 22.1155C8.24494 22.1155 8.4536 22.2017 8.6261 22.374C8.79844 22.5465 8.8846 22.7552 8.8846 23C8.8846 23.2449 8.79844 23.4535 8.6261 23.626C8.4536 23.7984 8.24494 23.8845 8.0001 23.8845ZM12.0001 23.8845C11.7553 23.8845 11.5466 23.7984 11.3741 23.626C11.2018 23.4535 11.1156 23.2449 11.1156 23C11.1156 22.7552 11.2018 22.5465 11.3741 22.374C11.5466 22.2017 11.7553 22.1155 12.0001 22.1155C12.2449 22.1155 12.4536 22.2017 12.6261 22.374C12.7984 22.5465 12.8846 22.7552 12.8846 23C12.8846 23.2449 12.7984 23.4535 12.6261 23.626C12.4536 23.7984 12.2449 23.8845 12.0001 23.8845ZM16.0001 23.8845C15.7553 23.8845 15.5466 23.7984 15.3741 23.626C15.2018 23.4535 15.1156 23.2449 15.1156 23C15.1156 22.7552 15.2018 22.5465 15.3741 22.374C15.5466 22.2017 15.7553 22.1155 16.0001 22.1155C16.2449 22.1155 16.4536 22.2017 16.6261 22.374C16.7984 22.5465 16.8846 22.7552 16.8846 23C16.8846 23.2449 16.7984 23.4535 16.6261 23.626C16.4536 23.7984 16.2449 23.8845 16.0001 23.8845Z" fill="#273540"/>
</svg>
