<svg xmlns="http://www.w3.org/2000/svg" viewBox="0 0 24 24"><g transform="matrix(0.010416666666666666 0 0 0.010416666666666666 2 2)"><path d="M169.412 1355.412c93.402 0 169.412 76.01 169.412 169.412s-76.01 169.411-169.412 169.411C76.009 1694.235 0 1618.225 0 1524.824c0-93.403 76.01-169.412 169.412-169.412ZM1920 1468.352v112.942H564.706v-112.941H1920ZM169.412 790.707c93.402 0 169.412 76.01 169.412 169.412s-76.01 169.411-169.412 169.411C76.009 1129.53 0 1053.52 0 960.118c0-93.403 76.01-169.412 169.412-169.412ZM1920 903.647v112.941H564.706v-112.94H1920ZM169.412 226c93.402 0 169.412 76.01 169.412 169.412s-76.01 169.412-169.412 169.412C76.009 564.824 0 488.814 0 395.412 0 302.009 76.01 226 169.412 226ZM1920 338.941v112.941H564.706v-112.94H1920Z" fill-rule="evenodd"/></g>
</svg>