<svg xmlns="http://www.w3.org/2000/svg" viewBox="0 0 24 24"><g><path fill-rule="evenodd" stroke="none" stroke-width="1" d="M169.412 226c93.402 0 169.412 76.01 169.412 169.412s-76.01 169.412-169.412 169.412C76.009 564.824 0 488.814 0 395.412 0 302.009 76.01 226 169.412 226zm395.294 225.882v-112.94H1920v112.94H564.706zM169.412 790.706c93.402 0 169.412 76.01 169.412 169.412s-76.01 169.411-169.412 169.411C76.009 1129.53 0 1053.52 0 960.118c0-93.403 76.01-169.412 169.412-169.412zm395.294 225.882v-112.94H1920v112.94H564.706zm-395.294 338.824c93.402 0 169.412 76.01 169.412 169.412s-76.01 169.411-169.412 169.411C76.009 1694.235 0 1618.225 0 1524.824c0-93.403 76.01-169.412 169.412-169.412zm395.294 225.882v-112.941H1920v112.941H564.706z" transform="matrix(0.010416666666666666 0 0 0.010416666666666666 2 2)"/></g></svg>