<svg width="24" height="24" viewBox="0 0 24 24" fill="none" xmlns="http://www.w3.org/2000/svg">
<path d="M17.7655 3.63363C17.8461 3.41597 18.1539 3.41597 18.2345 3.63363L18.7704 5.08192C18.7957 5.15035 18.8497 5.2043 18.9181 5.22962L20.3664 5.76554C20.584 5.84608 20.584 6.15392 20.3664 6.23446L18.9181 6.77038C18.8497 6.7957 18.7957 6.84965 18.7704 6.91808L18.2345 8.36637C18.1539 8.58403 17.8461 8.58403 17.7655 8.36637L17.2296 6.91808C17.2043 6.84965 17.1503 6.7957 17.0819 6.77038L15.6336 6.23446C15.416 6.15392 15.416 5.84608 15.6336 5.76554L17.0819 5.22962C17.1503 5.2043 17.2043 5.15035 17.2296 5.08192L17.7655 3.63363Z" fill="#273540"/>
<path fill-rule="evenodd" clip-rule="evenodd" d="M12 6.03416L10.7317 9.46152C10.514 10.05 10.05 10.514 9.46149 10.7318L6.03413 12L9.46149 13.2682C10.05 13.486 10.514 13.95 10.7317 14.5385L12 17.9658L13.2682 14.5385C13.486 13.95 13.95 13.486 14.5385 13.2682L17.9658 12L14.5385 10.7318C13.95 10.514 13.486 10.05 13.2682 9.46152L12 6.03416ZM12.7034 3.90089C12.4617 3.24792 11.5382 3.24792 11.2966 3.90089L9.41875 8.97567C9.34278 9.18096 9.18093 9.34282 8.97564 9.41878L3.90086 11.2966C3.24789 11.5382 3.24789 12.4618 3.90086 12.7034L8.97564 14.5812C9.18093 14.6572 9.34278 14.8191 9.41875 15.0243L11.2966 20.0991C11.5382 20.7521 12.4617 20.7521 12.7034 20.0991L14.5812 15.0243C14.6572 14.8191 14.819 14.6572 15.0243 14.5812L20.0991 12.7034C20.7521 12.4618 20.7521 11.5382 20.0991 11.2966L15.0243 9.41878C14.819 9.34282 14.6572 9.18096 14.5812 8.97567L12.7034 3.90089Z" fill="#273540"/>
</svg>
