<svg width="24" height="24" viewBox="0 0 24 24" fill="none" xmlns="http://www.w3.org/2000/svg">
<path d="M4.30775 19.5C3.80258 19.5 3.375 19.325 3.025 18.975C2.675 18.625 2.5 18.1974 2.5 17.6923V6.30775C2.5 5.80258 2.675 5.375 3.025 5.025C3.375 4.675 3.80258 4.5 4.30775 4.5H19.6923C20.1974 4.5 20.625 4.675 20.975 5.025C21.325 5.375 21.5 5.80258 21.5 6.30775V17.6923C21.5 18.1974 21.325 18.625 20.975 18.975C20.625 19.325 20.1974 19.5 19.6923 19.5H4.30775ZM20 7.44225L12.4865 12.252C12.4097 12.2955 12.3302 12.3298 12.248 12.3548C12.166 12.3798 12.0833 12.3923 12 12.3923C11.9167 12.3923 11.834 12.3798 11.752 12.3548C11.6698 12.3298 11.5903 12.2955 11.5135 12.252L4 7.44225V17.6923C4 17.7821 4.02883 17.8558 4.0865 17.9135C4.14417 17.9712 4.21792 18 4.30775 18H19.6923C19.7821 18 19.8558 17.9712 19.9135 17.9135C19.9712 17.8558 20 17.7821 20 17.6923V7.44225ZM12 11L19.8463 6H4.15375L12 11ZM4 7.673V6.52975V6.5595V6.52775V7.673Z" fill="#273540"/>
</svg>
