<svg width="124" height="18" viewBox="0 0 124 18" fill="none" xmlns="http://www.w3.org/2000/svg">
<path d="M23.4502 15.2521V2.1958H25.6224V15.2521H23.4502Z" fill="#2A7BA0"/>
<path d="M29.4292 15.2521V2.1958H31.6014L34.3341 10.2772V2.1958H36.3194V15.2521H34.264L31.4145 6.75032V15.2521H29.4292Z" fill="#2A7BA0"/>
<path d="M55.4251 4.0876H53.2529V15.252H51.0808V4.0876H48.8853V2.17236H55.4251V4.0876Z" fill="#2A7BA0"/>
<path d="M63.3199 15.2521L61.6616 10.0436H60.5872V15.2521H58.415V2.1958H61.8017C63.7871 2.1958 65.095 2.98991 65.095 4.95186V7.28753C65.095 8.54878 64.5812 9.31956 63.6703 9.71662L65.5388 15.2521H63.3199ZM60.5872 8.17507H61.7317C62.4324 8.17507 62.9229 7.91816 62.9229 6.98389V5.27886C62.9229 4.34459 62.4324 4.08768 61.7317 4.08768H60.5872V8.17507Z" fill="#2A7BA0"/>
<path d="M75.1848 12.6361C75.1848 14.6448 73.9235 15.3922 71.9382 15.3922H71.8681C69.8828 15.3922 68.6216 14.6681 68.6216 12.6361V2.17236H70.7937V12.2858C70.7937 13.22 71.2142 13.4769 71.9149 13.4769C72.6156 13.4769 73.036 13.22 73.036 12.2858V2.17236H75.2081V12.6361H75.1848Z" fill="#2A7BA0"/>
<path d="M85.415 12.6356C85.415 14.6443 84.107 15.3917 82.1217 15.3917H82.075C80.0897 15.3917 78.7817 14.6676 78.7817 12.6356V4.7878C78.7817 2.84921 80.0897 2.03174 82.075 2.03174H82.1217C84.107 2.03174 85.415 2.84921 85.415 4.7878V6.30597H83.2428V5.13816C83.2428 4.22724 82.7991 3.94698 82.0984 3.94698C81.3977 3.94698 80.9539 4.22724 80.9539 5.13816V12.3086C80.9539 13.2195 81.3977 13.4998 82.0984 13.4998C82.7991 13.4998 83.2428 13.2195 83.2428 12.3086V10.8138H85.415V12.6356Z" fill="#2A7BA0"/>
<path d="M94.7107 4.0876H92.5151V15.252H90.343V4.0876H88.1475V2.17236H94.6873V4.0876H94.7107Z" fill="#2A7BA0"/>
<path d="M104.217 12.6361C104.217 14.6448 102.956 15.3922 100.97 15.3922H100.9C98.9151 15.3922 97.6538 14.6681 97.6538 12.6361V2.17236H99.826V12.2858C99.826 13.22 100.246 13.4769 100.947 13.4769C101.648 13.4769 102.068 13.22 102.068 12.2858V2.17236H104.24V12.6361H104.217Z" fill="#2A7BA0"/>
<path d="M112.836 15.2521L111.177 10.0436H110.103V15.2521H107.931V2.1958H111.317C113.303 2.1958 114.611 2.98991 114.611 4.95186V7.28753C114.611 8.54878 114.097 9.31956 113.186 9.71662L115.054 15.2521H112.836ZM110.079 8.17507H111.224C111.925 8.17507 112.415 7.91816 112.415 6.98389V5.27886C112.415 4.34459 111.925 4.08768 111.224 4.08768H110.079V8.17507Z" fill="#2A7BA0"/>
<path d="M44.1203 5.979V5.02137C44.1203 4.20389 43.6532 3.90027 43.0225 3.90027C42.3919 3.90027 41.9248 4.20389 41.9248 5.02137V5.90893C41.9248 6.58627 42.1583 6.8899 42.7656 7.24025L44.3071 8.10443C45.5684 8.80513 46.3158 9.38906 46.3158 10.7905V12.6823C46.3158 14.691 45.0545 15.415 43.0926 15.415H43.0459C41.0606 15.415 39.8227 14.7144 39.8227 12.6823V11.2809H41.9481V12.3787C41.9481 13.1728 42.4153 13.5465 43.0692 13.5465C43.7232 13.5465 44.1904 13.1962 44.1904 12.3787V11.351C44.1904 10.6737 43.9801 10.3467 43.3262 9.99632L41.808 9.13214C40.5467 8.40808 39.7993 7.8008 39.7993 6.44612V4.71776C39.7993 2.77916 41.2241 2.03174 42.9992 2.03174H43.0459C44.8443 2.03174 46.2457 2.77916 46.2457 4.71776V5.979H44.1203Z" fill="#2A7BA0"/>
<path d="M123.369 7.66116V9.57639H120.38V13.3368H124V15.2287H118.208V2.17236H123.93V4.0876H120.38V7.66116H123.369Z" fill="#2A7BA0"/>
<path d="M15.6022 13.1728L7.80109 17.5638L0 13.1728L7.80109 8.78174L15.6022 13.1728Z" fill="#2A7BA0"/>
<path d="M3.90055 6.58683L7.80109 4.39132L3.90055 2.1958L0 4.39132L3.90055 6.58683Z" fill="#FBCC15"/>
<path d="M7.80094 4.39104L11.7015 2.19552L7.80094 0L3.90039 2.19552L7.80094 4.39104Z" fill="#F78F21"/>
<path d="M11.7018 6.58683L15.6024 4.39132L11.7018 2.1958L7.80127 4.39132L11.7018 6.58683Z" fill="#E9262A"/>
</svg>
