<svg width="375" height="53" viewBox="0 0 375 53" fill="none" xmlns="http://www.w3.org/2000/svg">
<g clip-path="url(#clip0_10323_42300)">
<path d="M374.9 45.7101C374.9 49.2301 372.05 52.0801 368.53 52.0801C365.01 52.0801 362.17 49.2301 362.17 45.7201C362.17 42.2001 365.02 39.3501 368.53 39.3501C372.05 39.3501 374.9 42.2001 374.9 45.7101Z" fill="#FF3653"/>
<path d="M248.95 21.1V11.7H241.07V0H231.51V5.49C231.51 8.99 229.6 11.7 225.46 11.7H222.78V11.84C225.85 14.52 227.89 17.86 229 21.1H230.55V39.34C230.55 46.91 235.33 51.44 242.97 51.44C246.08 51.44 247.99 50.88 248.94 50.48V41.72C248.38 41.88 246.95 42.04 245.68 42.04C242.65 42.04 241.06 40.92 241.06 37.5V21.1H248.95Z" fill="white"/>
<path d="M359.43 39.66C357.44 46.43 351.23 52.08 341.59 52.08C330.84 52.08 321.36 44.36 321.36 31.14C321.36 18.64 330.6 10.52 340.63 10.52C352.73 10.52 359.98 18.24 359.98 30.83C359.98 32.34 359.82 33.94 359.82 34.09H331.79C332.03 39.27 336.41 43.01 341.66 43.01C346.6 43.01 349.3 40.54 350.58 37.04L359.42 39.67H359.43V39.66ZM349.55 26.84C349.39 22.94 346.84 19.12 340.79 19.12C335.3 19.12 332.27 23.26 332.03 26.84H349.55Z" fill="white"/>
<path d="M196.47 31.1401C196.47 38.2301 201.09 42.2101 206.5 42.2101C211.91 42.2101 214.62 38.6301 215.5 35.6001L224.82 38.7101C223.07 45.2401 216.94 51.9301 206.5 51.9301C194.95 51.9301 185.88 43.1701 185.88 31.1501C185.88 19.1301 194.8 10.3701 206.19 10.3701C216.86 10.3701 222.91 16.9801 224.58 23.5901L215.1 26.7801C214.14 23.5201 211.67 20.1701 206.42 20.1701C201.17 20.1701 196.47 24.0701 196.47 31.1601V31.1401Z" fill="white"/>
<path d="M279.55 46.66C277.4 50.32 272.86 51.92 268.72 51.92C259.24 51.92 253.83 44.99 253.83 36.47V11.71H264.42V34.33C264.42 38.71 266.65 42.21 271.59 42.21C276.53 42.21 278.99 39.02 278.99 34.49V11.71H289.58V43.8C289.58 46.83 289.82 49.53 289.98 50.89H279.87C279.71 50.09 279.55 48.26 279.55 46.67V46.66Z" fill="white"/>
<path d="M320.72 22.2199C319.53 21.9799 318.49 21.8999 317.54 21.8999C312.13 21.8999 307.43 24.5299 307.43 32.9699V50.8899H296.84V11.7099H307.11V17.5199C309.5 12.3399 314.91 11.3899 318.26 11.3899C319.14 11.3899 319.93 11.4699 320.73 11.5499V22.2199H320.72Z" fill="white"/>
<path d="M142.68 22.2199C141.49 21.9799 140.45 21.8999 139.5 21.8999C134.09 21.8999 129.39 24.5299 129.39 32.9699V50.8899H118.8V11.7099H129.07V17.5199C131.46 12.3399 136.87 11.3899 140.22 11.3899C141.1 11.3899 141.89 11.4699 142.69 11.5499V22.2199H142.68Z" fill="white"/>
<path d="M172.52 46.66C170.37 50.32 165.83 51.92 161.69 51.92C152.21 51.92 146.8 44.99 146.8 36.47V11.71H157.39V34.33C157.39 38.71 159.62 42.21 164.56 42.21C169.5 42.21 171.96 39.02 171.96 34.49V11.71H182.55V43.8C182.55 46.83 182.79 49.53 182.95 50.89H172.84C172.68 50.09 172.52 48.26 172.52 46.67V46.66Z" fill="white"/>
<path d="M113.86 21.1V11.7H105.98V0H96.42V5.49C96.42 8.99 94.51 11.7 90.37 11.7H88.48C91.43 14.69 92.79 18.33 93.15 21.1H95.47V39.34C95.47 46.91 100.25 51.44 107.89 51.44C111 51.44 112.91 50.88 113.86 50.48V41.72C113.3 41.88 111.87 42.04 110.6 42.04C107.57 42.04 105.98 40.92 105.98 37.5V21.1H113.86Z" fill="white"/>
<path d="M66.8901 37.98C67.1301 41.09 69.4401 43.95 74.0601 43.95C77.5601 43.95 79.2401 42.12 79.2401 40.05C79.2401 38.3 78.0501 36.87 75.0201 36.23L69.8401 35.04C62.2801 33.37 58.8501 28.83 58.8501 23.33C58.8501 16.32 65.0601 10.51 73.5001 10.51C84.6501 10.51 88.3901 17.6 88.8701 21.82L80.0301 23.81C79.7101 21.5 78.0401 18.55 73.5801 18.55C70.7901 18.55 68.5601 20.22 68.5601 22.45C68.5601 24.36 69.9901 25.56 72.1401 25.95L77.7101 27.14C85.4301 28.73 89.3401 33.43 89.3401 39.16C89.3401 45.53 84.4001 52.06 74.1301 52.06C62.3401 52.06 58.2801 44.42 57.8101 39.96L66.8901 37.97V37.98Z" fill="white"/>
<path d="M10.59 1.97998H0V50.88H10.59V1.97998Z" fill="white"/>
<path d="M28.4298 50.8799H17.8398V11.7099H28.1098V16.5699C30.4998 12.5099 35.1998 10.6799 39.4198 10.6799C49.1398 10.6799 53.5898 17.6099 53.5898 26.2099V50.8999H42.9998V28.0499C42.9998 23.6699 40.8498 20.2499 35.7498 20.2499C31.1298 20.2499 28.4198 23.8299 28.4198 28.3699V50.9099V50.8799H28.4298Z" fill="white"/>
</g>
<defs>
<clipPath id="clip0_10323_42300">
<rect width="374.89" height="52.08" fill="white"/>
</clipPath>
</defs>
</svg>
