<svg width="24" height="24" viewBox="0 0 24 24" fill="none" xmlns="http://www.w3.org/2000/svg">
<g clip-path="url(#clip0_3377_132)">
<path fill-rule="evenodd" clip-rule="evenodd" d="M16.5803 15.747L22 21.1615L21.1608 22.0007L15.7464 16.581C14.288 17.8472 12.3855 18.6145 10.3068 18.6145C5.72591 18.6145 2 14.8878 2 10.3077C2 5.72674 5.72591 2 10.3068 2C14.8878 2 18.6137 5.72674 18.6137 10.3077C18.6137 12.386 17.8465 14.2886 16.5803 15.747ZM3.18669 10.3077C3.18669 14.2336 6.38093 17.4278 10.3068 17.4278C14.2328 17.4278 17.427 14.2336 17.427 10.3077C17.427 6.38093 14.2328 3.18669 10.3068 3.18669C6.38093 3.18669 3.18669 6.38093 3.18669 10.3077Z" fill="white"/>
<path fill-rule="evenodd" clip-rule="evenodd" d="M4.69649 9.27765C4.62353 9.25042 4.54939 9.22556 4.47415 9.20318C4.37934 9.17497 4.28279 9.15069 4.18469 9.13051C4.16879 9.12724 4.15282 9.12407 4.13684 9.12102C4.12297 9.11837 4.1088 9.11576 4.09483 9.11325C3.96839 9.09071 3.96839 8.90928 4.09483 8.88674C4.1088 8.88424 4.12271 8.88167 4.13658 8.87902C4.15257 8.87597 4.16877 8.87276 4.18467 8.86949C4.28277 8.84931 4.37934 8.82502 4.47415 8.79682C4.54939 8.77443 4.62353 8.74958 4.69649 8.72234C4.83043 8.67235 4.96038 8.61434 5.08575 8.5489C5.21641 8.48069 5.34208 8.40443 5.46212 8.32071C5.79664 8.0875 6.08752 7.79662 6.32072 7.46213C6.40442 7.34207 6.48071 7.2164 6.54889 7.08576C6.61434 6.96039 6.67235 6.83044 6.72235 6.69649C6.74958 6.62353 6.77443 6.54939 6.79682 6.47414C6.82502 6.37934 6.8493 6.28279 6.86947 6.18469C6.87276 6.16873 6.87594 6.15271 6.879 6.13666C6.88164 6.12282 6.88427 6.10874 6.88673 6.09485C6.9093 5.96838 7.0907 5.96838 7.11327 6.09485C7.11574 6.10874 7.11829 6.1226 7.12093 6.13643C7.124 6.15248 7.12722 6.16871 7.1305 6.18467C7.15068 6.28277 7.17497 6.37934 7.20318 6.47415C7.22557 6.54939 7.25042 6.62353 7.27765 6.69649C7.32764 6.83044 7.38565 6.96039 7.45109 7.08576C7.5193 7.2164 7.59559 7.34207 7.67928 7.46213C7.91249 7.79662 8.20337 8.0875 8.53788 8.32071C8.65792 8.40443 8.7836 8.48069 8.91423 8.5489C9.03961 8.61434 9.16957 8.67235 9.30352 8.72234C9.37647 8.74957 9.45061 8.77443 9.52585 8.79681C9.62066 8.82502 9.71721 8.84931 9.81532 8.86948C9.83118 8.87274 9.8471 8.8759 9.86304 8.87895C9.87693 8.8816 9.8912 8.88424 9.90515 8.88674C10.0316 8.90928 10.0316 9.09071 9.90515 9.11325C9.8912 9.11576 9.87729 9.11832 9.8634 9.12097C9.84746 9.12402 9.8312 9.12724 9.81534 9.13051C9.71724 9.15068 9.62066 9.17497 9.52585 9.20318C9.45061 9.22556 9.37647 9.25042 9.30352 9.27765C9.16957 9.32765 9.03961 9.38566 8.91423 9.4511C8.7836 9.51931 8.65792 9.59557 8.53788 9.67929C8.20337 9.9125 7.91249 10.2034 7.67928 10.5379C7.59559 10.6579 7.5193 10.7836 7.45109 10.9142C7.38565 11.0396 7.32764 11.1696 7.27765 11.3035C7.25042 11.3765 7.22557 11.4506 7.20318 11.5259C7.17498 11.6207 7.15069 11.7172 7.13051 11.8153C7.12722 11.8313 7.12404 11.8473 7.12098 11.8633C7.11833 11.8772 7.11574 11.8913 7.11327 11.9051C7.0907 12.0316 6.9093 12.0316 6.88673 11.9051C6.88426 11.8913 6.88168 11.8774 6.87904 11.8635C6.87597 11.8475 6.87276 11.8313 6.86947 11.8153L6.79681 11.5259C6.77443 11.4506 6.74958 11.3765 6.72235 11.3035C6.67235 11.1696 6.61434 11.0396 6.54889 10.9142C6.48071 10.7836 6.40442 10.6579 6.32072 10.5379C6.08752 10.2034 5.79664 9.9125 5.46212 9.67929C5.34208 9.59557 5.21641 9.51931 5.08575 9.4511C4.96038 9.38566 4.83043 9.32765 4.69649 9.27765ZM5.35584 9C5.49664 9.07488 5.63245 9.15801 5.76246 9.24868C6.14776 9.51731 6.48276 9.85232 6.75138 10.2376C6.84195 10.3675 6.92508 10.5033 6.99999 10.6441C7.07492 10.5033 7.158 10.3676 7.24859 10.2376C7.51721 9.85237 7.85224 9.51731 8.23755 9.24868C8.36757 9.158 8.50338 9.07488 8.64415 9C8.50338 8.92512 8.36766 8.84206 8.23764 8.75138C7.85233 8.48275 7.51723 8.14765 7.24861 7.76237C7.15801 7.63241 7.07492 7.4967 6.99999 7.35585C6.92507 7.49673 6.84198 7.63244 6.7514 7.76237C6.48278 8.14765 6.14776 8.48268 5.76246 8.75131C5.63245 8.84199 5.49664 8.92511 5.35584 9Z" fill="white"/>
<path fill-rule="evenodd" clip-rule="evenodd" d="M0.928651 20.3702C0.831375 20.3339 0.732515 20.3008 0.632195 20.2709C0.505785 20.2333 0.377057 20.2009 0.246256 20.174C0.225055 20.1697 0.203767 20.1654 0.182458 20.1614C0.163954 20.1578 0.145064 20.1543 0.126442 20.151C-0.0421473 20.1209 -0.0421473 19.879 0.126442 19.849C0.145064 19.8456 0.163608 19.8422 0.182112 19.8387C0.203421 19.8346 0.225022 19.8303 0.246223 19.826C0.377024 19.7991 0.505785 19.7667 0.632195 19.7291C0.732515 19.6992 0.831375 19.6661 0.928651 19.6298C1.10725 19.5631 1.2805 19.4858 1.44766 19.3985C1.62188 19.3076 1.78944 19.2059 1.9495 19.0943C2.39551 18.7833 2.78336 18.3955 3.0943 17.9495C3.20589 17.7894 3.30761 17.6219 3.39851 17.4477C3.48579 17.2805 3.56314 17.1073 3.6298 16.9287C3.66611 16.8314 3.69924 16.7325 3.72909 16.6322C3.76669 16.5058 3.79907 16.3771 3.82597 16.2463C3.83034 16.225 3.83458 16.2036 3.83867 16.1822C3.84219 16.1638 3.84569 16.145 3.84898 16.1265C3.87907 15.9578 4.12094 15.9578 4.15103 16.1265C4.15432 16.145 4.15772 16.1635 4.16124 16.1819C4.16533 16.2033 4.16962 16.2249 4.174 16.2462C4.20091 16.377 4.2333 16.5058 4.27091 16.6322C4.30076 16.7325 4.33389 16.8314 4.3702 16.9287C4.43686 17.1073 4.5142 17.2805 4.60145 17.4477C4.6924 17.6219 4.79411 17.7894 4.90571 17.9495C5.21665 18.3955 5.60449 18.7833 6.05051 19.0943C6.21056 19.2059 6.37813 19.3076 6.55231 19.3985C6.71948 19.4858 6.89276 19.5631 7.07136 19.6298C7.16863 19.6661 7.26749 19.6992 7.3678 19.7291C7.49422 19.7667 7.62295 19.7991 7.75375 19.826C7.7749 19.8303 7.79613 19.8345 7.81739 19.8386C7.8359 19.8421 7.85494 19.8456 7.87353 19.849C8.04216 19.879 8.04216 20.1209 7.87353 20.151C7.85494 20.1543 7.83638 20.1578 7.81787 20.1613C7.79662 20.1654 7.77493 20.1697 7.75379 20.174C7.62298 20.2009 7.49422 20.2333 7.3678 20.2709C7.26749 20.3008 7.16863 20.3339 7.07136 20.3702C6.89276 20.4369 6.71948 20.5142 6.55231 20.6015C6.37813 20.6924 6.21056 20.7941 6.05051 20.9057C5.60449 21.2167 5.21665 21.6045 4.90571 22.0505C4.79411 22.2106 4.6924 22.3781 4.60145 22.5523C4.5142 22.7195 4.43686 22.8927 4.3702 23.0713C4.33389 23.1686 4.30076 23.2675 4.27091 23.3678C4.2333 23.4942 4.20092 23.623 4.17401 23.7538C4.16963 23.775 4.16539 23.7964 4.1613 23.8178C4.15778 23.8362 4.15432 23.855 4.15103 23.8735C4.12094 24.0422 3.87907 24.0422 3.84898 23.8735C3.84569 23.855 3.84224 23.8365 3.83872 23.8181C3.83463 23.7967 3.83034 23.775 3.82597 23.7538L3.72909 23.3678C3.69924 23.2675 3.66611 23.1686 3.6298 23.0713C3.56314 22.8927 3.48579 22.7195 3.39851 22.5523C3.30761 22.3781 3.20589 22.2106 3.0943 22.0505C2.78336 21.6045 2.39551 21.2167 1.9495 20.9057C1.78944 20.7941 1.62188 20.6924 1.44766 20.6015C1.2805 20.5142 1.10725 20.4369 0.928651 20.3702ZM1.80778 20C1.99552 20.0998 2.1766 20.2107 2.34994 20.3316C2.86369 20.6898 3.31035 21.1364 3.66851 21.6501C3.78927 21.8234 3.9001 22.0044 3.99999 22.1922C4.09989 22.0044 4.21067 21.8235 4.33145 21.6502C4.68961 21.1365 5.13632 20.6898 5.65006 20.3316C5.82343 20.2107 6.00451 20.0998 6.19219 20C6.00451 19.9002 5.82355 19.7894 5.65019 19.6685C5.13644 19.3103 4.68963 18.8635 4.33147 18.3498C4.21068 18.1766 4.09989 17.9956 3.99999 17.8078C3.90009 17.9956 3.7893 18.1766 3.66853 18.3498C3.31037 18.8635 2.86369 19.3102 2.34994 19.6684C2.1766 19.7893 1.99551 19.9001 1.80778 20Z" fill="white"/>
<path fill-rule="evenodd" clip-rule="evenodd" d="M18.4643 4.1851C18.4157 4.16695 18.3663 4.15037 18.3161 4.13545C18.2529 4.11665 18.1885 4.10046 18.1231 4.08701C18.1125 4.08483 18.1019 4.08272 18.0912 4.08068C18.082 4.07891 18.0725 4.07717 18.0632 4.0755C17.9789 4.06048 17.9789 3.93952 18.0632 3.92449C18.0725 3.92283 18.0818 3.92112 18.0911 3.91935C18.1017 3.91731 18.1125 3.91517 18.1231 3.91299C18.1885 3.89954 18.2529 3.88335 18.3161 3.86454C18.3663 3.84962 18.4157 3.83305 18.4643 3.8149C18.5536 3.78156 18.6403 3.74289 18.7238 3.69926C18.8109 3.65379 18.8947 3.60295 18.9747 3.54714C19.1978 3.39167 19.3917 3.19775 19.5471 2.97475C19.6029 2.89472 19.6538 2.81094 19.6993 2.72384C19.7429 2.64026 19.7816 2.55363 19.8149 2.46433C19.8331 2.41569 19.8496 2.36626 19.8645 2.3161C19.8833 2.25289 19.8995 2.18853 19.913 2.12313C19.9152 2.11248 19.9173 2.1018 19.9193 2.0911C19.9211 2.08188 19.9228 2.07249 19.9245 2.06323C19.9395 1.97892 20.0605 1.97892 20.0755 2.06323C20.0772 2.07249 20.0789 2.08174 20.0806 2.09096C20.0827 2.10165 20.0848 2.11247 20.087 2.12311C20.1005 2.18852 20.1166 2.25289 20.1355 2.3161C20.1504 2.36626 20.1669 2.41569 20.1851 2.46433C20.2184 2.55363 20.2571 2.64026 20.3007 2.72384C20.3462 2.81094 20.3971 2.89472 20.4529 2.97475C20.6083 3.19775 20.8022 3.39167 21.0253 3.54714C21.1053 3.60295 21.1891 3.65379 21.2762 3.69926C21.3597 3.74289 21.4464 3.78156 21.5357 3.8149C21.5843 3.83305 21.6337 3.84962 21.6839 3.86454C21.7471 3.88335 21.8115 3.89954 21.8769 3.91299C21.8875 3.91516 21.8981 3.91727 21.9087 3.9193C21.918 3.92107 21.9275 3.92282 21.9368 3.92449C22.0211 3.93952 22.0211 4.06048 21.9368 4.0755C21.9275 4.07717 21.9182 4.07888 21.9089 4.08065C21.8983 4.08268 21.8875 4.08483 21.8769 4.087C21.8115 4.10045 21.7471 4.11665 21.6839 4.13545C21.6337 4.15038 21.5843 4.16695 21.5357 4.1851C21.4464 4.21843 21.3597 4.2571 21.2762 4.30073C21.1891 4.3462 21.1053 4.39704 21.0253 4.45286C20.8022 4.60833 20.6083 4.80225 20.4529 5.02524C20.3971 5.10529 20.3462 5.18907 20.3007 5.27616C20.2571 5.35974 20.2184 5.44637 20.1851 5.53567C20.1669 5.58431 20.1504 5.63374 20.1355 5.6839C20.1167 5.74711 20.1005 5.81148 20.087 5.87688C20.0848 5.88752 20.0827 5.8982 20.0807 5.9089C20.0789 5.91812 20.0772 5.9275 20.0755 5.93676C20.0605 6.02108 19.9395 6.02108 19.9245 5.93676C19.9228 5.9275 19.9211 5.91826 19.9194 5.90903C19.9173 5.89833 19.9152 5.88752 19.913 5.87688L19.8645 5.6839C19.8496 5.63374 19.8331 5.58431 19.8149 5.53567C19.7816 5.44637 19.7429 5.35974 19.6993 5.27616C19.6538 5.18907 19.6029 5.10529 19.5471 5.02524C19.3917 4.80225 19.1978 4.60833 18.9747 4.45286C18.8947 4.39704 18.8109 4.3462 18.7238 4.30073C18.6403 4.2571 18.5536 4.21843 18.4643 4.1851ZM18.9039 4C18.9978 4.04992 19.0883 4.10534 19.175 4.16579C19.4318 4.34488 19.6552 4.56822 19.8343 4.82506C19.8946 4.91169 19.9501 5.00219 20 5.0961C20.0499 5.0022 20.1053 4.91173 20.1657 4.8251C20.3448 4.56825 20.5682 4.34488 20.825 4.16579C20.9117 4.10533 21.0023 4.04992 21.0961 4C21.0023 3.95008 20.9118 3.89471 20.8251 3.83425C20.5682 3.65516 20.3448 3.43177 20.1657 3.17491C20.1053 3.08828 20.0499 2.9978 20 2.9039C19.95 2.99782 19.8946 3.08829 19.8343 3.17491C19.6552 3.43177 19.4318 3.65512 19.175 3.83421C19.0883 3.89466 18.9978 3.95007 18.9039 4Z" fill="white"/>
</g>
<defs>
<clipPath id="clip0_3377_132">
<rect width="24" height="24" fill="white"/>
</clipPath>
</defs>
</svg>
