<svg width="20" height="20" viewBox="0 0 20 20" fill="none" xmlns="http://www.w3.org/2000/svg">
<path d="M9.19425 10.75H13C13.2125 10.75 13.3906 10.6781 13.5343 10.5343C13.6781 10.3904 13.75 10.2122 13.75 9.99975C13.75 9.78708 13.6781 9.609 13.5343 9.4655C13.3906 9.32183 13.2125 9.25 13 9.25H9.19425L10.527 7.91725C10.6653 7.78092 10.7345 7.60742 10.7345 7.39675C10.7345 7.18608 10.6653 7.0115 10.527 6.873C10.3885 6.73467 10.2139 6.6655 10.0033 6.6655C9.79258 6.6655 9.61908 6.73467 9.48275 6.873L6.9885 9.36725C6.80767 9.54808 6.71725 9.759 6.71725 10C6.71725 10.241 6.80767 10.4519 6.9885 10.6328L9.48275 13.127C9.62125 13.2653 9.79525 13.3329 10.0048 13.3298C10.2144 13.3266 10.3885 13.2558 10.527 13.1173C10.6653 12.9788 10.7345 12.8042 10.7345 12.5935C10.7345 12.3828 10.6653 12.2093 10.527 12.073L9.19425 10.75ZM10.0017 19.5C8.68775 19.5 7.45267 19.2507 6.2965 18.752C5.14033 18.2533 4.13467 17.5766 3.2795 16.7218C2.42433 15.8669 1.74725 14.8617 1.24825 13.706C0.749417 12.5503 0.5 11.3156 0.5 10.0017C0.5 8.68775 0.749333 7.45267 1.248 6.2965C1.74667 5.14033 2.42342 4.13467 3.27825 3.2795C4.13308 2.42433 5.13833 1.74725 6.294 1.24825C7.44967 0.749417 8.68442 0.5 9.99825 0.5C11.3123 0.5 12.5473 0.749333 13.7035 1.248C14.8597 1.74667 15.8653 2.42342 16.7205 3.27825C17.5757 4.13308 18.2528 5.13833 18.7518 6.294C19.2506 7.44967 19.5 8.68442 19.5 9.99825C19.5 11.3123 19.2507 12.5473 18.752 13.7035C18.2533 14.8597 17.5766 15.8653 16.7218 16.7205C15.8669 17.5757 14.8617 18.2528 13.706 18.7518C12.5503 19.2506 11.3156 19.5 10.0017 19.5ZM10 18C12.2333 18 14.125 17.225 15.675 15.675C17.225 14.125 18 12.2333 18 10C18 7.76667 17.225 5.875 15.675 4.325C14.125 2.775 12.2333 2 10 2C7.76667 2 5.875 2.775 4.325 4.325C2.775 5.875 2 7.76667 2 10C2 12.2333 2.775 14.125 4.325 15.675C5.875 17.225 7.76667 18 10 18Z" fill="#273540"/>
</svg>
