<svg width="178" height="41" viewBox="0 0 178 41" fill="none" xmlns="http://www.w3.org/2000/svg">
<path d="M0 20.4898C0 7.69842 9.57478 0 19.7714 0C29.9681 0 35.6615 5.86495 37.4413 12.7378L31.1797 14.8393C30.0217 10.0787 26.3655 6.25094 19.7714 6.25094C13.1774 6.25094 6.80849 10.9579 6.80849 20.4791C6.80849 30.0002 13.1238 34.5464 19.825 34.5464C26.5263 34.5464 30.1825 30.3326 31.5121 25.9044L37.6022 27.8987C35.833 34.5464 29.8501 40.9153 19.825 40.9153C9.25312 40.9153 0 33.2705 0 20.4791V20.4898Z" fill="white"/>
<path d="M52.5058 40.8078C44.5822 40.8078 39.4893 34.5462 39.4893 26.4617C39.4893 18.3773 44.6358 12.3408 52.3879 12.3408C57.1484 12.3408 59.5823 14.8283 60.3114 16.6618V13.1128H66.5731V35.1573C66.5731 37.3768 66.7983 39.5319 66.8519 40.0894H60.7082C60.6009 39.4783 60.4294 38.0415 60.4294 36.2081C59.2071 38.8135 56.3872 40.8078 52.5058 40.8078ZM53.2242 35.2753C57.4379 35.2753 60.3651 31.6726 60.3651 26.4725C60.3651 21.2723 57.4808 17.9484 53.2242 17.9484C48.9675 17.9484 45.9118 21.2723 45.9118 26.4725C45.9118 31.6726 48.7316 35.2753 53.2242 35.2753Z" fill="white"/>
<path d="M79.0963 40.0895H72.6738V13.1236H78.9355V16.7262C80.7046 13.6275 83.9212 12.3516 86.9127 12.3516C93.5067 12.3516 96.659 17.1121 96.659 23.0414V40.1002H90.2365V24.1565C90.2365 20.8327 88.7462 18.1736 84.6932 18.1736C81.037 18.1736 79.0963 20.9935 79.0963 24.5425V40.1002V40.0895Z" fill="white"/>
<path d="M115.562 40.0895H109.14L98.1709 13.1235H105.258L112.399 32.391L119.379 13.1235H126.134L115.562 40.0895Z" fill="white"/>
<path d="M139.15 40.8078C131.227 40.8078 126.134 34.5462 126.134 26.4617C126.134 18.3773 131.28 12.3408 139.032 12.3408C143.793 12.3408 146.227 14.8283 146.956 16.6618V13.1128H153.218V35.1573C153.218 37.3768 153.443 39.5319 153.496 40.0894H147.353C147.245 39.4783 147.074 38.0415 147.074 36.2081C145.852 38.8135 143.032 40.8078 139.15 40.8078ZM139.869 35.2753C144.082 35.2753 147.01 31.6726 147.01 26.4725C147.01 21.2723 144.125 17.9484 139.869 17.9484C135.612 17.9484 132.556 21.2723 132.556 26.4725C132.556 31.6726 135.376 35.2753 139.869 35.2753Z" fill="white"/>
<path d="M162.181 31.2334C162.407 33.6673 164.229 35.8332 167.66 35.8332C170.319 35.8332 171.703 34.3964 171.703 32.7345C171.703 31.2978 170.705 30.1827 168.55 29.7431L164.562 28.8532C159.801 27.8024 157.303 24.7037 157.303 20.9939C157.303 16.2869 161.624 12.2983 167.21 12.2983C174.737 12.2983 177.181 17.1769 177.621 19.8252L172.196 21.3799C171.971 19.8252 170.813 17.3377 167.21 17.3377C164.937 17.3377 163.329 18.7744 163.329 20.4364C163.329 21.8731 164.379 22.9239 166.041 23.2563L170.137 24.0926C175.23 25.1969 177.889 28.3063 177.889 32.2842C177.889 36.2621 174.565 40.9262 167.703 40.9262C159.898 40.9262 156.906 35.8332 156.574 32.7881L162.171 31.2334H162.181Z" fill="white"/>
</svg>
