<svg width="24" height="24" viewBox="0 0 24 24" fill="none" xmlns="http://www.w3.org/2000/svg">
<path d="M4.54798 19.5C4.04298 19.5 3.61548 19.325 3.26548 18.975C2.91548 18.625 2.74048 18.1974 2.74048 17.6923V6.30775C2.74048 5.80258 2.91548 5.375 3.26548 5.025C3.61548 4.675 4.04298 4.5 4.54798 4.5H15.9327C16.4377 4.5 16.8652 4.675 17.2152 5.025C17.5652 5.375 17.7402 5.80258 17.7402 6.30775V10.8848L20.4865 8.1385C20.634 7.991 20.7996 7.95417 20.9835 8.028C21.1675 8.10167 21.2595 8.24233 21.2595 8.45V15.55C21.2595 15.7577 21.1675 15.8983 20.9835 15.972C20.7996 16.0458 20.634 16.009 20.4865 15.8615L17.7402 13.1152V17.6923C17.7402 18.1974 17.5652 18.625 17.2152 18.975C16.8652 19.325 16.4377 19.5 15.9327 19.5H4.54798ZM4.54798 18H15.9327C16.0224 18 16.0961 17.9712 16.1537 17.9135C16.2116 17.8558 16.2405 17.7821 16.2405 17.6923V6.30775C16.2405 6.21792 16.2116 6.14417 16.1537 6.0865C16.0961 6.02883 16.0224 6 15.9327 6H4.54798C4.45831 6 4.38465 6.02883 4.32698 6.0865C4.26931 6.14417 4.24048 6.21792 4.24048 6.30775V17.6923C4.24048 17.7821 4.26931 17.8558 4.32698 17.9135C4.38465 17.9712 4.45831 18 4.54798 18Z" fill="#273540"/>
</svg>
