<svg width="18" height="21" viewBox="0 0 18 21" fill="none" xmlns="http://www.w3.org/2000/svg">
<path fill-rule="evenodd" clip-rule="evenodd" d="M1.37667 5.20588V3.44118C1.37667 3.11647 1.64137 2.85294 1.9649 2.85294H3.72961V3.44118C3.72961 3.76588 3.99314 4.02941 4.31784 4.02941C4.64255 4.02941 4.90608 3.76588 4.90608 3.44118V2.85294H13.1414V3.44118C13.1414 3.76588 13.4049 4.02941 13.7296 4.02941C14.0543 4.02941 14.3178 3.76588 14.3178 3.44118V2.85294H16.0825C16.4061 2.85294 16.6708 3.11647 16.6708 3.44118V5.20588H1.37667ZM1.37667 19.3235H16.6708V6.38235H1.37667V19.3235ZM16.0825 1.67647H14.3178V1.08824C14.3178 0.76353 14.0543 0.5 13.7296 0.5C13.4049 0.5 13.1414 0.76353 13.1414 1.08824V1.67647H4.90608V1.08824C4.90608 0.76353 4.64255 0.5 4.31784 0.5C3.99314 0.5 3.72961 0.76353 3.72961 1.08824V1.67647H1.9649C0.99196 1.67647 0.200195 2.46824 0.200195 3.44118V5.20588V6.38235V20.5H17.8473V6.38235V5.20588V3.44118C17.8473 2.46824 17.0555 1.67647 16.0825 1.67647ZM14.1455 9.73941L13.3137 8.90765L7.84667 14.3735L4.73372 11.2606L3.90196 12.0924L7.84667 16.0382L14.1455 9.73941Z" fill="#2D3B45"/>
</svg>
