<svg width="178" height="63" viewBox="0 0 178 63" fill="none" xmlns="http://www.w3.org/2000/svg">
<path d="M41.3658 46.3569C43.7782 46.3569 45.1935 47.7829 45.1935 49.788C45.1935 51.1497 44.4108 52.1146 43.2957 52.5221C44.7432 52.8759 45.5795 54.1626 45.5795 55.5779C45.5795 57.5829 43.9927 59.0304 41.666 59.0304H37.2271V46.3462H41.3658V46.3569ZM41.1728 51.9002C42.5881 51.9002 43.4244 51.0639 43.4244 49.8845C43.4244 48.705 42.5452 47.9009 41.0977 47.9009H38.9855V51.9109H41.1728V51.9002ZM41.4194 57.4971C42.8347 57.4971 43.7997 56.7144 43.7997 55.4706C43.7997 54.2269 43.0277 53.4013 41.4944 53.4013H38.9855V57.4971H41.4194Z" fill="#273540"/>
<path d="M47.7881 62.6221L49.9325 58.0759L46.2334 50.4204H48.1634L50.8439 56.3604L53.4172 50.4204H55.2185L49.6216 62.6221H47.7774H47.7881Z" fill="#273540"/>
<path d="M60.5366 59.0304V46.3462H62.3272V59.0304H60.5366Z" fill="#273540"/>
<path d="M66.5194 59.0283H64.8364V50.4311H66.4765V51.6639C67.0983 50.5919 68.1166 50.1846 69.1243 50.1846C71.1824 50.1846 72.2008 51.6639 72.2008 53.5827V59.039H70.5178V53.8721C70.5178 52.6715 70.014 51.7068 68.5133 51.7068C67.1947 51.7068 66.5087 52.7573 66.5087 54.0651V59.039L66.5194 59.0283Z" fill="#273540"/>
<path d="M75.1402 56.2639C75.2474 57.1539 75.9229 57.8722 77.1452 57.8722C78.0888 57.8722 78.6142 57.3361 78.6142 56.725C78.6142 56.1889 78.2175 55.7814 77.5098 55.6206L76.0409 55.2989C74.7006 55.0094 73.8965 54.0981 73.8965 52.8865C73.8965 51.4176 75.2689 50.1631 76.9522 50.1631C79.3111 50.1631 80.0509 51.6963 80.2225 52.4683L78.7428 53.0259C78.6678 52.5755 78.3139 51.5998 76.9522 51.5998C76.0945 51.5998 75.5262 52.1574 75.5262 52.7471C75.5262 53.2618 75.8479 53.637 76.5126 53.7871L77.9065 54.0874C79.4612 54.4305 80.2868 55.374 80.2868 56.6392C80.2868 57.9044 79.2682 59.309 77.1345 59.309C74.7757 59.309 73.7678 57.7865 73.6284 56.8L75.1509 56.2639H75.1402Z" fill="#273540"/>
<path d="M84.2433 50.4314H86.0982V51.9539H84.2433V56.425C84.2433 57.2077 84.5649 57.6044 85.4441 57.6044C85.6586 57.6044 85.9588 57.5723 86.1089 57.5294V58.9554C85.9695 59.009 85.5406 59.1163 84.9616 59.1163C83.4927 59.1163 82.5599 58.2263 82.5599 56.6609V51.9432H80.9194V50.4207H81.3805C82.3133 50.4207 82.6993 49.8524 82.6993 49.1019V47.708H84.2325V50.4314H84.2433Z" fill="#273540"/>
<path d="M92.3371 52.125C92.0906 52.0929 91.8333 52.0714 91.6082 52.0714C90.1932 52.0714 89.2499 52.8218 89.2499 54.7192V59.0285H87.5669V50.4313H89.207V51.9321C89.8287 50.6136 90.9007 50.292 91.7797 50.292C92.0155 50.292 92.2407 50.3241 92.3371 50.3456V52.1358V52.125Z" fill="#273540"/>
<path d="M96.648 59.2963C94.6434 59.2963 93.4321 57.7955 93.4321 55.8446V50.4312H95.1151V55.598C95.1151 56.7772 95.6511 57.817 97.0661 57.817C98.4811 57.817 99.1028 56.9272 99.1028 55.6195V50.4312H100.786V57.4418C100.786 58.1171 100.839 58.7281 100.872 59.0283H99.2636C99.2314 58.8353 99.1886 58.353 99.1886 57.9885C98.7276 58.8782 97.6557 59.2963 96.648 59.2963Z" fill="#273540"/>
<path d="M104.122 54.72C104.122 56.6821 105.355 57.7436 106.749 57.7436C108.357 57.7436 108.947 56.6499 109.15 55.9744L110.63 56.6178C110.223 57.8508 108.99 59.2983 106.749 59.2983C104.25 59.2983 102.406 57.3361 102.406 54.72C102.406 52.1038 104.283 50.1631 106.738 50.1631C109.022 50.1631 110.212 51.5891 110.566 52.8972L109.043 53.5405C108.829 52.7042 108.207 51.7178 106.738 51.7178C105.376 51.7178 104.132 52.7149 104.132 54.72H104.122Z" fill="#273540"/>
<path d="M114.415 50.4314H116.27V51.9539H114.415V56.425C114.415 57.2077 114.737 57.6044 115.616 57.6044C115.83 57.6044 116.131 57.5723 116.281 57.5294V58.9554C116.141 59.009 115.713 59.1163 115.134 59.1163C113.665 59.1163 112.732 58.2263 112.732 56.6609V51.9432H111.091V50.4207H111.552C112.485 50.4207 112.871 49.8524 112.871 49.1019V47.708H114.404V50.4314H114.415Z" fill="#273540"/>
<path d="M120.869 59.2963C118.864 59.2963 117.653 57.7955 117.653 55.8446V50.4312H119.336V55.598C119.336 56.7772 119.872 57.817 121.287 57.817C122.702 57.817 123.324 56.9272 123.324 55.6195V50.4312H125.006V57.4418C125.006 58.1171 125.06 58.7281 125.092 59.0283H123.484C123.452 58.8353 123.409 58.353 123.409 57.9885C122.948 58.8782 121.876 59.2963 120.869 59.2963Z" fill="#273540"/>
<path d="M131.977 52.125C131.73 52.0929 131.473 52.0714 131.248 52.0714C129.833 52.0714 128.89 52.8218 128.89 54.7192V59.0285H127.207V50.4313H128.847V51.9321C129.468 50.6136 130.54 50.292 131.419 50.292C131.655 50.292 131.88 50.3241 131.977 50.3456V52.1358V52.125Z" fill="#273540"/>
<path d="M140.609 56.5856C140.127 58.1081 138.754 59.309 136.749 59.309C134.444 59.309 132.417 57.6256 132.417 54.7092C132.417 52.0073 134.369 50.1631 136.535 50.1631C139.183 50.1631 140.663 51.9858 140.663 54.6663C140.663 54.8808 140.641 55.0952 140.631 55.2024H134.154C134.187 56.7357 135.302 57.8079 136.749 57.8079C138.197 57.8079 138.84 57.0359 139.162 56.0709L140.609 56.5749V56.5856ZM138.915 53.8407C138.883 52.6077 138.079 51.6427 136.556 51.6427C135.141 51.6427 134.283 52.7364 134.208 53.8407H138.915Z" fill="#273540"/>
<path d="M0 20.9673C0 8.17596 9.57478 0.477539 19.7714 0.477539C29.9681 0.477539 35.6615 6.34249 37.4413 13.2153L31.1797 15.3168C30.0217 10.5562 26.3655 6.72848 19.7714 6.72848C13.1774 6.72848 6.80849 11.4355 6.80849 20.9566C6.80849 30.4778 13.1238 35.0239 19.825 35.0239C26.5263 35.0239 30.1825 30.8102 31.5121 26.382L37.6022 28.3763C35.833 35.0239 29.8501 41.3928 19.825 41.3928C9.25312 41.3928 0 33.748 0 20.9566V20.9673Z" fill="#273540"/>
<path d="M52.5058 41.2854C44.5822 41.2854 39.4893 35.0237 39.4893 26.9393C39.4893 18.8549 44.6358 12.8184 52.3879 12.8184C57.1484 12.8184 59.5823 15.3059 60.3114 17.1393V13.5903H66.5731V35.6349C66.5731 37.8543 66.7983 40.0094 66.8519 40.567H60.7082C60.6009 39.9558 60.4294 38.5191 60.4294 36.6856C59.2071 39.2911 56.3872 41.2854 52.5058 41.2854ZM53.2242 35.7528C57.4379 35.7528 60.3651 32.1502 60.3651 26.95C60.3651 21.7498 57.4808 18.426 53.2242 18.426C48.9675 18.426 45.9118 21.7498 45.9118 26.95C45.9118 32.1502 48.7316 35.7528 53.2242 35.7528Z" fill="#273540"/>
<path d="M79.0963 40.567H72.6738V13.6011H78.9355V17.2037C80.7046 14.105 83.9212 12.8291 86.9127 12.8291C93.5067 12.8291 96.659 17.5897 96.659 23.519V40.5777H90.2365V24.6341C90.2365 21.3102 88.7462 18.6512 84.6932 18.6512C81.037 18.6512 79.0963 21.4711 79.0963 25.0201V40.5777V40.567Z" fill="#273540"/>
<path d="M115.562 40.567H109.14L98.1709 13.6011H105.258L112.399 32.8686L119.379 13.6011H126.134L115.562 40.567Z" fill="#273540"/>
<path d="M139.15 41.2854C131.227 41.2854 126.134 35.0237 126.134 26.9393C126.134 18.8549 131.28 12.8184 139.032 12.8184C143.793 12.8184 146.227 15.3059 146.956 17.1393V13.5903H153.218V35.6349C153.218 37.8543 153.443 40.0094 153.496 40.567H147.353C147.245 39.9558 147.074 38.5191 147.074 36.6856C145.852 39.2911 143.032 41.2854 139.15 41.2854ZM139.869 35.7528C144.082 35.7528 147.01 32.1502 147.01 26.95C147.01 21.7498 144.125 18.426 139.869 18.426C135.612 18.426 132.556 21.7498 132.556 26.95C132.556 32.1502 135.376 35.7528 139.869 35.7528Z" fill="#273540"/>
<path d="M162.181 31.711C162.407 34.1449 164.229 36.3107 167.66 36.3107C170.319 36.3107 171.703 34.874 171.703 33.2121C171.703 31.7753 170.705 30.6602 168.55 30.2206L164.562 29.3307C159.801 28.2799 157.303 25.1813 157.303 21.4714C157.303 16.7645 161.624 12.7759 167.21 12.7759C174.737 12.7759 177.181 17.6544 177.621 20.3027L172.196 21.8574C171.971 20.3027 170.813 17.8152 167.21 17.8152C164.937 17.8152 163.329 19.252 163.329 20.9139C163.329 22.3507 164.379 23.4014 166.041 23.7338L170.137 24.5701C175.23 25.6745 177.889 28.7839 177.889 32.7617C177.889 36.7396 174.565 41.4037 167.703 41.4037C159.898 41.4037 156.906 36.3107 156.574 33.2657L162.171 31.711H162.181Z" fill="#273540"/>
</svg>
