<svg width="12" height="13" viewBox="0 0 12 13" fill="none" xmlns="http://www.w3.org/2000/svg">
<path d="M5.25001 3.10776L1.92701 6.43076C1.78851 6.56926 1.61443 6.64009 1.40476 6.64326C1.19526 6.64643 1.01801 6.57559 0.873012 6.43076C0.728178 6.28593 0.655762 6.11026 0.655762 5.90376C0.655762 5.69743 0.728178 5.52184 0.873012 5.37701L5.36726 0.882761C5.5481 0.701927 5.75901 0.611511 6.00001 0.611511C6.24101 0.611511 6.45193 0.701927 6.63276 0.882761L11.127 5.37701C11.2653 5.51534 11.3362 5.68934 11.3395 5.89901C11.3427 6.10868 11.2718 6.28593 11.127 6.43076C10.982 6.57559 10.8063 6.64801 10.6 6.64801C10.3937 6.64801 10.218 6.57559 10.073 6.43076L6.75001 3.10776V11.9038C6.75001 12.1166 6.67818 12.2948 6.53451 12.4385C6.39101 12.582 6.21285 12.6538 6.00001 12.6538C5.78718 12.6538 5.60901 12.582 5.46551 12.4385C5.32185 12.2948 5.25001 12.1166 5.25001 11.9038V3.10776Z" fill="#273540"/>
</svg>
