<svg width="24" height="24" viewBox="0 0 24 24" fill="none" xmlns="http://www.w3.org/2000/svg">
<path d="M2.25 5V3.05775C2.25 2.56058 2.427 2.135 2.781 1.781C3.135 1.427 3.56058 1.25 4.05775 1.25H6C6.2125 1.25 6.39058 1.32192 6.53425 1.46575C6.67808 1.60958 6.75 1.78775 6.75 2.00025C6.75 2.21292 6.67808 2.391 6.53425 2.5345C6.39058 2.67817 6.2125 2.75 6 2.75H4.05775C3.96792 2.75 3.89417 2.77883 3.8365 2.8365C3.77883 2.89417 3.75 2.96792 3.75 3.05775V5C3.75 5.2125 3.67808 5.39058 3.53425 5.53425C3.39042 5.67808 3.21225 5.75 2.99975 5.75C2.78708 5.75 2.609 5.67808 2.4655 5.53425C2.32183 5.39058 2.25 5.2125 2.25 5ZM20.25 5V3.05775C20.25 2.96792 20.2212 2.89417 20.1635 2.8365C20.1058 2.77883 20.0321 2.75 19.9423 2.75H18C17.7875 2.75 17.6094 2.67808 17.4658 2.53425C17.3219 2.39042 17.25 2.21225 17.25 1.99975C17.25 1.78708 17.3219 1.609 17.4658 1.4655C17.6094 1.32183 17.7875 1.25 18 1.25H19.9423C20.4394 1.25 20.865 1.427 21.219 1.781C21.573 2.135 21.75 2.56058 21.75 3.05775V5C21.75 5.2125 21.6781 5.39058 21.5343 5.53425C21.3904 5.67808 21.2122 5.75 20.9998 5.75C20.7871 5.75 20.609 5.67808 20.4655 5.53425C20.3218 5.39058 20.25 5.2125 20.25 5ZM2.25 20.9423V19C2.25 18.7875 2.32192 18.6094 2.46575 18.4657C2.60958 18.3219 2.78775 18.25 3.00025 18.25C3.21292 18.25 3.391 18.3219 3.5345 18.4657C3.67817 18.6094 3.75 18.7875 3.75 19V20.9423C3.75 21.0321 3.77883 21.1058 3.8365 21.1635C3.89417 21.2212 3.96792 21.25 4.05775 21.25H6C6.2125 21.25 6.39058 21.3219 6.53425 21.4657C6.67808 21.6096 6.75 21.7878 6.75 22.0002C6.75 22.2129 6.67808 22.391 6.53425 22.5345C6.39058 22.6782 6.2125 22.75 6 22.75H4.05775C3.56058 22.75 3.135 22.573 2.781 22.219C2.427 21.865 2.25 21.4394 2.25 20.9423ZM19.9423 22.75H18C17.7875 22.75 17.6094 22.6781 17.4658 22.5343C17.3219 22.3904 17.25 22.2122 17.25 21.9998C17.25 21.7871 17.3219 21.609 17.4658 21.4655C17.6094 21.3218 17.7875 21.25 18 21.25H19.9423C20.0321 21.25 20.1058 21.2212 20.1635 21.1635C20.2212 21.1058 20.25 21.0321 20.25 20.9423V19C20.25 18.7875 20.3219 18.6094 20.4657 18.4657C20.6096 18.3219 20.7878 18.25 21.0002 18.25C21.2129 18.25 21.391 18.3219 21.5345 18.4657C21.6782 18.6094 21.75 18.7875 21.75 19V20.9423C21.75 21.4394 21.573 21.865 21.219 22.219C20.865 22.573 20.4394 22.75 19.9423 22.75ZM6.75 17.9423C6.75 18.0193 6.78208 18.0898 6.84625 18.1538C6.91025 18.2179 6.98075 18.25 7.05775 18.25H16.9423C17.0192 18.25 17.0898 18.2179 17.1538 18.1538C17.2179 18.0898 17.25 18.0193 17.25 17.9423V6.05775C17.25 5.98075 17.2179 5.91025 17.1538 5.84625C17.0898 5.78208 17.0192 5.75 16.9423 5.75H7.05775C6.98075 5.75 6.91025 5.78208 6.84625 5.84625C6.78208 5.91025 6.75 5.98075 6.75 6.05775V17.9423ZM7.05775 19.75C6.55258 19.75 6.125 19.575 5.775 19.225C5.425 18.875 5.25 18.4474 5.25 17.9423V6.05775C5.25 5.55258 5.425 5.125 5.775 4.775C6.125 4.425 6.55258 4.25 7.05775 4.25H16.9423C17.4474 4.25 17.875 4.425 18.225 4.775C18.575 5.125 18.75 5.55258 18.75 6.05775V17.9423C18.75 18.4474 18.575 18.875 18.225 19.225C17.875 19.575 17.4474 19.75 16.9423 19.75H7.05775ZM10 9.75H14C14.2125 9.75 14.3906 9.67808 14.5343 9.53425C14.6781 9.39042 14.75 9.21225 14.75 8.99975C14.75 8.78708 14.6781 8.609 14.5343 8.4655C14.3906 8.32183 14.2125 8.25 14 8.25H10C9.7875 8.25 9.60942 8.32192 9.46575 8.46575C9.32192 8.60958 9.25 8.78775 9.25 9.00025C9.25 9.21292 9.32192 9.391 9.46575 9.5345C9.60942 9.67817 9.7875 9.75 10 9.75ZM10 12.75H14C14.2125 12.75 14.3906 12.6781 14.5343 12.5343C14.6781 12.3904 14.75 12.2122 14.75 11.9998C14.75 11.7871 14.6781 11.609 14.5343 11.4655C14.3906 11.3218 14.2125 11.25 14 11.25H10C9.7875 11.25 9.60942 11.3219 9.46575 11.4658C9.32192 11.6096 9.25 11.7878 9.25 12.0003C9.25 12.2129 9.32192 12.391 9.46575 12.5345C9.60942 12.6782 9.7875 12.75 10 12.75ZM10 15.75H14C14.2125 15.75 14.3906 15.6781 14.5343 15.5343C14.6781 15.3904 14.75 15.2122 14.75 14.9998C14.75 14.7871 14.6781 14.609 14.5343 14.4655C14.3906 14.3218 14.2125 14.25 14 14.25H10C9.7875 14.25 9.60942 14.3219 9.46575 14.4658C9.32192 14.6096 9.25 14.7878 9.25 15.0003C9.25 15.2129 9.32192 15.391 9.46575 15.5345C9.60942 15.6782 9.7875 15.75 10 15.75ZM6.75 17.9423V5.75V18.25V17.9423Z" fill="#273540"/>
</svg>
