<svg width="24" height="24" viewBox="0 0 24 24" fill="none" xmlns="http://www.w3.org/2000/svg">
<g clip-path="url(#clip0_1_2943)">
<mask id="mask0_1_2943" style="mask-type:alpha" maskUnits="userSpaceOnUse" x="-1" y="-1" width="25" height="25">
<rect x="-0.5" y="-0.5" width="24" height="24" fill="#D9D9D9"/>
</mask>
<g mask="url(#mask0_1_2943)">
<path d="M19.0423 20.077L12.7616 13.796C12.2616 14.2088 11.6866 14.5319 11.0366 14.7653C10.3866 14.9986 9.71414 15.1153 9.0193 15.1153C7.31014 15.1153 5.86364 14.5235 4.6798 13.34C3.49597 12.1565 2.90405 10.7103 2.90405 9.00152C2.90405 7.29285 3.4958 5.84618 4.6793 4.66152C5.8628 3.47702 7.30897 2.88477 9.0178 2.88477C10.7265 2.88477 12.1731 3.47668 13.3578 4.66051C14.5423 5.84435 15.1346 7.29085 15.1346 9.00002C15.1346 9.71418 15.0147 10.3963 14.7751 11.0463C14.5352 11.6963 14.2153 12.2616 13.8153 12.7423L20.0961 19.023L19.0423 20.077ZM9.0193 13.6155C10.3078 13.6155 11.3991 13.1683 12.2933 12.274C13.1876 11.3798 13.6348 10.2885 13.6348 9.00002C13.6348 7.71152 13.1876 6.62018 12.2933 5.72601C11.3991 4.83168 10.3078 4.38452 9.0193 4.38452C7.7308 4.38452 6.63947 4.83168 5.7453 5.72601C4.85097 6.62018 4.4038 7.71152 4.4038 9.00002C4.4038 10.2885 4.85097 11.3798 5.7453 12.274C6.63947 13.1683 7.7308 13.6155 9.0193 13.6155Z" fill="#273540"/>
</g>
</g>
<defs>
<clipPath id="clip0_1_2943">
<rect width="24" height="24" fill="white"/>
</clipPath>
</defs>
</svg>
