<svg width="24" height="24" viewBox="0 0 24 24" fill="none" xmlns="http://www.w3.org/2000/svg">
<path d="M11.25 16.8L9.927 18.123C9.7885 18.2615 9.61442 18.3323 9.40475 18.3355C9.19525 18.3387 9.018 18.2678 8.873 18.123C8.72817 17.9782 8.65575 17.8025 8.65575 17.596C8.65575 17.3897 8.72817 17.2141 8.873 17.0693L11.364 14.5782C11.4598 14.4824 11.5601 14.4153 11.6648 14.377C11.7694 14.3385 11.8816 14.3193 12.0012 14.3193C12.1209 14.3193 12.2327 14.3385 12.3365 14.377C12.4403 14.4153 12.5402 14.4824 12.636 14.5782L15.127 17.0693C15.2653 17.2078 15.3362 17.3818 15.3395 17.5913C15.3427 17.8009 15.2718 17.9782 15.127 18.123C14.982 18.2678 14.8063 18.3403 14.6 18.3403C14.3937 18.3403 14.218 18.2678 14.073 18.123L12.75 16.8V20.75C12.75 20.9625 12.6781 21.1406 12.5343 21.2843C12.3904 21.4281 12.2122 21.5 11.9997 21.5C11.7871 21.5 11.609 21.4281 11.4655 21.2843C11.3218 21.1406 11.25 20.9625 11.25 20.75V16.8ZM5.25 12.75C5.0375 12.75 4.85942 12.6781 4.71575 12.5343C4.57192 12.3904 4.5 12.2122 4.5 11.9998C4.5 11.7871 4.57192 11.609 4.71575 11.4655C4.85942 11.3218 5.0375 11.25 5.25 11.25H18.75C18.9625 11.25 19.1406 11.3219 19.2843 11.4658C19.4281 11.6096 19.5 11.7878 19.5 12.0003C19.5 12.2129 19.4281 12.391 19.2843 12.5345C19.1406 12.6782 18.9625 12.75 18.75 12.75H5.25ZM11.25 7.2V3.25C11.25 3.0375 11.3219 2.85942 11.4658 2.71575C11.6096 2.57192 11.7878 2.5 12.0003 2.5C12.2129 2.5 12.391 2.57192 12.5345 2.71575C12.6782 2.85942 12.75 3.0375 12.75 3.25V7.2L14.073 5.877C14.2115 5.7385 14.3856 5.66767 14.5953 5.6645C14.8048 5.66133 14.982 5.73217 15.127 5.877C15.2718 6.02183 15.3443 6.1975 15.3443 6.404C15.3443 6.61033 15.2718 6.78592 15.127 6.93075L12.636 9.42175C12.5402 9.51758 12.4399 9.58467 12.3353 9.623C12.2306 9.6615 12.1184 9.68075 11.9988 9.68075C11.8791 9.68075 11.7673 9.6615 11.6635 9.623C11.5597 9.58467 11.4598 9.51758 11.364 9.42175L8.873 6.93075C8.73467 6.79225 8.66383 6.61825 8.6605 6.40875C8.65733 6.19908 8.72817 6.02183 8.873 5.877C9.018 5.73217 9.19367 5.65975 9.4 5.65975C9.60633 5.65975 9.782 5.73217 9.927 5.877L11.25 7.2Z" fill="#273540"/>
</svg>
