<svg width="178" height="60" viewBox="0 0 178 60" fill="none" xmlns="http://www.w3.org/2000/svg">
<path d="M0 20.9673C0 8.17596 9.57478 0.477539 19.7714 0.477539C29.9681 0.477539 35.6615 6.34249 37.4413 13.2153L31.1797 15.3168C30.0217 10.5562 26.3655 6.72848 19.7714 6.72848C13.1774 6.72848 6.80849 11.4355 6.80849 20.9566C6.80849 30.4778 13.1238 35.0239 19.825 35.0239C26.5263 35.0239 30.1825 30.8102 31.5121 26.382L37.6022 28.3763C35.833 35.0239 29.8501 41.3928 19.825 41.3928C9.25312 41.3928 0 33.748 0 20.9566V20.9673Z" fill="white"/>
<path d="M52.5058 41.2854C44.5822 41.2854 39.4893 35.0237 39.4893 26.9393C39.4893 18.8549 44.6358 12.8184 52.3879 12.8184C57.1484 12.8184 59.5823 15.3059 60.3114 17.1393V13.5903H66.5731V35.6349C66.5731 37.8543 66.7983 40.0094 66.8519 40.567H60.7082C60.6009 39.9558 60.4294 38.5191 60.4294 36.6856C59.2071 39.2911 56.3872 41.2854 52.5058 41.2854ZM53.2242 35.7528C57.4379 35.7528 60.3651 32.1502 60.3651 26.95C60.3651 21.7498 57.4808 18.426 53.2242 18.426C48.9675 18.426 45.9118 21.7498 45.9118 26.95C45.9118 32.1502 48.7316 35.7528 53.2242 35.7528Z" fill="white"/>
<path d="M129.422 52.3608C129.838 52.3608 130.197 52.3095 130.499 52.2069C130.801 52.0986 131.049 51.9532 131.243 51.7708C131.437 51.5827 131.579 51.3633 131.671 51.1125C131.762 50.8617 131.807 50.5881 131.807 50.2917C131.807 49.7045 131.611 49.2485 131.218 48.9236C130.83 48.5987 130.237 48.4362 129.439 48.4362H128.105V52.3608H129.422ZM135.433 58.8932H133.116C132.682 58.8932 132.369 58.7279 132.175 58.3973L129.815 54.5924C129.718 54.4442 129.61 54.3359 129.49 54.2675C129.376 54.1991 129.205 54.1649 128.977 54.1649H128.105V58.8932H125.54V46.4868H129.439C130.305 46.4868 131.047 46.578 131.662 46.7604C132.278 46.9371 132.782 47.1851 133.175 47.5043C133.569 47.8235 133.857 48.2054 134.039 48.65C134.221 49.0889 134.313 49.5734 134.313 50.1035C134.313 50.514 134.253 50.9044 134.133 51.2749C134.019 51.6397 133.851 51.9732 133.629 52.2753C133.406 52.5774 133.133 52.8453 132.808 53.079C132.483 53.3127 132.112 53.5008 131.696 53.6433C131.862 53.7345 132.016 53.8457 132.158 53.9768C132.301 54.1022 132.429 54.2533 132.543 54.43L135.433 58.8932Z" fill="white"/>
<path d="M115.567 48.4961V51.6853H119.705V53.6262H115.567V56.8839H120.885V58.8932H112.985V46.4868H120.885V48.4961H115.567Z" fill="white"/>
<path d="M107.65 46.4868V58.8932H105.068V53.5493H99.6047V58.8932H97.0225V46.4868H99.6047V51.7537H105.068V46.4868H107.65Z" fill="white"/>
<path d="M91.4619 55.8409C91.6044 55.8409 91.7241 55.8922 91.821 55.9948L92.8385 57.0806C92.3369 57.7191 91.7127 58.2036 90.966 58.5342C90.2249 58.8648 89.3414 59.0301 88.3154 59.0301C87.3863 59.0301 86.5512 58.8733 85.8102 58.5598C85.0692 58.2406 84.4393 57.7989 83.9206 57.2345C83.4019 56.6702 83.0029 56.0005 82.7235 55.2252C82.4442 54.45 82.3046 53.6035 82.3046 52.6858C82.3046 52.0702 82.3701 51.4859 82.5012 50.933C82.638 50.3744 82.8347 49.8614 83.0912 49.394C83.3477 48.9266 83.6555 48.5048 84.0146 48.1285C84.3794 47.7523 84.7899 47.4331 85.2459 47.1709C85.7019 46.903 86.1978 46.7007 86.7336 46.5639C87.2751 46.4213 87.8508 46.3501 88.4607 46.3501C88.9168 46.3501 89.3471 46.39 89.7518 46.4698C90.1622 46.5496 90.5442 46.6608 90.8976 46.8033C91.251 46.9458 91.5759 47.1196 91.8723 47.3248C92.1744 47.5243 92.4452 47.7438 92.6846 47.9832L91.821 49.1631C91.7697 49.2372 91.7041 49.3028 91.6243 49.3598C91.5445 49.4168 91.4362 49.4453 91.2994 49.4453C91.1626 49.4453 91.023 49.3968 90.8805 49.2999C90.7437 49.203 90.5727 49.0947 90.3675 48.975C90.1679 48.8553 89.9143 48.747 89.6065 48.6501C89.3044 48.5532 88.9196 48.5048 88.4522 48.5048C87.9335 48.5048 87.4575 48.5988 87.0243 48.7869C86.5911 48.975 86.2177 49.2486 85.9042 49.6077C85.5964 49.9611 85.357 50.3972 85.186 50.9159C85.015 51.4346 84.9295 52.0246 84.9295 52.6858C84.9295 53.3527 85.0207 53.9484 85.2031 54.4728C85.3912 54.9915 85.6449 55.4304 85.9641 55.7896C86.289 56.1487 86.6652 56.4223 87.0927 56.6104C87.5259 56.7928 87.9876 56.884 88.4778 56.884C88.7686 56.884 89.0308 56.8697 89.2645 56.8412C89.5039 56.8127 89.7233 56.7643 89.9228 56.6959C90.128 56.6275 90.319 56.5391 90.4957 56.4308C90.6781 56.3225 90.8605 56.1857 91.0429 56.0204C91.1056 55.9691 91.1712 55.9264 91.2396 55.8922C91.308 55.858 91.3821 55.8409 91.4619 55.8409Z" fill="white"/>
<path d="M75.2049 54.182L73.8625 50.3857C73.7827 50.1862 73.6972 49.9525 73.606 49.6846C73.5205 49.4167 73.4379 49.126 73.3581 48.8125C73.2783 49.1317 73.1928 49.4281 73.1016 49.7017C73.016 49.9696 72.9334 50.2033 72.8536 50.4028L71.5198 54.182H75.2049ZM79.5142 58.8932H77.522C77.2997 58.8932 77.1173 58.8419 76.9748 58.7393C76.838 58.631 76.7354 58.4942 76.667 58.3289L75.8291 55.9605H70.887L70.0491 58.3289C69.9921 58.4714 69.8924 58.6025 69.7499 58.7222C69.6074 58.8362 69.4278 58.8932 69.2112 58.8932H67.2019L72.0499 46.4868H74.6748L79.5142 58.8932Z" fill="white"/>
<path d="M58.6814 48.4961V51.6853H62.8198V53.6262H58.6814V56.8839H63.9997V58.8932H56.0993V46.4868H63.9997V48.4961H58.6814Z" fill="white"/>
<path d="M51.8242 48.556H48.1989V58.8932H45.6253V48.556H42V46.4868H51.8242V48.556Z" fill="white"/>
<path d="M79.0963 40.567H72.6738V13.6011H78.9355V17.2037C80.7046 14.105 83.9212 12.8291 86.9127 12.8291C93.5067 12.8291 96.659 17.5897 96.659 23.519V40.5777H90.2365V24.6341C90.2365 21.3102 88.7462 18.6512 84.6932 18.6512C81.037 18.6512 79.0963 21.4711 79.0963 25.0201V40.5777V40.567Z" fill="white"/>
<path d="M115.562 40.567H109.14L98.1709 13.6011H105.258L112.399 32.8686L119.379 13.6011H126.134L115.562 40.567Z" fill="white"/>
<path d="M139.15 41.2854C131.227 41.2854 126.134 35.0237 126.134 26.9393C126.134 18.8549 131.28 12.8184 139.032 12.8184C143.793 12.8184 146.227 15.3059 146.956 17.1393V13.5903H153.218V35.6349C153.218 37.8543 153.443 40.0094 153.496 40.567H147.353C147.245 39.9558 147.074 38.5191 147.074 36.6856C145.852 39.2911 143.032 41.2854 139.15 41.2854ZM139.869 35.7528C144.082 35.7528 147.01 32.1502 147.01 26.95C147.01 21.7498 144.125 18.426 139.869 18.426C135.612 18.426 132.556 21.7498 132.556 26.95C132.556 32.1502 135.376 35.7528 139.869 35.7528Z" fill="white"/>
<path d="M162.181 31.711C162.407 34.1449 164.229 36.3107 167.66 36.3107C170.319 36.3107 171.703 34.874 171.703 33.2121C171.703 31.7753 170.705 30.6602 168.55 30.2206L164.562 29.3307C159.801 28.2799 157.303 25.1813 157.303 21.4714C157.303 16.7645 161.624 12.7759 167.21 12.7759C174.737 12.7759 177.181 17.6544 177.621 20.3027L172.196 21.8574C171.971 20.3027 170.813 17.8152 167.21 17.8152C164.937 17.8152 163.329 19.252 163.329 20.9139C163.329 22.3507 164.379 23.4014 166.041 23.7338L170.137 24.5701C175.23 25.6745 177.889 28.7839 177.889 32.7617C177.889 36.7396 174.565 41.4037 167.703 41.4037C159.898 41.4037 156.906 36.3107 156.574 33.2657L162.171 31.711H162.181Z" fill="white"/>
</svg>
