<svg width="24" height="24" viewBox="0 0 24 24" fill="none" xmlns="http://www.w3.org/2000/svg">
<path d="M6.30775 21.5C5.80258 21.5 5.375 21.325 5.025 20.975C4.675 20.625 4.5 20.1974 4.5 19.6923V4.30775C4.5 3.80258 4.675 3.375 5.025 3.025C5.375 2.675 5.80258 2.5 6.30775 2.5H13.9307C14.2024 2.5 14.4589 2.55675 14.7003 2.67025C14.9418 2.78358 15.1455 2.94608 15.3115 3.15775L19.073 7.67125C19.2078 7.83742 19.3127 8.01867 19.3875 8.215C19.4625 8.4115 19.5 8.61675 19.5 8.83075V19.3845C19.5 19.7903 19.3151 20.0684 18.9453 20.2188C18.5752 20.3691 18.248 20.3019 17.9635 20.0173L13.8652 15.95C13.5819 16.1397 13.2878 16.2788 12.983 16.3673C12.6782 16.4558 12.3505 16.5 12 16.5C11.0375 16.5 10.2136 16.1573 9.52825 15.4718C8.84275 14.7864 8.5 13.9625 8.5 13C8.5 12.0375 8.84275 11.2136 9.52825 10.5283C10.2136 9.84275 11.0375 9.5 12 9.5C12.9625 9.5 13.7864 9.84275 14.4718 10.5283C15.1573 11.2136 15.5 12.0375 15.5 13C15.5 13.3642 15.4542 13.6985 15.3625 14.003C15.2708 14.3073 15.1333 14.5947 14.95 14.8652L18 17.9655V8.7L14.05 4H6.30775C6.23075 4 6.16025 4.03208 6.09625 4.09625C6.03208 4.16025 6 4.23075 6 4.30775V19.6923C6 19.7693 6.03208 19.8398 6.09625 19.9038C6.16025 19.9679 6.23075 20 6.30775 20H14.777C15.027 20 15.2145 20.0779 15.3395 20.2337C15.4645 20.3897 15.527 20.5613 15.527 20.7483C15.527 20.9352 15.4645 21.1073 15.3395 21.2645C15.2145 21.4215 15.027 21.5 14.777 21.5H6.30775ZM12 15C12.55 15 13.0208 14.8042 13.4125 14.4125C13.8042 14.0208 14 13.55 14 13C14 12.45 13.8042 11.9792 13.4125 11.5875C13.0208 11.1958 12.55 11 12 11C11.45 11 10.9792 11.1958 10.5875 11.5875C10.1958 11.9792 10 12.45 10 13C10 13.55 10.1958 14.0208 10.5875 14.4125C10.9792 14.8042 11.45 15 12 15Z" fill="#273540"/>
</svg>
