<svg xmlns="http://www.w3.org/2000/svg" viewBox="0 0 24 24"><g transform="matrix(0.010416666666666666 0 0 0.010416666666666666 2 2)"><path d="M225.882 1298.412c124.574 0 225.883 101.308 225.883 225.882s-101.309 225.882-225.883 225.882C101.308 1750.176 0 1648.868 0 1524.294s101.308-225.882 225.882-225.882ZM1920 1411.352v225.883H677.647v-225.882H1920ZM225.882 733.707c124.574 0 225.883 101.308 225.883 225.882s-101.309 225.883-225.883 225.883C101.308 1185.47 0 1084.162 0 959.588c0-124.574 101.308-225.882 225.882-225.882ZM1920 846.647v225.882H677.647V846.647H1920ZM225.882 169c124.574 0 225.883 101.308 225.883 225.882S350.456 620.765 225.882 620.765C101.308 620.765 0 519.456 0 394.882 0 270.308 101.308 169 225.882 169ZM1920 281.941v225.883H677.647V281.94H1920Z" fill-rule="evenodd"/></g>
</svg>