<svg width="16" height="16" viewBox="0 0 16 16" fill="none" xmlns="http://www.w3.org/2000/svg">
<path d="M7.25005 12.627V1.25C7.25005 1.03717 7.32189 0.859 7.46555 0.7155C7.60906 0.571833 7.78722 0.5 8.00005 0.5C8.21289 0.5 8.39106 0.571833 8.53455 0.7155C8.67822 0.859 8.75005 1.03717 8.75005 1.25V12.627L13.9193 7.45775C14.068 7.30908 14.242 7.23567 14.4413 7.2375C14.6406 7.2395 14.8179 7.318 14.9731 7.473C15.1179 7.62817 15.1929 7.80383 15.1981 8C15.2032 8.19617 15.1282 8.37183 14.9731 8.527L8.6328 14.8673C8.53914 14.9609 8.44039 15.0269 8.33656 15.0652C8.23272 15.1038 8.12055 15.123 8.00005 15.123C7.87956 15.123 7.76739 15.1038 7.66356 15.0652C7.55972 15.0269 7.46097 14.9609 7.36731 14.8673L1.02705 8.527C0.888555 8.3885 0.817721 8.217 0.814555 8.0125C0.811388 7.808 0.882221 7.62817 1.02705 7.473C1.18222 7.318 1.36039 7.2405 1.56155 7.2405C1.76289 7.2405 1.94114 7.318 2.0963 7.473L7.25005 12.627Z" fill="#273540"/>
</svg>
