<svg xmlns="http://www.w3.org/2000/svg" viewBox="0 0 24 24"><g transform="matrix(0.010416666666666666 0 0 0.010416666666666666 2 2)"><path d="M960 1807.059c-467.125 0-847.059-379.934-847.059-847.059 0-467.125 379.934-847.059 847.059-847.059 467.125 0 847.059 379.934 847.059 847.059 0 467.125-379.934 847.059-847.059 847.059M960 0C430.645 0 0 430.645 0 960s430.645 960 960 960 960-430.645 960-960S1489.355 0 960 0M854.344 1157.975 583.059 886.69l-79.85 79.85 351.135 351.133L1454.4 717.617l-79.85-79.85-520.206 520.208Z" fill-rule="evenodd"/></g>
</svg>