<svg width="24" height="24" viewBox="0 0 24 24" fill="none" xmlns="http://www.w3.org/2000/svg">
<path d="M12.798 12L6.71925 6.11725C6.64492 6.04292 6.58983 5.96192 6.554 5.87425C6.518 5.78675 6.5 5.69625 6.5 5.60275V5.19975C6.5 5.00125 6.56725 4.835 6.70175 4.701C6.83642 4.567 7.00317 4.5 7.202 4.5H16.4423C16.7361 4.5 16.9858 4.60292 17.1915 4.80875C17.3972 5.01475 17.5 5.26475 17.5 5.55875C17.5 5.85292 17.3972 6.10417 17.1915 6.3125C16.9858 6.52083 16.7361 6.625 16.4423 6.625H9.9385L14.7693 11.352C14.9538 11.5302 15.046 11.7455 15.046 11.998C15.046 12.2507 14.9538 12.4673 14.7693 12.648L9.9385 17.3848H16.4423C16.7361 17.3848 16.9858 17.4877 17.1915 17.6935C17.3972 17.8993 17.5 18.1493 17.5 18.4435C17.5 18.7375 17.3972 18.9871 17.1915 19.1923C16.9858 19.3974 16.7361 19.5 16.4423 19.5H7.00375C6.86492 19.5 6.74625 19.4507 6.64775 19.3522C6.54925 19.2537 6.5 19.1351 6.5 18.9962V18.312C6.5 18.2398 6.51167 18.1734 6.535 18.1128C6.55833 18.0519 6.59925 17.9938 6.65775 17.9385L12.798 12Z" fill="#273540"/>
</svg>
