<svg width="24" height="24" viewBox="0 0 24 24" fill="none" xmlns="http://www.w3.org/2000/svg">
<path d="M15.3385 11.25H18.9905V7.30775C18.9905 7.21792 18.9616 7.14417 18.9038 7.0865C18.8461 7.02883 18.7725 7 18.6828 7H15.3385V11.25ZM10.1713 11.25H13.823V7H10.1713V11.25ZM5.01929 11.25H8.67129V7H5.32704C5.2372 7 5.16345 7.02883 5.10579 7.0865C5.04812 7.14417 5.01929 7.21792 5.01929 7.30775V11.25ZM5.32704 17H8.67129V12.75H5.01929V16.6923C5.01929 16.7821 5.04812 16.8558 5.10579 16.9135C5.16345 16.9712 5.2372 17 5.32704 17ZM10.1713 17H13.823V12.75H10.1713V17ZM15.3385 17H18.6828C18.7725 17 18.8461 16.9712 18.9038 16.9135C18.9616 16.8558 18.9905 16.7821 18.9905 16.6923V12.75H15.3385V17ZM3.51929 16.6923V7.30775C3.51929 6.81058 3.69629 6.385 4.05029 6.031C4.40429 5.677 4.82987 5.5 5.32704 5.5H18.6828C19.1798 5.5 19.6053 5.677 19.9593 6.031C20.3133 6.385 20.4903 6.81058 20.4903 7.30775V16.6923C20.4903 17.1894 20.3133 17.615 19.9593 17.969C19.6053 18.323 19.1798 18.5 18.6828 18.5H5.32704C4.82987 18.5 4.40429 18.323 4.05029 17.969C3.69629 17.615 3.51929 17.1894 3.51929 16.6923Z" fill="#273540"/>
</svg>
