<svg xmlns="http://www.w3.org/2000/svg" viewBox="0 0 24 24"><g transform="matrix(0.010416666666666666 0 0 0.010416666666666666 2 2)"><path d="M642.077 960.295c0-175.276 142.637-317.913 317.912-317.913 68.458 0 130.45 23.632 182.27 60.721L702.8 1142.564c-37.09-51.82-60.722-113.812-60.722-182.27ZM1717.257 128l75.027 75.027-573.726 573.62-442.216 442.216-573.62 573.726-75.027-75.027 283.79-283.684c-26.811-17.273-54.151-35.924-82.128-57.118C199.225 1275.346 89.651 1139.597 11.87 984.032L0 960.401l11.763-23.738C199.437 559.09 562.81 324.47 959.989 324.47c111.376 0 220.314 18.545 323.847 54.999 42.282 13.246 85.519 32.003 128.649 53.409L1717.257 128Zm-121.422 421.16C1723 648.666 1831.091 783.355 1908.45 937.013l11.55 23.313-11.55 23.208c-187.675 378.422-551.049 612.617-948.44 612.617-111.269 0-220.419-18.015-324.27-55.105l-23.314-8.477 266.199-266.305c26.069 7.1 52.985 11.975 81.386 11.975 175.275 0 317.912-142.637 317.912-317.913 0-28.4-4.875-55.316-11.869-81.385Z" fill-rule="evenodd"/></g>
</svg>