<svg width="24" height="24" viewBox="0 0 24 24" fill="none" xmlns="http://www.w3.org/2000/svg">
<path d="M16.8558 16.8999L14.773 18.9827C14.6345 19.121 14.4621 19.1886 14.2557 19.1854C14.0494 19.1823 13.877 19.1114 13.7385 18.9729C13.6 18.8344 13.5307 18.6599 13.5307 18.4492C13.5307 18.2385 13.6 18.065 13.7385 17.9287L15.8115 15.8557L13.7288 13.7729C13.5904 13.6344 13.5228 13.4604 13.526 13.2509C13.5292 13.0413 13.6 12.8672 13.7385 12.7287C13.877 12.5904 14.0516 12.5212 14.2622 12.5212C14.4729 12.5212 14.6464 12.5904 14.7828 12.7287L16.8558 14.8114L18.9385 12.7287C19.0748 12.5904 19.2483 12.5212 19.459 12.5212C19.6697 12.5212 19.8442 12.5904 19.9827 12.7287C20.1211 12.8672 20.1903 13.0418 20.1903 13.2524C20.1903 13.4631 20.1211 13.6366 19.9827 13.7729L17.9 15.8557L19.9827 17.9384C20.1211 18.0769 20.1903 18.2494 20.1903 18.4557C20.1903 18.662 20.1211 18.8344 19.9827 18.9729C19.8442 19.1114 19.6697 19.1807 19.459 19.1807C19.2483 19.1807 19.0748 19.1114 18.9385 18.9729L16.8558 16.8999ZM16.2153 8.72295L19.9385 4.99995C20.0872 4.85128 20.2628 4.77786 20.4653 4.7797C20.6679 4.7817 20.8436 4.86028 20.9923 5.01545C21.1308 5.16645 21.2 5.34261 21.2 5.54395C21.2 5.74545 21.1308 5.92053 20.9923 6.0692L16.873 10.2037C16.6923 10.3845 16.4814 10.4749 16.2402 10.4749C15.9992 10.4749 15.7884 10.3845 15.6077 10.2037L13.5635 8.15945C13.425 8.02111 13.3573 7.84711 13.3605 7.63745C13.3638 7.42778 13.4347 7.25378 13.573 7.11545C13.7115 6.97695 13.8861 6.9077 14.0968 6.9077C14.3074 6.9077 14.4809 6.97695 14.6173 7.11545L16.2153 8.72295ZM3.25 15.0577H10.25C10.4625 15.0577 10.6407 15.1296 10.7845 15.2734C10.9282 15.4173 11 15.5954 11 15.8079C11 16.0206 10.9282 16.1987 10.7845 16.3422C10.6407 16.4859 10.4625 16.5577 10.25 16.5577H3.25C3.0375 16.5577 2.85942 16.4858 2.71575 16.3419C2.57192 16.1981 2.5 16.0199 2.5 15.8072C2.5 15.5947 2.57192 15.4166 2.71575 15.2729C2.85942 15.1294 3.0375 15.0577 3.25 15.0577ZM3.25 7.4422H10.25C10.4625 7.4422 10.6407 7.51411 10.7845 7.65795C10.9282 7.80178 11 7.98003 11 8.1927C11 8.4052 10.9282 8.58328 10.7845 8.72695C10.6407 8.87045 10.4625 8.9422 10.25 8.9422H3.25C3.0375 8.9422 2.85942 8.87028 2.71575 8.72645C2.57192 8.58261 2.5 8.40445 2.5 8.19195C2.5 7.97928 2.57192 7.8012 2.71575 7.6577C2.85942 7.51403 3.0375 7.4422 3.25 7.4422Z" fill="#273540"/>
</svg>
