<svg width="24" height="24" viewBox="0 0 24 24" fill="none" xmlns="http://www.w3.org/2000/svg">
<path d="M14.9558 8.01719C14.9558 7.19153 14.6799 6.52836 14.128 6.02769C13.576 5.52719 12.8475 5.27694 11.9423 5.27694C11.3693 5.27694 10.8613 5.39386 10.4183 5.62769C9.97529 5.86169 9.59288 6.21394 9.27104 6.68444C9.08138 6.95244 8.82788 7.11078 8.51054 7.15944C8.19338 7.20828 7.91612 7.13078 7.67879 6.92694C7.50329 6.77428 7.40304 6.58294 7.37804 6.35294C7.35304 6.12278 7.40654 5.90444 7.53854 5.69794C8.04621 4.93011 8.67413 4.34619 9.42229 3.94619C10.1703 3.54619 11.0103 3.34619 11.9423 3.34619C13.4308 3.34619 14.6424 3.77244 15.577 4.62494C16.5115 5.47744 16.9788 6.58769 16.9788 7.95569C16.9788 8.68003 16.8237 9.34378 16.5135 9.94694C16.2032 10.5503 15.6744 11.1994 14.927 11.8942C14.227 12.5289 13.7495 13.0439 13.4943 13.4394C13.2391 13.8349 13.091 14.2794 13.05 14.7729C13.009 15.0576 12.8911 15.2948 12.6963 15.4844C12.5013 15.6743 12.2666 15.7692 11.9923 15.7692C11.718 15.7692 11.4834 15.6753 11.2885 15.4874C11.0937 15.2996 10.9963 15.0685 10.9963 14.7942C10.9963 14.125 11.1491 13.5132 11.4548 12.9587C11.7606 12.4042 12.2725 11.8077 12.9905 11.1692C13.7572 10.4962 14.2764 9.93461 14.548 9.48444C14.8199 9.03444 14.9558 8.54536 14.9558 8.01719ZM11.9423 21.4999C11.5333 21.4999 11.181 21.3522 10.8855 21.0567C10.59 20.7612 10.4423 20.4089 10.4423 19.9999C10.4423 19.5909 10.59 19.2387 10.8855 18.9432C11.181 18.6477 11.5333 18.4999 11.9423 18.4999C12.3513 18.4999 12.7035 18.6477 12.999 18.9432C13.2945 19.2387 13.4423 19.5909 13.4423 19.9999C13.4423 20.4089 13.2945 20.7612 12.999 21.0567C12.7035 21.3522 12.3513 21.4999 11.9423 21.4999Z" fill="#273540"/>
</svg>
