<svg width="24" height="24" viewBox="0 0 24 24" fill="none" xmlns="http://www.w3.org/2000/svg">
<path d="M9.04792 15.5385L8.17492 19.0058C8.13776 19.1711 8.05826 19.3012 7.93642 19.396C7.81459 19.491 7.66592 19.5385 7.49042 19.5385C7.25709 19.5385 7.06601 19.4455 6.91717 19.2595C6.76851 19.0737 6.72626 18.8693 6.79042 18.6463L7.56717 15.5385H4.71717C4.46717 15.5385 4.26626 15.443 4.11442 15.252C3.96242 15.0609 3.91851 14.8455 3.98267 14.6058C4.02634 14.4301 4.11576 14.2917 4.25092 14.1905C4.38626 14.0892 4.54167 14.0385 4.71717 14.0385H7.94217L8.96142 9.96155H6.11142C5.86142 9.96155 5.66051 9.86605 5.50867 9.67505C5.35667 9.48405 5.31276 9.26863 5.37692 9.0288C5.42042 8.8533 5.50984 8.71488 5.64517 8.61355C5.78034 8.51221 5.93576 8.46155 6.11142 8.46155H9.33642L10.2097 4.9943C10.2468 4.82896 10.3263 4.69888 10.4479 4.60405C10.5698 4.50905 10.7185 4.46155 10.8942 4.46155C11.1275 4.46155 11.3185 4.55455 11.4672 4.74055C11.6158 4.92638 11.6582 5.1308 11.5942 5.3538L10.8172 8.46155H14.9519L15.8249 4.9943C15.8621 4.82896 15.9416 4.69888 16.0634 4.60405C16.1853 4.50905 16.3339 4.46155 16.5094 4.46155C16.7428 4.46155 16.9338 4.55455 17.0827 4.74055C17.2313 4.92638 17.2736 5.1308 17.2094 5.3538L16.4327 8.46155H19.2827C19.5327 8.46155 19.7336 8.55705 19.8854 8.74805C20.0374 8.93921 20.0813 9.15463 20.0172 9.3943C19.9735 9.56996 19.8841 9.70838 19.7489 9.80955C19.6136 9.91088 19.4582 9.96155 19.2827 9.96155H16.0577L15.0384 14.0385H17.8884C18.1384 14.0385 18.3393 14.134 18.4912 14.325C18.6432 14.516 18.6871 14.7315 18.6229 14.9713C18.5794 15.1468 18.49 15.2852 18.3547 15.3865C18.2195 15.4879 18.0641 15.5385 17.8884 15.5385H14.6634L13.7902 19.0058C13.753 19.1711 13.6736 19.3012 13.5519 19.396C13.4301 19.491 13.2813 19.5385 13.1057 19.5385C12.8723 19.5385 12.6813 19.4455 12.5327 19.2595C12.384 19.0737 12.3417 18.8693 12.4057 18.6463L13.1827 15.5385H9.04792ZM9.42292 14.0385H13.5577L14.5769 9.96155H10.4422L9.42292 14.0385Z" fill="#273540"/>
</svg>
