<svg width="24" height="24" viewBox="0 0 24 24" fill="none" xmlns="http://www.w3.org/2000/svg">
<mask id="mask0_4771_95643" style="mask-type:alpha" maskUnits="userSpaceOnUse" x="0" y="0" width="24" height="24">
<rect width="24" height="24" fill="#D9D9D9"/>
</mask>
<g mask="url(#mask0_4771_95643)">
<path d="M20.6923 8.49999C21.1679 8.49999 21.5881 8.6824 21.9527 9.04724C22.3176 9.4119 22.5 9.83207 22.5 10.3077V11.923C22.5 12.0268 22.4891 12.139 22.4673 12.2595C22.4454 12.38 22.4128 12.4922 22.3693 12.5962L19.5038 19.3577C19.3603 19.6782 19.1199 19.9487 18.7828 20.1692C18.4456 20.3897 18.0949 20.5 17.7308 20.5H9.6345C9.13583 20.5 8.70992 20.3234 8.35675 19.9702C8.00358 19.6169 7.827 19.1909 7.827 18.6922V9.24799C7.827 9.00699 7.87633 8.77532 7.975 8.55299C8.07367 8.33049 8.20508 8.13715 8.36925 7.97298L13.6595 2.71724C13.8583 2.5289 14.0885 2.4129 14.35 2.36924C14.6115 2.32574 14.8621 2.36482 15.1018 2.48649C15.3416 2.60832 15.5147 2.78715 15.621 3.02298C15.7275 3.25898 15.7487 3.50965 15.6845 3.77499L14.6075 8.49999H20.6923ZM4.30775 20.5C3.80908 20.5 3.38308 20.3234 3.02975 19.9702C2.67658 19.6169 2.5 19.1909 2.5 18.6922V10.3077C2.5 9.80907 2.67658 9.38307 3.02975 9.02974C3.38308 8.67657 3.80908 8.49999 4.30775 8.49999H4.51925C5.01792 8.49999 5.44392 8.67657 5.79725 9.02974C6.15042 9.38307 6.327 9.80907 6.327 10.3077V18.702C6.327 19.2007 6.15042 19.625 5.79725 19.975C5.44392 20.325 5.01792 20.5 4.51925 20.5H4.30775Z" fill="#273540"/>
</g>
</svg>
