<svg width="24" height="24" viewBox="0 0 24 24" fill="none" xmlns="http://www.w3.org/2000/svg">
<path d="M5.30775 21.5C4.80258 21.5 4.375 21.325 4.025 20.975C3.675 20.625 3.5 20.1974 3.5 19.6923V6.30777C3.5 5.8026 3.675 5.37502 4.025 5.02502C4.375 4.67502 4.80258 4.50002 5.30775 4.50002H6.69225V3.15377C6.69225 2.9346 6.76567 2.7516 6.9125 2.60477C7.05933 2.4581 7.24233 2.38477 7.4615 2.38477C7.68083 2.38477 7.86383 2.4581 8.0105 2.60477C8.15733 2.7516 8.23075 2.9346 8.23075 3.15377V4.50002H15.8077V3.13477C15.8077 2.92193 15.8795 2.74368 16.023 2.60002C16.1667 2.45652 16.3449 2.38477 16.5577 2.38477C16.7706 2.38477 16.9488 2.45652 17.0922 2.60002C17.2359 2.74368 17.3077 2.92193 17.3077 3.13477V4.50002H18.6923C19.1974 4.50002 19.625 4.67502 19.975 5.02502C20.325 5.37502 20.5 5.8026 20.5 6.30777V10.6213C20.5 10.8341 20.4282 11.0123 20.2845 11.1558C20.141 11.2994 19.9628 11.3713 19.75 11.3713C19.5372 11.3713 19.359 11.2994 19.2155 11.1558C19.0718 11.0123 19 10.8341 19 10.6213V10.3078H5V19.6923C5 19.7693 5.03208 19.8398 5.09625 19.9038C5.16025 19.9679 5.23075 20 5.30775 20H11.173C11.3858 20 11.5641 20.0718 11.7078 20.2155C11.8512 20.359 11.923 20.5372 11.923 20.75C11.923 20.9628 11.8512 21.141 11.7078 21.2845C11.5641 21.4282 11.3858 21.5 11.173 21.5H5.30775ZM5 8.80777H19V6.30777C19 6.23077 18.9679 6.16026 18.9038 6.09626C18.8398 6.0321 18.7692 6.00002 18.6923 6.00002H5.30775C5.23075 6.00002 5.16025 6.0321 5.09625 6.09626C5.03208 6.16026 5 6.23077 5 6.30777V8.80777ZM14.1155 20.596V19.2345C14.1155 19.114 14.1372 18.9993 14.1807 18.8905C14.2244 18.7815 14.293 18.6802 14.3865 18.5865L19.5443 13.4538C19.6686 13.3294 19.8032 13.2419 19.948 13.1913C20.0928 13.1408 20.2378 13.1155 20.3827 13.1155C20.5378 13.1155 20.6893 13.1449 20.8375 13.2038C20.9855 13.2628 21.1185 13.3513 21.2365 13.4693L22.1615 14.4038C22.2692 14.5283 22.3525 14.6629 22.4115 14.8078C22.4705 14.9526 22.5 15.0974 22.5 15.2423C22.5 15.3871 22.4731 15.5345 22.4193 15.6845C22.3654 15.8345 22.2795 15.9717 22.1615 16.096L17.0288 21.2288C16.9353 21.3224 16.834 21.391 16.725 21.4345C16.616 21.4782 16.5012 21.5 16.3807 21.5H15.0193C14.7616 21.5 14.5465 21.4138 14.374 21.2413C14.2017 21.0689 14.1155 20.8538 14.1155 20.596ZM15.3077 20.3078H16.2578L19.5038 17.046L19.0443 16.571L18.5788 16.102L15.3077 19.3578V20.3078ZM19.0443 16.571L18.5788 16.102L19.5038 17.046L19.0443 16.571Z" fill="#273540"/>
</svg>
