<svg width="20" height="20" viewBox="0 0 20 20" fill="none" xmlns="http://www.w3.org/2000/svg">
<path d="M10 6C8.9 6 7.95833 6.39167 7.175 7.175C6.39167 7.95833 6 8.9 6 10C6 10.7948 6.21317 11.5202 6.6395 12.176C7.06567 12.8318 7.641 13.3219 8.3655 13.6463C8.56167 13.7411 8.70267 13.8856 8.7885 14.0798C8.87433 14.2741 8.875 14.4693 8.7905 14.6653C8.70583 14.8409 8.57725 14.9743 8.40475 15.0653C8.23242 15.1564 8.05842 15.1597 7.88275 15.075C6.85842 14.6455 6.0385 13.9712 5.423 13.052C4.80767 12.1327 4.5 11.1153 4.5 10C4.5 8.47433 5.03525 7.17625 6.10575 6.10575C7.17625 5.03525 8.47433 4.5 10 4.5C11.1192 4.5 12.1426 4.80767 13.0703 5.423C13.9978 6.0385 14.6711 6.8655 15.0903 7.904C15.1648 8.0795 15.1574 8.25508 15.0682 8.43075C14.9791 8.60642 14.8467 8.73142 14.6712 8.80575C14.4686 8.89042 14.2692 8.88725 14.073 8.79625C13.8768 8.70525 13.7313 8.55842 13.6365 8.35575C13.3122 7.63142 12.8221 7.05767 12.1663 6.6345C11.5106 6.2115 10.7885 6 10 6ZM10 2C7.76667 2 5.875 2.775 4.325 4.325C2.775 5.875 2 7.76667 2 10C2 12.1642 2.7205 14.0027 4.1615 15.5155C5.6025 17.0283 7.39358 17.8463 9.53475 17.9693C9.74742 17.9898 9.93067 18.0795 10.0845 18.2385C10.2385 18.3975 10.3103 18.5834 10.3 18.7963C10.2897 19.0089 10.2127 19.1861 10.0693 19.3278C9.92558 19.4694 9.74742 19.5352 9.53475 19.525C8.26025 19.4737 7.07492 19.1807 5.97875 18.646C4.88275 18.1115 3.92667 17.4109 3.1105 16.5443C2.2945 15.6776 1.65542 14.6808 1.19325 13.5538C0.731083 12.4269 0.5 11.2423 0.5 10C0.5 8.68717 0.749667 7.45292 1.249 6.29725C1.74833 5.14142 2.42558 4.13592 3.28075 3.28075C4.13592 2.42558 5.14142 1.74833 6.29725 1.249C7.45292 0.749667 8.68717 0.5 10 0.5C12.4948 0.5 14.6763 1.36442 16.5443 3.09325C18.4121 4.82208 19.4057 6.966 19.525 9.525C19.5455 9.7275 19.4839 9.90217 19.3403 10.049C19.1968 10.1958 19.0186 10.2743 18.8057 10.2845C18.5929 10.2948 18.4028 10.224 18.2355 10.072C18.0682 9.92017 17.9743 9.73783 17.9538 9.525C17.7999 7.47367 16.9612 5.70667 15.4375 4.224C13.9138 2.74133 12.1013 2 10 2ZM17.3962 18.8845L13.6058 15.1L12.971 17.0288C12.8942 17.2429 12.7487 17.3474 12.5345 17.3423C12.3205 17.3371 12.1783 17.2274 12.1077 17.0133L10.2463 10.8135C10.1924 10.643 10.2308 10.4923 10.3615 10.3615C10.4923 10.2308 10.643 10.1924 10.8135 10.2463L17.0133 12.1078C17.2274 12.1783 17.3371 12.3205 17.3423 12.5345C17.3474 12.7487 17.2429 12.8942 17.0288 12.971L15.1 13.6058L18.9 17.3963C19.1128 17.6089 19.2193 17.8569 19.2193 18.1403C19.2193 18.4236 19.1128 18.6717 18.9 18.8845C18.6872 19.0973 18.4365 19.2038 18.148 19.2038C17.8595 19.2038 17.6089 19.0973 17.3962 18.8845Z" fill="#273540"/>
</svg>
