<svg width="10" height="20" viewBox="0 0 10 20" fill="none" xmlns="http://www.w3.org/2000/svg">
<path d="M7.83076 10L0.298015 2.46725C0.0993485 2.26858 0.00259814 2.03208 0.0077648 1.75775C0.0129315 1.48342 0.114848 1.24683 0.313515 1.048C0.512182 0.849333 0.748682 0.75 1.02302 0.75C1.29735 0.75 1.53393 0.849333 1.73276 1.048L9.38851 8.71925C9.56918 8.90008 9.7031 9.10267 9.79026 9.327C9.8776 9.55133 9.92126 9.77567 9.92126 10C9.92126 10.2243 9.8776 10.4487 9.79026 10.673C9.7031 10.8973 9.56918 11.0999 9.38851 11.2808L1.71727 18.952C1.5186 19.1507 1.28468 19.2474 1.01551 19.2423C0.746181 19.2371 0.512182 19.1352 0.313515 18.9365C0.114848 18.7378 0.0155147 18.5013 0.0155147 18.227C0.0155147 17.9527 0.114848 17.7161 0.313515 17.5173L7.83076 10Z" fill="#273540"/>
</svg>
