<svg width="24" height="24" viewBox="0 0 24 24" fill="none" xmlns="http://www.w3.org/2000/svg">
<mask id="mask0_4_425" style="mask-type:alpha" maskUnits="userSpaceOnUse" x="0" y="0" width="24" height="24">
<rect width="24" height="24" fill="#D9D9D9"/>
</mask>
<g mask="url(#mask0_4_425)">
<path d="M5.30775 20.5C4.80258 20.5 4.375 20.325 4.025 19.975C3.675 19.625 3.5 19.1974 3.5 18.6923V5.30775C3.5 4.80258 3.675 4.375 4.025 4.025C4.375 3.675 4.80258 3.5 5.30775 3.5H18.6923C19.1974 3.5 19.625 3.675 19.975 4.025C20.325 4.375 20.5 4.80258 20.5 5.30775V18.6923C20.5 19.1974 20.325 19.625 19.975 19.975C19.625 20.325 19.1974 20.5 18.6923 20.5H5.30775ZM5.30775 19H18.6923C18.7692 19 18.8398 18.9679 18.9038 18.9038C18.9679 18.8398 19 18.7692 19 18.6923V5.30775C19 5.23075 18.9679 5.16025 18.9038 5.09625C18.8398 5.03208 18.7692 5 18.6923 5H5.30775C5.23075 5 5.16025 5.03208 5.09625 5.09625C5.03208 5.16025 5 5.23075 5 5.30775V18.6923C5 18.7692 5.03208 18.8398 5.09625 18.9038C5.16025 18.9679 5.23075 19 5.30775 19ZM8 16.75H13C13.2128 16.75 13.391 16.6782 13.5345 16.5345C13.6782 16.391 13.75 16.2128 13.75 16C13.75 15.7872 13.6782 15.609 13.5345 15.4655C13.391 15.3218 13.2128 15.25 13 15.25H8C7.78717 15.25 7.609 15.3218 7.4655 15.4655C7.32183 15.609 7.25 15.7872 7.25 16C7.25 16.2128 7.32183 16.391 7.4655 16.5345C7.609 16.6782 7.78717 16.75 8 16.75ZM8 12.75H16C16.2128 12.75 16.391 12.6782 16.5345 12.5345C16.6782 12.391 16.75 12.2128 16.75 12C16.75 11.7872 16.6782 11.609 16.5345 11.4655C16.391 11.3218 16.2128 11.25 16 11.25H8C7.78717 11.25 7.609 11.3218 7.4655 11.4655C7.32183 11.609 7.25 11.7872 7.25 12C7.25 12.2128 7.32183 12.391 7.4655 12.5345C7.609 12.6782 7.78717 12.75 8 12.75ZM8 8.75H16C16.2128 8.75 16.391 8.67817 16.5345 8.5345C16.6782 8.391 16.75 8.21283 16.75 8C16.75 7.78717 16.6782 7.609 16.5345 7.4655C16.391 7.32183 16.2128 7.25 16 7.25H8C7.78717 7.25 7.609 7.32183 7.4655 7.4655C7.32183 7.609 7.25 7.78717 7.25 8C7.25 8.21283 7.32183 8.391 7.4655 8.5345C7.609 8.67817 7.78717 8.75 8 8.75Z" fill="#273540"/>
</g>
</svg>
