<svg width="24" height="24" viewBox="0 0 24 24" fill="none" xmlns="http://www.w3.org/2000/svg">
<path d="M14.4135 6.625H10.5095C10.2158 6.625 9.96617 6.52208 9.7605 6.31625C9.55483 6.11025 9.452 5.86025 9.452 5.56625C9.452 5.27208 9.55483 5.02083 9.7605 4.8125C9.96617 4.60417 10.2158 4.5 10.5095 4.5H20.4423C20.7361 4.5 20.9858 4.60292 21.1915 4.80875C21.3972 5.01475 21.5 5.26475 21.5 5.55875C21.5 5.85292 21.3972 6.10417 21.1915 6.3125C20.9858 6.52083 20.7361 6.625 20.4423 6.625H16.5385V18.4423C16.5385 18.7361 16.4355 18.9858 16.2295 19.1915C16.0237 19.3972 15.7738 19.5 15.4798 19.5C15.1856 19.5 14.9343 19.3962 14.726 19.1888C14.5177 18.9812 14.4135 18.7292 14.4135 18.4327V6.625ZM5.48075 11.577H3.55775C3.26392 11.577 3.01417 11.474 2.8085 11.268C2.60283 11.0622 2.5 10.8122 2.5 10.518C2.5 10.224 2.60283 9.97283 2.8085 9.7645C3.01417 9.55617 3.26392 9.452 3.55775 9.452H9.51925C9.81308 9.452 10.0628 9.55492 10.2685 9.76075C10.4742 9.96658 10.577 10.2166 10.577 10.5107C10.577 10.8049 10.4742 11.0562 10.2685 11.2645C10.0628 11.4728 9.81308 11.577 9.51925 11.577H7.596V18.4423C7.596 18.7361 7.49308 18.9858 7.28725 19.1915C7.08142 19.3972 6.83142 19.5 6.53725 19.5C6.24325 19.5 5.99367 19.3972 5.7885 19.1915C5.58333 18.9858 5.48075 18.7361 5.48075 18.4423V11.577Z" fill="#273540"/>
</svg>
