<svg width="24" height="24" viewBox="0 0 24 24" fill="none" xmlns="http://www.w3.org/2000/svg">
<path d="M13.25 8.0915V4.40875C13.25 4.14775 13.3369 3.93108 13.5107 3.75875C13.6846 3.58625 13.8999 3.5 14.1568 3.5H19.5972C19.8542 3.5 20.0689 3.58625 20.2413 3.75875C20.4138 3.93108 20.5 4.14775 20.5 4.40875V8.0915C20.5 8.35233 20.4131 8.56892 20.2393 8.74125C20.0654 8.91375 19.8501 9 19.5933 9H14.1528C13.8958 9 13.6811 8.91375 13.5087 8.74125C13.3362 8.56892 13.25 8.35233 13.25 8.0915ZM3.5 11.6V4.39975C3.5 4.14475 3.58692 3.93108 3.76075 3.75875C3.93458 3.58625 4.14992 3.5 4.40675 3.5H9.84725C10.1043 3.5 10.3189 3.58625 10.4913 3.75875C10.6638 3.93125 10.75 4.145 10.75 4.4V11.6003C10.75 11.8553 10.6631 12.0689 10.4893 12.2413C10.3154 12.4137 10.1001 12.5 9.84325 12.5H4.40275C4.14575 12.5 3.93108 12.4137 3.75875 12.2413C3.58625 12.0688 3.5 11.855 3.5 11.6ZM13.25 19.6V12.3997C13.25 12.1447 13.3369 11.9311 13.5107 11.7587C13.6846 11.5863 13.8999 11.5 14.1568 11.5H19.5972C19.8542 11.5 20.0689 11.5863 20.2413 11.7587C20.4138 11.9313 20.5 12.145 20.5 12.4V19.6003C20.5 19.8553 20.4131 20.0689 20.2393 20.2413C20.0654 20.4138 19.8501 20.5 19.5933 20.5H14.1528C13.8958 20.5 13.6811 20.4138 13.5087 20.2413C13.3362 20.0688 13.25 19.855 13.25 19.6ZM3.5 19.5913V15.9085C3.5 15.6477 3.58692 15.4311 3.76075 15.2587C3.93458 15.0863 4.14992 15 4.40675 15H9.84725C10.1043 15 10.3189 15.0863 10.4913 15.2587C10.6638 15.4311 10.75 15.6477 10.75 15.9085V19.5913C10.75 19.8523 10.6631 20.0689 10.4893 20.2413C10.3154 20.4138 10.1001 20.5 9.84325 20.5H4.40275C4.14575 20.5 3.93108 20.4138 3.75875 20.2413C3.58625 20.0689 3.5 19.8523 3.5 19.5913ZM5 11H9.25V5H5V11ZM14.75 19H19V13H14.75V19ZM14.75 7.5H19V5H14.75V7.5ZM5 19H9.25V16.5H5V19Z" fill="#273540"/>
</svg>
