
<svg version="1.1" xmlns="http://www.w3.org/2000/svg" viewBox="0 0 24 24">
 <g id="Guides">
  <line id="Baseline-S" x1="0" x2="24" y1="18" y2="18"/>
  <line id="Capline-S"  x1="0" x2="24" y1="6" y2="6"/>
  <line id="Baseline-M" x1="0" x2="24" y1="18" y2="18"/>
  <line id="Capline-M"  x1="0" x2="24" y1="6" y2="6"/>
  <line id="Baseline-L" x1="0" x2="24" y1="18" y2="18"/>
  <line id="Capline-L"  x1="0" x2="24" y1="6" y2="6"/>
  <line id="left-margin" x1="0" x2="0" y1="0" y2="24"/>
  <line id="right-margin"  x1="24" x2="24" y1="0" y2="24"/>
 </g>
 <g id="Symbols">
  <g id="Regular-M">
   <rect width="24" height="24" opacity="0" />
   <g transform="matrix(0.010416666666666666 0 0 0.010416666666666666 2 2)">
     <path d="M677.647 16v338.936h112.941V129.054h1016.47V919.53h-225.994v259.765L1321.412 919.53h-79.172V467.878H0v1016.47h338.71v418.9l417.996-418.9h485.534v-451.877h32.753l419.125 419.124v-419.124H1920V16H677.647zM338.79 919.563h564.706v-112.94H338.79v112.94zm0 225.883h338.936v-113.054H338.79v113.054zM112.94 580.706h1016.47v790.701H710.4L451.652 1631.06v-259.652h-338.71V580.706z" stroke="none" stroke-width="1" fill-rule="evenodd"/>
   </g>
  </g>
 </g>
</svg>
