<svg width="24" height="24" viewBox="0 0 24 24" fill="none" xmlns="http://www.w3.org/2000/svg">
<path fill-rule="evenodd" clip-rule="evenodd" d="M21.958 9.73505C22.0722 10.0859 21.948 10.4667 21.6505 10.6834L16.4913 14.4309L18.463 20.4943C18.5764 20.8451 18.4522 21.226 18.1539 21.4426C17.8555 21.6593 17.4547 21.6576 17.1572 21.441L11.9996 17.6943L6.84211 21.441C6.69294 21.5501 6.51877 21.6043 6.34294 21.6043C6.16877 21.6043 5.9946 21.5501 5.84627 21.4426C5.54793 21.226 5.42376 20.8451 5.5371 20.4943L7.50794 14.4309L2.34957 10.6826C2.05124 10.4667 1.9279 10.0859 2.04207 9.73505C2.15541 9.38505 2.47958 9.14921 2.84708 9.14921H9.22379L11.1938 3.08584C11.308 2.73583 11.6313 2.5 11.9996 2.5C12.368 2.5 12.6921 2.73583 12.8063 3.08584L14.7763 9.14921H21.1522C21.5205 9.14921 21.8447 9.38505 21.958 9.73505ZM15.6063 13.6192L20.1397 10.3259H14.5372C14.168 10.3259 13.8447 10.0901 13.7313 9.73922L11.9996 4.41251L10.2688 9.74089C10.1555 10.0901 9.83129 10.3259 9.46212 10.3259H3.85958L8.39295 13.6192C8.69045 13.8351 8.81379 14.2159 8.70129 14.5659L6.96961 19.8951L11.5021 16.6018C11.7996 16.3851 12.1996 16.3851 12.4988 16.6018L17.0305 19.8951L15.2988 14.5676C15.1863 14.2159 15.3097 13.8351 15.6063 13.6192Z" fill="#2D3B45"/>
</svg>
