<svg width="24" height="24" viewBox="0 0 24 24" fill="none" xmlns="http://www.w3.org/2000/svg">
<path d="M15.7212 16.9578L16.8905 15.7885C16.984 15.6955 17.0307 15.587 17.0307 15.463C17.0307 15.339 16.984 15.2302 16.8905 15.1365L13.2885 11.5192C13.3743 11.3296 13.4388 11.1318 13.4818 10.926C13.5248 10.7202 13.5462 10.491 13.5462 10.2385C13.5462 9.32283 13.22 8.53975 12.5675 7.88925C11.915 7.23875 11.1297 6.9135 10.2115 6.9135C10.0463 6.9135 9.88875 6.92183 9.73875 6.9385C9.58858 6.95517 9.43858 6.99042 9.28875 7.04425C9.15392 7.09808 9.07142 7.19875 9.04125 7.34625C9.01125 7.49358 9.04817 7.61917 9.152 7.723L10.925 9.50575L9.448 10.9827L7.65575 9.2C7.55192 9.09617 7.42625 9.05933 7.27875 9.0895C7.13142 9.11967 7.0295 9.20308 6.973 9.33975C6.93067 9.49158 6.899 9.64342 6.878 9.79525C6.85683 9.94708 6.84625 10.1051 6.84625 10.2693C6.84625 11.1874 7.17242 11.9728 7.82475 12.6253C8.47725 13.2776 9.26258 13.6038 10.1808 13.6038C10.4159 13.6038 10.6375 13.5807 10.8455 13.5345C11.0537 13.4883 11.259 13.4256 11.4615 13.3463L15.0788 16.948C15.1724 17.0417 15.2795 17.0901 15.4 17.0932C15.5205 17.0964 15.6276 17.0513 15.7212 16.9578ZM12.0017 21.5C10.6877 21.5 9.45267 21.2507 8.2965 20.752C7.14033 20.2533 6.13467 19.5766 5.2795 18.7218C4.42433 17.8669 3.74725 16.8617 3.24825 15.706C2.74942 14.5503 2.5 13.3156 2.5 12.0017C2.5 10.6877 2.74933 9.45267 3.248 8.2965C3.74667 7.14033 4.42342 6.13467 5.27825 5.2795C6.13308 4.42433 7.13833 3.74725 8.294 3.24825C9.44967 2.74942 10.6844 2.5 11.9983 2.5C13.3123 2.5 14.5473 2.74933 15.7035 3.248C16.8597 3.74667 17.8653 4.42342 18.7205 5.27825C19.5757 6.13308 20.2528 7.13833 20.7518 8.294C21.2506 9.44967 21.5 10.6844 21.5 11.9983C21.5 13.3123 21.2507 14.5473 20.752 15.7035C20.2533 16.8597 19.5766 17.8653 18.7218 18.7205C17.8669 19.5757 16.8617 20.2528 15.706 20.7518C14.5503 21.2506 13.3156 21.5 12.0017 21.5ZM12 20C14.2333 20 16.125 19.225 17.675 17.675C19.225 16.125 20 14.2333 20 12C20 9.76667 19.225 7.875 17.675 6.325C16.125 4.775 14.2333 4 12 4C9.76667 4 7.875 4.775 6.325 6.325C4.775 7.875 4 9.76667 4 12C4 14.2333 4.775 16.125 6.325 17.675C7.875 19.225 9.76667 20 12 20Z" fill="#273540"/>
</svg>
