<svg width="24" height="24" viewBox="0 0 24 24" fill="none" xmlns="http://www.w3.org/2000/svg">
<path d="M8 21.5C7.49483 21.5 7.06725 21.325 6.71725 20.975C6.36725 20.625 6.19225 20.1974 6.19225 19.6923V8C6.19225 7.49483 6.36725 7.06725 6.71725 6.71725C7.06725 6.36725 7.49483 6.19225 8 6.19225H19.6923C20.1974 6.19225 20.625 6.36725 20.975 6.71725C21.325 7.06725 21.5 7.49483 21.5 8V19.6923C21.5 20.1974 21.325 20.625 20.975 20.975C20.625 21.325 20.1974 21.5 19.6923 21.5H8ZM8 20H13.0962V16.548H7.69225V19.6923C7.69225 19.7821 7.72108 19.8558 7.77875 19.9135C7.83642 19.9712 7.91017 20 8 20ZM14.596 20H19.6923C19.7821 20 19.8558 19.9712 19.9135 19.9135C19.9712 19.8558 20 19.7821 20 19.6923V16.548H14.596V20ZM3.25 17.6152C3.03717 17.6152 2.859 17.5435 2.7155 17.4C2.57183 17.2563 2.5 17.0781 2.5 16.8652V4.30775C2.5 3.80258 2.675 3.375 3.025 3.025C3.375 2.675 3.80258 2.5 4.30775 2.5H16.8652C17.0781 2.5 17.2563 2.57183 17.4 2.7155C17.5435 2.859 17.6152 3.03717 17.6152 3.25C17.6152 3.46283 17.5435 3.641 17.4 3.7845C17.2563 3.92817 17.0781 4 16.8652 4H4.30775C4.21792 4 4.14417 4.02883 4.0865 4.0865C4.02883 4.14417 4 4.21792 4 4.30775V16.8652C4 17.0781 3.92817 17.2563 3.7845 17.4C3.641 17.5435 3.46283 17.6152 3.25 17.6152ZM7.69225 15.048H13.0962V11.5865H7.69225V15.048ZM14.596 15.048H20V11.5865H14.596V15.048ZM7.69225 10.0865H20V8C20 7.91017 19.9712 7.83642 19.9135 7.77875C19.8558 7.72108 19.7821 7.69225 19.6923 7.69225H8C7.91017 7.69225 7.83642 7.72108 7.77875 7.77875C7.72108 7.83642 7.69225 7.91017 7.69225 8V10.0865Z" fill="#273540"/>
</svg>
