<svg width="24" height="24" viewBox="0 0 24 24" fill="none" xmlns="http://www.w3.org/2000/svg">
<path d="M6.16561 14.5538L5.30786 16.9808C5.25402 17.1256 5.16969 17.2369 5.05486 17.3146C4.94019 17.3921 4.81044 17.4308 4.66561 17.4308C4.41944 17.4308 4.22802 17.3305 4.09136 17.1298C3.95486 16.9291 3.93211 16.7161 4.02311 16.4906L7.43486 7.2808C7.48869 7.13597 7.57711 7.02222 7.70011 6.93955C7.82327 6.85689 7.95727 6.81555 8.10211 6.81555H8.63861C8.78344 6.81555 8.91994 6.85689 9.04811 6.93955C9.17627 7.02222 9.26736 7.13597 9.32136 7.2808L12.7616 16.4963C12.8526 16.7218 12.8257 16.934 12.6809 17.1328C12.536 17.3315 12.3456 17.4308 12.1096 17.4308C11.9648 17.4308 11.8318 17.3879 11.7106 17.3021C11.5894 17.2161 11.5019 17.1006 11.4481 16.9558L10.6059 14.5538H6.16561ZM6.62511 13.3001H10.1406L8.41561 8.41355H8.33461L6.62511 13.3001ZM16.3846 17.6713C15.5731 17.6713 14.9254 17.4485 14.4414 17.0028C13.9574 16.5573 13.7154 15.9852 13.7154 15.2866C13.7154 14.5661 13.9981 13.9811 14.5636 13.5318C15.1289 13.0825 15.8552 12.8578 16.7424 12.8578C17.1129 12.8578 17.4814 12.8927 17.8481 12.9626C18.2148 13.0324 18.5347 13.1289 18.8079 13.2521V12.8078C18.8079 12.2411 18.6402 11.7981 18.3049 11.4788C17.9697 11.1596 17.5027 11.0001 16.9039 11.0001C16.641 11.0001 16.3824 11.0407 16.1279 11.1221C15.8735 11.2036 15.6399 11.3193 15.4271 11.4693C15.2616 11.5975 15.1039 11.6397 14.9539 11.5961C14.8039 11.5526 14.6834 11.4737 14.5924 11.3596C14.5014 11.2456 14.4591 11.1161 14.4656 10.9713C14.4719 10.8263 14.5508 10.7 14.7021 10.5923C15.0161 10.3576 15.3654 10.1842 15.7501 10.0721C16.1348 9.95989 16.5245 9.9038 16.9194 9.9038C17.9732 9.9038 18.7578 10.1618 19.2731 10.6778C19.7884 11.194 20.0461 11.9681 20.0461 13.0001V16.8193C20.0461 16.9911 19.9846 17.136 19.8616 17.2538C19.7386 17.3718 19.5912 17.4308 19.4194 17.4308C19.2475 17.4308 19.1026 17.3693 18.9846 17.2463C18.8668 17.1231 18.8079 16.9756 18.8079 16.8038V16.4578H18.7079C18.4489 16.8603 18.1242 17.1631 17.7339 17.3663C17.3434 17.5696 16.8936 17.6713 16.3846 17.6713ZM16.5694 16.5906C17.204 16.5906 17.7383 16.3681 18.1721 15.9231C18.6061 15.4782 18.8231 14.9379 18.8231 14.3021C18.5898 14.1687 18.3026 14.0646 17.9616 13.9896C17.6206 13.9146 17.2854 13.8771 16.9559 13.8771C16.3584 13.8771 15.8872 14.0017 15.5424 14.2511C15.1975 14.5004 15.0251 14.8456 15.0251 15.2866C15.0251 15.6584 15.1696 15.9686 15.4586 16.2173C15.7478 16.4661 16.118 16.5906 16.5694 16.5906Z" fill="#273540"/>
</svg>
