<svg width="24" height="24" viewBox="0 0 24 24" fill="none" xmlns="http://www.w3.org/2000/svg">
<path d="M17.4038 21.5C17.2316 21.5 17.0892 21.4438 16.9765 21.3313C16.864 21.2188 16.8077 21.0764 16.8077 20.9042C16.8077 20.7323 16.864 20.5898 16.9765 20.477C17.0892 20.3642 17.2316 20.3078 17.4038 20.3078H19.3077V19.25H18.4038C18.2316 19.25 18.0892 19.1938 17.9765 19.0813C17.864 18.9688 17.8077 18.8264 17.8077 18.6542C17.8077 18.4823 17.864 18.3398 17.9765 18.227C18.0892 18.1142 18.2316 18.0577 18.4038 18.0577H19.3077V17H17.4038C17.2316 17 17.0892 16.9438 16.9765 16.8313C16.864 16.7188 16.8077 16.5764 16.8077 16.4043C16.8077 16.2323 16.864 16.0898 16.9765 15.977C17.0892 15.8642 17.2316 15.8077 17.4038 15.8077H19.6538C19.8936 15.8077 20.0946 15.8888 20.2568 16.051C20.4189 16.2132 20.5 16.4141 20.5 16.6538V17.8462C20.5 18.0859 20.4189 18.2868 20.2568 18.449C20.0946 18.6112 19.8936 18.6923 19.6538 18.6923C19.8936 18.6923 20.0946 18.7733 20.2568 18.9355C20.4189 19.0977 20.5 19.2987 20.5 19.5385V20.6538C20.5 20.8936 20.4189 21.0946 20.2568 21.2568C20.0946 21.4189 19.8936 21.5 19.6538 21.5H17.4038ZM17.4902 14.8463C17.2992 14.8463 17.1377 14.7802 17.0057 14.648C16.8737 14.516 16.8077 14.3545 16.8077 14.1635V12.25C16.8077 12.0103 16.8888 11.8093 17.051 11.647C17.2132 11.4848 17.4141 11.4038 17.6538 11.4038H19.3077V10.3462H17.4038C17.2316 10.3462 17.0892 10.2899 16.9765 10.1773C16.864 10.0648 16.8077 9.9225 16.8077 9.7505C16.8077 9.57833 16.864 9.43583 16.9765 9.323C17.0892 9.21017 17.2316 9.15375 17.4038 9.15375H19.6538C19.8936 9.15375 20.0946 9.23483 20.2568 9.397C20.4189 9.55933 20.5 9.76033 20.5 10V11.75C20.5 11.9897 20.4189 12.1907 20.2568 12.353C20.0946 12.5152 19.8936 12.5963 19.6538 12.5963H18V13.6538H19.9038C20.0761 13.6538 20.2185 13.7101 20.331 13.8228C20.4437 13.9353 20.5 14.0775 20.5 14.2495C20.5 14.4217 20.4437 14.5642 20.331 14.677C20.2185 14.7898 20.0761 14.8463 19.9038 14.8463H17.4902ZM18.9043 8.19225C18.7323 8.19225 18.5898 8.136 18.477 8.0235C18.3642 7.91083 18.3077 7.76842 18.3077 7.59625V3.69225H17.4038C17.2316 3.69225 17.0892 3.636 16.9765 3.5235C16.864 3.411 16.8077 3.26875 16.8077 3.09675C16.8077 2.92458 16.864 2.78208 16.9765 2.66925C17.0892 2.55642 17.2316 2.5 17.4038 2.5H18.827C19.018 2.5 19.1779 2.56442 19.3068 2.69325C19.4356 2.82208 19.5 2.982 19.5 3.173V7.59625C19.5 7.76842 19.4438 7.91083 19.3313 8.0235C19.2188 8.136 19.0764 8.19225 18.9043 8.19225ZM4.25 18.75C4.0375 18.75 3.85942 18.6781 3.71575 18.5343C3.57192 18.3904 3.5 18.2122 3.5 17.9998C3.5 17.7871 3.57192 17.609 3.71575 17.4655C3.85942 17.3218 4.0375 17.25 4.25 17.25H13.9423C14.1547 17.25 14.3329 17.3219 14.4768 17.4658C14.6204 17.6096 14.6923 17.7878 14.6923 18.0003C14.6923 18.2129 14.6204 18.391 14.4768 18.5345C14.3329 18.6782 14.1547 18.75 13.9423 18.75H4.25ZM4.25 12.75C4.0375 12.75 3.85942 12.6781 3.71575 12.5343C3.57192 12.3904 3.5 12.2122 3.5 11.9998C3.5 11.7871 3.57192 11.609 3.71575 11.4655C3.85942 11.3218 4.0375 11.25 4.25 11.25H13.9423C14.1547 11.25 14.3329 11.3219 14.4768 11.4658C14.6204 11.6096 14.6923 11.7878 14.6923 12.0003C14.6923 12.2129 14.6204 12.391 14.4768 12.5345C14.3329 12.6782 14.1547 12.75 13.9423 12.75H4.25ZM4.25 6.75C4.0375 6.75 3.85942 6.67808 3.71575 6.53425C3.57192 6.39042 3.5 6.21225 3.5 5.99975C3.5 5.78708 3.57192 5.609 3.71575 5.4655C3.85942 5.32183 4.0375 5.25 4.25 5.25H13.9423C14.1547 5.25 14.3329 5.32192 14.4768 5.46575C14.6204 5.60958 14.6923 5.78775 14.6923 6.00025C14.6923 6.21292 14.6204 6.391 14.4768 6.5345C14.3329 6.67817 14.1547 6.75 13.9423 6.75H4.25Z" fill="#273540"/>
</svg>
