<svg width="121" height="157" viewBox="0 0 121 157" fill="none" xmlns="http://www.w3.org/2000/svg">
<g clip-path="url(#clip0_4274_29493)">
<path fill-rule="evenodd" clip-rule="evenodd" d="M104.838 69.6055C112.172 75.9388 113.505 83.1055 108.838 91.1055C104.172 99.1055 103.338 104.605 106.338 107.605C89.3383 105.605 81.1716 98.9388 81.8383 87.6055" fill="#BFE3F9"/>
<path d="M104.838 69.6055C112.172 75.9388 113.505 83.1055 108.838 91.1055C104.172 99.1055 103.338 104.605 106.338 107.605C89.3383 105.605 81.1716 98.9388 81.8383 87.6055" stroke="#0071B4" stroke-width="2" stroke-linejoin="round"/>
<path d="M57.8384 156.605C89.3186 156.605 114.838 152.576 114.838 147.605C114.838 142.635 89.3186 138.605 57.8384 138.605C26.3581 138.605 0.838379 142.635 0.838379 147.605C0.838379 152.576 26.3581 156.605 57.8384 156.605Z" fill="black" fill-opacity="0.05"/>
<path fill-rule="evenodd" clip-rule="evenodd" d="M33.0748 86.7305C34.1411 86.7215 35.2192 86.6858 36.3051 86.6274C37.5255 91.4446 39.7191 102.372 37.3799 111.612C34.2783 123.865 21.8965 119.567 19.1162 113.594C16.5224 108.024 21.7763 98.5672 33.0748 86.7305Z" fill="#2D3B45" stroke="#152633" stroke-width="2"/>
<path fill-rule="evenodd" clip-rule="evenodd" d="M79.1772 93.8132C72.034 96.1919 63.8817 97.4849 55.2241 97.4849C47.5071 97.4849 44.3157 93.9034 38.0138 92.1184C31.7995 97.4849 28.6698 107.716 28.042 112.738C26.1956 125.661 37.4286 136.987 57.3752 136.987C77.3217 136.987 87.7421 125.254 85.4654 113.129C83.8963 104.776 81.367 98.4658 79.1772 93.8132Z" fill="white" stroke="#152633" stroke-width="2"/>
<path fill-rule="evenodd" clip-rule="evenodd" d="M85.491 114.151C87.0156 124.805 78.7573 134.964 62.8708 136.895L63.206 138.401C64.3794 144.659 66.726 147.005 70.6371 148.179C79.2415 151.307 98.0147 150.134 96.0592 142.703C93.9733 132.013 90.4505 122.495 85.491 114.151Z" fill="#2D3B45"/>
<path fill-rule="evenodd" clip-rule="evenodd" d="M96.0592 142.703C92.9303 126.668 86.018 117.099 85.6269 113.97C87.1514 124.624 78.7573 134.964 62.8708 136.895L63.206 138.401C64.3794 144.659 66.726 147.005 70.6371 148.179C79.2415 151.307 98.0147 150.134 96.0592 142.703Z" stroke="#152633" stroke-width="2"/>
<path fill-rule="evenodd" clip-rule="evenodd" d="M27.8703 114.151L27.8128 114.152C27.4217 117.281 20.3817 126.667 17.2529 142.703C15.2973 150.134 34.0706 151.307 42.675 148.178C46.586 147.005 48.9327 144.658 50.106 138.4L50.4248 137.097L50.4412 136.737C35.3862 134.52 26.9751 125.017 27.8703 114.151Z" fill="#2D3B45"/>
<path fill-rule="evenodd" clip-rule="evenodd" d="M84.3662 91.7305C95.6648 103.567 100.919 113.024 98.3249 118.594C95.5445 124.567 83.1628 128.865 80.0611 116.612C77.722 107.372 79.9156 96.4446 81.136 91.6274C82.2219 91.6858 83.2999 91.7215 84.3662 91.7305Z" fill="#2D3B45" stroke="#152633" stroke-width="2"/>
<path fill-rule="evenodd" clip-rule="evenodd" d="M27.8703 114.151C27.4217 117.281 20.3817 126.667 17.2529 142.703C15.2973 150.134 34.0706 151.307 42.675 148.178C46.586 147.005 48.9327 144.658 50.106 138.4L50.4248 137.097L50.4412 136.737C35.3862 134.52 26.9751 125.017 27.8703 114.151Z" stroke="#152633" stroke-width="2"/>
<path fill-rule="evenodd" clip-rule="evenodd" d="M10.2534 54.1495C14.7327 29.9699 40.2138 8.45092 68.7826 13.7436C97.3517 19.0363 116.442 49.8551 109.315 72.9873C102.713 94.4108 81.6366 103.863 53.068 98.5704C24.4989 93.2777 5.99374 77.1401 10.2534 54.1495Z" fill="white" stroke="#152633" stroke-width="2"/>
<path fill-rule="evenodd" clip-rule="evenodd" d="M45.0104 88.5352C43.2175 87.8826 42.1599 86.2663 42.6481 84.9251C43.1363 83.5838 44.9854 83.0255 46.7782 83.6781C48.5711 84.3306 49.6287 85.9469 49.1405 87.2881C48.6523 88.6294 46.8032 89.1877 45.0104 88.5352Z" fill="#152633"/>
<path fill-rule="evenodd" clip-rule="evenodd" d="M77.7905 85.7337L77.7906 85.7337C87.0027 87.4407 96.5953 78.3276 99.0155 65.264C100.134 59.2235 98.8396 51.7428 95.5419 45.2959C92.2824 38.9236 87.6714 34.6595 83.3023 33.8505C74.5256 32.2244 63.8858 44.5579 61.3431 58.2845C59.0684 70.5642 67.7093 83.8663 77.7905 85.7337Z" fill="#2D3B45" stroke="#152633" stroke-width="2"/>
<path fill-rule="evenodd" clip-rule="evenodd" d="M69.876 57.2715C72.2012 57.0302 74.3938 59.7966 74.7733 63.4507C75.1524 67.1047 73.5749 70.2621 71.2496 70.5037C68.9244 70.745 66.7317 67.979 66.3527 64.3246C65.9734 60.6711 67.5508 57.5127 69.876 57.2715Z" fill="white"/>
<path fill-rule="evenodd" clip-rule="evenodd" d="M36.2856 64.4301C39.9101 60.6876 42.7904 55.6851 44.2806 50.9111C47.7508 39.7988 48.4625 30.8103 45.6163 26.3783C44.6601 24.8895 43.2545 23.971 41.3829 23.6242C32.75 22.025 18.4352 35.3915 16.2068 47.4195C14.7935 55.0483 15.8144 60.0941 19.4189 65.1891C20.8968 67.2791 23.4809 68.9186 25.6666 69.3236C25.7152 69.3326 25.7666 69.3413 25.826 69.3504C28.881 69.8323 32.6031 68.2321 36.2856 64.4301Z" fill="#2D3B45" stroke="#152633" stroke-width="2"/>
<path fill-rule="evenodd" clip-rule="evenodd" d="M29.8484 54.3956C31.2113 51.7117 33.7014 50.2383 35.4095 51.1057C37.1173 51.973 37.3975 54.8521 36.0346 57.5365C34.6716 60.2208 32.1823 61.6941 30.4738 60.8265C28.7656 59.9595 28.4858 57.0801 29.8484 54.3956Z" fill="white"/>
<path fill-rule="evenodd" clip-rule="evenodd" d="M107.052 44.1193C104.23 38.0401 100.263 32.4052 95.3589 27.6429C98.8756 25.1429 104.79 21.2768 110.176 19.3622C118.515 16.3971 119.131 26.3511 119.16 28.4067C119.189 30.4619 118.91 38.6102 112.083 42.265C110.308 43.2153 108.604 43.7882 107.052 44.1193Z" fill="#2D3B45" stroke="#152633" stroke-width="2"/>
<path fill-rule="evenodd" clip-rule="evenodd" d="M26.3583 22.3367C21.9828 17.2756 24.2789 10.6168 24.9388 8.96786C25.5985 7.31931 29.1759 -0.519107 34.9845 4.45305C38.6911 7.62602 42.222 12.4915 44.296 15.6023C38.5096 17.602 33.1739 20.6392 28.5109 24.4217C27.7874 23.8381 27.0614 23.1497 26.3583 22.3367Z" fill="#2D3B45" stroke="#152633" stroke-width="2"/>
<path fill-rule="evenodd" clip-rule="evenodd" d="M9.83838 56.1055C38.505 69.7721 69.1717 80.2721 101.838 87.6055C104.338 87.6055 108.338 81.6055 108.338 77.1055C110.838 75.1055 113.338 65.6055 111.838 63.6055C113.338 61.1055 113.338 51.6055 107.338 48.1055C103.338 45.7721 76.3384 38.4388 26.3384 26.1055C22.005 28.1055 19.8384 30.6055 19.8384 33.6055C17.3384 35.1055 13.3384 39.6055 13.3384 43.6055C11.005 44.6055 9.83838 48.7721 9.83838 56.1055Z" fill="#BFE3F9" stroke="#0071B4" stroke-width="2" stroke-linejoin="round"/>
<path d="M19.8384 33.6055C21.9184 34.37 23.4154 34.9182 24.3295 35.2501" stroke="#0071B4" stroke-width="2" stroke-linecap="round"/>
<path d="M13.8384 43.6055C15.5837 43.9933 18.1564 45.0581 20.8854 46.2747" stroke="#0071B4" stroke-width="2" stroke-linecap="round"/>
<path d="M107.338 77.1055C100.338 75.4388 94.505 73.7721 89.8384 72.1055" stroke="#0071B4" stroke-width="2" stroke-linecap="round"/>
<path d="M111.338 63.1055C108.672 62.4388 105.838 61.6055 102.838 60.6055" stroke="#0071B4" stroke-width="2" stroke-linecap="round"/>
<path fill-rule="evenodd" clip-rule="evenodd" d="M53.3041 76.2702C52.9188 78.3495 49.1458 79.3945 44.8767 78.6037C40.608 77.813 37.4598 75.486 37.8449 73.4062C38.2304 71.3261 42.0033 70.2815 46.2724 71.0723C50.5409 71.8633 53.6895 74.1904 53.3041 76.2702Z" fill="#152633"/>
</g>
<defs>
<clipPath id="clip0_4274_29493">
<rect width="120" height="156" fill="white" transform="translate(0.5 0.857178)"/>
</clipPath>
</defs>
</svg>
