<svg width="24" height="24" viewBox="0 0 24 24" fill="none" xmlns="http://www.w3.org/2000/svg">
<path d="M11.3846 19.5C11.1333 19.5 10.9231 19.4153 10.7539 19.246C10.5846 19.0768 10.4999 18.8666 10.4999 18.6152V12.827L4.9019 5.7155C4.70956 5.459 4.68165 5.19233 4.81815 4.9155C4.95481 4.6385 5.18531 4.5 5.50965 4.5H18.4901C18.8145 4.5 19.045 4.6385 19.1816 4.9155C19.3181 5.19233 19.2902 5.459 19.0979 5.7155L13.4999 12.827V18.6152C13.4999 18.8666 13.4152 19.0768 13.2459 19.246C13.0767 19.4153 12.8665 19.5 12.6151 19.5H11.3846ZM11.9999 12.3L16.9499 6H7.0499L11.9999 12.3Z" fill="#273540"/>
</svg>
