<svg width="24" height="24" viewBox="0 0 24 24" fill="none" xmlns="http://www.w3.org/2000/svg">
<path d="M4.404 20.5C4.14783 20.5 3.93317 20.4133 3.76 20.24C3.58667 20.0668 3.5 19.8522 3.5 19.596V13.75C3.5 13.5375 3.57192 13.3593 3.71575 13.2155C3.85958 13.0718 4.03775 13 4.25025 13C4.46292 13 4.641 13.0718 4.7845 13.2155C4.92817 13.3593 5 13.5375 5 13.75V17.9557L17.9557 5H13.75C13.5375 5 13.3593 4.92808 13.2155 4.78425C13.0718 4.64042 13 4.46225 13 4.24975C13 4.03708 13.0718 3.859 13.2155 3.7155C13.3593 3.57183 13.5375 3.5 13.75 3.5H19.596C19.8522 3.5 20.0668 3.58667 20.24 3.76C20.4133 3.93317 20.5 4.14783 20.5 4.404V10.25C20.5 10.4625 20.4281 10.6407 20.2843 10.7845C20.1404 10.9282 19.9622 11 19.7498 11C19.5371 11 19.359 10.9282 19.2155 10.7845C19.0718 10.6407 19 10.4625 19 10.25V6.04425L6.04425 19H10.25C10.4625 19 10.6407 19.0719 10.7845 19.2158C10.9282 19.3596 11 19.5378 11 19.7502C11 19.9629 10.9282 20.141 10.7845 20.2845C10.6407 20.4282 10.4625 20.5 10.25 20.5H4.404Z" fill="#273540"/>
</svg>
