<svg width="24" height="24" viewBox="0 0 24 24" fill="none" xmlns="http://www.w3.org/2000/svg">
<path d="M8.03077 9.23449L11.227 3.99624C11.3205 3.84241 11.4351 3.73274 11.5708 3.66724C11.7063 3.60191 11.8493 3.56924 12 3.56924C12.1507 3.56924 12.2938 3.60191 12.4293 3.66724C12.5649 3.73274 12.6795 3.84241 12.773 3.99624L15.9693 9.23449C16.0628 9.38516 16.1095 9.54333 16.1095 9.70899C16.1095 9.87483 16.0711 10.0263 15.9943 10.1635C15.9173 10.3007 15.8115 10.4102 15.677 10.4922C15.5423 10.5742 15.3853 10.6152 15.2058 10.6152H8.79427C8.6141 10.6152 8.45643 10.5738 8.32127 10.491C8.1861 10.4082 8.08093 10.299 8.00577 10.1635C7.92893 10.0283 7.89052 9.87816 7.89052 9.71299C7.89052 9.54783 7.93727 9.38833 8.03077 9.23449ZM17.5 21.6152C16.3525 21.6152 15.3798 21.2162 14.5818 20.4182C13.7838 19.6202 13.3848 18.6475 13.3848 17.5C13.3848 16.3525 13.7838 15.3797 14.5818 14.5817C15.3798 13.7837 16.3525 13.3847 17.5 13.3847C18.6475 13.3847 19.6203 13.7837 20.4183 14.5817C21.2163 15.3797 21.6153 16.3525 21.6153 17.5C21.6153 18.6475 21.2163 19.6202 20.4183 20.4182C19.6203 21.2162 18.6475 21.6152 17.5 21.6152ZM3.38477 20.2112V14.7862C3.38477 14.5301 3.47135 14.3157 3.64452 14.1432C3.81785 13.9709 4.0326 13.8847 4.28877 13.8847H9.71377C9.96993 13.8847 10.1843 13.9713 10.3568 14.1445C10.5291 14.3178 10.6153 14.5326 10.6153 14.7887V20.2137C10.6153 20.4699 10.5287 20.6842 10.3555 20.8567C10.1822 21.0291 9.96743 21.1152 9.71127 21.1152H4.28627C4.0301 21.1152 3.81577 21.0287 3.64327 20.8555C3.47093 20.6822 3.38477 20.4674 3.38477 20.2112ZM17.4998 20.1155C18.2319 20.1155 18.8509 19.8627 19.3568 19.357C19.8626 18.8513 20.1155 18.2324 20.1155 17.5002C20.1155 16.7681 19.8627 16.1491 19.357 15.6432C18.8513 15.1374 18.2324 14.8845 17.5003 14.8845C16.7681 14.8845 16.1491 15.1373 15.6433 15.643C15.1374 16.1487 14.8845 16.7676 14.8845 17.4997C14.8845 18.2319 15.1373 18.8509 15.643 19.3567C16.1487 19.8626 16.7676 20.1155 17.4998 20.1155ZM4.88452 19.6155H9.11552V15.3845H4.88452V19.6155ZM9.83852 9.11549H14.1615L12 5.63849L9.83852 9.11549Z" fill="#273540"/>
</svg>
