<svg width="24" height="24" viewBox="0 0 24 24" fill="none" xmlns="http://www.w3.org/2000/svg">
<path d="M16.6423 9.83644H9.62135C8.57768 9.83644 7.6796 10.1794 6.9271 10.8652C6.17443 11.5512 5.7981 12.4006 5.7981 13.4134C5.7981 14.4263 6.17443 15.2772 6.9271 15.9662C7.6796 16.6554 8.57768 16.9999 9.62135 16.9999H16.0481C16.2609 16.9999 16.4392 17.0718 16.5828 17.2154C16.7263 17.3589 16.7981 17.5371 16.7981 17.7499C16.7981 17.9628 16.7263 18.1409 16.5828 18.2844C16.4392 18.4281 16.2609 18.4999 16.0481 18.4999H9.62135C8.15851 18.4999 6.9056 18.0102 5.8626 17.0307C4.8196 16.0512 4.2981 14.8454 4.2981 13.4134C4.2981 11.9814 4.8196 10.7773 5.8626 9.80094C6.9056 8.82461 8.15851 8.33644 9.62135 8.33644H16.6423L14.3866 6.08069C14.2481 5.94219 14.1773 5.76819 14.1741 5.55869C14.1709 5.34902 14.2418 5.17178 14.3866 5.02694C14.5314 4.88211 14.7071 4.80969 14.9136 4.80969C15.1199 4.80969 15.2955 4.88211 15.4403 5.02694L18.8673 8.45369C18.961 8.54736 19.027 8.64611 19.0653 8.74994C19.1038 8.85378 19.1231 8.96594 19.1231 9.08644C19.1231 9.20694 19.1038 9.31911 19.0653 9.42294C19.027 9.52677 18.961 9.62553 18.8673 9.71919L15.4403 13.1462C15.302 13.2845 15.128 13.3554 14.9183 13.3587C14.7087 13.3619 14.5314 13.291 14.3866 13.1462C14.2418 13.0012 14.1693 12.8255 14.1693 12.6192C14.1693 12.4129 14.2418 12.2372 14.3866 12.0922L16.6423 9.83644Z" fill="#273540"/>
</svg>
