<svg width="24" height="24" viewBox="0 0 24 24" fill="none" xmlns="http://www.w3.org/2000/svg">
<path d="M6.99875 13.25C7.34575 13.25 7.641 13.1286 7.8845 12.8857C8.12817 12.6429 8.25 12.3481 8.25 12.0013C8.25 11.6543 8.12858 11.359 7.88575 11.1155C7.64292 10.8718 7.34808 10.75 7.00125 10.75C6.65425 10.75 6.359 10.8714 6.1155 11.1143C5.87183 11.3571 5.75 11.6519 5.75 11.9988C5.75 12.3458 5.87142 12.641 6.11425 12.8845C6.35708 13.1282 6.65192 13.25 6.99875 13.25ZM11.9988 13.25C12.3458 13.25 12.641 13.1286 12.8845 12.8857C13.1282 12.6429 13.25 12.3481 13.25 12.0013C13.25 11.6543 13.1286 11.359 12.8857 11.1155C12.6429 10.8718 12.3481 10.75 12.0013 10.75C11.6543 10.75 11.359 10.8714 11.1155 11.1143C10.8718 11.3571 10.75 11.6519 10.75 11.9988C10.75 12.3458 10.8714 12.641 11.1143 12.8845C11.3571 13.1282 11.6519 13.25 11.9988 13.25ZM16.9988 13.25C17.3458 13.25 17.641 13.1286 17.8845 12.8857C18.1282 12.6429 18.25 12.3481 18.25 12.0013C18.25 11.6543 18.1286 11.359 17.8857 11.1155C17.6429 10.8718 17.3481 10.75 17.0013 10.75C16.6543 10.75 16.359 10.8714 16.1155 11.1143C15.8718 11.3571 15.75 11.6519 15.75 11.9988C15.75 12.3458 15.8714 12.641 16.1143 12.8845C16.3571 13.1282 16.6519 13.25 16.9988 13.25ZM12.0017 21.5C10.6877 21.5 9.45267 21.2507 8.2965 20.752C7.14033 20.2533 6.13467 19.5766 5.2795 18.7218C4.42433 17.8669 3.74725 16.8617 3.24825 15.706C2.74942 14.5503 2.5 13.3156 2.5 12.0017C2.5 10.6877 2.74933 9.45267 3.248 8.2965C3.74667 7.14033 4.42342 6.13467 5.27825 5.2795C6.13308 4.42433 7.13833 3.74725 8.294 3.24825C9.44967 2.74942 10.6844 2.5 11.9983 2.5C13.3123 2.5 14.5473 2.74933 15.7035 3.248C16.8597 3.74667 17.8653 4.42342 18.7205 5.27825C19.5757 6.13308 20.2528 7.13833 20.7518 8.294C21.2506 9.44967 21.5 10.6844 21.5 11.9983C21.5 13.3123 21.2507 14.5473 20.752 15.7035C20.2533 16.8597 19.5766 17.8653 18.7218 18.7205C17.8669 19.5757 16.8617 20.2528 15.706 20.7518C14.5503 21.2506 13.3156 21.5 12.0017 21.5ZM12 20C14.2333 20 16.125 19.225 17.675 17.675C19.225 16.125 20 14.2333 20 12C20 9.76667 19.225 7.875 17.675 6.325C16.125 4.775 14.2333 4 12 4C9.76667 4 7.875 4.775 6.325 6.325C4.775 7.875 4 9.76667 4 12C4 14.2333 4.775 16.125 6.325 17.675C7.875 19.225 9.76667 20 12 20Z" fill="#273540"/>
</svg>
