<svg width="24" height="24" viewBox="0 0 24 24" fill="none" xmlns="http://www.w3.org/2000/svg">
<path fill-rule="evenodd" clip-rule="evenodd" d="M11.5005 1.27422C11.9442 0.830467 12.6637 0.830466 13.1075 1.27422L16.443 4.60975C16.827 4.9937 16.8274 5.61606 16.444 6.00055C16.0598 6.38581 15.4359 6.38625 15.0512 6.00154L13.2882 4.23853V14.0602C13.2882 14.6034 12.8478 15.0438 12.3046 15.0438C11.7614 15.0438 11.321 14.6034 11.321 14.0602V4.23853L9.55797 6.00154C9.17327 6.38623 8.5495 6.38601 8.16508 6.00105C7.78105 5.61647 7.78126 4.99345 8.16557 4.60914L11.5005 1.27422ZM5 10.5011C5 9.94881 5.44772 9.5011 6 9.5011H9.41176V7.5011H6C4.34314 7.5011 3 8.84424 3 10.5011V19.0011C3 20.658 4.34315 22.0011 6 22.0011H18C19.6569 22.0011 21 20.658 21 19.0011V10.5011C21 8.84424 19.6569 7.5011 18 7.5011H14.8235V9.5011H18C18.5523 9.5011 19 9.94881 19 10.5011V19.0011C19 19.5534 18.5523 20.0011 18 20.0011H6C5.44772 20.0011 5 19.5534 5 19.0011V10.5011Z" fill="white"/>
</svg>
