<svg width="24" height="24" viewBox="0 0 24 24" fill="none" xmlns="http://www.w3.org/2000/svg">
<path d="M11.9905 19.7095C11.7763 19.7095 11.5612 19.6711 11.3453 19.5943C11.1293 19.5173 10.9392 19.3968 10.775 19.2328L9.3385 17.927C7.5655 16.3104 5.9825 14.7222 4.5895 13.1625C3.1965 11.6029 2.5 9.93202 2.5 8.15002C2.5 6.73086 2.9785 5.54269 3.9355 4.58552C4.89267 3.62852 6.08083 3.15002 7.5 3.15002C8.30633 3.15002 9.10283 3.33594 9.8895 3.70777C10.676 4.07961 11.3795 4.68344 12 5.51927C12.6205 4.68344 13.324 4.07961 14.1105 3.70777C14.8972 3.33594 15.6937 3.15002 16.5 3.15002C17.9192 3.15002 19.1073 3.62852 20.0645 4.58552C21.0215 5.54269 21.5 6.73086 21.5 8.15002C21.5 9.95136 20.7917 11.6408 19.375 13.2183C17.9583 14.7958 16.3788 16.3704 14.6365 17.9423L13.2153 19.2328C13.0512 19.3968 12.8597 19.5173 12.6405 19.5943C12.4212 19.6711 12.2045 19.7095 11.9905 19.7095ZM11.2808 7.03852C10.7398 6.21419 10.1702 5.61002 9.572 5.22602C8.974 4.84202 8.28333 4.65002 7.5 4.65002C6.5 4.65002 5.66667 4.98336 5 5.65002C4.33333 6.31669 4 7.15002 4 8.15002C4 8.95252 4.25867 9.79161 4.776 10.6673C5.29333 11.5429 5.94267 12.4134 6.724 13.2788C7.50533 14.1443 8.35183 14.9898 9.2635 15.8153C10.175 16.6409 11.0198 17.4083 11.798 18.1173C11.8557 18.1686 11.923 18.1943 12 18.1943C12.077 18.1943 12.1443 18.1686 12.202 18.1173C12.9802 17.4083 13.825 16.6409 14.7365 15.8153C15.6482 14.9898 16.4947 14.1443 17.276 13.2788C18.0573 12.4134 18.7067 11.5429 19.224 10.6673C19.7413 9.79161 20 8.95252 20 8.15002C20 7.15002 19.6667 6.31669 19 5.65002C18.3333 4.98336 17.5 4.65002 16.5 4.65002C15.7167 4.65002 15.026 4.84202 14.428 5.22602C13.8298 5.61002 13.2603 6.21419 12.7192 7.03852C12.6346 7.16669 12.5282 7.26286 12.4 7.32702C12.2718 7.39102 12.1385 7.42302 12 7.42302C11.8615 7.42302 11.7282 7.39102 11.6 7.32702C11.4718 7.26286 11.3654 7.16669 11.2808 7.03852Z" fill="#273540"/>
</svg>
