<svg width="24" height="24" viewBox="0 0 24 24" fill="none" xmlns="http://www.w3.org/2000/svg">
<path d="M7.88455 10.25C7.67205 10.25 7.49397 10.1781 7.3503 10.0343C7.20664 9.89043 7.1348 9.71227 7.1348 9.49976C7.1348 9.2871 7.20664 9.10901 7.3503 8.96552C7.49397 8.82185 7.67205 8.75002 7.88455 8.75002H11.1538C11.3663 8.75002 11.5445 8.82193 11.6883 8.96577C11.832 9.1096 11.9038 9.28777 11.9038 9.50027C11.9038 9.71293 11.832 9.89102 11.6883 10.0345C11.5445 10.1782 11.3663 10.25 11.1538 10.25H7.88455ZM9.5193 15.6153C7.81014 15.6153 6.36364 15.0235 5.1798 13.84C3.99597 12.6565 3.40405 11.2103 3.40405 9.50152C3.40405 7.79285 3.9958 6.34618 5.1793 5.16152C6.3628 3.97702 7.80897 3.38477 9.5178 3.38477C11.2265 3.38477 12.6731 3.97668 13.8578 5.16051C15.0423 6.34435 15.6346 7.79085 15.6346 9.50002C15.6346 10.2142 15.5147 10.8963 15.2751 11.5463C15.0352 12.1963 14.7153 12.7616 14.3153 13.2423L20.0693 18.9963C20.2078 19.1346 20.2786 19.3086 20.2818 19.5183C20.285 19.7279 20.2141 19.9052 20.0693 20.05C19.9245 20.1948 19.7488 20.2673 19.5423 20.2673C19.336 20.2673 19.1604 20.1948 19.0156 20.05L13.2616 14.296C12.7616 14.7088 12.1866 15.0319 11.5366 15.2653C10.8866 15.4986 10.2141 15.6153 9.5193 15.6153ZM9.5193 14.1155C10.8078 14.1155 11.8991 13.6683 12.7933 12.774C13.6876 11.8798 14.1348 10.7885 14.1348 9.50002C14.1348 8.21152 13.6876 7.12018 12.7933 6.22601C11.8991 5.33168 10.8078 4.88452 9.5193 4.88452C8.2308 4.88452 7.13947 5.33168 6.2453 6.22601C5.35097 7.12018 4.9038 8.21152 4.9038 9.50002C4.9038 10.7885 5.35097 11.8798 6.2453 12.774C7.13947 13.6683 8.2308 14.1155 9.5193 14.1155Z" fill="#273540"/>
</svg>
