<svg width="24" height="25" viewBox="0 0 24 25" fill="none" xmlns="http://www.w3.org/2000/svg">
<path fill-rule="evenodd" clip-rule="evenodd" d="M9.42854 5.64272C9.42854 6.9189 10.3582 7.97795 11.5773 8.17957V10.8114C9.88314 11.0197 8.57139 12.4637 8.57139 14.2141C8.57139 14.6837 8.66577 15.1311 8.83658 15.5386L6.55455 16.8561C5.76913 15.9086 4.39245 15.6368 3.29078 16.2729C2.06089 16.983 1.63949 18.5556 2.34957 19.7855C3.05965 21.0154 4.63232 21.4368 5.86221 20.7267C6.96742 20.0886 7.41975 18.754 6.98483 17.5975L9.26443 16.2813C9.89039 17.1084 10.8828 17.6427 12 17.6427C13.1129 17.6427 14.1019 17.1125 14.7283 16.2908L17.0109 17.6087C16.5831 18.7626 17.0361 20.0908 18.1377 20.7268C19.3676 21.4369 20.9403 21.0155 21.6504 19.7856C22.3604 18.5557 21.939 16.9831 20.7091 16.273C19.6039 15.6349 18.2219 15.9105 17.4378 16.8654L15.1587 15.5496C15.3325 15.1392 15.4285 14.6879 15.4285 14.2141C15.4285 12.4678 14.1228 11.0263 12.4344 10.8128V8.1776C13.6477 7.97116 14.5714 6.91481 14.5714 5.64272C14.5714 4.22256 13.4201 3.07129 12 3.07129C10.5798 3.07129 9.42854 4.22256 9.42854 5.64272ZM13.7142 5.64272C13.7142 6.58949 12.9467 7.357 12 7.357C11.0532 7.357 10.2857 6.58949 10.2857 5.64272C10.2857 4.69594 11.0532 3.92843 12 3.92843C12.9467 3.92843 13.7142 4.69594 13.7142 5.64272ZM18.5663 19.9845C17.7464 19.5111 17.4654 18.4627 17.9388 17.6428C18.4122 16.8228 19.4606 16.5419 20.2806 17.0153C21.1005 17.4887 21.3814 18.5371 20.908 19.357C20.4347 20.177 19.3862 20.4579 18.5663 19.9845ZM6.06111 17.6427C5.58772 16.8227 4.53928 16.5418 3.71935 17.0152C2.89942 17.4886 2.61849 18.537 3.09188 19.357C3.56527 20.1769 4.61371 20.4578 5.43364 19.9844C6.25357 19.511 6.5345 18.4626 6.06111 17.6427ZM14.1428 14.2141C14.1428 15.3976 13.1834 16.357 12 16.357C10.8165 16.357 9.85711 15.3976 9.85711 14.2141C9.85711 13.0307 10.8165 12.0713 12 12.0713C13.1834 12.0713 14.1428 13.0307 14.1428 14.2141Z" fill="#2D3B45"/>
</svg>
