<svg width="24" height="24" viewBox="0 0 24 24" fill="none" xmlns="http://www.w3.org/2000/svg">
<path d="M10.85 14.0963L9.252 12.5078C9.10317 12.3591 8.92908 12.2831 8.72975 12.2798C8.53042 12.2766 8.35317 12.3526 8.198 12.5078C8.04933 12.6564 7.975 12.833 7.975 13.0375C7.975 13.242 8.04933 13.4186 8.198 13.5673L10.1923 15.5865C10.3731 15.7673 10.5882 15.8577 10.8375 15.8577C11.0868 15.8577 11.3019 15.7673 11.4827 15.5865L15.6173 11.4423C15.7659 11.2936 15.8403 11.117 15.8403 10.9125C15.8403 10.708 15.7659 10.5314 15.6173 10.3828C15.4686 10.2341 15.292 10.1598 15.0875 10.1598C14.883 10.1598 14.7064 10.2341 14.5577 10.3828L10.85 14.0963ZM4.30775 19.5C3.80258 19.5 3.375 19.325 3.025 18.975C2.675 18.625 2.5 18.1974 2.5 17.6923V6.30775C2.5 5.80258 2.675 5.375 3.025 5.025C3.375 4.675 3.80258 4.5 4.30775 4.5H9.05C9.291 4.5 9.52275 4.54683 9.74525 4.6405C9.96758 4.734 10.1608 4.86283 10.325 5.027L11.798 6.5H19.6923C20.1974 6.5 20.625 6.675 20.975 7.025C21.325 7.375 21.5 7.80258 21.5 8.30775V17.6923C21.5 18.1974 21.325 18.625 20.975 18.975C20.625 19.325 20.1974 19.5 19.6923 19.5H4.30775ZM4.30775 18H19.6923C19.7821 18 19.8558 17.9712 19.9135 17.9135C19.9712 17.8558 20 17.7821 20 17.6923V8.30775C20 8.21792 19.9712 8.14417 19.9135 8.0865C19.8558 8.02883 19.7821 8 19.6923 8H11.1845L9.27125 6.0865C9.23908 6.0545 9.20542 6.03208 9.17025 6.01925C9.13492 6.00642 9.098 6 9.0595 6H4.30775C4.21792 6 4.14417 6.02883 4.0865 6.0865C4.02883 6.14417 4 6.21792 4 6.30775V17.6923C4 17.7821 4.02883 17.8558 4.0865 17.9135C4.14417 17.9712 4.21792 18 4.30775 18Z" fill="#273540"/>
</svg>
