<svg width="24" height="24" viewBox="0 0 24 24" fill="none" xmlns="http://www.w3.org/2000/svg">
<path d="M8.15375 16.75H9.84625C10.1039 16.75 10.3189 16.6638 10.4913 16.4913C10.6638 16.3189 10.75 16.1039 10.75 15.8463V14.1538C10.75 13.8961 10.6638 13.6811 10.4913 13.5087C10.3189 13.3363 10.1039 13.25 9.84625 13.25H8.15375C7.89608 13.25 7.68108 13.3363 7.50875 13.5087C7.33625 13.6811 7.25 13.8961 7.25 14.1538V15.8463C7.25 16.1039 7.33625 16.3189 7.50875 16.4913C7.68108 16.6638 7.89608 16.75 8.15375 16.75ZM14.1538 16.75H15.8462C16.1039 16.75 16.3189 16.6638 16.4913 16.4913C16.6638 16.3189 16.75 16.1039 16.75 15.8463V14.1538C16.75 13.8961 16.6638 13.6811 16.4913 13.5087C16.3189 13.3363 16.1039 13.25 15.8462 13.25H14.1538C13.8961 13.25 13.6811 13.3363 13.5087 13.5087C13.3362 13.6811 13.25 13.8961 13.25 14.1538V15.8463C13.25 16.1039 13.3362 16.3189 13.5087 16.4913C13.6811 16.6638 13.8961 16.75 14.1538 16.75ZM8.15375 10.75H9.84625C10.1039 10.75 10.3189 10.6638 10.4913 10.4913C10.6638 10.3189 10.75 10.1039 10.75 9.84625V8.15375C10.75 7.89608 10.6638 7.68108 10.4913 7.50875C10.3189 7.33625 10.1039 7.25 9.84625 7.25H8.15375C7.89608 7.25 7.68108 7.33625 7.50875 7.50875C7.33625 7.68108 7.25 7.89608 7.25 8.15375V9.84625C7.25 10.1039 7.33625 10.3189 7.50875 10.4913C7.68108 10.6638 7.89608 10.75 8.15375 10.75ZM14.1538 10.75H15.8462C16.1039 10.75 16.3189 10.6638 16.4913 10.4913C16.6638 10.3189 16.75 10.1039 16.75 9.84625V8.15375C16.75 7.89608 16.6638 7.68108 16.4913 7.50875C16.3189 7.33625 16.1039 7.25 15.8462 7.25H14.1538C13.8961 7.25 13.6811 7.33625 13.5087 7.50875C13.3362 7.68108 13.25 7.89608 13.25 8.15375V9.84625C13.25 10.1039 13.3362 10.3189 13.5087 10.4913C13.6811 10.6638 13.8961 10.75 14.1538 10.75ZM5.30775 20.5C4.80258 20.5 4.375 20.325 4.025 19.975C3.675 19.625 3.5 19.1974 3.5 18.6923V5.30775C3.5 4.80258 3.675 4.375 4.025 4.025C4.375 3.675 4.80258 3.5 5.30775 3.5H18.6923C19.1974 3.5 19.625 3.675 19.975 4.025C20.325 4.375 20.5 4.80258 20.5 5.30775V18.6923C20.5 19.1974 20.325 19.625 19.975 19.975C19.625 20.325 19.1974 20.5 18.6923 20.5H5.30775ZM5.30775 19H18.6923C18.7692 19 18.8398 18.9679 18.9038 18.9038C18.9679 18.8398 19 18.7692 19 18.6923V5.30775C19 5.23075 18.9679 5.16025 18.9038 5.09625C18.8398 5.03208 18.7692 5 18.6923 5H5.30775C5.23075 5 5.16025 5.03208 5.09625 5.09625C5.03208 5.16025 5 5.23075 5 5.30775V18.6923C5 18.7692 5.03208 18.8398 5.09625 18.9038C5.16025 18.9679 5.23075 19 5.30775 19Z" fill="#273540"/>
</svg>
