<svg width="24" height="24" viewBox="0 0 24 24" fill="none" xmlns="http://www.w3.org/2000/svg">
<path d="M6.30775 21.5C5.80258 21.5 5.375 21.325 5.025 20.975C4.675 20.625 4.5 20.1974 4.5 19.6923V4.30775C4.5 3.80258 4.675 3.375 5.025 3.025C5.375 2.675 5.80258 2.5 6.30775 2.5H13.502C13.743 2.5 13.9748 2.54683 14.1973 2.6405C14.4196 2.734 14.6128 2.86283 14.777 3.027L18.973 7.223C19.1372 7.38717 19.266 7.58042 19.3595 7.80275C19.4532 8.02525 19.5 8.257 19.5 8.498V13.5C19.5 13.7128 19.4282 13.8911 19.2845 14.0348C19.141 14.1783 18.9628 14.25 18.75 14.25C18.5372 14.25 18.359 14.1783 18.2155 14.0348C18.0718 13.8911 18 13.7128 18 13.5V8.5H14.404C14.1462 8.5 13.9311 8.41375 13.7587 8.24125C13.5862 8.06892 13.5 7.85383 13.5 7.596V4H6.30775C6.23075 4 6.16025 4.03208 6.09625 4.09625C6.03208 4.16025 6 4.23075 6 4.30775V19.6923C6 19.7693 6.03208 19.8398 6.09625 19.9038C6.16025 19.9679 6.23075 20 6.30775 20H14.5C14.7128 20 14.8911 20.0718 15.0348 20.2155C15.1783 20.359 15.25 20.5372 15.25 20.75C15.25 20.9628 15.1783 21.141 15.0348 21.2845C14.8911 21.4282 14.7128 21.5 14.5 21.5H6.30775ZM18.75 18.8193V20.6595C18.75 20.8723 18.6782 21.0506 18.5345 21.1943C18.391 21.3378 18.2128 21.4095 18 21.4095C17.7872 21.4095 17.609 21.3378 17.4655 21.1943C17.3218 21.0506 17.25 20.8723 17.25 20.6595V17.1538C17.25 16.8961 17.3362 16.6811 17.5087 16.5087C17.6811 16.3362 17.8961 16.25 18.1538 16.25H21.6595C21.8723 16.25 22.0506 16.3218 22.1943 16.4655C22.3378 16.609 22.4095 16.7872 22.4095 17C22.4095 17.2128 22.3378 17.391 22.1943 17.5345C22.0506 17.6782 21.8723 17.75 21.6595 17.75H19.7943L22.477 20.4328C22.6153 20.5713 22.6845 20.7427 22.6845 20.947C22.6845 21.1515 22.6153 21.3282 22.477 21.477C22.3282 21.632 22.1499 21.7079 21.9423 21.7048C21.7346 21.7016 21.5564 21.6257 21.4078 21.477L18.75 18.8193Z" fill="#273540"/>
</svg>
