<svg width="24" height="24" viewBox="0 0 24 24" fill="none" xmlns="http://www.w3.org/2000/svg">
<path d="M6.30775 19.5C5.80258 19.5 5.375 19.325 5.025 18.975C4.675 18.625 4.5 18.1974 4.5 17.6922V15.7307C4.5 15.5179 4.57183 15.3397 4.7155 15.1962C4.859 15.0525 5.03717 14.9807 5.25 14.9807C5.46283 14.9807 5.641 15.0525 5.7845 15.1962C5.92817 15.3397 6 15.5179 6 15.7307V17.6922C6 17.7692 6.03208 17.8397 6.09625 17.9037C6.16025 17.9679 6.23075 18 6.30775 18H17.6923C17.7692 18 17.8398 17.9679 17.9038 17.9037C17.9679 17.8397 18 17.7692 18 17.6922V15.7307C18 15.5179 18.0718 15.3397 18.2155 15.1962C18.359 15.0525 18.5372 14.9807 18.75 14.9807C18.9628 14.9807 19.141 15.0525 19.2845 15.1962C19.4282 15.3397 19.5 15.5179 19.5 15.7307V17.6922C19.5 18.1974 19.325 18.625 18.975 18.975C18.625 19.325 18.1974 19.5 17.6923 19.5H6.30775ZM11.25 7.38845L9.327 9.31145C9.17817 9.46012 9.00158 9.53354 8.79725 9.5317C8.59275 9.5297 8.41292 9.45112 8.25775 9.29595C8.11292 9.14095 8.03792 8.96537 8.03275 8.7692C8.02758 8.57304 8.10258 8.39737 8.25775 8.2422L11.3672 5.1327C11.4609 5.03904 11.5597 4.97304 11.6635 4.9347C11.7673 4.8962 11.8795 4.87695 12 4.87695C12.1205 4.87695 12.2327 4.8962 12.3365 4.9347C12.4403 4.97304 12.5391 5.03904 12.6328 5.1327L15.7423 8.2422C15.8909 8.39087 15.9643 8.56495 15.9625 8.76445C15.9605 8.96379 15.8871 9.14095 15.7423 9.29595C15.5871 9.45112 15.4089 9.53129 15.2078 9.53645C15.0064 9.54162 14.8282 9.46662 14.673 9.31145L12.75 7.38845V15.0385C12.75 15.2513 12.6782 15.4295 12.5345 15.573C12.391 15.7166 12.2128 15.7885 12 15.7885C11.7872 15.7885 11.609 15.7166 11.4655 15.573C11.3218 15.4295 11.25 15.2513 11.25 15.0385V7.38845Z" fill="#273540"/>
</svg>
