<svg width="24" height="24" viewBox="0 0 24 24" fill="none" xmlns="http://www.w3.org/2000/svg">
<g id="menu_book_notebook">
<mask id="mask0_3258_233" style="mask-type:alpha" maskUnits="userSpaceOnUse" x="0" y="0" width="24" height="24">
<rect id="Bounding box" width="24" height="24" fill="#D9D9D9"/>
</mask>
<g mask="url(#mask0_3258_233)">
<path id="menu_book" d="M6.5 16.0193C7.32817 16.0193 8.13392 16.1132 8.91725 16.301C9.70058 16.4889 10.4782 16.7834 11.25 17.1848V7.35378C10.5475 6.89611 9.78725 6.55286 8.96925 6.32403C8.15125 6.09519 7.32817 5.98077 6.5 5.98077C5.9 5.98077 5.33942 6.02786 4.81825 6.12202C4.29708 6.21636 3.7615 6.37052 3.2115 6.58452C3.13467 6.61019 3.08017 6.64711 3.048 6.69527C3.016 6.74327 3 6.79611 3 6.85378V16.3115C3 16.4014 3.03208 16.4671 3.09625 16.5088C3.16025 16.5504 3.23075 16.5552 3.30775 16.523C3.78208 16.3615 4.28267 16.2372 4.8095 16.15C5.3365 16.0629 5.9 16.0193 6.5 16.0193ZM12.75 17.1848C13.5218 16.7834 14.2994 16.4889 15.0828 16.301C15.8661 16.1132 16.6718 16.0193 17.5 16.0193C18.1 16.0193 18.6635 16.0629 19.1905 16.15C19.7173 16.2372 20.2179 16.3615 20.6923 16.523C20.7693 16.5552 20.8398 16.5504 20.9038 16.5088C20.9679 16.4671 21 16.4014 21 16.3115V6.85378C21 6.79611 20.984 6.74486 20.952 6.70002C20.9198 6.65519 20.8653 6.61669 20.7885 6.58452C20.2385 6.37052 19.7029 6.21636 19.1818 6.12202C18.6606 6.02786 18.1 5.98077 17.5 5.98077C16.6718 5.98077 15.8487 6.09519 15.0307 6.32403C14.2127 6.55286 13.4525 6.89611 12.75 7.35378V17.1848ZM12 18.9653C11.8052 18.9653 11.6228 18.9409 11.453 18.8923C11.283 18.8436 11.1224 18.7789 10.9713 18.698C10.2828 18.3084 9.5625 18.0144 8.8105 17.8163C8.05867 17.6183 7.2885 17.5193 6.5 17.5193C5.88983 17.5193 5.2905 17.5869 4.702 17.722C4.1135 17.8574 3.54617 18.0564 3 18.3193C2.64367 18.4833 2.30458 18.4573 1.98275 18.2413C1.66092 18.0253 1.5 17.7192 1.5 17.323V6.46552C1.5 6.25002 1.5555 6.04777 1.6665 5.85877C1.77733 5.66961 1.93725 5.53336 2.14625 5.45002C2.82308 5.12052 3.5285 4.87661 4.2625 4.71827C4.9965 4.55994 5.74233 4.48077 6.5 4.48077C7.473 4.48077 8.42367 4.61377 9.352 4.87977C10.2802 5.14594 11.1628 5.53861 12 6.05777C12.8372 5.53861 13.7198 5.14594 14.648 4.87977C15.5763 4.61377 16.527 4.48077 17.5 4.48077C18.2577 4.48077 19.0035 4.55994 19.7375 4.71827C20.4715 4.87661 21.1769 5.12052 21.8538 5.45002C22.0627 5.53336 22.2227 5.66961 22.3335 5.85877C22.4445 6.04777 22.5 6.25002 22.5 6.46552V17.323C22.5 17.7192 22.3327 18.0221 21.998 18.2318C21.6633 18.4413 21.3114 18.464 20.9423 18.3C20.4026 18.0435 19.8433 17.8493 19.2645 17.7173C18.6857 17.5853 18.0975 17.5193 17.5 17.5193C16.7115 17.5193 15.9413 17.6183 15.1895 17.8163C14.4375 18.0144 13.7173 18.3084 13.0288 18.698C12.8776 18.7789 12.717 18.8436 12.547 18.8923C12.3772 18.9409 12.1948 18.9653 12 18.9653ZM13.9423 8.86153C13.9423 8.75003 13.982 8.63594 14.0615 8.51928C14.141 8.40261 14.2314 8.32244 14.3328 8.27877C14.8289 8.08011 15.3395 7.92952 15.8645 7.82702C16.3895 7.72436 16.9347 7.67302 17.5 7.67302C17.827 7.67302 18.1433 7.69227 18.449 7.73077C18.7548 7.76927 19.0628 7.82186 19.373 7.88852C19.491 7.91536 19.5929 7.97944 19.6788 8.08077C19.7648 8.18211 19.8078 8.30002 19.8078 8.43452C19.8078 8.66019 19.7369 8.82527 19.5953 8.92977C19.4536 9.03427 19.2699 9.05961 19.0443 9.00577C18.8044 8.95577 18.5553 8.91986 18.297 8.89802C18.0387 8.87619 17.773 8.86527 17.5 8.86527C17.0153 8.86527 16.5407 8.91177 16.076 9.00477C15.6112 9.09777 15.1679 9.22377 14.7462 9.38277C14.5102 9.47377 14.3173 9.46861 14.1673 9.36727C14.0173 9.26611 13.9423 9.09753 13.9423 8.86153ZM13.9423 14.323C13.9423 14.2115 13.982 14.0959 14.0615 13.976C14.141 13.8562 14.2314 13.7744 14.3328 13.7308C14.8161 13.5321 15.3267 13.3831 15.8645 13.2838C16.4023 13.1844 16.9475 13.1348 17.5 13.1348C17.827 13.1348 18.1433 13.1539 18.449 13.1923C18.7548 13.2308 19.0628 13.2834 19.373 13.35C19.491 13.377 19.5929 13.4411 19.6788 13.5423C19.7648 13.6436 19.8078 13.7616 19.8078 13.8963C19.8078 14.1218 19.7369 14.2868 19.5953 14.3913C19.4536 14.4958 19.2699 14.5211 19.0443 14.4673C18.8044 14.4173 18.5553 14.3814 18.297 14.3595C18.0387 14.3379 17.773 14.327 17.5 14.327C17.0218 14.327 16.5519 14.3725 16.0903 14.4635C15.6287 14.5545 15.1871 14.6827 14.7653 14.848C14.5294 14.9455 14.3333 14.943 14.177 14.8405C14.0205 14.7379 13.9423 14.5654 13.9423 14.323ZM13.9423 11.602C13.9423 11.4905 13.982 11.3764 14.0615 11.2598C14.141 11.1431 14.2314 11.0629 14.3328 11.0193C14.8289 10.8206 15.3395 10.6699 15.8645 10.5673C16.3895 10.4648 16.9347 10.4135 17.5 10.4135C17.827 10.4135 18.1433 10.4328 18.449 10.4713C18.7548 10.5096 19.0628 10.5621 19.373 10.6288C19.491 10.6558 19.5929 10.7199 19.6788 10.8213C19.7648 10.9224 19.8078 11.0404 19.8078 11.175C19.8078 11.4007 19.7369 11.5658 19.5953 11.6703C19.4536 11.7748 19.2699 11.8001 19.0443 11.7463C18.8044 11.6963 18.5553 11.6604 18.297 11.6385C18.0387 11.6167 17.773 11.6058 17.5 11.6058C17.0153 11.6058 16.5407 11.6523 16.076 11.7453C15.6112 11.8381 15.1679 11.964 14.7462 12.123C14.5102 12.214 14.3173 12.2089 14.1673 12.1078C14.0173 12.0064 13.9423 11.8379 13.9423 11.602Z" fill="#273540"/>
</g>
</g>
</svg>
