<svg width="24" height="24" viewBox="0 0 24 24" fill="none" xmlns="http://www.w3.org/2000/svg">
<path d="M4.975 14.6922C4.76867 14.6922 4.59625 14.6203 4.45775 14.4765C4.31925 14.3326 4.25 14.1545 4.25 13.942C4.25 13.7293 4.32192 13.5512 4.46575 13.4077C4.60942 13.2641 4.7875 13.1922 5 13.1922H19.025C19.2313 13.1922 19.4038 13.2641 19.5423 13.408C19.6807 13.5518 19.75 13.7301 19.75 13.9427C19.75 14.1552 19.6781 14.3333 19.5343 14.477C19.3906 14.6205 19.2125 14.6922 19 14.6922H4.975ZM4.975 18.577C4.76867 18.577 4.59625 18.5051 4.45775 18.3612C4.31925 18.2174 4.25 18.0391 4.25 17.8265C4.25 17.614 4.32192 17.4359 4.46575 17.2922C4.60942 17.1487 4.7875 17.077 5 17.077H19.025C19.2313 17.077 19.4038 17.1489 19.5423 17.2927C19.6807 17.4364 19.75 17.6146 19.75 17.8272C19.75 18.0399 19.6781 18.218 19.5343 18.3615C19.3906 18.5051 19.2125 18.577 19 18.577H4.975ZM4.975 10.8077C4.76867 10.8077 4.59625 10.7358 4.45775 10.592C4.31925 10.4481 4.25 10.2699 4.25 10.0572C4.25 9.84472 4.32192 9.66664 4.46575 9.52297C4.60942 9.37947 4.7875 9.30772 5 9.30772H19.025C19.2313 9.30772 19.4038 9.37964 19.5423 9.52347C19.6807 9.66731 19.75 9.84547 19.75 10.058C19.75 10.2706 19.6781 10.4487 19.5343 10.5922C19.3906 10.7359 19.2125 10.8077 19 10.8077H4.975ZM4.975 6.92297C4.76867 6.92297 4.59625 6.85106 4.45775 6.70722C4.31925 6.56356 4.25 6.38539 4.25 6.17272C4.25 5.96006 4.32192 5.78197 4.46575 5.63847C4.60942 5.49481 4.7875 5.42297 5 5.42297H19.025C19.2313 5.42297 19.4038 5.49489 19.5423 5.63872C19.6807 5.78256 19.75 5.96081 19.75 6.17347C19.75 6.38597 19.6781 6.56406 19.5343 6.70772C19.3906 6.85122 19.2125 6.92297 19 6.92297H4.975Z" fill="#273540"/>
</svg>
