<svg width="24" height="24" viewBox="0 0 24 24" fill="none" xmlns="http://www.w3.org/2000/svg">
<path d="M3.404 24C3.14617 24 2.93108 23.9138 2.75875 23.7413C2.58625 23.5689 2.5 23.3539 2.5 23.0963V21.173C2.5 20.9153 2.58625 20.7003 2.75875 20.528C2.93108 20.3555 3.14617 20.2693 3.404 20.2693H20.596C20.8538 20.2693 21.0689 20.3555 21.2413 20.528C21.4138 20.7003 21.5 20.9153 21.5 21.173V23.0963C21.5 23.3539 21.4138 23.5689 21.2413 23.7413C21.0689 23.9138 20.8538 24 20.596 24H3.404ZM7.06725 17C6.78008 17 6.5545 16.8808 6.3905 16.6423C6.22633 16.4039 6.19492 16.1495 6.29625 15.879L10.9462 4.01925C11.0039 3.86292 11.1007 3.73725 11.2365 3.64225C11.3725 3.54742 11.5219 3.5 11.6848 3.5H12.3152C12.4884 3.5 12.6404 3.54742 12.7713 3.64225C12.9019 3.73725 12.9961 3.86292 13.0538 4.01925L17.7095 15.8655C17.8108 16.1423 17.7778 16.4007 17.6105 16.6405C17.4432 16.8802 17.2159 17 16.9288 17C16.7533 17 16.5911 16.951 16.4423 16.853C16.2936 16.7548 16.1872 16.6179 16.123 16.4423L14.9848 13.3808H9.00775L7.8385 16.4672C7.77433 16.6366 7.67367 16.7677 7.5365 16.8605C7.39933 16.9535 7.24292 17 7.06725 17ZM9.5345 11.9H14.427L12.05 5.6H11.9308L9.5345 11.9Z" fill="#273540"/>
</svg>
