<svg width="24" height="24" viewBox="0 0 24 24" fill="none" xmlns="http://www.w3.org/2000/svg">
<path d="M12.1151 11.0365L13.0306 11.952L18.6576 6.32501L17.7421 5.40951L12.1151 11.0365ZM5.06714 19H5.98264L11.9519 13.0308L11.0364 12.1153L5.06714 18.0845V19ZM13.5576 13.5578L10.5191 10.5098L15.0019 6.02701L14.4596 5.48476C14.4083 5.43343 14.3314 5.40776 14.2289 5.40776C14.1262 5.40776 14.0492 5.43343 13.9979 5.48476L9.33839 10.1443C9.18972 10.2929 9.01731 10.3673 8.82114 10.3673C8.62497 10.3673 8.45256 10.2929 8.30389 10.1443C8.14872 9.9956 8.07114 9.81901 8.07114 9.61451C8.07114 9.41001 8.14547 9.23343 8.29414 9.08476L12.9481 4.43076C13.3096 4.06926 13.7371 3.88851 14.2306 3.88851C14.7243 3.88851 15.1519 4.06926 15.5134 4.43076L16.0556 4.97301L17.0941 3.93476C17.275 3.75393 17.4884 3.66351 17.7344 3.66351C17.9806 3.66351 18.1941 3.75393 18.3749 3.93476L20.1709 5.73076C20.3517 5.9116 20.439 6.11868 20.4326 6.35201C20.4261 6.58535 20.3326 6.79235 20.1519 6.97301L13.5576 13.5578ZM4.47114 20.5C4.21347 20.5 3.99839 20.4138 3.82589 20.2413C3.65339 20.0689 3.56714 19.8538 3.56714 19.596V18.0845C3.56714 17.882 3.60439 17.6904 3.67889 17.5098C3.75322 17.3289 3.86281 17.1661 4.00764 17.0213L10.5096 10.5193L13.5576 13.5578L7.04614 20.0595C6.90114 20.2045 6.73831 20.3142 6.55764 20.3885C6.37681 20.4628 6.18514 20.5 5.98264 20.5H4.47114Z" fill="#273540"/>
</svg>
