<svg xmlns="http://www.w3.org/2000/svg" viewBox="0 0 24 24"><g transform="matrix(0.010416666666666666 0 0 0.010416666666666666 2 2)"><path d="M1185.941 0c73.525 0 135.643 47.322 159.021 112.941h462.156V1920H113V112.941h462.155C598.535 47.322 660.652 0 734.176 0Zm56.47 1468.235H903.589v112.941h338.824v-112.94Zm-451.764-225.882H451.824v338.823h338.823v-338.823Zm677.647 0H903.588v112.941h564.706v-112.941ZM790.647 677.647H451.824v338.824h338.823V677.647Zm451.765 225.882H903.588v112.942h338.824V903.529Zm225.882-225.882H903.588v112.941h564.706v-112.94Zm-282.353-564.706H734.176c-31.058 0-56.47 25.299-56.47 56.47v169.413h564.706V169.412c0-31.172-25.412-56.47-56.47-56.47Z" fill-rule="evenodd"/></g>
</svg>