<svg xmlns="http://www.w3.org/2000/svg" viewBox="0 0 24 24"><g><path fill-rule="evenodd" stroke="none" stroke-width="1" d="M1344.962 112.941h462.156V1920H113V112.941h462.155C598.535 47.322 660.652 0 734.176 0h451.765c73.525 0 135.643 47.322 159.021 112.941zM903.588 790.588h564.706v-112.94H903.588v112.94zm0 564.706h564.706v-112.941H903.588v112.941zm0 225.882h338.824v-112.94H903.588v112.94zm-451.764-564.705h338.823V677.647H451.824v338.824zm0 564.705h338.823v-338.823H451.824v338.823zm451.764-564.705h338.824V903.529H903.588v112.942zM677.706 225.882v112.942h564.706V169.412c0-31.172-25.412-56.47-56.47-56.47H734.175c-31.058 0-56.47 25.298-56.47 56.47v56.47z" transform="matrix(0.010416666666666666 0 0 0.010416666666666666 2 2)"/></g></svg>