<svg xmlns="http://www.w3.org/2000/svg" viewBox="0 0 24 24"><g transform="matrix(0.010416666666666666 0 0 0.010416666666666666 2 2)"><path d="M533.333 586.667v106.666h-320v479.997h.422l233.6 213.34H1472.64l233.6-213.34h.43V693.333h-320V586.667h352c41.23 0 74.66 33.429 74.66 74.666v511.997H1856c35.35 0 64 28.66 64 64V1856c0 35.35-28.65 64-64 64H64c-35.346 0-64-28.65-64-64v-618.67c0-35.34 28.654-64 64-64h42.667V661.333c0-41.237 33.429-74.666 74.666-74.666h352ZM172.378 1280h-65.711v533.33H1813.33V1280h-65.71l-233.6 213.33H405.978L172.378 1280ZM960.001 0l357.709 357.712-75.42 75.425-228.96-228.959v969.152H906.667V204.183L677.713 433.137l-75.425-75.425L960.001 0Z" fill-rule="evenodd"/></g>
</svg>