<svg width="24" height="24" viewBox="0 0 24 24" fill="none" xmlns="http://www.w3.org/2000/svg">
<path d="M5.27114 18.7L12.3211 16.2L7.77114 11.65L5.27114 18.7ZM22.3421 7.27501C22.2241 7.39934 22.086 7.46151 21.9276 7.46151C21.7693 7.46151 21.6312 7.40259 21.5134 7.28476L21.4479 7.21926C21.1761 6.94742 20.846 6.81151 20.4576 6.81151C20.0691 6.81151 19.739 6.94742 19.4671 7.21926L14.4016 12.2848C14.2838 12.4026 14.1457 12.4631 13.9874 12.4663C13.8291 12.4696 13.6877 12.4091 13.5634 12.2848C13.4391 12.1603 13.3769 12.0205 13.3769 11.8655C13.3769 11.7103 13.4391 11.5706 13.5634 11.4463L18.6286 6.38076C19.13 5.87959 19.7364 5.62901 20.4479 5.62901C21.1594 5.62901 21.7658 5.87959 22.2671 6.38076L22.3421 6.45576C22.4601 6.57376 22.5191 6.71034 22.5191 6.86551C22.5191 7.02051 22.4601 7.15701 22.3421 7.27501ZM9.87864 4.40001C10.003 4.27567 10.1427 4.21351 10.2979 4.21351C10.4531 4.21351 10.5928 4.27567 10.7171 4.40001L10.9286 4.61151C11.462 5.14484 11.7286 5.78459 11.7286 6.53076C11.7286 7.27692 11.462 7.91667 10.9286 8.45001L10.7479 8.63076C10.6301 8.74876 10.492 8.80934 10.3336 8.81251C10.1753 8.81567 10.0339 8.75509 9.90939 8.63076C9.78506 8.50642 9.72289 8.36667 9.72289 8.21151C9.72289 8.05651 9.78506 7.91676 9.90939 7.79226L10.0904 7.61151C10.3877 7.31418 10.5364 6.95392 10.5364 6.53076C10.5364 6.10776 10.3877 5.74751 10.0904 5.45001L9.87864 5.23851C9.76081 5.12051 9.70022 4.98234 9.69689 4.82401C9.69372 4.66567 9.75431 4.52434 9.87864 4.40001ZM13.7364 2.66926C13.8607 2.54492 14.0005 2.48276 14.1556 2.48276C14.3108 2.48276 14.4506 2.54492 14.5749 2.66926L15.6401 3.73476C16.148 4.24242 16.4019 4.85201 16.4019 5.56351C16.4019 6.27501 16.148 6.88459 15.6401 7.39226L12.5749 10.4578C12.4569 10.5758 12.3187 10.6363 12.1604 10.6395C12.0021 10.6427 11.8607 10.5821 11.7364 10.4578C11.6121 10.3334 11.5499 10.1937 11.5499 10.0385C11.5499 9.88334 11.6121 9.74359 11.7364 9.61926L14.8019 6.55401C15.0736 6.28217 15.2094 5.95201 15.2094 5.56351C15.2094 5.17501 15.0736 4.84484 14.8019 4.57301L13.7364 3.50776C13.6184 3.38976 13.5578 3.25159 13.5546 3.09326C13.5515 2.93492 13.6121 2.79359 13.7364 2.66926ZM20.8516 14.1115C20.7273 14.2358 20.5876 14.298 20.4324 14.298C20.2774 14.298 20.1377 14.2358 20.0134 14.1115L19.2364 13.3348C18.9326 13.0308 18.5607 12.8788 18.1209 12.8788C17.6812 12.8788 17.3095 13.0308 17.0056 13.3348L16.2286 14.1115C16.1106 14.2295 15.9725 14.2901 15.8141 14.2933C15.6558 14.2964 15.5145 14.2358 15.3901 14.1115C15.2658 13.9872 15.2036 13.8474 15.2036 13.6923C15.2036 13.5373 15.2658 13.3975 15.3901 13.273L16.1671 12.4963C16.7068 11.9564 17.3581 11.6865 18.1209 11.6865C18.8837 11.6865 19.5351 11.9564 20.0749 12.4963L20.8516 13.273C20.9696 13.391 21.0302 13.5292 21.0334 13.6875C21.0366 13.8458 20.976 13.9872 20.8516 14.1115ZM3.43064 19.3653L6.70564 10.2598C6.78264 10.0623 6.89897 9.91159 7.05464 9.80776C7.21047 9.70392 7.37881 9.65201 7.55964 9.65201C7.68014 9.65201 7.79231 9.67217 7.89614 9.71251C7.99997 9.75301 8.09864 9.82001 8.19214 9.91351L14.0576 15.7788C14.1511 15.8724 14.2181 15.9712 14.2584 16.075C14.2989 16.1788 14.3191 16.291 14.3191 16.4115C14.3191 16.5923 14.2672 16.7606 14.1634 16.9163C14.0596 17.0721 13.9089 17.1884 13.7114 17.2653L4.60564 20.5403C4.42497 20.6108 4.25097 20.6217 4.08364 20.573C3.91631 20.5243 3.77239 20.4398 3.65189 20.3193C3.53139 20.1988 3.44681 20.0548 3.39814 19.8875C3.34931 19.7202 3.36014 19.5461 3.43064 19.3653Z" fill="#273540"/>
</svg>
