<svg width="24" height="24" viewBox="0 0 24 24" fill="none" xmlns="http://www.w3.org/2000/svg">
<path d="M10 11.6923C9.0375 11.6923 8.21358 11.3496 7.52825 10.6643C6.84275 9.97876 6.5 9.15476 6.5 8.19226C6.5 7.22976 6.84275 6.40584 7.52825 5.72051C8.21358 5.03501 9.0375 4.69226 10 4.69226C10.9625 4.69226 11.7864 5.03501 12.4718 5.72051C13.1573 6.40584 13.5 7.22976 13.5 8.19226C13.5 9.15476 13.1573 9.97876 12.4718 10.6643C11.7864 11.3496 10.9625 11.6923 10 11.6923ZM2.5 17.7885V17.0845C2.5 16.5795 2.6305 16.1222 2.8915 15.7125C3.15233 15.3028 3.51033 14.9827 3.9655 14.752C4.868 14.2943 5.80333 13.9392 6.7715 13.6865C7.73967 13.434 8.73125 13.3078 9.74625 13.3078H9.8905C10.103 13.3078 10.2811 13.3825 10.4247 13.532C10.5684 13.6817 10.6403 13.8625 10.6403 14.0745C10.6403 14.2863 10.5684 14.4641 10.4247 14.6078C10.2811 14.7513 10.103 14.823 9.8905 14.823H9.74625C8.84408 14.823 7.97017 14.9317 7.1245 15.149C6.27867 15.3663 5.45508 15.6833 4.65375 16.1C4.46158 16.2025 4.30458 16.3384 4.18275 16.5078C4.06092 16.6769 4 16.8692 4 17.0845V17.8078H9.8905C10.103 17.8078 10.2811 17.8797 10.4247 18.0235C10.5684 18.1672 10.6403 18.3453 10.6403 18.558C10.6403 18.7707 10.5684 18.9488 10.4247 19.0923C10.2811 19.2359 10.103 19.3078 9.8905 19.3078H4.01925C3.59742 19.3078 3.23875 19.16 2.94325 18.8645C2.64775 18.5688 2.5 18.2102 2.5 17.7885ZM16.0038 19.4693L15.8828 18.721C15.6442 18.6505 15.4198 18.5583 15.2095 18.4443C14.9993 18.3301 14.7993 18.1871 14.6095 18.0153L13.8655 18.2885C13.7065 18.3423 13.5528 18.339 13.4045 18.2785C13.2563 18.218 13.1407 18.1213 13.0577 17.9885L12.925 17.7538C12.8403 17.6114 12.81 17.4563 12.834 17.2885C12.858 17.1207 12.9358 16.9828 13.0673 16.875L13.6655 16.4C13.5937 16.141 13.5577 15.8858 13.5577 15.6345C13.5577 15.3833 13.5937 15.1283 13.6655 14.8693L13.077 14.375C12.945 14.2698 12.8655 14.1368 12.8385 13.976C12.8115 13.815 12.8403 13.6634 12.925 13.5213L13.073 13.2713C13.1578 13.1383 13.273 13.0415 13.4185 12.981C13.5638 12.9207 13.716 12.9174 13.875 12.9713L14.6095 13.2443C14.7928 13.0724 14.9913 12.9311 15.2048 12.8203C15.4183 12.7093 15.6442 12.6185 15.8828 12.548L16.0038 11.7845C16.0346 11.6153 16.1135 11.4792 16.2405 11.376C16.3673 11.2728 16.5153 11.2213 16.6845 11.2213H16.95C17.1192 11.2213 17.2673 11.2754 17.3943 11.3838C17.5211 11.4921 17.5999 11.6308 17.6307 11.8L17.7423 12.548C17.9808 12.6185 18.2067 12.7118 18.4202 12.828C18.6336 12.944 18.8319 13.093 19.0152 13.275L19.7193 13.002C19.8884 12.9378 20.0493 12.9362 20.202 12.997C20.3545 13.058 20.4728 13.1581 20.5568 13.2973L20.7008 13.541C20.7848 13.6803 20.8133 13.833 20.7865 13.999C20.7595 14.165 20.68 14.3006 20.548 14.4058L19.9595 14.9C20.0313 15.1405 20.0673 15.391 20.0673 15.6515C20.0673 15.912 20.0313 16.1615 19.9595 16.4L20.5578 16.875C20.6898 16.9802 20.7676 17.1148 20.7913 17.2788C20.8149 17.4429 20.7845 17.5962 20.7 17.7385L20.5518 17.9885C20.4684 18.1213 20.3553 18.218 20.2125 18.2785C20.0695 18.339 19.9185 18.3423 19.7595 18.2885L19.0152 18.0153C18.8256 18.1871 18.6256 18.3301 18.4152 18.4443C18.2051 18.5583 17.9808 18.6505 17.7423 18.721L17.6307 19.4845C17.5999 19.6538 17.5211 19.7901 17.3943 19.8933C17.2673 19.9964 17.1192 20.048 16.95 20.048H16.6845C16.5153 20.048 16.3673 19.9938 16.2405 19.8855C16.1135 19.7772 16.0346 19.6384 16.0038 19.4693ZM16.8085 17.5385C17.3323 17.5385 17.7804 17.352 18.1528 16.979C18.5252 16.606 18.7115 16.1576 18.7115 15.6338C18.7115 15.1099 18.525 14.6618 18.152 14.2895C17.779 13.917 17.3306 13.7308 16.8068 13.7308C16.2831 13.7308 15.835 13.9173 15.4625 14.2903C15.09 14.6633 14.9038 15.1117 14.9038 15.6355C14.9038 16.1592 15.0903 16.6073 15.4633 16.9798C15.8363 17.3523 16.2847 17.5385 16.8085 17.5385ZM10 10.1923C10.55 10.1923 11.0208 9.99643 11.4125 9.60476C11.8042 9.21309 12 8.74226 12 8.19226C12 7.64226 11.8042 7.17143 11.4125 6.77976C11.0208 6.38809 10.55 6.19226 10 6.19226C9.45 6.19226 8.97917 6.38809 8.5875 6.77976C8.19583 7.17143 8 7.64226 8 8.19226C8 8.74226 8.19583 9.21309 8.5875 9.60476C8.97917 9.99643 9.45 10.1923 10 10.1923Z" fill="#273540"/>
</svg>
